<svg width="78" height="80" viewBox="0 0 78 80" fill="none" xmlns="http://www.w3.org/2000/svg">
<path d="M39.0001 3.43677C17.8577 3.43677 0.718506 20.576 0.718506 41.7183C0.718506 62.2679 16.9105 79.0335 37.2318 79.9577L53.8668 77.0055C67.6248 71.2021 77.2816 57.5882 77.2816 41.7183C77.2816 20.576 60.1424 3.43677 39.0001 3.43677Z" fill="#73C3F9"/>
<path d="M47.3029 34.26L42.0815 27.6162C42.0815 27.6162 39.2748 27.9979 33.1279 28.725C26.9812 29.452 25.7514 36.1707 25.7514 36.1707C24.5861 40.29 24.1093 43.3904 25.869 44.2857C27.5179 45.1246 28.7373 43.655 28.7373 43.655C29.4026 42.8423 30.0625 41.7557 30.6778 40.5851L37.2914 37.4357C37.2914 37.4357 39.417 42.825 41.8693 45.3368C44.3217 47.8487 46.0053 45.3864 46.0053 45.3864C51.4626 40.9428 47.3029 34.26 47.3029 34.26Z" fill="#FC9460"/>
<path d="M45.7536 43.7142C43.3013 41.2023 41.1757 35.8131 41.1757 35.8131L37.3687 37.6261C37.7702 38.6033 39.6908 43.1055 41.8696 45.3369C44.3219 47.8487 46.0055 45.3864 46.0055 45.3864C46.3299 45.1223 46.6191 44.8501 46.8783 44.5722C46.5258 44.3947 46.1499 44.1203 45.7536 43.7142Z" fill="#F48345"/>
<path d="M28.9407 36.861C28.9407 36.861 30.1706 30.1422 36.3173 29.4152C39.235 29.0702 41.3986 28.803 42.8682 28.6174L42.0815 27.6165C42.0815 27.6165 39.2748 27.9982 33.1279 28.7252C26.9812 29.4522 25.7514 36.171 25.7514 36.171C24.5861 40.2902 24.1093 43.3907 25.869 44.286C26.8703 44.7954 27.7125 44.4536 28.2201 44.1064C27.5356 42.703 28.0254 40.0966 28.9407 36.861Z" fill="#F48345"/>
<path d="M27.5656 29.0188L29.5938 29.5574C32.8775 30.055 38.4878 29.1106 40.6384 28.7052C41.2009 28.5991 41.7763 28.8049 42.1417 29.2455C43.0649 30.3581 44.3167 32.1427 45.2591 33.2524C47.6764 36.0985 48.3606 39.8666 46.5355 43.1588C46.1159 43.9156 45.7509 44.596 45.3578 44.9781C45.3578 44.9781 43.9389 46.5842 42.7845 45.402L39.3964 40.8197C39.173 40.2569 36.4563 30.7703 31.4897 30.2216C31.2869 30.2 31.0439 30.2039 31.0574 30.2041C30.378 30.223 29.6242 30.4947 29.2863 31.0675C28.957 31.6044 29.2224 32.1238 30.1461 37.3313C30.5542 39.6035 30.9289 41.9658 30.9131 43.2806C30.8869 45.4722 34.6477 51.785 36.4108 54.6222C36.9925 55.5583 37.2953 56.6403 37.282 57.7425L37.28 58.6016H53.9255L53.935 55.6317C53.94 55.2178 54.0258 54.8094 54.1834 54.4267C56.0875 49.806 58.1203 44.2349 58.782 39.1078C58.9133 38.0908 58.8 37.0583 58.4622 36.09C57.8053 34.2069 56.5309 30.922 55.3122 29.8781C51.8575 26.9191 48.5766 21.5891 44.837 21.5442C39.3861 21.4789 26.6277 24.5608 26.5914 27.5831C26.5853 28.1422 26.8399 28.6664 27.5656 29.0188Z" fill="#FFC7AB"/>
<path d="M37.257 68.9084L37.2317 79.9578C37.8179 79.9846 38.4072 80 39 80C44.2725 80 49.2958 78.9338 53.8667 77.0056L53.8928 68.9084H37.257Z" fill="#FFC7AB"/>
<path d="M27.566 29.0189L29.5941 29.5573C32.5974 30.0125 37.6536 29.2681 40.6388 28.7051C40.6391 28.7051 40.6394 28.7051 40.6397 28.705C41.6002 28.5253 42.1596 29.2593 42.1458 29.2498C42.5736 29.7657 43.131 30.5039 43.5405 31.047C43.5425 31.0496 43.5444 31.0523 43.5464 31.055C44.1405 31.8426 44.746 32.6476 45.2596 33.2521C47.7007 36.126 48.3077 39.834 46.5991 43.0382L46.6032 43.0381C46.2127 43.7393 45.7813 44.5667 45.3583 44.9778C44.8772 45.4689 44.2386 45.9232 43.5605 45.8228H43.5602C43.5602 45.8228 47.0447 48.4276 49.6332 45.0289C50.1541 44.5224 50.5968 43.5332 51.1757 42.5881C52.97 39.6575 52.6319 35.8943 50.4136 33.27L44.0643 25.7582C43.5974 25.1951 42.8624 24.9296 42.1435 25.0651C31.0625 27.1546 27.6549 26.0331 27.6396 26.0329C27.6393 26.0332 27.6388 26.0334 27.6388 26.0334C27.6349 26.0365 27.6315 26.0393 27.6277 26.0421C27.1397 26.4206 26.5993 26.9676 26.5919 27.5826C26.5875 27.9495 26.6968 28.3011 26.9769 28.5992C27.1238 28.7561 27.3165 28.8978 27.566 29.0189Z" fill="#FFAA7B"/>
<path d="M42.7292 0H28.2411C27.2309 0 26.4045 0.826406 26.4045 1.83656V34.2441C26.4045 35.2541 27.2309 36.0805 28.2408 36.0806H42.7292C43.7394 36.0806 44.5658 35.2542 44.5658 34.2441V1.83656C44.5658 0.826406 43.7394 0 42.7292 0V0Z" fill="#FFDD40"/>
<path d="M39.3969 40.8195C39.1735 40.2567 36.4568 30.7701 31.4902 30.2214C31.2874 30.1998 31.0444 30.2037 31.0579 30.2039C30.3785 30.2228 29.6247 30.4945 29.2868 31.0673C28.9575 31.6042 29.2229 32.1236 30.1466 37.3311C31.2704 43.5864 30.7199 42.8007 31.0235 44.0904L41.9118 44.2209L39.3969 40.8195Z" fill="#FFC7AB"/>
<path d="M26.7172 34.2441V1.83656C26.7172 0.826406 27.5436 0 28.5537 0H21.0006C19.9905 0 19.1641 0.826406 19.1641 1.83656V34.2441C19.1641 35.2541 19.9905 36.0806 21.0006 36.0806H28.5537C27.5436 36.0805 26.7172 35.2541 26.7172 34.2441Z" fill="#FFC839"/>
<path d="M52.0907 5.73462C51.0901 9.69446 50.5724 16.2865 55.8291 21.5432C63.9015 29.6156 67.3635 40.8296 62.8323 49.8198C59.0073 57.4085 58.7387 66.8391 65.2354 69.5946C72.6509 62.6132 77.2818 52.7071 77.2818 41.7185C77.2816 25.1743 66.7863 11.082 52.0907 5.73462Z" fill="#9BD8F9"/>
<path d="M20.332 49.1576C13.457 44.5055 12.6136 36.4658 12.6136 26.6844C12.6136 22.9343 11.3592 19.6169 9.81264 16.9507C4.14154 23.6271 0.718262 32.2724 0.718262 41.7185C0.718262 58.1658 11.0919 72.1876 25.6522 77.6047C35.2775 67.838 26.6747 53.4493 20.332 49.1576Z" fill="#9BD8F9"/>
<path d="M43.8096 68.2041V59.3054C43.8096 58.6598 43.4659 58.092 42.9535 57.7715H37.2616C36.3101 57.7715 35.5315 58.5501 35.5315 59.5016V68.0082C35.5315 68.9598 36.3101 69.7384 37.2616 69.7384H42.9535C43.466 69.4176 43.8096 68.8498 43.8096 68.2041Z" fill="#3C58A0"/>
<path d="M48.6561 68.3372V59.1728C48.6561 58.6152 48.9054 58.1141 49.2969 57.7717H41.9995C42.9511 57.7717 43.7297 58.5503 43.7297 59.5019V68.0084C43.7297 68.96 42.9511 69.7386 41.9995 69.7386H49.2969C48.9056 69.3959 48.6561 68.8947 48.6561 68.3372Z" fill="#2A428C"/>
<path d="M50.039 64.9247H54.1578C54.8451 64.9247 55.4551 64.5817 55.829 64.0597V59.1726C55.829 58.1475 54.9903 57.3087 53.9651 57.3087H50.2318C49.2067 57.3087 48.3679 58.1475 48.3679 59.1726V64.0597C48.7417 64.5817 49.3517 64.9247 50.039 64.9247Z" fill="#4F71B6"/>
<path d="M53.9651 64.7322H50.2318C49.2067 64.7322 48.3679 63.8934 48.3679 62.8683V68.337C48.3679 69.3622 49.2067 70.2009 50.2318 70.2009H53.9651C54.9903 70.2009 55.829 69.3622 55.829 68.337V62.8683C55.829 63.8934 54.9903 64.7322 53.9651 64.7322Z" fill="#3C58A0"/>
</svg>
