<svg width="78" height="80" viewBox="0 0 78 80" fill="none" xmlns="http://www.w3.org/2000/svg">
<path d="M35.1098 40.5198C37.5935 39.4529 40.4065 39.4529 42.8904 40.5198L75.138 54.3715C76.5255 50.4105 77.2816 46.153 77.2816 41.7182C77.2816 20.5759 60.1424 3.43665 39.0001 3.43665C17.8577 3.43665 0.718506 20.576 0.718506 41.7184C0.718506 46.1532 1.4746 50.4107 2.8621 54.3716L35.1098 40.5198Z" fill="#2A428C"/>
<path d="M75.2335 54.1002L54.4387 45.1678L54.4726 45.3677C52.9113 45.3107 45.7947 45.2441 43.5294 48.5835C42.5854 49.975 42.616 51.7677 43.6204 53.9114L43.631 53.9342L47.6658 59.2253L38.878 66.0535C38.2833 66.3253 30.6766 69.9036 30.7165 74.9213C30.7291 76.5102 31.516 78.0533 33.0618 79.5413C34.9969 79.8428 36.9801 80 39.0001 80C49.8649 80 59.6694 75.4708 66.6369 68.2008V65.8775L64.224 64.8411H69.509C71.9533 61.6211 73.8997 58.0027 75.2335 54.1002Z" fill="#92C357"/>
<path d="M35.1097 40.2074L2.7666 54.1002C4.10035 58.0025 6.04676 61.6211 8.49098 64.8411H13.776L11.363 65.8775V68.2008C17.1239 74.2116 24.825 78.3458 33.4605 79.5986C25.5094 72.3389 39 66.2555 39 66.2555L47.9928 59.268L43.8325 53.8121C39.568 44.7103 54.7521 45.6152 54.7521 45.6152L54.695 45.2781L42.8904 40.2075C40.4066 39.1406 37.5936 39.1406 35.1097 40.2074Z" fill="#6FAF46"/>
<path d="M61.8338 18.2046L51.5027 14.2496C50.6112 13.9083 49.6543 14.5666 49.6543 15.5211V22.8758C49.6543 23.8305 50.6112 24.4888 51.5027 24.1474L61.8338 20.1924C62.7457 19.8435 62.7457 18.5536 61.8338 18.2046Z" fill="#E80054"/>
<path d="M53.1526 57.8151L39.834 52.0943C39.3017 51.8655 38.6987 51.8655 38.1664 52.0943L8.49121 64.841C9.38434 66.0176 10.3429 67.1415 11.3634 68.206L25.7875 62.0102C26.3098 61.7859 26.9117 61.8685 27.3568 62.222C28.9226 63.4654 33.0115 66.2554 39.0003 66.2554C43.2431 66.2554 47.3481 64.8243 50.66 62.2082C48.8607 58.2873 52.3637 57.8613 53.1526 57.8151ZM46.067 60.2027C43.9196 61.3921 41.4912 62.0299 39.0003 62.0299C36.5098 62.0299 34.0809 61.3923 31.9334 60.2029C31.5887 60.012 31.6167 59.5063 31.9787 59.3509L39.0003 56.3348L46.0217 59.3507C46.3837 59.5063 46.4117 60.012 46.067 60.2027Z" fill="#D3DCFB"/>
<path d="M38.9999 39.2064C39.8605 39.2064 40.6041 38.712 40.9671 37.9927V1.96703C40.9669 0.880625 40.0863 0 38.9999 0C37.9135 0 37.0327 0.880625 37.0327 1.96703V37.9927C37.3957 38.712 38.1391 39.2064 38.9999 39.2064Z" fill="#E9EFFF"/>
<path d="M38.9999 38.9695C37.9135 38.9695 37.0327 38.0888 37.0327 37.0024V49.6224C37.386 48.8907 38.1329 48.3846 38.9999 48.3846C39.8669 48.3846 40.6136 48.8907 40.9671 49.6224V37.0024C40.9669 38.0888 40.0863 38.9695 38.9999 38.9695Z" fill="#D3DCFB"/>
<path d="M44.8938 7.70928V14.7194C44.8938 16.2098 46.1132 17.4291 47.6035 17.4291H52.1475V10.221C52.1475 9.65678 51.7996 9.151 51.2727 8.94944L45.1363 6.60022C44.9818 6.93928 44.8938 7.31397 44.8938 7.70928Z" fill="#FF7186"/>
<path d="M47.8107 17.2366C46.4357 17.2366 45.3105 16.1116 45.3105 14.7365V8.26852C45.3105 7.73821 45.4791 7.24618 45.7637 6.8404L41.0254 5.02649V24.8552L51.2727 20.9324C51.7996 20.7307 52.1476 20.2249 52.1476 19.6609V17.2368H47.8107V17.2366Z" fill="#FF4155"/>
<path d="M39.0001 57.58C37.7929 57.58 36.8145 56.6014 36.8145 55.3944V50.2788C36.8145 49.0717 37.793 48.0931 39.0001 48.0931C40.2071 48.0931 41.1857 49.0717 41.1857 50.2788V55.3944C41.1857 56.6014 40.2071 57.58 39.0001 57.58Z" fill="#4F71B6"/>
<path d="M77.2817 41.7185C77.2817 33.9528 74.9671 26.7285 70.9933 20.6938C64.4008 23.3251 57.8772 26.1251 51.6721 29.5595C50.8472 30.016 49.9925 30.5178 49.5072 31.326C48.7174 32.6417 49.1752 34.4196 50.1824 35.5774C51.1896 36.7353 52.6292 37.4088 54.0341 38.0265C59.1561 40.2788 64.4124 42.2263 69.768 43.8467C73.3645 44.9348 75.2922 45.0213 77.2052 44.1521C77.2556 43.3476 77.2817 42.536 77.2817 41.7185Z" fill="#3C58A0"/>
<path d="M0.774414 39.6528C2.62848 43.7808 7.54191 45.7067 11.7796 43.8277L24.5827 38.1503C28.1921 36.5499 30.5189 32.9724 30.5189 29.0241V13.0178C30.5189 9.52956 27.9116 7.13222 25.8152 5.76831C11.7838 10.916 1.60441 24.0439 0.774414 39.6528Z" fill="#3C58A0"/>
<path d="M52.7077 57.6241C52.006 57.7229 50.8668 58.0227 50.2805 58.9355C49.7463 59.7674 49.8024 60.9015 50.4468 62.3059C50.4541 62.3216 50.458 62.3396 50.4644 62.356C50.5293 62.3062 50.5957 62.259 50.6599 62.2082C51.0997 61.8609 51.6969 61.7885 52.2118 62.0096L66.6371 68.2059C67.6575 67.1413 68.6161 66.0174 69.5092 64.8409L52.7077 57.6241Z" fill="#E9EFFF"/>
<path d="M39.0001 15.4097C37.7258 15.4097 36.6929 14.3768 36.6929 13.1025V24.8918C36.6929 25.3894 37.0963 25.7929 37.594 25.7929H40.4062C40.9038 25.7929 41.3073 25.3894 41.3073 24.8918V13.1025C41.3071 14.3768 40.2743 15.4097 39.0001 15.4097Z" fill="#FF7186"/>
<path d="M40.4062 4.08875H37.594C37.0963 4.08875 36.6929 4.49218 36.6929 4.98968V13.5712C36.6929 14.8455 37.7258 15.8784 39.0001 15.8784C40.2743 15.8784 41.3073 14.8455 41.3073 13.5712V4.98968C41.3071 4.49218 40.9038 4.08875 40.4062 4.08875Z" fill="#F9A0B1"/>
</svg>
