<svg width="18" height="24" viewBox="0 0 18 24" fill="none" xmlns="http://www.w3.org/2000/svg">
<g clip-path="url(#clip0)">
<path d="M17.3391 4.58911L13.4062 0.656299C12.9844 0.234424 12.4125 -0.00463867 11.8172 -0.00463867H2.25C1.00781 4.88283e-05 0 1.00786 0 2.25005V21.75C0 22.9922 1.00781 24 2.25 24H15.75C16.9922 24 18 22.9922 18 21.75V6.18286C18 5.58755 17.7609 5.01099 17.3391 4.58911ZM15.5672 6.00005H12V2.43286L15.5672 6.00005ZM2.25 21.75V2.25005H9.75V7.12505C9.75 7.74849 10.2516 8.25005 10.875 8.25005H15.75V21.75H2.25ZM12.1875 10.5H10.8375C10.6312 10.5 10.4437 10.6125 10.3453 10.7954C9.50156 12.3469 9.30469 12.7829 9.00469 13.5C8.35313 12.136 8.68125 12.6891 7.66406 10.7954C7.56563 10.6125 7.37344 10.5 7.16719 10.5H5.8125C5.37656 10.5 5.10938 10.9688 5.325 11.3438L7.49531 15L5.325 18.6563C5.10469 19.0313 5.37656 19.5 5.8125 19.5H7.16719C7.37344 19.5 7.56094 19.3876 7.65937 19.2047C8.67656 17.3297 8.7375 17.0954 9 16.5C9.69844 17.9157 9.27656 17.2454 10.3406 19.2047C10.4391 19.3876 10.6312 19.5 10.8375 19.5H12.1875C12.6234 19.5 12.8906 19.0313 12.675 18.6563L10.5 15C10.5328 14.9485 11.9203 12.6329 12.6703 11.3438C12.8906 10.9688 12.6187 10.5 12.1875 10.5Z" fill="#60B15A"/>
</g>
<defs>
<clipPath id="clip0">
<rect width="18" height="24" fill="white"/>
</clipPath>
</defs>
</svg>
