<svg width="78" height="80" viewBox="0 0 78 80" fill="none" xmlns="http://www.w3.org/2000/svg">
<path d="M75.2934 53.9252C76.5823 50.0913 77.2816 45.9866 77.2816 41.7183C77.2816 20.576 60.1424 3.43677 39.0001 3.43677C17.8577 3.43677 0.718506 20.576 0.718506 41.7183C0.718506 45.9866 1.41788 50.0913 2.70679 53.9252H75.2934Z" fill="#73C3F9"/>
<path d="M71.3163 2.38818H29.9846L30.5262 12.2229C30.5262 12.2229 29.1963 13.1972 30.1157 14.5544V24.088L30.9368 28.8204C30.9368 28.8204 24.1287 37.6877 30.9368 45.8855C30.9368 45.8855 29.4238 49.7005 29.4238 52.9296C29.4238 56.1588 30.9368 59.5413 30.9368 59.5413C30.9368 59.5413 23.7291 66.4619 30.9368 76.6097L30.1571 78.9635L31.6395 79.2921C34.0215 79.7563 36.4823 80.0001 38.9999 80.0001C41.5176 80.0001 43.9784 79.7563 46.3602 79.2924L48.2677 78.8696C60.0909 75.9293 69.7413 67.493 74.3506 56.4296V5.4224C74.3507 3.74662 72.9921 2.38818 71.3163 2.38818Z" fill="#92C357"/>
<path d="M3.64917 5.4224V56.4296C8.25839 67.4929 17.9087 75.929 29.7315 78.8694L30.4482 79.0283L31.2493 76.61C24.0417 66.4621 31.2493 59.5416 31.2493 59.5416C31.2493 59.5416 29.7364 56.1591 29.7364 52.9299C29.7364 49.7007 31.2493 45.8858 31.2493 45.8858C24.4412 37.688 31.2493 28.8207 31.2493 28.8207L30.4282 24.0883V14.5544C29.5089 13.1972 30.8387 12.2229 30.8387 12.2229L30.2971 2.38818H6.68354C5.00776 2.38818 3.64917 3.74662 3.64917 5.4224Z" fill="#6FAF46"/>
<path d="M54.2083 22.7569H23.7919C22.4848 22.7569 21.4214 21.6936 21.4214 20.3864V2.86578C21.4214 2.34516 21.8434 1.92328 22.3639 1.92328C22.8844 1.92328 23.3064 2.34516 23.3064 2.86578V20.3864C23.3064 20.6541 23.5242 20.8719 23.7919 20.8719H54.2083C54.4759 20.8719 54.6937 20.6542 54.6937 20.3864V2.74719C54.6937 2.22656 55.1158 1.80469 55.6362 1.80469C56.1569 1.80469 56.5787 2.22656 56.5787 2.74719V20.3864C56.5787 21.6936 55.5154 22.7569 54.2083 22.7569Z" fill="#D3DCFB"/>
<path d="M47.1614 12.2228H30.8389C29.8652 12.2228 29.073 11.4306 29.073 10.4569V2.74719C29.073 2.22656 29.495 1.80469 30.0155 1.80469C30.5361 1.80469 30.958 2.22656 30.958 2.74719V10.3378H47.0424V2.77672C47.0424 2.25609 47.4643 1.83422 47.9849 1.83422C48.5055 1.83422 48.9274 2.25609 48.9274 2.77672V10.4569C48.9274 11.4306 48.1352 12.2228 47.1614 12.2228Z" fill="#E9EFFF"/>
<path d="M38.9998 32.3271C33.3014 32.3271 28.6653 27.691 28.6653 21.9925C28.6653 21.4719 29.0873 21.05 29.6078 21.05C30.1284 21.05 30.5503 21.4719 30.5503 21.9925C30.5503 26.6518 34.3408 30.4421 38.9998 30.4421C43.6589 30.4421 47.4494 26.6516 47.4494 21.9925C47.4494 21.4719 47.8714 21.05 48.3919 21.05C48.9123 21.05 49.3344 21.4719 49.3344 21.9925C49.3344 27.691 44.6983 32.3271 38.9998 32.3271Z" fill="#E9EFFF"/>
<path d="M74.0315 53.656H3.96838C3.44775 53.656 3.02588 53.2341 3.02588 52.7135C3.02588 52.1929 3.44791 51.771 3.96838 51.771H74.0317C74.5523 51.771 74.9742 52.1929 74.9742 52.7135C74.9742 53.2341 74.5521 53.656 74.0315 53.656Z" fill="#D3DCFB"/>
<path d="M38.9998 63.048C33.3014 63.048 28.6653 58.4121 28.6653 52.7137C28.6653 47.0152 33.3014 42.3792 38.9998 42.3792C44.6983 42.3792 49.3344 47.0152 49.3344 52.7137C49.3344 58.4121 44.6983 63.048 38.9998 63.048ZM38.9998 44.2641C34.3408 44.2641 30.5503 48.0546 30.5503 52.7135C30.5503 57.3726 34.3408 61.1629 38.9998 61.1629C43.6589 61.1629 47.4494 57.3724 47.4494 52.7135C47.4494 48.0545 43.6589 44.2641 38.9998 44.2641Z" fill="#E9EFFF"/>
<path d="M38.9999 73.1001C34.9396 73.1001 31.4204 75.4548 29.7314 78.8695C30.3614 79.0262 30.9975 79.1674 31.6396 79.2924C33.0908 76.724 35.8454 74.9851 38.9999 74.9851C42.1544 74.9851 44.9089 76.724 46.3602 79.2924C47.0021 79.1674 47.6382 79.0262 48.2683 78.8695C46.5794 75.4548 43.0602 73.1001 38.9999 73.1001Z" fill="#E9EFFF"/>
<path d="M73.7275 9.26688C70.4762 9.26688 67.8311 6.62173 67.8311 3.37048C67.8311 2.84985 68.2529 2.42798 68.7736 2.42798C69.2942 2.42798 69.7161 2.84985 69.7161 3.37048C69.7161 5.58235 71.5156 7.38189 73.7275 7.38189C74.2481 7.38189 74.67 7.80392 74.67 8.32439C74.67 8.84485 74.2481 9.26688 73.7275 9.26688Z" fill="#D3DCFB"/>
<path d="M4.45739 9.26688C3.93677 9.26688 3.51489 8.84501 3.51489 8.32439C3.51489 7.80376 3.93692 7.38189 4.45739 7.38189C6.66927 7.38189 8.4688 5.58235 8.4688 3.37048C8.4688 2.84985 8.89067 2.42798 9.4113 2.42798C9.93192 2.42798 10.3538 2.84985 10.3538 3.37048C10.3536 6.62173 7.70864 9.26688 4.45739 9.26688Z" fill="#D3DCFB"/>
<path d="M39.2475 17.2551H38.7533C38.2327 17.2551 37.8108 16.8332 37.8108 16.3126C37.8108 15.792 38.2327 15.3701 38.7533 15.3701H39.2475C39.7681 15.3701 40.19 15.7921 40.19 16.3126C40.19 16.8331 39.768 17.2551 39.2475 17.2551Z" fill="#E9EFFF"/>
<path d="M39.0001 55.0259C38.4795 55.0259 38.0576 54.6041 38.0576 54.0834V51.3131C38.0576 50.7925 38.4795 50.3706 39.0001 50.3706C39.5207 50.3706 39.9426 50.7925 39.9426 51.3131V54.0834C39.9426 54.6041 39.5207 55.0259 39.0001 55.0259Z" fill="#D3DCFB"/>
<path d="M75.2934 53.9252V5.42219C75.2934 3.22938 73.5094 1.44531 71.3166 1.44531H6.68375C4.49094 1.44531 2.70703 3.22938 2.70703 5.42219V53.9252C3.2375 55.5031 3.86906 57.0344 4.59203 58.5128V5.42219C4.59203 4.26875 5.53031 3.33031 6.68375 3.33031H71.3167C72.4702 3.33031 73.4085 4.26875 73.4085 5.42219V58.5128C74.1314 57.0344 74.763 55.5031 75.2934 53.9252Z" fill="#E9EFFF"/>
<path d="M39.2695 5.98219C39.2695 5.98219 40.0067 2.20641 39.2695 1.46922C38.575 0.774687 39.1887 0.0851562 39.2623 0.0075C39.1756 0.0028125 39.0882 0 39.0003 0C36.3676 0 34.2334 2.13406 34.2334 4.76672C34.2334 6.03187 34.7271 7.18094 35.5312 8.03422H42.0746L39.2695 5.98219Z" fill="#3C58A0"/>
<path d="M39.0002 1.46922C39.7374 2.20641 39.0002 5.98219 39.0002 5.98219L41.8054 8.03437H42.4693C43.2734 7.18109 43.7671 6.03187 43.7671 4.76687C43.7671 2.13406 41.6329 0 39.0002 0C39.0002 0 38.2631 0.732031 39.0002 1.46922Z" fill="#4F71B6"/>
<path d="M41.0432 4.05112C41.3088 2.92776 40.6134 1.80183 39.49 1.53629C38.3667 1.27075 37.2407 1.96615 36.9752 3.08951C36.7096 4.21287 37.405 5.3388 38.5284 5.60434C39.6518 5.86989 40.7777 5.17449 41.0432 4.05112Z" fill="#FFC7AB"/>
<path d="M42.4138 7.76738C42.3784 7.59597 42.3481 7.42331 42.3277 7.24925C42.2882 6.91097 42.1107 6.12159 41.3116 5.86472C40.4435 5.58566 39.4405 5.46613 38.4416 5.53488C37.899 5.84363 37.1733 6.41222 37.1733 7.24456V9.16894C37.736 9.403 38.3526 9.53378 39.0001 9.53378C40.3676 9.53378 41.5998 8.95706 42.469 8.03441L42.4138 7.76738Z" fill="#FFDD40"/>
<path d="M36.6885 5.86471C35.8894 6.12158 35.7119 6.91096 35.6724 7.24924C35.6521 7.42314 35.6218 7.5958 35.5863 7.76736L35.531 8.03455C36.0534 8.58893 36.7074 9.01705 37.4426 9.27158C37.4426 8.73424 37.4426 7.97455 37.4426 7.24455C37.4426 6.3983 38.1923 5.82518 38.7376 5.52002C38.0435 5.54221 37.3449 5.65377 36.6885 5.86471Z" fill="#FFB332"/>
<path d="M13.5547 20.5366C13.5547 20.5366 14.2919 16.7609 13.5547 16.0237C12.8602 15.3291 13.4741 14.6396 13.5475 14.5619C13.4608 14.5573 13.3735 14.5544 13.2855 14.5544C10.6529 14.5544 8.5188 16.6887 8.5188 19.3212C8.5188 20.5863 9.01255 21.7354 9.81661 22.5887H16.3601L13.5547 20.5366Z" fill="#3C58A0"/>
<path d="M13.2852 16.0237C14.0223 16.7609 13.2852 20.5367 13.2852 20.5367L16.0903 22.5889H16.7542C17.5583 21.7356 18.052 20.5864 18.052 19.3214C18.052 16.6887 15.9178 14.5547 13.2852 14.5547C13.2852 14.5545 12.548 15.2866 13.2852 16.0237Z" fill="#4F71B6"/>
<path d="M15.3186 18.6031C15.5842 17.4798 14.8888 16.3538 13.7654 16.0883C12.6421 15.8228 11.5161 16.5182 11.2506 17.6415C10.985 18.7649 11.6804 19.8908 12.8038 20.1563C13.9272 20.4219 15.0531 19.7265 15.3186 18.6031Z" fill="#FFC7AB"/>
<path d="M16.6992 22.3215C16.6637 22.1501 16.6334 21.9775 16.6131 21.8034C16.5736 21.4651 16.3961 20.6757 15.597 20.4189C14.7289 20.1398 13.7259 20.0204 12.727 20.089C12.1844 20.3978 11.4587 20.9664 11.4587 21.7987V23.7231C12.0214 23.9571 12.638 24.0879 13.2855 24.0879C14.6531 24.0879 15.8851 23.5112 16.7544 22.5885L16.6992 22.3215Z" fill="#FF7186"/>
<path d="M10.9739 20.4189C10.1748 20.6758 9.99734 21.4653 9.95781 21.8034C9.9375 21.9773 9.90719 22.15 9.87172 22.3216L9.81641 22.5887C10.3387 23.1431 10.9928 23.5712 11.728 23.8258C11.728 23.2884 11.728 22.5286 11.728 21.7987C11.728 20.9525 12.4777 20.3794 13.023 20.0742C12.3291 20.0964 11.6305 20.2078 10.9739 20.4189Z" fill="#FF4155"/>
<path d="M30.6977 20.5366C30.6977 20.5366 31.4349 16.7609 30.6977 16.0237C30.0032 15.3291 30.6169 14.6396 30.6905 14.5619C30.6038 14.5573 30.5165 14.5544 30.4285 14.5544C27.7958 14.5544 25.6616 16.6887 25.6616 19.3212C25.6616 20.5863 26.1554 21.7354 26.9594 22.5887H33.5029L30.6977 20.5366Z" fill="#3C58A0"/>
<path d="M30.4282 16.0237C31.1654 16.7609 30.4282 20.5367 30.4282 20.5367L33.2334 22.5889H33.8973C34.7013 21.7356 35.1951 20.5864 35.1951 19.3214C35.1951 16.6887 33.0609 14.5547 30.4282 14.5547C30.4282 14.5545 29.691 15.2866 30.4282 16.0237Z" fill="#4F71B6"/>
<path d="M32.4658 18.6075C32.7314 17.4842 32.036 16.3582 30.9126 16.0927C29.7893 15.8271 28.6633 16.5225 28.3978 17.6459C28.1323 18.7693 28.8277 19.8952 29.951 20.1607C31.0744 20.4263 32.2003 19.7309 32.4658 18.6075Z" fill="#FFC7AB"/>
<path d="M33.8423 22.3215C33.8068 22.1501 33.7765 21.9775 33.7562 21.8034C33.7167 21.4651 33.5392 20.6757 32.7401 20.4189C31.8721 20.1398 30.869 20.0204 29.8701 20.089C29.3274 20.3978 28.6018 20.9664 28.6018 21.7987V23.7231C29.1645 23.9571 29.781 24.0879 30.4285 24.0879C31.796 24.0879 33.0282 23.5112 33.8974 22.5885L33.8423 22.3215Z" fill="#FF7186"/>
<path d="M28.1167 20.4189C27.3177 20.6758 27.1402 21.4653 27.1006 21.8034C27.0803 21.9773 27.05 22.15 27.0145 22.3216L26.9592 22.5887C27.4816 23.1431 28.1356 23.5712 28.8708 23.8258C28.8708 23.2884 28.8708 22.5286 28.8708 21.7987C28.8708 20.9525 29.6205 20.3794 30.1656 20.0742C29.4717 20.0964 28.7733 20.2078 28.1167 20.4189Z" fill="#FF4155"/>
<path d="M47.8411 20.5366C47.8411 20.5366 48.5783 16.7609 47.8411 16.0237C47.1466 15.3291 47.7603 14.6396 47.8339 14.5619C47.7472 14.5573 47.6599 14.5544 47.5719 14.5544C44.9392 14.5544 42.8052 16.6887 42.8052 19.3212C42.8052 20.5863 43.2989 21.7354 44.103 22.5887H50.6464L47.8411 20.5366Z" fill="#3C58A0"/>
<path d="M47.5715 16.0237C48.3087 16.7609 47.5715 20.5367 47.5715 20.5367L50.3767 22.5889H51.0406C51.8447 21.7356 52.3384 20.5864 52.3384 19.3214C52.3384 16.6887 50.2042 14.5547 47.5715 14.5547C47.5715 14.5545 46.8343 15.2866 47.5715 16.0237Z" fill="#4F71B6"/>
<path d="M49.6135 18.6117C49.8791 17.4883 49.1837 16.3624 48.0603 16.0968C46.937 15.8313 45.811 16.5267 45.5455 17.6501C45.28 18.7734 45.9754 19.8993 47.0987 20.1649C48.2221 20.4304 49.348 19.735 49.6135 18.6117Z" fill="#FFC7AB"/>
<path d="M50.9856 22.3215C50.9501 22.1501 50.9198 21.9775 50.8995 21.8034C50.86 21.4651 50.6825 20.6757 49.8834 20.4189C49.0153 20.1398 48.0123 20.0204 47.0134 20.089C46.4707 20.3978 45.7451 20.9664 45.7451 21.7987V23.7231C46.3078 23.9571 46.9243 24.0879 47.5718 24.0879C48.9395 24.0879 50.1715 23.5112 51.0409 22.5885L50.9856 22.3215Z" fill="#FF7186"/>
<path d="M45.2603 20.4189C44.4612 20.6758 44.2837 21.4653 44.2442 21.8034C44.2239 21.9773 44.1936 22.15 44.1581 22.3216L44.1028 22.5887C44.6251 23.1431 45.2792 23.5712 46.0143 23.8258C46.0143 23.2884 46.0143 22.5286 46.0143 21.7987C46.0143 20.9525 46.764 20.3794 47.3093 20.0742C46.6153 20.0964 45.9168 20.2078 45.2603 20.4189Z" fill="#FF4155"/>
<path d="M64.9843 20.5366C64.9843 20.5366 65.7215 16.7609 64.9843 16.0237C64.2898 15.3291 64.9037 14.6396 64.9771 14.5619C64.8904 14.5573 64.8031 14.5544 64.7151 14.5544C62.0825 14.5544 59.9482 16.6887 59.9482 19.3212C59.9482 20.5863 60.442 21.7354 61.2461 22.5887H67.7895L64.9843 20.5366Z" fill="#3C58A0"/>
<path d="M64.7148 16.0237C65.452 16.7609 64.7148 20.5367 64.7148 20.5367L67.52 22.5889H68.1839C68.988 21.7356 69.4817 20.5864 69.4817 19.3214C69.4817 16.6887 67.3475 14.5547 64.7148 14.5547C64.7148 14.5545 63.9777 15.2866 64.7148 16.0237Z" fill="#4F71B6"/>
<path d="M65.5295 20.0274C66.5962 19.5852 67.1026 18.3619 66.6604 17.2951C66.2182 16.2283 64.995 15.722 63.9282 16.1642C62.8614 16.6064 62.355 17.8296 62.7972 18.8964C63.2394 19.9632 64.4627 20.4696 65.5295 20.0274Z" fill="#FFC7AB"/>
<path d="M68.1289 22.3215C68.0934 22.1501 68.0631 21.9775 68.0428 21.8034C68.0033 21.4651 67.8258 20.6757 67.0267 20.4189C66.1586 20.1398 65.1556 20.0204 64.1567 20.089C63.6141 20.3978 62.8884 20.9664 62.8884 21.7987V23.7231C63.4511 23.9571 64.0676 24.0879 64.7151 24.0879C66.0826 24.0879 67.3148 23.5112 68.1841 22.5885L68.1289 22.3215Z" fill="#FF7186"/>
<path d="M62.4034 20.4189C61.6043 20.6758 61.4268 21.4653 61.3873 21.8034C61.3669 21.9773 61.3366 22.15 61.3012 22.3216L61.2458 22.5887C61.7682 23.1431 62.4223 23.5712 63.1574 23.8258C63.1574 23.2884 63.1574 22.5286 63.1574 21.7987C63.1574 20.9525 63.9071 20.3794 64.4523 20.0742C63.7583 20.0964 63.0598 20.2078 62.4034 20.4189Z" fill="#FF4155"/>
<path d="M22.1258 34.1489C22.1258 34.1489 22.863 30.3732 22.1258 29.636C21.4312 28.9414 22.045 28.2519 22.1186 28.1742C22.0319 28.1696 21.9445 28.1667 21.8566 28.1667C19.2239 28.1667 17.0898 30.301 17.0898 32.9336C17.0898 34.1986 17.5836 35.3478 18.3877 36.2011H24.9311L22.1258 34.1489Z" fill="#3C58A0"/>
<path d="M21.8564 29.636C22.5936 30.3732 21.8564 34.1489 21.8564 34.1489L24.6616 36.2011H25.3255C26.1296 35.3478 26.6233 34.1986 26.6233 32.9336C26.6233 30.301 24.4891 28.1667 21.8564 28.1667C21.8564 28.1667 21.1193 28.8988 21.8564 29.636Z" fill="#4F71B6"/>
<path d="M23.8885 32.2206C24.154 31.0972 23.4586 29.9713 22.3352 29.7057C21.2119 29.4402 20.086 30.1356 19.8204 31.2589C19.5549 32.3823 20.2503 33.5082 21.3736 33.7738C22.497 34.0393 23.6229 33.3439 23.8885 32.2206Z" fill="#FFC7AB"/>
<path d="M25.2703 35.9338C25.2348 35.7624 25.2045 35.5898 25.1842 35.4157C25.1446 35.0774 24.9671 34.288 24.1681 34.0312C23.2999 33.7521 22.297 33.6327 21.2981 33.7013C20.7554 34.0101 20.0298 34.5787 20.0298 35.411V37.3354C20.5924 37.5694 21.209 37.7002 21.8565 37.7002C23.2242 37.7002 24.4562 37.1235 25.3254 36.2009L25.2703 35.9338Z" fill="#FF7186"/>
<path d="M19.5449 34.0315C18.7459 34.2883 18.5684 35.0779 18.5289 35.416C18.5085 35.5899 18.4782 35.7625 18.4428 35.9341L18.3875 36.2013C18.9098 36.7557 19.5639 37.1838 20.299 37.4383C20.299 36.901 20.299 36.1411 20.299 35.4113C20.299 34.565 21.0487 33.9919 21.594 33.6868C20.8999 33.709 20.2013 33.8205 19.5449 34.0315Z" fill="#FF4155"/>
<path d="M39.2691 34.1489C39.2691 34.1489 40.0063 30.3732 39.2691 29.636C38.5745 28.9414 39.1883 28.2519 39.2619 28.1742C39.175 28.1696 39.0878 28.1667 38.9999 28.1667C36.3672 28.1667 34.2332 30.301 34.2332 32.9336C34.2332 34.1986 34.7269 35.3478 35.531 36.2011H42.0744L39.2691 34.1489Z" fill="#3C58A0"/>
<path d="M38.9998 29.636C39.7369 30.3732 38.9998 34.1489 38.9998 34.1489L41.8049 36.2011H42.4688C43.2729 35.3478 43.7666 34.1986 43.7666 32.9336C43.7666 30.301 41.6324 28.1667 38.9998 28.1667C38.9998 28.1667 38.2626 28.8988 38.9998 29.636Z" fill="#4F71B6"/>
<path d="M41.0357 32.225C41.3012 31.1016 40.6058 29.9757 39.4824 29.7101C38.3591 29.4446 37.2332 30.14 36.9676 31.2633C36.7021 32.3867 37.3975 33.5126 38.5208 33.7782C39.6442 34.0437 40.7701 33.3483 41.0357 32.225Z" fill="#FFC7AB"/>
<path d="M42.4138 35.9338C42.3784 35.7624 42.3481 35.5898 42.3277 35.4157C42.2882 35.0774 42.1107 34.288 41.3116 34.0312C40.4435 33.7521 39.4405 33.6327 38.4416 33.7013C37.899 34.0101 37.1733 34.5787 37.1733 35.411V37.3354C37.736 37.5694 38.3526 37.7002 39.0001 37.7002C40.3677 37.7002 41.5998 37.1235 42.469 36.2009L42.4138 35.9338Z" fill="#FF7186"/>
<path d="M36.6883 34.0315C35.8892 34.2883 35.7117 35.0779 35.6722 35.416C35.6519 35.5899 35.6215 35.7625 35.5861 35.9341L35.5308 36.2013C36.0531 36.7557 36.7072 37.1838 37.4423 37.4383C37.4423 36.901 37.4423 36.1411 37.4423 35.4113C37.4423 34.565 38.192 33.9919 38.7373 33.6868C38.0433 33.709 37.3447 33.8205 36.6883 34.0315Z" fill="#FF4155"/>
<path d="M56.4126 34.1489C56.4126 34.1489 57.1497 30.3732 56.4126 29.636C55.718 28.9414 56.3318 28.2519 56.4054 28.1742C56.3187 28.1696 56.2313 28.1667 56.1433 28.1667C53.5107 28.1667 51.3765 30.301 51.3765 32.9336C51.3765 34.1986 51.8702 35.3478 52.6743 36.2011H59.2176L56.4126 34.1489Z" fill="#3C58A0"/>
<path d="M56.1433 29.636C56.8805 30.3732 56.1433 34.1489 56.1433 34.1489L58.9485 36.2011H59.6124C60.4164 35.3478 60.9102 34.1986 60.9102 32.9336C60.9102 30.301 58.776 28.1667 56.1433 28.1667C56.1433 28.1667 55.4061 28.8988 56.1433 29.636Z" fill="#4F71B6"/>
<path d="M58.1836 32.2291C58.4491 31.1057 57.7537 29.9798 56.6304 29.7143C55.507 29.4487 54.3811 30.1441 54.1156 31.2675C53.85 32.3908 54.5454 33.5168 55.6688 33.7823C56.7921 34.0479 57.918 33.3525 58.1836 32.2291Z" fill="#FFC7AB"/>
<path d="M59.5571 35.9338C59.5217 35.7624 59.4913 35.5898 59.471 35.4157C59.4315 35.0774 59.254 34.288 58.4549 34.0312C57.5868 33.7521 56.5838 33.6327 55.5849 33.7013C55.0423 34.0101 54.3167 34.5787 54.3167 35.411V37.3354C54.8793 37.5694 55.4959 37.7002 56.1434 37.7002C57.511 37.7002 58.7431 37.1235 59.6123 36.2009L59.5571 35.9338Z" fill="#FF7186"/>
<path d="M53.8318 34.0315C53.0328 34.2883 52.8553 35.0779 52.8157 35.416C52.7954 35.5899 52.7651 35.7625 52.7296 35.9341L52.6743 36.2013C53.1967 36.7557 53.8507 37.1838 54.5859 37.4383C54.5859 36.901 54.5859 36.1411 54.5859 35.4113C54.5859 34.565 55.3356 33.9919 55.8807 33.6868C55.1868 33.709 54.4882 33.8205 53.8318 34.0315Z" fill="#FF4155"/>
<path d="M22.1258 47.7617C22.1258 47.7617 22.863 43.9859 22.1258 43.2488C21.4312 42.5542 22.045 41.8647 22.1186 41.787C22.0319 41.7824 21.9445 41.7795 21.8566 41.7795C19.2239 41.7795 17.0898 43.9136 17.0898 46.5463C17.0898 47.8114 17.5836 48.9605 18.3877 49.8138H24.9311L22.1258 47.7617Z" fill="#3C58A0"/>
<path d="M21.8564 43.2488C22.5936 43.986 21.8564 47.7618 21.8564 47.7618L24.6616 49.814H25.3255C26.1296 48.9607 26.6233 47.8115 26.6233 46.5465C26.6233 43.9138 24.4891 41.7798 21.8564 41.7798C21.8564 41.7796 21.1193 42.5115 21.8564 43.2488Z" fill="#4F71B6"/>
<path d="M23.885 45.837C24.1506 44.7136 23.4552 43.5877 22.3318 43.3222C21.2085 43.0566 20.0825 43.752 19.817 44.8754C19.5514 45.9988 20.2468 47.1247 21.3702 47.3902C22.4936 47.6558 23.6195 46.9604 23.885 45.837Z" fill="#FFC7AB"/>
<path d="M25.2703 49.5469C25.2348 49.3755 25.2045 49.2029 25.1842 49.0288C25.1446 48.6905 24.9671 47.9011 24.1681 47.6443C23.2999 47.3652 22.297 47.2457 21.2981 47.3144C20.7554 47.6232 20.0298 48.1918 20.0298 49.0241V50.9485C20.5924 51.1826 21.209 51.3133 21.8565 51.3133C23.2242 51.3133 24.4562 50.7366 25.3254 49.814L25.2703 49.5469Z" fill="#FF7186"/>
<path d="M19.5449 47.6442C18.7459 47.9011 18.5684 48.6907 18.5289 49.0288C18.5085 49.2027 18.4782 49.3753 18.4428 49.5469L18.3875 49.8141C18.9098 50.3685 19.5639 50.7966 20.299 51.0511C20.299 50.5138 20.299 49.7541 20.299 49.0241C20.299 48.1778 21.0487 47.6047 21.594 47.2996C20.8999 47.3216 20.2013 47.4332 19.5449 47.6442Z" fill="#FF4155"/>
<path d="M39.2691 47.7617C39.2691 47.7617 40.0063 43.9859 39.2691 43.2488C38.5745 42.5542 39.1883 41.8647 39.2619 41.787C39.175 41.7824 39.0878 41.7795 38.9999 41.7795C36.3672 41.7795 34.2332 43.9136 34.2332 46.5463C34.2332 47.8114 34.7269 48.9605 35.531 49.8138H42.0744L39.2691 47.7617Z" fill="#3C58A0"/>
<path d="M38.9998 43.2488C39.7369 43.986 38.9998 47.7618 38.9998 47.7618L41.8049 49.814H42.4688C43.2729 48.9607 43.7666 47.8115 43.7666 46.5465C43.7666 43.9138 41.6324 41.7798 38.9998 41.7798C38.9998 41.7796 38.2626 42.5115 38.9998 43.2488Z" fill="#4F71B6"/>
<path d="M41.0327 45.8412C41.2983 44.7178 40.6029 43.5919 39.4795 43.3263C38.3562 43.0608 37.2302 43.7562 36.9647 44.8795C36.6992 46.0029 37.3945 47.1288 38.5179 47.3944C39.6413 47.6599 40.7672 46.9645 41.0327 45.8412Z" fill="#FFC7AB"/>
<path d="M42.4138 49.5469C42.3784 49.3755 42.3481 49.2029 42.3277 49.0288C42.2882 48.6905 42.1107 47.9011 41.3116 47.6443C40.4435 47.3652 39.4405 47.2457 38.4416 47.3144C37.899 47.6232 37.1733 48.1918 37.1733 49.0241V50.9485C37.736 51.1826 38.3526 51.3133 39.0001 51.3133C40.3677 51.3133 41.5998 50.7366 42.469 49.814L42.4138 49.5469Z" fill="#FF7186"/>
<path d="M36.6883 47.6442C35.8892 47.9011 35.7117 48.6907 35.6722 49.0288C35.6519 49.2027 35.6215 49.3753 35.5861 49.5469L35.5308 49.8141C36.0531 50.3685 36.7072 50.7966 37.4423 51.0511C37.4423 50.5138 37.4423 49.7541 37.4423 49.0241C37.4423 48.1778 38.192 47.6047 38.7373 47.2996C38.0433 47.3216 37.3447 47.4332 36.6883 47.6442Z" fill="#FF4155"/>
<path d="M56.4126 47.7617C56.4126 47.7617 57.1497 43.9859 56.4126 43.2488C55.718 42.5542 56.3318 41.8647 56.4054 41.787C56.3187 41.7824 56.2313 41.7795 56.1433 41.7795C53.5107 41.7795 51.3765 43.9136 51.3765 46.5463C51.3765 47.8114 51.8702 48.9605 52.6743 49.8138H59.2176L56.4126 47.7617Z" fill="#3C58A0"/>
<path d="M56.1433 43.2488C56.8805 43.986 56.1433 47.7618 56.1433 47.7618L58.9485 49.814H59.6124C60.4164 48.9607 60.9102 47.8115 60.9102 46.5465C60.9102 43.9138 58.776 41.7798 56.1433 41.7798C56.1433 41.7796 55.4061 42.5115 56.1433 43.2488Z" fill="#4F71B6"/>
<path d="M58.1799 45.8456C58.4455 44.7222 57.7501 43.5963 56.6267 43.3307C55.5034 43.0652 54.3775 43.7606 54.1119 44.8839C53.8464 46.0073 54.5418 47.1332 55.6651 47.3988C56.7885 47.6643 57.9144 46.9689 58.1799 45.8456Z" fill="#FFC7AB"/>
<path d="M59.5571 49.5469C59.5217 49.3755 59.4913 49.2029 59.471 49.0288C59.4315 48.6905 59.254 47.9011 58.4549 47.6443C57.5868 47.3652 56.5838 47.2457 55.5849 47.3144C55.0423 47.6232 54.3167 48.1918 54.3167 49.0241V50.9485C54.8793 51.1826 55.4959 51.3133 56.1434 51.3133C57.511 51.3133 58.7431 50.7366 59.6123 49.814L59.5571 49.5469Z" fill="#FF7186"/>
<path d="M53.8318 47.6442C53.0328 47.9011 52.8553 48.6907 52.8157 49.0288C52.7954 49.2027 52.7651 49.3753 52.7296 49.5469L52.6743 49.8141C53.1967 50.3685 53.8507 50.7966 54.5859 51.0511C54.5859 50.5138 54.5859 49.7541 54.5859 49.0241C54.5859 48.1778 55.3356 47.6047 55.8807 47.2996C55.1868 47.3216 54.4882 47.4332 53.8318 47.6442Z" fill="#FF4155"/>
</svg>
