<svg width="80" height="78" viewBox="0 0 80 78" fill="none" xmlns="http://www.w3.org/2000/svg">
<path d="M38.2817 0.718506C36.1717 0.718506 34.1023 0.891943 32.0851 1.22038L26.1876 2.67022C21.6929 4.16585 17.5681 6.47101 13.9874 9.41476L12.1507 11.0276C11.0698 12.0377 10.0476 13.1098 9.08947 14.2382L7.31869 16.4887C2.92385 22.5229 0.249473 29.8894 0.0180664 37.8696V40.1304C0.249629 48.1112 2.92432 55.4782 7.31963 61.5126L9.08916 63.7613C10.0173 64.8544 11.0051 65.8949 12.0485 66.8771L13.8779 68.4948C17.4556 71.4582 21.5812 73.7829 26.0804 75.2948L31.8676 76.7434C33.9534 77.0952 36.0956 77.2812 38.2815 77.2812C59.4238 77.2812 76.5631 60.1419 76.5631 38.9996C76.5631 17.8573 59.424 0.718506 38.2817 0.718506Z" fill="#73C3F9"/>
<path d="M53.5171 60.982C52.4726 62.6971 52.6635 64.5495 54.3927 65.8767C56.7971 65.5473 59.1019 64.9057 61.2634 63.9907L57.8065 60.3674H51.8513C52.368 60.5926 52.9209 60.7995 53.5171 60.982Z" fill="#BEC8F7"/>
<path d="M54.7314 65.829C51.6809 63.7034 53.8962 60.8449 53.8962 60.8449C53.3933 60.7013 52.9189 60.5415 52.4708 60.3674H43.5269L40.0698 63.9907C43.3265 65.3693 46.9075 66.1318 50.6665 66.1318C52.0481 66.1315 53.4053 66.0276 54.7314 65.829Z" fill="#A2B6F4"/>
<path d="M54.3218 11.9661C53.5762 12.5811 51.9367 14.3376 53.4185 17.0075C53.4185 17.0075 52.8773 17.1478 52.0671 17.485H57.8064L61.2632 13.8618C59.0806 12.9379 56.7517 12.2925 54.3218 11.9661Z" fill="#BEC8F7"/>
<path d="M54.7316 12.0234C53.4055 11.8246 52.0483 11.7207 50.6668 11.7207C46.9077 11.7207 43.3269 12.4832 40.0701 13.8618L43.5271 17.4849H52.5449C53.3551 17.1476 53.8963 17.0074 53.8963 17.0074C52.458 14.4162 53.9602 12.6854 54.7316 12.0234Z" fill="#A2B6F4"/>
<path d="M69.5645 44.5195L76.2779 48.1198C77.309 45.2479 77.8721 42.1531 77.8721 38.9263C77.8721 35.6996 77.309 32.6048 76.2779 29.7329L69.5645 33.3332V44.5195Z" fill="#E9EFFF"/>
<path d="M31.7688 44.5195L25.0554 48.1198C24.0243 45.2479 23.4612 42.1531 23.4612 38.9263C23.4612 35.6996 24.0243 32.6048 25.0554 29.7329L31.7688 33.3332V44.5195Z" fill="#A2B6F4"/>
<path d="M76.2778 29.7328C73.7089 22.5776 68.2283 16.8101 61.2633 13.8618L57.8064 17.0074L59.4617 28.2553L70.042 33.3331L76.2778 29.7328Z" fill="#D3DCFB"/>
<path d="M25.0552 29.7328C27.6241 22.5776 33.1047 16.8101 40.0697 13.8618L43.5266 17.0074L42.4024 28.5618L31.291 33.3331L25.0552 29.7328Z" fill="#3C58A0"/>
<path d="M76.2778 48.1196C73.7089 55.2748 68.2283 61.0423 61.2633 63.9905L57.8064 60.8449L59.0906 49.3829L70.042 44.5193L76.2778 48.1196Z" fill="#D3DCFB"/>
<path d="M25.0552 48.1196C27.6241 55.2748 33.1047 61.0423 40.0697 63.9905L43.5266 60.8449L42.4224 49.279L31.291 44.5193L25.0552 48.1196Z" fill="#3C58A0"/>
<path d="M50.6666 43.7234L44.8145 47.5829L44.9751 47.7409C44.8891 48.2998 44.6154 50.5801 45.3693 53.186C46.1209 55.784 48.0757 59.1614 53.093 60.845H57.8063L60.3543 50.1124L50.6666 43.7234Z" fill="#E9EFFF"/>
<path d="M45.231 47.6575L45.0184 47.4485L40.979 50.1125L43.527 60.8451H53.8962C43.3234 57.8272 45.231 47.6575 45.231 47.6575Z" fill="#D3DCFB"/>
<path d="M57.8063 17.0076H53.4185C53.4185 17.0076 42.7227 19.7705 45.1455 30.4213C45.1515 30.4473 45.1558 30.4726 45.1615 30.4984L50.6666 34.129L60.3543 27.7399L57.8063 17.0076Z" fill="#E9EFFF"/>
<path d="M53.8962 17.0076H43.527L40.979 27.7401L45.7043 30.8565C45.6831 30.7135 45.6376 30.5718 45.6232 30.4213C44.5968 19.7141 53.8962 17.0076 53.8962 17.0076Z" fill="#D3DCFB"/>
<path d="M50.6667 33.3331V44.5195L60.3544 50.1126L70.0421 44.5195V33.3331L60.3544 27.74L50.6667 33.3331Z" fill="#4F71B6"/>
<path d="M45.4674 30.3313C44.0738 31.0822 42.1292 32.6049 42.1292 35.2615V43.7233C42.1292 43.7233 42.5449 46.365 45.0726 47.7489L50.6663 44.5194V33.333L45.4674 30.3313Z" fill="#D3DCFB"/>
<path d="M45.6231 30.4212L40.9789 27.7397L31.2913 33.3329V44.5193L40.9789 50.1124L45.2311 47.6574C42.8463 46.2519 42.4478 43.7232 42.4478 43.7232C42.4478 43.7232 42.4478 39.4002 42.4478 35.2613C42.4477 32.7072 44.2458 31.201 45.6231 30.4212Z" fill="#BEC8F7"/>
<path d="M40.8594 38.9999C40.8594 53.2968 37.7539 65.4407 31.6294 75.0949C32.6271 74.9316 33.6131 74.757 34.59 74.5732C40.251 64.8504 43.1203 52.8959 43.1203 38.9999C43.1203 24.9993 40.3052 13.0254 34.7513 3.36945C33.783 3.19055 32.8038 3.02039 31.8113 2.86133C31.8116 2.86195 31.8119 2.86258 31.8122 2.86305C37.8155 12.4359 40.8594 24.594 40.8594 38.9999Z" fill="#FF4155"/>
<path d="M17.4444 38.9998C17.4444 49.5229 15.6326 58.8612 12.0486 66.8773C12.6412 67.4352 13.2509 67.9756 13.8783 68.4952C17.8136 60.036 19.8047 50.1534 19.8047 38.9998C19.8047 27.7595 17.8503 17.8467 13.9876 9.41431C13.3576 9.93212 12.7459 10.471 12.1506 11.0274C15.667 19.0215 17.4444 28.3916 17.4444 38.9998Z" fill="#FF4155"/>
<path d="M56.935 69.216C56.7868 69.216 56.6361 69.1866 56.4911 69.1246C55.9171 68.8791 55.6508 68.2147 55.8963 67.6408C59.4272 59.3857 61.2175 49.7496 61.2175 39C61.2175 28.1255 59.4538 18.4382 55.9755 10.2069C55.7325 9.63192 56.0018 8.96864 56.5768 8.72567C57.1519 8.4827 57.815 8.75176 58.058 9.32692C61.6546 17.838 63.4783 27.8214 63.4783 39C63.4783 50.0569 61.6268 59.9921 57.975 68.5297C57.7914 68.9588 57.3739 69.216 56.935 69.216Z" fill="#FF4155"/>
<path d="M58.4119 9.18921C51.0861 5.5453 42.1952 2.86718 32.0847 1.22046C30.0613 1.54983 28.0909 2.03687 26.1872 2.6703C38.3816 4.13812 48.9738 7.01983 57.4049 11.2136C63.9097 14.4491 68.9447 18.4003 72.3699 22.9575C75.9325 27.6975 77.7389 33.095 77.7389 39.0001C77.7389 50.3708 70.7061 59.9134 57.4009 66.5969C51.0399 69.7922 43.3999 72.2634 34.6931 73.9417C31.908 74.4786 29.0333 74.9292 26.0803 75.2952C27.9489 75.9231 29.8827 76.4089 31.8675 76.7437C32.9642 76.562 34.0492 76.3683 35.1211 76.1617C44.0317 74.4441 51.8692 71.9056 58.416 68.6172C72.5363 61.5244 79.9999 51.283 79.9999 39.0001C79.9999 26.5226 72.5349 16.2142 58.4119 9.18921Z" fill="#FF4155"/>
<path d="M73.988 27.878C70.3419 24.9057 65.0428 22.3469 58.2381 20.273C45.8156 16.4869 28.8653 14.4101 9.08954 14.238C8.47204 14.9654 7.88126 15.716 7.3186 16.4887C27.6324 16.5487 44.9972 18.6007 57.5792 22.4355C66.7761 25.2385 77.7392 30.3877 77.7392 39.0001C77.7392 52.3699 49.4813 61.3841 7.31954 61.5127C7.88173 62.2848 8.47204 63.0348 9.08923 63.7616C28.7514 63.5852 45.7024 61.468 58.2413 57.6088C72.476 53.2276 80 46.7927 80 39.0001C80 34.8721 77.9772 31.1301 73.988 27.878Z" fill="#FF7186"/>
<path d="M78.8695 37.8696H0.0179687C0.00703125 38.2453 0 38.6218 0 39.0001C0 39.3784 0.00703125 39.755 0.0179687 40.1306H78.8697C79.4939 40.1306 80.0002 39.6245 80.0002 39.0001C80 38.3759 79.4939 37.8696 78.8695 37.8696Z" fill="#FF7186"/>
</svg>
