<svg width="16" height="16" viewBox="0 0 16 16" fill="none" xmlns="http://www.w3.org/2000/svg">
<g clip-path="url(#clip0)">
<path fill-rule="evenodd" clip-rule="evenodd" d="M3.44234 7.99942C3.44234 7.49133 3.52672 7.00422 3.67734 6.54734L1.04107 4.53418C0.52727 5.57738 0.237793 6.75285 0.237793 7.99942C0.237793 9.24494 0.526914 10.4197 1.04 11.4622L3.67485 9.44511C3.52566 8.99036 3.44234 8.50502 3.44234 7.99942Z" fill="#FBBC05"/>
<path fill-rule="evenodd" clip-rule="evenodd" d="M8.0712 3.37773C9.17499 3.37773 10.172 3.76885 10.9553 4.40885L13.2341 2.13329C11.8454 0.924401 10.0651 0.177734 8.0712 0.177734C4.97561 0.177734 2.31512 1.94805 1.04114 4.53471L3.67741 6.54787C4.28485 4.70396 6.01637 3.37773 8.0712 3.37773Z" fill="#EB4335"/>
<path fill-rule="evenodd" clip-rule="evenodd" d="M8.0712 12.6223C6.01637 12.6223 4.28485 11.2961 3.67741 9.45215L1.04114 11.4649C2.31512 14.052 4.97561 15.8223 8.0712 15.8223C9.98182 15.8223 11.8059 15.1439 13.175 13.8728L10.6726 11.9382C9.96651 12.383 9.07743 12.6223 8.0712 12.6223Z" fill="#34A853"/>
<path fill-rule="evenodd" clip-rule="evenodd" d="M15.5484 7.99937C15.5484 7.53715 15.4772 7.03937 15.3704 6.57715H8.07117V9.59937H12.2727C12.0626 10.6298 11.4908 11.4219 10.6725 11.9375L13.1749 13.8721C14.6131 12.5373 15.5484 10.5491 15.5484 7.99937Z" fill="#4285F4"/>
</g>
<defs>
<clipPath id="clip0">
<rect width="15.6667" height="16" fill="white" transform="translate(0.166626)"/>
</clipPath>
</defs>
</svg>
