<svg id="Layer_1" enable-background="new 0 0 512 512" height="512" viewBox="0 0 512 512" width="512" xmlns="http://www.w3.org/2000/svg"><g><path d="m440.756 106.097c-44.915-51.531-111.03-84.101-184.756-84.101s-139.841 32.57-184.756 84.101z" fill="#ffdd40"/><path d="m479.728 167.546h-447.456l-.711 1.113c-11.365 25.901-18.385 54.139-20.124 83.8l.002-.002 163.577 245.823c25.353 8.877 52.601 13.72 80.984 13.72s55.631-4.843 80.984-13.72l163.577-245.823.002.002c-1.739-29.661-8.758-57.899-20.124-83.801z" fill="#2a428c"/><path d="m207.476 281.959c-14.781-24.7-45.042-36.637-59.476-41.112 14.5 10.018 35.235 30.879 27.065 65.044-3.596 15.038-5.892 29.834-7.298 43.897 2.733 6.371 5.363 11.85 7.66 16.33 14.503-1.648 26.79-6.11 36.564-13.312 7.779-5.731 12.192-11.941 14.456-15.918-2.837-14.664-4.748-31.161-18.971-54.929z" fill="#ff4155"/><path d="m11.259 278.095c4.348-18.162 17.376-30.309 27.42-37.248-6.709 2.08-16.837 5.775-27.24 11.611-.282 4.812-.441 9.657-.441 14.54 0 3.72.097 7.417.261 11.097z" fill="#e80054"/><path d="m226.203 335.617c-4.019 7.511-17.215 25.952-51.176 29.718 3.103 6.108 5.641 10.465 7.069 12.815.764 1.258 2.17 1.989 3.638 1.89 30.424-2.058 41.435-18.538 44.392-24.344.596-1.17.686-2.531.236-3.765-1.953-5.35-3.095-10.688-4.159-16.314z" fill="#e9efff"/><g fill="#ff7186"><path d="m102.211 285.02v-.001z"/><path d="m142.978 236.979c-1.031-.591-2.045-1.211-3.047-1.847-6.085 13.149-16.131 28.965-32.703 44.577-1.252 1.325-4.757 5.035-5.008 5.301-.001 0 0 0-.001.001v-.001c-.002.002-.004.004-.006.006-.001.001-.001.001-.002.002-.008.009-.015.015-.021.023-.005.006-.012.013-.019.02-.008.008-.014.015-.019.02-.001.001-.002.002-.003.003-.008.009-.01.011-.007.008-4.122 4.429-10.966 4.848-15.584.955-6.047-5.098-11.329-10.258-15.98-15.38l-.113 1.233c-5.164.597-23.745 4-23.745 22.028 0 5.265 1.37 14.149 3.104 25.398.494 3.207 1.014 6.587 1.537 10.093 15.196 1.35 30.366 1.995 41.977 1.995 21.48 0 55.216-2.162 79.019-7.087 1.069-6.082 2.329-12.239 3.811-18.438 9.43-39.423-19.634-61.135-33.19-68.91z"/></g><path d="m48.221 293.928c0-19.635 23.625-20.648 23.625-20.648l.102-1.117c-12.2-13.092-20.107-25.998-25.209-37.025-1 .633-2.01 1.251-3.038 1.841-9.41 5.397-26.282 17.517-32.575 37.608.528 17.331 2.86 34.205 6.806 50.449 10.539 1.979 22.799 3.473 34.966 4.517-2.373-15.983-4.677-28.948-4.677-35.625z" fill="#ff4155"/><path d="m168.429 431.223c-.71-10.912-1.589-25.549-1.514-42.564-22.354 4.069-53.308 6.061-73.576 6.061-10.47 0-23.591-.526-36.883-1.573-.147 4.924-.479 9.784-1.034 14.526 29.157 41.497 70.85 73.54 119.594 90.607-2.687-24.741-5.745-54.112-6.587-67.057z" fill="#ff7186"/><path d="m57.925 393.263c-4.192-.319-8.409-.689-12.574-1.112 3.54 5.946 7.33 11.725 11.345 17.331.674-5.277 1.064-10.711 1.229-16.219z" fill="#ff4155"/><path d="m93.339 330.586s-19.245-.001-42.1-1.993c2.911 19.429 5.958 43.073 5.196 65.388 20.5 1.566 36.904 1.569 36.904 1.569s40.339-.001 73.572-6.042c.05-19.516 1.345-42.221 5.604-66.056-34.107 7.133-79.176 7.134-79.176 7.134z" fill="#f9a0b1"/><path d="m45.888 393.06c4.108.407 8.138.746 12.011 1.031.769-22.442-2.256-46.155-5.125-65.367-11.347-.952-23.683-2.39-35.056-4.564 5.885 24.619 15.48 47.794 28.17 68.9z" fill="#ff7186"/><path d="m118.517 241.139c-7.578 1.037-16.605 1.934-25.177 1.934s-17.599-.897-25.177-1.934c5.43 8.663 13.323 18.889 24.622 29.135l.557.505.557-.505c11.296-10.246 19.188-20.472 24.618-29.135z" fill="#ff4155"/><path d="m68.541 241.743c7.499 1.015 16.369 1.882 24.798 1.882s17.299-.867 24.798-1.882c2.834-4.465 5.018-8.531 6.676-11.99.756-1.578 1.442-3.108 2.071-4.59-2.129-1.207-4.634-1.653-7.094-1.213-6.102 1.092-16.683 2.685-26.451 2.685s-20.349-1.594-26.451-2.685c-2.46-.44-4.965.007-7.094 1.213.629 1.482 1.315 3.012 2.071 4.59 1.658 3.46 3.842 7.525 6.676 11.99z" fill="#bec8f7"/><path d="m92.782 270.168c4.128 3.78 8.711 7.563 13.798 11.286 17.352-16.027 27.79-32.34 34.065-45.872-4.179-2.589-8.113-5.556-11.714-8.909l-.046-.043c-.822-.765-1.749-1.381-2.742-1.845-.63 1.488-1.318 3.025-2.077 4.609-5.262 10.98-14.713 25.891-31.284 40.774z" fill="#e9efff"/><path d="m102.75 285.657 4.435-4.766.007-.002c-25.062-18.174-38.046-37.864-44.578-51.495-.759-1.584-1.447-3.121-2.077-4.609-.993.464-1.92 1.08-2.742 1.845l-.046.043c-3.602 3.353-7.536 6.32-11.715 8.909 6.959 15.007 19.041 33.434 39.992 51.099 4.949 4.174 12.312 3.717 16.724-1.024z" fill="#d3dcfb"/><path d="m336.935 305.891c1.883 7.875 3.402 15.679 4.631 23.35-9.513-3.05-16.414-6.344-16.529-6.4-.183-.088-17.528-8.526-30.506-20.905 2.428-6.08 5.63-12.685 9.994-19.977 14.781-24.7 45.042-36.637 59.476-41.112-14.501 10.018-35.235 30.879-27.066 65.044z" fill="#1e9ef4"/><path d="m281.638 351.931c2.439-6.681 3.614-13.345 4.95-20.574 12.082 10.227 25.965 16.982 26.121 17.058.156.075 13.077 6.246 27.903 9.454-4.719 10.088-8.752 17.064-10.708 20.281-.764 1.258-2.17 1.989-3.638 1.89-30.424-2.058-41.435-18.538-44.392-24.344-.596-1.17-.686-2.532-.236-3.765z" fill="#3c58a0"/><path d="m500.741 278.095c.164-3.68.261-7.377.261-11.097 0-4.883-.16-9.728-.441-14.54-10.403-5.836-20.532-9.531-27.24-11.611 10.043 6.939 23.071 19.086 27.42 37.248z" fill="#49b1f7"/><path d="m286.415 332.298c1.683-9.125 3.527-19.123 8.451-31.194 13.041 12.553 30.531 20.99 30.531 20.99s6.687 3.221 16.029 6.245c1.189 7.29 2.108 14.461 2.807 21.45-1.363 3.178-2.7 6.133-3.984 8.853-15.004-3.266-27.901-9.479-27.901-9.479s-13.732-6.624-25.933-16.865z" fill="#49b1f7"/><path d="m498.014 267.321c-17.264 3.039-36.199 4.634-51.244 5.47-8.043 4.29-17.606 6.808-28.11 6.808-8.709 0-16.735-1.726-23.783-4.736-3.01 1.503-6.336 3.835-9.039 7.458-4.859 6.513-6.339 15.335-4.398 26.224.85 4.768 1.63 10.28 2.319 16.338 19.615 1.306 34.611 1.336 34.901 1.336.481 0 41.19-.08 76.502-5.885 3.284-14.789 5.234-30.079 5.711-45.741-.798-2.55-1.757-4.978-2.859-7.272z" fill="#73c3f9"/><path d="m396.78 275.639c-2.168-.834-4.251-1.787-6.238-2.848-15.043-.836-33.974-2.431-51.235-5.47-4.93 10.263-7.191 23.042-3.477 38.57 1.112 4.651 2.099 9.279 2.975 13.87 15.469 2.735 32.28 4.311 46.471 5.22-.708-6.277-1.506-11.918-2.358-16.7-3.773-21.158 6.59-29.459 13.862-32.642z" fill="#49b1f7"/><path d="m418.661 435.503c-.288 0-15.095-.029-34.501-1.31-1.447 12.84 1.679 25.577 8.667 36.048 15.05-10.155 28.918-21.927 41.34-35.084-9.316.334-15.329.346-15.506.346z" fill="#73c3f9"/><path d="m385.651 434.352c.002-.021.004-.042.007-.062-12.816-.814-27.803-2.174-41.997-4.448-.03.466-.06.928-.089 1.382-.657 10.104-2.664 30.216-4.792 50.322 9.298 1.645 19.081 2.87 28.49 3.784 9.295-4.747 18.244-10.073 26.804-15.926-6.823-10.23-9.825-22.641-8.423-35.052z" fill="#49b1f7"/><path d="m418.661 354.608c-.279 0-14.142-.027-32.61-1.189.849 16.538 1.029 34.706.252 52.522 18.354 1.144 32.079 1.171 32.358 1.171.313 0 17.668-.036 39.479-1.659 11.704-17.055 21.306-35.661 28.432-55.453-32.935 4.539-67.469 4.608-67.911 4.608z" fill="#73c3f9"/><path d="m344.964 401.675c14.636 2.266 29.972 3.586 42.848 4.357.794-18.007.591-36.138-.253-52.52-13.406-.81-29.441-2.218-44.527-4.667 1.99 19.403 2.279 37.438 1.932 52.83z" fill="#49b1f7"/><path d="m418.661 325.388s-15.132-.001-34.994-1.325c1.044 8.99 1.88 19.248 2.425 30.206 18.655 1.168 32.569 1.168 32.569 1.168s34.431-.001 67.597-4.546c3.708-10.175 6.747-20.669 9.093-31.422-35.633 5.918-76.69 5.919-76.69 5.919z" fill="#9bd8f9"/><path d="m338.637 318.895c2.037 10.521 3.484 20.85 4.483 30.812 15.119 2.45 31.118 3.852 44.482 4.655-.552-11.038-1.394-21.291-2.42-30.199-14.211-.912-31.042-2.5-46.545-5.268z" fill="#73c3f9"/><path d="m418.661 406.283s-13.79 0-32.321-1.152c-.415 9.897-1.123 19.696-2.179 29.053-.032.284-.045.567-.073.851 19.655 1.296 34.573 1.297 34.573 1.297s5.703 0 14.698-.307c9.29-9.745 17.778-20.258 25.374-31.428-22.303 1.685-40.072 1.686-40.072 1.686z" fill="#9bd8f9"/><path d="m344.982 400.849c-.242 11.591-.85 21.712-1.376 29.831 14.221 2.28 29.184 3.64 41.978 4.452.025-.26.038-.52.067-.78 1.07-9.472 1.779-19.285 2.197-29.129-12.868-.769-28.209-2.092-42.866-4.374z" fill="#73c3f9"/><path d="m368.587 484.643c-9.774-.926-20.005-2.19-29.722-3.917-.626 5.929-1.264 11.86-1.882 17.554 10.908-3.819 21.464-8.381 31.604-13.637z" fill="#73c3f9"/><path d="m498.382 268.103c-6.556-14.212-18.264-23.706-26.685-29.068-2.026 14.605-12.058 27.554-26.775 34.702 15.392-.805 35.318-2.415 53.46-5.634z" fill="#9bd8f9"/><path d="m392.39 273.736c-14.781-7.185-24.755-20.206-26.765-34.701-8.421 5.362-20.129 14.856-26.685 29.068 18.137 3.218 38.058 4.828 53.45 5.633z" fill="#73c3f9"/><path d="m457.673 229.661c-1.17-.96-2.312-1.955-3.421-2.988l-.046-.043c-2.442-2.274-5.809-3.267-9.094-2.68-3.636.65-8.866 1.477-14.563 2.041v8.221c0 3.201-2.604 5.806-5.806 5.806h-12.165c-3.202 0-5.806-2.605-5.806-5.806v-8.221c-5.697-.563-10.927-1.39-14.563-2.041-3.285-.588-6.652.406-9.094 2.68l-.046.043c-1.11 1.033-2.252 2.028-3.422 2.989-.194 1.285-.305 2.59-.305 3.917 0 17.629 17.603 31.92 39.318 31.92s39.318-14.291 39.318-31.92c.001-1.327-.111-2.633-.305-3.918z" fill="#49b1f7"/><path d="m431.378 234.212v-8.303c-4.105.428-8.487.727-12.718.727-4.23 0-8.612-.299-12.718-.727v8.303c0 3.649 2.986 6.635 6.635 6.635h12.165c3.65 0 6.636-2.986 6.636-6.635z" fill="#e9efff"/><path d="m468.299 236.979c-4.033-2.313-7.853-4.974-11.4-7.969v1.088c2.64 18.904-15.941 34.572-38.238 34.572-21.775 0-40.947-15.244-38.238-34.572v-1.088c-3.548 2.996-7.367 5.657-11.4 7.97-1.268.727-2.673 1.577-4.168 2.551 1.592 10.734 7.444 20.78 16.595 28.209 10.078 8.182 23.294 12.688 37.212 12.688s27.134-4.506 37.212-12.688c9.151-7.429 15.003-17.475 16.595-28.209-1.497-.975-2.902-1.824-4.17-2.552z" fill="#e9efff"/><g><path d="m268.379.812c-2.468 2.036-7.896 7.851-2.99 16.689 0 0-1.792.464-4.474 1.581h18.999l11.444-11.994c-7.225-3.059-14.935-5.196-22.979-6.276z" fill="#bec8f7"/><path d="m269.735 1.002c-4.39-.658-8.883-1.002-13.456-1.002-12.444 0-24.298 2.524-35.079 7.088l11.444 11.994h29.853c2.682-1.117 4.474-1.581 4.474-1.581-4.762-8.578.211-14.307 2.764-16.499z" fill="#a2b6f4"/><path d="m318.839 71.546v37.032l8.378 4.493h16.151c1.937-7.345 2.974-15.055 2.974-23.008 0-10.682-1.864-20.927-5.278-30.434z" fill="#e9efff"/><path d="m166.217 90.062c0 7.954 1.037 15.664 2.974 23.008h16.151l8.377-4.493v-37.031l-22.224-11.918c-3.413 9.506-5.278 19.752-5.278 30.434z" fill="#a2b6f4"/><path d="m341.063 59.627c-8.504-23.687-26.647-42.779-49.705-52.54l-11.444 10.414 5.48 37.235 35.025 16.81z" fill="#d3dcfb"/><path d="m171.495 59.627c8.504-23.687 26.647-42.779 49.705-52.54l11.444 10.414-3.722 38.25-36.783 15.795z" fill="#3c58a0"/><path d="m279.914 17.501h-14.525s-35.408 9.147-27.387 44.405c.02.086.034.17.053.255l18.224 12.019 32.07-21.151z" fill="#e9efff"/><path d="m266.97 17.501h-34.327l-8.435 35.529 15.643 10.317c-.07-.473-.221-.942-.268-1.44-3.398-35.446 27.387-44.406 27.387-44.406z" fill="#d3dcfb"/><path d="m256.279 71.546v37.031l7.782 4.493h48.577l7.782-4.493v-37.031l-32.071-18.516z" fill="#4f71b6"/><path d="m228.017 77.93v28.012s.542 3.435 3.006 7.128h17.474l7.781-4.493v-37.031l-17.211-9.937c-4.612 2.486-11.05 7.527-11.05 16.321z" fill="#d3dcfb"/><path d="m192.138 71.546v37.032l7.782 4.493h32.166c-2.464-3.692-3.015-7.128-3.015-7.128s0-14.311 0-28.012c0-8.456 5.953-13.442 10.512-16.024l-15.374-8.876z" fill="#bec8f7"/></g><ellipse cx="463.849" cy="298.094" fill="#e9efff" rx="12.497" ry="12.497" transform="matrix(.707 -.707 .707 .707 -74.926 415.3)"/><ellipse cx="139.085" cy="298.094" fill="#e9efff" rx="12.497" ry="12.497" transform="matrix(.707 -.707 .707 .707 -170.047 185.657)"/><path d="m224.92 104.939 2.336.905c-.56 2.348-1.234 7.192 1.24 11.401 1.965 3.342 5.443 5.523 10.347 6.491l9.854 25.477c-1.32 1.538-4.054 5.294-4.094 10.086-.028 3.339 1.256 6.495 3.793 9.404h67.339l63.764-63.764z" fill="#b4d667"/><path d="m196.824 104.939-63.764 63.764h117.372c-9.741-9.742 0-19.16 0-19.16l-10.494-27.132c-16.201-2.652-10.866-17.472-10.866-17.472z" fill="#92c357"/><path d="m320.975 193.578h-62.906c-5.197 2.446-8.803 7.715-8.803 13.839s3.606 11.393 8.803 13.839h62.906c7.643 0 13.839-6.196 13.839-13.839s-6.196-13.839-13.839-13.839z" fill="#4f71b6"/><path d="m250.731 207.417c0-7.643 6.196-13.839 13.839-13.839h-72.987c-7.643 0-13.839 6.196-13.839 13.839s6.196 13.839 13.839 13.839h72.987c-7.644 0-13.839-6.196-13.839-13.839z" fill="#3c58a0"/><g fill="#e9efff"><path d="m382.917 308.28h-13.94c-3.963 0-7.176-3.212-7.176-7.176 0-3.963 3.212-7.176 7.176-7.176h13.94c3.963 0 7.176 3.213 7.176 7.176 0 3.964-3.212 7.176-7.176 7.176z"/><path d="m58.153 308.28h-13.94c-3.963 0-7.176-3.212-7.176-7.176 0-3.963 3.212-7.176 7.176-7.176h13.94c3.963 0 7.176 3.213 7.176 7.176 0 3.964-3.212 7.176-7.176 7.176z"/><path d="m256.279 152.56c-2.323 0-4.501-1.124-5.847-3.016l-12.182-17.125c-2.297-3.229-1.542-7.709 1.688-10.007 3.229-2.296 7.71-1.543 10.007 1.688l6.335 8.906 6.335-8.906c2.297-3.229 6.777-3.986 10.007-1.688s3.985 6.777 1.688 10.007l-12.182 17.125c-1.348 1.892-3.527 3.016-5.849 3.016z"/></g><path d="m31.533 168.704h103.595l63.764-63.764h-126.621c-16.676 18.891-30.48 40.371-40.738 63.764z" fill="#ff4155"/><path d="m439.729 104.939h-62.299l-63.764 63.764h166.802c-10.259-23.392-24.064-44.872-40.739-63.764z" fill="#73c3f9"/><path d="m437.034 143.997h-44.182c-3.963 0-7.176-3.212-7.176-7.176 0-3.963 3.212-7.176 7.176-7.176h44.182c3.963 0 7.176 3.212 7.176 7.176s-3.212 7.176-7.176 7.176z" fill="#9bd8f9"/><path d="m119.237 143.997h-44.182c-3.963 0-7.176-3.212-7.176-7.176 0-3.963 3.212-7.176 7.176-7.176h44.183c3.963 0 7.176 3.212 7.176 7.176-.001 3.964-3.213 7.176-7.177 7.176z" fill="#ff7186"/></g></svg>