<svg width="80" height="80" viewBox="0 0 80 80" fill="none" xmlns="http://www.w3.org/2000/svg">
<path d="M64.8721 70.0622C72.5816 63.0593 77.4221 52.954 77.4221 41.7183C77.4221 20.576 60.2829 3.43677 39.1405 3.43677C17.9982 3.43677 0.859131 20.576 0.859131 41.7183C0.859131 44.8107 1.22835 47.8163 1.92054 50.6963L64.8721 70.0622Z" fill="#FFDD40"/>
<path d="M8.58859 28.4056C9.35859 29.0984 10.3866 29.4083 11.6464 29.3275C11.6233 29.5864 11.6164 29.9816 11.7072 30.4066C13.3341 28.6976 15.1394 27.1601 17.0941 25.8248L13.8691 22.6C12.8516 21.5823 11.2234 21.5008 10.1172 22.4211C9.17469 23.2051 8.26297 24.0362 7.38516 24.9139C7.30906 24.99 7.23547 25.0676 7.16016 25.1442C7.20094 25.7417 7.41922 27.3536 8.58859 28.4056Z" fill="#3C58A0"/>
<path d="M5.0714 31.3979L8.2964 34.6227C9.37359 33.0459 10.5834 31.5674 11.9075 30.2001C11.8102 29.5844 11.918 29.0688 11.918 29.0688C7.37312 29.5624 7.38546 24.9138 7.38546 24.9138C6.50781 25.7915 5.67671 26.7034 4.89265 27.6457C3.97218 28.7521 4.05374 30.3804 5.0714 31.3979Z" fill="#2A428C"/>
<path d="M38.9672 14.9183H35.0327C35.1174 15.0327 35.2081 15.1469 35.3124 15.2605C34.8649 15.8304 33.6506 17.715 35.4614 19.5258C35.5177 19.5821 35.5672 19.6374 35.6131 19.6921H35.6188C37.1963 19.6921 38.7477 19.8027 40.2677 20.0119V14.6204C39.8733 14.8094 39.4335 14.9183 38.9672 14.9183Z" fill="#3C58A0"/>
<path d="M35.9099 19.6946C35.8346 19.586 35.7416 19.4744 35.6272 19.36C33.6096 17.3424 35.6272 15.2502 35.6272 15.2502C35.5146 15.1377 35.4164 15.0272 35.3277 14.9183H32.2702C31.8038 14.9183 31.3639 14.8094 30.9697 14.6204V20.0119C32.4897 19.8027 34.0411 19.6921 35.6186 19.6921C35.716 19.6921 35.8129 19.6936 35.9099 19.6946Z" fill="#2A428C"/>
<path d="M12.2157 31.5067C12.7248 32.1337 13.5329 32.4604 14.6187 32.479L17.3404 35.2004C17.3292 35.5801 17.3634 36.8251 18.2107 37.7495C18.792 38.3835 19.626 38.7267 20.6923 38.771C20.6726 39.9201 20.7951 44.7721 24.0675 48.0432C26.2295 50.2046 29.31 51.1965 33.2246 50.9923L38.1048 55.2075C38.2085 55.8648 38.9562 59.7337 42.4379 62.0382C45.2584 63.9053 49.0753 64.2114 53.7868 62.9495C53.7885 63.4004 53.8756 64.2006 54.4103 64.7442C54.8239 65.1646 55.4142 65.3442 56.1654 65.2807L60.9992 68.0715C61.0507 68.4337 61.2707 69.4715 62.1381 70.0714C62.7485 70.4937 63.541 70.6 64.494 70.3973C64.6201 70.2857 64.7473 70.1756 64.872 70.0625C67.7546 65.0878 69.4059 59.3106 69.4059 53.1475C69.4059 34.4873 54.2789 19.3601 35.6185 19.3601C26.2453 19.3601 17.7654 23.1785 11.645 29.3428C11.6035 29.8295 11.619 30.7717 12.2157 31.5067Z" fill="#E9EFFF"/>
<path d="M61.2188 67.9272L56.2178 65.04C53.7071 65.3069 54.0358 62.6379 54.0358 62.6379C39.8118 66.6228 38.3243 55.0867 38.3243 55.0867L33.3064 50.7529C20.2021 51.4986 20.9344 38.5414 20.9344 38.5414C17.2808 38.5414 17.58 35.1079 17.58 35.1079L14.7166 32.2451C11.2647 32.2451 11.9127 29.0937 11.9177 29.0698C6.23753 34.6623 2.52628 42.2492 1.92065 50.6962C3.12394 55.7026 5.31128 60.3259 8.26597 64.3506L51.86 77.8331V77.8334C56.7216 76.1212 61.1347 73.4573 64.8722 70.0622C61.4458 71.0806 61.2188 67.9272 61.2188 67.9272Z" fill="#BEC8F7"/>
<path d="M17.3404 35.2004C17.3292 35.58 17.3634 36.825 18.2107 37.7494C18.792 38.3835 19.6261 38.7266 20.6923 38.771C20.6726 39.92 20.7951 44.7721 24.0675 48.0432C26.2295 50.2046 29.31 51.1964 33.2246 50.9922L38.1048 55.2074C38.2086 55.8647 38.9562 59.7336 42.4379 62.0382C45.2584 63.9052 49.0753 64.2113 53.7868 62.9494C53.7886 63.4004 53.8756 64.2005 54.4103 64.7441C54.8239 65.1646 55.4142 65.3441 56.1654 65.2807L60.2403 67.6333C62.7453 63.3864 64.1831 58.4354 64.1831 53.1474C64.1831 37.3718 51.3943 24.583 35.6187 24.583C27.6465 24.583 20.4386 27.8502 15.2568 33.1171L17.3404 35.2004Z" fill="#3C58A0"/>
<path d="M60.3587 67.4309L56.2176 65.0402C53.7068 65.307 54.0355 62.6381 54.0355 62.6381C39.8115 66.623 38.324 55.0869 38.324 55.0869L33.3062 50.7531C20.2018 51.4988 20.9341 38.5416 20.9341 38.5416C17.2805 38.5416 17.5798 35.1081 17.5798 35.1081L15.4207 32.9492C10.2516 38.1184 7.05444 45.2594 7.05444 53.1472C7.05444 58.0256 8.28163 62.6156 10.438 66.6328L14.9891 71.4145C21.5771 76.78 29.9816 80 39.1407 80C40.2623 80 41.3723 79.9508 42.4693 79.8562L42.4677 79.8545L48.7994 78.4919C53.624 75.9778 57.6405 72.127 60.3587 67.4309Z" fill="#2A428C"/>
<path d="M24.0674 48.0434C26.2294 50.2048 29.3099 51.1967 33.2246 50.9924L38.1047 55.2076C38.2085 55.8649 38.9561 59.7338 42.4379 62.0384C45.2583 63.9054 49.0752 64.2115 53.7868 62.9496C53.7869 62.9952 53.7883 63.0451 53.7907 63.0973C55.415 60.1423 56.3404 56.7512 56.3404 53.1477C56.3404 41.7218 47.0446 32.426 35.6186 32.426C29.7613 32.426 24.4644 34.8696 20.6919 38.7901C20.6738 39.969 20.811 44.7884 24.0674 48.0434Z" fill="#73C3F9"/>
<path d="M54.0356 62.6381C39.8115 66.6229 38.324 55.0868 38.324 55.0868L33.3062 50.7531C20.2024 51.4987 20.934 38.5431 20.9342 38.5415C17.2051 42.2906 14.897 47.4542 14.897 53.1473C14.897 64.5734 24.1928 73.869 35.6187 73.869C43.6264 73.869 50.5871 69.3029 54.0356 62.6381Z" fill="#49B1F7"/>
<path d="M34.6767 61.5656C34.7069 62.0233 34.9491 62.4267 35.3967 62.7664L36.0186 68.532C35.9824 68.7934 35.8044 70.4353 36.862 71.6808C37.5924 72.5409 38.7319 72.9998 40.2503 73.0478C41.8934 71.7047 42.9427 69.6627 42.9427 67.3748C42.9427 63.3298 39.6636 60.0508 35.6186 60.0508C35.5077 60.0508 35.3975 60.0542 35.2877 60.0592C35.0439 60.3394 34.6336 60.9131 34.6767 61.5656Z" fill="#9BD8F9"/>
<path d="M35.619 60.0508C31.574 60.0508 28.2949 63.3298 28.2949 67.3748C28.2949 71.4198 31.574 74.6989 35.619 74.6989C37.503 74.6989 39.2205 73.9869 40.5184 72.818C35.5515 72.8177 36.2552 68.5366 36.2552 68.5366L35.619 62.6381C34.0198 61.5187 35.619 60.0508 35.619 60.0508Z" fill="#73C3F9"/>
<path d="M35.6188 29.3619C34.9772 29.3619 34.457 28.8418 34.457 28.2002V24.7491C34.457 24.1074 34.9772 23.5874 35.6188 23.5874C36.2603 23.5874 36.7805 24.1076 36.7805 24.7491V28.2002C36.7806 28.8418 36.2605 29.3619 35.6188 29.3619Z" fill="#4F71B6"/>
<path d="M35.6188 76.9329C34.9772 76.9329 34.457 77.453 34.457 78.0947V79.7144C35.2247 79.8082 35.9995 79.878 36.7806 79.9255V78.0947C36.7806 77.453 36.2605 76.9329 35.6188 76.9329Z" fill="#4F71B6"/>
<path d="M28.7145 28.5455C28.2016 28.5455 27.7322 28.2031 27.5931 27.684L27.1466 26.0172C26.9805 25.3973 27.3483 24.7605 27.9681 24.5944C28.5878 24.4289 29.2249 24.7961 29.3909 25.4159L29.8375 27.0826C30.0036 27.7025 29.6358 28.3394 29.0159 28.5055C28.9153 28.5325 28.8141 28.5455 28.7145 28.5455Z" fill="#1C2E7A"/>
<path d="M43.6445 78.6105C43.4785 77.9905 42.8414 77.6235 42.2217 77.7889C41.602 77.955 41.2342 78.5921 41.4002 79.2118L41.5899 79.9196C42.3788 79.8697 43.1617 79.7982 43.9369 79.7013L43.6445 78.6105Z" fill="#1C2E7A"/>
<path d="M16.9143 35.6048C16.617 35.6048 16.3197 35.4914 16.0929 35.2647L14.8728 34.0445C14.419 33.5908 14.419 32.8551 14.8728 32.4016C15.3265 31.9478 16.062 31.948 16.5158 32.4014L17.7359 33.6216C18.1897 34.0753 18.1897 34.8109 17.7359 35.2645C17.509 35.4914 17.2117 35.6048 16.9143 35.6048Z" fill="#1C2E7A"/>
<path d="M55.5432 74.2335C55.2458 74.2335 54.9486 74.1201 54.7216 73.8933L53.5014 72.6732C53.0477 72.2194 53.0477 71.4838 53.5014 71.0302C53.9552 70.5765 54.6907 70.5766 55.1444 71.0301L56.3646 72.2502C56.8183 72.704 56.8183 73.4396 56.3646 73.8932C56.1379 74.1201 55.8405 74.2335 55.5432 74.2335Z" fill="#1C2E7A"/>
<path d="M9.85555 47.406C9.75602 47.406 9.65477 47.3931 9.55415 47.3662L7.88743 46.9195C7.26758 46.7534 6.89993 46.1162 7.06602 45.4965C7.23211 44.8768 7.8693 44.5091 8.48899 44.6751L10.1557 45.1218C10.7756 45.2879 11.1432 45.9251 10.9771 46.5448C10.8379 47.0638 10.3684 47.406 9.85555 47.406Z" fill="#1C2E7A"/>
<path d="M63.0504 61.6597C62.9508 61.6597 62.8496 61.6467 62.749 61.6198L61.0822 61.1731C60.4624 61.007 60.0947 60.3698 60.2608 59.75C60.4269 59.1302 61.0641 58.7631 61.6838 58.9286L63.3505 59.3753C63.9704 59.5414 64.338 60.1786 64.1719 60.7983C64.0327 61.3173 63.5633 61.6597 63.0504 61.6597Z" fill="#1C2E7A"/>
<path d="M8.18717 61.6595C7.6742 61.6595 7.20483 61.3171 7.06576 60.7982C6.89967 60.1784 7.26748 59.5413 7.88717 59.3752L9.55389 58.9285C10.1736 58.7632 10.8106 59.1304 10.9769 59.7499C11.1429 60.3698 10.7751 61.0068 10.1555 61.1731L8.48873 61.6198C8.38795 61.6465 8.2867 61.6595 8.18717 61.6595Z" fill="#1C2E7A"/>
<path d="M15.9367 71.1864L15.3853 71.7378C15.9985 72.2238 16.6276 72.6903 17.2704 73.1386L17.5796 72.8296C18.0334 72.3757 18.0334 71.6402 17.5796 71.1866C17.1259 70.7332 16.3903 70.733 15.9367 71.1864Z" fill="#1C2E7A"/>
<path d="M42.5229 28.5456C42.4234 28.5456 42.3223 28.5326 42.2215 28.5058C41.6018 28.3397 41.234 27.7026 41.3999 27.0829L41.8465 25.4162C42.0126 24.7962 42.6496 24.429 43.2693 24.5947C43.889 24.7608 44.2568 25.3978 44.0909 26.0175L43.6443 27.6844C43.5054 28.2033 43.0359 28.5456 42.5229 28.5456Z" fill="#1C2E7A"/>
<path d="M10.6714 54.3093H7.22031C6.57875 54.3093 6.05859 53.7891 6.05859 53.1476C6.05859 52.5058 6.57875 51.9858 7.22031 51.9858H10.6714C11.313 51.9858 11.8331 52.506 11.8331 53.1476C11.8331 53.7891 11.313 54.3093 10.6714 54.3093Z" fill="#4F71B6"/>
<path d="M64.0171 54.3093H60.566C59.9245 54.3093 59.4043 53.7891 59.4043 53.1476C59.4043 52.5058 59.9245 51.9858 60.566 51.9858H64.0171C64.6587 51.9858 65.1788 52.506 65.1788 53.1476C65.179 53.7891 64.6588 54.3093 64.0171 54.3093Z" fill="#4F71B6"/>
<path d="M23.1462 32.7044C22.7447 32.7044 22.3542 32.4961 22.139 32.1233L20.4134 29.1346C20.0926 28.5789 20.2829 27.8685 20.8387 27.5475C21.3943 27.2271 22.105 27.4171 22.4257 27.9729L24.1514 30.9616C24.4722 31.5172 24.2818 32.2277 23.7261 32.5486C23.5431 32.6541 23.3432 32.7044 23.1462 32.7044Z" fill="#4F71B6"/>
<path d="M49.0986 74.1716C48.7778 73.616 48.0673 73.4257 47.5115 73.7463C46.9559 74.0672 46.7654 74.7777 47.0862 75.3333L48.8117 78.3219C48.8956 78.4672 49.0065 78.5866 49.134 78.6794C49.7295 78.5188 50.319 78.3443 50.9026 78.1561C51.0231 77.8405 51.006 77.4755 50.824 77.1602L49.0986 74.1716Z" fill="#4F71B6"/>
<path d="M13.433 64.6149L10.4442 66.3404C10.3653 66.386 10.2947 66.4401 10.231 66.4998C10.745 67.0915 11.2783 67.6659 11.8274 68.2249L14.5947 66.6273C15.1503 66.3063 15.3408 65.5959 15.0199 65.0402C14.6991 64.4845 13.9886 64.2945 13.433 64.6149Z" fill="#4F71B6"/>
<path d="M14.0127 41.8356C13.8157 41.8356 13.6159 41.7853 13.4329 41.6798L10.4441 39.9544C9.88852 39.6334 9.69805 38.9231 10.0188 38.3673C10.3396 37.8117 11.0501 37.6216 11.6059 37.942L14.5946 39.6675C15.1502 39.9884 15.3407 40.6988 15.0199 41.2545C14.8049 41.6272 14.4143 41.8356 14.0127 41.8356Z" fill="#4F71B6"/>
<path d="M60.2112 68.5084C60.0142 68.5084 59.8145 68.4581 59.6314 68.3526L56.6426 66.6271C56.087 66.3062 55.8965 65.5959 56.2173 65.0401C56.5381 64.4846 57.2486 64.2945 57.8044 64.6148L60.7931 66.3402C61.3487 66.6612 61.5392 67.3715 61.2184 67.9273C61.0034 68.2999 60.6128 68.5084 60.2112 68.5084Z" fill="#4F71B6"/>
<path d="M23.726 73.7463C23.1702 73.4258 22.4597 73.6158 22.1389 74.1716L21.3135 75.6013C21.9989 75.9627 22.6954 76.3061 23.4047 76.6263L24.1513 75.3333C24.4719 74.7777 24.2816 74.0672 23.726 73.7463Z" fill="#4F71B6"/>
<path d="M41.4722 11.4236H35.0413C35.115 11.5284 35.1947 11.6328 35.2868 11.7364C35.0127 11.9936 34.5543 12.5283 34.4924 13.2703C34.4369 13.9345 34.71 14.5997 35.3035 15.2501H38.9671C40.6329 15.2501 41.9832 13.8998 41.9832 12.234V11.3745C41.8174 11.4054 41.6471 11.4236 41.4722 11.4236Z" fill="#6289CC"/>
<path d="M29.2542 11.3745V12.234C29.2542 13.8998 30.6045 15.2501 32.2702 15.2501H35.6271C33.5859 13.2089 35.6271 11.7553 35.6271 11.7553C35.5146 11.6428 35.4162 11.5322 35.3306 11.4234H29.7651C29.5904 11.4234 29.4201 11.4053 29.2542 11.3745Z" fill="#3C58A0"/>
<path d="M35.6188 52.8461C34.9772 52.8461 34.457 52.3259 34.457 51.6844V36.5814C34.457 35.9397 34.9772 35.4197 35.6188 35.4197C36.2603 35.4197 36.7805 35.9398 36.7805 36.5814V51.6844C36.7806 52.3261 36.2605 52.8461 35.6188 52.8461Z" fill="#4F71B6"/>
<path d="M35.6188 68.3705C34.9772 68.3705 34.457 67.8504 34.457 67.2088V63.7999C34.457 63.1582 34.9772 62.6382 35.6188 62.6382C36.2603 62.6382 36.7805 63.1583 36.7805 63.7999V67.2088C36.7806 67.8504 36.2605 68.3705 35.6188 68.3705Z" fill="#3C58A0"/>
<path d="M36.2548 68.5366H34.9823C34.3407 68.5366 33.8206 68.0164 33.8206 67.3749C33.8206 66.7331 34.3407 66.2131 34.9823 66.2131H36.2548C36.8963 66.2131 37.4165 66.7333 37.4165 67.3749C37.4166 68.0166 36.8965 68.5366 36.2548 68.5366Z" fill="#6289CC"/>
<path d="M38.6938 54.4139C39.4018 52.7167 38.5998 50.7669 36.9025 50.0589C35.2053 49.3509 33.2555 50.1529 32.5475 51.8502C31.8395 53.5474 32.6415 55.4973 34.3388 56.2052C36.036 56.9132 37.9859 56.1112 38.6938 54.4139Z" fill="#E9EFFF"/>
<path d="M35.6187 23.5872C19.3192 23.5872 6.05859 36.8478 6.05859 53.1475C6.05859 57.1109 6.84469 60.8937 8.26578 64.3508C10.2028 66.9887 12.4692 69.3692 15.0052 71.4317C10.6809 66.562 8.05016 60.1567 8.05016 53.1475C8.05016 37.9461 20.4173 25.5789 35.6187 25.5789C50.8202 25.5789 63.1873 37.9462 63.1873 53.1475C63.1873 65.9854 54.3667 76.8014 42.4677 79.8545C45.733 79.5733 48.8806 78.8825 51.86 77.8333C59.8775 72.5406 65.1791 63.4522 65.1791 53.1475C65.1791 36.8478 51.9184 23.5872 35.6187 23.5872Z" fill="#6289CC"/>
<path d="M62.2914 17.1594C58.4734 17.1594 54.9708 18.5094 52.2344 20.7577L53.4881 21.0061C53.3673 21.4669 53.2056 22.4599 53.6794 23.4557C54.1198 24.3818 54.992 25.0672 56.2723 25.4943L61.2578 31.9882C61.3045 32.281 61.5661 33.2472 62.9797 33.2472C63.597 33.2472 64.9031 36.2794 66.0286 41.3594C65.8467 41.7021 65.2322 43.0197 65.7127 44.3755C66.08 45.4124 66.9922 46.2055 68.4239 46.7328C68.7317 46.8463 69.0195 47.0193 69.2891 47.2411C74.5352 44.6563 78.145 39.2566 78.145 33.0129C78.1447 24.2572 71.0469 17.1594 62.2914 17.1594Z" fill="#FF4155"/>
<path d="M62.2917 48.8662C64.8929 48.8662 67.3479 48.2396 69.5139 47.1291C69.2028 46.8576 68.8675 46.6466 68.5048 46.5129C64.1796 44.9193 66.2767 41.3954 66.2767 41.3954C66.2767 41.3954 64.4315 33.0129 62.9798 33.0129C61.5281 33.0129 61.4823 31.8957 61.4823 31.8957L56.4143 25.2943C52.5378 24.0444 53.789 20.8271 53.789 20.8271L52.4726 20.5662C48.7973 23.4694 46.4382 27.9655 46.4382 33.0129C46.4384 41.7685 53.5362 48.8662 62.2917 48.8662Z" fill="#E80054"/>
<path d="M54.5113 40.9271C54.1291 40.4131 54.2351 39.6869 54.7476 39.3036C54.8043 39.2605 58.6266 36.3105 59.2438 30.9356C59.3169 30.298 59.8927 29.8402 60.5305 29.9141C61.168 29.9872 61.6254 30.5633 61.5523 31.2008C60.8152 37.6189 56.3276 41.0241 56.1369 41.166C55.6199 41.5503 54.8926 41.4394 54.5113 40.9271Z" fill="#E9EFFF"/>
<path d="M56.4144 35.6725C53.5532 35.6725 51.2253 33.3447 51.2253 30.4834C51.2253 27.6222 53.5532 25.2942 56.4144 25.2942C59.2757 25.2942 61.6035 27.6222 61.6035 30.4834C61.6036 33.3447 59.2758 35.6725 56.4144 35.6725ZM56.4144 27.6176C54.8342 27.6176 53.5488 28.9033 53.5488 30.4833C53.5488 32.0634 54.8342 33.3487 56.4144 33.3487C57.9944 33.3487 59.2799 32.0633 59.2799 30.4833C59.28 28.9033 57.9946 27.6176 56.4144 27.6176Z" fill="#E9EFFF"/>
<path d="M68.169 41.7542C65.3077 41.7542 62.9797 39.4264 62.9797 36.5651V30.1244C62.9797 27.2631 65.3075 24.9353 68.169 24.9353C71.0302 24.9353 73.358 27.2631 73.358 30.1244V36.5651C73.358 39.4264 71.0304 41.7542 68.169 41.7542ZM68.169 27.2589C66.5888 27.2589 65.3033 28.5444 65.3033 30.1244V36.5651C65.3033 38.1453 66.5888 39.4306 68.169 39.4306C69.749 39.4306 71.0344 38.1451 71.0344 36.5651V30.1244C71.0346 28.5444 69.7491 27.2589 68.169 27.2589Z" fill="#E9EFFF"/>
<path d="M62.2917 49.8618C53.0011 49.8618 45.4426 42.3034 45.4426 33.0127C45.4426 27.5146 48.1362 22.3488 52.6479 19.1948C53.0986 18.879 53.7195 18.9893 54.0347 19.4404C54.3498 19.8912 54.2398 20.512 53.789 20.827C49.8098 23.609 47.4342 28.1645 47.4342 33.0129C47.4342 41.2052 54.0992 47.8704 62.2917 47.8704C64.4609 47.8704 66.5514 47.4137 68.505 46.5131C69.0045 46.2826 69.5959 46.5009 69.8262 47.0005C70.0565 47.4999 69.8383 48.0915 69.3389 48.3218C67.1218 49.3437 64.7509 49.8618 62.2917 49.8618Z" fill="#FF4155"/>
<path d="M53.2192 21.0069C52.9051 21.0069 52.5959 20.8587 52.4022 20.5815C52.087 20.1307 52.197 19.5101 52.6478 19.1949C55.4842 17.2119 58.8189 16.1638 62.2915 16.1638C65.3114 16.1638 68.2744 16.9726 70.8603 18.5024C71.3336 18.7824 71.4903 19.3932 71.2103 19.8666C70.9303 20.3398 70.3195 20.4965 69.8462 20.2166C67.5673 18.8682 64.955 18.1555 62.2917 18.1555C59.2294 18.1555 56.2892 19.0794 53.7892 20.8273C53.6153 20.9487 53.4162 21.0069 53.2192 21.0069Z" fill="#FF7186"/>
<path d="M68.9223 48.4134C68.5457 48.4134 68.1854 48.1989 68.0173 47.8344C67.787 47.335 68.0052 46.7434 68.5046 46.5131C73.7559 44.0922 77.1488 38.7931 77.1488 33.0131C77.1488 32.4631 77.5948 32.0173 78.1446 32.0173C78.6946 32.0173 79.1404 32.4633 79.1404 33.0131C79.1404 39.5675 75.2929 45.5767 69.3384 48.3219C69.2035 48.3841 69.0618 48.4134 68.9223 48.4134Z" fill="#FF7186"/>
<path d="M78.1448 34.0087C77.5949 34.0087 77.149 33.5627 77.149 33.0129C77.149 27.7852 74.3507 22.882 69.846 20.2165C69.3727 19.9363 69.216 19.3256 69.4962 18.8523C69.7762 18.3793 70.3871 18.2224 70.8602 18.5023C75.9677 21.5246 79.1407 27.0848 79.1407 33.0129C79.1406 33.5627 78.6946 34.0087 78.1448 34.0087Z" fill="#F9A0B1"/>
<path d="M41.4721 0H29.765C28.2268 0 26.9797 1.24703 26.9797 2.78531V8.97C26.9797 10.5083 28.2268 11.7553 29.765 11.7553H41.4721C43.0104 11.7553 44.2574 10.5083 44.2574 8.97V2.78531C44.2574 1.24703 43.0104 0 41.4721 0V0Z" fill="#E9EFFF"/>
<path d="M41.4722 0H35.2719C35.0214 0.245156 34.6394 0.717344 34.5867 1.36469C34.5353 1.99422 34.8066 2.62312 35.3928 3.23484V8.50641C35.175 8.69938 34.6547 9.23734 34.5991 10.0098C34.557 10.5947 34.7883 11.1745 35.2869 11.7362C35.2805 11.7422 35.2736 11.7491 35.267 11.7553H41.4722C43.0105 11.7553 44.2575 10.5083 44.2575 8.97V2.78531C44.2575 1.24703 43.0105 0 41.4722 0V0Z" fill="#D3DCFB"/>
<path d="M35.6269 0H29.765C28.2268 0 26.9797 1.24703 26.9797 2.78531V8.97C26.9797 10.5083 28.2268 11.7553 29.765 11.7553H35.6269C33.8304 9.95891 35.6269 8.61609 35.6269 8.61609V3.13922C33.7997 1.31203 35.6269 0 35.6269 0V0Z" fill="#A2B6F4"/>
<path d="M31.6122 8.61604C30.9706 8.61604 30.4504 8.09588 30.4504 7.45432V4.30088C30.4504 3.65916 30.9706 3.13916 31.6122 3.13916C32.2537 3.13916 32.7739 3.65932 32.7739 4.30088V7.45432C32.774 8.09604 32.2539 8.61604 31.6122 8.61604Z" fill="#E9EFFF"/>
<path d="M35.6271 8.61604C34.9855 8.61604 34.4653 8.09588 34.4653 7.45432V4.30088C34.4653 3.65916 34.9855 3.13916 35.6271 3.13916C36.2686 3.13916 36.7888 3.65932 36.7888 4.30088V7.45432C36.7889 8.09604 36.2688 8.61604 35.6271 8.61604Z" fill="#E9EFFF"/>
<path d="M39.6419 8.61604C39.0004 8.61604 38.4802 8.09588 38.4802 7.45432V4.30088C38.4802 3.65916 39.0004 3.13916 39.6419 3.13916C40.2835 3.13916 40.8037 3.65932 40.8037 4.30088V7.45432C40.8038 8.09604 40.2837 8.61604 39.6419 8.61604Z" fill="#E9EFFF"/>
</svg>
