<svg width="32" height="32" viewBox="0 0 32 32" fill="none" xmlns="http://www.w3.org/2000/svg">
<path d="M15.3127 0.6875C12.6622 0.6875 10.1691 1.36112 7.99493 2.54625L5.44556 27.7088C8.11062 29.957 11.5531 31.3127 15.3127 31.3127C23.7696 31.3127 30.6253 24.4571 30.6253 16.0001C30.6254 7.54319 23.7697 0.6875 15.3127 0.6875Z" fill="#73C3F9"/>
<path d="M22.8689 27.6479V28.6027C22.8689 29.0045 23.1976 29.3332 23.5994 29.3332H24.8169C25.2186 29.3332 25.5474 29.0045 25.5474 28.6027V27.6479H22.8689Z" fill="#FFDD40"/>
<path d="M28.7123 27.0708H26.748L27.8536 30.651C28.0065 31.1462 28.5319 31.4237 29.027 31.2707C29.5222 31.1179 29.7997 30.5924 29.6468 30.0973L28.7123 27.0708Z" fill="#2A428C"/>
<path d="M31.9338 13.1545C31.6488 13.4395 31.3665 13.5721 31.0927 13.5492C30.7212 13.5178 30.4773 13.2033 30.4524 13.1698C30.229 12.7788 25.8105 5.05327 24.8805 4.12321C24.6057 3.84834 24.4755 3.57021 24.4938 3.29665C24.5198 2.90871 24.8397 2.6454 24.8689 2.62215L24.9856 2.5459H14.0078C13.8868 2.66909 13.6678 2.94034 13.648 3.30602C13.6316 3.60884 13.755 3.90552 14.0149 4.18902C13.878 4.33965 13.5792 4.7249 13.569 5.22734C13.5613 5.61109 13.7236 5.97702 14.0514 6.31546V17.6261C13.9373 17.7335 13.5749 18.1147 13.5516 18.6491C13.5353 19.0208 13.6864 19.3826 14.0008 19.7259C13.9182 19.7915 13.8092 19.9041 13.7724 20.0613C13.736 20.217 13.7775 20.3784 13.8955 20.5408C14.1458 20.8853 13.7334 21.6778 13.5533 21.954L13.5434 21.9743C13.4655 22.1975 13.4415 22.6645 13.8517 22.9418C13.722 23.0858 13.4772 23.3961 13.333 23.823C13.1507 24.3628 13.104 25.193 13.904 26.0962C13.8798 26.3568 13.8288 27.6539 15.1539 27.9373C15.4095 27.7895 15.7032 27.7085 16.0069 27.7085H29.6745C30.9589 27.7085 32.0001 26.6672 32.0001 25.3828V13.0843C31.9781 13.1086 31.9562 13.1321 31.9338 13.1545Z" fill="#3C58A0"/>
<path d="M29.6743 2.5459H24.8141C24.8141 2.5459 23.8783 3.25371 24.8141 4.18952C25.7499 5.12534 30.3734 13.2208 30.3734 13.2208C30.3734 13.2208 31.0444 14.1765 32 13.2208V4.87152C32 3.58709 30.9587 2.5459 29.6743 2.5459Z" fill="#4F71B6"/>
<path d="M14.145 2.5459H7.99469C7.13113 3.01659 6.31826 3.5684 5.56551 4.19034L3.77319 26.0629C4.28807 26.6528 4.84676 27.2035 5.44538 27.7085H10.5623C11.1193 27.7085 11.6437 27.9793 11.9583 28.439C12.2476 28.8616 12.7336 29.139 13.2844 29.139C13.8353 29.139 14.3214 28.8616 14.6107 28.439C14.7831 28.187 15.0189 27.9922 15.2883 27.8672C13.7626 27.6265 14.0015 26.0648 14.0015 26.0648C12.4551 24.3578 14.0015 22.9211 14.0015 22.9211C13.4156 22.625 13.6317 22.0051 13.6317 22.0051C13.6317 22.0051 14.3146 20.9585 13.9711 20.4856C13.6276 20.0128 14.145 19.7411 14.145 19.7411C13.0178 18.6138 14.145 17.6678 14.145 17.6678V6.27702C13.0591 5.19115 14.145 4.18946 14.145 4.18946C13.2341 3.27859 14.145 2.5459 14.145 2.5459Z" fill="#2A428C"/>
<path d="M29.6742 4.18945H14.0143C13.8772 4.34039 13.579 4.72533 13.5689 5.22727C13.5611 5.61102 13.7234 5.97695 14.0512 6.31539V17.6261C13.9371 17.7334 13.5747 18.1146 13.5514 18.6491C13.5352 19.0207 13.6862 19.3825 14.0007 19.7258C13.918 19.7915 13.809 19.9041 13.7722 20.0612C13.7359 20.2169 13.7773 20.3783 13.8953 20.5408C14.1456 20.8853 13.7332 21.6777 13.5532 21.9539L13.5432 21.9743C13.4654 22.1975 13.4414 22.6644 13.8515 22.9418C13.7218 23.0857 13.477 23.396 13.3329 23.8229C13.1527 24.3565 13.1055 25.1738 13.8769 26.0648H29.6742C30.0504 26.0648 30.3564 25.7588 30.3564 25.3827V4.87158C30.3563 4.49545 30.0504 4.18945 29.6742 4.18945Z" fill="#92C357"/>
<path d="M14.1451 4.18945H5.56569C2.16638 6.99808 0 11.2459 0 15.9998C0 17.5652 0.234937 19.0756 0.671562 20.4979L0.67175 20.4971L1.64756 22.9139C2.22537 24.0534 2.94081 25.1114 3.77312 26.0648H14.0016C12.4551 24.3578 14.0016 22.9211 14.0016 22.9211C13.4156 22.625 13.6318 22.0051 13.6318 22.0051C13.6318 22.0051 14.3147 20.9584 13.9712 20.4856C13.6277 20.0128 14.1451 19.7411 14.1451 19.7411C13.0178 18.6138 14.1451 17.6678 14.1451 17.6678V6.27701C13.0592 5.19114 14.1451 4.18945 14.1451 4.18945Z" fill="#6FAF46"/>
<path d="M27.7343 5.75879H25.0823C24.5099 5.75879 24.0459 6.22285 24.0459 6.79523C24.0459 7.36766 24.5099 7.83166 25.0823 7.83166H27.7343C28.3068 7.83166 28.7708 7.3676 28.7708 6.79523C28.7708 6.22285 28.3068 5.75879 27.7343 5.75879Z" fill="#B4D667"/>
<path d="M13.9825 19.7412C13.9027 19.8083 13.8064 19.9153 13.7723 20.0613C13.7359 20.2171 13.7774 20.3785 13.8954 20.5409C14.1457 20.8854 13.7333 21.6778 13.5532 21.9541L13.5433 21.9744C13.4673 22.1923 13.4438 22.642 13.8242 22.9212H16.2497L19.4298 19.7412H13.9825Z" fill="#B4D667"/>
<path d="M14.1453 19.7412H10.3196L7.13965 22.9212H14.0018C13.4159 22.6251 13.632 22.0052 13.632 22.0052C13.632 22.0052 14.315 20.9585 13.9715 20.4857C13.6279 20.013 14.1453 19.7412 14.1453 19.7412Z" fill="#92C357"/>
<path d="M0.671631 20.2608V20.4972C0.929693 21.3383 1.25819 22.1486 1.65038 22.9212H7.24244L10.4224 19.7412H1.19119C0.904256 19.7412 0.671631 19.9738 0.671631 20.2608Z" fill="#FF4155"/>
<path d="M25.378 19.7412H19.3267L16.1467 22.9212H25.378C25.665 22.9212 25.8976 22.6886 25.8976 22.4016V20.2608C25.8975 19.9738 25.6649 19.7412 25.378 19.7412Z" fill="#73C3F9"/>
<path d="M13.4097 27.7961H13.222C12.9866 27.7961 12.7959 27.6053 12.7959 27.37C12.7959 27.1346 12.9866 26.9438 13.222 26.9438H13.4097C13.6451 26.9438 13.8358 27.1346 13.8358 27.37C13.8358 27.6053 13.6451 27.7961 13.4097 27.7961Z" fill="#6289CC"/>
<path d="M22.2993 21.758H20.0958C19.8604 21.758 19.6697 21.5673 19.6697 21.3319C19.6697 21.0965 19.8604 20.9058 20.0958 20.9058H22.2993C22.5347 20.9058 22.7254 21.0965 22.7254 21.3319C22.7254 21.5673 22.5347 21.758 22.2993 21.758Z" fill="#9BD8F9"/>
<path d="M6.45012 21.758H4.24668C4.01131 21.758 3.82056 21.5673 3.82056 21.3319C3.82056 21.0965 4.01131 20.9058 4.24668 20.9058H6.45018C6.68556 20.9058 6.87631 21.0965 6.87631 21.3319C6.87624 21.5673 6.68549 21.758 6.45012 21.758Z" fill="#FF7186"/>
<path d="M13.2847 22.1849C13.1468 22.1849 13.0175 22.1181 12.9375 22.0058L12.3299 21.1517C12.1935 20.9599 12.2383 20.6939 12.4301 20.5575C12.6219 20.4212 12.8879 20.4659 13.0244 20.6577L13.2847 21.0236L13.545 20.6577C13.6815 20.466 13.9475 20.421 14.1393 20.5575C14.331 20.6939 14.3759 20.9599 14.2395 21.1517L13.632 22.0058C13.552 22.1181 13.4226 22.1849 13.2847 22.1849Z" fill="#E9EFFF"/>
<path d="M13.8878 16.6418C13.6667 17.005 13.7071 17.3971 14.0732 17.678C14.5822 17.6083 15.0701 17.4725 15.5277 17.2788L14.7958 16.5117H13.5352C13.6445 16.5595 13.7616 16.6033 13.8878 16.6418Z" fill="#BEC8F7"/>
<path d="M14.1448 17.668C13.499 17.218 13.968 16.6128 13.968 16.6128C13.8615 16.5825 13.7611 16.5486 13.6663 16.5117H11.7728L11.041 17.2788C11.7305 17.5706 12.4886 17.732 13.2843 17.732C13.5768 17.732 13.8641 17.71 14.1448 17.668Z" fill="#A2B6F4"/>
<path d="M14.0582 6.26465C13.9004 6.39484 13.5532 6.76671 13.8669 7.3319C13.8669 7.3319 13.7524 7.36159 13.5808 7.43302H14.7958L15.5276 6.66596C15.0656 6.4704 14.5726 6.33371 14.0582 6.26465Z" fill="#BEC8F7"/>
<path d="M14.1449 6.27695C13.8641 6.23489 13.5768 6.21289 13.2843 6.21289C12.4886 6.21289 11.7305 6.37433 11.041 6.66614L11.7728 7.4332H13.682C13.8535 7.36177 13.968 7.33208 13.968 7.33208C13.6636 6.78352 13.9816 6.41714 14.1449 6.27695Z" fill="#A2B6F4"/>
<path d="M17.2852 13.1562L18.7064 13.9184C18.9247 13.3104 19.0439 12.6552 19.0439 11.9721C19.0439 11.289 18.9247 10.6338 18.7064 10.0259L17.2852 10.7881V13.1562Z" fill="#E9EFFF"/>
<path d="M9.28364 13.1562L7.8624 13.9184C7.64415 13.3104 7.5249 12.6552 7.5249 11.9721C7.5249 11.289 7.64415 10.6338 7.8624 10.0259L9.28364 10.7881V13.1562Z" fill="#A2B6F4"/>
<path d="M18.7063 10.0259C18.1625 8.51114 17.0023 7.29014 15.5277 6.66602L14.7959 7.33195L15.1463 9.71314L17.3862 10.7881L18.7063 10.0259Z" fill="#D3DCFB"/>
<path d="M7.86255 10.0259C8.40636 8.51114 9.56661 7.29014 11.0412 6.66602L11.773 7.33195L11.535 9.77802L9.18274 10.7881L7.86255 10.0259Z" fill="#3C58A0"/>
<path d="M18.7063 13.9184C18.1625 15.4332 17.0023 16.6542 15.5277 17.2783L14.7959 16.6124L15.0678 14.1859L17.3862 13.1562L18.7063 13.9184Z" fill="#D3DCFB"/>
<path d="M7.86255 13.9184C8.40636 15.4332 9.56661 16.6542 11.0412 17.2783L11.773 16.6124L11.5392 14.1639L9.18267 13.1562L7.86255 13.9184Z" fill="#3C58A0"/>
<path d="M13.2843 12.9883L12.0454 13.8053L12.0794 13.8388C12.0612 13.9571 12.0033 14.4398 12.1628 14.9915C12.322 15.5415 12.7358 16.2565 13.798 16.6129H14.7958L15.3352 14.3408L13.2843 12.9883Z" fill="#E9EFFF"/>
<path d="M12.1338 13.8206L12.0888 13.7764L11.2336 14.3404L11.7731 16.6124H13.9683C11.73 15.9735 12.1338 13.8206 12.1338 13.8206Z" fill="#D3DCFB"/>
<path d="M14.7959 7.33203H13.867C13.867 7.33203 11.6027 7.91697 12.1157 10.1717C12.1169 10.1772 12.1179 10.1826 12.119 10.188L13.2845 10.9567L15.3354 9.6041L14.7959 7.33203Z" fill="#E9EFFF"/>
<path d="M13.968 7.33203H11.7728L11.2334 9.6041L12.2338 10.2639C12.2293 10.2336 12.2196 10.2036 12.2166 10.1717C11.9993 7.90503 13.968 7.33203 13.968 7.33203Z" fill="#D3DCFB"/>
<path d="M13.2844 10.7881V13.1562L15.3353 14.3403L17.3862 13.1562V10.7881L15.3353 9.604L13.2844 10.7881Z" fill="#4F71B6"/>
<path d="M12.1837 10.1528C11.8887 10.3118 11.4771 10.6341 11.4771 11.1965V12.9879C11.4771 12.9879 11.5651 13.5471 12.1002 13.8401L13.2844 13.1564V10.7882L12.1837 10.1528Z" fill="#D3DCFB"/>
<path d="M12.2167 10.1716L11.2335 9.604L9.18262 10.7881V13.1563L11.2335 14.3403L12.1337 13.8206C11.6288 13.5231 11.5445 12.9878 11.5445 12.9878C11.5445 12.9878 11.5445 12.0726 11.5445 11.1964C11.5444 10.6556 11.9251 10.3367 12.2167 10.1716Z" fill="#BEC8F7"/>
</svg>
