<svg width="22" height="25" viewBox="0 0 22 25" fill="none" xmlns="http://www.w3.org/2000/svg">
<path d="M0.21875 0L0.3125 1.09375L2.0625 20.875L2.125 21.5625L2.78125 21.75L10.7188 23.9688L10.9688 24.0312L11.25 23.9688L19.1875 21.7812L19.8438 21.5938L19.9062 20.9062L21.6875 1.09375L21.7812 0.03125H20.6875L1.3125 0H0.21875ZM2.40625 2L19.5938 2.03125L17.9688 20.0312L11 21.9688L4 20.0312L2.40625 2ZM4.8125 5L5.46875 12.4688H14.0312L13.75 15.6875L11 16.4375H10.9688L8.21875 15.6875L8.0625 13.625H5.5625L5.90625 17.5938L10.9688 19H11L16.0625 17.5938L16.75 10H7.71875L7.5 7.46875H16.9688L17.1875 5H4.8125Z" fill="#E4AF5E"/>
</svg>
