<svg width="78" height="80" viewBox="0 0 78 80" fill="none" xmlns="http://www.w3.org/2000/svg">
<path d="M38.9998 3.43677C17.8575 3.43677 0.718262 20.576 0.718262 41.7183C0.718262 60.9543 14.9067 76.8744 33.3886 79.5894H44.6111C63.0929 76.8744 77.2814 60.9543 77.2814 41.7183C77.2814 20.576 60.1422 3.43677 38.9998 3.43677Z" fill="#92C357"/>
<path d="M42.1344 66.787C40.3976 66.787 38.9763 68.2081 38.9763 69.9451V79.9998C38.9841 79.9998 38.9919 80 38.9999 80C40.9063 80 42.7794 79.8585 44.6112 79.5895V66.787H42.1344Z" fill="#3C58A0"/>
<path d="M66.2324 68.6209C64.7327 67.5291 62.8913 66.882 60.9052 66.882H58.0029C53.0036 66.882 48.9133 70.9723 48.9133 75.9715V78.7012C55.5777 76.9195 61.5254 73.3846 66.2324 68.6209Z" fill="#B4D667"/>
<path d="M19.997 66.882H17.0946C15.1085 66.882 13.2673 67.5291 11.7676 68.6209C16.4746 73.3846 22.4221 76.9196 29.0866 78.7013V75.9716C29.0866 70.9723 24.9963 66.882 19.997 66.882Z" fill="#B4D667"/>
<path d="M39.0982 69.9718C39.0982 68.2724 40.4885 66.8819 42.1881 66.8819H44.6112V62.3391H33.3887V79.5896C35.2202 79.8586 37.0934 80 38.9998 80C39.0326 80 39.0652 79.9993 39.0982 79.9991V69.9718Z" fill="#2A428C"/>
<path d="M60.4119 8.87381C57.4099 6.34131 60.4119 4.07959 60.4119 4.07959H43.2471C45.5475 5.10084 47.4119 6.92459 48.4835 9.19725H60.8441C60.693 9.09646 60.5485 8.98881 60.4119 8.87381Z" fill="#3C58A0"/>
<path d="M60.2556 8.87381C60.392 8.98897 60.5365 9.09646 60.6877 9.19725H70.2362V6.991C70.2362 5.38975 68.926 4.07959 67.3248 4.07959H60.2556C60.2556 4.07959 57.2537 6.34115 60.2556 8.87381Z" fill="#4F71B6"/>
<path d="M34.753 4.07959H10.6748C9.07358 4.07959 7.76343 5.38975 7.76343 6.991V9.1974H29.5164C30.5881 6.92459 32.4523 5.10084 34.753 4.07959Z" fill="#2A428C"/>
<path d="M58.9744 10.9528C58.9397 11.806 59.3153 12.6317 60.0903 13.4067C62.3875 15.7038 72.9905 45.211 73.0973 45.5088L73.1115 45.5482L73.1384 45.5803C73.1751 45.6242 74.0572 46.6593 75.3817 46.7176C76.1773 46.7506 76.9515 46.4278 77.6851 45.7537V12.2953C77.6851 10.4134 76.1455 8.87354 74.2634 8.87354H59.92C59.6098 9.2001 59.015 9.95166 58.9744 10.9528Z" fill="#E9EFFF"/>
<path d="M60.2557 8.87378H48.3225C49.0611 10.3092 49.4808 11.9357 49.4808 13.6611C49.4808 19.4496 44.7883 24.1421 38.9999 24.1421C37.6808 24.1421 36.4199 23.8961 35.2572 23.4513L35.7369 27.0011C35.4374 27.328 34.3922 28.5533 33.8316 30.2932C33.2369 32.1389 33.1083 34.9158 35.8436 37.6988V40.7357C35.6175 40.9577 35.0067 41.6414 34.97 42.5808C34.9428 43.278 35.2357 43.9513 35.841 44.5838L35.7525 47.8103C35.3416 48.1772 33.58 49.8927 33.3849 52.4938C33.2397 54.4289 34.0013 56.3713 35.6488 58.27C35.266 58.6127 34.458 59.4644 34.4555 60.5502C34.4538 61.3072 34.8416 62.0167 35.6085 62.6628H74.2632C76.145 62.6628 77.6849 61.123 77.6849 59.2411V45.4297C75.3086 47.806 73.3177 45.4297 73.3177 45.4297C73.3177 45.4297 62.6167 15.6019 60.2557 13.241C57.8947 10.88 60.2557 8.87378 60.2557 8.87378Z" fill="#D3DCFB"/>
<path d="M35.9842 58.2953C30.6246 52.3328 35.9842 47.9196 35.9842 47.9196L36.0782 44.4907C34.1088 42.5213 36.0782 40.8373 36.0782 40.8373V37.6023C30.8079 32.3318 35.9842 27.0803 35.9842 27.0803L35.5062 23.5431C31.436 22.104 28.5192 18.224 28.5192 13.6609C28.5192 11.9354 28.9387 10.309 29.6774 8.87354H3.73666C1.85479 8.87354 0.314941 10.4134 0.314941 12.2953V59.2407C0.314941 61.1226 1.85463 62.6624 3.73666 62.6624H35.9842C33.0724 60.4682 35.9842 58.2953 35.9842 58.2953Z" fill="#BEC8F7"/>
<path d="M43.3911 23.1775C42.055 23.795 40.5683 24.142 38.9999 24.142C37.6802 24.142 36.4196 23.8937 35.2567 23.448L35.7369 27.0009C35.4374 27.3278 34.3922 28.5531 33.8316 30.293C33.2369 32.1387 33.1083 34.9156 35.8436 37.6986V40.7355C35.6175 40.9575 35.0067 41.6412 34.97 42.5806C34.9428 43.2778 35.2357 43.9511 35.841 44.5836L35.7525 47.8101C35.3416 48.177 33.58 49.8925 33.3849 52.4936C33.2397 54.4287 34.0013 56.3711 35.6488 58.2698C35.64 58.2776 35.63 58.287 35.621 58.2953H73.3175V23.1775H43.3911Z" fill="#2A428C"/>
<path d="M35.9842 47.9197L36.0782 44.4908C34.1089 42.5214 36.0782 40.8374 36.0782 40.8374V37.6024C30.8079 32.3319 35.9842 27.0803 35.9842 27.0803L35.5057 23.5399C35.2004 23.4316 34.9004 23.3122 34.6087 23.1774H4.68213V58.2953H35.9842C30.6245 52.3328 35.9842 47.9197 35.9842 47.9197Z" fill="#1C2E7A"/>
<path d="M28.519 13.6611C28.519 13.5202 28.5242 13.3805 28.5296 13.241H4.68213V23.5011H35.3835C31.3771 22.0281 28.519 18.1785 28.519 13.6611Z" fill="#FF4155"/>
<path d="M49.4704 13.241C49.4758 13.3805 49.481 13.5202 49.481 13.6611C49.481 18.1785 46.6229 22.0281 42.6165 23.5011H73.3179V13.241H49.4704Z" fill="#49B1F7"/>
<path d="M16.5977 19.3712H10.6671C10.0418 19.3712 9.53491 18.8643 9.53491 18.239C9.53491 17.6137 10.0418 17.1068 10.6671 17.1068H16.5979C17.2232 17.1068 17.7301 17.6137 17.7301 18.239C17.7301 18.8643 17.223 19.3712 16.5977 19.3712Z" fill="#FF7186"/>
<path d="M61.4023 19.3712H55.4715C54.8462 19.3712 54.3394 18.8643 54.3394 18.239C54.3394 17.6137 54.8462 17.1068 55.4715 17.1068H61.4023C62.0276 17.1068 62.5345 17.6137 62.5345 18.239C62.5345 18.8643 62.0276 19.3712 61.4023 19.3712Z" fill="#73C3F9"/>
<path d="M57.2684 53.2602C53.0823 53.2602 49.6765 49.8545 49.6765 45.6685V36.1142C49.6765 34.1821 50.4028 32.3413 51.7215 30.9304C52.3315 30.2778 53.3551 30.2434 54.0078 30.8534C54.6604 31.4634 54.6948 32.487 54.0848 33.1396C53.3282 33.949 52.9115 35.0054 52.9115 36.1142V45.6685C52.9115 48.0709 54.866 50.0252 57.2684 50.0252C58.4323 50.0252 59.5264 49.5721 60.3492 48.7491C60.9809 48.1176 62.0049 48.1176 62.6367 48.7491C63.2684 49.3809 63.2684 50.4048 62.6367 51.0367C61.2029 52.4707 59.2964 53.2602 57.2684 53.2602Z" fill="#49B1F7"/>
<path d="M41.9219 40.8373H36.0782C35.1849 40.8373 34.4607 40.1131 34.4607 39.2198C34.4607 38.3265 35.1849 37.6023 36.0782 37.6023H41.9219C42.8152 37.6023 43.5394 38.3265 43.5394 39.2198C43.5394 40.1131 42.8152 40.8373 41.9219 40.8373Z" fill="#3C58A0"/>
<path d="M32.2565 47.9198C31.6311 47.9198 31.1243 47.4129 31.1243 46.7876V45.623C31.1243 44.9977 31.6311 44.4908 32.2565 44.4908C32.8818 44.4908 33.3886 44.9977 33.3886 45.623V46.7876C33.3886 47.4129 32.8818 47.9198 32.2565 47.9198Z" fill="#3C58A0"/>
<path d="M35.984 47.9198C35.3587 47.9198 34.8518 47.4129 34.8518 46.7876V45.623C34.8518 44.9977 35.3587 44.4908 35.984 44.4908C36.6093 44.4908 37.1162 44.9977 37.1162 45.623V46.7876C37.1162 47.4129 36.6093 47.9198 35.984 47.9198Z" fill="#6289CC"/>
<path d="M42.0157 47.9198C41.3904 47.9198 40.8835 47.4129 40.8835 46.7876V45.623C40.8835 44.9977 41.3904 44.4908 42.0157 44.4908C42.641 44.4908 43.1479 44.9977 43.1479 45.623V46.7876C43.1479 47.4129 42.641 47.9198 42.0157 47.9198Z" fill="#3C58A0"/>
<path d="M45.7433 47.9198C45.118 47.9198 44.6111 47.4129 44.6111 46.7876V45.623C44.6111 44.9977 45.118 44.4908 45.7433 44.4908C46.3686 44.4908 46.8755 44.9977 46.8755 45.623V46.7876C46.8756 47.4129 46.3686 47.9198 45.7433 47.9198Z" fill="#6289CC"/>
<path d="M20.7314 53.2602C16.5453 53.2602 13.1396 49.8545 13.1396 45.6685V36.1142C13.1396 34.1821 13.8659 32.3412 15.1846 30.9304C15.7946 30.2778 16.8182 30.2434 17.4707 30.8534C18.1234 31.4634 18.1578 32.487 17.5478 33.1396C16.7912 33.949 16.3745 35.0053 16.3745 36.1142V45.6685C16.3745 48.0709 18.329 50.0252 20.7314 50.0252C21.8951 50.0252 22.9893 49.5721 23.8121 48.7491C24.4439 48.1176 25.4679 48.1176 26.0996 48.7491C26.7314 49.3809 26.7314 50.4049 26.0996 51.0367C24.6659 52.4707 22.7593 53.2602 20.7314 53.2602Z" fill="#FF4155"/>
<path d="M24.9558 51.5106C24.5417 51.5106 24.128 51.3526 23.812 51.0367C23.1805 50.405 23.1805 49.3809 23.8122 48.7493C24.635 47.9265 25.0883 46.8324 25.0883 45.6687V36.1143C25.0883 35.221 25.8125 34.4968 26.7058 34.4968C27.5991 34.4968 28.3233 35.221 28.3233 36.1143V45.6687C28.3233 47.6965 27.5336 49.6031 26.0997 51.0368C25.7838 51.3524 25.3697 51.5106 24.9558 51.5106Z" fill="#FF7186"/>
<path d="M16.3659 33.6527C15.9701 33.6527 15.5735 33.5083 15.2617 33.2169C14.6092 32.6069 14.5746 31.5833 15.1846 30.9306C16.6153 29.4002 18.637 28.5223 20.7313 28.5223C21.6246 28.5223 22.3489 29.2466 22.3489 30.1398C22.3489 31.0331 21.6246 31.7573 20.7313 31.7573C19.5117 31.7573 18.3812 32.2483 17.5478 33.1398C17.2295 33.4803 16.7982 33.6527 16.3659 33.6527Z" fill="#FF7186"/>
<path d="M22.5285 19.3712H16.5978C15.9725 19.3712 15.4656 18.8643 15.4656 18.239C15.4656 17.6137 15.9725 17.1068 16.5978 17.1068H22.5285C23.1539 17.1068 23.6607 17.6137 23.6607 18.239C23.6609 18.8643 23.1539 19.3712 22.5285 19.3712Z" fill="#F9A0B1"/>
<path d="M67.333 19.3712H61.4022C60.7769 19.3712 60.27 18.8643 60.27 18.239C60.27 17.6137 60.7769 17.1068 61.4022 17.1068H67.333C67.9583 17.1068 68.4652 17.6137 68.4652 18.239C68.4652 18.8643 67.9583 19.3712 67.333 19.3712Z" fill="#9BD8F9"/>
<path d="M51.7393 18.3498C51.0952 18.5702 50.5907 18.5659 50.2402 18.3373C49.774 18.0334 49.7149 17.4103 49.7144 17.4048L49.7102 17.3508L49.6825 17.3039C49.6054 17.1733 41.9474 4.21938 40.8607 2.52484C40.5768 2.08219 40.4905 1.68109 40.6041 1.33266C40.7866 0.772969 41.4316 0.483594 41.5269 0.443438L41.9919 0.329531C41.0285 0.114531 40.0274 0 38.9999 0C31.4415 0 25.2922 6.14922 25.2922 13.7077C25.2922 21.2661 31.4415 27.4153 38.9999 27.4153C44.9554 27.4153 50.035 23.5973 51.9221 18.2808C51.8599 18.3064 51.7988 18.3295 51.7393 18.3498Z" fill="#4F71B6"/>
<path d="M41.4543 0.220581C41.4436 0.224644 39.5696 0.946206 40.6634 2.65167C41.7603 4.36199 49.4809 17.4234 49.4809 17.4234C49.4809 17.4234 49.6304 19.3182 51.8151 18.572C52.391 17.0595 52.7076 15.4201 52.7076 13.7078C52.7076 6.98699 47.8456 1.38058 41.4543 0.220581Z" fill="#6289CC"/>
<path d="M40.1666 22.6872C39.7391 23.3891 39.8172 24.1472 40.5249 24.6903C41.5088 24.5555 42.4521 24.293 43.3366 23.9186L41.9219 22.4358H39.4849C39.6963 22.5278 39.9225 22.6125 40.1666 22.6872Z" fill="#BEC8F7"/>
<path d="M40.6633 24.6707C39.4149 23.8009 40.3215 22.631 40.3215 22.631C40.1157 22.5723 39.9215 22.5068 39.7382 22.4355H36.078L34.6633 23.9184C35.9961 24.4826 37.4615 24.7945 38.9997 24.7945C39.5652 24.7945 40.1207 24.752 40.6633 24.6707Z" fill="#A2B6F4"/>
<path d="M40.4959 2.62817C40.1907 2.87989 39.5198 3.59864 40.1262 4.6913C40.1262 4.6913 39.9046 4.74864 39.5732 4.88677H41.922L43.3367 3.40411C42.4434 3.02583 41.4904 2.76177 40.4959 2.62817Z" fill="#BEC8F7"/>
<path d="M40.6634 2.65162C40.1208 2.57021 39.5653 2.52771 39 2.52771C37.4617 2.52771 35.9962 2.83974 34.6636 3.40396L36.0783 4.88662H39.7687C40.1003 4.74865 40.3217 4.69115 40.3217 4.69115C39.733 3.63084 40.3478 2.92255 40.6634 2.65162Z" fill="#A2B6F4"/>
<path d="M46.7336 15.95L49.481 17.4233C49.9029 16.248 50.1333 14.9816 50.1333 13.6611C50.1333 12.3406 49.9029 11.0741 49.481 9.89893L46.7336 11.3722V15.95Z" fill="#E9EFFF"/>
<path d="M31.2664 15.95L28.519 17.4233C28.0972 16.248 27.8667 14.9816 27.8667 13.6611C27.8667 12.3406 28.0972 11.0741 28.519 9.89893L31.2664 11.3722V15.95Z" fill="#A2B6F4"/>
<path d="M49.4809 9.89902C48.4297 6.9709 46.1869 4.61058 43.3366 3.40417L41.9219 4.69152L42.5992 9.29449L46.9291 11.3725L49.4809 9.89902Z" fill="#D3DCFB"/>
<path d="M28.519 9.89902C29.5703 6.9709 31.8131 4.61058 34.6634 3.40417L36.0781 4.69152L35.6179 9.41996L31.0709 11.3725L28.519 9.89902Z" fill="#3C58A0"/>
<path d="M49.4809 17.4233C48.4297 20.3514 46.1869 22.7115 43.3366 23.9181L41.9219 22.6308L42.4473 17.9401L46.9291 15.9498L49.4809 17.4233Z" fill="#D3DCFB"/>
<path d="M28.519 17.4233C29.5703 20.3514 31.8131 22.7115 34.6634 23.9181L36.0781 22.6308L35.6262 17.8976L31.0709 15.9498L28.519 17.4233Z" fill="#3C58A0"/>
<path d="M39.0001 15.6241L36.6052 17.2035L36.671 17.2682C36.6358 17.497 36.5238 18.4301 36.8324 19.4965C37.1401 20.5596 37.9399 21.9418 39.9932 22.6307H41.9219L42.9646 18.2387L39.0001 15.6241Z" fill="#E9EFFF"/>
<path d="M36.7758 17.2343L36.6888 17.1487L35.0356 18.2388L36.0783 22.6309H40.3218C35.995 21.396 36.7758 17.2343 36.7758 17.2343Z" fill="#D3DCFB"/>
<path d="M41.9219 4.69141H40.1263C40.1263 4.69141 35.7492 5.82219 36.7406 10.1808C36.7431 10.1914 36.7449 10.2017 36.7472 10.2123L39 11.6981L42.9645 9.08344L41.9219 4.69141Z" fill="#E9EFFF"/>
<path d="M40.3218 4.69141H36.0783L35.0356 9.08344L36.9694 10.3587C36.9607 10.3003 36.9422 10.2422 36.9363 10.1808C36.5163 5.79906 40.3218 4.69141 40.3218 4.69141Z" fill="#D3DCFB"/>
<path d="M39 11.3722V15.95L42.9645 18.2389L46.9291 15.95V11.3722L42.9645 9.08325L39 11.3722Z" fill="#4F71B6"/>
<path d="M36.8722 10.144C36.3019 10.4514 35.5061 11.0745 35.5061 12.1615V15.6244C35.5061 15.6244 35.6763 16.7055 36.7106 17.2717L38.9999 15.9501V11.3723L36.8722 10.144Z" fill="#D3DCFB"/>
<path d="M36.936 10.1806L35.0353 9.08325L31.0708 11.3722V15.95L35.0353 18.2389L36.7755 17.2342C35.7996 16.659 35.6364 15.6242 35.6364 15.6242C35.6364 15.6242 35.6364 13.8551 35.6364 12.1614C35.6364 11.1161 36.3724 10.4997 36.936 10.1806Z" fill="#BEC8F7"/>
<path d="M26.7056 37.7317C25.8124 37.7317 25.0881 37.0075 25.0881 36.1142C25.0881 33.7119 23.1336 31.7573 20.7313 31.7573C19.838 31.7573 19.1138 31.0331 19.1138 30.1398C19.1138 29.2466 19.838 28.5223 20.7313 28.5223C24.9174 28.5223 28.3231 31.9281 28.3231 36.1142C28.3231 37.0075 27.5991 37.7317 26.7056 37.7317Z" fill="#F9A0B1"/>
<path d="M61.4932 51.5106C61.0791 51.5106 60.6652 51.3526 60.3494 51.0367C59.7178 50.405 59.7178 49.3809 60.3494 48.7493C61.1724 47.9265 61.6255 46.8324 61.6255 45.6687V36.1143C61.6255 35.221 62.3497 34.4968 63.243 34.4968C64.1363 34.4968 64.8605 35.221 64.8605 36.1143V45.6687C64.8605 47.6965 64.0708 49.6031 62.6369 51.0368C62.3211 51.3524 61.9071 51.5106 61.4932 51.5106Z" fill="#73C3F9"/>
<path d="M52.903 33.6527C52.5073 33.6527 52.1109 33.5083 51.7988 33.2169C51.1462 32.6069 51.1118 31.5833 51.7218 30.9306C53.1524 29.4002 55.1741 28.5223 57.2685 28.5223C58.1618 28.5223 58.886 29.2466 58.886 30.1398C58.886 31.0331 58.1618 31.7573 57.2685 31.7573C56.0488 31.7573 54.9184 32.2483 54.0849 33.1398C53.7666 33.4803 53.3354 33.6527 52.903 33.6527Z" fill="#73C3F9"/>
<path d="M63.243 37.7317C62.3497 37.7317 61.6255 37.0075 61.6255 36.1142C61.6255 33.7119 59.671 31.7573 57.2686 31.7573C56.3753 31.7573 55.6511 31.0331 55.6511 30.1398C55.6511 29.2466 56.3753 28.5223 57.2686 28.5223C61.4547 28.5223 64.8605 31.9281 64.8605 36.1142C64.8605 37.0075 64.1364 37.7317 63.243 37.7317Z" fill="#9BD8F9"/>
</svg>
