<svg width="18" height="24" viewBox="0 0 18 24" fill="none" xmlns="http://www.w3.org/2000/svg">
<g clip-path="url(#clip0)">
<path d="M17.3391 4.58911L13.4062 0.656299C12.9844 0.234424 12.4125 -0.00463867 11.8172 -0.00463867H2.25C1.00781 4.88283e-05 0 1.00786 0 2.25005V21.75C0 22.9922 1.00781 24 2.25 24H15.75C16.9922 24 18 22.9922 18 21.75V6.18286C18 5.58755 17.7609 5.01099 17.3391 4.58911ZM15.5672 6.00005H12V2.43286L15.5672 6.00005ZM2.25 21.75V2.25005H9.75V7.12505C9.75 7.74849 10.2516 8.25005 10.875 8.25005H15.75V21.75H2.25ZM13.9781 15.0141C13.4063 14.4516 11.775 14.6063 10.9594 14.7094C10.1531 14.2172 9.61406 13.5375 9.23438 12.5391C9.41719 11.7844 9.70781 10.636 9.4875 9.91411C9.29062 8.68599 7.71563 8.80786 7.49063 9.63755C7.28438 10.3922 7.47188 11.4422 7.81875 12.7829C7.35 13.9032 6.65156 15.4079 6.15937 16.2704C5.22187 16.7532 3.95625 17.4985 3.76875 18.436C3.61406 19.1766 4.9875 21.0235 7.33594 16.9735C8.38594 16.6266 9.52969 16.2 10.5422 16.0313C11.4281 16.5094 12.4641 16.8282 13.1578 16.8282C14.3531 16.8282 14.4703 15.5063 13.9781 15.0141ZM4.69219 18.661C4.93125 18.0188 5.84062 17.2782 6.11719 17.0204C5.22656 18.4407 4.69219 18.6938 4.69219 18.661ZM8.51719 9.72661C8.86406 9.72661 8.83125 11.2313 8.60156 11.6391C8.39531 10.9875 8.4 9.72661 8.51719 9.72661ZM7.37344 16.1297C7.82812 15.3375 8.21719 14.3954 8.53125 13.5657C8.92031 14.2735 9.41719 14.8407 9.94219 15.2297C8.96719 15.4313 8.11875 15.8438 7.37344 16.1297ZM13.5422 15.8954C13.5422 15.8954 13.3078 16.1766 11.7938 15.5297C13.4391 15.4079 13.7109 15.7829 13.5422 15.8954Z" fill="#DC6060"/>
</g>
<defs>
<clipPath id="clip0">
<rect width="18" height="24" fill="white"/>
</clipPath>
</defs>
</svg>
