<svg width="140" height="140" viewBox="0 0 140 140" fill="none" xmlns="http://www.w3.org/2000/svg">
<circle cx="70" cy="70" r="70" fill="#60B15A"/>
<circle cx="70" cy="70" r="60" fill="#EEF5ED"/>
<g filter="url(#filter0_d)">
<circle cx="70" cy="70" r="50" fill="white"/>
</g>
<g clip-path="url(#clip0)">
<path d="M69.2268 38.5469C59.7721 38.5469 52.0977 46.164 52.0023 55.5961L52.0303 56.7831C52.0899 57.8147 52.2403 58.8219 52.4737 59.797L65.197 72.5251C66.1731 72.7591 67.1814 72.9099 68.2142 72.9698L69.3962 72.9981C78.8321 72.907 86.4535 65.231 86.4535 55.7736C86.4535 46.2595 78.7408 38.5469 69.2268 38.5469Z" fill="#75CA6E"/>
<path d="M67.3698 70.413L67.3701 70.4105L67.3164 70.3753C66.7426 69.9988 66.401 69.5342 66.301 68.9944C66.1286 68.0642 66.7343 67.2086 66.7404 67.2001L66.756 67.1783L68.0105 57.4783C67.9262 57.399 67.8425 57.3186 67.7601 57.2361C63.3782 52.8543 63.3782 45.7498 67.7601 41.368L66.9952 40.603L52.0023 55.596C52.0016 55.6552 52 55.7142 52 55.7735C52 56.1126 52.0109 56.4489 52.0302 56.7831L54.4533 57.4396C54.5856 57.4755 54.6297 57.6409 54.5328 57.7378L52.4736 59.7969C52.8892 61.5341 53.5685 63.1688 54.4661 64.6569L60.3381 70.531C61.8258 71.4289 63.46 72.1087 65.1969 72.525L67.2585 70.4634C67.2905 70.4315 67.33 70.4162 67.3698 70.413Z" fill="#73C3F9"/>
<path d="M67.5566 70.5426L68.2141 72.9695C68.5492 72.9889 68.8867 72.9999 69.2267 72.9999C69.2834 72.9999 69.3396 72.9982 69.3962 72.9978L84.3931 58.0008L83.6282 57.2358C79.2978 61.5663 72.3087 61.6165 67.9158 57.3878L66.6547 67.1381C66.6547 67.1381 65.22 69.1254 67.2584 70.4631C67.3554 70.3662 67.5208 70.4103 67.5566 70.5426Z" fill="#9BD8F9"/>
<path d="M83.662 55.443C83.8763 56.3254 84.5297 56.8566 85.507 56.7281C86.1705 55.8539 86.7023 54.9118 87.1009 53.9282L84.8369 53.875L82.9327 55.7792C83.1701 55.6859 83.413 55.5752 83.662 55.443Z" fill="#BEC8F7"/>
<path d="M85.6002 56.6044C83.9451 56.9002 83.7394 55.2778 83.7394 55.2778C83.5327 55.3928 83.3299 55.4933 83.1309 55.5809L80.2711 58.4407L80.3243 60.7046C81.8064 60.1041 83.1952 59.2029 84.3972 58.0009C84.8389 57.5591 85.2397 57.092 85.6002 56.6044Z" fill="#A2B6F4"/>
<path d="M68.2463 39.5128C68.2046 39.9479 68.2419 41.0338 69.5695 41.4136C69.5695 41.4136 69.4413 41.6315 69.2901 41.9984L71.1252 40.1633L71.072 37.8994C70.0786 38.302 69.1276 38.8402 68.2463 39.5128Z" fill="#BEC8F7"/>
<path d="M68.3958 39.3999C67.9082 39.7604 67.441 40.1611 66.9993 40.6029C65.7974 41.8048 64.8962 43.1936 64.2957 44.6758L66.5596 44.729L69.443 41.8455C69.5942 41.4786 69.7224 41.2607 69.7224 41.2607C68.4339 40.8921 68.3608 39.8583 68.3958 39.3999Z" fill="#A2B6F4"/>
<path d="M83.5291 45.0481L86.827 44.0526C86.2384 42.8046 85.4289 41.635 84.3971 40.6032C83.3654 39.5714 82.1957 38.7619 80.9478 38.1733L79.9523 41.4712L83.5291 45.0481Z" fill="#E9EFFF"/>
<path d="M80.9476 38.173C77.8384 36.7065 74.2417 36.6148 71.0719 37.8992L70.9724 40.0104L75.0982 43.0777L80.1049 41.3183L80.9476 38.173Z" fill="#D3DCFB"/>
<path d="M86.8269 44.0522C88.2934 47.1615 88.3851 50.7581 87.1008 53.9279L84.9896 54.0274L81.7352 49.9518L83.6818 44.8949L86.8269 44.0522Z" fill="#D3DCFB"/>
<path d="M70.9723 40.0103L69.5693 41.4133C69.5693 41.4133 67.0328 45.7167 71.213 48.3476C71.2232 48.354 71.2327 48.3607 71.2428 48.3672L74.164 47.7678L75.2188 42.6273L70.9723 40.0103Z" fill="#E9EFFF"/>
<path d="M67.76 57.2362C66.1329 55.6091 65.1106 53.6065 64.6919 51.5073L57.8578 58.3413C57.7639 58.4353 57.802 58.5953 57.9282 58.6368L59.5735 59.1776C59.6997 59.2191 59.7379 59.3791 59.6439 59.473L54.463 64.6539C54.9803 65.512 55.5716 66.3203 56.2257 67.0724L57.9243 68.7714C58.6759 69.4255 59.4836 70.0167 60.3412 70.5341L65.5231 65.3522C65.617 65.2583 65.7771 65.2964 65.8186 65.4226L66.3593 67.0679C66.4008 67.1941 66.5608 67.2322 66.6548 67.1383L73.4888 60.3043C71.3897 59.8856 69.3871 58.8633 67.76 57.2362Z" fill="#49B1F7"/>
<path d="M60.9414 62.3125L56.2039 67.05C56.7424 67.6714 57.3246 68.2538 57.9458 68.7924L62.6836 64.0547C63.1627 63.5755 63.1627 62.7916 62.6836 62.3125C62.2045 61.8333 61.4205 61.8333 60.9414 62.3125Z" fill="#1E9EF4"/>
<path d="M71.444 57.1329L70.4485 60.4308C69.2005 59.8422 68.0308 59.0327 66.9991 58.001C65.9673 56.9692 65.1578 55.7995 64.5692 54.5516L67.8671 53.5562L71.444 57.1329Z" fill="#A2B6F4"/>
<path d="M64.5693 54.5514C63.1028 51.4421 63.0111 47.8456 64.2954 44.6757L66.4066 44.5762L69.7417 48.6302L67.7144 53.7086L64.5693 54.5514Z" fill="#3C58A0"/>
<path d="M70.4486 60.4306C73.5579 61.8971 77.1545 61.9888 80.3243 60.7044L80.4238 58.5932L76.3725 55.248L71.2913 57.2854L70.4486 60.4306Z" fill="#3C58A0"/>
<path d="M77.2321 50.8355L76.595 53.9407L76.6969 53.9399C76.8481 54.1461 77.4897 54.9628 78.564 55.555C79.6351 56.1453 81.34 56.6002 83.4826 55.5342L84.9897 54.0272L82.3727 49.7808L77.2321 50.8355Z" fill="#E9EFFF"/>
<path d="M76.752 53.832L76.6172 53.8332L76.1774 55.9766L80.4238 58.5936L83.7394 55.2781C79.3937 57.6938 76.752 53.832 76.752 53.832Z" fill="#D3DCFB"/>
<path d="M69.7221 41.2607L66.4065 44.5763L69.0235 48.8228L71.531 48.3083C71.4784 48.2694 71.4186 48.2386 71.3659 48.1951C67.614 45.0997 69.7221 41.2607 69.7221 41.2607Z" fill="#D3DCFB"/>
<path d="M73.9097 47.5137L77.4865 51.0905L82.3726 49.7813L83.6818 44.8952L80.105 41.3184L75.2189 42.6276L73.9097 47.5137Z" fill="#4F71B6"/>
<path d="M71.2873 48.2158C71.0818 48.9015 70.9469 50.0102 71.7963 50.8596C73.1198 52.1831 74.502 53.5653 74.502 53.5653C74.502 53.5653 75.4797 54.277 76.7304 53.9113L77.4863 51.0901L73.9094 47.5132L71.2873 48.2158Z" fill="#D3DCFB"/>
<path d="M71.3661 48.1953L69.0237 48.8229L67.7145 53.709L71.2914 57.2859L76.1774 55.9767L76.752 53.8321C75.5401 54.1452 74.6041 53.464 74.6041 53.464C74.6041 53.464 73.2219 52.0818 71.8984 50.7583C71.0817 49.9416 71.1751 48.885 71.3661 48.1953Z" fill="#BEC8F7"/>
<path d="M53.1113 49.6782C53.4879 49.8945 53.8784 49.966 54.2381 49.9608C54.9477 49.9504 55.6174 49.6309 56.099 49.1096C57.2889 47.8214 60.7064 44.1338 62.336 42.5042C63.2031 41.6372 63.3774 40.5482 63.298 39.5947C58.6095 41.3135 54.8767 45.0122 53.1113 49.6782Z" fill="#60B15A"/>
<path d="M75.3218 71.8885C75.1054 71.512 75.0339 71.1214 75.0392 70.7617C75.0496 70.0521 75.369 69.3824 75.8904 68.9008C77.1786 67.7109 80.8661 64.2934 82.4958 62.6638C83.3628 61.7967 84.4517 61.6224 85.4052 61.7018C83.6864 66.3903 79.9877 70.1231 75.3218 71.8885Z" fill="#60B15A"/>
</g>
<path d="M60.94 88.48C60.94 89.2933 60.7533 90.04 60.38 90.72C60.0067 91.3867 59.4333 91.9267 58.66 92.34C57.8867 92.7533 56.9267 92.96 55.78 92.96H53.66V98H50.24V83.96H55.78C56.9 83.96 57.8467 84.1533 58.62 84.54C59.3933 84.9267 59.9733 85.46 60.36 86.14C60.7467 86.82 60.94 87.6 60.94 88.48ZM55.52 90.24C56.1733 90.24 56.66 90.0867 56.98 89.78C57.3 89.4733 57.46 89.04 57.46 88.48C57.46 87.92 57.3 87.4867 56.98 87.18C56.66 86.8733 56.1733 86.72 55.52 86.72H53.66V90.24H55.52ZM69.8805 98L66.9605 92.7H66.1405V98H62.7205V83.96H68.4605C69.5671 83.96 70.5071 84.1533 71.2805 84.54C72.0671 84.9267 72.6538 85.46 73.0405 86.14C73.4271 86.8067 73.6205 87.5533 73.6205 88.38C73.6205 89.3133 73.3538 90.1467 72.8205 90.88C72.3005 91.6133 71.5271 92.1333 70.5005 92.44L73.7405 98H69.8805ZM66.1405 90.28H68.2605C68.8871 90.28 69.3538 90.1267 69.6605 89.82C69.9805 89.5133 70.1405 89.08 70.1405 88.52C70.1405 87.9867 69.9805 87.5667 69.6605 87.26C69.3538 86.9533 68.8871 86.8 68.2605 86.8H66.1405V90.28ZM82.4073 98.14C81.0873 98.14 79.874 97.8333 78.7673 97.22C77.674 96.6067 76.8007 95.7533 76.1473 94.66C75.5073 93.5533 75.1873 92.3133 75.1873 90.94C75.1873 89.5667 75.5073 88.3333 76.1473 87.24C76.8007 86.1467 77.674 85.2933 78.7673 84.68C79.874 84.0667 81.0873 83.76 82.4073 83.76C83.7273 83.76 84.934 84.0667 86.0273 84.68C87.134 85.2933 88.0007 86.1467 88.6273 87.24C89.2673 88.3333 89.5873 89.5667 89.5873 90.94C89.5873 92.3133 89.2673 93.5533 88.6273 94.66C87.9873 95.7533 87.1207 96.6067 86.0273 97.22C84.934 97.8333 83.7273 98.14 82.4073 98.14ZM82.4073 95.02C83.5273 95.02 84.4207 94.6467 85.0873 93.9C85.7673 93.1533 86.1073 92.1667 86.1073 90.94C86.1073 89.7 85.7673 88.7133 85.0873 87.98C84.4207 87.2333 83.5273 86.86 82.4073 86.86C81.274 86.86 80.3673 87.2267 79.6873 87.96C79.0207 88.6933 78.6873 89.6867 78.6873 90.94C78.6873 92.18 79.0207 93.1733 79.6873 93.92C80.3673 94.6533 81.274 95.02 82.4073 95.02Z" fill="#60B15A"/>
<defs>
<filter id="filter0_d" x="10" y="10" width="120" height="120" filterUnits="userSpaceOnUse" color-interpolation-filters="sRGB">
<feFlood flood-opacity="0" result="BackgroundImageFix"/>
<feColorMatrix in="SourceAlpha" type="matrix" values="0 0 0 0 0 0 0 0 0 0 0 0 0 0 0 0 0 0 127 0"/>
<feOffset/>
<feGaussianBlur stdDeviation="5"/>
<feColorMatrix type="matrix" values="0 0 0 0 0 0 0 0 0 0 0 0 0 0 0 0 0 0 0.07 0"/>
<feBlend mode="normal" in2="BackgroundImageFix" result="effect1_dropShadow"/>
<feBlend mode="normal" in="SourceGraphic" in2="effect1_dropShadow" result="shape"/>
</filter>
<clipPath id="clip0">
<rect width="36" height="36" fill="white" transform="translate(52 37)"/>
</clipPath>
</defs>
</svg>
