<svg width="78" height="80" viewBox="0 0 78 80" fill="none" xmlns="http://www.w3.org/2000/svg">
<path d="M75.2934 53.9251C76.5823 50.0912 77.2816 45.9865 77.2816 41.7182C77.2816 20.5759 60.1424 3.43665 39.0001 3.43665C17.8577 3.43665 0.718506 20.5759 0.718506 41.7182C0.718506 45.9865 1.41788 50.0912 2.70679 53.9251H75.2934Z" fill="#73C3F9"/>
<path d="M71.3163 2.38818H29.9846L30.5262 12.2229C30.5262 12.2229 29.1963 13.1972 30.1157 14.5544V24.088L30.9368 28.8204C30.9368 28.8204 24.1287 37.6877 30.9368 45.8855C30.9368 45.8855 29.4238 49.7005 29.4238 52.9296C29.4238 56.1588 30.9368 59.5413 30.9368 59.5413C30.9368 59.5413 23.7291 66.4619 30.9368 76.6097L30.1571 78.9635L31.6395 79.2921C34.0215 79.7563 36.4823 80.0001 38.9999 80.0001C41.5176 80.0001 43.9784 79.7563 46.3602 79.2924L48.2677 78.8696C60.0909 75.9293 69.7413 67.493 74.3506 56.4296V5.4224C74.3507 3.74662 72.9921 2.38818 71.3163 2.38818Z" fill="#92C357"/>
<path d="M3.64917 5.4224V56.4296C8.25839 67.4929 17.9087 75.929 29.7315 78.8694L30.4482 79.0283L31.2493 76.61C24.0417 66.4621 31.2493 59.5416 31.2493 59.5416C31.2493 59.5416 29.7364 56.1591 29.7364 52.9299C29.7364 49.7007 31.2493 45.8858 31.2493 45.8858C24.4412 37.688 31.2493 28.8207 31.2493 28.8207L30.4282 24.0883V14.5544C29.5089 13.1972 30.8387 12.2229 30.8387 12.2229L30.2971 2.38818H6.68354C5.00776 2.38818 3.64917 3.74662 3.64917 5.4224Z" fill="#6FAF46"/>
<path d="M54.2083 22.7568H23.7919C22.4848 22.7568 21.4214 21.6935 21.4214 20.3863V2.86566C21.4214 2.34503 21.8434 1.92316 22.3639 1.92316C22.8844 1.92316 23.3064 2.34503 23.3064 2.86566V20.3863C23.3064 20.6539 23.5242 20.8718 23.7919 20.8718H54.2083C54.4759 20.8718 54.6937 20.6541 54.6937 20.3863V2.74707C54.6937 2.22644 55.1158 1.80457 55.6362 1.80457C56.1569 1.80457 56.5787 2.22644 56.5787 2.74707V20.3863C56.5787 21.6935 55.5154 22.7568 54.2083 22.7568Z" fill="#D3DCFB"/>
<path d="M47.1614 12.2227H30.8389C29.8652 12.2227 29.073 11.4305 29.073 10.4568V2.74707C29.073 2.22644 29.495 1.80457 30.0155 1.80457C30.5361 1.80457 30.958 2.22644 30.958 2.74707V10.3377H47.0424V2.7766C47.0424 2.25597 47.4643 1.8341 47.9849 1.8341C48.5055 1.8341 48.9274 2.25597 48.9274 2.7766V10.4568C48.9274 11.4305 48.1352 12.2227 47.1614 12.2227Z" fill="#E9EFFF"/>
<path d="M38.9998 32.3272C33.3014 32.3272 28.6653 27.6911 28.6653 21.9927C28.6653 21.472 29.0873 21.0502 29.6078 21.0502C30.1284 21.0502 30.5503 21.472 30.5503 21.9927C30.5503 26.6519 34.3408 30.4422 38.9998 30.4422C43.6589 30.4422 47.4494 26.6517 47.4494 21.9927C47.4494 21.472 47.8714 21.0502 48.3919 21.0502C48.9123 21.0502 49.3344 21.472 49.3344 21.9927C49.3344 27.6911 44.6983 32.3272 38.9998 32.3272Z" fill="#E9EFFF"/>
<path d="M74.0315 53.656H3.96838C3.44775 53.656 3.02588 53.2341 3.02588 52.7135C3.02588 52.1929 3.44791 51.771 3.96838 51.771H74.0317C74.5523 51.771 74.9742 52.1929 74.9742 52.7135C74.9742 53.2341 74.5521 53.656 74.0315 53.656Z" fill="#D3DCFB"/>
<path d="M38.9998 63.0479C33.3014 63.0479 28.6653 58.412 28.6653 52.7136C28.6653 47.0151 33.3014 42.379 38.9998 42.379C44.6983 42.379 49.3344 47.0151 49.3344 52.7136C49.3344 58.412 44.6983 63.0479 38.9998 63.0479ZM38.9998 44.264C34.3408 44.264 30.5503 48.0545 30.5503 52.7134C30.5503 57.3725 34.3408 61.1628 38.9998 61.1628C43.6589 61.1628 47.4494 57.3723 47.4494 52.7134C47.4494 48.0543 43.6589 44.264 38.9998 44.264Z" fill="#E9EFFF"/>
<path d="M38.9999 73.1001C34.9396 73.1001 31.4204 75.4548 29.7314 78.8695C30.3614 79.0262 30.9975 79.1674 31.6396 79.2924C33.0908 76.724 35.8454 74.9851 38.9999 74.9851C42.1544 74.9851 44.9089 76.724 46.3602 79.2924C47.0021 79.1674 47.6382 79.0262 48.2683 78.8695C46.5794 75.4548 43.0602 73.1001 38.9999 73.1001Z" fill="#E9EFFF"/>
<path d="M73.7275 9.26688C70.4762 9.26688 67.8311 6.62173 67.8311 3.37048C67.8311 2.84985 68.2529 2.42798 68.7736 2.42798C69.2942 2.42798 69.7161 2.84985 69.7161 3.37048C69.7161 5.58235 71.5156 7.38189 73.7275 7.38189C74.2481 7.38189 74.67 7.80392 74.67 8.32439C74.67 8.84485 74.2481 9.26688 73.7275 9.26688Z" fill="#D3DCFB"/>
<path d="M4.45739 9.26688C3.93677 9.26688 3.51489 8.84501 3.51489 8.32439C3.51489 7.80376 3.93692 7.38189 4.45739 7.38189C6.66927 7.38189 8.4688 5.58235 8.4688 3.37048C8.4688 2.84985 8.89067 2.42798 9.4113 2.42798C9.93192 2.42798 10.3538 2.84985 10.3538 3.37048C10.3536 6.62173 7.70864 9.26688 4.45739 9.26688Z" fill="#D3DCFB"/>
<path d="M39.2475 17.2552H38.7533C38.2327 17.2552 37.8108 16.8334 37.8108 16.3127C37.8108 15.7921 38.2327 15.3702 38.7533 15.3702H39.2475C39.7681 15.3702 40.19 15.7923 40.19 16.3127C40.19 16.8332 39.768 17.2552 39.2475 17.2552Z" fill="#E9EFFF"/>
<path d="M39.0001 55.0259C38.4795 55.0259 38.0576 54.6041 38.0576 54.0834V51.3131C38.0576 50.7925 38.4795 50.3706 39.0001 50.3706C39.5207 50.3706 39.9426 50.7925 39.9426 51.3131V54.0834C39.9426 54.6041 39.5207 55.0259 39.0001 55.0259Z" fill="#D3DCFB"/>
<path d="M75.2934 53.9253V5.42231C75.2934 3.2295 73.5094 1.44543 71.3166 1.44543H6.68375C4.49094 1.44543 2.70703 3.2295 2.70703 5.42231V53.9253C3.2375 55.5033 3.86906 57.0345 4.59203 58.5129V5.42231C4.59203 4.26887 5.53031 3.33043 6.68375 3.33043H71.3167C72.4702 3.33043 73.4085 4.26887 73.4085 5.42231V58.5129C74.1314 57.0345 74.763 55.5033 75.2934 53.9253Z" fill="#E9EFFF"/>
<path d="M39.2695 5.98219C39.2695 5.98219 40.0067 2.20641 39.2695 1.46922C38.575 0.774687 39.1887 0.0851562 39.2623 0.0075C39.1756 0.0028125 39.0882 0 39.0003 0C36.3676 0 34.2334 2.13406 34.2334 4.76672C34.2334 6.03187 34.7271 7.18094 35.5312 8.03422H42.0746L39.2695 5.98219Z" fill="#3C58A0"/>
<path d="M39.0002 1.46922C39.7374 2.20641 39.0002 5.98219 39.0002 5.98219L41.8054 8.03437H42.4693C43.2734 7.18109 43.7671 6.03187 43.7671 4.76687C43.7671 2.13406 41.6329 0 39.0002 0C39.0002 0 38.2631 0.732031 39.0002 1.46922Z" fill="#4F71B6"/>
<path d="M41.0432 4.05125C41.3088 2.92788 40.6134 1.80195 39.49 1.53641C38.3667 1.27087 37.2407 1.96627 36.9752 3.08963C36.7096 4.21299 37.405 5.33892 38.5284 5.60447C39.6518 5.87001 40.7777 5.17461 41.0432 4.05125Z" fill="#FFC7AB"/>
<path d="M42.4138 7.76725C42.3784 7.59585 42.3481 7.42319 42.3277 7.24913C42.2882 6.91085 42.1107 6.12147 41.3116 5.8646C40.4435 5.58553 39.4405 5.466 38.4416 5.53475C37.899 5.8435 37.1733 6.4121 37.1733 7.24444V9.16882C37.736 9.40288 38.3526 9.53366 39.0001 9.53366C40.3676 9.53366 41.5998 8.95694 42.469 8.03429L42.4138 7.76725Z" fill="#FFDD40"/>
<path d="M36.6885 5.86471C35.8894 6.12158 35.7119 6.91096 35.6724 7.24924C35.6521 7.42314 35.6218 7.5958 35.5863 7.76736L35.531 8.03455C36.0534 8.58893 36.7074 9.01705 37.4426 9.27158C37.4426 8.73424 37.4426 7.97455 37.4426 7.24455C37.4426 6.3983 38.1923 5.82518 38.7376 5.52002C38.0435 5.54221 37.3449 5.65377 36.6885 5.86471Z" fill="#FFB332"/>
<path d="M13.5547 20.5365C13.5547 20.5365 14.2919 16.7607 13.5547 16.0235C12.8602 15.329 13.4741 14.6395 13.5475 14.5618C13.4608 14.5571 13.3735 14.5543 13.2855 14.5543C10.6529 14.5543 8.5188 16.6885 8.5188 19.321C8.5188 20.5862 9.01255 21.7353 9.81661 22.5885H16.3601L13.5547 20.5365Z" fill="#3C58A0"/>
<path d="M13.2852 16.0237C14.0223 16.7609 13.2852 20.5367 13.2852 20.5367L16.0903 22.5889H16.7542C17.5583 21.7356 18.052 20.5864 18.052 19.3214C18.052 16.6887 15.9178 14.5547 13.2852 14.5547C13.2852 14.5545 12.548 15.2866 13.2852 16.0237Z" fill="#4F71B6"/>
<path d="M15.3186 18.6031C15.5842 17.4798 14.8888 16.3538 13.7654 16.0883C12.6421 15.8228 11.5161 16.5182 11.2506 17.6415C10.985 18.7649 11.6804 19.8908 12.8038 20.1563C13.9272 20.4219 15.0531 19.7265 15.3186 18.6031Z" fill="#FFC7AB"/>
<path d="M16.6992 22.3214C16.6637 22.15 16.6334 21.9773 16.6131 21.8033C16.5736 21.465 16.3961 20.6756 15.597 20.4187C14.7289 20.1397 13.7259 20.0203 12.727 20.0889C12.1844 20.3976 11.4587 20.9662 11.4587 21.7986V23.723C12.0214 23.957 12.638 24.0878 13.2855 24.0878C14.6531 24.0878 15.8851 23.5111 16.7544 22.5884L16.6992 22.3214Z" fill="#FF7186"/>
<path d="M10.9739 20.4188C10.1748 20.6757 9.99734 21.4652 9.95781 21.8033C9.9375 21.9772 9.90719 22.1499 9.87172 22.3214L9.81641 22.5886C10.3387 23.143 10.9928 23.5711 11.728 23.8257C11.728 23.2883 11.728 22.5285 11.728 21.7986C11.728 20.9524 12.4777 20.3793 13.023 20.0741C12.3291 20.0963 11.6305 20.2077 10.9739 20.4188Z" fill="#FF4155"/>
<path d="M30.6977 20.5365C30.6977 20.5365 31.4349 16.7607 30.6977 16.0235C30.0032 15.329 30.6169 14.6395 30.6905 14.5618C30.6038 14.5571 30.5165 14.5543 30.4285 14.5543C27.7958 14.5543 25.6616 16.6885 25.6616 19.321C25.6616 20.5862 26.1554 21.7353 26.9594 22.5885H33.5029L30.6977 20.5365Z" fill="#3C58A0"/>
<path d="M30.4282 16.0237C31.1654 16.7609 30.4282 20.5367 30.4282 20.5367L33.2334 22.5889H33.8973C34.7013 21.7356 35.1951 20.5864 35.1951 19.3214C35.1951 16.6887 33.0609 14.5547 30.4282 14.5547C30.4282 14.5545 29.691 15.2866 30.4282 16.0237Z" fill="#4F71B6"/>
<path d="M32.4658 18.6074C32.7314 17.484 32.036 16.3581 30.9126 16.0926C29.7893 15.827 28.6633 16.5224 28.3978 17.6458C28.1323 18.7691 28.8277 19.8951 29.951 20.1606C31.0744 20.4262 32.2003 19.7308 32.4658 18.6074Z" fill="#FFC7AB"/>
<path d="M33.8423 22.3214C33.8068 22.15 33.7765 21.9773 33.7562 21.8033C33.7167 21.465 33.5392 20.6756 32.7401 20.4187C31.8721 20.1397 30.869 20.0203 29.8701 20.0889C29.3274 20.3976 28.6018 20.9662 28.6018 21.7986V23.723C29.1645 23.957 29.781 24.0878 30.4285 24.0878C31.796 24.0878 33.0282 23.5111 33.8974 22.5884L33.8423 22.3214Z" fill="#FF7186"/>
<path d="M28.1167 20.4188C27.3177 20.6757 27.1402 21.4652 27.1006 21.8033C27.0803 21.9772 27.05 22.1499 27.0145 22.3214L26.9592 22.5886C27.4816 23.143 28.1356 23.5711 28.8708 23.8257C28.8708 23.2883 28.8708 22.5285 28.8708 21.7986C28.8708 20.9524 29.6205 20.3793 30.1656 20.0741C29.4717 20.0963 28.7733 20.2077 28.1167 20.4188Z" fill="#FF4155"/>
<path d="M47.8411 20.5365C47.8411 20.5365 48.5783 16.7607 47.8411 16.0235C47.1466 15.329 47.7603 14.6395 47.8339 14.5618C47.7472 14.5571 47.6599 14.5543 47.5719 14.5543C44.9392 14.5543 42.8052 16.6885 42.8052 19.321C42.8052 20.5862 43.2989 21.7353 44.103 22.5885H50.6464L47.8411 20.5365Z" fill="#3C58A0"/>
<path d="M47.5715 16.0237C48.3087 16.7609 47.5715 20.5367 47.5715 20.5367L50.3767 22.5889H51.0406C51.8447 21.7356 52.3384 20.5864 52.3384 19.3214C52.3384 16.6887 50.2042 14.5547 47.5715 14.5547C47.5715 14.5545 46.8343 15.2866 47.5715 16.0237Z" fill="#4F71B6"/>
<path d="M49.6135 18.6117C49.8791 17.4883 49.1837 16.3624 48.0603 16.0968C46.937 15.8313 45.811 16.5267 45.5455 17.6501C45.28 18.7734 45.9754 19.8993 47.0987 20.1649C48.2221 20.4304 49.348 19.735 49.6135 18.6117Z" fill="#FFC7AB"/>
<path d="M50.9856 22.3214C50.9501 22.15 50.9198 21.9773 50.8995 21.8033C50.86 21.465 50.6825 20.6756 49.8834 20.4187C49.0153 20.1397 48.0123 20.0203 47.0134 20.0889C46.4707 20.3976 45.7451 20.9662 45.7451 21.7986V23.723C46.3078 23.957 46.9243 24.0878 47.5718 24.0878C48.9395 24.0878 50.1715 23.5111 51.0409 22.5884L50.9856 22.3214Z" fill="#FF7186"/>
<path d="M45.2603 20.4188C44.4612 20.6757 44.2837 21.4652 44.2442 21.8033C44.2239 21.9772 44.1936 22.1499 44.1581 22.3214L44.1028 22.5886C44.6251 23.143 45.2792 23.5711 46.0143 23.8257C46.0143 23.2883 46.0143 22.5285 46.0143 21.7986C46.0143 20.9524 46.764 20.3793 47.3093 20.0741C46.6153 20.0963 45.9168 20.2077 45.2603 20.4188Z" fill="#FF4155"/>
<path d="M64.9843 20.5365C64.9843 20.5365 65.7215 16.7607 64.9843 16.0235C64.2898 15.329 64.9037 14.6395 64.9771 14.5618C64.8904 14.5571 64.8031 14.5543 64.7151 14.5543C62.0825 14.5543 59.9482 16.6885 59.9482 19.321C59.9482 20.5862 60.442 21.7353 61.2461 22.5885H67.7895L64.9843 20.5365Z" fill="#3C58A0"/>
<path d="M64.7148 16.0237C65.452 16.7609 64.7148 20.5367 64.7148 20.5367L67.52 22.5889H68.1839C68.988 21.7356 69.4817 20.5864 69.4817 19.3214C69.4817 16.6887 67.3475 14.5547 64.7148 14.5547C64.7148 14.5545 63.9777 15.2866 64.7148 16.0237Z" fill="#4F71B6"/>
<path d="M65.5295 20.0273C66.5962 19.5851 67.1026 18.3618 66.6604 17.295C66.2182 16.2282 64.995 15.7219 63.9282 16.1641C62.8614 16.6063 62.355 17.8295 62.7972 18.8963C63.2394 19.9631 64.4627 20.4694 65.5295 20.0273Z" fill="#FFC7AB"/>
<path d="M68.1289 22.3214C68.0934 22.15 68.0631 21.9773 68.0428 21.8033C68.0033 21.465 67.8258 20.6756 67.0267 20.4187C66.1586 20.1397 65.1556 20.0203 64.1567 20.0889C63.6141 20.3976 62.8884 20.9662 62.8884 21.7986V23.723C63.4511 23.957 64.0676 24.0878 64.7151 24.0878C66.0826 24.0878 67.3148 23.5111 68.1841 22.5884L68.1289 22.3214Z" fill="#FF7186"/>
<path d="M62.4034 20.4188C61.6043 20.6757 61.4268 21.4652 61.3873 21.8033C61.3669 21.9772 61.3366 22.1499 61.3012 22.3214L61.2458 22.5886C61.7682 23.143 62.4223 23.5711 63.1574 23.8257C63.1574 23.2883 63.1574 22.5285 63.1574 21.7986C63.1574 20.9524 63.9071 20.3793 64.4523 20.0741C63.7583 20.0963 63.0598 20.2077 62.4034 20.4188Z" fill="#FF4155"/>
<path d="M22.1258 34.1491C22.1258 34.1491 22.863 30.3733 22.1258 29.6361C21.4312 28.9416 22.045 28.252 22.1186 28.1744C22.0319 28.1697 21.9445 28.1669 21.8566 28.1669C19.2239 28.1669 17.0898 30.3011 17.0898 32.9337C17.0898 34.1987 17.5836 35.348 18.3877 36.2012H24.9311L22.1258 34.1491Z" fill="#3C58A0"/>
<path d="M21.8564 29.6361C22.5936 30.3733 21.8564 34.1491 21.8564 34.1491L24.6616 36.2012H25.3255C26.1296 35.348 26.6233 34.1987 26.6233 32.9337C26.6233 30.3011 24.4891 28.1669 21.8564 28.1669C21.8564 28.1669 21.1193 28.8989 21.8564 29.6361Z" fill="#4F71B6"/>
<path d="M23.8885 32.2206C24.154 31.0972 23.4586 29.9713 22.3352 29.7057C21.2119 29.4402 20.086 30.1356 19.8204 31.2589C19.5549 32.3823 20.2503 33.5082 21.3736 33.7738C22.497 34.0393 23.6229 33.3439 23.8885 32.2206Z" fill="#FFC7AB"/>
<path d="M25.2703 35.9339C25.2348 35.7625 25.2045 35.5899 25.1842 35.4158C25.1446 35.0775 24.9671 34.2882 24.1681 34.0313C23.2999 33.7522 22.297 33.6329 21.2981 33.7014C20.7554 34.0102 20.0298 34.5788 20.0298 35.4111V37.3355C20.5924 37.5696 21.209 37.7003 21.8565 37.7003C23.2242 37.7003 24.4562 37.1236 25.3254 36.201L25.2703 35.9339Z" fill="#FF7186"/>
<path d="M19.5449 34.0316C18.7459 34.2885 18.5684 35.078 18.5289 35.4161C18.5085 35.59 18.4782 35.7627 18.4428 35.9342L18.3875 36.2014C18.9098 36.7558 19.5639 37.1839 20.299 37.4384C20.299 36.9011 20.299 36.1413 20.299 35.4114C20.299 34.5652 21.0487 33.992 21.594 33.6869C20.8999 33.7091 20.2013 33.8206 19.5449 34.0316Z" fill="#FF4155"/>
<path d="M39.2691 34.1491C39.2691 34.1491 40.0063 30.3733 39.2691 29.6361C38.5745 28.9416 39.1883 28.252 39.2619 28.1744C39.175 28.1697 39.0878 28.1669 38.9999 28.1669C36.3672 28.1669 34.2332 30.3011 34.2332 32.9337C34.2332 34.1987 34.7269 35.348 35.531 36.2012H42.0744L39.2691 34.1491Z" fill="#3C58A0"/>
<path d="M38.9998 29.6361C39.7369 30.3733 38.9998 34.1491 38.9998 34.1491L41.8049 36.2012H42.4688C43.2729 35.348 43.7666 34.1987 43.7666 32.9337C43.7666 30.3011 41.6324 28.1669 38.9998 28.1669C38.9998 28.1669 38.2626 28.8989 38.9998 29.6361Z" fill="#4F71B6"/>
<path d="M41.0357 32.2251C41.3012 31.1017 40.6058 29.9758 39.4824 29.7102C38.3591 29.4447 37.2332 30.1401 36.9676 31.2635C36.7021 32.3868 37.3975 33.5128 38.5208 33.7783C39.6442 34.0438 40.7701 33.3484 41.0357 32.2251Z" fill="#FFC7AB"/>
<path d="M42.4138 35.9339C42.3784 35.7625 42.3481 35.5899 42.3277 35.4158C42.2882 35.0775 42.1107 34.2882 41.3116 34.0313C40.4435 33.7522 39.4405 33.6329 38.4416 33.7014C37.899 34.0102 37.1733 34.5788 37.1733 35.4111V37.3355C37.736 37.5696 38.3526 37.7003 39.0001 37.7003C40.3677 37.7003 41.5998 37.1236 42.469 36.201L42.4138 35.9339Z" fill="#FF7186"/>
<path d="M36.6883 34.0316C35.8892 34.2885 35.7117 35.078 35.6722 35.4161C35.6519 35.59 35.6215 35.7627 35.5861 35.9342L35.5308 36.2014C36.0531 36.7558 36.7072 37.1839 37.4423 37.4384C37.4423 36.9011 37.4423 36.1413 37.4423 35.4114C37.4423 34.5652 38.192 33.992 38.7373 33.6869C38.0433 33.7091 37.3447 33.8206 36.6883 34.0316Z" fill="#FF4155"/>
<path d="M56.4126 34.1491C56.4126 34.1491 57.1497 30.3733 56.4126 29.6361C55.718 28.9416 56.3318 28.252 56.4054 28.1744C56.3187 28.1697 56.2313 28.1669 56.1433 28.1669C53.5107 28.1669 51.3765 30.3011 51.3765 32.9337C51.3765 34.1987 51.8702 35.348 52.6743 36.2012H59.2176L56.4126 34.1491Z" fill="#3C58A0"/>
<path d="M56.1433 29.6361C56.8805 30.3733 56.1433 34.1491 56.1433 34.1491L58.9485 36.2012H59.6124C60.4164 35.348 60.9102 34.1987 60.9102 32.9337C60.9102 30.3011 58.776 28.1669 56.1433 28.1669C56.1433 28.1669 55.4061 28.8989 56.1433 29.6361Z" fill="#4F71B6"/>
<path d="M58.1836 32.2292C58.4491 31.1059 57.7537 29.9799 56.6304 29.7144C55.507 29.4488 54.3811 30.1442 54.1156 31.2676C53.85 32.391 54.5454 33.5169 55.6688 33.7824C56.7921 34.048 57.918 33.3526 58.1836 32.2292Z" fill="#FFC7AB"/>
<path d="M59.5571 35.9339C59.5217 35.7625 59.4913 35.5899 59.471 35.4158C59.4315 35.0775 59.254 34.2882 58.4549 34.0313C57.5868 33.7522 56.5838 33.6329 55.5849 33.7014C55.0423 34.0102 54.3167 34.5788 54.3167 35.4111V37.3355C54.8793 37.5696 55.4959 37.7003 56.1434 37.7003C57.511 37.7003 58.7431 37.1236 59.6123 36.201L59.5571 35.9339Z" fill="#FF7186"/>
<path d="M53.8318 34.0316C53.0328 34.2885 52.8553 35.078 52.8157 35.4161C52.7954 35.59 52.7651 35.7627 52.7296 35.9342L52.6743 36.2014C53.1967 36.7558 53.8507 37.1839 54.5859 37.4384C54.5859 36.9011 54.5859 36.1413 54.5859 35.4114C54.5859 34.5652 55.3356 33.992 55.8807 33.6869C55.1868 33.7091 54.4882 33.8206 53.8318 34.0316Z" fill="#FF4155"/>
<path d="M22.1258 47.7616C22.1258 47.7616 22.863 43.9858 22.1258 43.2486C21.4312 42.5541 22.045 41.8646 22.1186 41.7869C22.0319 41.7822 21.9445 41.7794 21.8566 41.7794C19.2239 41.7794 17.0898 43.9135 17.0898 46.5461C17.0898 47.8113 17.5836 48.9604 18.3877 49.8136H24.9311L22.1258 47.7616Z" fill="#3C58A0"/>
<path d="M21.8564 43.2488C22.5936 43.986 21.8564 47.7618 21.8564 47.7618L24.6616 49.814H25.3255C26.1296 48.9607 26.6233 47.8115 26.6233 46.5465C26.6233 43.9138 24.4891 41.7798 21.8564 41.7798C21.8564 41.7796 21.1193 42.5115 21.8564 43.2488Z" fill="#4F71B6"/>
<path d="M23.885 45.8368C24.1506 44.7134 23.4552 43.5875 22.3318 43.3219C21.2085 43.0564 20.0825 43.7518 19.817 44.8751C19.5514 45.9985 20.2468 47.1244 21.3702 47.39C22.4936 47.6555 23.6195 46.9601 23.885 45.8368Z" fill="#FFC7AB"/>
<path d="M25.2703 49.5467C25.2348 49.3753 25.2045 49.2026 25.1842 49.0286C25.1446 48.6903 24.9671 47.9009 24.1681 47.644C23.2999 47.365 22.297 47.2454 21.2981 47.3142C20.7554 47.6229 20.0298 48.1915 20.0298 49.0239V50.9482C20.5924 51.1823 21.209 51.3131 21.8565 51.3131C23.2242 51.3131 24.4562 50.7364 25.3254 49.8137L25.2703 49.5467Z" fill="#FF7186"/>
<path d="M19.5449 47.6442C18.7459 47.9011 18.5684 48.6907 18.5289 49.0288C18.5085 49.2027 18.4782 49.3753 18.4428 49.5469L18.3875 49.8141C18.9098 50.3685 19.5639 50.7966 20.299 51.0511C20.299 50.5138 20.299 49.7541 20.299 49.0241C20.299 48.1778 21.0487 47.6047 21.594 47.2996C20.8999 47.3216 20.2013 47.4332 19.5449 47.6442Z" fill="#FF4155"/>
<path d="M39.2691 47.7616C39.2691 47.7616 40.0063 43.9858 39.2691 43.2486C38.5745 42.5541 39.1883 41.8646 39.2619 41.7869C39.175 41.7822 39.0878 41.7794 38.9999 41.7794C36.3672 41.7794 34.2332 43.9135 34.2332 46.5461C34.2332 47.8113 34.7269 48.9604 35.531 49.8136H42.0744L39.2691 47.7616Z" fill="#3C58A0"/>
<path d="M38.9998 43.2488C39.7369 43.986 38.9998 47.7618 38.9998 47.7618L41.8049 49.814H42.4688C43.2729 48.9607 43.7666 47.8115 43.7666 46.5465C43.7666 43.9138 41.6324 41.7798 38.9998 41.7798C38.9998 41.7796 38.2626 42.5115 38.9998 43.2488Z" fill="#4F71B6"/>
<path d="M41.0327 45.841C41.2983 44.7177 40.6029 43.5917 39.4795 43.3262C38.3562 43.0606 37.2302 43.756 36.9647 44.8794C36.6992 46.0028 37.3945 47.1287 38.5179 47.3943C39.6413 47.6598 40.7672 46.9644 41.0327 45.841Z" fill="#FFC7AB"/>
<path d="M42.4138 49.5467C42.3784 49.3753 42.3481 49.2026 42.3277 49.0286C42.2882 48.6903 42.1107 47.9009 41.3116 47.644C40.4435 47.365 39.4405 47.2454 38.4416 47.3142C37.899 47.6229 37.1733 48.1915 37.1733 49.0239V50.9482C37.736 51.1823 38.3526 51.3131 39.0001 51.3131C40.3677 51.3131 41.5998 50.7364 42.469 49.8137L42.4138 49.5467Z" fill="#FF7186"/>
<path d="M36.6883 47.6442C35.8892 47.9011 35.7117 48.6907 35.6722 49.0288C35.6519 49.2027 35.6215 49.3753 35.5861 49.5469L35.5308 49.8141C36.0531 50.3685 36.7072 50.7966 37.4423 51.0511C37.4423 50.5138 37.4423 49.7541 37.4423 49.0241C37.4423 48.1778 38.192 47.6047 38.7373 47.2996C38.0433 47.3216 37.3447 47.4332 36.6883 47.6442Z" fill="#FF4155"/>
<path d="M56.4126 47.7616C56.4126 47.7616 57.1497 43.9858 56.4126 43.2486C55.718 42.5541 56.3318 41.8646 56.4054 41.7869C56.3187 41.7822 56.2313 41.7794 56.1433 41.7794C53.5107 41.7794 51.3765 43.9135 51.3765 46.5461C51.3765 47.8113 51.8702 48.9604 52.6743 49.8136H59.2176L56.4126 47.7616Z" fill="#3C58A0"/>
<path d="M56.1433 43.2488C56.8805 43.986 56.1433 47.7618 56.1433 47.7618L58.9485 49.814H59.6124C60.4164 48.9607 60.9102 47.8115 60.9102 46.5465C60.9102 43.9138 58.776 41.7798 56.1433 41.7798C56.1433 41.7796 55.4061 42.5115 56.1433 43.2488Z" fill="#4F71B6"/>
<path d="M58.1799 45.8453C58.4455 44.7219 57.7501 43.596 56.6267 43.3305C55.5034 43.0649 54.3775 43.7603 54.1119 44.8837C53.8464 46.0071 54.5418 47.133 55.6651 47.3985C56.7885 47.6641 57.9144 46.9687 58.1799 45.8453Z" fill="#FFC7AB"/>
<path d="M59.5571 49.5467C59.5217 49.3753 59.4913 49.2026 59.471 49.0286C59.4315 48.6903 59.254 47.9009 58.4549 47.644C57.5868 47.365 56.5838 47.2454 55.5849 47.3142C55.0423 47.6229 54.3167 48.1915 54.3167 49.0239V50.9482C54.8793 51.1823 55.4959 51.3131 56.1434 51.3131C57.511 51.3131 58.7431 50.7364 59.6123 49.8137L59.5571 49.5467Z" fill="#FF7186"/>
<path d="M53.8318 47.6442C53.0328 47.9011 52.8553 48.6907 52.8157 49.0288C52.7954 49.2027 52.7651 49.3753 52.7296 49.5469L52.6743 49.8141C53.1967 50.3685 53.8507 50.7966 54.5859 51.0511C54.5859 50.5138 54.5859 49.7541 54.5859 49.0241C54.5859 48.1778 55.3356 47.6047 55.8807 47.2996C55.1868 47.3216 54.4882 47.4332 53.8318 47.6442Z" fill="#FF4155"/>
</svg>
