<svg width="43" height="44" viewBox="0 0 43 44" fill="none" xmlns="http://www.w3.org/2000/svg">
  <path d="M21.3125 0.6875C9.53906 0.6875 0 10.2266 0 22C0 33.7734 9.53906 43.3125 21.3125 43.3125C33.0859 43.3125 42.625 33.7734 42.625 22C42.625 10.2266 33.0859 0.6875 21.3125 0.6875ZM31.7797 15.2883L28.282 31.7711C28.0242 32.9398 27.3281 33.2234 26.357 32.6734L21.0289 28.7461L18.4594 31.2211C18.1758 31.5047 17.9352 31.7453 17.3852 31.7453L17.7633 26.3227L27.6375 17.4023C28.0672 17.0242 27.543 16.8094 26.9758 17.1875L14.7727 24.8703L9.51328 23.2289C8.37031 22.868 8.34453 22.0859 9.75391 21.5359L30.3016 13.6125C31.2555 13.2687 32.0891 13.8445 31.7797 15.2883Z" fill="#60685F" />
</svg>
  