<svg width="18" height="24" viewBox="0 0 18 24" fill="none" xmlns="http://www.w3.org/2000/svg">
<path d="M17.3358 4.59281L13.4034 0.660938C12.9816 0.239063 12.4097 0 11.8148 0H2.24953C1.00781 0.0046875 0 1.0125 0 2.25422V21.7505C0 22.9922 1.00781 24 2.24953 24H15.7467C16.9889 24 18 22.9922 18 21.7505V6.18609C18 5.59125 17.7577 5.01469 17.3358 4.59281ZM11.9977 2.43703L15.5644 6.00328H11.9977V2.43703ZM15.75 21.7505H2.24953V2.25422H9.74813V7.12828C9.74813 7.75172 10.2497 8.25281 10.8731 8.25281H15.75V21.7505Z" fill="#60685F"/>
<path d="M4.856 13.488V15.632C4.856 15.7813 4.89067 15.8907 4.96 15.96C5.03467 16.024 5.15733 16.056 5.328 16.056H5.848V17H5.144C4.2 17 3.728 16.5413 3.728 15.624V13.488H3.2V12.568H3.728V11.472H4.856V12.568H5.848V13.488H4.856ZM8.34956 17.072C7.9869 17.072 7.66156 17.008 7.37356 16.88C7.08556 16.7467 6.85623 16.568 6.68556 16.344C6.52023 16.12 6.42956 15.872 6.41356 15.6H7.54156C7.5629 15.7707 7.64556 15.912 7.78956 16.024C7.9389 16.136 8.1229 16.192 8.34156 16.192C8.5549 16.192 8.72023 16.1493 8.83756 16.064C8.96023 15.9787 9.02156 15.8693 9.02156 15.736C9.02156 15.592 8.9469 15.4853 8.79756 15.416C8.65356 15.3413 8.42156 15.2613 8.10156 15.176C7.7709 15.096 7.4989 15.0133 7.28556 14.928C7.07756 14.8427 6.89623 14.712 6.74156 14.536C6.59223 14.36 6.51756 14.1227 6.51756 13.824C6.51756 13.5787 6.5869 13.3547 6.72556 13.152C6.86956 12.9493 7.07223 12.7893 7.33356 12.672C7.60023 12.5547 7.91223 12.496 8.26956 12.496C8.79756 12.496 9.2189 12.6293 9.53356 12.896C9.84823 13.1573 10.0216 13.512 10.0536 13.96H8.98156C8.96556 13.784 8.8909 13.6453 8.75756 13.544C8.62956 13.4373 8.45623 13.384 8.23756 13.384C8.0349 13.384 7.87756 13.4213 7.76556 13.496C7.6589 13.5707 7.60556 13.6747 7.60556 13.808C7.60556 13.9573 7.68023 14.072 7.82956 14.152C7.9789 14.2267 8.2109 14.304 8.52556 14.384C8.84556 14.464 9.10956 14.5467 9.31756 14.632C9.52556 14.7173 9.70423 14.8507 9.85356 15.032C10.0082 15.208 10.0882 15.4427 10.0936 15.736C10.0936 15.992 10.0216 16.2213 9.87756 16.424C9.7389 16.6267 9.53623 16.7867 9.26956 16.904C9.00823 17.016 8.70156 17.072 8.34956 17.072ZM12.8609 15.968L13.9809 12.568H15.1729L13.5329 17H12.1729L10.5409 12.568H11.7409L12.8609 15.968Z" fill="#60685F"/>
</svg>
