<svg width="20" height="21" viewBox="0 0 20 21" fill="none" xmlns="http://www.w3.org/2000/svg">
<g clip-path="url(#clip0)">
<path d="M14.4226 1.20451H8.51222V0.918652C8.51222 0.595488 8.25022 0.333496 7.92706 0.333496C7.6039 0.333496 7.3419 0.595488 7.3419 0.918652V17.3492H6.16323C5.51792 17.3492 4.99292 17.8742 4.99292 18.5195V19.7483C4.99292 20.0715 5.25491 20.3335 5.57808 20.3335H10.2761C10.5992 20.3335 10.8612 20.0715 10.8612 19.7483V18.5195C10.8612 17.8742 10.3362 17.3492 9.69093 17.3492H8.51222V7.54143H14.4226C14.7458 7.54143 15.0078 7.27943 15.0078 6.95627V1.78967C15.0078 1.46646 14.7458 1.20451 14.4226 1.20451ZM9.69093 18.5195V19.1632H6.16323V18.5195H9.69093ZM13.8375 6.37111H8.51222V2.37482H13.8375V6.37111Z" fill="#60685F"/>
</g>
<defs>
<clipPath id="clip0">
<rect width="20" height="20" fill="white" transform="translate(0 0.333496)"/>
</clipPath>
</defs>
</svg>
