<svg width="13" height="12" viewBox="0 0 13 12" fill="none" xmlns="http://www.w3.org/2000/svg">
<path fill-rule="evenodd" clip-rule="evenodd" d="M3.16679 0.166992C3.44293 0.166992 3.66679 0.390852 3.66679 0.666992V1.77875C5.55192 1.61086 7.44832 1.61086 9.33346 1.77875V0.666992C9.33346 0.390852 9.55732 0.166992 9.83346 0.166992C10.1096 0.166992 10.3335 0.390852 10.3335 0.666992V1.87795C11.3288 2.01869 12.1152 2.80597 12.2483 3.81022L12.306 4.24552C12.5487 6.07639 12.5277 7.93259 12.2437 9.75759C12.1031 10.6616 11.3687 11.356 10.4581 11.4457L9.66279 11.5242C7.55946 11.7316 5.44079 11.7316 3.33741 11.5242L2.54207 11.4457C1.63158 11.356 0.897137 10.6616 0.756463 9.75759C0.47249 7.93259 0.45153 6.07639 0.694224 4.24552L0.751924 3.81022C0.885044 2.80596 1.67141 2.01867 2.66679 1.87795V0.666992C2.66679 0.390852 2.89065 0.166992 3.16679 0.166992ZM3.46356 2.80219C5.48306 2.60305 7.51719 2.60305 9.53666 2.80219L10.1403 2.86173C10.7181 2.91871 11.1807 3.36602 11.2569 3.94162L11.3147 4.37692C11.3348 4.52899 11.3531 4.68126 11.3694 4.83366H1.63083C1.64716 4.68126 1.66539 4.529 1.68555 4.37693L1.74325 3.94162C1.81955 3.36602 2.2821 2.91871 2.85993 2.86173L3.46356 2.80219ZM1.55134 5.83366C1.48589 7.09239 1.55038 8.35579 1.74457 9.60379C1.81513 10.0573 2.18352 10.4055 2.64021 10.4506L3.43555 10.529C5.47366 10.73 7.52659 10.73 9.56466 10.529L10.36 10.4506C10.8167 10.4055 11.1851 10.0573 11.2557 9.60379C11.4499 8.35579 11.5143 7.09239 11.4489 5.83366H1.55134Z" fill="#60685F"/>
</svg>
