<svg width="24" height="25" viewBox="0 0 24 25" fill="none" xmlns="http://www.w3.org/2000/svg">
<path d="M22.5938 4.60059H1.40625C0.630844 4.60059 0 5.23143 0 6.00684V18.6603C0 19.4357 0.630844 20.0665 1.40625 20.0665H22.5938C23.3692 20.0665 24 19.4357 24 18.6603V6.00684C24 5.23143 23.3692 4.60059 22.5938 4.60059ZM22.5944 14.816H20.476V9.85115H22.594L22.5944 14.816ZM12.7031 10.5943C13.3956 10.8721 13.8857 11.5468 13.8857 12.3336C13.8857 13.1204 13.3956 13.7951 12.7031 14.0728V10.5943ZM1.40625 9.85115H3.52397V14.816H1.40625V9.85115ZM11.2969 14.0728C10.6044 13.795 10.1143 13.1204 10.1143 12.3336C10.1143 11.5468 10.6044 10.872 11.2969 10.5943V14.0728ZM11.2969 9.12843C9.81848 9.45041 8.70802 10.7648 8.70802 12.3336C8.70802 13.9023 9.81848 15.2167 11.2969 15.5387V18.6603H1.40625V16.2222H4.22709C4.61541 16.2222 4.93022 15.9074 4.93022 15.5191V9.14802C4.93022 8.75971 4.61541 8.4449 4.22709 8.4449H1.40625V6.00684H11.2969V9.12843ZM22.5938 18.6603H12.7031V15.5387C14.1815 15.2167 15.292 13.9023 15.292 12.3336C15.292 10.7648 14.1815 9.45041 12.7031 9.12843V6.00684H22.5938L22.5939 8.4449H19.773C19.3846 8.4449 19.0698 8.75971 19.0698 9.14802V15.5191C19.0698 15.9074 19.3846 16.2222 19.773 16.2222H22.5945L22.5946 18.6602C22.5946 18.6602 22.5944 18.6603 22.5938 18.6603Z" fill="#60685F"/>
</svg>
