<svg width="20" height="21" viewBox="0 0 20 21" fill="none" xmlns="http://www.w3.org/2000/svg">
<g clip-path="url(#clip0)">
<path d="M15.8596 8.57566H11.0102L15.1964 1.21011C15.3001 1.02868 15.2994 0.806059 15.1948 0.625243C15.0895 0.44458 14.8966 0.333496 14.6877 0.333496H7.65649C7.40426 0.333496 7.18042 0.494934 7.10092 0.734038L3.58531 11.3199C3.52519 11.4985 3.55555 11.6953 3.66541 11.8481C3.77589 12.0009 3.95274 12.0913 4.14088 12.0913H9.11172L5.94629 19.5169C5.83292 19.7808 5.92798 20.0881 6.17059 20.2419C6.40924 20.3945 6.72983 20.3543 6.92239 20.1368L16.2974 9.55085C16.4507 9.37858 16.4886 9.13184 16.3941 8.92188C16.2997 8.71131 16.0903 8.57566 15.8596 8.57566Z" fill="#60685F"/>
<rect x="10" y="10.3335" width="10" height="10" rx="2" fill="#60685F"/>
<path d="M14.7599 12.6694C15.3519 12.6694 15.8692 12.7894 16.3119 13.0294C16.7599 13.2694 17.1039 13.6028 17.3439 14.0294C17.5839 14.4561 17.7039 14.9414 17.7039 15.4854C17.7039 16.0241 17.5839 16.5094 17.3439 16.9414C17.1039 17.3734 16.7599 17.7148 16.3119 17.9654C15.8692 18.2108 15.3519 18.3334 14.7599 18.3334H12.3999V12.6694H14.7599ZM14.5999 16.7494C14.9999 16.7494 15.3172 16.6401 15.5519 16.4214C15.7866 16.2028 15.9039 15.8908 15.9039 15.4854C15.9039 15.0801 15.7866 14.7681 15.5519 14.5494C15.3172 14.3308 14.9999 14.2214 14.5999 14.2214H14.1759V16.7494H14.5999Z" fill="white"/>
</g>
<defs>
<clipPath id="clip0">
<rect width="20" height="20" fill="white" transform="translate(0 0.333496)"/>
</clipPath>
</defs>
</svg>
