<svg width="20" height="21" viewBox="0 0 20 21" fill="none" xmlns="http://www.w3.org/2000/svg">
<g clip-path="url(#clip0)">
<path d="M15.8596 8.57566H11.0102L15.1964 1.21011C15.3001 1.02868 15.2994 0.806059 15.1948 0.625243C15.0895 0.44458 14.8966 0.333496 14.6877 0.333496H7.65649C7.40426 0.333496 7.18042 0.494934 7.10092 0.734038L3.58531 11.3199C3.52519 11.4985 3.55555 11.6953 3.66541 11.8481C3.77589 12.0009 3.95274 12.0913 4.14088 12.0913H9.11172L5.94629 19.5169C5.83292 19.7808 5.92798 20.0881 6.17059 20.2419C6.40924 20.3945 6.72983 20.3543 6.92239 20.1368L16.2974 9.55085C16.4507 9.37858 16.4886 9.13184 16.3941 8.92188C16.2997 8.71131 16.0903 8.57566 15.8596 8.57566Z" fill="#60685F"/>
</g>
<defs>
<clipPath id="clip0">
<rect width="20" height="20" fill="white" transform="translate(0 0.333496)"/>
</clipPath>
</defs>
</svg>
