<svg width="20" height="20" viewBox="0 0 20 20" fill="none" xmlns="http://www.w3.org/2000/svg">
<circle cx="13.1523" cy="6.57923" r="3.4164" transform="rotate(45 13.1523 6.57923)" stroke="#60685F" stroke-width="2"/>
<path d="M13.4405 13.0914C13.05 12.7009 12.2418 12.8758 11.6355 13.4822L8.29641 16.8213C7.69009 17.4276 7.51512 18.2357 7.90564 18.6263C8.29615 19.0168 9.1043 18.8418 9.71063 18.2355L13.0497 14.8964C13.6561 14.29 13.831 13.4819 13.4405 13.0914Z" fill="#60685F"/>
<path d="M8.24422 11.2359C7.8537 10.8454 7.04555 11.0204 6.43923 11.6267L1.09781 16.9681C0.491482 17.5744 0.316518 18.3826 0.707029 18.7731C1.09754 19.1636 1.9057 18.9886 2.51202 18.3823L7.85344 13.0409C8.45976 12.4346 8.63473 11.6264 8.24422 11.2359Z" fill="#60685F"/>
<path d="M6.38875 6.0406C5.99824 5.65009 5.19008 5.82506 4.58376 6.43138L1.24465 9.77048C0.63833 10.3768 0.463367 11.185 0.853878 11.5755C1.24439 11.966 2.05254 11.791 2.65887 11.1847L5.99797 7.84559C6.6043 7.23927 6.77931 6.43116 6.38875 6.0406Z" fill="#60685F"/>
</svg>
