<svg width="24" height="25" viewBox="0 0 24 25" fill="none" xmlns="http://www.w3.org/2000/svg">
<g clip-path="url(#clip0)">
<path d="M21.8672 0.333496H2.13279C0.964147 0.333496 0.0134277 1.28421 0.0134277 2.45286V14.5723C0.0134277 14.9606 0.32824 15.2754 0.716553 15.2754H3.54902C3.93733 15.2754 4.25215 14.9606 4.25215 14.5723V14.4478H8.76602C8.74122 14.6099 8.72833 14.7759 8.72833 14.9448C8.72833 16.7488 10.196 18.2164 12 18.2164C13.804 18.2164 15.2716 16.7488 15.2716 14.9448C15.2716 14.7759 15.2587 14.6099 15.2339 14.4478H19.7478V14.5723C19.7478 14.9606 20.0626 15.2754 20.4509 15.2754H23.2834C23.6717 15.2754 23.9865 14.9606 23.9865 14.5723V2.45286C23.9865 1.28421 23.0358 0.333496 21.8672 0.333496ZM4.25215 13.0416V11.9646H7.17677V12.9857C7.17677 13.0046 7.17813 13.0231 7.17958 13.0416H4.25215ZM7.17672 6.96317V8.05765H4.25215V6.96317H7.17672ZM4.25215 5.55692V4.57217H7.17677V5.55692H7.17672H4.25215ZM7.17677 9.46386V10.5583H4.25215V9.46386H7.17677ZM9.34141 13.0416H8.58016C8.58162 13.0231 8.58297 13.0046 8.58297 12.9857V11.9646H10.6528C10.1268 12.2033 9.67493 12.577 9.34141 13.0416ZM11.2968 6.96317V8.05765H8.58297V6.96317H11.2968ZM8.58297 5.55687V4.57217H11.2968V5.55687H8.58297ZM11.2968 9.46386V10.5583H8.58297V9.46386H11.2968ZM12 16.8102C10.9714 16.8102 10.1346 15.9734 10.1346 14.9448C10.1346 13.9162 10.9714 13.0794 12 13.0794C13.0286 13.0794 13.8654 13.9162 13.8654 14.9448C13.8654 15.9734 13.0286 16.8102 12 16.8102ZM15.417 6.96317V8.05765H12.7031V6.96317H15.417ZM12.7031 5.55687V4.57217H15.417V5.55687H12.7031ZM15.417 9.46386V10.5583H12.7031V9.46386H15.417ZM14.6585 13.0416C14.325 12.577 13.8731 12.2033 13.3471 11.9646H15.417V12.9857C15.417 13.0046 15.4183 13.0231 15.4198 13.0416H14.6585ZM19.7479 13.0416H16.8204C16.8218 13.0231 16.8232 13.0046 16.8232 12.9857V11.9646H19.7479V13.0416ZM16.8232 5.55687V4.57217H19.7478V5.55687H16.8232ZM19.7479 10.5583H16.8232V9.46386H19.7479V10.5583ZM19.7479 8.05765H16.8232V6.96317H19.7479V8.05765ZM22.5803 13.8692H21.1541V3.86904C21.1541 3.48073 20.8392 3.16592 20.4509 3.16592H3.54902C3.16071 3.16592 2.8459 3.48073 2.8459 3.86904V13.8691H1.41968V2.45286C1.41968 2.05967 1.73955 1.73975 2.13279 1.73975H21.8672C22.2604 1.73975 22.5803 2.05967 22.5803 2.45286V13.8692Z" fill="#60685F"/>
<path d="M14.2568 18.437C13.8685 18.437 13.5537 18.7518 13.5537 19.1401V21.2786C13.5537 21.6669 13.8685 21.9817 14.2568 21.9817C14.6451 21.9817 14.96 21.6669 14.96 21.2786V19.1401C14.96 18.7518 14.6451 18.437 14.2568 18.437Z" fill="#60685F"/>
<path d="M11.9995 19.5063C11.6112 19.5063 11.2964 19.8212 11.2964 20.2095V23.6303C11.2964 24.0186 11.6112 24.3334 11.9995 24.3334C12.3878 24.3334 12.7026 24.0186 12.7026 23.6303V20.2095C12.7026 19.8212 12.3878 19.5063 11.9995 19.5063Z" fill="#60685F"/>
<path d="M9.74097 18.437C9.35265 18.437 9.03784 18.7518 9.03784 19.1401V21.2786C9.03784 21.6669 9.35265 21.9817 9.74097 21.9817C10.1293 21.9817 10.4441 21.6669 10.4441 21.2786V19.1401C10.4441 18.7518 10.1293 18.437 9.74097 18.437Z" fill="#60685F"/>
</g>
<defs>
<clipPath id="clip0">
<rect width="24" height="24" fill="white" transform="translate(0 0.333496)"/>
</clipPath>
</defs>
</svg>
