<svg width="24" height="25" viewBox="0 0 24 25" fill="none" xmlns="http://www.w3.org/2000/svg">
<path d="M23.3013 14.2246H22.7873V4.27036C22.7873 3.22092 21.9336 2.36719 20.8842 2.36719H3.11582C2.06639 2.36719 1.21265 3.22092 1.21265 4.27036V14.2246H0.698671C0.312796 14.2246 0 14.5374 0 14.9232C0 15.3091 0.312796 15.6219 0.698671 15.6219H11.0341H12.9659H23.3013C23.6872 15.6219 24 15.3091 24 14.9232C24 14.5374 23.6872 14.2246 23.3013 14.2246ZM18.981 14.2246H13.6645V10.8804L15.119 9.72378C15.421 9.48364 15.4712 9.04414 15.231 8.74213C14.9909 8.44011 14.5513 8.38996 14.2494 8.6301L12.5311 9.99655C12.3644 10.1291 12.2673 10.3304 12.2673 10.5433V14.2246H11.7328V10.5433C11.7328 10.3304 11.6357 10.1291 11.469 9.99655L9.75064 8.6301C9.44867 8.39001 9.00908 8.44007 8.76898 8.74213C8.52884 9.04414 8.57895 9.48364 8.88097 9.72378L10.3355 10.8804V14.2245H5.01899V6.17357H18.981V14.2246ZM21.39 14.2246H20.3783V5.4749C20.3783 5.08907 20.0655 4.77623 19.6796 4.77623H4.32032C3.93449 4.77623 3.62165 5.08903 3.62165 5.4749V14.2246H2.6099V4.27036C2.6099 3.9914 2.83687 3.76448 3.11578 3.76448H20.8842C21.1631 3.76448 21.3901 3.99145 21.3901 4.27036V14.2246H21.39Z" fill="#60685F"/>
<path d="M12.0004 9.36269C12.548 9.36269 12.9919 8.91883 12.9919 8.37129C12.9919 7.82375 12.548 7.37988 12.0004 7.37988C11.4529 7.37988 11.009 7.82375 11.009 8.37129C11.009 8.91883 11.4529 9.36269 12.0004 9.36269Z" fill="#60685F"/>
<path d="M14.4161 19.8842C14.4161 18.552 13.3323 17.4683 12.0002 17.4683C10.668 17.4683 9.58423 18.5521 9.58423 19.8842C9.58423 20.4088 9.75284 20.8945 10.038 21.2911C9.99138 21.3847 9.96453 21.4898 9.96453 21.6015C9.96453 21.9873 10.2773 22.3002 10.6632 22.3002H13.3371C13.7229 22.3002 14.0358 21.9874 14.0358 21.6015C14.0358 21.4898 14.0089 21.3848 13.9623 21.2911C14.2475 20.8946 14.4161 20.4089 14.4161 19.8842ZM12.0002 20.9028C11.4386 20.9028 10.9816 20.4458 10.9816 19.8842C10.9816 19.3225 11.4386 18.8656 12.0002 18.8656C12.5619 18.8656 13.0188 19.3225 13.0188 19.8842C13.0188 20.4458 12.5619 20.9028 12.0002 20.9028Z" fill="#60685F"/>
</svg>
