<svg width="20" height="21" viewBox="0 0 20 21" fill="none" xmlns="http://www.w3.org/2000/svg">
<g clip-path="url(#clip0)">
<path d="M17.0711 3.2624C15.1823 1.37369 12.6711 0.333496 10 0.333496C7.32891 0.333496 4.8177 1.37369 2.92891 3.2624C1.0402 5.15119 0 7.6624 0 10.3335C0 13.0046 1.0402 15.5158 2.92891 17.4046C4.8177 19.2933 7.32891 20.3335 10 20.3335C12.6711 20.3335 15.1823 19.2933 17.0711 17.4046C18.9598 15.5158 20 13.0046 20 10.3335C20 7.6624 18.9598 5.15119 17.0711 3.2624ZM17.3255 5.41193C18.0586 6.49955 18.5555 7.75861 18.7437 9.1151L18.6311 9.21244L16.4236 7.94689L16.9528 5.45971L17.3255 5.41193ZM13.2331 2.11846C14.4895 2.61463 15.6055 3.39143 16.5041 4.3708C16.1575 4.50732 15.8929 4.81002 15.813 5.18572L15.2708 7.73389C15.2642 7.76498 15.259 7.79611 15.255 7.82721L13.6868 8.52748L10.7878 6.41682C10.7234 6.36986 10.6556 6.32998 10.5859 6.29588V4.57811C10.6127 4.56182 10.639 4.54439 10.6648 4.52568L12.7704 2.99166C13.0557 2.78377 13.2211 2.45865 13.2331 2.11846ZM8.04223 13.0993L6.92957 9.66889C6.90723 9.60002 6.93156 9.5251 6.99012 9.48252L9.90172 7.3642C9.96047 7.32146 10.0393 7.3215 10.098 7.36424L13.0099 9.48424C13.0685 9.52686 13.0928 9.60178 13.0704 9.67061L11.9578 13.0993C11.9354 13.1683 11.8716 13.2146 11.7991 13.2146H8.20094C8.1284 13.2146 8.06461 13.1683 8.04223 13.0993ZM8.04613 1.72369C8.67488 1.58104 9.32875 1.50537 10 1.50537C10.6711 1.50537 11.3248 1.58104 11.9534 1.72357L12.0555 2.06256L10.0003 3.5599L7.94461 2.06025L8.04613 1.72369ZM6.76719 2.1183C6.77988 2.4574 6.94477 2.78135 7.22914 2.98885L9.33512 4.52521C9.3609 4.544 9.38727 4.56146 9.4141 4.57783V6.29572C9.34441 6.32978 9.27676 6.36967 9.21231 6.41654L6.31176 8.52678L4.745 7.82717C4.74102 7.79607 4.73586 7.76494 4.72926 7.73385L4.18707 5.18572C4.10711 4.81002 3.84262 4.50732 3.49594 4.3708C4.39453 3.39139 5.51063 2.61455 6.76719 2.1183ZM2.67445 5.41193L3.04719 5.45971L3.57641 7.94689L1.36895 9.21244L1.25633 9.1151C1.44445 7.75861 1.94137 6.49955 2.67445 5.41193ZM2.5132 15.0061C1.67102 13.6615 1.18066 12.0753 1.17242 10.377C1.23582 10.3879 1.30004 10.3936 1.36441 10.3936C1.55699 10.3936 1.75055 10.3445 1.92516 10.2444L4.18672 8.94783C4.21438 8.93197 4.24105 8.91502 4.26691 8.89721L5.75125 9.56002C5.74469 9.71615 5.76449 9.87518 5.81488 10.0305L6.92754 13.4609C6.93762 13.492 6.9491 13.5223 6.96121 13.5522L5.91418 14.8879C5.88297 14.8843 5.85145 14.8817 5.81957 14.8806L3.21434 14.7906C2.95723 14.7821 2.71227 14.8618 2.5132 15.0061ZM3.20477 15.9629L5.74754 16.0507L6.41371 18.3996C5.16461 17.8421 4.06781 17.0028 3.20477 15.9629ZM13.0811 15.7005L12.3703 18.2069C12.3104 18.4178 12.3155 18.6357 12.3754 18.8366C11.6193 19.0481 10.8227 19.1616 10 19.1616C9.15977 19.1616 8.34668 19.0435 7.57621 18.8233C7.63234 18.6261 7.63562 18.4131 7.57711 18.2069L6.86629 15.7006C6.85762 15.67 6.84762 15.64 6.83664 15.6107L7.83633 14.3353C7.95293 14.3682 8.07512 14.3865 8.20094 14.3865H11.7991C11.9094 14.3865 12.0172 14.373 12.1207 14.3476L13.1108 15.6106C13.0998 15.64 13.0898 15.6699 13.0811 15.7005ZM13.5262 18.4259L14.1999 16.0507L16.7429 15.9628C16.7484 15.9767 16.7548 15.9898 16.7612 16.003C15.8895 17.0409 14.7839 17.8758 13.5262 18.4259ZM16.7332 14.7906L14.1279 14.8806C14.096 14.8817 14.0645 14.8842 14.0333 14.8879L13.0199 13.5951C13.0394 13.5516 13.0575 13.5072 13.0725 13.461L14.1851 10.0322C14.2357 9.87631 14.2555 9.71666 14.2487 9.55994L15.7331 8.89713C15.759 8.91494 15.7857 8.93193 15.8134 8.94779L18.0749 10.2444C18.2495 10.3445 18.443 10.3935 18.6356 10.3935C18.7 10.3935 18.7642 10.3878 18.8276 10.3769C18.8193 12.0865 18.3226 13.6825 17.4702 15.0327C17.265 14.8713 17.0055 14.7813 16.7332 14.7906Z" fill="#60685F"/>
</g>
<defs>
<clipPath id="clip0">
<rect width="20" height="20" fill="white" transform="translate(0 0.333496)"/>
</clipPath>
</defs>
</svg>
