<svg width="16" height="18" viewBox="0 0 16 18" fill="none" xmlns="http://www.w3.org/2000/svg">
<path fill-rule="evenodd" clip-rule="evenodd" d="M3.5 4.76074C3.5 2.41353 5.40279 0.510742 7.75 0.510742C10.0972 0.510742 12 2.41353 12 4.76074C12 7.10795 10.0972 9.01074 7.75 9.01074C5.40279 9.01074 3.5 7.10795 3.5 4.76074ZM7.75 2.01074C6.2312 2.01074 5 3.24196 5 4.76074C5 6.27952 6.2312 7.51074 7.75 7.51074C9.2688 7.51074 10.5 6.27952 10.5 4.76074C10.5 3.24196 9.2688 2.01074 7.75 2.01074ZM3.75 12.0107C2.50736 12.0107 1.5 13.0181 1.5 14.2607V15.449C1.5 15.4671 1.51311 15.4825 1.53097 15.4854C5.64972 16.1579 9.8503 16.1579 13.969 15.4854C13.9869 15.4825 14 15.4671 14 15.449V14.2607C14 13.0181 12.9926 12.0107 11.75 12.0107H11.4091C11.3828 12.0107 11.3566 12.0149 11.3315 12.023L10.466 12.3057C8.7012 12.8819 6.7988 12.8819 5.03398 12.3057L4.16847 12.023C4.14342 12.0149 4.11722 12.0107 4.09087 12.0107H3.75ZM0 14.2607C0 12.1896 1.67893 10.5107 3.75 10.5107H4.09087C4.27536 10.5107 4.45869 10.5399 4.63407 10.5971L5.49959 10.8798C6.9619 11.3572 8.5381 11.3572 10.0004 10.8798L10.8659 10.5971C11.0413 10.5399 11.2246 10.5107 11.4091 10.5107H11.75C13.8211 10.5107 15.5 12.1896 15.5 14.2607V15.449C15.5 16.2022 14.9541 16.8444 14.2107 16.9658C9.9319 17.6644 5.5681 17.6644 1.28927 16.9658C0.54588 16.8444 0 16.2022 0 15.449V14.2607Z" fill="white"/>
</svg>
