<svg width="16" height="16" viewBox="0 0 16 16" fill="none" xmlns="http://www.w3.org/2000/svg">
  <path d="M8 1.5C4.41594 1.5 1.5 4.41594 1.5 8C1.5 11.5841 4.41594 14.5 8 14.5C11.5841 14.5 14.5 11.5841 14.5 8C14.5 4.41594 11.5841 1.5 8 1.5ZM12.4688 11H11.0556C11.0118 10.9999 10.9688 10.9883 10.9309 10.9664C10.8931 10.9444 10.8616 10.9129 10.8397 10.875L10.3353 10.01C10.3021 9.95344 10.2925 9.88611 10.3084 9.8225L10.7728 7.95C10.7821 7.91227 10.8001 7.87723 10.8253 7.84767C10.8506 7.8181 10.8823 7.79483 10.9181 7.77969L11.7963 7.40781C11.8392 7.38962 11.8863 7.38378 11.9324 7.39096C11.9784 7.39813 12.0215 7.41804 12.0569 7.44844L13.3578 8.56781C13.3899 8.59542 13.4144 8.63072 13.4291 8.6704C13.4438 8.71008 13.4482 8.75285 13.4419 8.79469C13.3341 9.53385 13.0759 10.2431 12.6831 10.8784C12.6609 10.9155 12.6295 10.9462 12.592 10.9675C12.5544 10.9888 12.5119 11 12.4688 11ZM4.20375 7.41031L5.08187 7.78219C5.11767 7.79733 5.14944 7.8206 5.17466 7.85017C5.19989 7.87973 5.21787 7.91477 5.22719 7.9525L5.69156 9.825C5.70754 9.88861 5.69789 9.95594 5.66469 10.0125L5.16031 10.875C5.13842 10.9129 5.10695 10.9444 5.06905 10.9664C5.03116 10.9883 4.98816 10.9999 4.94438 11H3.53125C3.48851 11 3.44648 10.9891 3.40917 10.9683C3.37185 10.9474 3.34051 10.9173 3.31813 10.8809C2.92536 10.2456 2.66712 9.53635 2.55938 8.79719C2.55304 8.75535 2.55743 8.71258 2.57213 8.6729C2.58684 8.63322 2.61137 8.59792 2.64344 8.57031L3.94438 7.45094C3.97959 7.42078 4.0225 7.40101 4.0683 7.39384C4.1141 7.38666 4.161 7.39237 4.20375 7.41031ZM12.2331 4.68406L11.6684 6.28969C11.6571 6.3225 11.639 6.35259 11.6154 6.37804C11.5918 6.40349 11.5631 6.42374 11.5312 6.4375L10.6069 6.82906C10.5645 6.84701 10.5179 6.85289 10.4724 6.84605C10.4268 6.83921 10.384 6.81992 10.3488 6.79031L8.59062 5.31563C8.56253 5.29238 8.53986 5.26328 8.52421 5.23035C8.50855 5.19742 8.50029 5.16146 8.5 5.125V4.07562C8.50002 4.03451 8.51019 3.99403 8.5296 3.95778C8.549 3.92154 8.57705 3.89063 8.61125 3.86781L9.94969 2.97594C9.98462 2.95262 10.0249 2.93848 10.0667 2.93482C10.1085 2.93116 10.1506 2.9381 10.1891 2.955C10.9592 3.2909 11.6427 3.7979 12.1875 4.4375C12.2161 4.47094 12.2354 4.51135 12.2435 4.55465C12.2515 4.59794 12.2479 4.64259 12.2331 4.68406ZM6.05 2.97594L7.38875 3.86781C7.42295 3.89063 7.451 3.92154 7.4704 3.95778C7.48981 3.99403 7.49998 4.03451 7.5 4.07562V5.125C7.5 5.16152 7.492 5.1976 7.47656 5.23069C7.46111 5.26379 7.43861 5.2931 7.41062 5.31656L5.6525 6.79125C5.61722 6.82086 5.57445 6.84015 5.5289 6.84699C5.48335 6.85382 5.43679 6.84795 5.39437 6.83L4.46875 6.4375C4.43667 6.42392 4.40779 6.40378 4.38395 6.37838C4.36011 6.35298 4.34184 6.32287 4.33031 6.29L3.76562 4.68437C3.75095 4.64275 3.74756 4.59798 3.75579 4.55462C3.76402 4.51126 3.78359 4.47085 3.8125 4.4375C4.35766 3.79726 5.04167 3.2898 5.8125 2.95375C5.8508 2.93737 5.89259 2.93082 5.93407 2.93469C5.97554 2.93857 6.0154 2.95274 6.05 2.97594ZM6.59094 13.2091L5.97437 11.6562C5.96028 11.621 5.95441 11.5829 5.95723 11.545C5.96004 11.5071 5.97147 11.4703 5.99062 11.4375L6.46469 10.625C6.48658 10.5871 6.51805 10.5556 6.55595 10.5336C6.59384 10.5117 6.63684 10.5001 6.68062 10.5H9.31938C9.36316 10.5001 9.40616 10.5117 9.44405 10.5336C9.48195 10.5556 9.51342 10.5871 9.53531 10.625L10.0097 11.4375C10.0289 11.4703 10.0404 11.5071 10.0432 11.545C10.0461 11.5829 10.0403 11.6209 10.0262 11.6562L9.41406 13.2084C9.39909 13.2464 9.37506 13.2801 9.34407 13.3066C9.31307 13.3332 9.27606 13.3517 9.23625 13.3606C8.42389 13.5471 7.57986 13.5471 6.7675 13.3606C6.72799 13.3516 6.69127 13.333 6.66051 13.3066C6.62975 13.2802 6.60587 13.2467 6.59094 13.2091Z" fill="#222622"/>
  </svg>
  