<svg width="15" height="16" viewBox="0 0 15 16" fill="none" xmlns="http://www.w3.org/2000/svg">
  <path d="M0.499533 12C0.502971 12.5125 0.905158 13 1.50266 13H13.4964C14.0939 13 14.4964 12.5125 14.4995 12C14.5011 11.7641 14.418 11.5228 14.2305 11.3216L1.31774 11.8324C1.35093 11.7967 1.38757 11.7583 1.42707 11.717C1.71901 11.4111 2.16722 10.9415 2.53419 10.1984C2.95305 9.35027 3.25203 8.18876 3.25203 6.5C3.25203 4.44675 4.68566 2.79419 6.6527 2.38557L7.25016 2.26146V1.65125V1C7.25016 0.861568 7.36233 0.75 7.49953 0.75C7.63674 0.75 7.74891 0.861568 7.74891 1V1.65125V2.26146L8.34637 2.38557C10.3134 2.79419 11.747 4.44675 11.747 6.5C11.747 8.18876 12.046 9.35027 12.4649 10.1984C12.8318 10.9415 13.2801 11.4111 13.572 11.717C13.6115 11.7584 13.6482 11.7968 13.6814 11.8325L13.6817 11.8328C13.7104 11.8635 13.7262 11.8918 13.7355 11.916C13.745 11.9408 13.7497 11.9671 13.7495 11.995L13.7495 11.9954C13.7492 12.0597 13.7223 12.1278 13.6757 12.1771C13.6353 12.2198 13.5798 12.25 13.4964 12.25H1.50266C1.41935 12.25 1.36389 12.2199 1.3235 12.1771C1.27695 12.1279 1.24997 12.0597 1.24952 11.995L0.499533 12ZM0.499533 12C0.497971 11.7641 0.581096 11.5231 0.768596 11.3216C0.806096 11.2813 0.845626 11.2397 0.886787 11.1964C1.50832 10.543 2.50203 9.49831 2.50203 6.5C2.50203 4.07188 4.20453 2.12812 6.50016 1.65125L1.24952 11.995M0.499533 12L1.24952 11.995M1.24952 11.995C1.24934 11.9671 1.25408 11.9409 1.26354 11.9162M1.24952 11.995L1.26354 11.9162M1.26354 11.9162C1.27278 11.8921 1.28872 11.8636 1.31763 11.8325L1.26354 11.9162ZM8.49883 14.75C8.27086 15.0537 7.90793 15.25 7.49953 15.25C7.09113 15.25 6.72821 15.0537 6.50024 14.75H8.49883Z" stroke="#60685F" stroke-width="1.5" />
</svg>
  