<svg width="19" height="20" viewBox="0 0 19 20" fill="none" xmlns="http://www.w3.org/2000/svg">
  <path fill-rule="evenodd" clip-rule="evenodd" d="M12.9086 0.75C12.9086 0.75 5.23161 0.754 5.21961 0.754C2.45961 0.771 0.75061 2.587 0.75061 5.357V14.553C0.75061 17.337 2.47261 19.16 5.25661 19.16C5.25661 19.16 12.9326 19.157 12.9456 19.157C15.7056 19.14 17.4156 17.323 17.4156 14.553V5.357C17.4156 2.573 15.6926 0.75 12.9086 0.75Z" stroke="#60685F" stroke-width="1.5" stroke-linecap="round" stroke-linejoin="round" />
  <path d="M10.9661 9.87106C11.5587 9.97612 12.0458 10.2579 12.4275 10.7163C12.8092 11.1748 13 11.7001 13 12.2923C13 12.8271 12.8594 13.2999 12.5782 13.7106C12.307 14.1117 11.9102 14.4269 11.3879 14.6562C10.8657 14.8854 10.248 15 9.53484 15H5V5H9.33898C10.0521 5 10.6648 5.10984 11.177 5.32951C11.6993 5.54919 12.091 5.85482 12.3522 6.24642C12.6234 6.63801 12.7589 7.08214 12.7589 7.5788C12.7589 8.16141 12.5932 8.64852 12.2618 9.04011C11.9404 9.43171 11.5085 9.70869 10.9661 9.87106ZM7.10923 9.12607H9.03766C9.53986 9.12607 9.92655 9.02101 10.1977 8.81089C10.4689 8.59121 10.6045 8.2808 10.6045 7.87966C10.6045 7.47851 10.4689 7.1681 10.1977 6.94842C9.92655 6.72875 9.53986 6.61891 9.03766 6.61891H7.10923V9.12607ZM9.23352 13.3668C9.74576 13.3668 10.1425 13.2521 10.4237 13.0229C10.715 12.7937 10.8606 12.469 10.8606 12.0487C10.8606 11.6189 10.71 11.2846 10.4087 11.0458C10.1073 10.7975 9.70056 10.6734 9.18832 10.6734H7.10923V13.3668H9.23352Z" fill="#60685F" />
</svg>
  