<svg width="52" height="52" viewBox="0 0 52 52" fill="none" xmlns="http://www.w3.org/2000/svg">
<rect width="52" height="52" rx="12" fill="#F7F9F7"/>
<path d="M27.3274 26.0002L31.0383 22.2892C31.2145 22.1134 31.3135 21.8748 31.3138 21.626C31.314 21.3771 31.2153 21.1384 31.0395 20.9623C30.8637 20.7862 30.6251 20.6871 30.3763 20.6869C30.1274 20.6866 29.8887 20.7853 29.7126 20.9611L26.0016 24.672L22.2907 20.9611C22.1146 20.785 21.8757 20.686 21.6266 20.686C21.3776 20.686 21.1387 20.785 20.9626 20.9611C20.7864 21.1372 20.6875 21.3761 20.6875 21.6252C20.6875 21.8742 20.7864 22.1131 20.9626 22.2892L24.6735 26.0002L20.9626 29.7111C20.7864 29.8872 20.6875 30.1261 20.6875 30.3752C20.6875 30.6242 20.7864 30.8631 20.9626 31.0392C21.1387 31.2153 21.3776 31.3143 21.6266 31.3143C21.8757 31.3143 22.1146 31.2153 22.2907 31.0392L26.0016 27.3283L29.7126 31.0392C29.8887 31.2153 30.1276 31.3143 30.3766 31.3143C30.6257 31.3143 30.8646 31.2153 31.0407 31.0392C31.2168 30.8631 31.3158 30.6242 31.3158 30.3752C31.3158 30.1261 31.2168 29.8872 31.0407 29.7111L27.3274 26.0002Z" fill="#374336"/>
</svg>
