<svg width="12" height="12" viewBox="0 0 12 12" fill="none" xmlns="http://www.w3.org/2000/svg">
<path d="M7.32741 6.00016L11.0383 2.28922C11.2145 2.11341 11.3135 1.87484 11.3138 1.62599C11.314 1.37714 11.2153 1.13839 11.0395 0.962271C10.8637 0.78615 10.6251 0.687084 10.3763 0.686864C10.1274 0.686644 9.88868 0.785289 9.71256 0.961099L6.00163 4.67204L2.29069 0.961099C2.11457 0.784979 1.8757 0.686035 1.62663 0.686035C1.37755 0.686035 1.13868 0.784979 0.962564 0.961099C0.786443 1.13722 0.6875 1.37609 0.6875 1.62516C0.6875 1.87423 0.786443 2.1131 0.962564 2.28922L4.6735 6.00016L0.962564 9.7111C0.786443 9.88722 0.6875 10.1261 0.6875 10.3752C0.6875 10.6242 0.786443 10.8631 0.962564 11.0392C1.13868 11.2153 1.37755 11.3143 1.62663 11.3143C1.8757 11.3143 2.11457 11.2153 2.29069 11.0392L6.00163 7.32829L9.71256 11.0392C9.88868 11.2153 10.1276 11.3143 10.3766 11.3143C10.6257 11.3143 10.8646 11.2153 11.0407 11.0392C11.2168 10.8631 11.3158 10.6242 11.3158 10.3752C11.3158 10.1261 11.2168 9.88722 11.0407 9.7111L7.32741 6.00016Z" fill="#374336"/>
</svg>
