<svg width="12" height="12" viewBox="0 0 12 12" fill="none" xmlns="http://www.w3.org/2000/svg">
<path d="M11.3221 0.0128843C11.0743 -0.0392896 10.8264 0.0911452 10.7351 0.325928C10.5917 0.652015 9.20906 2.0868 8.0221 2.13897C7.34384 2.16506 6.71775 1.69549 6.05253 1.19984C5.19166 0.573754 4.23949 -0.130594 3.0134 0.104189C1.20036 0.443319 0.352535 2.07375 0.313404 2.15201C0.26123 2.25636 0.248187 2.3868 0.274274 2.50419L0.796013 4.83897L2.3221 11.6085C2.37427 11.8564 2.59601 12.0129 2.8308 12.0129C2.86993 12.0129 2.90906 12.0129 2.94819 11.9998C3.23514 11.9346 3.40471 11.6607 3.33949 11.3738L2.45253 7.42158C2.68732 7.05636 3.35253 6.15636 4.39601 5.92158C5.0221 5.7781 5.51775 5.94767 6.09166 6.13028C6.73079 6.33897 7.46123 6.5868 8.40036 6.3781C10.3699 5.92158 11.7004 3.57375 11.7395 0.52158C11.7395 0.273754 11.5699 0.0650582 11.3221 0.0128843ZM8.16558 5.36071C7.5134 5.50419 7.00471 5.33462 6.41775 5.13897C5.77862 4.93028 5.06123 4.68245 4.16123 4.89115C3.27427 5.0868 2.60906 5.60854 2.15253 6.10419L2.10036 5.86941L1.3308 2.4781C1.55253 2.13897 2.16558 1.33028 3.19601 1.13462C3.97862 0.991145 4.64384 1.47375 5.4134 2.04767C6.15688 2.59549 7.01775 3.22158 8.04819 3.18245C8.9221 3.14332 9.8221 2.63462 10.5264 2.06071C10.2264 3.62593 9.45688 5.06071 8.16558 5.36071Z" fill="#222622"/>
</svg>
