<svg
width="13"
height="12"
viewBox="0 0 13 12"
fill="none"
xmlns="http://www.w3.org/2000/svg"
>
<path
  fill-rule="evenodd"
  clip-rule="evenodd"
  d="M3.16655 0.166504C3.44269 0.166504 3.66655 0.390364 3.66655 0.666504V1.77826C5.55168 1.61037 7.44808 1.61037 9.33321 1.77826V0.666504C9.33321 0.390364 9.55708 0.166504 9.83321 0.166504C10.1093 0.166504 10.3332 0.390364 10.3332 0.666504V1.87746C11.3285 2.0182 12.1149 2.80548 12.248 3.80973L12.3057 4.24503C12.5484 6.0759 12.5275 7.9321 12.2435 9.7571C12.1028 10.6611 11.3684 11.3555 10.4579 11.4452L9.66255 11.5237C7.55921 11.7311 5.44055 11.7311 3.33717 11.5237L2.54183 11.4452C1.63133 11.3555 0.896893 10.6611 0.756219 9.7571C0.472246 7.9321 0.451286 6.0759 0.693979 4.24503L0.751679 3.80973C0.884799 2.80547 1.67117 2.01818 2.66655 1.87746V0.666504C2.66655 0.390364 2.89041 0.166504 3.16655 0.166504ZM3.46332 2.8017C5.48281 2.60256 7.51695 2.60256 9.53641 2.8017L10.14 2.86124C10.7179 2.91822 11.1804 3.36553 11.2567 3.94113L11.3144 4.37643C11.3345 4.5285 11.3528 4.68077 11.3691 4.83317H1.63059C1.64691 4.68077 1.66515 4.52851 1.68531 4.37644L1.74301 3.94113C1.81931 3.36553 2.28185 2.91822 2.85969 2.86124L3.46332 2.8017ZM1.5511 5.83317C1.48565 7.0919 1.55013 8.3553 1.74433 9.6033C1.81489 10.0568 2.18327 10.405 2.63997 10.4501L3.43531 10.5285C5.47341 10.7295 7.52635 10.7295 9.56441 10.5285L10.3597 10.4501C10.8164 10.405 11.1848 10.0568 11.2554 9.6033C11.4496 8.3553 11.5141 7.0919 11.4486 5.83317H1.5511Z"
  fill="#60685F"
/>
</svg>