<svg width="24" height="24" viewBox="0 0 24 24" fill="none" xmlns="http://www.w3.org/2000/svg">
<path fill-rule="evenodd" clip-rule="evenodd" d="M10.7367 3.25C9.96308 3.25 9.31776 3.84123 9.2502 4.61189C9.10896 6.22317 9.07322 7.84164 9.14308 9.45693C9.05875 9.46258 8.97443 9.46847 8.89012 9.47462L7.40062 9.5832C6.44857 9.6526 5.91636 10.7142 6.43035 11.5185C7.52652 13.2341 8.93898 14.7254 10.5924 15.9132L11.1891 16.3418C11.673 16.6894 12.3246 16.6894 12.8084 16.3418L13.4052 15.9132C15.0586 14.7254 16.4711 13.2341 17.5672 11.5185C18.0812 10.7142 17.549 9.6526 16.597 9.5832L15.1075 9.47462C15.0232 9.46847 14.9388 9.46258 14.8545 9.45693C14.9244 7.84164 14.8886 6.22317 14.7474 4.61188C14.6798 3.84123 14.0345 3.25 13.2609 3.25H10.7367ZM10.6803 10.1147C10.5666 8.3275 10.5878 6.53417 10.7438 4.75H13.2537C13.4098 6.53417 13.431 8.3275 13.3173 10.1147C13.3045 10.3151 13.3727 10.5122 13.5064 10.662C13.6401 10.8117 13.8283 10.9016 14.0289 10.9114C14.3522 10.9274 14.6754 10.9471 14.9984 10.9707L16.0802 11.0495C15.1206 12.4628 13.9191 13.6971 12.53 14.6949L11.9988 15.0765L11.4675 14.6949C10.0784 13.6971 8.87696 12.4628 7.91742 11.0495L8.99918 10.9707C9.32217 10.9471 9.64536 10.9274 9.96871 10.9114C10.1692 10.9016 10.3574 10.8117 10.4912 10.662C10.6249 10.5122 10.693 10.3151 10.6803 10.1147Z" fill="#60685F"/>
<path d="M5.75 17C5.75 16.5858 5.41421 16.25 5 16.25C4.58579 16.25 4.25 16.5858 4.25 17V19C4.25 19.9665 5.0335 20.75 6 20.75H18C18.9665 20.75 19.75 19.9665 19.75 19V17C19.75 16.5858 19.4142 16.25 19 16.25C18.5858 16.25 18.25 16.5858 18.25 17V19C18.25 19.1381 18.1381 19.25 18 19.25H6C5.86193 19.25 5.75 19.1381 5.75 19V17Z" fill="#60685F"/>
</svg>
