<svg width="20" height="20" viewBox="0 0 20 20" fill="none" xmlns="http://www.w3.org/2000/svg">
<path fill-rule="evenodd" clip-rule="evenodd" d="M12.6153 2.89155C12.4981 2.77435 12.3391 2.7085 12.1734 2.7085C12.0076 2.7085 11.8486 2.77435 11.7314 2.89155L4.07109 10.5519C3.99256 10.6304 3.93638 10.7284 3.90832 10.8358L3.07499 14.0262C3.01891 14.2409 3.08086 14.4692 3.23776 14.6261C3.39465 14.783 3.62297 14.845 3.83765 14.7889L7.02801 13.9556C7.13545 13.9275 7.23347 13.8713 7.312 13.7927L14.9724 6.13246C15.2164 5.88838 15.2164 5.49265 14.9724 5.24858L12.6153 2.89155ZM5.07488 11.3158L12.1734 4.21738L13.6465 5.69052L6.54802 12.789L4.55406 13.3098L5.07488 11.3158Z" fill="#60685F"/>
<path d="M3.33203 16.0415C2.98686 16.0415 2.70703 16.3213 2.70703 16.6665C2.70703 17.0117 2.98686 17.2915 3.33203 17.2915H15.832C16.1772 17.2915 16.457 17.0117 16.457 16.6665C16.457 16.3213 16.1772 16.0415 15.832 16.0415H3.33203Z" fill="#60685F"/>
</svg>
