<svg width="24" height="24" viewBox="0 0 24 24" fill="none" xmlns="http://www.w3.org/2000/svg">
<path fill-rule="evenodd" clip-rule="evenodd" d="M20 6H4C2.89543 6 2 6.89543 2 8V16C2 17.1046 2.89543 18 4 18H20C21.1046 18 22 17.1046 22 16V8C22 6.89543 21.1046 6 20 6ZM4 4C1.79086 4 0 5.79086 0 8V16C0 18.2091 1.79086 20 4 20H20C22.2091 20 24 18.2091 24 16V8C24 5.79086 22.2091 4 20 4H4Z" fill="#60B15A"/>
<path fill-rule="evenodd" clip-rule="evenodd" d="M11 4H13V8.12602C14.7252 8.57006 16 10.1362 16 12C16 13.8638 14.7252 15.4299 13 15.874V20H11V15.874C9.27477 15.4299 8 13.8638 8 12C8 10.1362 9.27477 8.57006 11 8.12602V4ZM12 14C13.1046 14 14 13.1046 14 12C14 10.8954 13.1046 10 12 10C10.8954 10 10 10.8954 10 12C10 13.1046 10.8954 14 12 14ZM0 16V8H3C4.65685 8 6 9.34315 6 11V13C6 14.6569 4.65685 16 3 16H0ZM2 10H3C3.55228 10 4 10.4477 4 11V13C4 13.5523 3.55228 14 3 14H2V10ZM24 16V8H21C19.3431 8 18 9.34315 18 11V13C18 14.6569 19.3431 16 21 16H24ZM22 10H21C20.4477 10 20 10.4477 20 11V13C20 13.5523 20.4477 14 21 14H22V10Z" fill="#60B15A"/>
</svg>
