<svg width="16" height="16" viewBox="0 0 16 16" fill="none" xmlns="http://www.w3.org/2000/svg">
  <path d="M2.5 15C2.36739 15 2.24021 14.9473 2.14645 14.8536C2.05268 14.7598 2 14.6326 2 14.5V2.12906C2.00004 1.99806 2.03439 1.86935 2.09963 1.75574C2.16487 1.64214 2.25874 1.54761 2.37188 1.48156C2.75 1.26187 3.51188 1 5 1C6.16281 1 7.46344 1.45969 8.61094 1.865C9.535 2.19156 10.4078 2.5 11 2.5C11.7623 2.49766 12.5166 2.34363 13.2188 2.04688C13.3043 2.01078 13.3974 1.99641 13.4898 2.00503C13.5822 2.01366 13.671 2.04502 13.7484 2.09632C13.8257 2.14762 13.8892 2.21726 13.9331 2.29904C13.977 2.38082 14 2.47218 14 2.565V9.42C13.9999 9.5415 13.9643 9.66033 13.8977 9.76196C13.8311 9.86358 13.7364 9.94359 13.625 9.99219C13.3528 10.1112 12.3591 10.5 11 10.5C10.2456 10.5 9.30062 10.2769 8.30031 10.0403C7.17594 9.77469 6.01344 9.5 5 9.5C3.84781 9.5 3.25813 9.67437 3 9.78469V14.5C3 14.6326 2.94732 14.7598 2.85355 14.8536C2.75979 14.9473 2.63261 15 2.5 15Z" fill="#222622" />
</svg>
  