<svg width="16" height="16" viewBox="0 0 16 16" fill="none" xmlns="http://www.w3.org/2000/svg">
<path d="M8 14C11.3137 14 14 11.3137 14 8C14 4.68629 11.3137 2 8 2C4.68629 2 2 4.68629 2 8C2 11.3137 4.68629 14 8 14Z" stroke="#60685F" stroke-miterlimit="10" stroke-linecap="round"/>
<path d="M7.99988 5.47363L5.62207 7.46832L6.24988 10.0002H7.99988H9.74988L10.3777 7.46832L7.99988 5.47363Z" stroke="#60685F" stroke-linecap="round" stroke-linejoin="round"/>
<path d="M10.3779 7.46789L12.0301 6.76789L12.8357 4.47852" stroke="#60685F" stroke-linecap="round" stroke-linejoin="round"/>
<path d="M13.9685 8.4365L12.0298 6.76807" stroke="#60685F" stroke-linecap="round" stroke-linejoin="round"/>
<path d="M5.62236 7.46789L3.97018 6.76789L3.16455 4.47852" stroke="#60685F" stroke-linecap="round" stroke-linejoin="round"/>
<path d="M2.03125 8.4365L3.97 6.76807" stroke="#60685F" stroke-linecap="round" stroke-linejoin="round"/>
<path d="M8 5.47336V3.6743L10 2.3418" stroke="#60685F" stroke-linecap="round" stroke-linejoin="round"/>
<path d="M6 2.3418L8 3.67461" stroke="#60685F" stroke-linecap="round" stroke-linejoin="round"/>
<path d="M9.75 10L10.625 11.5L9.75 13.7188" stroke="#60685F" stroke-linecap="round" stroke-linejoin="round"/>
<path d="M12.8356 11.5H10.6875" stroke="#60685F" stroke-linecap="round" stroke-linejoin="round"/>
<path d="M6.25 10L5.375 11.5L6.26156 13.7344" stroke="#60685F" stroke-linecap="round" stroke-linejoin="round"/>
<path d="M3.17578 11.5H5.37484" stroke="#60685F" stroke-linecap="round" stroke-linejoin="round"/>
</svg>
