<svg width="16" height="16" viewBox="0 0 16 16" fill="none" xmlns="http://www.w3.org/2000/svg">
  <path d="M3.71921 3.73546C4.81381 2.6371 6.32641 1.9585 7.9987 1.9585C11.3354 1.9585 14.0404 4.66345 14.0404 8.00016C14.0404 11.3369 11.3354 14.0418 7.9987 14.0418C4.66198 14.0418 1.95703 11.3369 1.95703 8.00016C1.95703 7.65499 1.67721 7.37516 1.33203 7.37516C0.986856 7.37516 0.707031 7.65499 0.707031 8.00016C0.707031 12.0272 3.97162 15.2918 7.9987 15.2918C12.0258 15.2918 15.2904 12.0272 15.2904 8.00016C15.2904 3.97309 12.0258 0.708496 7.9987 0.708496C5.98079 0.708496 4.15335 1.52901 2.83381 2.8531C2.8126 2.87438 2.79324 2.8968 2.77574 2.92017L1.72776 1.8722C1.61344 1.75788 1.44331 1.72001 1.29129 1.77505C1.13927 1.83009 1.03281 1.9681 1.01818 2.1291L0.723548 5.37001C0.712356 5.49316 0.75644 5.61492 0.843881 5.70236C0.931315 5.7898 1.05308 5.83389 1.17623 5.82269L4.41714 5.52806C4.57815 5.51342 4.71616 5.40697 4.77119 5.25495C4.82623 5.10293 4.78836 4.9328 4.67404 4.81848L3.65061 3.79505C3.67454 3.77712 3.69748 3.75726 3.71921 3.73546Z" fill="black"/>
  </svg>
  