<svg width="19" height="18" viewBox="0 0 19 18" fill="none" xmlns="http://www.w3.org/2000/svg">
<path fill-rule="evenodd" clip-rule="evenodd" d="M0.385254 9C0.385254 4.16751 4.46599 0.25 9.49984 0.25C14.5337 0.25 18.6144 4.16751 18.6144 9C18.6144 13.8325 14.5337 17.75 9.49984 17.75C4.46599 17.75 0.385254 13.8325 0.385254 9ZM10.5415 5C10.5415 5.55228 10.0751 6 9.49984 6C8.92452 6 8.45817 5.55228 8.45817 5C8.45817 4.44772 8.92452 4 9.49984 4C10.0751 4 10.5415 4.44772 10.5415 5ZM9.49984 7.75C9.9313 7.75 10.2811 8.0858 10.2811 8.5V13.5C10.2811 13.9142 9.9313 14.25 9.49984 14.25C9.06838 14.25 8.71859 13.9142 8.71859 13.5V8.5C8.71859 8.0858 9.06838 7.75 9.49984 7.75Z" fill="#60685F"/>
</svg>