<svg width="16" height="12" viewBox="0 0 16 12" fill="none" xmlns="http://www.w3.org/2000/svg">
  <path d="M14.6667 11.4444H1.33333C0.596944 11.4444 0 10.8474 0 10.111V2.11104C0 1.37465 0.596944 0.77771 1.33333 0.77771H14.6667C15.4031 0.77771 16 1.37465 16 2.11104V10.111C16 10.8474 15.4031 11.4444 14.6667 11.4444ZM3.55556 3.99993V2.88882C3.55556 2.70474 3.40631 2.55549 3.22222 2.55549H2.11111C1.92703 2.55549 1.77778 2.70474 1.77778 2.88882V3.99993C1.77778 4.18402 1.92703 4.33327 2.11111 4.33327H3.22222C3.40631 4.33327 3.55556 4.18402 3.55556 3.99993ZM6.22222 3.99993V2.88882C6.22222 2.70474 6.07297 2.55549 5.88889 2.55549H4.77778C4.59369 2.55549 4.44444 2.70474 4.44444 2.88882V3.99993C4.44444 4.18402 4.59369 4.33327 4.77778 4.33327H5.88889C6.07297 4.33327 6.22222 4.18402 6.22222 3.99993ZM8.88889 3.99993V2.88882C8.88889 2.70474 8.73964 2.55549 8.55556 2.55549H7.44444C7.26036 2.55549 7.11111 2.70474 7.11111 2.88882V3.99993C7.11111 4.18402 7.26036 4.33327 7.44444 4.33327H8.55556C8.73964 4.33327 8.88889 4.18402 8.88889 3.99993ZM11.5556 3.99993V2.88882C11.5556 2.70474 11.4063 2.55549 11.2222 2.55549H10.1111C9.92703 2.55549 9.77778 2.70474 9.77778 2.88882V3.99993C9.77778 4.18402 9.92703 4.33327 10.1111 4.33327H11.2222C11.4063 4.33327 11.5556 4.18402 11.5556 3.99993ZM14.2222 3.99993V2.88882C14.2222 2.70474 14.073 2.55549 13.8889 2.55549H12.7778C12.5937 2.55549 12.4444 2.70474 12.4444 2.88882V3.99993C12.4444 4.18402 12.5937 4.33327 12.7778 4.33327H13.8889C14.073 4.33327 14.2222 4.18402 14.2222 3.99993ZM4.88889 6.6666V5.55549C4.88889 5.37141 4.73964 5.22216 4.55556 5.22216H3.44444C3.26036 5.22216 3.11111 5.37141 3.11111 5.55549V6.6666C3.11111 6.85068 3.26036 6.99993 3.44444 6.99993H4.55556C4.73964 6.99993 4.88889 6.85068 4.88889 6.6666ZM7.55556 6.6666V5.55549C7.55556 5.37141 7.40631 5.22216 7.22222 5.22216H6.11111C5.92703 5.22216 5.77778 5.37141 5.77778 5.55549V6.6666C5.77778 6.85068 5.92703 6.99993 6.11111 6.99993H7.22222C7.40631 6.99993 7.55556 6.85068 7.55556 6.6666ZM10.2222 6.6666V5.55549C10.2222 5.37141 10.073 5.22216 9.88889 5.22216H8.77778C8.59369 5.22216 8.44444 5.37141 8.44444 5.55549V6.6666C8.44444 6.85068 8.59369 6.99993 8.77778 6.99993H9.88889C10.073 6.99993 10.2222 6.85068 10.2222 6.6666ZM12.8889 6.6666V5.55549C12.8889 5.37141 12.7396 5.22216 12.5556 5.22216H11.4444C11.2604 5.22216 11.1111 5.37141 11.1111 5.55549V6.6666C11.1111 6.85068 11.2604 6.99993 11.4444 6.99993H12.5556C12.7396 6.99993 12.8889 6.85068 12.8889 6.6666ZM3.55556 9.33327V8.22216C3.55556 8.03807 3.40631 7.88882 3.22222 7.88882H2.11111C1.92703 7.88882 1.77778 8.03807 1.77778 8.22216V9.33327C1.77778 9.51735 1.92703 9.6666 2.11111 9.6666H3.22222C3.40631 9.6666 3.55556 9.51735 3.55556 9.33327ZM11.5556 9.33327V8.22216C11.5556 8.03807 11.4063 7.88882 11.2222 7.88882H4.77778C4.59369 7.88882 4.44444 8.03807 4.44444 8.22216V9.33327C4.44444 9.51735 4.59369 9.6666 4.77778 9.6666H11.2222C11.4063 9.6666 11.5556 9.51735 11.5556 9.33327ZM14.2222 9.33327V8.22216C14.2222 8.03807 14.073 7.88882 13.8889 7.88882H12.7778C12.5937 7.88882 12.4444 8.03807 12.4444 8.22216V9.33327C12.4444 9.51735 12.5937 9.6666 12.7778 9.6666H13.8889C14.073 9.6666 14.2222 9.51735 14.2222 9.33327Z" fill="white" />
</svg>
  