<svg width="10" height="12" viewBox="0 0 10 12" fill="none" xmlns="http://www.w3.org/2000/svg">
  <path d="M1.4375 11.625H0.6875C0.538316 11.625 0.395242 11.5657 0.289752 11.4602C0.184263 11.3548 0.125 11.2117 0.125 11.0625V7.6875C0.125 7.53832 0.184263 7.39524 0.289752 7.28975C0.395242 7.18426 0.538316 7.125 0.6875 7.125H1.4375C1.58668 7.125 1.72976 7.18426 1.83525 7.28975C1.94074 7.39524 2 7.53832 2 7.6875V11.0625C2 11.2117 1.94074 11.3548 1.83525 11.4602C1.72976 11.5657 1.58668 11.625 1.4375 11.625V11.625ZM6.6875 11.625H5.9375C5.78832 11.625 5.64524 11.5657 5.53975 11.4602C5.43426 11.3548 5.375 11.2117 5.375 11.0625V5.4375C5.375 5.28832 5.43426 5.14524 5.53975 5.03975C5.64524 4.93426 5.78832 4.875 5.9375 4.875H6.6875C6.83668 4.875 6.97976 4.93426 7.08525 5.03975C7.19074 5.14524 7.25 5.28832 7.25 5.4375V11.0625C7.25 11.2117 7.19074 11.3548 7.08525 11.4602C6.97976 11.5657 6.83668 11.625 6.6875 11.625V11.625ZM9.3125 11.625H8.5625C8.41332 11.625 8.27024 11.5657 8.16475 11.4602C8.05926 11.3548 8 11.2117 8 11.0625V2.8125C8 2.66332 8.05926 2.52024 8.16475 2.41475C8.27024 2.30926 8.41332 2.25 8.5625 2.25H9.3125C9.46168 2.25 9.60476 2.30926 9.71025 2.41475C9.81574 2.52024 9.875 2.66332 9.875 2.8125V11.0625C9.875 11.2117 9.81574 11.3548 9.71025 11.4602C9.60476 11.5657 9.46168 11.625 9.3125 11.625V11.625ZM4.0625 11.625H3.3125C3.16332 11.625 3.02024 11.5657 2.91475 11.4602C2.80926 11.3548 2.75 11.2117 2.75 11.0625V0.9375C2.75 0.788316 2.80926 0.645242 2.91475 0.539752C3.02024 0.434263 3.16332 0.375 3.3125 0.375H4.0625C4.21168 0.375 4.35476 0.434263 4.46025 0.539752C4.56574 0.645242 4.625 0.788316 4.625 0.9375V11.0625C4.625 11.2117 4.56574 11.3548 4.46025 11.4602C4.35476 11.5657 4.21168 11.625 4.0625 11.625V11.625Z" fill="#E4AF5E" />
</svg>
  