<svg width="28" height="32" viewBox="0 0 28 32" fill="none" xmlns="http://www.w3.org/2000/svg">
<path d="M27.4614 22.6431C26.2539 21.3456 23.9946 19.3937 23.9946 13C23.9946 8.14375 20.5896 4.25625 15.9983 3.3025V2C15.9983 0.895625 15.1033 0 13.9996 0C12.8958 0 12.0008 0.895625 12.0008 2V3.3025C7.40955 4.25625 4.00456 8.14375 4.00456 13C4.00456 19.3937 1.74518 21.3456 0.53768 22.6431C0.16268 23.0463 -0.00357007 23.5281 -0.000445069 24C0.00642993 25.025 0.810805 26 2.0058 26H25.9933C27.1883 26 27.9933 25.025 27.9996 24C28.0027 23.5281 27.8364 23.0456 27.4614 22.6431ZM4.22018 23C5.54643 21.2519 6.99643 18.3544 7.0033 13.0363C7.0033 13.0238 6.99956 13.0125 6.99956 13C6.99956 9.13375 10.1333 6 13.9996 6C17.8658 6 20.9996 9.13375 20.9996 13C20.9996 13.0125 20.9958 13.0238 20.9958 13.0363C21.0027 18.355 22.4527 21.2525 23.7789 23H4.22018ZM13.9996 32C16.2071 32 17.9977 30.2094 17.9977 28H10.0014C10.0014 30.2094 11.7921 32 13.9996 32Z" fill="#60685F"/>
</svg>
