<svg width="13" height="16" viewBox="0 0 13 16" fill="none" xmlns="http://www.w3.org/2000/svg">
<path d="M6.59524 12.1905C7.43333 12.1905 8.11905 11.5048 8.11905 10.6667C8.11905 9.82857 7.43333 9.14286 6.59524 9.14286C5.75714 9.14286 5.07143 9.82857 5.07143 10.6667C5.07143 11.5048 5.75714 12.1905 6.59524 12.1905ZM11.1667 5.33333H10.4048V3.80952C10.4048 1.70667 8.6981 0 6.59524 0C4.49238 0 2.78571 1.70667 2.78571 3.80952V5.33333H2.02381C1.18571 5.33333 0.5 6.01905 0.5 6.85714V14.4762C0.5 15.3143 1.18571 16 2.02381 16H11.1667C12.0048 16 12.6905 15.3143 12.6905 14.4762V6.85714C12.6905 6.01905 12.0048 5.33333 11.1667 5.33333ZM4.23333 3.80952C4.23333 2.50667 5.29238 1.44762 6.59524 1.44762C7.8981 1.44762 8.95714 2.50667 8.95714 3.80952V5.33333H4.23333V3.80952ZM11.1667 14.4762H2.02381V6.85714H11.1667V14.4762Z" fill="#60685F"/>
</svg>
