<svg width="18" height="18" viewBox="0 0 18 18" fill="none" xmlns="http://www.w3.org/2000/svg">
  <path d="M9 0.8C4.47125 0.8 0.8 4.47125 0.8 9C0.8 13.5287 4.47125 17.2 9 17.2C13.5287 17.2 17.2 13.5287 17.2 9C17.2 4.47125 13.5287 0.8 9 0.8ZM9 15.7677C5.28184 15.7677 2.23226 12.758 2.23226 9C2.23226 5.28184 5.24204 2.23226 9 2.23226C12.7182 2.23226 15.7677 5.24204 15.7677 9C15.7677 12.7182 12.758 15.7677 9 15.7677ZM9 6.21935C7.46428 6.21935 6.21935 7.46428 6.21935 9C6.21935 10.5357 7.46428 11.7806 9 11.7806C10.5357 11.7806 11.7806 10.5357 11.7806 9C11.7806 7.46428 10.5357 6.21935 9 6.21935ZM9 10.3484C8.25668 10.3484 7.65161 9.74332 7.65161 9C7.65161 8.25668 8.25668 7.65161 9 7.65161C9.74332 7.65161 10.3484 8.25668 10.3484 9C10.3484 9.74332 9.74332 10.3484 9 10.3484Z" fill="#60685F" stroke="#60685F" stroke-width="0.4"/>
  </svg>
  