<svg width="18" height="18" viewBox="0 0 18 18" fill="none" xmlns="http://www.w3.org/2000/svg">
  <path fill-rule="evenodd" clip-rule="evenodd" d="M9 1.75C4.99594 1.75 1.75 4.99594 1.75 9C1.75 13.0041 4.99594 16.25 9 16.25C13.0041 16.25 16.25 13.0041 16.25 9C16.25 4.99594 13.0041 1.75 9 1.75ZM0.25 9C0.25 4.16751 4.16751 0.25 9 0.25C13.8325 0.25 17.75 4.16751 17.75 9C17.75 13.8325 13.8325 17.75 9 17.75C4.16751 17.75 0.25 13.8325 0.25 9Z" fill="#60685F" />
  <path fill-rule="evenodd" clip-rule="evenodd" d="M7.8498 6.30881C6.91622 7.07686 6.29253 8.15716 6.09417 9.34966L5.65623 11.9825C5.42881 13.3497 7.0186 14.2676 8.0889 13.387L10.15 11.6913C11.0836 10.9233 11.7073 9.84296 11.9056 8.65046L12.3436 6.01762C12.571 4.65041 10.9813 3.73257 9.9109 4.61313L7.8498 6.30881ZM9 7.50006C8.1716 7.50006 7.5 8.17166 7.5 9.00006C7.5 9.82846 8.1716 10.5001 9 10.5001C9.8284 10.5001 10.5 9.82846 10.5 9.00006C10.5 8.17166 9.8284 7.50006 9 7.50006Z" fill="#60685F" />
</svg>
  