<svg width="100" height="100" viewBox="0 0 100 100" fill="none" xmlns="http://www.w3.org/2000/svg">
<circle cx="50" cy="50" r="50" fill="#60B15A"/>
<circle cx="50.0002" cy="49.9997" r="42.8571" fill="#EEF5ED"/>
<g filter="url(#filter0_d)">
<circle cx="49.9999" cy="50.0004" r="35.7143" fill="white"/>
</g>
<g clip-path="url(#clip0)">
<path d="M49.4477 27.5342C42.6943 27.5342 37.2126 32.975 37.1445 39.7122L37.1645 40.5601C37.2071 41.2969 37.3145 42.0163 37.4812 42.7128L46.5693 51.8043C47.2665 51.9715 47.9867 52.0792 48.7244 52.122L49.5687 52.1422C56.3087 52.0771 61.7525 46.5942 61.7525 39.839C61.7525 33.0432 56.2435 27.5342 49.4477 27.5342Z" fill="#75CA6E"/>
<path d="M48.121 50.2948L48.1212 50.293L48.0829 50.2679C47.673 49.9989 47.429 49.667 47.3576 49.2815C47.2344 48.6171 47.6671 48.0059 47.6714 47.9998L47.6826 47.9843L48.5787 41.0557C48.5184 40.9991 48.4586 40.9417 48.3998 40.8828C45.2698 37.7528 45.2698 32.6782 48.3998 29.5483L47.8534 29.002L37.1442 39.7112C37.1437 39.7535 37.1426 39.7956 37.1426 39.838C37.1426 40.0802 37.1504 40.3205 37.1642 40.5592L38.895 41.0281C38.9894 41.0537 39.0209 41.1718 38.9517 41.241L37.4808 42.7119C37.7778 43.9528 38.263 45.1203 38.9041 46.1833L43.0983 50.3791C44.161 51.0205 45.3283 51.506 46.5689 51.8034L48.0415 50.3308C48.0644 50.308 48.0926 50.297 48.121 50.2948Z" fill="#73C3F9"/>
<path d="M48.2543 50.3876L48.7239 52.1211C48.9633 52.135 49.2043 52.1428 49.4472 52.1428C49.4877 52.1428 49.5278 52.1417 49.5682 52.1413L60.2803 41.4292L59.734 40.8828C56.6408 43.976 51.6486 44.0119 48.5108 40.9913L47.6101 47.9559C47.6101 47.9559 46.5853 49.3754 48.0413 50.3309C48.1105 50.2617 48.2287 50.2932 48.2543 50.3876Z" fill="#9BD8F9"/>
<path d="M59.7582 39.6024C59.9113 40.2327 60.378 40.6121 61.0761 40.5203C61.55 39.8959 61.9299 39.223 62.2145 38.5204L60.5974 38.4824L59.2373 39.8426C59.4069 39.7759 59.5804 39.6969 59.7582 39.6024Z" fill="#BEC8F7"/>
<path d="M61.1424 40.4319C59.9602 40.6432 59.8133 39.4844 59.8133 39.4844C59.6656 39.5665 59.5207 39.6383 59.3787 39.7008L57.3359 41.7436L57.3739 43.3607C58.4326 42.9317 59.4246 42.288 60.2831 41.4294C60.5986 41.1139 60.8849 40.7802 61.1424 40.4319Z" fill="#A2B6F4"/>
<path d="M48.7471 28.2227C48.7173 28.5335 48.744 29.3092 49.6922 29.5805C49.6922 29.5805 49.6007 29.7361 49.4927 29.9982L50.8034 28.6874L50.7655 27.0703C50.0559 27.3578 49.3766 27.7423 48.7471 28.2227Z" fill="#BEC8F7"/>
<path d="M48.8535 28.1426C48.5052 28.4001 48.1715 28.6863 47.856 29.0018C46.9975 29.8604 46.3538 30.8524 45.9248 31.9111L47.5419 31.949L49.6015 29.8894C49.7095 29.6274 49.8011 29.4717 49.8011 29.4717C48.8807 29.2084 48.8285 28.47 48.8535 28.1426Z" fill="#A2B6F4"/>
<path d="M59.6633 32.1761L62.0189 31.4651C61.5985 30.5737 61.0203 29.7382 60.2833 29.0012C59.5463 28.2643 58.7109 27.686 57.8195 27.2656L57.1084 29.6212L59.6633 32.1761Z" fill="#E9EFFF"/>
<path d="M57.8195 27.2666C55.5986 26.2191 53.0296 26.1536 50.7654 27.071L50.6943 28.579L53.6413 30.7699L57.2175 29.5132L57.8195 27.2666Z" fill="#D3DCFB"/>
<path d="M62.0192 31.4648C63.0667 33.6858 63.1322 36.2547 62.2149 38.5189L60.7069 38.59L58.3823 35.6788L59.7728 32.0668L62.0192 31.4648Z" fill="#D3DCFB"/>
<path d="M50.6942 28.5781L49.692 29.5803C49.692 29.5803 47.8802 32.6542 50.8661 34.5334C50.8734 34.538 50.8802 34.5427 50.8874 34.5474L52.974 34.1193L53.7274 30.4474L50.6942 28.5781Z" fill="#E9EFFF"/>
<path d="M48.3997 40.8831C47.2375 39.7208 46.5073 38.2904 46.2082 36.791L41.3267 41.6725C41.2596 41.7396 41.2869 41.8539 41.377 41.8835L42.5522 42.2698C42.6424 42.2994 42.6696 42.4137 42.6025 42.4808L38.9019 46.1814C39.2713 46.7944 39.6937 47.3717 40.1609 47.9089L41.3742 49.1225C41.911 49.5897 42.488 50.012 43.1006 50.3816L46.8019 46.6802C46.869 46.6131 46.9833 46.6403 47.013 46.7305L47.3992 47.9057C47.4289 47.9959 47.5432 48.0231 47.6103 47.956L52.4917 43.0745C50.9923 42.7755 49.5619 42.0453 48.3997 40.8831Z" fill="#49B1F7"/>
<path d="M43.5295 44.5086L40.1455 47.8926C40.5302 48.3364 40.9461 48.7524 41.3897 49.1372L44.7739 45.753C45.1161 45.4108 45.1161 44.8508 44.7739 44.5086C44.4317 44.1664 43.8717 44.1664 43.5295 44.5086Z" fill="#1E9EF4"/>
<path d="M51.0311 40.8088L50.3201 43.1644C49.4287 42.744 48.5932 42.1657 47.8562 41.4288C47.1192 40.6918 46.541 39.8563 46.1206 38.9649L48.4762 38.2539L51.0311 40.8088Z" fill="#A2B6F4"/>
<path d="M46.1206 38.966C45.0731 36.7451 45.0076 34.1761 45.925 31.9119L47.433 31.8408L49.8152 34.7365L48.3671 38.364L46.1206 38.966Z" fill="#3C58A0"/>
<path d="M50.3203 43.1657C52.5412 44.2132 55.1102 44.2787 57.3744 43.3613L57.4455 41.8533L54.5517 39.4639L50.9222 40.9191L50.3203 43.1657Z" fill="#3C58A0"/>
<path d="M55.165 36.3119L54.71 38.53L54.7827 38.5294C54.8908 38.6767 55.3491 39.2601 56.1164 39.683C56.8815 40.1047 58.0993 40.4297 59.6297 39.6682L60.7062 38.5917L58.8369 35.5586L55.165 36.3119Z" fill="#E9EFFF"/>
<path d="M54.8226 38.4521L54.7263 38.453L54.4121 39.984L57.4453 41.8533L59.8136 39.485C56.7095 41.2105 54.8226 38.4521 54.8226 38.4521Z" fill="#D3DCFB"/>
<path d="M49.8014 29.4727L47.4331 31.8409L49.3024 34.8741L51.0934 34.5066C51.0559 34.4789 51.0132 34.4569 50.9756 34.4258C48.2956 32.2147 49.8014 29.4727 49.8014 29.4727Z" fill="#D3DCFB"/>
<path d="M52.792 33.9379L55.3469 36.4928L58.837 35.5577L59.7721 32.0676L57.2172 29.5127L53.7271 30.4479L52.792 33.9379Z" fill="#4F71B6"/>
<path d="M50.9193 34.4404C50.7725 34.9301 50.6761 35.7221 51.2828 36.3288C52.2281 37.2741 53.2155 38.2614 53.2155 38.2614C53.2155 38.2614 53.9138 38.7698 54.8072 38.5086L55.3471 36.4934L52.7922 33.9385L50.9193 34.4404Z" fill="#D3DCFB"/>
<path d="M50.9755 34.4248L49.3023 34.8731L48.3672 38.3632L50.9221 40.9181L54.4121 39.9829L54.8226 38.451C53.9569 38.6747 53.2884 38.1882 53.2884 38.1882C53.2884 38.1882 52.301 37.2008 51.3557 36.2555C50.7723 35.6721 50.839 34.9174 50.9755 34.4248Z" fill="#BEC8F7"/>
<path d="M37.9365 35.4847C38.2055 35.6392 38.4845 35.6903 38.7414 35.6865C39.2483 35.6791 39.7266 35.4509 40.0706 35.0785C40.9205 34.1584 43.3616 31.5244 44.5256 30.3604C45.1449 29.7411 45.2695 28.9633 45.2127 28.2822C41.8638 29.5099 39.1975 32.1519 37.9365 35.4847Z" fill="#60B15A"/>
<path d="M53.8012 51.3491C53.6466 51.0801 53.5955 50.8011 53.5993 50.5442C53.6067 50.0373 53.8349 49.559 54.2073 49.215C55.1275 48.3651 57.7614 45.924 58.9254 44.76C59.5447 44.1407 60.3225 44.0161 61.0036 44.0729C59.7759 47.4218 57.134 50.0881 53.8012 51.3491Z" fill="#60B15A"/>
</g>
<path d="M43.5286 63.4852C43.5286 64.0661 43.3952 64.5994 43.1286 65.0852C42.8619 65.5613 42.4524 65.9471 41.9 66.2423C41.3476 66.5375 40.6619 66.6852 39.8429 66.6852H38.3286V70.2852H35.8857V60.2566H39.8429C40.6429 60.2566 41.319 60.3947 41.8714 60.6709C42.4238 60.9471 42.8381 61.328 43.1143 61.8137C43.3905 62.2994 43.5286 62.8566 43.5286 63.4852ZM39.6571 64.7423C40.1238 64.7423 40.4714 64.6328 40.7 64.4137C40.9286 64.1947 41.0429 63.8852 41.0429 63.4852C41.0429 63.0852 40.9286 62.7756 40.7 62.5566C40.4714 62.3375 40.1238 62.228 39.6571 62.228H38.3286V64.7423H39.6571ZM49.9146 70.2852L47.8289 66.4994H47.2432V70.2852H44.8003V60.2566H48.9003C49.6908 60.2566 50.3622 60.3947 50.9146 60.6709C51.4765 60.9471 51.8956 61.328 52.1718 61.8137C52.448 62.2899 52.586 62.8233 52.586 63.4137C52.586 64.0804 52.3956 64.6756 52.0146 65.1994C51.6432 65.7233 51.0908 66.0947 50.3575 66.3137L52.6718 70.2852H49.9146ZM47.2432 64.7709H48.7575C49.2051 64.7709 49.5384 64.6613 49.7575 64.4423C49.986 64.2233 50.1003 63.9137 50.1003 63.5137C50.1003 63.1328 49.986 62.8328 49.7575 62.6137C49.5384 62.3947 49.2051 62.2852 48.7575 62.2852H47.2432V64.7709ZM58.8624 70.3852C57.9195 70.3852 57.0529 70.1661 56.2624 69.728C55.4814 69.2899 54.8576 68.6804 54.391 67.8994C53.9338 67.109 53.7052 66.2233 53.7052 65.2423C53.7052 64.2613 53.9338 63.3804 54.391 62.5994C54.8576 61.8185 55.4814 61.209 56.2624 60.7709C57.0529 60.3328 57.9195 60.1137 58.8624 60.1137C59.8052 60.1137 60.6672 60.3328 61.4481 60.7709C62.2386 61.209 62.8576 61.8185 63.3052 62.5994C63.7624 63.3804 63.991 64.2613 63.991 65.2423C63.991 66.2233 63.7624 67.109 63.3052 67.8994C62.8481 68.6804 62.2291 69.2899 61.4481 69.728C60.6672 70.1661 59.8052 70.3852 58.8624 70.3852ZM58.8624 68.1566C59.6624 68.1566 60.3005 67.8899 60.7767 67.3566C61.2624 66.8233 61.5052 66.1185 61.5052 65.2423C61.5052 64.3566 61.2624 63.6518 60.7767 63.128C60.3005 62.5947 59.6624 62.328 58.8624 62.328C58.0529 62.328 57.4052 62.5899 56.9195 63.1137C56.4433 63.6375 56.2052 64.3471 56.2052 65.2423C56.2052 66.128 56.4433 66.8375 56.9195 67.3709C57.4052 67.8947 58.0529 68.1566 58.8624 68.1566Z" fill="#60B15A"/>
<defs>
<filter id="filter0_d" x="7.14279" y="7.14328" width="85.7143" height="85.7143" filterUnits="userSpaceOnUse" color-interpolation-filters="sRGB">
<feFlood flood-opacity="0" result="BackgroundImageFix"/>
<feColorMatrix in="SourceAlpha" type="matrix" values="0 0 0 0 0 0 0 0 0 0 0 0 0 0 0 0 0 0 127 0" result="hardAlpha"/>
<feOffset/>
<feGaussianBlur stdDeviation="3.57143"/>
<feColorMatrix type="matrix" values="0 0 0 0 0 0 0 0 0 0 0 0 0 0 0 0 0 0 0.07 0"/>
<feBlend mode="normal" in2="BackgroundImageFix" result="effect1_dropShadow"/>
<feBlend mode="normal" in="SourceGraphic" in2="effect1_dropShadow" result="shape"/>
</filter>
<clipPath id="clip0">
<rect width="25.7143" height="25.7143" fill="white" transform="translate(37.1426 26.4277)"/>
</clipPath>
</defs>
</svg>
