<svg width="224" height="230" viewBox="0 0 224 230" fill="none" xmlns="http://www.w3.org/2000/svg">
<rect x="4" width="216" height="222" rx="16" fill="#60B15A"/>
<mask id="mask0" style="mask-type:alpha" maskUnits="userSpaceOnUse" x="4" y="0" width="216" height="222">
<rect x="4" width="216" height="222" rx="16" fill="#60B15A"/>
</mask>
<g mask="url(#mask0)">
<g opacity="0.5" filter="url(#filter0_d)">
<path d="M172.314 144.529C138.618 135.438 118.577 100.726 127.551 66.9989C136.525 33.2721 171.116 13.2996 204.812 22.3908C238.508 31.482 258.549 66.1933 249.576 99.9209C240.602 133.649 206.009 153.619 172.314 144.529Z" fill="url(#paint0_linear)"/>
</g>
<g opacity="0.5" filter="url(#filter1_d)">
<path d="M-16 189C-16 210.539 1.46089 228 23 228C44.5391 228 62 210.539 62 189C62 167.461 44.5391 150 23 150C1.46089 150 -16 167.461 -16 189Z" fill="url(#paint1_linear)"/>
</g>
<g opacity="0.5" filter="url(#filter2_d)">
<path d="M-3 66.5C-3 76.7173 5.28273 85 15.5 85C25.7173 85 34 76.7173 34 66.5C34 56.2827 25.7173 48 15.5 48C5.28273 48 -3 56.2827 -3 66.5Z" fill="url(#paint2_linear)"/>
</g>
</g>
<defs>
<filter id="filter0_d" x="121.409" y="20.1954" width="134.309" height="134.529" filterUnits="userSpaceOnUse" color-interpolation-filters="sRGB">
<feFlood flood-opacity="0" result="BackgroundImageFix"/>
<feColorMatrix in="SourceAlpha" type="matrix" values="0 0 0 0 0 0 0 0 0 0 0 0 0 0 0 0 0 0 127 0" result="hardAlpha"/>
<feOffset dy="4"/>
<feGaussianBlur stdDeviation="2"/>
<feComposite in2="hardAlpha" operator="out"/>
<feColorMatrix type="matrix" values="0 0 0 0 0 0 0 0 0 0 0 0 0 0 0 0 0 0 0.25 0"/>
<feBlend mode="normal" in2="BackgroundImageFix" result="effect1_dropShadow"/>
<feBlend mode="normal" in="SourceGraphic" in2="effect1_dropShadow" result="shape"/>
</filter>
<filter id="filter1_d" x="-20" y="150" width="86" height="86" filterUnits="userSpaceOnUse" color-interpolation-filters="sRGB">
<feFlood flood-opacity="0" result="BackgroundImageFix"/>
<feColorMatrix in="SourceAlpha" type="matrix" values="0 0 0 0 0 0 0 0 0 0 0 0 0 0 0 0 0 0 127 0" result="hardAlpha"/>
<feOffset dy="4"/>
<feGaussianBlur stdDeviation="2"/>
<feComposite in2="hardAlpha" operator="out"/>
<feColorMatrix type="matrix" values="0 0 0 0 0 0 0 0 0 0 0 0 0 0 0 0 0 0 0.25 0"/>
<feBlend mode="normal" in2="BackgroundImageFix" result="effect1_dropShadow"/>
<feBlend mode="normal" in="SourceGraphic" in2="effect1_dropShadow" result="shape"/>
</filter>
<filter id="filter2_d" x="-7" y="48" width="45" height="45" filterUnits="userSpaceOnUse" color-interpolation-filters="sRGB">
<feFlood flood-opacity="0" result="BackgroundImageFix"/>
<feColorMatrix in="SourceAlpha" type="matrix" values="0 0 0 0 0 0 0 0 0 0 0 0 0 0 0 0 0 0 127 0" result="hardAlpha"/>
<feOffset dy="4"/>
<feGaussianBlur stdDeviation="2"/>
<feComposite in2="hardAlpha" operator="out"/>
<feColorMatrix type="matrix" values="0 0 0 0 0 0 0 0 0 0 0 0 0 0 0 0 0 0 0.25 0"/>
<feBlend mode="normal" in2="BackgroundImageFix" result="effect1_dropShadow"/>
<feBlend mode="normal" in="SourceGraphic" in2="effect1_dropShadow" result="shape"/>
</filter>
<linearGradient id="paint0_linear" x1="271.575" y1="40.2798" x2="113.62" y2="118.989" gradientUnits="userSpaceOnUse">
<stop stop-color="#317C2C"/>
<stop offset="1" stop-color="#8ADE83"/>
</linearGradient>
<linearGradient id="paint1_linear" x1="-16" y1="146.412" x2="56.15" y2="228" gradientUnits="userSpaceOnUse">
<stop stop-color="#317C2C"/>
<stop offset="1" stop-color="#8ADE83"/>
</linearGradient>
<linearGradient id="paint2_linear" x1="-3" y1="46.298" x2="31.225" y2="85" gradientUnits="userSpaceOnUse">
<stop stop-color="#317C2C"/>
<stop offset="1" stop-color="#8ADE83"/>
</linearGradient>
</defs>
</svg>
