<svg width="40" height="40" viewBox="0 0 40 40" fill="none" xmlns="http://www.w3.org/2000/svg">
  <circle cx="20" cy="20" r="20" fill="#EEF5ED" />
  <path opacity="0.7" fill-rule="evenodd" clip-rule="evenodd" d="M15.75 15.5C15.75 13.1528 17.6528 11.25 20 11.25C22.3472 11.25 24.25 13.1528 24.25 15.5C24.25 17.8472 22.3472 19.75 20 19.75C17.6528 19.75 15.75 17.8472 15.75 15.5ZM20 12.75C18.4812 12.75 17.25 13.9812 17.25 15.5C17.25 17.0188 18.4812 18.25 20 18.25C21.5188 18.25 22.75 17.0188 22.75 15.5C22.75 13.9812 21.5188 12.75 20 12.75ZM16 22.75C14.7574 22.75 13.75 23.7574 13.75 25V26.1883C13.75 26.2064 13.7631 26.2218 13.781 26.2247C17.8997 26.8972 22.1003 26.8972 26.219 26.2247C26.2369 26.2218 26.25 26.2064 26.25 26.1883V25C26.25 23.7574 25.2426 22.75 24 22.75H23.6591C23.6328 22.75 23.6066 22.7542 23.5815 22.7623L22.716 23.045C20.9512 23.6212 19.0488 23.6212 17.284 23.045L16.4185 22.7623C16.3934 22.7542 16.3672 22.75 16.3409 22.75H16ZM12.25 25C12.25 22.9289 13.9289 21.25 16 21.25H16.3409C16.5254 21.25 16.7087 21.2792 16.8841 21.3364L17.7496 21.6191C19.2119 22.0965 20.7881 22.0965 22.2504 21.6191L23.1159 21.3364C23.2913 21.2792 23.4746 21.25 23.6591 21.25H24C26.0711 21.25 27.75 22.9289 27.75 25V26.1883C27.75 26.9415 27.2041 27.5837 26.4607 27.7051C22.1819 28.4037 17.8181 28.4037 13.5393 27.7051C12.7959 27.5837 12.25 26.9415 12.25 26.1883V25Z" fill="#222622" />
</svg>
  