<svg width="17" height="17" viewBox="0 0 17 17" fill="none" xmlns="http://www.w3.org/2000/svg">
  <path d="M13.2128 0.25H1.44048C1.12474 0.25 0.82194 0.375425 0.598682 0.598682C0.375425 0.82194 0.25 1.12474 0.25 1.44048V15.7262C0.25 16.0419 0.375425 16.3447 0.598682 16.568C0.82194 16.7912 1.12474 16.9167 1.44048 16.9167H15.7262C16.0417 16.9158 16.3439 16.7901 16.567 16.567C16.7901 16.3439 16.9158 16.0417 16.9167 15.7262V3.95387L13.2128 0.25ZM3.22619 5.60714V3.22619H10.369V5.60714H3.22619ZM11.5562 12.2946C11.5291 12.8708 11.3352 13.4266 10.9981 13.8945C10.6609 14.3625 10.1951 14.7224 9.65721 14.9305C9.11933 15.1386 8.53256 15.186 7.96826 15.0668C7.40397 14.9476 6.88646 14.667 6.47866 14.2592C6.07086 13.8514 5.79036 13.3338 5.67124 12.7695C5.55213 12.2052 5.59955 11.6184 5.80773 11.0806C6.01591 10.5427 6.37588 10.0769 6.84387 9.73985C7.31186 9.40277 7.86771 9.20894 8.44382 9.18192C8.85743 9.16371 9.27029 9.23176 9.65617 9.38175C10.042 9.53175 10.3925 9.76039 10.6852 10.0532C10.9779 10.3459 11.2065 10.6964 11.3565 11.0823C11.5064 11.4682 11.5744 11.881 11.5562 12.2946Z" fill="white" />
</svg>
  