<svg width="16" height="16" viewBox="0 0 16 16" fill="none" xmlns="http://www.w3.org/2000/svg">
<path fill-rule="evenodd" clip-rule="evenodd" d="M7.68942 0C3.44267 0 0 3.36664 0 7.51959C0 11.6725 3.44267 15.0392 7.68942 15.0392C9.50584 15.0392 11.1752 14.4233 12.4909 13.3934L14.9901 15.831L15.0566 15.887C15.2887 16.0549 15.6177 16.0358 15.8276 15.83C16.0586 15.6035 16.0581 15.2368 15.8265 15.011L13.3567 12.6019C14.6124 11.2636 15.3788 9.47912 15.3788 7.51959C15.3788 3.36664 11.9362 0 7.68942 0ZM7.68945 1.15836C11.2821 1.15836 14.1945 4.00644 14.1945 7.51973C14.1945 11.033 11.2821 13.8811 7.68945 13.8811C4.09681 13.8811 1.1844 11.033 1.1844 7.51973C1.1844 4.00644 4.09681 1.15836 7.68945 1.15836Z" fill="white"/>
</svg>
