<svg width="16" height="16" viewBox="0 0 16 16" fill="none" xmlns="http://www.w3.org/2000/svg">
  <path d="M13.8709 5.08175L13.456 4.36169C13.1049 3.75241 12.327 3.54223 11.7169 3.89183C11.4265 4.06291 11.0799 4.11145 10.7536 4.02674C10.4274 3.94203 10.1483 3.73103 9.97772 3.44026C9.86805 3.25545 9.80912 3.04494 9.80685 2.83004C9.81678 2.48549 9.68678 2.15161 9.44652 1.90446C9.20625 1.65731 8.87618 1.51792 8.53152 1.51807H7.69552C7.35785 1.51806 7.03405 1.65262 6.79585 1.89197C6.55763 2.13133 6.42462 2.45574 6.42624 2.79343C6.41624 3.49063 5.84816 4.05055 5.15088 4.05048C4.93598 4.04825 4.72548 3.98931 4.54066 3.87962C3.93055 3.53002 3.15258 3.74021 2.80153 4.34949L2.35607 5.08175C2.00544 5.69027 2.21277 6.46775 2.81984 6.8209C3.21444 7.0487 3.45753 7.46977 3.45753 7.92537C3.45753 8.38103 3.21444 8.80203 2.81984 9.0299C2.21354 9.38063 2.00599 10.1562 2.35607 10.7629L2.77712 11.4891C2.9416 11.7859 3.21758 12.0049 3.54397 12.0976C3.87036 12.1904 4.22026 12.1493 4.51626 11.9834C4.80722 11.8136 5.15396 11.767 5.4794 11.8542C5.80484 11.9412 6.082 12.1547 6.24928 12.4471C6.35897 12.632 6.41791 12.8424 6.42014 13.0574C6.42014 13.7617 6.99112 14.3327 7.69552 14.3327H8.53152C9.23352 14.3327 9.80352 13.7654 9.80685 13.0634C9.80525 12.7247 9.93912 12.3994 10.1786 12.1598C10.4181 11.9203 10.7435 11.7864 11.0823 11.7881C11.2967 11.7938 11.5063 11.8525 11.6925 11.959C12.301 12.3096 13.0785 12.1022 13.4316 11.4952L13.8709 10.7629C14.041 10.471 14.0877 10.1234 14.0007 9.7969C13.9136 9.4705 13.7 9.19223 13.4072 9.02377C13.1143 8.8553 12.9008 8.57703 12.8137 8.25063C12.7267 7.92423 12.7733 7.57657 12.9434 7.28463C13.054 7.09157 13.2141 6.9315 13.4072 6.8209C14.0106 6.46794 14.2175 5.69501 13.8709 5.08786V5.08175Z" stroke="#60685F" stroke-linecap="round" stroke-linejoin="round" />
  <path d="M8.11671 9.68312C9.08726 9.68312 9.87404 8.89634 9.87404 7.92579C9.87404 6.95524 9.08726 6.16846 8.11671 6.16846C7.14616 6.16846 6.35938 6.95524 6.35938 7.92579C6.35938 8.89634 7.14616 9.68312 8.11671 9.68312Z" stroke="#60685F" stroke-linecap="round" stroke-linejoin="round" />
</svg>