<svg width="16" height="18" viewBox="0 0 16 18" fill="none" xmlns="http://www.w3.org/2000/svg">
  <path d="M14.8635 12.3868C14.2479 11.7253 13.096 10.7303 13.096 7.47071C13.096 4.99498 11.3602 3.01311 9.01953 2.52689V1.86287C9.01953 1.29985 8.56325 0.843262 8.00056 0.843262C7.43786 0.843262 6.98159 1.29985 6.98159 1.86287V2.52689C4.64095 3.01311 2.90507 4.99498 2.90507 7.47071C2.90507 10.7303 1.75323 11.7253 1.13764 12.3868C0.946465 12.5923 0.86171 12.838 0.863303 13.0786C0.866808 13.6011 1.27688 14.0982 1.8861 14.0982H14.115C14.7242 14.0982 15.1346 13.6011 15.1378 13.0786C15.1394 12.838 15.0546 12.592 14.8635 12.3868ZM3.01499 12.5688C3.69112 11.6776 4.43034 10.2004 4.43384 7.48919C4.43384 7.48282 4.43193 7.47709 4.43193 7.47071C4.43193 5.49968 6.02953 3.90209 8.00056 3.90209C9.97159 3.90209 11.5692 5.49968 11.5692 7.47071C11.5692 7.47709 11.5673 7.48282 11.5673 7.48919C11.5708 10.2007 12.31 11.6779 12.9861 12.5688H3.01499ZM8.00056 17.157C9.12595 17.157 10.0388 16.2441 10.0388 15.1178H5.9623C5.9623 16.2441 6.87516 17.157 8.00056 17.157Z" fill="#60685F" />
</svg>
  