<svg width="16" height="16" viewBox="0 0 16 16" fill="none" xmlns="http://www.w3.org/2000/svg">
  <path d="M6.66536 2.38574C6.38922 2.38574 6.16536 2.16188 6.16536 1.88574C6.16536 1.6096 6.38922 1.38574 6.66536 1.38574H9.02236C9.2985 1.38574 9.52236 1.6096 9.52236 1.88574C9.52236 2.16188 9.2985 2.38574 9.02236 2.38574H6.66536ZM4.35225 2.68701C4.54751 2.88228 4.54751 3.19886 4.35225 3.39412L2.68558 5.06078C2.49032 5.25605 2.17374 5.25605 1.97848 5.06078C1.78322 4.86552 1.78322 4.54894 1.97848 4.35368L3.64514 2.68701C3.8404 2.49175 4.15699 2.49175 4.35225 2.68701Z" fill="#222622" />
  <path fill-rule="evenodd" clip-rule="evenodd" d="M7.9987 3.37402C4.86908 3.37402 2.33203 5.91108 2.33203 9.04072C2.33203 12.1703 4.86908 14.7074 7.9987 14.7074C11.1283 14.7074 13.6654 12.1703 13.6654 9.04072C13.6654 5.91108 11.1283 3.37402 7.9987 3.37402ZM11.326 5.84788C11.4292 5.71518 11.4174 5.5264 11.2985 5.40753C11.1796 5.28866 10.9909 5.2769 10.8582 5.38011L8.74223 7.02585L7.3585 8.01425C7.1073 8.19365 6.95823 8.48332 6.95823 8.79198C6.95823 9.31985 7.38616 9.74778 7.91403 9.74778C8.22276 9.74778 8.51243 9.59872 8.69183 9.34752L9.68023 7.96385L11.326 5.84788Z" fill="#222622" />
</svg>
  