<svg width="22" height="22" viewBox="0 0 22 22" fill="none" xmlns="http://www.w3.org/2000/svg">
  <path fill-rule="evenodd" clip-rule="evenodd" d="M6.48381 1H15.5162C18.5448 1 21 3.65897 21 6.93884V15.0612C21 18.341 18.5448 21 15.5162 21H6.48381C3.45524 21 1 18.341 1 15.0612V6.93884C1 3.65897 3.45524 1 6.48381 1Z" stroke="#60685F" stroke-width="1.5" stroke-linecap="round" stroke-linejoin="round" />
  <path d="M14.1557 6C14.8316 6 15.3013 6.67258 15.0686 7.30716L12.3738 14.6548C12.1276 15.3259 11.4888 15.772 10.774 15.772C10.0592 15.772 9.42037 15.3259 9.17424 14.6548L6.48291 7.31668C6.24847 6.67748 6.72161 6 7.40245 6C7.81995 6 8.19156 6.26466 8.32805 6.65922L10.788 13.77L13.2363 6.65593C13.3713 6.26346 13.7406 6 14.1557 6Z" fill="#60685F" />
</svg>
  