<svg width="22" height="23" viewBox="0 0 22 23" fill="none" xmlns="http://www.w3.org/2000/svg">
  <path opacity="0.7" fill-rule="evenodd" clip-rule="evenodd" d="M5.33329 5.99967C5.33329 2.87006 7.87035 0.333008 11 0.333008C14.1296 0.333008 16.6666 2.87006 16.6666 5.99967C16.6666 9.12929 14.1296 11.6663 11 11.6663C7.87035 11.6663 5.33329 9.12929 5.33329 5.99967ZM11 2.33301C8.97489 2.33301 7.33329 3.97463 7.33329 5.99967C7.33329 8.02471 8.97489 9.66634 11 9.66634C13.025 9.66634 14.6666 8.02471 14.6666 5.99967C14.6666 3.97463 13.025 2.33301 11 2.33301ZM5.66663 15.6663C4.00977 15.6663 2.66663 17.0095 2.66663 18.6663V20.2507C2.66663 20.2749 2.68411 20.2954 2.70792 20.2993C8.19959 21.1959 13.8004 21.1959 19.292 20.2993C19.3158 20.2954 19.3333 20.2749 19.3333 20.2507V18.6663C19.3333 17.0095 17.9901 15.6663 16.3333 15.6663H15.8788C15.8437 15.6663 15.8088 15.6719 15.7753 15.6827L14.6213 16.0597C12.2682 16.8279 9.73169 16.8279 7.3786 16.0597L6.22459 15.6827C6.19119 15.6719 6.15625 15.6663 6.12112 15.6663H5.66663ZM0.666626 18.6663C0.666626 15.9049 2.9052 13.6663 5.66663 13.6663H6.12112C6.36711 13.6663 6.61155 13.7053 6.84539 13.7815L7.99941 14.1585C9.94916 14.795 12.0508 14.795 14.0005 14.1585L15.1545 13.7815C15.3884 13.7053 15.6328 13.6663 15.8788 13.6663H16.3333C19.0948 13.6663 21.3333 15.9049 21.3333 18.6663V20.2507C21.3333 21.255 20.6054 22.1113 19.6142 22.2731C13.9092 23.2046 8.09076 23.2046 2.38565 22.2731C1.39447 22.1113 0.666626 21.255 0.666626 20.2507V18.6663Z" fill="#222622"/>
  </svg>
  