<?xml version="1.0" encoding="iso-8859-1"?>
<!-- Generator: Adobe Illustrator 19.0.0, SVG Export Plug-In . SVG Version: 6.00 Build 0)  -->
<svg version="1.1" id="Capa_1" xmlns="http://www.w3.org/2000/svg" xmlns:xlink="http://www.w3.org/1999/xlink" x="0px" y="0px"
	 viewBox="0 0 512 512" style="enable-background:new 0 0 512 512;" xml:space="preserve">
<g>
	<g transform="translate(1 1)">
		<g>
			<path style="fill:#BFB186;" d="M102.766,338.285l-1.365,0.341c-2.248,2.438-5.061,4.284-8.192,5.376
				c-18.006,5.717-30.037-23.723-34.731-36.267c-6.315-16.811-13.568-37.632-7.168-55.467c1.661-6.191,7.33-10.452,13.739-10.325
				c10.836,2.004,20.656,7.667,27.819,16.043C92.605,285.073,95.934,312.074,102.766,338.285z"/>
			<path style="fill:#BFB186;" d="M451.524,307.736c-4.693,12.544-16.725,41.984-34.731,36.267c-3.13-1.092-5.944-2.939-8.191-5.376
				l-1.365-0.341c6.832-26.211,10.16-53.213,9.898-80.299c7.162-8.375,16.982-14.038,27.819-16.043
				c6.409-0.126,12.078,4.134,13.739,10.325C465.092,270.104,457.839,290.925,451.524,307.736z"/>
		</g>
		<path style="fill:#D84315;" d="M331.118,94.829c0.446-3.481,0.674-6.987,0.683-10.496c0.031-30.013-17.442-57.288-44.72-69.807
			s-59.35-7.983-82.086,11.61h-0.085c-16.991,14.556-26.752,35.824-26.709,58.197c0.009,3.509,0.238,7.015,0.683,10.496
			c-4.211,2.199-8.286,4.65-12.203,7.339c-43.032,27.763-70.305,74.327-73.472,125.44c21.299,3.192,43.02,2.148,63.915-3.072
			c5.566-1.449,10.991-3.391,16.212-5.803c12.175-5.308,22.74-13.725,30.635-24.405c11.954-17.202,17.893-37.87,16.896-58.795
			c0,0,10.411,76.544,100.352,91.392c19.608,2.977,39.529,3.292,59.221,0.939c12.074-1.3,24.068-3.266,35.925-5.888
			C411.05,167.987,379.044,120.25,331.118,94.829z M222.318,92.952c-0.595-0.071-1.193-0.1-1.792-0.085
			c13.702-0.005,27.349,1.728,40.615,5.158C248.453,94.769,235.416,93.066,222.318,92.952z M288.041,107.604
			c-0.71-0.329-1.449-0.606-2.166-0.925C286.592,106.997,287.33,107.275,288.041,107.604z M279.249,103.864
			c-1.731-0.675-3.504-1.264-5.263-1.879C275.745,102.602,277.519,103.187,279.249,103.864L279.249,103.864z M270.285,100.674
			c-2.635-0.849-5.31-1.609-8.004-2.323C264.972,99.068,267.65,99.822,270.285,100.674z"/>
		<g>
			<path style="fill:#FF5722;" d="M380.441,227.864c-19.693,2.354-39.613,2.038-59.221-0.939
				c-89.941-14.848-100.352-91.392-100.352-91.392c0.997,20.924-4.942,41.592-16.896,58.795
				c-7.895,10.681-18.46,19.097-30.635,24.405c-5.221,2.411-10.647,4.353-16.212,5.803c-20.895,5.22-42.615,6.264-63.915,3.072
				c3.167-51.113,30.44-97.677,73.472-125.44c17.275-6.191,35.494-9.338,53.845-9.301c0.599-0.014,1.197,0.014,1.792,0.085
				c25.947,0.179,51.459,6.681,74.325,18.944C341.048,135.466,372.003,178.305,380.441,227.864z"/>
			<path style="fill:#FF5722;" d="M297.327,101.4c-0.01,3.509-0.238,7.015-0.683,10.496c-23.404-12.551-49.56-19.09-76.117-19.029
				c-18.351-0.037-36.57,3.11-53.845,9.301c3.917-2.689,7.992-5.139,12.203-7.339c-0.446-3.481-0.674-6.987-0.683-10.496
				c-0.042-22.373,9.719-43.642,26.709-58.197h0.085c39.502-8.004,78.507,15.756,89.515,54.528
				C296.365,87.42,297.312,94.394,297.327,101.4z"/>
		</g>
		<path style="fill:#D84315;" d="M202.009,482.755c-84.395,49.323-143.275-9.557-143.275-9.557
			c38.913,13.482,58.113-47.701,65.024-77.909C141.235,431.13,168.326,461.412,202.009,482.755z"/>
		<path style="fill:#BFB186;" d="M417.135,257.987v-20.053c0-5.376-0.256-10.752-0.769-15.957
			c-8.789,1.877-17.151,3.413-25.173,4.523c-16.71,2.546-33.635,3.404-50.517,2.56c-6.518-0.369-13.013-1.081-19.456-2.133
			c-89.941-14.848-100.352-91.392-100.352-91.392c0.343,14.448-2.24,28.816-7.595,42.24c-7.396,18.382-21.748,33.102-39.937,40.96
			c-21.435,8.803-44.675,12.315-67.754,10.24c-4.147-0.222-8.278-0.677-12.373-1.365c-0.071,0.595-0.1,1.193-0.085,1.792
			c-0.171,2.816-0.256,5.632-0.256,8.533v20.053c-0.263,27.086,3.066,54.087,9.898,80.299c4.904,19.68,11.944,38.766,20.993,56.917
			v0.085c17.476,35.842,44.567,66.124,78.251,87.467c8.259,5.201,16.87,9.82,25.771,13.824c8.568,3.828,17.838,5.834,27.221,5.888
			c9.39,0.005,18.672-2.002,27.221-5.888c8.901-4.004,17.512-8.623,25.771-13.824c33.683-21.343,60.774-51.624,78.251-87.467v-0.085
			c9.049-18.152,16.088-37.237,20.993-56.917C414.069,312.074,417.397,285.073,417.135,257.987z"/>
		<path style="fill:#FFE0B2;" d="M391.62,257.987v-20.053c0-3.84-0.171-7.68-0.427-11.435c-0.085-1.536-0.171-3.072-0.341-4.523
			c-16.512,3.679-33.29,6.047-50.175,7.083c-15.023,0.876-30.097,0.16-44.971-2.133c-33.157-4.093-63.068-21.928-82.433-49.152
			c-7.396,18.382-21.748,33.102-39.937,40.96c-21.435,8.803-44.675,12.315-67.754,10.24c-4.352,0.256-8.533,0.427-12.459,0.427
			c-0.171,2.816-0.256,5.632-0.256,8.533v20.053c-0.263,27.086,3.066,54.087,9.898,80.299c4.904,19.68,11.944,38.766,20.993,56.917
			v0.085c17.476,35.842,44.567,66.124,78.251,87.467c8.259,5.201,16.87,9.82,25.771,13.824c4.634,2.11,9.504,3.657,14.507,4.608
			c4.975-0.951,9.817-2.498,14.421-4.608c8.901-4.004,17.512-8.623,25.771-13.824c33.683-21.343,60.774-51.624,78.251-87.467v-0.085
			c9.049-18.151,16.088-37.237,20.992-56.917C388.554,312.074,391.883,285.073,391.62,257.987z"/>
		<path style="fill:#D84315;" d="M451.268,473.197c0,0-58.88,58.88-143.275,9.557c33.683-21.343,60.774-51.624,78.251-87.467
			C393.155,425.496,412.355,486.68,451.268,473.197z"/>
		<g>
			<path style="fill:#2FA8CC;" d="M203.801,280.6v21.333c0,11.782-9.551,21.333-21.333,21.333s-21.333-9.551-21.333-21.333V280.6
				H203.801z"/>
			<path style="fill:#2FA8CC;" d="M348.868,280.6v21.333c0,11.782-9.551,21.333-21.333,21.333c-11.782,0-21.333-9.551-21.333-21.333
				V280.6H348.868z"/>
		</g>
	</g>
	<g>
		<path d="M415.185,353.175c17.708,5.6,32.925-8.375,45.358-41.467c7.558-20.15,14.333-41.483,7.125-61.342
			c-2.983-9.675-12.037-16.185-22.159-15.933c-6.746,0.553-13.236,2.837-18.842,6.63v-2.13
			c-0.071-61.054-32.756-117.418-85.71-147.805c0.125-1.923,0.377-3.926,0.377-5.795C341.335,38.205,303.13,0,256.001,0
			s-85.333,38.205-85.333,85.333c0,1.869,0.252,3.872,0.377,5.795c-49.149,28.282-81.039,79.132-85.097,135.693
			c-0.034,0.156-0.137,0.277-0.164,0.437c-0.03,0.521-0.009,1.044,0.063,1.56c-0.199,3.365-0.513,6.7-0.513,10.115v2.13
			c-5.603-3.792-12.09-6.075-18.833-6.63c-10.121-0.23-19.169,6.275-22.175,15.942c-7.2,19.85-0.425,41.183,7.133,61.333
			c12.433,33.108,27.633,47.042,45.375,41.467c0.675-0.217,1.342-0.467,2.008-0.75c4.461,15.196,10.151,30.004,17.015,44.276
			c-8.446,35.544-21.254,60.376-35.331,68.182c-5.507,3.103-12.117,3.562-18,1.25c-3.757-1.299-7.914,0.169-10.023,3.538
			c-2.109,3.37-1.612,7.75,1.198,10.561c22.775,20.173,52.092,31.406,82.517,31.617c23.394-0.353,46.314-6.644,66.609-18.283
			c7.237,4.361,14.716,8.308,22.399,11.825c9.648,4.377,20.123,6.63,30.716,6.608h0.117c10.596,0.021,21.074-2.232,30.725-6.608
			c7.682-3.516,15.159-7.463,22.395-11.822c20.293,11.642,43.213,17.932,66.605,18.281c30.424-0.213,59.74-11.445,82.516-31.617
			c2.81-2.812,3.307-7.191,1.198-10.561c-2.109-3.37-6.265-4.837-10.023-3.539c-5.884,2.303-12.491,1.844-18-1.25
			c-14.077-7.804-26.89-32.628-35.333-68.175c6.864-14.275,12.555-29.085,17.017-44.283
			C413.826,352.708,414.501,352.958,415.185,353.175z M446.401,251.483c0.817-0.083,3.45-0.175,5.225,4.708
			c5.225,14.392-0.625,32.35-7.067,49.517c-8.283,22.092-17.208,33.508-24.208,31.2c-0.974-0.335-1.882-0.837-2.683-1.483
			c5.72-23.879,8.753-48.322,9.042-72.875C431.868,256.785,438.794,252.892,446.401,251.483z M256.001,17.067
			c36.58,0.059,66.618,28.931,68.125,65.48c-43.421-19.04-92.829-19.04-136.25,0C189.383,45.998,219.421,17.126,256.001,17.067z
			 M256.001,85.333c75.962,0.136,140.432,55.74,151.725,130.858c-27.627,6.03-56.1,7.152-84.117,3.317
			c-82.333-13.6-92.883-81.275-93.283-84.125c-0.099-0.368-0.224-0.728-0.374-1.078c-0.129-0.545-0.313-1.075-0.549-1.583
			c-0.253-0.47-0.553-0.914-0.894-1.325c-0.595-0.871-1.397-1.581-2.334-2.065c-0.503-0.32-1.04-0.584-1.601-0.788
			c-0.491-0.146-0.993-0.247-1.502-0.303c-0.395-0.111-0.797-0.193-1.204-0.243c-0.204,0-0.375,0.102-0.575,0.116
			c-0.197,0.011-0.376-0.066-0.575-0.041c-0.363,0.099-0.719,0.223-1.066,0.372c-1.081,0.221-2.086,0.718-2.918,1.443
			c-0.448,0.325-0.862,0.695-1.235,1.103c-0.336,0.409-0.632,0.848-0.884,1.313c-0.289,0.463-0.531,0.953-0.723,1.464
			c-0.169,0.544-0.283,1.105-0.337,1.673c-0.099,0.358-0.172,0.723-0.22,1.091c0,37.208-14.308,62.592-42.567,75.45
			c-21.315,8.56-44.42,11.706-67.248,9.155C112.618,143.785,178.115,85.451,256.001,85.333z M91.668,336.908
			c-7.075,2.217-15.942-9.117-24.225-31.2c-6.442-17.167-12.292-35.125-7.075-49.508c1.583-4.35,3.808-4.733,4.883-4.733
			c0.142,0,0.258,0.009,0.358,0.017c7.604,1.411,14.526,5.303,19.683,11.067c0.289,24.553,3.322,48.996,9.042,72.875
			C93.535,336.066,92.634,336.567,91.668,336.908z M84.793,481.758c1.37-0.577,2.708-1.228,4.008-1.95
			c18.981-10.519,31.188-36.348,38.875-61.382c15.091,25.153,35.049,47.042,58.704,64.387
			C154.465,499.441,116.357,499.045,84.793,481.758z M423.201,479.808c1.3,0.722,2.638,1.373,4.008,1.95
			c-31.56,17.294-69.67,17.691-101.583,1.058c23.655-17.344,43.611-39.234,58.7-64.387
			C392.014,443.463,404.22,469.29,423.201,479.808z M279.743,489.842c-7.438,3.375-15.515,5.111-23.683,5.092h-0.117
			c-8.166,0.021-16.24-1.716-23.675-5.092C96.851,428.417,102.326,261.017,102.393,259.333c0.002-0.062-0.031-0.117-0.029-0.178
			c0.001-0.067,0.037-0.121,0.037-0.189v-20.033c0-0.246,0.035-0.484,0.037-0.73c4.55,0.416,10.301,0.763,16.838,0.763
			c20.121,0.359,40.09-3.549,58.592-11.467c23.568-10.363,41.178-30.84,47.896-55.694c13.402,24.814,40.654,55.558,95.071,64.544
			c10.965,1.747,22.055,2.603,33.158,2.558c18.576-0.175,37.096-2.078,55.319-5.687c0.071,1.911,0.29,3.784,0.29,5.712v20.033
			c0,0.068,0.037,0.124,0.039,0.192c0.001,0.063-0.032,0.12-0.03,0.183C409.685,261.025,415.385,428.308,279.743,489.842z"/>
		<path d="M213.335,302.933V281.6c0.001-2.264-0.897-4.435-2.498-6.035c-1.601-1.601-3.772-2.499-6.035-2.498h-59.733
			c-4.713,0-8.533,3.82-8.533,8.533s3.82,8.533,8.533,8.533h8.533v12.8c0,16.495,13.372,29.867,29.867,29.867
			S213.335,319.428,213.335,302.933z M196.268,302.933c0,7.069-5.731,12.8-12.8,12.8s-12.8-5.731-12.8-12.8v-12.8h25.6V302.933z"/>
		<path d="M366.935,273.067h-59.733c-2.264-0.001-4.435,0.897-6.035,2.498c-1.601,1.601-2.499,3.772-2.498,6.035v21.333
			c0,16.495,13.372,29.867,29.867,29.867c16.495,0,29.867-13.372,29.867-29.867v-12.8h8.533c4.713,0,8.533-3.821,8.533-8.533
			S371.647,273.067,366.935,273.067z M341.335,302.933c0,7.069-5.731,12.8-12.8,12.8s-12.8-5.731-12.8-12.8v-12.8h25.6V302.933z"/>
		<path d="M238.935,375.467h34.133c4.713,0,8.533-3.82,8.533-8.533s-3.82-8.533-8.533-8.533h-34.133
			c-4.713,0-8.533,3.82-8.533,8.533S234.222,375.467,238.935,375.467z"/>
		<path d="M256.001,341.333c2.264,0.001,4.435-0.897,6.035-2.498c1.601-1.601,2.499-3.772,2.498-6.035v-17.067
			c0-4.713-3.821-8.533-8.533-8.533c-4.713,0-8.533,3.821-8.533,8.533V332.8c-0.001,2.264,0.897,4.435,2.498,6.035
			C251.567,340.436,253.738,341.335,256.001,341.333z"/>
		<path d="M307.201,401.067h-102.4c-4.713,0-8.533,3.821-8.533,8.533c0,4.713,3.821,8.533,8.533,8.533h102.4
			c4.713,0,8.533-3.821,8.533-8.533C315.735,404.887,311.914,401.067,307.201,401.067z"/>
		<path d="M281.601,426.667c-2.264-0.001-4.435,0.897-6.035,2.498c-1.601,1.601-2.499,3.772-2.498,6.035h-34.133
			c-4.713,0-8.533,3.821-8.533,8.533c0,4.713,3.821,8.533,8.533,8.533h42.667c2.264,0.001,4.435-0.897,6.035-2.498
			c1.601-1.601,2.499-3.772,2.498-6.035V435.2c0.001-2.264-0.897-4.435-2.498-6.035
			C286.036,427.564,283.865,426.665,281.601,426.667z"/>
	</g>
</g>
<g>
</g>
<g>
</g>
<g>
</g>
<g>
</g>
<g>
</g>
<g>
</g>
<g>
</g>
<g>
</g>
<g>
</g>
<g>
</g>
<g>
</g>
<g>
</g>
<g>
</g>
<g>
</g>
<g>
</g>
</svg>
