<?xml version="1.0" encoding="iso-8859-1"?>
<!-- Generator: Adobe Illustrator 19.0.0, SVG Export Plug-In . SVG Version: 6.00 Build 0)  -->
<svg version="1.1" id="Capa_1" xmlns="http://www.w3.org/2000/svg" xmlns:xlink="http://www.w3.org/1999/xlink" x="0px" y="0px"
	 viewBox="0 0 511.987 511.987" style="enable-background:new 0 0 511.987 511.987;" xml:space="preserve">
<g>
	<g transform="translate(1)">
		<g>
			<path style="fill:#BFB186;" d="M75.837,221.87v85.333H41.704c-9.414-0.028-17.039-7.653-17.067-17.067v-51.2
				c0.028-9.414,7.652-17.039,17.067-17.067H75.837z"/>
			<path style="fill:#BFB186;" d="M451.304,238.936v51.2c-0.028,9.414-7.652,17.039-17.067,17.067h-34.133V221.87h34.133
				C443.651,221.897,451.276,229.522,451.304,238.936z"/>
			<path style="fill:#BFB186;" d="M289.17,59.736h-6.4l-1.28,10.24l-7.765,62.208c-1.681,7.913-8.908,13.397-16.981,12.885h-37.547
				c-8.073,0.512-15.301-4.973-16.981-12.885l-9.045-72.448h-6.4c-14.754,0.02-29.302,3.467-42.496,10.069
				c-0.094-0.012-0.188,0.02-0.256,0.085c-40.021,19.883-68.181,66.816-68.181,121.6v115.712
				c1.333,36.489,10.685,72.237,27.392,104.704c21.983,43.273,61.267,75.209,108.117,87.893c16.007,4.474,32.887,4.827,49.067,1.024
				c1.412-0.261,2.808-0.603,4.181-1.024c46.827-12.678,86.104-44.577,108.117-87.808v-0.085
				c16.707-32.467,26.059-68.215,27.392-104.704V191.491C400.104,118.702,350.44,59.736,289.17,59.736z"/>
		</g>
		<path style="fill:#FFECB3;" d="M281.49,69.976c-5.906-1.133-11.906-1.705-17.92-1.707h-6.4l-9.045,72.448
			c-0.184,1.534-0.678,3.014-1.451,4.352c-3.214,5.484-9.179,8.761-15.531,8.533h-37.547c-8.073,0.512-15.301-4.973-16.981-12.885
			L167.57,68.27h-6.4c-5.667-0.005-11.323,0.51-16.896,1.536c-0.094-0.012-0.188,0.02-0.256,0.085
			c-40.021,19.883-68.181,66.816-68.181,121.6v115.712c1.333,36.489,10.685,72.237,27.392,104.704
			c21.983,43.273,61.267,75.209,108.117,87.893c16.007,4.474,32.887,4.827,49.067,1.024c37.512-15.631,68.242-44.093,86.699-80.299
			v-0.085c16.707-32.467,26.059-68.215,27.392-104.704V200.024C374.504,134.488,334.226,80.131,281.49,69.976z"/>
		<path style="fill:#AD1457;" d="M287.208,24.408l-4.437,35.328l-9.045,72.448c-1.681,7.913-8.908,13.397-16.981,12.885h-37.547
			c-8.073,0.512-15.301-4.973-16.981-12.885l-9.045-72.448l-4.437-35.328c-0.101-4.437,1.696-8.706,4.938-11.737
			c3.242-3.031,7.623-4.535,12.043-4.135h64.512c4.42-0.4,8.801,1.104,12.043,4.135C285.512,15.702,287.308,19.971,287.208,24.408z"
			/>
		<path style="fill:#E91E63;" d="M263.485,24.408l-4.437,35.328l-9.045,72.448c-1.68,7.913-8.908,13.397-16.981,12.885h-13.824
			c-8.073,0.512-15.301-4.973-16.981-12.885l-9.045-72.448l-4.437-35.328c-0.101-4.437,1.696-8.706,4.938-11.737
			c3.242-3.031,7.623-4.535,12.043-4.135h40.789c4.42-0.4,8.801,1.104,12.043,4.135S263.586,19.971,263.485,24.408z"/>
		<g>
			<path style="fill:#00BCD4;" d="M195.304,264.536v21.333c0,11.782-9.551,21.333-21.333,21.333
				c-11.782,0-21.333-9.551-21.333-21.333v-21.333H195.304z"/>
			<path style="fill:#00BCD4;" d="M323.304,264.536v21.333c0,11.782-9.551,21.333-21.333,21.333s-21.333-9.551-21.333-21.333
				v-21.333H323.304z"/>
		</g>
		<g>
			<path style="fill:#E91E63;" d="M476.904,315.736c0,14.138-11.462,25.6-25.6,25.6s-25.6-11.462-25.6-25.6
				c-0.018-2.915,0.503-5.808,1.536-8.533h6.997c9.414-0.028,17.039-7.653,17.067-17.067c6.792-0.009,13.309,2.685,18.112,7.488
				C474.218,302.427,476.913,308.944,476.904,315.736z"/>
			<path style="fill:#E91E63;" d="M442.258,486.318c18.517-25.515-25.088-34.133-25.088-76.715
				c0.836-26.464,12.947-51.307,33.28-68.267C531.944,416.515,446.013,483.502,442.258,486.318z"/>
		</g>
		<g>
			<path style="fill:#FDD834;" d="M340.37,119.47c-2.27,0.022-4.453-0.87-6.058-2.475c-1.605-1.605-2.497-3.788-2.475-6.058
				c0-4.713,3.82-8.533,8.533-8.533s8.533,3.821,8.533,8.533c0.022,2.27-0.87,4.453-2.475,6.058
				C344.823,118.6,342.64,119.492,340.37,119.47z"/>
			<path style="fill:#FDD834;" d="M357.437,145.07c-2.854,0.027-5.529-1.388-7.113-3.763c-1.584-2.374-1.863-5.388-0.741-8.012
				c0.413-1.045,1.022-2.001,1.796-2.817c1.994-2.072,4.909-2.981,7.727-2.41c2.818,0.571,5.15,2.542,6.181,5.227
				c1.124,2.624,0.847,5.638-0.736,8.013C362.967,143.683,360.291,145.098,357.437,145.07z"/>
			<path style="fill:#FDD834;" d="M323.304,145.07c-2.27,0.022-4.453-0.87-6.058-2.475c-1.605-1.605-2.497-3.788-2.475-6.058
				c0-4.713,3.821-8.533,8.533-8.533s8.533,3.821,8.533,8.533c0.022,2.27-0.87,4.453-2.475,6.058S325.573,145.092,323.304,145.07z"
				/>
			<path style="fill:#FDD834;" d="M306.237,119.47c-2.27,0.022-4.453-0.87-6.058-2.475c-1.605-1.605-2.497-3.788-2.475-6.058
				c0-4.713,3.82-8.533,8.533-8.533s8.533,3.821,8.533,8.533c0.022,2.27-0.87,4.453-2.475,6.058
				C310.69,118.6,308.507,119.492,306.237,119.47z"/>
			<path style="fill:#FDD834;" d="M135.57,119.47c-2.27,0.022-4.453-0.87-6.058-2.475c-1.605-1.605-2.497-3.788-2.475-6.058
				c0.031-2.259,0.915-4.423,2.475-6.059c3.399-3.214,8.717-3.214,12.117,0c1.558,1.636,2.442,3.8,2.475,6.059
				c0.022,2.27-0.87,4.453-2.475,6.058C140.023,118.6,137.84,119.492,135.57,119.47z"/>
			<path style="fill:#FDD834;" d="M118.504,145.07c-2.27,0.021-4.453-0.871-6.059-2.475c-0.754-0.831-1.361-1.783-1.796-2.817
				c-0.475-1.013-0.708-2.123-0.679-3.242c0-3.049,1.626-5.866,4.267-7.39c2.64-1.524,5.893-1.524,8.533,0
				c2.64,1.524,4.267,4.341,4.267,7.39c0.029,1.119-0.205,2.229-0.683,3.242c-0.435,1.033-1.041,1.985-1.792,2.817
				C122.956,144.199,120.773,145.09,118.504,145.07z"/>
			<path style="fill:#FDD834;" d="M152.637,145.07c-2.854,0.027-5.529-1.388-7.113-3.763c-1.584-2.374-1.863-5.388-0.742-8.012
				c0.413-1.045,1.022-2.001,1.795-2.817c1.994-2.072,4.909-2.981,7.727-2.41c2.818,0.571,5.15,2.542,6.181,5.227
				c1.124,2.624,0.847,5.638-0.736,8.013C158.167,143.683,155.491,145.098,152.637,145.07z"/>
			<path style="fill:#FDD834;" d="M169.704,119.47c-2.27,0.022-4.453-0.87-6.058-2.475c-1.605-1.605-2.497-3.788-2.475-6.058
				c0-4.713,3.821-8.533,8.533-8.533c4.713,0,8.533,3.821,8.533,8.533c0.022,2.27-0.87,4.453-2.475,6.058
				C174.157,118.6,171.973,119.492,169.704,119.47z"/>
		</g>
	</g>
	<g>
		<path d="M307.237,401.07H170.704c-4.713,0-8.533,3.82-8.533,8.533s3.821,8.533,8.533,8.533h136.533
			c4.713,0,8.533-3.82,8.533-8.533S311.95,401.07,307.237,401.07z"/>
		<path d="M281.637,426.67c-2.263-0.001-4.434,0.898-6.035,2.499c-1.6,1.6-2.499,3.771-2.499,6.035h-76.8
			c-4.713,0-8.533,3.82-8.533,8.533s3.82,8.533,8.533,8.533h85.333c2.263,0.001,4.434-0.898,6.035-2.499
			c1.6-1.6,2.499-3.771,2.499-6.035v-8.533c0.001-2.263-0.898-4.434-2.499-6.035C286.071,427.568,283.9,426.669,281.637,426.67z"/>
		<path d="M209.516,348.92c1.19,0.604,2.507,0.918,3.842,0.917c3.207,0.003,6.147-1.785,7.621-4.634
			c3.561-6.869,10.305-11.517,17.992-12.4c7.685,0.881,14.429,5.526,17.992,12.392c2.13,4.189,7.246,5.866,11.443,3.753
			c4.197-2.113,5.895-7.223,3.799-11.428c-5.217-9.848-14.084-17.261-24.7-20.652v-26.732c0-4.713-3.82-8.533-8.533-8.533
			s-8.533,3.82-8.533,8.533v26.7c-10.626,3.39-19.496,10.818-24.7,20.683C203.645,341.712,205.334,346.807,209.516,348.92z"/>
		<path d="M261.041,361.936c-3.337-3.306-8.718-3.294-12.04,0.026c-3.323,3.32-3.338,8.701-0.034,12.04
			c8.618,8.643,21.195,12.027,32.986,8.874c11.791-3.153,21.001-12.362,24.155-24.153c3.154-11.791-0.228-24.369-8.871-32.987
			c-3.332-3.332-8.735-3.332-12.067,0c-3.332,3.332-3.332,8.735,0,12.067c3.202,3.2,5.001,7.541,5,12.068
			c-0.001,4.527-1.801,8.867-5.004,12.066C278.418,368.387,267.789,368.387,261.041,361.936z"/>
		<path d="M128.037,204.803c-0.001,2.263,0.898,4.434,2.499,6.035c1.6,1.6,3.771,2.499,6.035,2.499h59.733
			c4.713,0,8.533-3.821,8.533-8.533c0-4.713-3.821-8.533-8.533-8.533H136.57c-2.263-0.001-4.434,0.898-6.035,2.499
			C128.935,200.369,128.036,202.54,128.037,204.803z"/>
		<path d="M281.637,213.336h51.2c4.713,0,8.533-3.821,8.533-8.533c0-4.713-3.82-8.533-8.533-8.533h-51.2
			c-4.713,0-8.533,3.821-8.533,8.533C273.104,209.516,276.924,213.336,281.637,213.336z"/>
		<path d="M341.37,170.67c-4.713,0-8.533,3.821-8.533,8.533s3.82,8.533,8.533,8.533c9.426,0,17.067,7.641,17.067,17.067
			c0,9.426-7.641,17.067-17.067,17.067c-4.713,0-8.533,3.82-8.533,8.533s3.82,8.533,8.533,8.533
			c18.851,0,34.133-15.282,34.133-34.133S360.222,170.67,341.37,170.67z"/>
		<path d="M204.837,285.87v-21.333c0.001-2.263-0.898-4.434-2.499-6.035c-1.6-1.6-3.771-2.499-6.035-2.499H136.57
			c-4.713,0-8.533,3.82-8.533,8.533s3.82,8.533,8.533,8.533h8.533v12.8c0,16.495,13.372,29.867,29.867,29.867
			S204.837,302.365,204.837,285.87z M162.17,285.87v-12.8h25.6v12.8c0,7.069-5.731,12.8-12.8,12.8
			C167.901,298.67,162.17,292.939,162.17,285.87z"/>
		<path d="M341.37,256.003h-59.733c-2.263-0.001-4.434,0.898-6.035,2.499c-1.6,1.6-2.499,3.771-2.499,6.035v21.333
			c0,16.495,13.372,29.867,29.867,29.867s29.867-13.372,29.867-29.867v-12.8h8.533c4.713,0,8.533-3.82,8.533-8.533
			S346.083,256.003,341.37,256.003z M315.77,285.87c0,7.069-5.731,12.8-12.8,12.8s-12.8-5.731-12.8-12.8v-12.8h25.6V285.87z"/>
		<path d="M341.37,119.47c2.27,0.022,4.453-0.87,6.058-2.475c1.605-1.605,2.497-3.788,2.475-6.058c0-4.713-3.821-8.533-8.533-8.533
			s-8.533,3.821-8.533,8.533c-0.022,2.27,0.87,4.453,2.475,6.058C336.917,118.6,339.1,119.492,341.37,119.47z"/>
		<path d="M352.378,142.595c2.866,2.925,7.408,3.395,10.812,1.119c3.404-2.276,4.705-6.653,3.097-10.419
			c-1.251-3.247-4.372-5.389-7.852-5.389c-3.48,0-6.601,2.142-7.852,5.389C349.226,136.471,349.937,140.152,352.378,142.595z"/>
		<path d="M318.245,142.595c2.441,2.462,6.129,3.201,9.331,1.872s5.281-4.464,5.261-7.931c0-4.713-3.82-8.533-8.533-8.533
			s-8.533,3.821-8.533,8.533C315.747,138.806,316.639,140.99,318.245,142.595z"/>
		<path d="M307.237,119.47c2.27,0.022,4.453-0.87,6.058-2.475c1.605-1.605,2.497-3.788,2.475-6.058c0-4.713-3.82-8.533-8.533-8.533
			s-8.533,3.821-8.533,8.533c-0.022,2.27,0.87,4.453,2.475,6.058C302.784,118.6,304.967,119.492,307.237,119.47z"/>
		<path d="M136.57,119.47c2.27,0.022,4.453-0.87,6.058-2.475c1.605-1.605,2.497-3.788,2.475-6.058
			c-0.033-2.259-0.917-4.422-2.475-6.059c-3.399-3.214-8.717-3.214-12.117,0c-1.56,1.635-2.444,3.799-2.475,6.059
			c-0.022,2.27,0.87,4.453,2.475,6.058C132.117,118.6,134.3,119.492,136.57,119.47z"/>
		<path d="M125.562,130.478c-2.441-2.462-6.129-3.201-9.331-1.872c-3.202,1.329-5.281,4.464-5.261,7.931
			c-0.029,1.119,0.204,2.229,0.679,3.242c0.435,1.034,1.042,1.986,1.795,2.817c3.365,3.3,8.752,3.3,12.117,0
			c0.751-0.832,1.357-1.784,1.792-2.817c0.478-1.012,0.713-2.123,0.683-3.242C128.004,134.277,127.12,132.114,125.562,130.478z"/>
		<path d="M147.578,142.595c2.866,2.925,7.408,3.395,10.812,1.119c3.404-2.276,4.705-6.653,3.097-10.419
			c-1.251-3.247-4.372-5.389-7.852-5.389c-3.48,0-6.601,2.142-7.852,5.389C144.426,136.471,145.137,140.152,147.578,142.595z"/>
		<path d="M170.704,119.47c2.27,0.022,4.453-0.87,6.058-2.475c1.605-1.605,2.497-3.788,2.475-6.058c0-4.713-3.821-8.533-8.533-8.533
			c-4.713,0-8.533,3.821-8.533,8.533c-0.022,2.27,0.87,4.453,2.475,6.058C166.25,118.6,168.434,119.492,170.704,119.47z"/>
		<path d="M486.437,315.736c-0.045-15.521-10.568-29.054-25.6-32.922v-43.878c-0.015-14.132-11.468-25.585-25.6-25.6h-25.6v-21.842
			c0-76.073-51.857-138.056-116.225-140.099l3.241-25.926c0.743-6.102-1.207-12.226-5.342-16.775
			c-5.146-5.642-12.464-8.807-20.1-8.692h-64.483c-7.636-0.115-14.954,3.049-20.1,8.692c-4.135,4.549-6.085,10.673-5.342,16.775
			l3.241,25.926c-64.367,2.043-116.224,64.026-116.224,140.099v21.842h-25.6c-14.132,0.015-25.585,11.468-25.6,25.6v51.2
			c0.015,14.132,11.468,25.585,25.6,25.6h25.958c2.431,34.955,11.965,69.047,28.02,100.192
			c22.986,45.405,64.198,78.892,113.346,92.1c18.936,5.278,38.955,5.278,57.892,0c49.104-13.236,90.291-46.677,113.33-92.017
			c0.114-0.211,0.217-0.428,0.308-0.65c15.87-30.997,25.3-64.886,27.72-99.625h8.892c0.039,12.168,6.575,23.389,17.14,29.426
			c-16.176,17.601-25.314,40.538-25.673,64.441c0.543,18.334,7.858,35.818,20.533,49.075c9.95,12.333,11.437,15.383,6.092,22.683
			c-2.494,3.408-2.121,8.128,0.879,11.102c2.999,2.973,7.723,3.306,11.109,0.782c1.804-1.342,44.171-33.442,46.612-80.083
			c0.539-25.149-9.197-49.43-26.959-67.242C479.242,340.119,486.393,328.473,486.437,315.736z M199.42,19.986
			c1.921-1.951,4.572-3.009,7.308-2.917h64.483c2.737-0.092,5.387,0.965,7.308,2.917c0.88,0.888,1.32,2.122,1.2,3.367
			l-13.475,107.792c-1.211,3.576-4.753,5.822-8.504,5.392h-37.542c-3.751,0.43-7.293-1.816-8.504-5.392L198.22,23.353
			C198.101,22.108,198.54,20.875,199.42,19.986z M34.17,290.136v-51.2c0.005-4.711,3.822-8.529,8.533-8.533h25.6v25.6H51.237
			c-4.713,0-8.533,3.82-8.533,8.533s3.821,8.533,8.533,8.533h17.067v25.6h-25.6C37.993,298.665,34.175,294.847,34.17,290.136z
			 M366.174,407.945c-0.108,0.2-0.208,0.417-0.3,0.625c-20.962,40.907-58.219,71.064-102.596,83.042
			c-15.902,4.417-32.707,4.417-48.608,0c-44.625-12.013-82.038-42.432-102.904-83.667c-15.991-31.276-24.997-65.652-26.395-100.75
			v-115.7c0-67.493,45.335-122.421,101.276-123.156l8.116,64.923c2.182,12.198,13.058,20.896,25.437,20.342h37.542
			c12.379,0.554,23.256-8.143,25.438-20.342l8.116-64.923c55.94,0.735,101.275,55.663,101.275,123.156v115.708
			C391.205,342.304,382.197,376.684,366.174,407.945z M409.637,298.67v-25.6h17.067c4.713,0,8.533-3.82,8.533-8.533
			s-3.82-8.533-8.533-8.533h-17.067v-25.6h25.6c4.711,0.005,8.529,3.822,8.533,8.533v51.2c-0.005,4.711-3.822,8.529-8.533,8.533
			H409.637z M458.855,299.987c7.903,3.289,12.146,11.923,9.921,20.189c-2.225,8.265-10.23,13.603-18.715,12.48
			c-8.486-1.123-14.826-8.36-14.824-16.919C445.564,315.724,454.874,309.515,458.855,299.987z M454.141,464.053
			c-2.806-5.829-6.403-11.244-10.687-16.092c-10.217-10.219-16.199-23.919-16.75-38.358c0.612-21.314,9.428-41.569,24.608-56.542
			c18.625,19.058,27.538,38.917,26.512,59.117C475.839,431.601,467.516,449.83,454.141,464.053z"/>
	</g>
</g>
<g>
</g>
<g>
</g>
<g>
</g>
<g>
</g>
<g>
</g>
<g>
</g>
<g>
</g>
<g>
</g>
<g>
</g>
<g>
</g>
<g>
</g>
<g>
</g>
<g>
</g>
<g>
</g>
<g>
</g>
</svg>
