<?xml version="1.0" encoding="iso-8859-1"?>
<!-- Generator: Adobe Illustrator 19.0.0, SVG Export Plug-In . SVG Version: 6.00 Build 0)  -->
<svg version="1.1" id="Capa_1" xmlns="http://www.w3.org/2000/svg" xmlns:xlink="http://www.w3.org/1999/xlink" x="0px" y="0px"
	 viewBox="0 0 505.705 505.705" style="enable-background:new 0 0 505.705 505.705;" xml:space="preserve">
<g>
	<g transform="translate(1 1)">
		<g>
			<path style="fill:#8697CB;" d="M209.885,267.59v16.787c0,9.271-7.516,16.787-16.787,16.787s-16.787-7.516-16.787-16.787V267.59
				H209.885z"/>
			<path style="fill:#8697CB;" d="M327.393,267.59v16.787c0,9.271-7.516,16.787-16.787,16.787s-16.787-7.516-16.787-16.787V267.59
				H327.393z"/>
		</g>
		<path style="fill:#4E342E;" d="M367.682,158.475h26.859v-8.393c-0.022-27.804-22.556-50.339-50.361-50.361H159.525
			c-27.78,0.082-50.279,22.581-50.361,50.361v8.393h26.859c3.047,0.006,5.85,1.668,7.317,4.339c1.467,2.671,1.364,5.929-0.266,8.503
			l-33.91,54.306v109.115c5.372,33.574,15.612,76.632,33.49,92.244c39.03,34.077,7.805,76.8,109.199,68.239
			c17.101,2.089,34.419,1.58,51.368-1.511c39.366-9.149,27.782-40.54,57.831-66.728c17.878-15.612,28.118-58.67,33.49-92.244
			V225.623l-32.734-52.459l-1.175-1.847c-1.631-2.574-1.733-5.832-0.266-8.503C361.832,160.143,364.635,158.481,367.682,158.475z"/>
		<path style="fill:#795548;" d="M342.502,173.164h26.859v-8.393c-0.011-2.105-0.152-4.207-0.42-6.295
			c-3.189-25.162-24.578-44.034-49.941-44.066H134.344c-3.899,0.018-7.784,0.468-11.583,1.343
			c-8.79,9.261-13.662,21.561-13.597,34.329v8.393h26.859c3.047,0.006,5.85,1.668,7.317,4.339c1.467,2.671,1.364,5.929-0.266,8.503
			l-33.91,54.306v109.115c5.372,33.574,15.612,76.632,33.49,92.244c39.03,34.077,7.805,76.8,109.199,68.239
			c17.101,2.089,34.419,1.58,51.368-1.511c11.079-14.017,12.255-34.245,32.65-52.039c17.878-15.612,28.118-58.67,33.49-92.244
			V240.311l-33.909-54.306c-1.631-2.574-1.733-5.832-0.266-8.503C336.651,174.832,339.455,173.17,342.502,173.164z"/>
		<g>
			<path style="fill:#4E342E;" d="M109.164,250.803v83.934H75.59c-9.26-0.027-16.76-7.527-16.787-16.787V267.59
				c0.027-9.26,7.527-16.76,16.787-16.787H109.164z"/>
			<path style="fill:#4E342E;" d="M444.902,267.59v50.361c-0.027,9.26-7.527,16.76-16.787,16.787h-33.574v-83.934h33.574
				C437.375,250.83,444.875,258.33,444.902,267.59z"/>
		</g>
		<g>
			<path style="fill:#FFE0B2;" d="M109.164,301.164h-25.18c-4.636,0-8.393-3.758-8.393-8.393s3.758-8.393,8.393-8.393h25.18
				c4.636,0,8.393,3.758,8.393,8.393S113.799,301.164,109.164,301.164z"/>
			<path style="fill:#FFE0B2;" d="M419.721,301.164h-25.18c-4.636,0-8.393-3.758-8.393-8.393s3.758-8.393,8.393-8.393h25.18
				c4.636,0,8.393,3.758,8.393,8.393S424.357,301.164,419.721,301.164z"/>
		</g>
		<path style="fill:#37474F;" d="M251.852,7.393c-100.302,0-151.838,30.049-176.514,68.994
			c-45.66,72.016,0.252,174.416,0.252,174.416h33.574v-25.18l33.91-54.306c1.631-2.574,1.733-5.831,0.266-8.503
			c-1.467-2.671-4.27-4.334-7.317-4.339h-26.859v-8.393c-0.018-6.234,1.149-12.416,3.441-18.214
			c7.484-19.39,26.136-32.169,46.92-32.147H344.18c27.804,0.022,50.339,22.556,50.361,50.361v8.393h-26.859
			c-3.047,0.006-5.85,1.668-7.317,4.339c-1.467,2.671-1.364,5.929,0.266,8.503l7.722,12.338l26.188,41.967v25.18h33.574
			C428.115,250.803,537.229,7.393,251.852,7.393z"/>
		<g>
			<path style="fill:#607D8B;" d="M415.692,250.803h-21.151v-25.18l-26.188-41.967l-7.722-12.338
				c-1.631-2.574-1.733-5.832-0.266-8.503c1.467-2.671,4.27-4.334,7.317-4.339h26.859v-8.393
				c-0.022-27.804-22.556-50.339-50.361-50.361H159.525c-20.784-0.022-39.436,12.757-46.92,32.147
				c-2.291,5.798-3.459,11.979-3.441,18.214v8.393h26.859c3.047,0.006,5.85,1.668,7.317,4.339c1.467,2.671,1.364,5.929-0.266,8.503
				l-33.91,54.306v25.18H75.59c0,0-45.912-102.4-0.252-174.416c29.461-26.02,77.807-43.814,155.026-43.814
				C458.918,32.574,434.41,188.692,415.692,250.803z"/>
			<path style="fill:#607D8B;" d="M277.033,427.066l-11.751,25.18c-3.163,4.239-8.141,6.736-13.43,6.736
				c-5.289,0-10.267-2.497-13.43-6.736l-11.751-25.18H277.033z"/>
		</g>
	</g>
	<g>
		<path d="M236.066,335.738c0-4.636-3.758-8.393-8.393-8.393c-4.636,0-8.393,3.758-8.393,8.393
			c0,18.542,15.031,33.574,33.574,33.574s33.574-15.031,33.574-33.574c0-4.636-3.758-8.393-8.393-8.393s-8.393,3.758-8.393,8.393
			c0,9.271-7.516,16.787-16.787,16.787S236.066,345.009,236.066,335.738z"/>
		<path d="M219.279,285.377v-8.393h8.393c4.636,0,8.393-3.758,8.393-8.393s-3.758-8.393-8.393-8.393h-67.148
			c-4.636,0-8.393,3.758-8.393,8.393s3.758,8.393,8.393,8.393h8.393v8.393c0,13.907,11.274,25.18,25.18,25.18
			C208.005,310.557,219.279,299.284,219.279,285.377z M202.492,276.984v8.393c0,4.636-3.758,8.393-8.393,8.393
			c-4.636,0-8.393-3.758-8.393-8.393v-8.393H202.492z"/>
		<path d="M345.18,260.197h-67.148c-4.636,0-8.393,3.758-8.393,8.393s3.758,8.393,8.393,8.393h8.393v8.393
			c0,13.907,11.274,25.18,25.18,25.18s25.18-11.274,25.18-25.18v-8.393h8.393c4.636,0,8.393-3.758,8.393-8.393
			S349.816,260.197,345.18,260.197z M320,285.377c0,4.636-3.758,8.393-8.393,8.393c-4.636,0-8.393-3.758-8.393-8.393v-8.393H320
			V285.377z"/>
		<path d="M227.672,243.41h8.393c6.215-0.019,12.2-2.354,16.787-6.549c4.586,4.195,10.572,6.53,16.787,6.549h8.393
			c4.636,0,8.393-3.758,8.393-8.393c0-4.636-3.758-8.393-8.393-8.393h-8.393c-4.634-0.005-8.389-3.76-8.393-8.393v-33.574
			c0-4.636-3.758-8.393-8.393-8.393s-8.393,3.758-8.393,8.393v33.574c-0.005,4.634-3.76,8.389-8.393,8.393h-8.393
			c-4.636,0-8.393,3.758-8.393,8.393C219.279,239.652,223.037,243.41,227.672,243.41z"/>
		<path d="M160.525,243.41c2.226,0.001,4.361-0.884,5.936-2.458c1.574-1.574,2.458-3.709,2.458-5.936
			c0-1.029,0.385-25.18,33.574-25.18c4.636,0,8.393-3.758,8.393-8.393s-3.758-8.393-8.393-8.393
			c-39.836,0-50.361,27.451-50.361,41.967c-0.001,2.226,0.884,4.361,2.458,5.936C156.163,242.526,158.298,243.41,160.525,243.41z"/>
		<path d="M303.213,193.049c-4.636,0-8.393,3.758-8.393,8.393s3.758,8.393,8.393,8.393c32.148,0,33.525,22.615,33.574,25.246
			c0.012,2.999,1.622,5.763,4.225,7.253c2.603,1.489,5.802,1.477,8.393-0.033c2.591-1.509,4.18-4.287,4.168-7.285
			C353.574,220.5,343.049,193.049,303.213,193.049z"/>
		<path d="M227.672,159.475h50.361c4.636,0,8.393-3.758,8.393-8.393c0-4.636-3.758-8.393-8.393-8.393h-50.361
			c-4.636,0-8.393,3.758-8.393,8.393C219.279,155.718,223.037,159.475,227.672,159.475z"/>
		<path d="M435.836,71.914C404.934,24.197,343.369,0,252.852,0S100.77,24.197,69.869,71.914
			c-40.896,63.148-14.967,146.839-4.59,174.303c-8.473,4.244-13.837,12.896-13.869,22.373v50.361
			c0.015,13.9,11.28,25.165,25.18,25.18h26.545c8.092,46.483,19.839,76.94,35.029,90.172c9.161,8.496,16.183,19.039,20.492,30.766
			c12.221,27.578,25.369,45.242,94.197,39.578c8.68,0.713,16.475,1.058,23.492,1.058c48.606,0,60.025-16.537,70.705-40.635
			c4.307-11.724,11.326-22.264,20.484-30.758c15.197-13.24,26.945-43.697,35.037-90.18h26.545c13.9-0.015,25.165-11.28,25.18-25.18
			V268.59c-0.032-9.477-5.395-18.129-13.869-22.373C450.803,218.752,476.732,135.062,435.836,71.914z M83.959,81.037
			c27.607-42.631,84.434-64.25,168.893-64.25c84.426,0,141.238,21.598,168.861,64.193c38.033,58.647,9.891,141.498,1.759,162.43
			h-19.538v-16.787c0-0.227-0.111-0.417-0.129-0.64c-0.134-1.116-0.448-2.202-0.928-3.218c-0.101-0.191-0.105-0.403-0.221-0.589
			l-33.934-54.307h26.82c2.226,0.001,4.362-0.884,5.936-2.458c1.574-1.574,2.458-3.709,2.458-5.936v-8.393
			c-0.038-32.433-26.321-58.716-58.754-58.754H160.525c-32.433,0.038-58.716,26.321-58.754,58.754v8.393
			c-0.001,2.226,0.884,4.361,2.458,5.936c1.574,1.574,3.709,2.458,5.936,2.458h26.828l-33.943,54.307
			c-0.117,0.186-0.122,0.399-0.221,0.59c-0.48,1.016-0.794,2.102-0.928,3.217c-0.017,0.222-0.129,0.413-0.129,0.64v16.787H82.22
			C74.076,222.507,45.9,139.798,83.959,81.037z M76.59,327.344c-4.634-0.005-8.389-3.76-8.393-8.393V268.59
			c0.005-4.63,3.755-8.383,8.385-8.392l0.017,0.003l0.018-0.004h25.154v25.18H84.984c-4.636,0-8.393,3.758-8.393,8.393
			s3.758,8.393,8.393,8.393h16.787v25.18H76.59z M356.492,421.664c-11.045,10.065-19.541,22.61-24.787,36.602
			c-9.311,21.004-15.418,34.914-78.148,29.59c-0.469-0.041-0.941-0.041-1.41,0c-62.639,5.307-68.836-8.582-78.148-29.59
			c-5.248-13.996-13.746-26.544-24.795-36.611c-12.516-10.9-23.393-41.678-30.647-86.644V229.023l32.664-52.261
			c3.236-5.174,3.408-11.698,0.449-17.036c-2.959-5.338-8.583-8.648-14.687-8.644h-18.426c0.027-23.167,18.801-41.94,41.967-41.967
			H345.18c23.167,0.027,41.94,18.801,41.967,41.967h-18.426c-6.103-0.004-11.727,3.307-14.687,8.644
			c-2.959,5.338-2.787,11.861,0.449,17.036l32.664,52.261v105.988C379.893,379.978,369.016,410.756,356.492,421.664z
			 M437.508,318.951c-0.005,4.634-3.76,8.389-8.393,8.393h-25.18v-25.18h16.787c4.636,0,8.393-3.758,8.393-8.393
			s-3.758-8.393-8.393-8.393h-16.787v-25.18h25.18c4.634,0.005,8.389,3.76,8.393,8.393V318.951z"/>
		<path d="M278.033,419.672h-50.361c-2.869-0.001-5.54,1.464-7.081,3.884c-1.541,2.42-1.74,5.459-0.526,8.059l11.754,25.18
			c0.243,0.525,0.543,1.023,0.893,1.484c4.751,6.344,12.214,10.078,20.139,10.078s15.388-3.734,20.139-10.078
			c0.351-0.461,0.65-0.958,0.893-1.484l11.754-25.18c1.214-2.6,1.016-5.639-0.526-8.059
			C283.572,421.136,280.902,419.671,278.033,419.672z M259.107,448.775c-1.632,1.708-3.892,2.674-6.254,2.674
			s-4.622-0.966-6.254-2.674l-5.746-12.316h24L259.107,448.775z"/>
		<path d="M311.607,386.098H202.492c-4.636,0-8.393,3.758-8.393,8.393c0,4.636,3.758,8.393,8.393,8.393h100.721v8.393
			c0,4.636,3.758,8.393,8.393,8.393c4.636,0,8.393-3.758,8.393-8.393v-16.787c0.001-2.226-0.884-4.362-2.458-5.936
			C315.968,386.982,313.833,386.098,311.607,386.098z"/>
	</g>
</g>
<g>
</g>
<g>
</g>
<g>
</g>
<g>
</g>
<g>
</g>
<g>
</g>
<g>
</g>
<g>
</g>
<g>
</g>
<g>
</g>
<g>
</g>
<g>
</g>
<g>
</g>
<g>
</g>
<g>
</g>
</svg>
