<?xml version="1.0" encoding="iso-8859-1"?>
<!-- Generator: Adobe Illustrator 19.0.0, SVG Export Plug-In . SVG Version: 6.00 Build 0)  -->
<svg version="1.1" id="Capa_1" xmlns="http://www.w3.org/2000/svg" xmlns:xlink="http://www.w3.org/1999/xlink" x="0px" y="0px"
	 viewBox="0 0 512.125 512.125" style="enable-background:new 0 0 512.125 512.125;" xml:space="preserve">
<g transform="translate(0 -1)">
	<g transform="translate(1 1)">
		<g>
			<path style="fill:#BFB186;" d="M109.996,271.858v24.405l-34.133,0c-9.368,0.023-16.995-7.528-17.067-16.896v-50.773
				c0.035-9.398,7.669-16.994,17.067-16.981h17.92c-0.791,9.136-1.076,18.309-0.853,27.477
				C93.392,252.025,99.662,264.063,109.996,271.858z"/>
			<path style="fill:#BFB186;" d="M391.766,184.562c0.341,1.877,0.768,3.499,1.194,5.205c-8.61-0.998-17.274-1.454-25.94-1.365
				c-6.571-0.085-13.995-0.085-22.357-0.085c-1.707,0-3.413,0-5.12,0.085h-4.097c-1.079-0.085-2.163-0.085-3.242,0
				c-28.417,0.427-51.115,3.84-57.941,31.147c-5.622-3.924-12.346-5.956-19.2-5.803c-1.571-0.017-3.141,0.098-4.693,0.341
				c-2.772,0.321-5.495,0.98-8.107,1.963c-2.282,0.87-4.435,2.048-6.4,3.499c-0.455-1.854-1.025-3.678-1.707-5.461
				c-9.644-25.771-36.779-25.771-68.693-25.771c-4.693,0-9.046,0-13.141,0.085c-1.023,0-2.133-0.085-3.242,0
				c-10.656-0.194-21.314,0.262-31.915,1.365c0.084-0.427,0.255-0.853,0.341-1.365c4.056-14.21,4.408-29.221,1.024-43.605
				c-6.741-22.101-13.569-63.659,5.291-89.003c3.221-4.398,7.176-8.209,11.691-11.264c0.085,0,0.085,0,0.171-0.171
				c2.681-1.772,5.507-3.314,8.448-4.608c5.561-2.388,11.415-4.024,17.408-4.864c30.038-4.523,61.44,9.301,80.725,15.445
				c4.113,1.536,8.422,2.484,12.8,2.816c11.52,0,38.485-14.507,67.925-18.261c14.511-2.346,29.388-0.664,43.008,4.864
				c2.914,1.294,5.712,2.836,8.363,4.608h0.085c0.085,0.171,0.085,0.171,0.171,0.171c4.515,3.055,8.47,6.866,11.691,11.264
				c18.859,25.344,12.032,66.901,5.291,89.003c-2.803,10.704-3.182,21.899-1.109,32.768c0.256,1.707,0.511,3.413,0.939,5.12
				C391.49,183.318,391.604,183.946,391.766,184.562z"/>
			<path style="fill:#BFB186;" d="M451.329,228.594v50.773c-0.072,9.368-7.698,16.919-17.067,16.896l-34.133,0v-24.405
				c10.334-7.795,16.604-19.832,17.067-32.768c0.223-9.168-0.062-18.341-0.853-27.477h17.92
				C443.66,211.6,451.294,219.196,451.329,228.594z"/>
		</g>
		<g>
			<path style="fill:#59474E;" d="M96.004,262.471H84.396c-4.713,0-8.533-3.82-8.533-8.533c0-4.713,3.821-8.533,8.533-8.533h11.608
				c4.713,0,8.533,3.821,8.533,8.533C104.537,258.65,100.717,262.471,96.004,262.471z"/>
			<path style="fill:#59474E;" d="M425.729,262.471h-11.608c-4.713,0-8.533-3.82-8.533-8.533c0-4.713,3.82-8.533,8.533-8.533h11.608
				c4.713,0,8.533,3.821,8.533,8.533C434.262,258.65,430.442,262.471,425.729,262.471z"/>
		</g>
		<g>
			<path style="fill:#4E342E;" d="M118.529,144.796c3.448,14.855,2.977,30.352-1.365,44.971
				c-16.215,2.219-21.589,7.765-23.382,21.845h-17.92c0-104.533,37.717-146.432,47.957-155.819
				C104.96,81.137,111.788,122.695,118.529,144.796z"/>
			<path style="fill:#4E342E;" d="M374.358,44.359c-2.651-1.772-5.449-3.314-8.363-4.608
				c-42.667-18.603-93.867,13.397-110.933,13.397s-68.267-32-110.933-13.397c-2.941,1.294-5.767,2.836-8.448,4.608
				c39.936-35.84,119.381-35.84,119.381-35.84S334.423,8.519,374.358,44.359z"/>
			<path style="fill:#4E342E;" d="M434.262,211.612h-17.92c-1.793-14.08-7.168-19.627-23.382-21.845
				c-0.426-1.707-0.852-3.328-1.194-5.205c-0.162-0.616-0.277-1.244-0.341-1.877c-0.427-1.707-0.683-3.413-0.939-5.12
				c-2.073-10.869-1.694-22.064,1.109-32.768c6.741-22.101,13.569-63.659-5.291-89.003
				C396.546,65.18,434.262,107.079,434.262,211.612z"/>
			<path style="fill:#4E342E;" d="M259.585,442.866c10.634,1.218,21.087,3.681,31.146,7.339c2.219,0.778,4.672,0.495,6.656-0.768
				C285.031,446.015,272.37,443.814,259.585,442.866z M219.393,450.204c10.059-3.658,20.512-6.121,31.146-7.339
				c-12.785,0.949-25.447,3.149-37.802,6.571C214.721,450.699,217.174,450.982,219.393,450.204L219.393,450.204z M400.129,296.263
				l-0.513,0.853l-20.052,34.475l-6.485,11.179c-4.944,7.809-13.63,12.444-22.87,12.203h-4.608c-2.949,0.012-5.883-0.42-8.703-1.28
				c-4.986-1.481-9.395-4.46-12.63-8.533l-20.651-26.624c-4.353-5.295-11.309-7.702-18.004-6.229h-0.085
				c-4.876,0.902-9.468,2.949-13.398,5.973c-4.196,3.743-9.38,6.201-14.933,7.083c-0.306,0.091-0.621,0.148-0.939,0.171
				c-0.768,0.085-1.195,0.085-1.195,0.085c-0.516-0.015-1.029-0.072-1.535-0.171c-5.769-0.811-11.171-3.304-15.531-7.168
				c-3.896-2.972-8.42-5.015-13.227-5.973h-0.256c-6.695-1.473-13.651,0.934-18.004,6.229l-20.651,26.624
				c-3.235,4.073-7.644,7.052-12.63,8.533c-2.821,0.86-5.754,1.292-8.703,1.28h-4.608c-9.24,0.241-17.926-4.393-22.87-12.203
				l-6.485-11.179l-20.566-35.328H92.929c0,0,8.704,110.165,42.667,137.387c39.339,31.744,13.398,70.827,96,69.888h2.56
				c0.937-0.085,1.963-0.085,2.901-0.085c0.16,0.085,0.352,0.085,0.511,0c5.292-0.171,10.923-0.512,16.981-1.024h1.025
				c6.144,0.512,11.946,0.853,17.237,1.024c0.03,0.04,0.077,0.064,0.128,0.064s0.098-0.024,0.128-0.064c1.109,0,2.219,0,3.328,0.085
				h2.048c82.688,0.939,56.747-38.144,96.085-69.888c33.963-27.221,42.667-137.387,42.667-137.387H400.129z M255.062,442.695
				c-1.45,0-2.987,0.085-4.523,0.171c-12.785,0.949-25.447,3.149-37.802,6.571h-0.085c-0.94,0.256-1.877,0.512-2.731,0.768
				c-8.448,2.304-16.725-4.437-19.456-15.957l-1.365-5.803c-0.679-2.877-0.938-5.838-0.769-8.789
				c-0.322-4.714,0.529-9.434,2.475-13.739c0.94-2.048,2.048-4.267,3.243-6.656c8.789-16.555,26.453-39.509,56.661-41.387
				c0.161-0.07,0.337-0.099,0.513-0.085c1.275-0.142,2.558-0.199,3.84-0.171c1.28,0,2.56,0.085,3.84,0.171h0.171
				c30.465,1.792,48.128,24.832,57.003,41.472c1.195,2.389,2.303,4.608,3.243,6.656c1.946,4.305,2.796,9.025,2.475,13.739
				c0.169,2.951-0.089,5.912-0.768,8.789l-1.365,5.803c-2.731,11.52-11.008,18.261-19.456,15.957
				c-0.854-0.256-1.792-0.512-2.731-0.768h-0.085c-12.356-3.421-25.017-5.622-37.803-6.571
				C258.049,442.78,256.512,442.695,255.062,442.695z M212.737,449.436c1.984,1.263,4.437,1.546,6.656,0.768
				c10.059-3.658,20.512-6.121,31.146-7.339C237.754,443.814,225.092,446.015,212.737,449.436z"/>
		</g>
		<path style="fill:#795548;" d="M373.079,342.77c-4.944,7.809-13.63,12.444-22.87,12.203h-4.608
			c-2.949,0.012-5.883-0.42-8.703-1.28c-2.146,0.85-4.433,1.285-6.741,1.28h-3.584c-6.964-0.08-13.376-3.804-16.896-9.813
			l-16.299-26.624c-1.748-2.949-4.507-5.163-7.765-6.229h-0.085c-2.068-0.555-4.246-0.555-6.315,0
			c-4.037,0.973-7.728,3.04-10.667,5.973c-2.965,3.472-6.928,5.945-11.35,7.083c-0.306,0.091-0.621,0.148-0.939,0.171
			c-0.768,0.085-1.195,0.085-1.195,0.085c-0.516-0.015-1.029-0.072-1.535-0.171c-4.658-1.021-8.855-3.538-11.948-7.168
			c-2.939-2.933-6.63-5-10.667-5.973c-2.01-0.555-4.134-0.555-6.144,0h-0.256c-3.258,1.067-6.017,3.28-7.765,6.229l-16.3,26.624
			c-3.52,6.009-9.932,9.733-16.896,9.813h-3.584c-2.308,0.005-4.596-0.43-6.741-1.28c-2.821,0.86-5.754,1.292-8.703,1.28h-4.608
			c-9.24,0.241-17.926-4.393-22.87-12.203l-6.485-11.179c4.352,34.731,13.313,84.907,30.208,102.059
			c30.208,30.891,11.606,68.779,70.827,69.888h2.56c0.937-0.085,1.963-0.085,2.901-0.085c0.16,0.085,0.352,0.085,0.511,0
			c5.121-0.085,10.752-0.427,16.981-1.024h1.025c6.315,0.683,12.031,0.939,17.237,1.024c0.03,0.04,0.077,0.064,0.128,0.064
			c0.05,0,0.098-0.024,0.128-0.064c1.109,0,2.219,0,3.328,0.085h2.048c59.307-1.109,40.704-38.997,70.913-69.888
			c16.896-17.152,25.856-67.328,30.208-102.059L373.079,342.77z M297.388,449.436c-1.984,1.263-4.437,1.546-6.656,0.768
			c-10.059-3.658-20.512-6.121-31.146-7.339c-1.536-0.085-3.073-0.171-4.523-0.171c-1.45,0-2.987,0.085-4.523,0.171
			c-10.634,1.218-21.087,3.681-31.146,7.339c-2.219,0.778-4.672,0.495-6.656-0.768h-0.085c-4.862-3.643-7.985-9.147-8.619-15.189
			l-1.024-5.803c-0.58-2.891-0.781-5.846-0.597-8.789c-0.322-4.667,0.347-9.349,1.963-13.739c0.682-2.048,1.535-4.267,2.559-6.656
			c6.826-16.384,20.48-38.912,43.776-41.387c0.161-0.07,0.337-0.099,0.513-0.085c1.274-0.142,2.556-0.199,3.838-0.171
			c1.28,0,2.56,0.085,3.84,0.171h0.171c23.552,2.304,37.206,25.003,44.117,41.472c1.024,2.389,1.877,4.608,2.559,6.656
			c1.616,4.39,2.284,9.072,1.963,13.739c0.184,2.943-0.017,5.898-0.597,8.789l-1.024,5.803c-0.633,6.042-3.757,11.547-8.619,15.189
			H297.388z"/>
		<g>
			<path style="fill:#FFECB3;" d="M321.794,419.655c0.169,2.952-0.09,5.912-0.769,8.789l-1.365,5.803
				c-2.731,11.52-11.008,18.261-19.456,15.957c-14.686-4.329-29.845-6.851-45.142-7.509c-15.296,0.658-30.456,3.18-45.141,7.509
				c-8.448,2.304-16.725-4.437-19.456-15.957l-1.365-5.803c-0.679-2.877-0.938-5.838-0.769-8.789
				c-0.322-4.714,0.529-9.434,2.475-13.739c0.94-2.048,2.048-4.267,3.243-6.656l1.28,0.683h119.467l1.28-0.683
				c1.195,2.389,2.303,4.608,3.243,6.656C321.265,410.221,322.115,414.941,321.794,419.655z"/>
			<path style="fill:#FFECB3;" d="M316.076,399.26l-1.28,0.683H195.329l-1.28-0.683c9.216-17.323,28.075-41.643,61.013-41.643
				S306.86,381.938,316.076,399.26z"/>
		</g>
		<path style="fill:#37474F;" d="M237.996,239.09c0,28.075-32.513,50.773-72.533,50.773c-4.196,0.019-8.389-0.266-12.544-0.853
			c-15.651-1.505-30.544-7.457-42.923-17.152c-10.334-7.795-16.604-19.832-17.067-32.768c-0.223-9.168,0.062-18.341,0.853-27.477
			c1.793-14.08,7.168-19.627,23.382-21.845c10.601-1.104,21.259-1.56,31.915-1.365c1.108-0.085,2.219,0,3.242,0
			c4.096-0.085,8.448-0.085,13.141-0.085c34.048,0,62.635,0,70.4,31.232C237.365,225.951,238.081,232.513,237.996,239.09z"/>
		<path style="fill:#BFB186;" d="M152.918,289.01c-4.327,0.59-8.689,0.875-13.056,0.853c-10.129,0.034-20.202-1.491-29.867-4.523
			v-13.483C122.374,281.553,137.267,287.504,152.918,289.01z"/>
		<path style="fill:#FFECB3;" d="M367.02,188.402c0.085,0.427,0.256,0.939,0.341,1.365c-9.238-1.002-18.526-1.457-27.818-1.365
			h-4.097c-1.079-0.085-2.163-0.085-3.242,0c-4.096-0.085-8.448-0.085-13.141-0.085c-31.915,0-59.05,0-68.693,25.771
			c-0.682,1.783-1.252,3.607-1.707,5.461c-1.965-1.451-4.118-2.628-6.4-3.499c-2.612-0.983-5.334-1.642-8.107-1.963
			c-9.644-25.771-36.779-25.771-68.693-25.771c-4.693,0-9.046,0-13.141,0.085c-1.023,0-2.133-0.085-3.242,0
			c-2.988-0.085-6.059-0.085-9.217-0.085c-8.363,0-15.787,0-22.357,0.085c4.056-14.21,4.408-29.221,1.023-43.605
			c-6.741-22.101-13.569-63.659,5.291-89.003c3.221-4.398,7.176-8.209,11.691-11.264c0.085,0,0.085,0,0.171-0.171
			c2.681-1.772,5.507-3.314,8.448-4.608c5.561-2.388,11.415-4.024,17.408-4.864c29.44,3.755,56.405,18.261,67.925,18.261
			c4.378-0.332,8.687-1.28,12.8-2.816c19.285-6.144,50.687-19.968,80.725-15.446c5.993,0.84,11.847,2.476,17.408,4.864
			c2.914,1.294,5.712,2.836,8.363,4.608h0.085c0.085,0.171,0.085,0.171,0.171,0.171c4.515,3.055,8.47,6.866,11.691,11.264
			c18.859,25.344,12.032,66.901,5.291,89.003c-2.803,10.704-3.182,21.899-1.109,32.768c0.256,1.707,0.511,3.413,0.939,5.12
			c0.065,0.634,0.179,1.261,0.341,1.877C366.423,185.927,366.679,187.207,367.02,188.402z"/>
		<path style="fill:#BFB186;" d="M374.529,285.34c-9.664,3.031-19.738,4.557-29.867,4.523c-4.367,0.022-8.729-0.263-13.056-0.853
			c-33.792-4.267-59.477-25.003-59.477-49.92c-0.085-6.576,0.631-13.138,2.133-19.541c-5.622-3.924-12.346-5.956-19.2-5.803
			c-4.372-0.024-8.711,0.757-12.8,2.304c-2.282,0.87-4.435,2.048-6.4,3.499c1.502,6.403,2.219,12.965,2.133,19.541
			c0,28.075-32.513,50.773-72.533,50.773c-4.196,0.019-8.389-0.266-12.544-0.853c-4.327,0.59-8.689,0.875-13.056,0.853
			c-10.129,0.034-20.202-1.491-29.867-4.523v10.923l27.05,46.507c2.859,4.705,7.217,8.312,12.374,10.24
			c3.345,1.306,6.905,1.971,10.496,1.963h4.608c8.239,0.169,16.1-3.448,21.333-9.813l20.651-26.624
			c0.736-0.935,1.565-1.793,2.475-2.56c4.357-3.505,10.065-4.854,15.53-3.669c4.902,0.902,9.522,2.948,13.483,5.973
			c1.311,1.17,2.741,2.2,4.267,3.072c3.833,2.49,8.239,3.959,12.8,4.267c6.346-0.481,12.352-3.064,17.067-7.339
			c1.055-0.884,2.199-1.656,3.413-2.304c3.159-1.71,6.552-2.946,10.07-3.669c6.695-1.473,13.651,0.934,18.004,6.229l20.651,26.624
			c2.818,3.568,6.569,6.285,10.837,7.851c3.345,1.306,6.905,1.971,10.496,1.963h4.608c9.24,0.241,17.926-4.393,22.87-12.203
			l26.537-45.653l0.513-0.853v-24.405C392.546,277.963,383.853,282.541,374.529,285.34z"/>
		<g>
			<path style="fill:#FFECB3;" d="M374.529,285.34v10.923l-0.512,0.853l-26.538,45.653c-2.859,4.705-7.217,8.312-12.374,10.24
				c-4.268-1.566-8.019-4.283-10.837-7.851l-20.651-26.624c-4.353-5.295-11.309-7.702-18.004-6.229
				c-3.518,0.723-6.911,1.96-10.07,3.669c-1.214,0.648-2.358,1.42-3.413,2.304c-4.715,4.275-10.72,6.857-17.067,7.339
				c-4.561-0.308-8.967-1.777-12.8-4.267c-1.526-0.872-2.956-1.902-4.267-3.072c-3.961-3.025-8.581-5.072-13.483-5.973
				c-5.465-1.184-11.173,0.164-15.53,3.669c-0.909,0.767-1.738,1.625-2.474,2.56l-20.651,26.624
				c-5.233,6.366-13.095,9.982-21.333,9.813h-4.608c-3.591,0.009-7.151-0.657-10.496-1.963c-5.157-1.928-9.515-5.535-12.374-10.24
				l-27.051-46.507V285.34c9.664,3.031,19.738,4.557,29.867,4.523c4.367,0.022,8.729-0.263,13.056-0.853
				c4.155,0.587,8.348,0.872,12.544,0.853c40.021,0,72.533-22.699,72.533-50.773c0.085-6.576-0.631-13.138-2.133-19.541
				c1.965-1.451,4.118-2.628,6.4-3.499c2.282,0.87,4.435,2.048,6.4,3.499c-1.502,6.403-2.219,12.965-2.133,19.541
				c0,28.075,32.513,50.773,72.533,50.773c4.196,0.019,8.389-0.266,12.544-0.853c4.327,0.59,8.689,0.875,13.056,0.853
				C354.791,289.897,364.865,288.372,374.529,285.34z"/>
			<path style="fill:#FFECB3;" d="M374.529,271.858v13.483c-9.664,3.031-19.738,4.557-29.867,4.523
				c-4.367,0.022-8.729-0.263-13.056-0.853C347.257,287.504,362.151,281.553,374.529,271.858z"/>
		</g>
		<path style="fill:#285680;" d="M274.254,228.112c-1.882,0.001-3.711-0.623-5.2-1.775c-8.633-5.092-19.35-5.092-27.983,0
			c-2.415,1.861-5.638,2.292-8.457,1.131c-2.819-1.161-4.804-3.737-5.208-6.758c-0.404-3.021,0.834-6.029,3.249-7.89
			c14.834-9.675,33.983-9.675,48.817,0c2.895,2.23,4.049,6.056,2.869,9.515S277.908,228.117,274.254,228.112z"/>
		<path style="fill:#37474F;" d="M417.196,239.09c-0.463,12.936-6.733,24.973-17.067,32.768
			c-15.896,12.148-35.466,18.501-55.467,18.005c-4.367,0.019-8.729-0.266-13.056-0.853c-33.792-4.267-59.477-25.003-59.477-49.92
			c-0.085-6.576,0.631-13.138,2.133-19.541c6.827-27.307,29.525-30.72,57.941-31.147c1.079-0.085,2.163-0.085,3.242,0
			c2.988-0.085,6.059-0.085,9.217-0.085c16.114-0.444,32.24,0.041,48.298,1.451c16.215,2.219,21.589,7.765,23.382,21.845
			C417.134,220.749,417.419,229.922,417.196,239.09z"/>
		<g>
			<path style="fill:#607D8B;" d="M212.396,239.09c0,24.917-25.685,45.653-59.477,49.92c-15.651-1.505-30.544-7.457-42.923-17.152
				c-10.334-7.795-16.604-19.832-17.067-32.768c-0.223-9.168,0.062-18.341,0.853-27.477c1.793-14.08,7.168-19.627,23.382-21.845
				c10.601-1.104,21.259-1.56,31.915-1.365c1.108-0.085,2.219,0,3.242,0c28.417,0.427,51.115,3.84,57.941,31.147
				C211.765,225.951,212.481,232.513,212.396,239.09z"/>
			<path style="fill:#607D8B;" d="M391.596,239.09c-0.463,12.936-6.733,24.973-17.067,32.768
				c-12.378,9.695-27.272,15.647-42.923,17.152c-33.792-4.267-59.477-25.003-59.477-49.92c-0.085-6.576,0.631-13.138,2.133-19.541
				c6.827-27.307,29.525-30.72,57.941-31.147c1.079-0.085,2.163-0.085,3.242,0c10.656-0.194,21.314,0.262,31.915,1.365
				c16.215,2.219,21.589,7.765,23.382,21.845C391.534,220.749,391.819,229.922,391.596,239.09z"/>
		</g>
	</g>
	<g>
		<path d="M443.637,205.606c-1.675-101.488-38.473-143.946-50.333-154.915c-3.542-4.592-7.753-8.627-12.492-11.97
			c-0.151-0.122-0.323-0.213-0.481-0.324C338.269,1.462,259.419,1,256.062,1c-3.362,0-82.572,0.454-124.573,37.573
			c-0.11,0.085-0.229,0.161-0.335,0.252c-4.665,3.318-8.813,7.309-12.308,11.843c-11.839,10.938-48.682,53.389-50.358,154.938
			c-10.257,3.495-17.172,13.107-17.225,23.944v50.775c0.055,14.093,11.507,25.482,25.6,25.458h9.279
			c2.771,27.425,13.592,110.229,45.096,135.55c9.891,8.357,17.592,19.003,22.434,31.013c13.708,28.488,27.433,45.408,102.391,39.663
			c9.8,0.75,18.55,1.112,26.392,1.112c52.125,0,64.083-16.017,76-40.775c4.84-12.005,12.535-22.649,22.417-31.008
			c31.519-25.325,42.342-108.129,45.112-135.554h9.279c14.093,0.023,25.545-11.366,25.6-25.458V229.55
			C460.81,218.714,453.895,209.101,443.637,205.606z M127.687,143.283c-0.343-1.126-0.842-2.833-1.415-5.01
			c-3.721-14.153-10.556-48.159,2.113-71.292c0.973-1.781,2.068-3.492,3.277-5.122c2.68-3.628,5.951-6.78,9.675-9.325l-0.017-0.021
			l0.162-0.115c2.244-1.466,4.607-2.744,7.063-3.819c26.942-11.763,58.558-0.729,81.625,7.321
			c8.254,3.508,16.978,5.787,25.893,6.762c8.915-0.976,17.638-3.254,25.892-6.762c1.442-0.503,2.916-1.016,4.423-1.538
			c22.584-7.801,51.94-16.794,77.175-5.796c2.476,1.093,4.854,2.394,7.11,3.888l0.125,0.079c3.719,2.542,6.987,5.688,9.667,9.308
			c19.458,26.188,6.725,72.438,3.992,81.417c-3.234,11.901-3.713,24.382-1.4,36.496c0.09,0.623,0.196,1.197,0.298,1.784
			c-10.1-0.615-22.395-0.718-37.681-0.718c-30.97,0-62.664,0.133-75.3,27.955c-9.319-2.86-19.281-2.86-28.6,0
			c-12.637-27.821-44.33-27.955-75.3-27.955c-15.325,0-27.643,0.103-37.756,0.723C131.32,168.882,130.972,155.788,127.687,143.283
			L127.687,143.283z M409.662,240.129c0,22.896-29.308,42.242-64,42.242s-64-19.346-64-42.242
			c-0.084-5.735,0.487-11.461,1.701-17.067c0.08-0.292,0.143-0.589,0.19-0.888c5.826-23.07,25.546-24.286,62.109-24.286
			c32.25,0,51.708,0,58.575,4.804C409.446,206.338,409.662,216.804,409.662,240.129z M166.462,197.887
			c36.564,0,56.283,1.216,62.109,24.286c0.047,0.299,0.11,0.596,0.19,0.888c1.214,5.606,1.785,11.332,1.701,17.067
			c0,22.896-29.308,42.242-64,42.242s-64-19.346-64-42.242c0-23.325,0.217-33.792,5.425-37.438
			C114.754,197.887,134.212,197.887,166.462,197.887z M392.596,294.9l-25.842,43.579c-3.511,5.078-9.372,8.012-15.542,7.779h-4.608
			c-5.597,0.173-10.974-2.182-14.642-6.412l-20.634-26.033c-6.223-7.5-16-11.07-25.591-9.346c-0.789,0.022-1.569,0.185-2.3,0.483
			c-0.267,0.054-0.725,0.179-0.983,0.258l-0.292,0.083c-0.597,0.127-1.186,0.286-1.766,0.475c-0.509,0.146-1.007,0.325-1.492,0.538
			c-2.299,0.722-4.521,1.67-6.633,2.829l-0.017,0.013c-1.212,0.602-2.347,1.346-3.383,2.217c-0.49,0.288-0.934,0.649-1.317,1.071
			c-0.31,0.187-0.608,0.393-0.892,0.617c-0.467,0.371-0.975,0.7-1.975,1.383c-0.811,0.517-1.658,0.977-2.533,1.375
			c-0.15,0.05-0.292,0.104-0.442,0.162c-0.776,0.326-1.572,0.602-2.383,0.825c-0.183,0.046-0.8,0.208-1.125,0.3
			c-0.395,0.037-0.788,0.1-1.175,0.188l-0.325,0.067c-0.325,0.071-0.583,0.113-0.533,0.129c-0.252-0.03-0.503-0.073-0.75-0.129
			c-0.183-0.042-0.4-0.075-0.625-0.104c-0.267-0.063-0.533-0.108-0.783-0.142c-0.488-0.082-0.97-0.199-1.442-0.35
			c-0.167-0.054-0.333-0.1-0.5-0.146v-0.004c-0.625-0.167-1.258-0.433-1.258-0.421c-0.217-0.117-0.6-0.288-0.983-0.45
			c-0.902-0.438-1.776-0.932-2.617-1.479c-0.367-0.273-0.748-0.526-1.142-0.758c-0.158-0.129-0.692-0.533-0.867-0.65
			c-0.217-0.142-0.508-0.392-0.25-0.125c-0.778-0.779-1.662-1.446-2.625-1.979c-0.408-0.288-0.833-0.567-1.258-0.85l-0.783-0.521
			c-0.512-0.356-1.063-0.652-1.642-0.883c-3.616-1.752-7.438-3.046-11.375-3.85c-9.834-2.102-20.022,1.42-26.458,9.146
			l-20.642,26.054c-3.669,4.235-9.049,6.593-14.65,6.421h-4.608c-6.159,0.235-12.013-2.689-15.525-7.754l-25.859-43.596v-6.51
			c14.535,7.384,30.631,11.17,46.933,11.04c44.7,0,81.067-26.604,81.067-59.308c-0.005-5.016-0.391-10.023-1.156-14.98
			c6.29-2.096,13.089-2.096,19.379,0c-0.765,4.957-1.151,9.965-1.156,14.98c0,32.704,36.367,59.308,81.067,59.308
			c16.303,0.13,32.398-3.655,46.933-11.04V294.9z M401.114,183.778c-0.061-0.352-0.156-0.924-0.219-1.136
			c-0.027-0.227-0.08-0.451-0.127-0.676l0.019-0.007c-0.308-1.529-0.625-3.058-0.875-4.771c-1.894-9.581-1.607-19.466,0.842-28.921
			c0.285-0.935,0.607-2.027,0.949-3.24l0.129-0.479c0.301-1.079,0.611-2.222,0.934-3.487c0.113-0.435,0.226-0.935,0.34-1.392
			c0.263-1.062,0.525-2.123,0.792-3.291c0.137-0.598,0.268-1.258,0.403-1.882c0.241-1.11,0.48-2.207,0.715-3.392
			c0.15-0.761,0.286-1.572,0.432-2.362c0.208-1.133,0.416-2.252,0.609-3.44c0.147-0.9,0.272-1.841,0.41-2.769
			c0.169-1.15,0.339-2.284,0.487-3.473c0.125-1.003,0.223-2.035,0.332-3.063c0.125-1.18,0.251-2.349,0.351-3.557
			c0.091-1.087,0.148-2.195,0.215-3.303c0.073-1.189,0.145-2.371,0.188-3.58c0.013-0.365,0.046-0.716,0.056-1.083
			c12.378,31.747,18.668,65.541,18.541,99.616h-2.835C421.357,193.168,412.24,185.006,401.114,183.778z M256.062,18.067
			c22.167,0.492,44.192,3.674,65.592,9.475c-0.196,0.027-0.382,0.078-0.579,0.106c-3.809,0.544-7.554,1.247-11.224,2.059
			c-0.368,0.082-0.738,0.152-1.105,0.236c-3.73,0.851-7.362,1.81-10.89,2.826c-0.282,0.081-0.565,0.154-0.844,0.236
			c-3.595,1.05-7.059,2.151-10.378,3.254l-0.54,0.175c-3.431,1.145-6.699,2.284-9.766,3.354c-6.524,2.669-13.319,4.617-20.267,5.808
			c-6.947-1.191-13.743-3.139-20.267-5.808c-3.077-1.073-6.356-2.216-9.798-3.365l-0.459-0.149
			c-3.345-1.111-6.839-2.222-10.463-3.28c-0.248-0.072-0.5-0.139-0.748-0.21c-3.558-1.026-7.225-1.992-10.99-2.85
			c-0.332-0.076-0.668-0.14-1.002-0.213c-3.713-0.823-7.504-1.534-11.36-2.082c-0.171-0.024-0.333-0.068-0.504-0.093
			C211.874,21.759,233.897,18.576,256.062,18.067z M104.029,104.475c0.009,0.356,0.042,0.697,0.054,1.051
			c0.044,1.25,0.119,2.471,0.194,3.701c0.065,1.069,0.121,2.139,0.207,3.19c0.103,1.25,0.234,2.46,0.364,3.679
			c0.104,0.985,0.2,1.978,0.32,2.94c0.153,1.23,0.329,2.406,0.503,3.593c0.132,0.893,0.253,1.8,0.394,2.667
			c0.198,1.215,0.411,2.36,0.625,3.519c0.14,0.764,0.272,1.551,0.417,2.287c0.24,1.212,0.484,2.334,0.731,3.467
			c0.13,0.602,0.256,1.236,0.388,1.814c0.268,1.173,0.531,2.239,0.796,3.306c0.113,0.455,0.226,0.954,0.338,1.389
			c0.314,1.223,0.612,2.323,0.905,3.373l0.161,0.602c0.341,1.212,0.662,2.301,0.947,3.236c2.724,11.704,2.554,23.895-0.494,35.519
			c-11.073,1.265-20.127,9.408-22.555,20.285h-2.835C85.361,170.017,91.651,136.222,104.029,104.475L104.029,104.475z
			 M68.329,280.325V229.55c0.043-4.672,3.861-8.427,8.533-8.392h8.969c-0.327,5.533-0.435,11.817-0.435,18.971
			c0.004,2.1,0.16,4.197,0.465,6.275h-0.465c-4.713,0-8.533,3.821-8.533,8.533c0,4.713,3.821,8.533,8.533,8.533h6.564
			c2.872,4.784,6.408,9.137,10.503,12.928v12.318l-25.6,0C72.19,288.752,68.372,284.997,68.329,280.325z M370.171,428.042
			c-11.865,9.947-21.161,22.605-27.1,36.904c-10.258,21.317-17.092,35.388-86.342,29.996c-0.225-0.017-0.442-0.025-0.667-0.025
			c-0.225,0-0.442,0.009-0.667,0.025c-69.292,5.392-76.083-8.683-86.342-29.996c-5.941-14.303-15.243-26.964-27.116-36.908
			c-23.183-18.633-34.933-87.646-38.633-122.254l2.783,0l24.592,42.342c6.477,10.42,17.967,16.653,30.234,16.4h4.617
			c10.876,0.135,21.216-4.708,28.075-13.15l20.675-26.642c2.345-2.647,5.934-3.825,9.392-3.083c3.525,0.593,6.866,1.995,9.758,4.096
			c6.251,5.625,14.237,8.944,22.633,9.408c8.41-0.468,16.408-3.797,22.667-9.433c2.87-2.08,6.18-3.47,9.675-4.062
			c3.487-0.765,7.114,0.428,9.467,3.112l20.667,26.617c6.854,8.436,17.19,13.275,28.058,13.138h4.617
			c12.274,0.253,23.771-5.992,30.242-16.425l24.583-42.317h2.783C405.129,340.388,393.387,409.388,370.171,428.042z
			 M443.796,280.325c-0.043,4.672-3.861,8.427-8.533,8.392l-25.6,0v-12.318c4.095-3.791,7.631-8.144,10.503-12.928h6.564
			c4.713,0,8.533-3.82,8.533-8.533c0-4.713-3.82-8.533-8.533-8.533h-0.465c0.305-2.078,0.46-4.175,0.465-6.275
			c0-7.154-0.108-13.438-0.435-18.971h8.969c4.672-0.035,8.49,3.72,8.533,8.392V280.325z"/>
		<path d="M328.096,403.371c-7.233-16.025-28.742-53.304-72.033-53.304s-64.8,37.279-72.017,53.254
			c-2.659,5.97-3.774,12.513-3.244,19.027c-0.009,3.061,0.321,6.114,0.985,9.102l1.375,5.8c1.617,8.182,6.485,15.358,13.492,19.883
			c4.96,3.014,10.941,3.858,16.542,2.333c13.938-4.157,28.336-6.582,42.867-7.221c14.546,0.64,28.957,3.07,42.908,7.233
			c1.79,0.485,3.637,0.732,5.492,0.733c3.88-0.014,7.684-1.078,11.008-3.079c7.01-4.53,11.882-11.711,13.5-19.9l1.358-5.771
			c0.667-2.989,1-6.043,0.993-9.106C331.857,415.858,330.748,409.328,328.096,403.371z M314.306,421.113
			c-0.093,1.221-0.283,2.433-0.569,3.625v0.017l-1.367,5.65c-0.639,3.538-2.603,6.7-5.492,8.842c-1.012,0.684-2.27,0.895-3.45,0.579
			c-15.418-4.473-31.325-7.047-47.366-7.667c-16.03,0.618-31.926,3.19-47.333,7.658c-1.189,0.321-2.459,0.113-3.483-0.571
			c-2.885-2.138-4.848-5.293-5.492-8.825l-1.367-5.683c-0.286-1.189-0.476-2.4-0.567-3.619c0.04-2.912,0.646-5.788,1.783-8.468
			c0.455-1.028,0.948-2.099,1.48-3.204h109.95c0.541,1.122,1.042,2.21,1.503,3.254C313.668,415.363,314.268,418.22,314.306,421.113
			L314.306,421.113z M211.489,392.379c9.904-14.946,26.641-23.933,44.571-23.933c17.93,0,34.667,8.987,44.571,23.933H211.489z"/>
		<path d="M128.062,240.2c2.251,0.003,4.412-0.887,6.008-2.475l8.533-8.462c2.164-2.147,3.019-5.285,2.243-8.233
			c-0.777-2.948-3.067-5.257-6.008-6.058c-2.941-0.801-6.086,0.028-8.251,2.174l-8.533,8.462c-2.454,2.435-3.197,6.11-1.881,9.307
			S124.605,240.2,128.062,240.2z"/>
		<path d="M139.07,263.063c1.593,1.607,3.76,2.516,6.023,2.525c2.263,0.009,4.437-0.881,6.044-2.475l25.6-25.388
			c3.312-3.324,3.319-8.699,0.014-12.031c-3.304-3.332-8.679-3.37-12.031-0.086l-25.6,25.388c-1.607,1.593-2.516,3.76-2.525,6.023
			C136.586,259.282,137.476,261.456,139.07,263.063z"/>
		<path d="M321.854,217.196c-1.592-1.609-3.759-2.519-6.023-2.528c-2.264-0.009-4.438,0.882-6.044,2.478l-8.533,8.463
			c-2.164,2.147-3.019,5.285-2.243,8.233s3.067,5.257,6.008,6.058c2.941,0.801,6.086-0.028,8.251-2.174l8.533-8.462
			c1.607-1.593,2.516-3.76,2.525-6.023S323.448,218.802,321.854,217.196z"/>
		<path d="M343.921,225.608l-25.6,25.388c-2.178,2.144-3.043,5.289-2.268,8.245s3.072,5.272,6.021,6.071s6.102-0.04,8.263-2.2
			l25.6-25.387c2.178-2.144,3.043-5.289,2.268-8.245c-0.775-2.956-3.072-5.272-6.021-6.071
			C349.234,222.609,346.082,223.448,343.921,225.608z"/>
		<path d="M153.662,147.117h51.2c4.672-0.035,8.49,3.72,8.533,8.392v8.458c0,4.713,3.821,8.533,8.533,8.533
			c4.713,0,8.533-3.82,8.533-8.533v-8.458c-0.055-14.093-11.507-25.482-25.6-25.458h-51.2c-4.713,0-8.533,3.821-8.533,8.533
			C145.129,143.296,148.95,147.117,153.662,147.117z"/>
		<path d="M290.196,172.5c2.263,0.001,4.434-0.898,6.035-2.499c1.6-1.6,2.499-3.771,2.499-6.035v-8.458
			c0.043-4.672,3.861-8.427,8.533-8.392h51.2c4.713,0,8.533-3.821,8.533-8.533c0-4.713-3.82-8.533-8.533-8.533h-51.2
			c-14.093-0.023-25.545,11.366-25.6,25.458v8.458c-0.001,2.263,0.898,4.434,2.499,6.035
			C285.762,171.602,287.932,172.501,290.196,172.5z"/>
	</g>
</g>
<g>
</g>
<g>
</g>
<g>
</g>
<g>
</g>
<g>
</g>
<g>
</g>
<g>
</g>
<g>
</g>
<g>
</g>
<g>
</g>
<g>
</g>
<g>
</g>
<g>
</g>
<g>
</g>
<g>
</g>
</svg>
