<?xml version="1.0" encoding="iso-8859-1"?>
<!-- Generator: Adobe Illustrator 19.0.0, SVG Export Plug-In . SVG Version: 6.00 Build 0)  -->
<svg version="1.1" id="Capa_1" xmlns="http://www.w3.org/2000/svg" xmlns:xlink="http://www.w3.org/1999/xlink" x="0px" y="0px"
	 viewBox="0 0 512 512" style="enable-background:new 0 0 512 512;" xml:space="preserve">
<g>
	<g transform="translate(1 1)">
		<g>
			<path style="fill:#BFB186;" d="M102.767,338.285l-1.365,0.341c-2.248,2.438-5.061,4.284-8.192,5.376
				c-3.728,1.212-7.788,0.874-11.264-0.939c-11.861-5.803-19.797-25.6-23.467-35.328c-6.315-16.811-13.568-37.632-7.168-55.467
				c1.661-6.191,7.33-10.452,13.739-10.325c10.836,2.004,20.656,7.667,27.819,16.043C92.605,285.073,95.934,312.074,102.767,338.285
				z"/>
			<path style="fill:#BFB186;" d="M451.524,307.736c-4.693,12.544-16.725,41.984-34.731,36.267
				c-3.131-1.092-5.944-2.938-8.192-5.376l-1.365-0.341c6.833-26.211,10.161-53.213,9.899-80.299
				c7.162-8.375,16.982-14.038,27.819-16.043c6.409-0.126,12.078,4.134,13.739,10.325
				C465.092,270.104,457.839,290.925,451.524,307.736z"/>
		</g>
		<path style="fill:#AD1457;" d="M416.964,229.656c-26.329,6.831-53.588,9.366-80.725,7.509c15.588-1.299,31.052-3.809,46.251-7.509
			c-2.042-40.092-18.923-77.991-47.36-106.325c-11.307-11.399-24.284-21.01-38.485-28.501c0.445-3.481,0.673-6.987,0.683-10.496
			c-0.022-35.766-24.713-66.79-59.563-74.837c22.802-5.256,46.756,0.171,65.065,14.742s28.976,36.696,28.972,60.095
			c-0.009,3.509-0.237,7.015-0.683,10.496c14.201,7.491,27.179,17.102,38.485,28.501
			C398.041,151.665,414.922,189.564,416.964,229.656z"/>
		<path style="fill:#E91E63;" d="M382.489,229.656c-15.199,3.7-30.662,6.211-46.251,7.509c-15.448-1.17-30.605-4.83-44.885-10.837
			c-37.2-16.574-63.651-50.647-70.485-90.795c0.664,18.189-3.643,36.215-12.459,52.139c-5.917,10.204-14.199,18.838-24.149,25.173
			c-29.099,18.688-67.413,17.323-83.627,15.701c-3.925-0.341-6.485-0.768-7.424-0.939c3.562-56.135,35.996-106.4,85.675-132.779
			c-0.445-3.481-0.673-6.987-0.683-10.496c0.022-35.766,24.713-66.79,59.563-74.837c34.849,8.047,59.541,39.071,59.563,74.837
			c-0.009,3.509-0.237,7.015-0.683,10.496c14.201,7.491,27.179,17.102,38.485,28.501
			C363.566,151.665,380.448,189.564,382.489,229.656z"/>
		<path style="fill:#AD1457;" d="M176.324,463.725c-15.491,22.279-40.116,36.484-67.157,38.741
			c20.48-28.416-9.899-47.445-39.339-75.861c-22.016-21.163-0.341-63.317,12.117-83.541c3.476,1.812,7.536,2.151,11.264,0.939
			c3.131-1.092,5.944-2.938,8.192-5.376l1.365-0.341C113.858,386.646,139.534,430.434,176.324,463.725z"/>
		<path style="fill:#BFB186;" d="M417.135,257.987v-20.053c0-2.731-0.085-5.547-0.171-8.277c-8.875,2.133-17.323,3.755-25.429,5.035
			c-16.828,2.791-33.911,3.735-50.944,2.816c-16.937-0.836-33.599-4.619-49.237-11.179c-37.2-16.574-63.651-50.647-70.485-90.795
			c0.378,15.315-2.531,30.534-8.533,44.629c-5.911,13.436-15.684,24.812-28.075,32.683c-26.453,16.981-60.672,17.408-78.763,16.043
			c-4.115-0.216-8.217-0.644-12.288-1.28c-0.071,0.595-0.099,1.193-0.085,1.792c-0.171,2.816-0.256,5.632-0.256,8.533v20.053
			c-0.263,27.086,3.066,54.087,9.899,80.299c11.091,48.361,36.768,92.149,73.557,125.44c15.454,13.407,32.791,24.476,51.456,32.853
			c8.568,3.828,17.838,5.833,27.221,5.888c9.39,0.005,18.673-2.003,27.221-5.888c78.165-35.413,111.189-103.851,125.013-158.293
			C414.069,312.074,417.397,285.073,417.135,257.987z"/>
		<path style="fill:#FFECB3;" d="M391.62,257.987v-20.053c0-1.109,0-2.133-0.085-3.243c0-1.707,0-3.413-0.085-5.035
			c-16.697,4.068-33.712,6.695-50.859,7.851c-25.45,2.212-51.063-1.618-74.752-11.179c-22.23-9.405-40.945-25.553-53.504-46.165
			c-5.911,13.436-15.684,24.812-28.075,32.683c-26.453,16.981-60.672,17.408-78.763,16.043c-4.352,0.341-8.533,0.512-12.373,0.512
			c-0.171,2.816-0.256,5.632-0.256,8.533v20.053c-0.263,27.086,3.066,54.087,9.899,80.299
			c11.091,48.361,36.768,92.149,73.557,125.44c15.454,13.407,32.791,24.476,51.456,32.853c4.634,2.11,9.504,3.657,14.507,4.608
			c4.975-0.951,9.817-2.498,14.421-4.608c78.165-35.413,111.189-103.851,125.013-158.293
			C388.554,312.074,391.883,285.073,391.62,257.987z"/>
		<path style="fill:#E91E63;" d="M314.735,434.2c-13.005,20.594-35.388,33.385-59.733,34.133
			c-24.345-0.748-46.729-13.539-59.733-34.133c0,0,26.539-17.067,39.851-17.067c7.08-0.364,14.078,1.648,19.883,5.717
			c5.805-4.069,12.803-6.082,19.883-5.717C288.196,417.133,314.735,434.2,314.735,434.2z"/>
		<g>
			<path style="fill:#00BCD4;" d="M203.801,272.067V293.4c0,11.782-9.551,21.333-21.333,21.333
				c-11.782,0-21.333-9.551-21.333-21.333v-21.333H203.801z"/>
			<path style="fill:#00BCD4;" d="M348.868,272.067V293.4c0,11.782-9.551,21.333-21.333,21.333
				c-11.782,0-21.333-9.551-21.333-21.333v-21.333H348.868z"/>
		</g>
	</g>
	<g>
		<path d="M51.46,311.708c4.128,12.889,11.026,24.718,20.209,34.66c-22.384,39.116-24.858,69.989-6.768,87.378
			c4.625,4.467,9.283,8.708,13.758,12.788c27.167,24.758,36.325,35.65,24.583,51.946c-1.869,2.599-2.126,6.026-0.667,8.875
			c1.459,2.849,4.39,4.643,7.592,4.646c26.654-1.893,51.365-14.637,68.361-35.257c14.301,11.467,29.987,21.09,46.689,28.644
			c9.649,4.381,20.128,6.636,30.725,6.612h0.117c10.597,0.023,21.076-2.232,30.725-6.612
			c75.508-34.254,110.342-98.567,126.375-152.963c0.662,0.282,1.338,0.531,2.025,0.746c17.667,5.621,32.925-8.346,45.358-41.467
			c7.558-20.146,14.333-41.479,7.125-61.338c-2.875-9.756-12.004-16.318-22.167-15.933c-6.743,0.556-13.229,2.839-18.833,6.629
			v-2.129c0-2.268-0.241-4.494-0.329-6.747c0.222-1.162,0.198-2.358-0.071-3.511c-0.021-0.089-0.088-0.151-0.112-0.239
			c-2.369-41.551-19.995-80.764-49.497-110.119c-10.614-10.648-22.623-19.808-35.698-27.23c0.123-1.909,0.373-3.898,0.373-5.754
			C341.335,38.205,303.13,0,256.001,0s-85.333,38.205-85.333,85.333c0,1.869,0.252,3.873,0.377,5.796
			c-49.146,28.282-81.035,79.129-85.096,135.686c-0.034,0.157-0.138,0.278-0.164,0.438c-0.03,0.525-0.01,1.051,0.062,1.571
			c-0.198,3.363-0.512,6.696-0.512,10.108v2.129c-5.607-3.791-12.096-6.074-18.842-6.629c-10.152-0.342-19.258,6.205-22.167,15.937
			C37.126,270.225,43.901,291.558,51.46,311.708z M124.701,492.388c4.975-22.458-15.058-40.708-34.542-58.467
			c-4.367-3.975-8.9-8.104-13.417-12.471c-16.08-15.448-0.356-49.077,10.22-67.44c3.304,0.431,6.662,0.147,9.847-0.835
			c0.683-0.217,1.358-0.467,2.033-0.75c11.827,42.963,34.854,82.013,66.727,113.155
			C154.793,478.243,140.609,487.547,124.701,492.388L124.701,492.388z M279.735,489.846c-7.436,3.372-15.51,5.107-23.675,5.087
			h-0.117c-8.165,0.02-16.239-1.715-23.675-5.087C96.851,428.413,102.326,261.017,102.393,259.333
			c0.003-0.062-0.031-0.117-0.03-0.178c0.002-0.067,0.038-0.122,0.038-0.189v-20.033c0-0.243,0.035-0.477,0.036-0.72
			c4.605,0.427,10.393,0.782,16.98,0.782c23.543,0.562,46.821-5.057,67.514-16.299c14.491,1.692,27.645,9.277,36.369,20.97
			c1.686,2.548,4.606,4,7.656,3.807c3.05-0.193,5.763-2.002,7.114-4.743c1.351-2.741,1.134-5.995-0.57-8.531
			c-8.121-11.732-19.902-20.441-33.499-24.765c9.868-9.905,17.129-22.1,21.135-35.495c11.139,23.816,29.661,43.405,52.817,55.858
			c-1.239,1.424-2.402,2.911-3.486,4.456c-1.682,2.549-1.873,5.802-0.502,8.53c1.371,2.728,4.096,4.516,7.145,4.687
			c3.049,0.171,5.956-1.3,7.624-3.858c1.565-2.296,3.37-4.419,5.385-6.333c19.118,7.017,39.361,10.467,59.724,10.178
			c18.752-0.205,37.434-2.318,55.758-6.307v17.836c0,0.064,0.035,0.117,0.036,0.181c0.002,0.058-0.031,0.111-0.028,0.169
			C409.685,261.021,415.385,428.308,279.735,489.846L279.735,489.846z M446.393,251.475c0.908-0.038,3.458-0.163,5.233,4.721
			c5.225,14.387-0.625,32.35-7.067,49.513c-8.283,22.079-17.008,33.462-24.233,31.192c-0.964-0.335-1.864-0.834-2.658-1.475
			c5.72-23.877,8.753-48.319,9.042-72.871C431.868,256.79,438.789,252.894,446.393,251.475z M256.001,85.333
			c4.713,0,8.533-3.82,8.533-8.533c0-4.713-3.82-8.533-8.533-8.533c-23.452-0.002-46.649,4.861-68.126,14.281
			c1.502-37.116,32.423-66.21,69.561-65.451s66.845,31.09,66.831,68.237c-0.008,3.157-0.214,6.31-0.617,9.442
			c-0.007,0.053,0.017,0.099,0.012,0.152c-0.037,0.706,0.016,1.415,0.158,2.108c0.016,0.407,0.06,0.812,0.132,1.213
			c0.203,0.524,0.458,1.026,0.759,1.499c0.205,0.486,0.456,0.952,0.747,1.391c0.301,0.304,0.623,0.586,0.966,0.843
			c0.476,0.497,1.011,0.933,1.594,1.298c0.048,0.027,0.074,0.074,0.123,0.1c13.447,7.091,25.733,16.193,36.433,26.992
			c25.224,25.017,40.893,58.075,44.288,93.439c-55.839,12.056-100.382,7.225-132.271-14.776
			c-24.347-17.627-40.925-43.994-46.258-73.575c-0.301-0.897-0.602-1.794-0.903-2.691c-0.271-0.511-0.595-0.992-0.967-1.434
			c-0.284-0.392-0.601-0.758-0.948-1.094c-1.25-1.182-2.87-1.897-4.585-2.024c-0.349-0.096-0.705-0.167-1.064-0.215
			c-0.183,0-0.336,0.093-0.517,0.104c-0.186,0.012-0.353-0.062-0.541-0.038c-0.376,0.096-0.745,0.22-1.103,0.37
			c-0.557,0.125-1.099,0.306-1.619,0.542c-0.471,0.254-0.916,0.554-1.329,0.896c-0.905,0.601-1.637,1.428-2.123,2.4
			c-0.293,0.458-0.539,0.945-0.735,1.452c-0.167,0.538-0.278,1.092-0.333,1.652c-0.106,0.379-0.184,0.764-0.233,1.154
			c0,32.554-11,56.154-32.683,70.133c-26.235,16.843-61.289,15.958-77.133,14.478C112.612,143.788,178.112,85.45,256.001,85.333z
			 M60.368,256.2c1.583-4.354,3.817-4.733,4.883-4.733l0.35,0.009c7.607,1.417,14.532,5.312,19.692,11.079
			c0.289,24.551,3.322,48.993,9.042,72.871c-0.798,0.641-1.7,1.141-2.667,1.479c-7.042,2.262-15.942-9.117-24.225-31.192
			C61.001,288.546,55.151,270.583,60.368,256.2z"/>
		<path d="M256.001,384c11.567,0.499,22.886-3.449,31.633-11.034c3.276-3.287,3.299-8.598,0.05-11.913
			c-3.27-3.34-8.611-3.452-12.017-0.25c-5.608,4.335-12.588,6.511-19.666,6.129c-7.032,0.375-13.967-1.764-19.567-6.033
			c-3.341-3.281-8.701-3.256-12.012,0.054c-3.311,3.311-3.335,8.671-0.054,12.012C233.116,380.551,244.435,384.499,256.001,384z"/>
		<path d="M320.351,428.021c-4.792-3.075-29.425-18.421-44.442-18.421c-6.875-0.105-13.683,1.359-19.908,4.279
			c-6.225-2.92-13.033-4.384-19.908-4.279c-15.017,0-39.65,15.346-44.442,18.421c-3.842,2.472-5.058,7.531-2.758,11.479
			c14.497,23.257,39.711,37.673,67.108,38.367c27.397-0.694,52.611-15.109,67.108-38.367
			C325.409,435.552,324.193,430.493,320.351,428.021z M256.001,460.8c-18.424-0.295-35.768-8.748-47.35-23.079
			c8.378-5.364,17.685-9.114,27.442-11.054c5.042-0.28,10.049,0.988,14.35,3.633c3.175,2.606,7.735,2.657,10.967,0.121
			c4.323-2.734,9.393-4.047,14.5-3.754c9.757,1.94,19.064,5.69,27.442,11.054C291.767,452.05,274.425,460.503,256.001,460.8z"/>
		<path d="M256.001,347.183c2.263,0.001,4.434-0.898,6.035-2.499c1.6-1.6,2.499-3.771,2.499-6.035v-8.533
			c0-4.713-3.82-8.533-8.533-8.533s-8.533,3.821-8.533,8.533v8.533c-0.001,2.263,0.898,4.434,2.499,6.035
			C251.567,346.285,253.738,347.184,256.001,347.183z"/>
		<path d="M213.335,294.4v-21.333c0.001-2.263-0.898-4.434-2.499-6.035s-3.771-2.499-6.035-2.499h-59.733
			c-4.713,0-8.533,3.82-8.533,8.533s3.82,8.533,8.533,8.533h8.533v12.8c0,16.495,13.372,29.867,29.867,29.867
			S213.335,310.895,213.335,294.4z M196.268,294.4c0,7.069-5.731,12.8-12.8,12.8c-7.069,0-12.8-5.731-12.8-12.8v-12.8h25.6V294.4z"
			/>
		<path d="M366.935,264.533h-59.733c-2.263-0.001-4.434,0.898-6.035,2.499s-2.499,3.771-2.499,6.035V294.4
			c0,16.495,13.372,29.867,29.867,29.867c16.495,0,29.867-13.372,29.867-29.867v-12.8h8.533c4.713,0,8.533-3.82,8.533-8.533
			S371.648,264.533,366.935,264.533z M341.335,294.4c0,7.069-5.731,12.8-12.8,12.8c-7.069,0-12.8-5.731-12.8-12.8v-12.8h25.6V294.4z
			"/>
	</g>
</g>
<g>
</g>
<g>
</g>
<g>
</g>
<g>
</g>
<g>
</g>
<g>
</g>
<g>
</g>
<g>
</g>
<g>
</g>
<g>
</g>
<g>
</g>
<g>
</g>
<g>
</g>
<g>
</g>
<g>
</g>
</svg>
