<?xml version="1.0" encoding="iso-8859-1"?>
<!-- Generator: Adobe Illustrator 19.0.0, SVG Export Plug-In . SVG Version: 6.00 Build 0)  -->
<svg version="1.1" id="Capa_1" xmlns="http://www.w3.org/2000/svg" xmlns:xlink="http://www.w3.org/1999/xlink" x="0px" y="0px"
	 viewBox="0 0 507.82 507.82" style="enable-background:new 0 0 507.82 507.82;" xml:space="preserve">
<g>
	<g transform="translate(1 1)">
		<g>
			<path style="fill:#BFB186;" d="M110.221,208.836v83.934H76.648c-9.26-0.027-16.76-7.527-16.787-16.787v-50.361
				c0.027-9.26,7.527-16.76,16.787-16.787H110.221z"/>
			<path style="fill:#BFB186;" d="M445.959,225.623v50.361c-0.027,9.26-7.527,16.76-16.787,16.787h-33.574v-83.934h33.574
				C438.432,208.863,445.932,216.363,445.959,225.623z"/>
		</g>
		<path style="fill:#4E342E;" d="M118.615,142.528c8.393,27.614-8.393,66.308-8.393,66.308H76.648
			c0-103.659,37.099-145.29,47.171-154.607C105.269,79.409,111.984,120.621,118.615,142.528z"/>
		<path style="fill:#FFECB3;" d="M341.964,351.021c-8.116,0.135-15.847-3.452-20.984-9.736l-20.312-26.439
			c-4.283-5.209-11.124-7.576-17.71-6.127c-4.821,0.887-9.365,2.9-13.262,5.875c-3.459,3.055-7.561,5.293-12.003,6.547
			c-0.252,0.084-0.42,0.084-0.671,0.168c-1.347,0.338-2.725,0.535-4.113,0.588c-6.256-0.482-12.169-3.054-16.787-7.302
			c-3.896-2.975-8.44-4.988-13.262-5.875c-6.586-1.449-13.428,0.919-17.71,6.127l-5.372,7.05c4.074,0.894,7.891,2.702,11.163,5.288
			c4.618,4.248,10.531,6.82,16.787,7.302c6.256-0.482,12.169-3.054,16.787-7.302c3.7-2.848,8.009-4.802,12.59-5.708
			c0.252-0.084,0.42-0.084,0.671-0.168c6.586-1.449,13.428,0.919,17.71,6.127l20.312,26.439c5.137,6.285,12.868,9.872,20.984,9.736
			h4.532c9.102,0.206,17.642-4.383,22.494-12.087l0.252-0.504H341.964z"/>
		<path style="fill:#BFB186;" d="M387.205,142.528c6.631-21.907,13.346-63.119-5.204-88.299c-3.188-4.332-7.074-8.105-11.499-11.163
			c-0.084,0-0.084,0-0.168-0.168h-0.084c-2.607-1.743-5.359-3.26-8.226-4.532C320.057,19.9,269.697,51.627,252.91,51.627
			S185.762,19.9,143.795,38.365c-2.893,1.273-5.673,2.789-8.31,4.532c-0.084,0.168-0.084,0.168-0.168,0.168
			c-1.76,1.203-3.416,2.551-4.952,4.029c-2.438,2.13-4.633,4.523-6.547,7.134c-18.55,25.18-11.835,66.392-5.204,88.299
			c8.393,27.614-8.393,66.308-8.393,66.308v83.934l26.607,46.164c4.852,7.703,13.393,12.292,22.494,12.087h4.532
			c8.116,0.135,15.847-3.452,20.984-9.736l14.94-19.389l5.372-7.05c4.283-5.209,11.124-7.576,17.71-6.127
			c4.821,0.887,9.365,2.9,13.262,5.875c4.618,4.248,10.531,6.82,16.787,7.302c1.388-0.053,2.766-0.25,4.113-0.588
			c0.252-0.084,0.42-0.084,0.671-0.168c4.442-1.254,8.544-3.491,12.003-6.547c3.896-2.975,8.44-4.988,13.262-5.875
			c6.586-1.449,13.428,0.919,17.71,6.127l20.312,26.439c5.137,6.285,12.868,9.872,20.984,9.736h4.532
			c9.102,0.206,17.642-4.383,22.494-12.087l26.104-45.325l0.504-0.839v-83.934C395.598,208.836,378.811,170.142,387.205,142.528z"/>
		<path style="fill:#FFECB3;" d="M370.418,221.426v83.934l-0.504,0.839l-25.852,44.821h-2.098
			c-8.116,0.135-15.847-3.452-20.984-9.736l-20.312-26.439c-4.283-5.209-11.124-7.576-17.71-6.127
			c-4.821,0.887-9.365,2.9-13.262,5.875c-3.459,3.055-7.561,5.293-12.003,6.547c-0.252,0.084-0.42,0.084-0.671,0.168
			c-1.347,0.338-2.725,0.535-4.113,0.588c-6.256-0.482-12.169-3.054-16.787-7.302c-3.896-2.975-8.44-4.988-13.262-5.875
			c-6.586-1.449-13.428,0.919-17.71,6.127l-5.372,7.05l-14.94,19.389c-5.137,6.285-12.868,9.872-20.984,9.736h-4.532
			c-9.102,0.206-17.642-4.383-22.494-12.087l-26.607-46.164v-83.934c0,0,16.787-38.694,8.393-66.308
			c-6.631-21.907-13.346-63.119,5.204-88.299c1.913-2.612,4.109-5.004,6.547-7.134c39.197-9.065,82.088,17.123,97.364,17.123
			c16.787,0,67.148-31.727,109.115-13.262c2.867,1.273,5.618,2.789,8.226,4.532h0.084c0.084,0.168,0.084,0.168,0.168,0.168
			c4.425,3.058,8.311,6.831,11.499,11.163c18.549,25.18,11.835,66.392,5.204,88.299
			C353.631,182.732,370.418,221.426,370.418,221.426z"/>
		<g>
			<path style="fill:#00BCD4;" d="M328.451,238.213V255c0,9.271-7.516,16.787-16.787,16.787s-16.787-7.516-16.787-16.787v-16.787
				H328.451z"/>
			<path style="fill:#00BCD4;" d="M210.943,238.213V255c0,9.271-7.516,16.787-16.787,16.787s-16.787-7.516-16.787-16.787v-16.787
				H210.943z"/>
		</g>
		<g>
			<path style="fill:#4E342E;" d="M370.25,42.898c-2.607-1.743-5.359-3.26-8.226-4.532C320.057,19.9,269.697,51.627,252.91,51.627
				S185.762,19.9,143.795,38.365c-2.893,1.273-5.673,2.789-8.31,4.532C174.767,7.393,252.91,7.393,252.91,7.393
				S330.969,7.393,370.25,42.898z"/>
			<path style="fill:#4E342E;" d="M429.172,208.836h-33.574c0,0-16.787-38.694-8.393-66.308
				c6.631-21.907,13.346-63.119-5.204-88.299C392.073,63.546,429.172,105.177,429.172,208.836z"/>
			<path style="fill:#4E342E;" d="M395.598,292.77l-0.504,0.839l-9.904,17.207v0.168l-16.199,27.95
				c-4.852,7.703-13.393,12.292-22.494,12.087h-4.532c-8.116,0.135-15.847-3.452-20.984-9.736l-0.755-1.007l-19.557-25.432
				c-2.588-3.238-6.251-5.441-10.324-6.211c-2.446-0.433-4.951-0.405-7.386,0.084c-4.821,0.887-9.365,2.9-13.262,5.875
				c-4.618,4.248-10.531,6.82-16.787,7.302c-6.256-0.482-12.169-3.054-16.787-7.302c-3.896-2.975-8.44-4.988-13.262-5.875
				c-2.435-0.489-4.94-0.517-7.386-0.084c-4.073,0.77-7.736,2.973-10.324,6.211l-19.557,25.432l-0.755,1.007
				c-5.137,6.285-12.868,9.872-20.984,9.736h-4.532c-9.102,0.206-17.642-4.383-22.494-12.087l-16.199-27.95v-0.168l-10.408-18.046
				H93.434c0,0,8.561,109.283,41.967,136.31c41.967,34.077,8.393,76.8,117.508,68.239c109.115,8.561,75.541-34.161,117.508-68.239
				c33.406-27.027,41.967-136.31,41.967-136.31H395.598z M317.791,417.665l-1.343,5.456c-2.686,10.66-10.828,17.039-19.137,14.856
				c-14.481-4.031-29.381-6.369-44.401-6.967c-15.02,0.598-29.92,2.935-44.401,6.967c-8.31,2.182-16.451-4.197-19.137-14.856
				l-1.343-5.456c-1.61-6.302-1.018-12.966,1.679-18.885c2.669-5.788,5.902-11.298,9.652-16.451
				c11.593-18.39,31.811-29.545,53.55-29.545s41.957,11.155,53.55,29.545c3.751,5.153,6.984,10.663,9.652,16.451
				C318.809,404.699,319.401,411.363,317.791,417.665z"/>
		</g>
		<path style="fill:#795548;" d="M368.991,338.934c-4.852,7.703-13.393,12.292-22.494,12.087h-4.532
			c-8.116,0.135-15.847-3.452-20.984-9.736l-0.755-1.007c-3.943-1.243-7.422-3.641-9.988-6.883l-17.123-22.159
			c-0.775-1.012-1.711-1.891-2.77-2.602c-3.519-2.521-7.94-3.435-12.17-2.518c-4.063,0.735-7.891,2.433-11.163,4.952
			c-3.9,3.522-8.861,5.648-14.101,6.043c-5.24-0.395-10.201-2.521-14.101-6.043c-3.272-2.519-7.1-4.217-11.163-4.952
			c-4.23-0.917-8.651-0.003-12.17,2.518c-1.059,0.711-1.995,1.59-2.77,2.602l-17.123,22.159c-2.566,3.242-6.045,5.639-9.988,6.883
			l-0.755,1.007c-5.137,6.285-12.868,9.872-20.984,9.736h-4.532c-9.102,0.206-17.642-4.383-22.494-12.087l-16.199-27.95
			c3.693,27.866,13.094,79.57,33.322,95.853c35.336,28.454,7.05,64.21,98.959,57.075c91.908,7.134,63.622-28.622,98.959-57.075
			c20.228-16.283,29.629-67.987,33.322-95.853L368.991,338.934z M199.695,381.489c6.295-13.43,22.159-38.526,53.214-38.526
			s46.919,25.096,53.214,38.526c0.148,0.264,0.26,0.546,0.336,0.839c1.997,4.725,2.381,9.976,1.091,14.94l-1.175,4.532
			c-2.182,8.981-9.065,14.269-16.115,12.422c-12.186-3.361-24.719-5.305-37.351-5.792c-12.632,0.487-25.165,2.43-37.351,5.792
			c-7.05,1.847-13.933-3.441-16.115-12.422l-1.175-4.532c-1.289-4.965-0.906-10.216,1.091-14.94
			C199.435,382.035,199.548,381.753,199.695,381.489z"/>
		<path style="fill:#FFE0B2;" d="M317.791,417.665l-1.343,5.456c-2.686,10.66-10.828,17.039-19.137,14.856
			c-14.481-4.031-29.381-6.369-44.401-6.967c-15.02,0.598-29.92,2.935-44.401,6.967c-8.31,2.182-16.451-4.197-19.137-14.856
			l-1.343-5.456c-1.61-6.302-1.018-12.966,1.679-18.885c7.47-16.031,26.355-45.996,63.203-45.996s55.732,29.965,63.203,45.996
			C318.809,404.699,319.401,411.363,317.791,417.665z"/>
		<g>
			<path style="fill:#CBB292;" d="M110.221,259.197h-25.18c-4.636,0-8.393-3.758-8.393-8.393c0-4.636,3.758-8.393,8.393-8.393h25.18
				c4.636,0,8.393,3.758,8.393,8.393C118.615,255.439,114.857,259.197,110.221,259.197z"/>
			<path style="fill:#CBB292;" d="M420.779,259.197h-25.18c-4.636,0-8.393-3.758-8.393-8.393c0-4.636,3.758-8.393,8.393-8.393h25.18
				c4.636,0,8.393,3.758,8.393,8.393C429.172,255.439,425.414,259.197,420.779,259.197z"/>
		</g>
	</g>
	<g>
		<path d="M438.411,202.941c-1.634-100.773-37.907-142.866-49.527-153.693c-3.463-4.524-7.582-8.505-12.22-11.813
			c-0.143-0.116-0.309-0.204-0.46-0.312C334.822,0.455,257.212,0,253.91,0c-3.31,0-81.381,0.443-122.681,37.369l-0.22,0.168
			c-4.579,3.286-8.646,7.231-12.07,11.708c-11.617,10.823-47.895,52.916-49.53,153.696c-10.11,3.486-16.907,12.988-16.941,23.682
			v50.361c0.015,13.9,11.28,25.165,25.18,25.18h9.12c2.714,27.128,13.342,109.323,44.339,134.443
			c9.745,8.322,17.322,18.885,22.082,30.783c13.475,28.246,26.959,44.98,100.721,39.328c9.648,0.746,18.238,1.102,25.959,1.102
			c51.287,0,63.049-15.881,74.762-40.43c4.758-11.894,12.333-22.455,22.074-30.775c31.004-25.126,41.633-107.323,44.347-134.451
			h9.12c13.9-0.015,25.165-11.28,25.18-25.18v-50.361C455.318,215.929,448.521,206.427,438.411,202.941z M119.615,211.508
			l0.235-0.598l0.075-0.19c0.216-0.548,0.454-1.169,0.723-1.882l0.251-0.671c0.238-0.64,0.487-1.331,0.753-2.077
			c0.121-0.34,0.236-0.663,0.361-1.024c0.255-0.733,0.517-1.517,0.788-2.332c0.143-0.429,0.279-0.833,0.425-1.284
			c0.29-0.9,0.585-1.859,0.882-2.838c0.126-0.413,0.247-0.795,0.373-1.22c0.39-1.321,0.778-2.7,1.163-4.138l0.102-0.365
			c0.415-1.563,0.82-3.191,1.209-4.867c0.103-0.443,0.194-0.909,0.295-1.36c0.276-1.238,0.546-2.484,0.797-3.77
			c0.124-0.634,0.231-1.283,0.348-1.927c0.207-1.144,0.408-2.288,0.589-3.46c0.112-0.727,0.207-1.462,0.307-2.198
			c0.153-1.117,0.295-2.236,0.416-3.37c0.084-0.779,0.154-1.558,0.222-2.343c0.098-1.13,0.176-2.259,0.238-3.398
			c0.043-0.792,0.078-1.579,0.102-2.374c0.035-1.149,0.039-2.295,0.031-3.445c-0.005-0.784-0.009-1.565-0.036-2.348
			c-0.04-1.185-0.127-2.362-0.22-3.54c-0.058-0.742-0.102-1.483-0.183-2.22c-0.14-1.284-0.346-2.551-0.558-3.818
			c-0.102-0.614-0.175-1.234-0.296-1.843c-0.369-1.864-0.811-3.707-1.359-5.511c-0.507-1.677-1.36-4.654-2.284-8.556
			c-4.006-16.907-9.358-51.18,6.204-72.323c2.635-3.594,5.854-6.72,9.523-9.248l-0.016-0.02l0.199-0.143
			c2.194-1.439,4.501-2.696,6.899-3.759c26.484-11.664,57.566-0.717,80.254,7.262c8.117,3.481,16.704,5.741,25.483,6.709
			c8.779-0.967,17.366-3.228,25.484-6.709c20.783-7.311,48.587-17.028,73.431-9.7c2.31,0.662,4.575,1.471,6.782,2.421
			c2.439,1.083,4.781,2.372,7,3.853l0.123,0.082v0.004c3.666,2.526,6.883,5.648,9.516,9.238
			c19.164,26.021,6.631,71.947,3.926,80.877c-0.548,1.805-0.99,3.647-1.359,5.512c-0.121,0.612-0.194,1.235-0.297,1.852
			c-0.212,1.264-0.416,2.527-0.557,3.807c-0.082,0.741-0.124,1.486-0.183,2.23c-0.092,1.177-0.18,2.352-0.22,3.534
			c-0.027,0.784-0.031,1.565-0.036,2.349c-0.008,1.151-0.004,2.298,0.031,3.447c0.024,0.792,0.059,1.578,0.102,2.368
			c0.062,1.143,0.141,2.278,0.24,3.412c0.068,0.779,0.136,1.552,0.22,2.325c0.123,1.145,0.266,2.273,0.42,3.4
			c0.099,0.725,0.192,1.45,0.303,2.167c0.183,1.19,0.387,2.352,0.598,3.513c0.114,0.625,0.217,1.257,0.338,1.872
			c0.258,1.321,0.535,2.602,0.819,3.872c0.093,0.417,0.177,0.848,0.273,1.258c0.391,1.688,0.799,3.327,1.216,4.9l0.026,0.095
			c0.41,1.539,0.826,3.008,1.242,4.416c0.11,0.372,0.217,0.704,0.326,1.066c0.314,1.036,0.623,2.045,0.93,2.993
			c0.135,0.418,0.262,0.793,0.394,1.193c0.281,0.847,0.553,1.662,0.818,2.422c0.118,0.339,0.227,0.642,0.34,0.963
			c0.274,0.769,0.53,1.48,0.774,2.137l0.232,0.62c0.277,0.734,0.522,1.374,0.743,1.934l0.059,0.149l0.242,0.615v80.023
			l-25.475,44.211c-3.357,5.103-9.124,8.095-15.229,7.902h-4.541c-5.52,0.14-10.802-2.253-14.336-6.496l-20.279-26.357
			c-6.26-7.829-16.422-11.425-26.213-9.275c-6.201,1.142-12.021,3.81-16.934,7.762c-3.088,2.845-6.977,4.671-11.139,5.229
			c-4.263-0.47-8.262-2.296-11.41-5.209c-4.933-3.971-10.779-6.649-17.008-7.791c-9.761-2.151-19.897,1.437-26.131,9.25
			l-20.304,26.374c-3.532,4.252-8.818,6.652-14.344,6.512h-4.541c-6.097,0.194-11.858-2.788-15.221-7.877l-25.484-44.235V211.508z
			 M402.352,201.443l-0.145-0.4c-0.435-1.212-0.91-2.575-1.414-4.11c-0.07-0.213-0.143-0.456-0.213-0.674
			c-0.458-1.415-0.929-2.965-1.401-4.59c-0.117-0.406-0.236-0.803-0.353-1.22c-0.527-1.872-1.045-3.854-1.535-5.922
			c-0.088-0.371-0.169-0.759-0.255-1.135c-0.43-1.883-0.827-3.83-1.186-5.819c-0.072-0.397-0.151-0.783-0.219-1.183
			c-0.378-2.226-0.685-4.502-0.923-6.793c-0.051-0.493-0.087-0.989-0.13-1.484c-0.187-2.132-0.303-4.272-0.321-6.401
			c-0.003-0.275-0.023-0.552-0.022-0.826c0.012-2.266,0.15-4.531,0.411-6.782c0.059-0.52,0.133-1.034,0.207-1.549
			c0.294-2.231,0.756-4.436,1.384-6.597c0.277-0.915,0.588-1.975,0.918-3.158c0.145-0.519,0.304-1.144,0.457-1.712
			c0.194-0.72,0.381-1.398,0.583-2.191c0.185-0.726,0.372-1.545,0.561-2.328c0.184-0.764,0.364-1.486,0.549-2.301
			c0.187-0.823,0.367-1.722,0.552-2.594c0.185-0.875,0.371-1.719,0.551-2.64c0.179-0.916,0.344-1.891,0.516-2.849
			c0.174-0.967,0.349-1.911,0.513-2.918c0.161-0.993,0.3-2.03,0.448-3.058c0.15-1.045,0.303-2.073,0.438-3.15
			c0.131-1.057,0.235-2.145,0.348-3.23c0.116-1.111,0.235-2.212,0.328-3.349c0.09-1.096,0.148-2.211,0.214-3.327
			c0.07-1.178,0.141-2.348,0.182-3.545c0.012-0.362,0.046-0.71,0.055-1.073c12.187,31.545,18.375,65.088,18.245,98.905H402.352z
			 M253.91,16.787c21.92,0.492,43.696,3.681,64.836,9.496c-0.269,0.037-0.523,0.106-0.791,0.144
			c-3.588,0.513-7.115,1.174-10.579,1.934c-0.563,0.124-1.126,0.233-1.686,0.362c-3.488,0.802-6.884,1.703-10.192,2.655
			c-0.469,0.135-0.941,0.259-1.405,0.396c-3.39,0.999-6.656,2.045-9.798,3.093c-0.339,0.113-0.677,0.22-1.012,0.333
			c-3.323,1.118-6.488,2.229-9.463,3.275c-6.405,2.645-13.082,4.576-19.91,5.758c-6.828-1.182-13.505-3.113-19.91-5.758
			c-3.036-1.068-6.273-2.205-9.671-3.347l-0.539-0.177c-3.277-1.096-6.699-2.191-10.247-3.234c-0.302-0.089-0.607-0.169-0.91-0.257
			c-3.466-1.004-7.036-1.948-10.702-2.787c-0.395-0.091-0.79-0.168-1.188-0.255c-3.618-0.8-7.307-1.489-11.061-2.02
			c-0.206-0.029-0.402-0.083-0.609-0.111C210.217,20.486,231.991,17.296,253.91,16.787z M104.369,102.537
			c0.009,0.353,0.042,0.69,0.053,1.041c0.043,1.235,0.115,2.442,0.188,3.656c0.065,1.081,0.121,2.161,0.207,3.222
			c0.097,1.189,0.221,2.339,0.343,3.499c0.108,1.028,0.205,2.06,0.33,3.062c0.141,1.141,0.303,2.231,0.463,3.335
			c0.14,0.971,0.272,1.953,0.424,2.893c0.174,1.073,0.361,2.081,0.546,3.109c0.16,0.887,0.313,1.795,0.479,2.646
			c0.211,1.079,0.428,2.074,0.646,3.09c0.15,0.702,0.296,1.437,0.447,2.106c0.267,1.182,0.531,2.259,0.796,3.332
			c0.102,0.414,0.205,0.873,0.306,1.271c0.732,2.887,1.425,5.324,1.984,7.173c0.628,2.16,1.091,4.364,1.384,6.594
			c0.074,0.514,0.148,1.028,0.207,1.548c0.261,2.251,0.399,4.514,0.411,6.78c0.001,0.274-0.019,0.549-0.021,0.823
			c-0.018,2.132-0.135,4.274-0.322,6.409c-0.043,0.492-0.078,0.984-0.129,1.475c-0.237,2.291-0.545,4.567-0.923,6.793
			c-0.068,0.4-0.147,0.787-0.219,1.183c-0.359,1.989-0.757,3.936-1.187,5.82c-0.086,0.375-0.165,0.761-0.253,1.131
			c-0.491,2.069-1.009,4.052-1.536,5.925c-0.117,0.415-0.234,0.808-0.35,1.212c-0.473,1.628-0.946,3.18-1.404,4.597
			c-0.07,0.217-0.143,0.46-0.213,0.671c-0.507,1.546-0.984,2.917-1.422,4.135l-0.137,0.375H86.123
			C85.994,167.625,92.182,134.082,104.369,102.537z M69.254,276.984v-50.361c0.005-4.634,3.76-8.389,8.393-8.393h25.18v25.18H86.041
			c-4.636,0-8.393,3.758-8.393,8.393s3.758,8.393,8.393,8.393h16.787v25.18h-25.18C73.014,285.372,69.259,281.617,69.254,276.984z
			 M366.123,423.582c-11.683,9.882-20.819,22.427-26.639,36.578c-10.098,21.148-16.729,35.143-84.918,29.771
			c-0.221-0.017-0.434-0.025-0.656-0.025s-0.434,0.008-0.656,0.025c-68.172,5.385-74.82-8.619-84.918-29.771
			c-5.822-14.155-14.961-26.702-26.648-36.586c-22.844-18.512-34.41-87.094-38.041-121.41h2.721l24.197,42.004
			c6.334,10.312,17.655,16.499,29.754,16.262h4.541c10.726,0.129,20.915-4.682,27.631-13.045l20.344-26.423
			c2.276-2.624,5.802-3.797,9.197-3.061c3.468,0.591,6.751,1.98,9.59,4.057c6.139,5.576,14.007,8.872,22.287,9.336
			c8.29-0.467,16.167-3.771,22.311-9.356c2.819-2.058,6.076-3.437,9.516-4.029c3.426-0.772,6.997,0.416,9.279,3.086l20.32,26.406
			c6.719,8.354,16.903,13.158,27.623,13.029h4.541c12.108,0.236,23.434-5.962,29.762-16.287l24.189-41.98h2.721
			C400.549,336.475,388.992,405.045,366.123,423.582z M438.566,276.984c-0.005,4.634-3.76,8.389-8.393,8.393h-25.18v-25.18h16.787
			c4.636,0,8.393-3.758,8.393-8.393s-3.758-8.393-8.393-8.393h-16.787v-25.18h25.18c4.634,0.005,8.389,3.76,8.393,8.393V276.984z"/>
		<path d="M149.984,222.709c3.708-6.328,8.542-11.926,14.262-16.516l15.246,3.742c4.495,1.086,9.021-1.668,10.123-6.159
			s-1.636-9.027-6.123-10.145l-16.303-4.004c-11.533-2.848-23.475,11.545-31.402,24.127c-2.457,3.919-1.279,9.088,2.633,11.556
			C142.333,227.778,147.505,226.615,149.984,222.709L149.984,222.709z"/>
		<path d="M270.697,193.049c-0.001,2.226,0.884,4.362,2.458,5.936c1.574,1.574,3.709,2.458,5.936,2.458h58.754
			c23.451,0,25.09,14.02,25.18,16.885c0.027,4.636,3.807,8.371,8.443,8.344c4.636-0.027,8.371-3.807,8.344-8.443
			c0-11.611-8.77-33.574-41.967-33.574H279.09c-2.226-0.001-4.361,0.884-5.936,2.458
			C271.58,188.688,270.696,190.823,270.697,193.049z"/>
		<path d="M212.09,217.943l8.148,2.004c0.66,0.16,1.337,0.241,2.016,0.242c4.242-0.006,7.813-3.176,8.322-7.387
			s-2.203-8.141-6.322-9.158l-8.148-2.004c-4.496-1.095-9.031,1.655-10.138,6.149C204.861,212.282,207.6,216.824,212.09,217.943z"/>
		<path d="M346.238,230.82H279.09c-4.636,0-8.393,3.758-8.393,8.393c0,4.636,3.758,8.393,8.393,8.393h8.393V256
			c0,13.907,11.274,25.18,25.18,25.18c13.907,0,25.18-11.274,25.18-25.18v-8.393h8.393c4.636,0,8.393-3.758,8.393-8.393
			C354.631,234.578,350.873,230.82,346.238,230.82z M321.057,256c0,4.636-3.758,8.393-8.393,8.393c-4.636,0-8.393-3.758-8.393-8.393
			v-8.393h16.787V256z"/>
		<path d="M270.697,381.902h-33.574c-4.636,0-8.393,3.758-8.393,8.393c0,4.636,3.758,8.393,8.393,8.393h33.574
			c4.636,0,8.393-3.758,8.393-8.393C279.09,385.659,275.332,381.902,270.697,381.902z"/>
		<path d="M253.91,345.357c-42.525,0-63.689,35.57-70.787,50.811c-3.522,7.691-4.315,16.355-2.246,24.557l1.352,5.414
			c1.663,7.667,6.323,14.351,12.943,18.561c4.942,2.983,10.875,3.855,16.467,2.422c13.778-3.895,27.965-6.16,42.27-6.75
			c14.317,0.591,28.515,2.859,42.303,6.758c1.732,0.447,3.514,0.675,5.303,0.676c3.923-0.012,7.769-1.085,11.131-3.107
			c6.624-4.216,11.287-10.905,12.951-18.578l1.336-5.385c2.074-8.187,1.293-16.837-2.213-24.52
			C317.598,380.926,296.434,345.357,253.91,345.357z M310.656,416.656l-0.008,0.012l-1.336,5.381
			c-0.641,3.305-2.513,6.243-5.237,8.221c-1.074,0.696-2.388,0.919-3.631,0.615c-15.168-4.263-30.788-6.713-46.533-7.299
			c-15.733,0.585-31.342,3.032-46.5,7.291c-1.253,0.31-2.578,0.09-3.664-0.607c-2.72-1.973-4.59-4.906-5.229-8.205l-1.352-5.41
			c-1.126-4.452-0.722-9.154,1.148-13.348c7.163-15.373,23.917-41.164,55.598-41.164s48.434,25.791,55.623,41.213
			C311.384,407.539,311.78,412.222,310.656,416.656z"/>
		<path d="M228.729,230.82h-67.148c-4.636,0-8.393,3.758-8.393,8.393c0,4.636,3.758,8.393,8.393,8.393h8.393V256
			c0,13.907,11.274,25.18,25.18,25.18c13.907,0,25.18-11.274,25.18-25.18v-8.393h8.393c4.636,0,8.393-3.758,8.393-8.393
			C237.123,234.578,233.365,230.82,228.729,230.82z M203.549,256c0,4.636-3.758,8.393-8.393,8.393c-4.636,0-8.393-3.758-8.393-8.393
			v-8.393h16.787V256z"/>
		<path d="M220.336,130.098h67.148c4.636,0,8.393-3.758,8.393-8.393s-3.758-8.393-8.393-8.393h-67.148
			c-4.636,0-8.393,3.758-8.393,8.393S215.7,130.098,220.336,130.098z"/>
		<path d="M220.336,163.672h41.967c4.636,0,8.393-3.758,8.393-8.393c0-4.636-3.758-8.393-8.393-8.393h-41.967
			c-4.636,0-8.393,3.758-8.393,8.393C211.943,159.914,215.7,163.672,220.336,163.672z"/>
	</g>
</g>
<g>
</g>
<g>
</g>
<g>
</g>
<g>
</g>
<g>
</g>
<g>
</g>
<g>
</g>
<g>
</g>
<g>
</g>
<g>
</g>
<g>
</g>
<g>
</g>
<g>
</g>
<g>
</g>
<g>
</g>
</svg>
