<?xml version="1.0" encoding="iso-8859-1"?>
<!-- Generator: Adobe Illustrator 19.0.0, SVG Export Plug-In . SVG Version: 6.00 Build 0)  -->
<svg version="1.1" id="Capa_1" xmlns="http://www.w3.org/2000/svg" xmlns:xlink="http://www.w3.org/1999/xlink" x="0px" y="0px"
	 viewBox="0 0 512 512" style="enable-background:new 0 0 512 512;" xml:space="preserve">
<g>
	<g transform="translate(0 1)">
		<g>
			<path style="fill:#FFE0B2;" d="M87.721,245.869c-3.931,16.99-5.991,34.359-6.144,51.797H58.025
				c-8.931-0.521-15.779-8.131-15.36-17.067v-51.2c-0.111-5.753,2.638-11.187,7.339-14.507c2.02,17.312,16.454,30.51,33.877,30.976
				l0.085,0.597C85.184,246.095,86.448,245.894,87.721,245.869z"/>
			<path style="fill:#FFE0B2;" d="M469.332,229.4v51.2c0.419,8.936-6.43,16.546-15.36,17.067H430.42
				c-0.152-17.438-2.213-34.807-6.144-51.797h0.085c0.603-0.037,1.207,0.021,1.792,0.171l1.963-0.171
				c17.415-0.449,31.869-13.596,33.963-30.891C466.707,218.312,469.415,223.697,469.332,229.4z"/>
		</g>
		<path style="fill:#795548;" d="M237.652,343.405c-0.218,0.113-0.419,0.257-0.597,0.427c5.382,3.184,11.497,4.919,17.749,5.035
			C249.317,346.389,243.561,344.556,237.652,343.405z M386.388,245.869c-13.11-0.48-23.369-11.463-22.955-24.576h-0.256
			c0,6.485-0.939,123.136-30.635,148.395c8.172,3.24,16.895,4.863,25.685,4.779c16.64,0,26.88-23.381,33.109-51.883
			c0.83-7.68,1.229-15.401,1.195-23.125v-1.792C392.379,280.229,390.319,262.859,386.388,245.869z"/>
		<path style="fill:#4E342E;" d="M424.276,245.869c-13.11-0.48-23.369-11.463-22.955-24.576h-0.256
			c-0.203,33.987-3.459,67.887-9.728,101.291c-6.229,28.501-16.469,51.883-33.109,51.883c-8.79,0.084-17.513-1.539-25.685-4.779
			c-19.029-7.339-32-21.333-57.003-26.283c-5.868,3.629-12.643,5.522-19.541,5.461h-1.195c-6.252-0.116-12.367-1.851-17.749-5.035
			c-0.256-0.171-0.427-0.256-0.683-0.427c-5.961,1.165-11.772,2.997-17.323,5.461h-0.085c-22.528,9.643-35.669,25.6-65.365,25.6
			c-4.489-0.049-8.803-1.75-12.117-4.779c-30.549-25.856-30.72-148.651-30.72-148.651c0.073,6.479-2.339,12.739-6.741,17.493
			c-4.155,4.636-10.074,7.301-16.299,7.339c-3.931,16.99-5.991,34.359-6.144,51.797v1.792c-0.006,7.982,0.421,15.958,1.28,23.893
			c9.387,93.696,73.557,167.765,154.197,177.92c6.284,0.786,12.611,1.185,18.944,1.195c96.341,0,174.421-90.88,174.421-203.008
			v-1.792C430.267,280.228,428.207,262.859,424.276,245.869z M230.398,459.8c-5.547,0-18.176-12.288-26.453-25.685
			c-4.348-6.239-6.995-13.504-7.68-21.077c0-14.592,23.296-23.211,40.789-27.563c0.853-0.171,1.707-0.427,2.475-0.597
			c10.84-2.475,22.099-2.475,32.939,0c17.664,4.181,43.264,12.885,43.264,28.16c0,17.408-25.6,46.763-34.133,46.763
			c-6.229,0-3.328-16.725-11.435-25.685c-5.124-4.832-12.406-6.623-19.187-4.718c-6.78,1.905-12.065,7.226-13.923,14.02v0.085
			C234.665,451.523,234.836,459.8,230.398,459.8z"/>
		<path style="fill:#795548;" d="M358.228,374.467c-8.79,0.084-17.513-1.539-25.685-4.779c-19.029-7.339-32-21.333-57.003-26.283
			c-5.868,3.629-12.643,5.522-19.541,5.461h-1.195c-6.252-0.116-12.367-1.851-17.749-5.035c-5.475,3.185-11.673,4.918-18.005,5.035
			h-0.085c-22.528,9.643-35.669,25.6-65.365,25.6c-4.489-0.049-8.803-1.75-12.117-4.779c-8.202,3.239-16.953,4.862-25.771,4.779
			c-16.469,0-26.624-22.955-32.853-51.115c9.387,93.696,73.557,167.765,154.197,177.92
			c80.896-10.155,145.152-84.651,154.283-178.688C385.108,351.085,374.868,374.467,358.228,374.467z M281.598,459.8
			c-6.229,0-3.328-16.725-11.435-25.685c-5.124-4.832-12.406-6.623-19.187-4.718c-6.78,1.905-12.065,7.226-13.923,14.02v0.085
			c-2.389,8.021-2.219,16.299-6.656,16.299c-5.547,0-18.176-12.288-26.453-25.685c-4.348-6.239-6.995-13.504-7.68-21.077
			c0-14.592,23.296-23.211,40.789-27.563c0.853-0.171,1.707-0.427,2.475-0.597c10.84-2.475,22.099-2.475,32.939,0
			c17.664,4.181,43.264,12.885,43.264,28.16C315.732,430.445,290.132,459.8,281.598,459.8z"/>
		<path style="fill:#4E342E;" d="M477.865,143.213c-0.004,5.912-1.346,11.747-3.925,17.067
			c-4.791,10.076-14.119,17.246-25.088,19.285c8.486,6.984,13.478,17.342,13.653,28.331c0.071,0.336,0.099,0.68,0.085,1.024
			c0.003,2.03-0.169,4.057-0.512,6.059c-0.592,3.844-1.742,7.581-3.413,11.093c-5.542,11.913-17.412,19.605-30.549,19.797
			l-1.963,0.171c-0.585-0.15-1.189-0.207-1.792-0.171h-0.085c-13.11-0.48-23.369-11.463-22.955-24.576v-16.469h-7.68
			c-17.493-0.67-31.151-15.358-30.549-32.853c0.053-3.389,0.599-6.752,1.621-9.984c-2.982,1.09-6.127,1.668-9.301,1.707
			c-16.811,0-30.549-22.869-30.549-41.131h-0.256c-1.22,18.14-16.044,32.373-34.219,32.853
			c-19.692-0.724-35.079-17.256-34.389-36.949c0.689,19.693-14.697,36.225-34.389,36.949c-18.163-0.51-32.97-14.726-34.219-32.853
			h-0.256c0,18.261-13.739,41.131-30.549,41.131c-3.174-0.047-6.318-0.624-9.301-1.707c1.022,3.232,1.568,6.595,1.621,9.984
			c0.602,17.495-13.057,32.183-30.549,32.853c-2.538,0.007-5.065-0.338-7.509-1.024l-0.171,1.024l0.085,16.213
			c0.073,6.479-2.339,12.739-6.741,17.493c-4.155,4.636-10.074,7.301-16.299,7.339c-1.273,0.025-2.537,0.226-3.755,0.597
			l-0.085-0.597c-13.123-0.172-24.977-7.876-30.464-19.797c-1.683-3.537-2.834-7.304-3.413-11.179
			c-0.343-1.973-0.515-3.971-0.512-5.973c-0.014-0.315,0.015-0.631,0.085-0.939c0.181-10.993,5.133-21.364,13.568-28.416
			c-10.969-2.039-20.297-9.21-25.088-19.285c-2.579-5.32-3.921-11.154-3.925-17.067c-0.204-12.651,6.073-24.529,16.64-31.488
			c-0.808-3.152-1.238-6.389-1.28-9.643c-0.346-9.462,3.084-18.673,9.535-25.604c6.451-6.931,15.392-11.012,24.855-11.346
			c1.429,0.062,2.854,0.204,4.267,0.427c-0.219-1.499-0.361-3.009-0.427-4.523c-0.359-9.488,3.076-18.728,9.545-25.678
			s15.44-11.036,24.93-11.357c10.914,0.202,21.056,5.67,27.221,14.677c1.976-17.362,16.411-30.634,33.877-31.147
			c15.277,0.328,28.513,10.681,32.512,25.429c7.36-15.529,23.007-25.429,40.192-25.429s32.832,9.9,40.192,25.429
			c3.999-14.749,17.235-25.101,32.512-25.429c17.467,0.513,31.902,13.785,33.877,31.147c6.166-9.007,16.308-14.476,27.221-14.677
			c9.498,0.316,18.48,4.399,24.964,11.347c6.484,6.948,9.936,16.191,9.596,25.688c0,1.451-0.341,2.901-0.512,4.523
			c1.413-0.222,2.838-0.365,4.267-0.427c19.722,0.685,35.156,17.227,34.475,36.949c-0.071,3.257-0.529,6.494-1.365,9.643
			C471.792,118.684,478.069,130.562,477.865,143.213z"/>
		<path style="fill:#795548;" d="M448.852,179.565c8.486,6.984,13.478,17.342,13.653,28.331c-4.024,2.994-8.705,4.984-13.653,5.803
			c4.13,3.364,7.479,7.586,9.813,12.373c-5.542,11.913-17.412,19.605-30.549,19.797l-1.963,0.171
			c-0.585-0.15-1.189-0.207-1.792-0.171h-0.085c-13.11-0.48-23.369-11.463-22.955-24.576v-16.469h-7.68
			c-17.493-0.67-31.151-15.358-30.549-32.853c0.053-3.389,0.599-6.752,1.621-9.984c-2.982,1.09-6.127,1.668-9.301,1.707
			c-16.811,0-30.549-22.869-30.549-41.131h-0.256c-1.22,18.14-16.044,32.373-34.219,32.853
			c-19.692-0.724-35.079-17.256-34.389-36.949c0.689,19.693-14.697,36.225-34.389,36.949c-18.163-0.51-32.97-14.726-34.219-32.853
			h-0.256c0,18.261-13.739,41.131-30.549,41.131c-3.174-0.047-6.318-0.624-9.301-1.707c1.022,3.232,1.568,6.595,1.621,9.984
			c0.602,17.495-13.057,32.183-30.549,32.853c-2.538,0.007-5.065-0.338-7.509-1.024l-0.171,1.024l0.085,16.213
			c0.073,6.479-2.339,12.739-6.741,17.493c-4.155,4.636-10.074,7.301-16.299,7.339c-1.273,0.025-2.537,0.226-3.755,0.597
			l-0.085-0.597c-13.123-0.172-24.977-7.876-30.464-19.797c2.332-4.766,5.647-8.983,9.728-12.373
			c-4.9-0.843-9.542-2.799-13.568-5.717c0.181-10.993,5.133-21.364,13.568-28.416c-10.969-2.039-20.297-9.21-25.088-19.285
			c2.799-5.906,7.205-10.905,12.715-14.421c-0.808-3.152-1.238-6.389-1.28-9.643c-0.346-9.462,3.084-18.673,9.535-25.604
			c6.451-6.931,15.392-11.012,24.855-11.346c1.429,0.062,2.854,0.204,4.267,0.427c-0.219-1.499-0.361-3.009-0.427-4.523
			c-0.359-9.488,3.076-18.728,9.545-25.678s15.44-11.036,24.93-11.357c10.914,0.202,21.056,5.67,27.221,14.677
			c1.976-17.362,16.411-30.634,33.877-31.147c15.277,0.328,28.513,10.681,32.512,25.429c7.36-15.529,23.007-25.429,40.192-25.429
			s32.832,9.9,40.192,25.429c3.999-14.749,17.235-25.101,32.512-25.429c17.467,0.513,31.902,13.785,33.877,31.147
			c6.166-9.007,16.308-14.476,27.221-14.677c9.498,0.316,18.48,4.399,24.964,11.347c6.484,6.948,9.936,16.191,9.596,25.688
			c0,1.451-0.341,2.901-0.512,4.523c1.413-0.222,2.838-0.365,4.267-0.427c19.722,0.685,35.156,17.227,34.475,36.949
			c-0.071,3.257-0.529,6.494-1.365,9.643c5.509,3.517,9.916,8.515,12.715,14.421C469.148,170.356,459.82,177.526,448.852,179.565z"
			/>
		<g>
			<path style="fill:#FFE0B2;" d="M315.732,413.037c0,17.408-25.6,46.763-34.133,46.763s0-31.147-25.6-31.147
				s-17.067,31.147-25.6,31.147c-8.533,0-34.133-29.355-34.133-46.763c0-15.275,25.6-23.979,43.264-28.16
				c10.84-2.475,22.099-2.475,32.939,0C290.132,389.059,315.732,397.763,315.732,413.037z"/>
			<path style="fill:#FFE0B2;" d="M393.641,204.824c-17.493-0.67-31.151-15.358-30.549-32.853c0.053-3.389,0.599-6.752,1.621-9.984
				c-2.982,1.09-6.127,1.668-9.301,1.707c-16.811,0-30.549-22.869-30.549-41.131h-0.256c-1.22,18.14-16.044,32.373-34.219,32.853
				c-19.692-0.724-35.079-17.256-34.389-36.949c0.689,19.693-14.697,36.225-34.389,36.949c-18.163-0.51-32.97-14.726-34.219-32.853
				h-0.256c0,18.261-13.739,41.131-30.549,41.131c-3.174-0.047-6.318-0.624-9.301-1.707c1.022,3.232,1.568,6.595,1.621,9.984
				c0.602,17.495-13.057,32.183-30.549,32.853c-2.538,0.007-5.065-0.338-7.509-1.024l-0.171,1.024l0.085,16.213
				c0,0,0.171,153.429,42.837,153.429c36.523,0,48.043-24.149,82.773-31.061c12.041,7.282,27.127,7.282,39.168,0
				c34.645,6.912,46.165,31.061,82.688,31.061c41.643,0,42.837-145.92,42.837-153.173h0.256v-16.469H393.641z M233.897,241.432
				c-3.161,3.241-7.504,5.059-12.032,5.035h-8.533V267.8c0,11.782-9.551,21.333-21.333,21.333c-11.782,0-21.333-9.551-21.333-21.333
				v-21.333h-8.533c-9.414-0.028-17.039-7.652-17.067-17.067c0.068-9.397,7.669-16.999,17.067-17.067h59.733
				c9.414,0.028,17.039,7.652,17.067,17.067C238.956,233.928,237.138,238.271,233.897,241.432z M361.897,241.432
				c-3.161,3.241-7.504,5.059-12.032,5.035h-8.533V267.8c0,11.782-9.551,21.333-21.333,21.333s-21.333-9.551-21.333-21.333v-21.333
				h-8.533c-9.414-0.028-17.039-7.652-17.067-17.067c0.068-9.397,7.669-16.999,17.067-17.067h59.733
				c9.414,0.028,17.039,7.652,17.067,17.067C366.956,233.928,365.138,238.271,361.897,241.432z"/>
		</g>
		<g>
			<path style="fill:#795548;" d="M366.932,229.4c-0.068,9.397-7.669,16.998-17.067,17.067h-59.733
				c-9.414-0.028-17.039-7.652-17.067-17.067c0.068-9.397,7.669-16.999,17.067-17.067h59.733
				C359.279,212.361,366.904,219.986,366.932,229.4z"/>
			<path style="fill:#795548;" d="M238.932,229.4c-0.068,9.397-7.669,16.998-17.067,17.067h-59.733
				c-9.414-0.028-17.039-7.652-17.067-17.067c0.068-9.397,7.669-16.999,17.067-17.067h59.733
				C231.279,212.361,238.904,219.986,238.932,229.4z"/>
		</g>
		<g>
			<path style="fill:#2FA8CC;" d="M213.332,246.467V267.8c0,11.782-9.551,21.333-21.333,21.333
				c-11.782,0-21.333-9.551-21.333-21.333v-21.333H213.332z"/>
			<path style="fill:#2FA8CC;" d="M341.332,246.467V267.8c0,11.782-9.551,21.333-21.333,21.333s-21.333-9.551-21.333-21.333v-21.333
				H341.332z"/>
		</g>
	</g>
	<g>
		<path d="M486.398,144.2c0.155-13.437-5.597-26.265-15.733-35.088c0.317-1.989,0.482-3.999,0.492-6.013
			c0.492-22.635-16.009-42.068-38.425-45.25c-1.428-22.815-20.04-40.763-42.892-41.363c-8.362,0.049-16.509,2.653-23.35,7.462
			C359.484,9.407,344.815,0.117,328.673,0c-13.39,0.079-25.93,6.577-33.717,17.471C285.057,6.357,270.882,0,255.998,0
			S226.94,6.357,217.04,17.471C209.253,6.577,196.714,0.079,183.323,0c-16.142,0.117-30.811,9.407-37.817,23.95
			c-6.841-4.809-14.988-7.413-23.35-7.462c-22.817,0.625-41.381,18.568-42.783,41.35C56.941,61.002,40.426,80.452,40.94,103.1
			c0.006,1.998,0.15,3.993,0.433,5.971c-11.185,9.907-16.969,24.558-15.569,39.434c1.4,14.876,9.816,28.19,22.652,35.837
			c-4.932,7.616-7.543,16.502-7.517,25.575c0,0.848,0.182,1.644,0.226,2.482c-4.553,4.885-7.069,11.324-7.034,18.002v51.2
			c-0.44,13.655,10.239,25.098,23.892,25.6h15.165C76.288,420.731,157.073,512,255.998,512s179.71-91.269,182.81-204.8h15.165
			c13.653-0.502,24.332-11.945,23.892-25.6v-51.2c0.026-6.628-2.46-13.019-6.957-17.888c0.048-0.876,0.249-1.707,0.249-2.595
			c0.031-9.09-2.6-17.991-7.567-25.604C477.887,176.05,486.609,160.712,486.398,144.2z M51.198,281.6v-42.427
			c6.496,8.263,15.844,13.803,26.212,15.535c-2.227,11.692-3.59,23.533-4.077,35.425H58.023
			C53.839,289.56,50.839,285.808,51.198,281.6z M255.998,494.933c-91.475,0-165.892-87.246-165.892-194.483
			c0.013-15.445,1.611-30.847,4.767-45.966c2.862-0.733,5.6-1.883,8.127-3.413C105.392,299.758,115.087,384,153.598,384
			c18.09-0.343,35.662-6.097,50.45-16.521c9.65-6.345,20.266-11.081,31.435-14.021c12.874,6.584,28.125,6.589,41.003,0.014
			c11.109,2.946,21.669,7.669,31.27,13.986c14.792,10.439,32.374,16.201,50.475,16.542c38.551,0,48.226-84.413,50.605-133.076
			c2.568,1.567,5.356,2.741,8.271,3.485c3.167,15.143,4.77,30.571,4.782,46.041C421.89,407.688,347.473,494.933,255.998,494.933z
			 M119.232,214.313c21.724-1.177,38.613-19.348,38.2-41.1c14.074-1.717,26.162-10.814,31.708-23.862
			c8.236,10.336,20.903,16.129,34.108,15.6c13.205-0.529,25.368-7.318,32.75-18.28c7.382,10.962,19.545,17.75,32.75,18.28
			c13.205,0.529,25.872-5.264,34.108-15.6c5.546,13.049,17.634,22.146,31.708,23.863c-0.411,21.771,16.506,39.95,38.25,41.104v6.319
			c-0.135,0.455-0.23,0.921-0.284,1.393c-0.067,58.438-11.008,144.905-34.3,144.905c-15.019-0.392-29.568-5.32-41.733-14.137
			c-7.781-4.851-15.981-8.994-24.503-12.38c4.286-5.949,6.617-13.083,6.669-20.416c0-4.713-3.82-8.533-8.533-8.533
			s-8.533,3.821-8.533,8.533c-0.254,7.219-4.297,13.768-10.636,17.231l-0.295,0.202c-4.457,2.579-9.52,3.925-14.669,3.9
			c-12.921,1.052-24.305-8.435-25.6-21.333c0-4.713-3.821-8.533-8.533-8.533c-4.713,0-8.533,3.821-8.533,8.533
			c0.053,7.316,2.375,14.435,6.645,20.376c-8.579,3.392-16.834,7.555-24.662,12.436c-12.164,8.805-26.705,13.727-41.717,14.121
			c-23.275,0-34.225-86.467-34.3-144.905l-0.017-0.084L119.232,214.313z M460.798,281.6c0.36,4.208-2.641,7.96-6.825,8.533h-15.309
			c-0.487-11.883-1.848-23.715-4.072-35.398c10.366-1.746,19.709-7.292,26.206-15.556V281.6z M447.415,172.196
			c-3.294,0.574-5.949,3.019-6.792,6.255c-0.843,3.235,0.281,6.665,2.875,8.774c6.779,5.574,10.672,13.916,10.592,22.692
			c0.278,7.292-2.36,14.394-7.332,19.736c-4.972,5.342-11.867,8.482-19.16,8.727l-1.092,0.062c-0.817-0.079-1.542-0.079-2.133-0.079
			c-8.504-0.507-14.99-7.808-14.492-16.313v-16.258c0.001-2.263-0.898-4.434-2.499-6.035s-3.771-2.499-6.035-2.499h-7.667
			c-12.784-0.671-22.632-11.532-22.05-24.321c0.041-2.552,0.457-5.085,1.233-7.517c0.918-3.066,0.043-6.389-2.267-8.605
			c-2.31-2.216-5.666-2.953-8.691-1.908c-2.074,0.782-4.267,1.205-6.483,1.25c-11.15,0-22.05-18.65-22.05-32.567
			c-0.101-4.755-3.994-8.552-8.75-8.533c-4.374-0.002-8.041,3.304-8.492,7.654c-0.841,13.753-11.949,24.64-25.716,25.204
			c-14.98-0.756-26.54-13.462-25.883-28.446c0-4.713-3.82-8.533-8.533-8.533s-8.533,3.821-8.533,8.533
			c0.657,14.984-10.904,27.689-25.883,28.446c-13.767-0.564-24.876-11.451-25.717-25.204c-0.552-4.385-4.289-7.67-8.708-7.654
			c-2.263-0.001-4.434,0.898-6.035,2.499c-1.6,1.6-2.499,3.771-2.499,6.035c0,13.917-10.9,32.567-22.05,32.567
			c-2.215-0.054-4.407-0.476-6.483-1.25c-3.026-1.045-6.381-0.308-8.691,1.908c-2.31,2.216-3.185,5.538-2.267,8.605
			c0.777,2.432,1.192,4.964,1.233,7.517c0.582,12.789-9.266,23.65-22.05,24.321c-1.71,0.01-3.412-0.22-5.058-0.683
			c-2.294-0.673-4.765-0.354-6.811,0.881s-3.482,3.272-3.955,5.615l-0.208,1.029c-0.114,0.575-0.17,1.16-0.167,1.746l0.1,16.204
			c0.059,4.318-1.519,8.498-4.417,11.7c-2.562,2.878-6.214,4.551-10.067,4.613c-0.774,0.001-1.548,0.046-2.317,0.133
			c-0.501-0.088-1.008-0.133-1.517-0.133c-14.981-0.756-26.545-13.46-25.892-28.446c-0.07-8.772,3.796-17.113,10.534-22.729
			c2.572-2.119,3.675-5.542,2.824-8.764c-0.851-3.222-3.499-5.654-6.782-6.228c-13.061-2.89-22.246-14.623-21.917-27.995
			c-0.209-9.738,4.58-18.905,12.692-24.296c3.049-1.949,4.535-5.61,3.708-9.133c-0.653-2.506-1.009-5.081-1.058-7.671
			c-0.653-14.986,10.91-27.69,25.891-28.446c0.996,0.049,1.988,0.168,2.967,0.358c2.679,0.333,5.358-0.62,7.225-2.571
			c1.921-1.972,2.831-4.717,2.467-7.446c-0.164-0.991-0.262-1.992-0.292-2.996c-0.653-14.986,10.91-27.69,25.892-28.446
			c8.178,0.149,15.767,4.284,20.325,11.075c2.024,2.837,5.569,4.159,8.956,3.338s5.935-3.618,6.435-7.067
			c1.332-13.19,12.201-23.369,25.45-23.834c11.503,0.353,21.403,8.23,24.334,19.358c1.006,3.318,3.92,5.698,7.373,6.021
			s6.757-1.475,8.361-4.55c5.885-12.701,18.61-20.829,32.608-20.829s26.723,8.128,32.608,20.829c1.604,3.074,4.908,4.872,8.36,4.549
			c3.452-0.323,6.366-2.702,7.372-6.02c2.93-11.129,12.831-19.005,24.334-19.358c13.249,0.465,24.118,10.644,25.45,23.834
			c0.501,3.449,3.048,6.246,6.435,7.067c3.387,0.821,6.932-0.501,8.956-3.338c4.558-6.791,12.147-10.926,20.325-11.075
			c15.012,0.723,26.626,13.429,26,28.446c-0.03,0.636-0.108,1.268-0.233,1.892l-0.225,1.587c-0.295,2.678,0.687,5.339,2.65,7.183
			c1.991,1.86,4.722,2.709,7.417,2.304c0.874-0.171,1.76-0.275,2.65-0.312c15.011,0.724,26.621,13.431,25.992,28.446
			c-0.087,2.593-0.476,5.168-1.158,7.671c-0.827,3.523,0.66,7.184,3.708,9.133c8.112,5.391,12.9,14.559,12.692,24.296
			C469.661,157.572,460.476,169.306,447.415,172.196z"/>
		<path d="M162.132,256v12.8c0,16.495,13.372,29.867,29.867,29.867s29.867-13.372,29.867-29.867V256c14.138,0,25.6-11.462,25.6-25.6
			c0-14.138-11.462-25.6-25.6-25.6h-59.733c-14.139,0-25.6,11.462-25.6,25.6C136.532,244.539,147.993,256,162.132,256z
			 M204.798,268.8c0,7.069-5.731,12.8-12.8,12.8c-7.069,0-12.8-5.731-12.8-12.8V256h25.6V268.8z M162.132,221.867h59.733
			c4.713,0,8.533,3.821,8.533,8.533c0,4.713-3.821,8.533-8.533,8.533h-59.733c-4.713,0-8.533-3.821-8.533-8.533
			C153.598,225.687,157.419,221.867,162.132,221.867z"/>
		<path d="M290.132,256v12.8c0,16.495,13.372,29.867,29.867,29.867c16.495,0,29.867-13.372,29.867-29.867V256
			c14.138,0,25.6-11.462,25.6-25.6c0-14.138-11.462-25.6-25.6-25.6h-59.733c-14.138,0-25.6,11.462-25.6,25.6
			C264.532,244.539,275.993,256,290.132,256z M332.798,268.8c0,7.069-5.731,12.8-12.8,12.8s-12.8-5.731-12.8-12.8V256h25.6V268.8z
			 M290.132,221.867h59.733c4.713,0,8.533,3.821,8.533,8.533c0,4.713-3.82,8.533-8.533,8.533h-59.733
			c-4.713,0-8.533-3.821-8.533-8.533C281.598,225.687,285.419,221.867,290.132,221.867z"/>
		<path d="M274.39,377.6c-12.095-2.831-24.68-2.832-36.775-0.004c-33.1,7.783-49.883,20.046-49.883,36.45
			c0,19.633,27.517,55.287,42.667,55.287c10.117,0,12.167-10.221,13.392-16.329c2.267-11.317,4.242-14.842,12.208-14.842
			c7.967,0,9.941,3.525,12.208,14.842c1.225,6.108,3.275,16.329,13.392,16.329c15.15,0,42.667-35.654,42.667-55.287
			C324.265,397.642,307.482,385.379,274.39,377.6z M284.932,449.583c-1.867-9.3-5.767-28.488-28.933-28.488
			s-27.067,19.187-28.933,28.488c-8.233-6.992-22.267-24.904-22.267-35.538c0-5.575,11.35-13.871,36.725-19.838
			c9.524-2.228,19.435-2.226,28.958,0.004c25.367,5.962,36.717,14.258,36.717,19.833
			C307.198,424.679,293.165,442.592,284.932,449.583z"/>
	</g>
</g>
<g>
</g>
<g>
</g>
<g>
</g>
<g>
</g>
<g>
</g>
<g>
</g>
<g>
</g>
<g>
</g>
<g>
</g>
<g>
</g>
<g>
</g>
<g>
</g>
<g>
</g>
<g>
</g>
<g>
</g>
</svg>
