<?xml version="1.0" encoding="iso-8859-1"?>
<!-- Generator: Adobe Illustrator 19.0.0, SVG Export Plug-In . SVG Version: 6.00 Build 0)  -->
<svg version="1.1" id="Capa_1" xmlns="http://www.w3.org/2000/svg" xmlns:xlink="http://www.w3.org/1999/xlink" x="0px" y="0px"
	 viewBox="0 0 512.001 512.001" style="enable-background:new 0 0 512.001 512.001;" xml:space="preserve">
<g>
	<g transform="translate(1 1)">
		<path style="fill:#AD1457;" d="M502.467,391.534c-10.023,25.259-26.573,47.403-47.957,64.171
			c-31.403,24.832-81.067,44.459-157.269,31.147c-2.645-0.427-5.376-0.939-8.107-1.451h-3.328c0.584-0.639,1.211-1.238,1.877-1.792
			c8.107-7.083,26.197-14.933,50.091-32.853c3.243-2.475,6.571-5.12,10.069-8.021c22.784-18.859,54.016-83.883,68.864-116.907
			c7.092-15.499,9.75-32.66,7.68-49.579c-2.243-23.266-10.604-45.524-24.235-64.512c-14.529-4.77-30.233-4.56-44.629,0.597
			c-0.341,0.085-0.768,0.256-1.109,0.341h-0.085c-8.927,2.853-18.142,4.713-27.477,5.547c-36.67,2.994-71.612-16.087-88.917-48.555
			l-0.256-0.597c-19.699,9.577-36.927,23.563-50.347,40.875c-0.023,0-0.045,0.008-0.061,0.024c-0.016,0.016-0.025,0.038-0.024,0.061
			c-2.048,2.304-4.011,4.779-6.059,7.253c-1.024,1.195-2.048,2.389-2.987,3.584c-5.582,6.904-12.102,12.993-19.371,18.091
			c-21.009,14.01-44.497,23.886-69.205,29.099c-0.085,0.256-0.085,0.427-0.171,0.683c-1.164,6.022-1.82,12.13-1.963,18.261
			c-0.391,17.135,3.171,34.129,10.411,49.664c16.128,34.816,43.435,89.088,63.915,106.069c2.816,2.389,5.632,4.523,8.277,6.571
			l-1.451,1.877c-20.891-2.341-41.156-8.593-59.733-18.432C62.915,408.771,7.533,354.072,7.533,229.4
			c0-59.648,16.725-101.973,40.789-132.011C110.189,20.163,220.867,24.6,220.867,24.6l0.512,0.768
			c15.104-9.728,38.997-17.835,76.288-17.835c93.867,0,170.667,93.867,170.667,230.4S502.467,391.534,502.467,391.534z"/>
		<path style="fill:#E91E63;" d="M476.867,417.134c-5.362,13.96-12.909,26.979-22.357,38.571
			c-31.403,24.832-81.067,44.459-157.269,31.147c8.684-5.686,17.032-11.868,25.003-18.517c5.887-5.191,11.105-11.096,15.531-17.579
			c20.575-31.53,38.418-64.76,53.333-99.328c7.026-15.519,9.681-32.661,7.68-49.579c-2.243-23.266-10.604-45.524-24.235-64.512
			c-14.529-4.77-30.233-4.56-44.629,0.597c-0.341,0.085-0.768,0.256-1.109,0.341h-0.085c-8.927,2.853-18.142,4.713-27.477,5.547
			c-36.669,2.994-71.612-16.087-88.917-48.555l-0.256-0.597c-8.921,3.913-17.25,9.054-24.747,15.275
			c-0.023,0-0.045,0.008-0.061,0.024c-0.016,0.016-0.025,0.038-0.024,0.061c-10.369,8.719-19.884,18.405-28.416,28.928
			c-1.109,1.28-2.133,2.56-3.243,3.925c-1.024,1.195-2.048,2.389-2.987,3.584c-16.299,20.395-42.325,33.024-65.109,40.533
			c-8.533,2.901-16.555,5.035-23.467,6.656c-0.085,0.256-0.085,0.427-0.171,0.683c-4.375,22.967-1.42,46.729,8.448,67.925
			c10.982,24.109,23.201,47.636,36.608,70.485C62.915,408.771,7.533,354.072,7.533,229.4c0-59.648,16.725-101.973,40.789-132.011
			C110.957,46.787,195.267,50.2,195.267,50.2l0.512,0.768c15.104-9.728,38.997-17.835,76.288-17.835
			c93.867,0,170.667,93.867,170.667,230.4c0,8.277,0.085,16.043,0.341,23.467C446.744,402.03,476.867,417.134,476.867,417.134z"/>
		<path style="fill:#BFB186;" d="M424.387,276.248c-2.243-23.266-10.604-45.524-24.235-64.512
			c-14.529-4.77-30.233-4.56-44.629,0.597c-0.341,0.085-0.768,0.256-1.109,0.341h-0.085c-8.927,2.853-18.142,4.713-27.477,5.547
			c-36.67,2.994-71.612-16.087-88.917-48.555l-0.256-0.597c-8.1,3.511-15.703,8.073-22.613,13.568
			c-12.56,10.237-23.925,21.859-33.877,34.645c-1.024,1.195-2.048,2.389-2.987,3.584c-17.835,22.357-47.36,35.328-71.509,42.581
			c-6.144,1.877-11.947,3.413-17.067,4.608c-0.085,0.256-0.085,0.427-0.171,0.683c-0.085,0.512-0.171,0.939-0.256,1.451
			c-3.989,22.526-0.95,45.735,8.704,66.475c16.128,34.816,43.435,89.088,63.915,106.069c2.816,2.389,5.632,4.523,8.277,6.571
			c0.256,0.171,0.427,0.341,0.683,0.512c26.539,20.224,46.08,27.904,53.077,35.584c7.691,8.007,17.385,13.811,28.075,16.811
			c0.959,0.163,1.929,0.248,2.901,0.256c11.886-2.227,22.743-8.209,30.976-17.067c0.584-0.639,1.211-1.238,1.877-1.792
			c9.216-8.021,31.403-17.067,60.16-40.875c22.784-18.859,54.016-83.883,68.864-116.907
			C423.733,310.308,426.388,293.166,424.387,276.248z"/>
		<path style="fill:#FFECB3;" d="M399.384,285.379c-2.243-23.266-10.604-45.524-24.235-64.512
			c-14.529-4.77-30.233-4.56-44.629,0.597c-0.341,0.085-0.768,0.256-1.109,0.341h-0.085c-8.927,2.853-18.142,4.713-27.477,5.547
			c-35.123,3.039-68.872-14.35-86.784-44.715c-12.56,10.237-23.925,21.859-33.877,34.645c-1.024,1.195-2.048,2.389-2.987,3.584
			c-17.835,22.357-47.36,35.328-71.509,42.581c-5.888,2.56-11.776,4.864-17.493,6.741c-3.989,22.526-0.95,45.735,8.704,66.475
			c16.128,34.816,43.435,89.088,63.915,106.069c2.816,2.389,5.632,4.523,8.277,6.571c0.256,0.171,0.427,0.341,0.683,0.512
			c26.539,20.224,46.08,27.904,53.077,35.584c7.691,8.007,17.385,13.811,28.075,16.811c3.212-2.251,6.186-4.824,8.875-7.68
			c0.584-0.639,1.212-1.238,1.877-1.792c9.216-8.021,31.403-17.067,60.16-40.875c22.784-18.859,54.016-83.883,68.864-116.907
			C398.73,319.439,401.385,302.296,399.384,285.379z"/>
		<g>
			<path style="fill:#00BCD4;" d="M195.267,280.6v17.067c0,9.426-7.641,17.067-17.067,17.067c-9.426,0-17.067-7.641-17.067-17.067
				V280.6H195.267z"/>
			<path style="fill:#00BCD4;" d="M348.867,280.6v17.067c0,9.426-7.641,17.067-17.067,17.067s-17.067-7.641-17.067-17.067V280.6
				H348.867z"/>
		</g>
		<path style="fill:#E91E63;" d="M297.667,417.134c0,0-14.251,34.133-42.667,34.133s-42.667-34.133-42.667-34.133
			s18.944-17.067,28.416-17.067c5.34-0.169,10.508,1.904,14.251,5.717c3.743-3.813,8.91-5.886,14.251-5.717
			C278.723,400.067,297.667,417.134,297.667,417.134z"/>
		<path style="fill:#59474E;" d="M314.733,383c-1.121,0.03-2.232-0.204-3.246-0.683c-1.043-0.413-1.997-1.022-2.813-1.792
			c-0.754-0.83-1.362-1.783-1.796-2.817c-0.436-1.026-0.667-2.127-0.679-3.241c0.018-0.573,0.075-1.144,0.171-1.708
			c0.091-0.535,0.263-1.053,0.508-1.537c0.188-0.543,0.448-1.058,0.771-1.533c0.314-0.448,0.656-0.876,1.025-1.279
			c0.814-0.773,1.769-1.383,2.813-1.796c3.18-1.33,6.848-0.622,9.305,1.796c0.341,0.425,0.683,0.85,1.021,1.279
			c0.323,0.475,0.582,0.991,0.771,1.533c0.245,0.485,0.418,1.003,0.512,1.537c0.094,0.565,0.151,1.136,0.171,1.709
			c-0.014,1.115-0.246,2.216-0.683,3.242c-0.434,1.033-1.04,1.986-1.792,2.817C319.155,382.082,316.992,382.966,314.733,383z"/>
	</g>
	<g>
		<path d="M507.283,384.9c-0.292-0.146-29.417-20.35-29.417-145.967C477.867,102.721,400.829,0,298.667,0
			c-36.482,0-61.004,7.465-77.505,17.048c-11.03-0.246-100.945-0.551-163.282,59.335C19.475,113.284,0,165.105,0,230.4
			c0,218.896,168.517,230.3,170.217,230.388c0.154,0.009,0.304,0.012,0.458,0.012c0.088,0,0.163-0.046,0.25-0.049
			c12.584,9.225,23.658,15.91,31.908,20.82c5.609,2.935,10.877,6.48,15.708,10.571c9.809,10.667,22.962,17.672,37.288,19.858
			c12.933-1.912,24.94-7.835,34.327-16.934c18.008,3.622,36.322,5.503,54.69,5.617c129.871-0.004,166.321-104.258,166.713-105.45
			C512.907,391.205,511.084,386.798,507.283,384.9z M280.463,480.692c-6.66,7.031-15.217,11.978-24.633,14.242
			c-9.42-2.301-17.981-7.259-24.667-14.283c-5.883-5.447-12.478-10.071-19.604-13.746c-11.985-6.912-23.539-14.547-34.596-22.862
			c-2.808-2.154-5.708-4.383-8.708-6.888c-14.488-11.971-36.371-48.575-61.621-103.062c-8.46-18.109-11.411-38.304-8.486-58.077
			c25.957-6.528,63.201-20.127,85.857-46.752c8.84,6.185,16.411,14.008,22.304,23.045c2.674,3.88,7.987,4.857,11.867,2.183
			c3.88-2.674,4.857-7.987,2.183-11.867c-6.774-10.272-15.314-19.262-25.225-26.555c11.159-13.965,24.771-25.776,40.169-34.855
			c15.606,24.306,40.745,40.896,69.23,45.687c-4.719,4.876-9.029,10.132-12.887,15.715c-1.759,2.508-2.038,5.766-0.733,8.537
			c1.306,2.771,3.996,4.629,7.049,4.87c3.054,0.24,6.002-1.174,7.725-3.706c6.425-10.044,14.998-18.538,25.102-24.87
			c9.627-0.984,19.122-2.992,28.324-5.989c11.789-4.169,24.56-4.699,36.654-1.52c11.779,17.379,19.045,37.418,21.142,58.308
			c1.83,15.372-0.577,30.951-6.958,45.054c-26.871,59.617-51.129,101.112-66.55,113.858c-13.571,11.091-28.037,21.039-43.25,29.742
			c-5.993,3.28-11.705,7.051-17.075,11.275C282.15,478.956,281.277,479.797,280.463,480.692z M309.773,481.031
			c15.654-8.999,30.54-19.273,44.506-30.718c23.767-19.646,54.829-83.613,71.237-120c7.647-16.94,10.531-35.644,8.342-54.1
			c-1.462-12.258-4.293-24.313-8.44-35.941c1.23,1.618,1.972,2.776,2.115,3.011c2.402,4.055,7.637,5.394,11.692,2.992
			c4.055-2.402,5.394-7.637,2.992-11.692c-18.92-29.283-55.64-41.495-88.329-29.375c-60.009,19.313-91.537-14.527-102.622-30.587
			c9.867-2.779,20.085-4.111,30.334-3.954c4.713,0,8.533-3.821,8.533-8.533s-3.821-8.533-8.533-8.533
			c-49.108,0-77.175,23.075-109.062,62.938c-31.487,39.354-104.483,47.967-105.217,48.05c-4.498,0.502-7.821,4.428-7.573,8.947
			s3.981,8.058,8.507,8.065c0.319,0.001,0.637-0.018,0.954-0.054c0.701-0.078,4.932-0.595,11.282-1.734
			c-1.971,21.068,1.708,42.281,10.659,61.455c15.607,33.684,36.828,75.288,55.667,98.09
			c-43.509-11.696-129.75-54.353-129.75-208.957c0-60.417,17.675-108.062,52.542-141.617c41.85-40.28,99.109-50.937,130.005-53.715
			c-5.752,6.683-9.79,14.667-11.764,23.26c-0.763,4.602,2.329,8.957,6.925,9.754c4.614,0.796,9.014-2.251,9.892-6.85
			c0.346-1.804,9.421-44.167,94-44.167c92.429,0,162.133,95.383,162.133,221.867c0,107.729,21.308,144.338,32.508,156.137
			C483.724,417.266,439.095,499.103,309.773,481.031z"/>
		<path d="M213.333,290.134c4.713,0,8.533-3.82,8.533-8.533s-3.821-8.533-8.533-8.533h-68.267c-4.713,0-8.533,3.82-8.533,8.533
			s3.821,8.533,8.533,8.533h8.533v8.533c0,14.138,11.462,25.6,25.6,25.6c14.138,0,25.6-11.462,25.6-25.6v-8.533H213.333z
			 M187.733,298.667c0,4.713-3.82,8.533-8.533,8.533s-8.533-3.821-8.533-8.533v-8.533h17.067V298.667z"/>
		<path d="M298.667,290.134h8.533v8.533c0,14.138,11.462,25.6,25.6,25.6s25.6-11.462,25.6-25.6v-8.533h8.533
			c4.713,0,8.533-3.82,8.533-8.533s-3.82-8.533-8.533-8.533h-68.267c-4.713,0-8.533,3.82-8.533,8.533
			S293.954,290.134,298.667,290.134z M341.333,290.134v8.533c0,4.713-3.82,8.533-8.533,8.533s-8.533-3.821-8.533-8.533v-8.533
			H341.333z"/>
		<path d="M238.933,354.134c4.713,0,8.533-3.82,8.533-8.533c0-1.504,3.242-4.267,8.533-4.267c5.292,0,8.533,2.763,8.533,4.267
			c0,4.713,3.82,8.533,8.533,8.533s8.533-3.82,8.533-8.533c-0.551-6.23-3.561-11.984-8.366-15.987s-11.007-5.928-17.234-5.346
			c-6.227-0.582-12.429,1.342-17.234,5.346c-4.805,4.004-7.815,9.758-8.366,15.987C230.4,350.313,234.221,354.134,238.933,354.134z"
			/>
		<path d="M306.542,421.417c1.395-3.343,0.527-7.203-2.167-9.625c-5.021-4.517-22.317-19.258-34.154-19.258
			c-4.969-0.046-9.867,1.188-14.221,3.583c-4.354-2.395-9.252-3.629-14.221-3.583c-11.838,0-29.133,14.742-34.154,19.258
			c-2.693,2.423-3.562,6.282-2.167,9.625c0.667,1.608,16.796,39.383,50.542,39.383S305.875,423.025,306.542,421.417z M256,443.734
			c-16.212,0-27.167-15.092-31.991-23.458c5.159-4.699,11.199-8.328,17.771-10.675c2.793-0.111,5.527,0.823,7.667,2.621v-0.004
			c1.611,1.85,3.934,2.928,6.388,2.962c2.464-0.057,4.812-1.053,6.567-2.783c2.137-1.917,4.94-2.92,7.808-2.796
			c6.585,2.347,12.638,5.982,17.804,10.692C283.225,428.663,272.333,443.734,256,443.734z"/>
		<path d="M323.583,372.221c-0.188-0.543-0.448-1.058-0.771-1.533c-0.338-0.429-0.679-0.854-1.021-1.279
			c-2.457-2.417-6.124-3.125-9.304-1.796c-1.044,0.413-1.999,1.023-2.813,1.796c-0.369,0.404-0.711,0.831-1.025,1.279
			c-0.323,0.475-0.582,0.991-0.771,1.533c-0.246,0.484-0.417,1.002-0.508,1.537c-0.096,0.565-0.153,1.136-0.171,1.709
			c0.012,1.115,0.243,2.216,0.679,3.242c0.434,1.034,1.041,1.987,1.796,2.817c0.815,0.771,1.77,1.379,2.813,1.792
			c1.014,0.479,2.126,0.712,3.246,0.683c2.259-0.034,4.422-0.918,6.059-2.475c0.752-0.831,1.358-1.783,1.792-2.817
			c0.437-1.026,0.669-2.127,0.683-3.242c-0.02-0.573-0.077-1.143-0.171-1.708C324.001,373.224,323.828,372.706,323.583,372.221z"/>
	</g>
</g>
<g>
</g>
<g>
</g>
<g>
</g>
<g>
</g>
<g>
</g>
<g>
</g>
<g>
</g>
<g>
</g>
<g>
</g>
<g>
</g>
<g>
</g>
<g>
</g>
<g>
</g>
<g>
</g>
<g>
</g>
</svg>
