<?xml version="1.0" encoding="iso-8859-1"?>
<!-- Generator: Adobe Illustrator 19.0.0, SVG Export Plug-In . SVG Version: 6.00 Build 0)  -->
<svg version="1.1" id="Capa_1" xmlns="http://www.w3.org/2000/svg" xmlns:xlink="http://www.w3.org/1999/xlink" x="0px" y="0px"
	 viewBox="0 0 512.001 512.001" style="enable-background:new 0 0 512.001 512.001;" xml:space="preserve">
<g>
	<g transform="translate(1 1)">
		<path style="fill:none;stroke:#000000;stroke-width:2;stroke-linecap:round;stroke-linejoin:round;" d="M237.934,348.867h34.133"
			/>
		<g>
			<g>
				<path style="fill:#BFB186;" d="M459.8,272.067v51.2c-0.028,9.414-7.652,17.039-17.067,17.067h-30.379l-1.195-0.256
					c3.098-13.953,5.039-28.138,5.803-42.411l0.085-68.437c-0.035,6.831,2.657,13.393,7.479,18.231
					c4.822,4.838,11.375,7.552,18.206,7.54c1.382-0.009,2.759,0.163,4.096,0.512C454.42,257.432,459.753,264.239,459.8,272.067z"/>
				<path style="fill:#BFB186;" d="M98.84,340.078l-1.195,0.256H67.267c-9.414-0.028-17.039-7.652-17.067-17.067v-51.2
					c0.048-7.829,5.381-14.635,12.971-16.555c1.337-0.349,2.714-0.521,4.096-0.512c6.831,0.012,13.384-2.702,18.206-7.54
					c4.822-4.838,7.514-11.4,7.479-18.231l0.085,68.437C93.801,311.94,95.742,326.125,98.84,340.078z"/>
				<path style="fill:#BFB186;" d="M408.6,212.334c-2.41,0.007-4.814-0.251-7.168-0.768c-0.922-0.177-1.833-0.405-2.73-0.683
					c-0.171-0.085-0.341-0.085-0.512-0.171c-0.984-0.243-1.931-0.616-2.816-1.109c-1.033-0.368-2.033-0.824-2.987-1.365
					c-1.109-0.597-2.133-1.28-3.157-1.963c-0.532-0.371-1.045-0.77-1.536-1.195c-3.079-2.323-5.71-5.185-7.765-8.448
					c-0.344-0.492-0.657-1.005-0.939-1.536c-0.323-0.476-0.582-0.992-0.768-1.536c-0.827-1.427-1.485-2.944-1.963-4.523
					c-0.085-0.256-0.256-0.597-0.341-0.853c-0.171-0.597-0.256-1.109-0.427-1.707c-0.256-0.939-0.427-1.963-0.597-2.987
					c-0.071-0.279-0.099-0.566-0.085-0.853c-0.244-1.466-0.359-2.951-0.342-4.437c0.033-3.516,0.639-7.004,1.792-10.325
					c-3.322,1.153-6.809,1.759-10.325,1.792c-18.859,0-34.133-23.808-34.133-42.667h-0.256
					c-1.493,13.357-9.882,24.952-22.101,30.549c-5.016,2.368-10.496,3.592-16.043,3.584c-21.202-0.014-38.386-17.198-38.4-38.4
					c0.005,20.376-15.91,37.205-36.254,38.339c-20.344,1.134-38.03-13.823-40.29-34.073H178.2
					c-0.367,11.22-4.517,21.986-11.776,30.549c-5.264,7.181-13.467,11.627-22.357,12.117c-3.516-0.033-7.004-0.639-10.325-1.792
					c1.153,3.322,1.759,6.809,1.792,10.325c0.002,9.053-3.593,17.737-9.995,24.139c-6.402,6.402-15.085,9.997-24.139,9.995
					c-2.791,0.006-5.572-0.338-8.277-1.024l-0.256,1.024l0.085,16.896l0.085,59.904v8.533c0.764,14.273,2.704,28.458,5.803,42.411
					c11.093,50.603,42.24,122.027,128.939,157.184c3.286,1.347,6.684,2.403,10.155,3.157c14.733,3.562,30.209,2.458,44.288-3.157
					C368.92,462.104,400.067,390.68,411.16,340.078c3.098-13.953,5.039-28.138,5.803-42.411l0.085-68.437l0.085-16.896H408.6z"/>
			</g>
			<path style="fill:#FFE0B2;" d="M374.467,212.334c-2.41,0.007-4.814-0.251-7.168-0.768c-0.922-0.177-1.833-0.405-2.73-0.683
				c-0.171-0.085-0.341-0.085-0.512-0.171c-0.984-0.243-1.931-0.616-2.816-1.109c-1.033-0.368-2.033-0.824-2.987-1.365
				c-1.109-0.597-2.133-1.28-3.157-1.963c-0.532-0.371-1.045-0.77-1.536-1.195c-3.079-2.323-5.71-5.185-7.765-8.448
				c-0.344-0.492-0.657-1.005-0.939-1.536c-0.323-0.476-0.582-0.992-0.768-1.536c-0.827-1.427-1.485-2.944-1.963-4.523
				c-0.085-0.256-0.256-0.597-0.341-0.853c-0.171-0.597-0.256-1.109-0.427-1.707c-0.256-0.939-0.427-1.963-0.597-2.987
				c-0.071-0.279-0.099-0.566-0.085-0.853c-0.244-1.466-0.359-2.951-0.342-4.437c0.033-3.516,0.639-7.004,1.792-10.325
				c-3.322,1.153-6.809,1.759-10.325,1.792c-8.89-0.491-17.093-4.937-22.357-12.117c-7.259-8.563-11.409-19.329-11.776-30.549
				h-0.256c-2.269,20.242-19.952,35.189-40.289,34.055c-20.338-1.134-36.25-17.953-36.255-38.322
				c-0.014,21.202-17.198,38.386-38.4,38.4c-5.547,0.008-11.027-1.216-16.043-3.584c-5.264,7.181-13.467,11.627-22.357,12.117
				c-3.516-0.033-7.004-0.639-10.325-1.792c1.153,3.322,1.759,6.809,1.792,10.325c0.002,9.053-3.593,17.737-9.995,24.139
				c-6.402,6.402-15.085,9.997-24.139,9.995c-2.791,0.006-5.572-0.338-8.277-1.024l-0.256,1.024l0.085,16.896l0.085,59.904v8.533
				c0.764,14.273,2.704,28.458,5.803,42.411c11.093,50.603,42.24,122.027,128.939,157.184c3.286,1.347,6.684,2.403,10.155,3.157
				c3.471-0.754,6.868-1.811,10.155-3.157c86.699-35.157,117.845-106.581,128.939-157.184c3.098-13.953,5.039-28.138,5.803-42.411
				l0.085-68.437L383,212.334H374.467z"/>
			<g>
				<path style="fill:#B0D3F0;" d="M229.4,255v34.133c-0.041,14.121-11.479,25.559-25.6,25.6h-42.667
					c-14.121-0.041-25.559-11.479-25.6-25.6v-42.667h85.333C225.574,246.481,229.386,250.293,229.4,255z"/>
				<path style="fill:#B0D3F0;" d="M374.467,246.467v42.667c-0.041,14.121-11.479,25.559-25.6,25.6H306.2
					c-14.121-0.041-25.559-11.479-25.6-25.6V255c0.014-4.707,3.826-8.519,8.533-8.533H374.467z"/>
			</g>
			<g>
				<path style="fill:#FFE0B2;" d="M255,468.334c-4.713,0-8.533-3.82-8.533-8.533v-17.067c0-4.713,3.821-8.533,8.533-8.533
					c4.713,0,8.533,3.82,8.533,8.533V459.8C263.534,464.513,259.713,468.334,255,468.334z"/>
				<path style="fill:#FFE0B2;" d="M263.534,451.267h-17.067c-4.713,0-8.533-3.821-8.533-8.533s3.821-8.533,8.533-8.533h17.067
					c4.713,0,8.533,3.82,8.533,8.533S268.247,451.267,263.534,451.267z"/>
			</g>
			<path style="fill:#4E342E;" d="M483.95,115.651c3.284-11.528,0.932-23.93-6.343-33.457S458.987,67.134,447,67.267
				c-1.604,0.044-3.202,0.215-4.779,0.512c0.297-1.577,0.468-3.175,0.512-4.779c0.055-16.489-10.457-31.16-26.088-36.409
				c-15.631-5.249-32.868,0.103-42.776,13.284c-2.711-17.47-17.056-30.797-34.677-32.218c-17.622-1.421-33.916,9.435-39.392,26.244
				C290.765,17.628,273.614,7.534,255,7.534s-35.764,10.094-44.8,26.368c-5.476-16.809-21.77-27.666-39.392-26.244
				s-31.966,14.748-34.677,32.218c-9.908-13.18-27.144-18.533-42.776-13.284S67.212,46.511,67.267,63
				c0.044,1.604,0.215,3.202,0.512,4.779c-1.577-0.297-3.175-0.468-4.779-0.512c-11.986-0.133-23.331,5.401-30.607,14.927
				s-9.626,21.928-6.343,33.457c-13.759,8.298-20.859,24.316-17.767,40.083s15.717,27.917,31.591,30.403
				c-9.587,7.197-15.242,18.476-15.275,30.464c-0.003,2.002,0.169,4.001,0.512,5.973c0.771,5.434,2.754,10.625,5.803,15.189
				C38.033,248.536,50.088,255.013,63,255l0.171,0.512c1.337-0.349,2.714-0.521,4.096-0.512c6.831,0.012,13.384-2.702,18.206-7.54
				c4.822-4.838,7.514-11.4,7.479-18.231l-0.085-16.896l0.256-1.024c2.705,0.686,5.486,1.03,8.277,1.024
				c9.053,0.002,17.737-3.593,24.139-9.995c6.402-6.402,9.997-15.085,9.995-24.139c-0.033-3.516-0.639-7.004-1.792-10.325
				c3.322,1.153,6.809,1.759,10.325,1.792c18.859,0,34.133-23.808,34.133-42.667h0.256c2.259,20.251,19.945,35.21,40.29,34.076
				s36.26-17.966,36.254-38.342c-0.006,20.377,15.908,37.208,36.254,38.342s38.032-13.824,40.29-34.076h0.256
				c0,18.859,15.275,42.667,34.133,42.667c3.516-0.033,7.004-0.639,10.325-1.792c-1.153,3.322-1.759,6.809-1.792,10.325
				c-0.002,9.053,3.593,17.737,9.995,24.139s15.085,9.997,24.139,9.995h8.533l-0.085,16.896c-0.035,6.831,2.657,13.393,7.479,18.231
				c4.822,4.838,11.375,7.552,18.206,7.54c1.382-0.009,2.759,0.163,4.096,0.512L447,255c12.912,0.012,24.967-6.464,32.085-17.237
				c3.048-4.564,5.032-9.755,5.803-15.189c0.343-1.973,0.515-3.971,0.512-5.973c-0.032-11.988-5.687-23.267-15.275-30.464
				c15.889-2.466,28.532-14.617,31.627-30.395C504.847,139.963,497.73,123.936,483.95,115.651z"/>
			<path style="fill:#795548;" d="M470.126,186.136c9.587,7.197,15.242,18.476,15.275,30.464c0.003,2.002-0.169,4.001-0.512,5.973
				c-0.771,5.434-2.754,10.625-5.803,15.189C471.968,248.536,459.913,255.013,447,255l-0.171,0.512
				c-1.337-0.349-2.714-0.521-4.096-0.512c-6.831,0.012-13.384-2.702-18.206-7.54c-4.822-4.838-7.514-11.4-7.479-18.231
				l0.085-16.896H408.6c-9.053,0.002-17.737-3.593-24.139-9.995s-9.997-15.085-9.995-24.139c0.033-3.516,0.639-7.004,1.792-10.325
				c-3.322,1.153-6.809,1.759-10.325,1.792c-18.859,0-34.133-23.808-34.133-42.667h-0.256c-2.259,20.251-19.945,35.21-40.29,34.076
				S254.994,143.11,255,122.734c0.006,20.377-15.909,37.208-36.254,38.342s-38.032-13.824-40.29-34.076H178.2
				c0,18.859-15.275,42.667-34.133,42.667c-3.516-0.033-7.004-0.639-10.325-1.792c1.153,3.322,1.759,6.809,1.792,10.325
				c0.002,9.053-3.593,17.737-9.995,24.139c-6.402,6.402-15.085,9.997-24.139,9.995c-2.791,0.006-5.572-0.338-8.277-1.024
				l-0.256,1.024l0.085,16.896c0.035,6.831-2.657,13.393-7.479,18.231c-4.822,4.838-11.375,7.552-18.206,7.54
				c-1.382-0.009-2.759,0.163-4.096,0.512L63,255c-12.912,0.012-24.967-6.464-32.085-17.237c-3.048-4.564-5.032-9.755-5.803-15.189
				c-0.343-1.973-0.515-3.971-0.512-5.973c0.032-11.988,5.687-23.267,15.275-30.464c-10.592-1.68-19.998-7.714-25.941-16.64
				c3.108-4.759,7.25-8.755,12.117-11.691c-3.284-11.528-0.932-23.93,6.343-33.457S51.014,109.289,63,109.422
				c1.604,0.044,3.202,0.215,4.779,0.512c-0.297-1.577-0.468-3.175-0.512-4.779c-0.055-16.489,10.457-31.16,26.088-36.409
				c15.631-5.249,32.868,0.103,42.776,13.284c2.711-17.47,17.056-30.797,34.677-32.218c17.622-1.421,33.916,9.435,39.392,26.244
				c9.036-16.274,26.186-26.368,44.8-26.368s35.764,10.094,44.8,26.368c5.476-16.809,21.77-27.666,39.392-26.244
				c17.622,1.421,31.966,14.748,34.677,32.218c9.908-13.18,27.144-18.533,42.776-13.284c15.631,5.249,26.143,19.92,26.088,36.409
				c-0.044,1.604-0.215,3.202-0.512,4.779c1.577-0.297,3.175-0.468,4.779-0.512c11.986-0.133,23.331,5.401,30.607,14.927
				s9.626,21.928,6.343,33.457c4.867,2.936,9.009,6.932,12.117,11.691C490.124,178.423,480.717,184.456,470.126,186.136z"/>
		</g>
	</g>
	<g>
		<path d="M494.45,112.9c0.318-2.063,0.48-4.146,0.483-6.233c-0.029-24.324-18.613-44.607-42.842-46.758
			c-2.152-24.229-22.434-42.812-46.758-42.842c-9.518-0.02-18.809,2.901-26.604,8.363c-7.37-14.387-21.65-23.944-37.759-25.271
			c-16.11-1.327-31.762,5.764-41.386,18.75C288.299,6.847,272.519,0.001,256,0.001s-32.298,6.846-43.583,18.908
			c-9.625-12.986-25.277-20.078-41.386-18.75s-30.39,10.885-37.759,25.271c-7.795-5.462-17.086-8.382-26.604-8.363
			C82.343,17.096,62.061,35.68,59.909,59.909c-24.229,2.152-42.812,22.434-42.842,46.758c0.004,2.087,0.165,4.171,0.483,6.233
			c-12.387,9.903-18.906,25.413-17.314,41.192s11.078,29.674,25.193,36.904c-5.462,7.795-8.382,17.086-8.363,26.604
			c0.021,18.915,11.379,35.974,28.822,43.29c-2.084,3.722-3.192,7.911-3.222,12.177v51.2c0.015,14.132,11.468,25.585,25.6,25.6
			H93.33c12.862,51.186,46.161,121.368,132.241,156.304c19.542,7.772,41.317,7.772,60.858,0
			c86.08-34.936,119.379-105.118,132.241-156.304h25.063c14.132-0.015,25.585-11.468,25.6-25.6v-51.2
			c-0.029-4.266-1.137-8.455-3.221-12.177c17.443-7.316,28.8-24.375,28.821-43.29c0.02-9.518-2.901-18.809-8.363-26.604
			c14.115-7.23,23.601-21.125,25.193-36.904S506.837,122.804,494.45,112.9L494.45,112.9z M452.267,324.267
			c-0.006,4.71-3.823,8.527-8.533,8.533H422.41c1.832-9.884,2.896-18.594,3.506-25.6h9.285c4.713,0,8.533-3.821,8.533-8.533
			c0-4.713-3.82-8.533-8.533-8.533h-17.237c-1.086,0.219-2.172,0.439-3.258,0.658c-0.155,0.064-0.272,0.182-0.422,0.255
			c-0.835,0.38-1.601,0.896-2.267,1.528c-0.64,0.843-1.242,1.713-1.806,2.609c-0.174,0.494-0.302,1.002-0.383,1.519
			c-0.176,0.494-0.304,1.004-0.384,1.522c-2.217,42.875-19.263,147.417-129.429,192.129c-15.426,6.106-32.599,6.106-48.025,0
			C121.821,445.642,104.775,341.1,102.559,298.225c-0.076-0.447-0.191-0.887-0.342-1.314c-0.09-0.611-0.246-1.209-0.465-1.786
			c-0.675-1.605-1.903-2.915-3.461-3.693c-0.348-0.249-0.715-0.47-1.098-0.661c-0.672-0.233-1.372-0.375-2.082-0.42
			c-0.352-0.097-0.71-0.169-1.072-0.217H76.8c-4.713,0-8.533,3.821-8.533,8.533c0,4.713,3.821,8.533,8.533,8.533h9.285
			c0.61,7.006,1.674,15.716,3.506,25.6H68.267c-4.71-0.006-8.527-3.823-8.533-8.533v-51.2c0.006-4.71,3.823-8.527,8.533-8.533
			c9.094,0,17.814-3.622,24.232-10.065c6.418-6.444,10.005-15.178,9.968-24.272l-0.033-8.333c13.77-0.036,26.672-6.73,34.629-17.969
			c10.921-2.739,23.542,0.566,40.666,5.156c3.004,0.804,6.104,1.633,9.308,2.458c4.71,1.241,9.559,1.874,14.429,1.883
			c16.774-0.465,32.639-7.726,43.954-20.117c3.037-3.578,2.614-8.937-0.947-11.994c-3.56-3.057-8.922-2.665-11.999,0.877
			c-10.412,11.373-26.133,16.273-41.163,12.829c-3.162-0.817-6.217-1.633-9.167-2.425c-12.224-3.929-24.925-6.176-37.755-6.68
			c0.402-2.206,0.628-4.441,0.676-6.683c15.904-1.287,29.802-11.239,36.142-25.882c9.263,11.432,23.361,17.846,38.066,17.318
			c14.705-0.528,28.306-7.936,36.726-20.003c8.42,12.067,22.021,19.475,36.726,20.003s28.802-5.886,38.065-17.318
			c6.34,14.642,20.238,24.595,36.142,25.882c0.047,2.242,0.273,4.477,0.675,6.683c-12.83,0.504-25.531,2.751-37.755,6.68
			c-2.95,0.792-6.004,1.608-9.183,2.429c-15.01,3.443-30.713-1.445-41.117-12.8c-1.977-2.327-5.047-3.42-8.05-2.866
			c-3.003,0.554-5.481,2.671-6.497,5.55c-1.017,2.879-0.417,6.082,1.572,8.399c11.313,12.392,27.177,19.655,43.95,20.121
			c4.866-0.011,9.711-0.644,14.417-1.883c3.221-0.829,6.321-1.658,9.325-2.462c17.12-4.582,29.753-7.883,40.668-5.154
			c7.957,11.237,20.858,17.931,34.627,17.967l-0.033,8.333c-0.037,9.094,3.55,17.829,9.968,24.272
			c6.418,6.444,15.138,10.066,24.232,10.065c4.71,0.006,8.527,3.823,8.533,8.533V324.267z M469.792,178.709
			c-3.377,0.535-6.108,3.033-6.941,6.349c-0.833,3.316,0.393,6.809,3.116,8.876c7.477,5.571,11.888,14.343,11.9,23.667
			c-0.02,16.487-13.38,29.847-29.867,29.867c-0.482,0.053-0.958,0.149-1.423,0.287c-0.942-0.15-1.891-0.246-2.844-0.287
			c-4.557,0.001-8.926-1.813-12.142-5.042c-3.215-3.229-5.012-7.606-4.992-12.162l0.067-16.896
			c-0.037-0.837-0.201-1.663-0.485-2.451c-0.041-0.25,0.025-0.491-0.04-0.741c-0.565-2.192-1.979-4.069-3.928-5.218
			c-1.95-1.149-4.276-1.477-6.468-0.911c-2.009,0.505-4.074,0.758-6.146,0.754c-14.132-0.015-25.585-11.468-25.6-25.6
			c0.035-2.6,0.492-5.176,1.354-7.629c1.021-3.066,0.222-6.445-2.062-8.73c-2.285-2.285-5.664-3.083-8.73-2.062
			c-2.453,0.862-5.029,1.32-7.629,1.354c-13.188,0-25.6-19.229-25.6-34.133c-0.042-0.288-0.1-0.574-0.173-0.856
			c0.082-1.131,0.173-2.259,0.173-3.411c0-4.713-3.82-8.533-8.533-8.533s-8.533,3.821-8.533,8.533
			c0,16.495-13.372,29.867-29.867,29.867c-16.495,0-29.867-13.372-29.867-29.867c0-4.713-3.821-8.533-8.533-8.533
			c-4.713,0-8.533,3.821-8.533,8.533c0,16.495-13.372,29.867-29.867,29.867s-29.867-13.372-29.867-29.867
			c0-4.713-3.821-8.533-8.533-8.533c-4.713,0-8.533,3.821-8.533,8.533c0,1.152,0.091,2.28,0.173,3.411
			c-0.073,0.282-0.131,0.568-0.173,0.856c0,14.904-12.413,34.133-25.6,34.133c-2.6-0.035-5.176-0.492-7.629-1.354
			c-3.066-1.021-6.445-0.222-8.73,2.062c-2.285,2.285-3.083,5.664-2.062,8.73c0.862,2.453,1.32,5.029,1.354,7.629
			c-0.015,14.132-11.468,25.585-25.6,25.6c-2.072,0.004-4.136-0.249-6.146-0.754c-2.191-0.567-4.518-0.239-6.468,0.91
			c-1.95,1.15-3.363,3.027-3.928,5.219c-0.065,0.25,0.002,0.492-0.04,0.741c-0.284,0.788-0.448,1.614-0.485,2.451l0.067,16.896
			c0.02,4.557-1.776,8.934-4.992,12.162c-3.215,3.229-7.585,5.043-12.142,5.042c-0.953,0.042-1.902,0.138-2.844,0.287
			c-0.465-0.138-0.941-0.234-1.423-0.287c-16.487-0.02-29.847-13.38-29.867-29.867c0.012-9.324,4.423-18.096,11.9-23.667
			c2.723-2.067,3.949-5.56,3.116-8.876c-0.833-3.316-3.565-5.814-6.941-6.349c-12.354-1.906-22.187-11.352-24.589-23.618
			s3.142-24.723,13.864-31.149c3.227-1.964,4.779-5.814,3.817-9.467c-2.605-8.968-0.804-18.641,4.856-26.07
			C45.816,80.976,54.662,76.671,64,76.8c1.155,0.045,2.304,0.18,3.437,0.404c2.709,0.411,5.45-0.509,7.363-2.471
			c1.933-1.967,2.816-4.735,2.379-7.458C76.967,66.196,76.84,65.1,76.8,64c0.02-16.487,13.38-29.847,29.867-29.867
			c9.324,0.012,18.096,4.423,23.667,11.9c2.067,2.723,5.56,3.949,8.876,3.116c3.316-0.833,5.814-3.565,6.349-6.941
			c2.096-13.579,13.242-23.942,26.937-25.046s26.357,7.34,30.601,20.408c1.058,3.215,3.917,5.501,7.287,5.825
			s6.612-1.374,8.263-4.329c7.528-13.577,21.83-22,37.354-22s29.826,8.423,37.354,22c1.652,2.955,4.894,4.653,8.263,4.329
			s6.228-2.61,7.287-5.825c4.244-13.068,16.905-21.512,30.601-20.408c13.695,1.104,24.841,11.467,26.937,25.046
			c0.535,3.377,3.033,6.108,6.349,6.941c3.316,0.833,6.809-0.393,8.876-3.116c5.571-7.477,14.343-11.888,23.667-11.9
			C421.82,34.154,435.181,47.514,435.2,64c-0.045,1.155-0.18,2.304-0.404,3.437c-0.403,2.708,0.516,5.446,2.471,7.363
			c1.966,1.934,4.735,2.817,7.458,2.379c1.08-0.213,2.175-0.34,3.275-0.379c9.338-0.13,18.185,4.176,23.844,11.605
			c5.659,7.429,7.461,17.102,4.856,26.07c-0.962,3.652,0.59,7.503,3.817,9.467c10.722,6.425,16.266,18.882,13.864,31.149
			C491.979,167.357,482.146,176.802,469.792,178.709L469.792,178.709z"/>
		<path d="M273.067,358.4c4.713,0,8.533-3.82,8.533-8.533s-3.82-8.533-8.533-8.533h-34.133c-4.713,0-8.533,3.82-8.533,8.533
			s3.821,8.533,8.533,8.533H273.067z"/>
		<path d="M384,230.4h-93.867c-10.813,0.033-20.435,6.868-24.028,17.067h-20.212c-3.592-10.199-13.214-17.033-24.028-17.067H128
			c-4.713,0-8.533,3.821-8.533,8.533v51.2c0.028,23.553,19.114,42.639,42.667,42.667H204.8
			c23.553-0.028,42.639-19.114,42.667-42.667v-25.6h17.067v25.6c0.028,23.553,19.114,42.639,42.667,42.667h42.667
			c23.553-0.028,42.639-19.114,42.667-42.667v-51.2C392.534,234.221,388.713,230.4,384,230.4z M230.4,290.134
			c-0.015,14.132-11.468,25.585-25.6,25.6h-42.667c-14.132-0.015-25.585-11.468-25.6-25.6v-42.667h85.333
			c4.71,0.006,8.527,3.823,8.533,8.533V290.134z M375.467,290.134c-0.015,14.132-11.468,25.585-25.6,25.6H307.2
			c-14.132-0.015-25.585-11.468-25.6-25.6V256c0.006-4.71,3.823-8.527,8.533-8.533h85.333V290.134z"/>
		<path d="M204.8,264.534h-42.667c-4.713,0-8.533,3.821-8.533,8.533s3.821,8.533,8.533,8.533H179.2c0,4.713,3.821,8.533,8.533,8.533
			s8.533-3.82,8.533-8.533h8.533c4.713,0,8.533-3.82,8.533-8.533S209.513,264.534,204.8,264.534z"/>
		<path d="M307.2,281.6h8.533c0,4.713,3.821,8.533,8.533,8.533c4.713,0,8.533-3.82,8.533-8.533h17.067
			c4.713,0,8.533-3.82,8.533-8.533s-3.821-8.533-8.533-8.533H307.2c-4.713,0-8.533,3.821-8.533,8.533S302.488,281.6,307.2,281.6z"/>
		<path d="M290.134,375.467h-68.267c-4.713,0-8.533,3.82-8.533,8.533s3.821,8.533,8.533,8.533h68.267
			c4.713,0,8.533-3.821,8.533-8.533S294.847,375.467,290.134,375.467z"/>
		<path d="M273.067,401.067h-34.133c-4.713,0-8.533,3.82-8.533,8.533s3.821,8.533,8.533,8.533h34.133
			c4.713,0,8.533-3.82,8.533-8.533S277.78,401.067,273.067,401.067z"/>
		<path d="M264.534,435.2h-17.067c-4.713,0-8.533,3.82-8.533,8.533s3.821,8.533,8.533,8.533v8.533c0,4.713,3.821,8.533,8.533,8.533
			c4.713,0,8.533-3.82,8.533-8.533v-8.533c4.713,0,8.533-3.821,8.533-8.533S269.247,435.2,264.534,435.2z"/>
	</g>
</g>
<g>
</g>
<g>
</g>
<g>
</g>
<g>
</g>
<g>
</g>
<g>
</g>
<g>
</g>
<g>
</g>
<g>
</g>
<g>
</g>
<g>
</g>
<g>
</g>
<g>
</g>
<g>
</g>
<g>
</g>
</svg>
