<?xml version="1.0" encoding="iso-8859-1"?>
<!-- Generator: Adobe Illustrator 19.0.0, SVG Export Plug-In . SVG Version: 6.00 Build 0)  -->
<svg version="1.1" id="Capa_1" xmlns="http://www.w3.org/2000/svg" xmlns:xlink="http://www.w3.org/1999/xlink" x="0px" y="0px"
	 viewBox="0 0 511.762 511.762" style="enable-background:new 0 0 511.762 511.762;" xml:space="preserve">
<g>
	<g transform="translate(1 1)">
		<path style="fill:#6A1B9A;" d="M186.393,468.816c-17.386,22.051-43.246,35.771-71.253,37.803
			c22.016-28.416-10.581-47.445-42.24-75.861c-13.397-11.947-11.691-30.635-5.376-48.213c9.046,9.387,20.48,17.237,30.635,10.752
			c2.699-1.914,4.918-4.425,6.485-7.339l1.963-1.109c15.189,26.027,32.341,51.371,46.507,62.037
			C163.764,454.845,174.877,462.168,186.393,468.816z"/>
		<g>
			<path style="fill:#BFB186;" d="M109.811,380.458l-1.963,1.109c-1.567,2.913-3.787,5.425-6.485,7.339
				c-10.155,6.485-21.589-1.365-30.635-10.752c-4.508-4.791-8.672-9.895-12.459-15.275c-10.411-14.507-22.869-32.768-21.248-51.627
				c-0.09-6.416,4.263-12.043,10.496-13.568c7.79-1.051,15.714,0.319,22.699,3.925l0.768,4.352
				C70.985,305.962,88.478,343.85,109.811,380.458z"/>
			<path style="fill:#BFB186;" d="M472.734,311.253c1.621,18.859-10.837,37.12-21.248,51.627
				c-7.851,10.923-27.136,36.267-43.093,26.027c-2.699-1.914-4.918-4.425-6.485-7.339l-1.963-1.109
				c21.333-36.608,38.827-74.496,38.827-74.496l2.048-4.864c6.643-3.236,14.099-4.424,21.419-3.413
				C468.47,299.209,472.824,304.837,472.734,311.253z"/>
		</g>
		<path style="fill:#6A1B9A;" d="M418.718,70.954c-16.043-18.517-35.584-36.352-60.416-40.619
			c-13.36-2.047-26.934-2.305-40.363-0.768c-0.597,0.085-1.195,0.085-1.792,0.171c-5.649,1.458-11.375,2.598-17.152,3.413
			c-0.497,0.04-0.997-0.048-1.451-0.256c0,0-2.133-1.536-5.888-3.925C265.078,12.1,233.478,4.954,202.227,8.746
			c-14.655,2.357-28.678,7.67-41.216,15.616c-57.429,35.84-94.891,97.195-100.693,181.248c-1.907,32.127,0.128,64.367,6.059,96
			c0.341,0.171,0.768,0.341,1.109,0.512c2.133-22.187,16.725-134.4,93.525-149.76c41.162-9.022,79.166-28.878,110.08-57.515
			c9.64-8.455,18.494-17.766,26.453-27.819c0,0,17.067,85.333,85.333,119.467c19.768,9.791,35.777,25.8,45.568,45.568
			c10.389,21.756,15.338,45.711,14.421,69.803l1.792-0.768c1.707-4.011,3.328-8.107,4.864-12.203
			C476.489,215.765,471.113,131.711,418.718,70.954z"/>
		<g>
			<path style="fill:#9D27B0;" d="M428.446,232.063c-9.791-19.768-25.8-35.777-45.568-45.568
				c-68.267-34.133-85.333-119.467-85.333-119.467c-7.96,10.053-16.814,19.363-26.453,27.819
				c-30.914,28.636-68.918,48.493-110.08,57.515c-76.8,15.36-91.392,127.573-93.525,149.76c-0.341-0.171-0.768-0.341-1.109-0.512
				c-5.931-31.633-7.966-63.873-6.059-96c5.803-84.053,43.264-145.408,100.693-181.248c12.538-7.946,26.561-13.259,41.216-15.616
				c31.251-3.793,62.851,3.354,89.429,20.224c3.755,2.389,5.888,3.925,5.888,3.925c0.454,0.208,0.953,0.296,1.451,0.256
				c5.777-0.816,11.503-1.955,17.152-3.413c0.597-0.085,1.195-0.085,1.792-0.171c1.792,0.256,3.499,0.512,5.291,0.768
				c24.832,4.267,44.373,22.101,60.416,40.619C420.945,115.772,437.254,174.424,428.446,232.063z"/>
			<path style="fill:#9D27B0;" d="M428.446,232.063c-2.499,19.413-7.194,38.479-13.995,56.832
				c-1.536,4.096-3.157,8.192-4.864,12.203l-1.792,0.768c0.683-17.408-0.683-85.76-59.989-115.371
				c-43.179-21.589-65.877-63.659-76.715-91.648c9.64-8.455,18.494-17.766,26.453-27.819c0,0,17.067,85.333,85.333,119.467
				C402.646,196.286,418.655,212.295,428.446,232.063z"/>
			<path style="fill:#9D27B0;" d="M317.939,29.567c-0.597,0.085-1.195,0.085-1.792,0.171c-5.649,1.458-11.375,2.598-17.152,3.413
				c-0.497,0.04-0.997-0.048-1.451-0.256c0,0-2.133-1.536-5.888-3.925C300.417,28.357,309.216,28.557,317.939,29.567z"/>
		</g>
		<path style="fill:#BFB186;" d="M442.867,301.866c-0.085,2.645-0.256,4.096-0.256,4.096s-17.493,37.888-38.827,74.496
			c-15.189,26.027-32.341,51.371-46.507,62.037c-34.133,25.6-59.733,34.133-68.267,42.667c-9.403,8.992-21.298,14.939-34.133,17.067
			c-6.054-0.592-11.921-2.421-17.237-5.376c-6.174-3.049-11.866-6.988-16.896-11.691c-11.045-7.904-22.75-14.842-34.987-20.736
			c-11.516-6.648-22.629-13.971-33.28-21.931c-14.165-10.667-31.317-36.011-46.507-62.037
			c-21.333-36.608-38.827-74.496-38.827-74.496s0.085-1.365,0.341-3.84c2.133-22.187,16.725-134.4,93.525-149.76
			c41.348-9.101,79.505-29.108,110.507-57.941c9.445-8.367,18.153-17.532,26.027-27.392c0,0,17.067,85.333,85.333,119.467
			C442.185,216.106,443.55,284.458,442.867,301.866z"/>
		<path style="fill:#FFE0B2;" d="M408.393,301.866c-0.085,2.645-0.256,4.096-0.256,4.096s-17.493,37.888-38.827,74.496
			c-15.189,26.027-32.341,51.371-46.507,62.037c-34.133,25.6-59.733,34.133-68.267,42.667c-5.03,4.703-10.722,8.641-16.896,11.691
			c-6.174-3.049-11.866-6.988-16.896-11.691c-11.045-7.904-22.75-14.842-34.987-20.736c-11.516-6.648-22.629-13.971-33.28-21.931
			c-14.165-10.667-31.317-36.011-46.507-62.037c-21.333-36.608-38.827-74.496-38.827-74.496s0.085-1.365,0.341-3.84
			c2.133-22.187,16.725-134.4,93.525-149.76c41.348-9.101,79.505-29.108,110.507-57.941c10.752,27.989,33.536,70.4,76.885,92.075
			C407.71,216.106,409.075,284.458,408.393,301.866z"/>
		<g>
			<path style="fill:#00838F;" d="M173.299,348.629c-4.43,0.022-8.853-0.321-13.227-1.024
				c-51.883-7.595-58.795-60.587-58.795-84.309c10.635-21.111,32.341-34.346,55.979-34.133c40.021,0,72.021,51.2,72.021,51.2
				S237.299,348.629,173.299,348.629z"/>
			<path style="fill:#00838F;" d="M408.478,263.295c0,25.6-8.021,85.333-72.021,85.333c-4.147,0.027-8.288-0.316-12.373-1.024
				c-50.517-8.192-43.605-67.243-43.605-67.243s25.941-41.472,60.331-49.749c3.824-0.954,7.749-1.441,11.691-1.451
				C376.045,229.277,397.593,242.416,408.478,263.295z"/>
		</g>
		<g>
			<path style="fill:#00BCD4;" d="M160.073,347.605c-51.883-7.595-58.795-60.587-58.795-84.309
				c8.681-16.428,24.005-28.333,42.069-32.683c34.389,8.277,60.331,49.749,60.331,49.749S210.59,339.413,160.073,347.605z"/>
			<path style="fill:#00BCD4;" d="M382.878,263.295c0,23.723-6.912,76.715-58.795,84.309c-50.517-8.192-43.605-67.243-43.605-67.243
				s25.941-41.472,60.331-49.749C358.889,234.929,374.225,246.843,382.878,263.295z"/>
		</g>
		<g>
			<path style="fill:#2C3E50;" d="M237.811,374.229c-0.573-0.02-1.143-0.077-1.708-0.171c-0.535-0.095-1.053-0.268-1.537-0.513
				c-0.543-0.188-1.058-0.448-1.533-0.771c-0.429-0.337-0.854-0.679-1.279-1.021c-0.772-0.816-1.382-1.772-1.796-2.817
				c-0.436-1.026-0.667-2.127-0.679-3.242c0.013-0.573,0.07-1.144,0.171-1.708c0.091-0.535,0.263-1.053,0.508-1.537
				c0.188-0.543,0.448-1.058,0.771-1.533c0.341-0.429,0.683-0.854,1.025-1.279c0.425-0.341,0.85-0.683,1.279-1.025
				c0.475-0.323,0.991-0.582,1.533-0.771c0.484-0.246,1.002-0.417,1.538-0.509c1.123-0.258,2.29-0.258,3.413,0
				c0.535,0.091,1.053,0.263,1.537,0.508c0.525,0.17,1.015,0.431,1.45,0.771c0.512,0.341,0.938,0.683,1.367,1.025
				c0.341,0.425,0.683,0.85,1.021,1.279c0.323,0.475,0.582,0.991,0.771,1.533c0.245,0.485,0.418,1.003,0.513,1.537
				c0.098,0.565,0.155,1.136,0.171,1.709c-0.014,1.115-0.246,2.216-0.683,3.242c-0.394,1.054-1.005,2.013-1.792,2.817
				c-0.429,0.341-0.854,0.683-1.367,1.021c-0.435,0.34-0.925,0.601-1.45,0.771c-0.485,0.245-1.003,0.418-1.537,0.512
				C238.951,374.152,238.382,374.209,237.811,374.229z"/>
			<path style="fill:#2C3E50;" d="M271.945,374.229c-1.116-0.013-2.219-0.245-3.246-0.683c-1.032-0.434-1.983-1.04-2.813-1.792
				c-0.79-0.802-1.402-1.762-1.796-2.817c-0.436-1.026-0.667-2.127-0.679-3.241c0.013-0.573,0.07-1.144,0.171-1.708
				c0.091-0.535,0.263-1.053,0.508-1.537c0.188-0.543,0.448-1.058,0.771-1.533c0.341-0.429,0.683-0.854,1.025-1.279
				c0.828-0.754,1.78-1.362,2.813-1.796c3.184-1.287,6.828-0.584,9.305,1.796c0.368,0.404,0.709,0.831,1.021,1.279
				c0.323,0.475,0.582,0.991,0.771,1.533c0.245,0.485,0.418,1.003,0.513,1.537c0.098,0.565,0.155,1.136,0.171,1.709
				c0.029,1.119-0.205,2.229-0.683,3.242c-0.414,1.044-1.022,1.999-1.792,2.817C276.366,373.311,274.203,374.194,271.945,374.229z"
				/>
		</g>
		<path style="fill:#E91E63;" d="M254.878,459.562c-33.746,0-49.875-37.775-50.542-39.383c-1.395-3.343-0.527-7.202,2.167-9.625
			c5.021-4.517,22.317-19.258,34.154-19.258c4.969-0.046,9.867,1.188,14.221,3.583c4.354-2.395,9.252-3.629,14.221-3.583
			c11.838,0,29.133,14.742,34.154,19.258c2.693,2.422,3.562,6.282,2.167,9.625C304.753,421.787,288.624,459.562,254.878,459.562z"/>
	</g>
	<g>
		<path d="M353.491,221.629c-31.925,0-58.241,27.527-70.985,43.725c-15.443-12.785-37.793-12.789-53.242-0.011
			c-12.748-16.199-39.059-43.714-70.977-43.714c-26.883,0.044-51.484,15.116-63.733,39.046c-0.533,1.133-0.809,2.369-0.808,3.621
			c0,45.379,21.158,93.867,80.546,93.867c18.089,1.04,35.712-5.972,48.142-19.154c18.866-21.204,16.922-52.417,16.422-57.835
			c0.225-3.47,6.788-8.344,17.024-8.344c10.301,0,16.894,4.937,17.04,8.412c-0.508,5.573-2.376,36.635,16.427,57.767
			c12.43,13.182,30.053,20.194,48.142,19.154c59.387,0,80.546-48.488,80.546-93.867c0.001-1.252-0.275-2.488-0.808-3.621
			C404.975,236.745,380.373,221.673,353.491,221.629z M209.682,327.662c-9.256,9.451-22.195,14.363-35.391,13.433
			c-55.633,0-63.079-50.637-63.462-74.712c9.716-17.065,27.821-27.627,47.458-27.688c31,0,58.004,37.179,63.688,45.542
			C223.323,299.728,218.951,315.177,209.682,327.662z M337.486,341.095c-13.166,0.926-26.077-3.959-35.333-13.367
			c-12.917-14.45-12.708-36.933-12.342-43.508c5.683-8.392,32.588-45.525,63.679-45.525c19.652-0.007,37.786,10.568,47.458,27.675
			C400.565,290.445,393.124,341.095,337.486,341.095z"/>
		<path d="M234.032,373.775c0.475,0.323,0.991,0.582,1.533,0.771c0.485,0.245,1.003,0.418,1.537,0.512
			c1.126,0.228,2.286,0.228,3.413,0c0.535-0.095,1.053-0.267,1.537-0.512c0.525-0.17,1.015-0.431,1.45-0.771
			c0.512-0.337,0.938-0.679,1.367-1.021c0.787-0.803,1.398-1.763,1.792-2.817c0.437-1.026,0.669-2.127,0.683-3.242
			c-0.015-0.573-0.072-1.144-0.171-1.708c-0.095-0.535-0.268-1.053-0.512-1.537c-0.188-0.543-0.448-1.058-0.771-1.533
			c-0.338-0.429-0.679-0.854-1.021-1.279c-0.429-0.341-0.854-0.683-1.367-1.025c-0.435-0.34-0.925-0.601-1.45-0.771
			c-0.484-0.246-1.002-0.417-1.537-0.508c-1.123-0.258-2.29-0.258-3.413,0c-0.535,0.091-1.053,0.263-1.537,0.508
			c-0.543,0.188-1.058,0.448-1.533,0.771c-0.429,0.341-0.854,0.683-1.279,1.025c-0.341,0.425-0.683,0.85-1.025,1.279
			c-0.323,0.475-0.582,0.991-0.771,1.533c-0.246,0.484-0.417,1.002-0.508,1.537c-0.1,0.564-0.158,1.135-0.171,1.708
			c0.012,1.115,0.243,2.216,0.679,3.242c0.414,1.045,1.023,2.001,1.796,2.817C233.178,373.095,233.603,373.437,234.032,373.775z"/>
		<path d="M269.699,374.545c1.027,0.438,2.13,0.67,3.246,0.683c2.259-0.034,4.422-0.918,6.059-2.475
			c0.77-0.817,1.378-1.773,1.792-2.817c0.478-1.012,0.712-2.123,0.683-3.242c-0.015-0.573-0.072-1.144-0.171-1.708
			c-0.095-0.535-0.268-1.053-0.512-1.537c-0.188-0.543-0.448-1.058-0.771-1.533c-0.312-0.448-0.653-0.876-1.021-1.279
			c-2.477-2.379-6.12-3.083-9.304-1.796c-1.033,0.434-1.985,1.041-2.813,1.796c-0.341,0.425-0.683,0.85-1.025,1.279
			c-0.323,0.475-0.582,0.991-0.771,1.533c-0.246,0.484-0.417,1.002-0.508,1.537c-0.1,0.564-0.157,1.136-0.171,1.709
			c0.012,1.115,0.243,2.216,0.679,3.242c0.394,1.055,1.006,2.015,1.796,2.817C267.716,373.506,268.667,374.111,269.699,374.545z"/>
		<path d="M162.011,204.562c0.296,0,29.733,0.25,44.1,21.8c1.677,2.57,4.605,4.041,7.668,3.853s5.789-2.005,7.14-4.76
			c1.351-2.755,1.119-6.023-0.608-8.56c-19.375-29.067-56.721-29.4-58.3-29.4c-4.713,0-8.533,3.821-8.533,8.533
			C153.478,200.742,157.298,204.562,162.011,204.562z"/>
		<path d="M298.536,230.162c2.856,0.004,5.525-1.423,7.108-3.8c14.179-21.267,43.542-21.791,44.121-21.8
			c4.713-0.006,8.529-3.831,8.523-8.544c-0.006-4.713-3.831-8.529-8.544-8.523c-1.579,0-38.925,0.333-58.3,29.4
			c-1.745,2.617-1.908,5.982-0.426,8.756S295.391,230.159,298.536,230.162z"/>
		<path d="M468.878,290.341c-3.088-0.594-6.245-0.751-9.377-0.468c29.231-81.91,16.905-165.251-33.352-223.478
			c-15.237-17.658-36.45-38.554-65.454-43.437c-14.742-2.272-29.726-2.495-44.529-0.662c-0.858,0.1-2.971,0.562-5.575,1.187
			c-2.154,0.517-6.65,1.6-9.221,1.996c-12.975-8.662-78.7-48.087-143.879-7.354C73.722,70.48,38.406,166.762,56.817,290.358
			c-4.609-0.907-9.35-0.911-13.961-0.013c-9.888,2.312-16.955,11.027-17.175,21.179c-1.813,21.046,10.275,39.858,22.817,57.333
			c3.048,4.248,6.307,8.341,9.767,12.261c-8.773,28.559,0.032,44.335,9.3,52.597c4.954,4.446,9.933,8.671,14.725,12.733
			c29.692,25.175,38.967,35.421,26.467,51.554c-1.995,2.574-2.351,6.059-0.917,8.983c1.434,2.924,4.406,4.777,7.663,4.776
			c28.073-1.819,54.311-14.585,73.067-35.553c3.442,1.915,6.669,3.663,9.62,5.257c6.209,2.935,12.084,6.533,17.521,10.729
			c10.988,10.598,25.048,17.447,40.166,19.567c15.118-2.12,29.178-8.969,40.166-19.567c5.437-4.197,11.311-7.794,17.521-10.729
			c17.405-9.054,34.068-19.468,49.834-31.146c13.368-10.025,28.856-31.712,43.083-55.085c0.68,0.657,1.395,1.276,2.142,1.856
			c3.721,2.484,8.089,3.822,12.563,3.85c12.625,0,26.721-10.733,42.075-32.087c12.538-17.471,24.625-36.284,22.821-57.262
			C485.878,301.409,478.795,292.66,468.878,290.341z M166.532,32.6c62.35-38.971,124.296,6.192,126.896,8.125
			c4.296,3.221,9.588,2.133,21.15-0.646c1.629-0.392,2.975-0.733,3.517-0.825c13.218-1.658,26.602-1.477,39.771,0.538
			c23.625,3.975,41.996,22.262,55.367,37.754c42.332,49.053,55.184,117.893,36.138,187.611
			c-5.814-36.626-28.715-68.298-61.676-85.294c-63.613-31.804-80.621-112.7-80.783-113.517c-0.665-3.296-3.203-5.894-6.483-6.637
			c-3.28-0.742-6.689,0.51-8.709,3.199c-0.496,0.658-50.183,65.846-131.383,82.088c-53.413,10.684-78.697,62.71-90.548,104.895
			C64.252,151.787,97.587,75.692,166.532,32.6z M42.69,312.916c0.4-5.15,2.967-5.712,3.75-5.883c4.544-0.609,9.169,0,13.401,1.764
			c0.122,0.598,0.307,1.182,0.554,1.74c1.155,2.502,16.512,35.586,35.973,69.585c-0.669,0.997-1.497,1.876-2.453,2.603
			c-6.292,4-17.775-4.654-31.554-23.821C51.686,344.029,41.374,328.229,42.69,312.916z M130.498,492.358
			c5.546-22.704-16.104-41.062-37.171-58.925c-4.675-3.967-9.529-8.079-14.383-12.438c-6.852-7.084-9.306-17.336-6.402-26.754
			c5.185,4.014,11.475,6.345,18.023,6.679c4.505-0.033,8.902-1.383,12.65-3.883c0.719-0.561,1.408-1.16,2.063-1.794
			c14.225,23.37,29.713,45.053,43.079,55.078c9.029,6.772,17.422,12.326,25.112,17.056
			C161.643,479.403,146.802,488.031,130.498,492.358L130.498,492.358z M353.157,436.67c-15.095,11.163-31.046,21.121-47.704,29.779
			c-7.727,3.598-14.947,8.197-21.475,13.679c-7.831,7.372-17.562,12.417-28.1,14.567c-10.538-2.15-20.269-7.194-28.1-14.566
			c-6.528-5.482-13.748-10.081-21.475-13.679c-16.658-8.659-32.609-18.616-47.704-29.78
			c-26.004-19.504-66.913-99.438-81.766-131.263c1.512-16.792,14.346-129.175,86.854-143.679
			c50.356-11.294,96.028-37.779,130.842-75.875c8.704,27.458,32.162,82.587,85.533,109.275
			c58.313,29.154,55.933,98.625,55.167,109.625C420.64,336.116,379.357,417.02,353.157,436.67z M449.399,358.9
			c-13.779,19.167-25.296,27.867-31.475,23.879c-0.988-0.738-1.845-1.638-2.534-2.66c19.461-33.997,34.817-67.081,35.972-69.582
			l0.023-0.085l0.044-0.069c0.233-0.532,0.421-1.083,0.652-1.617c4.157-1.753,8.708-2.356,13.178-1.746
			c0.842,0.183,3.408,0.746,3.817,5.962C470.382,328.229,460.07,344.029,449.399,358.9z"/>
		<path d="M334.657,395.366c-8.94,8.582-20.773,13.501-33.162,13.786c-6.952-5.913-21.185-16.857-31.396-16.857
			c-4.969-0.046-9.867,1.188-14.221,3.583c-4.354-2.395-9.252-3.629-14.221-3.583c-10.214,0-24.453,10.95-31.403,16.862
			c-12.426-0.201-24.303-5.152-33.193-13.837c-3.036-3.585-8.399-4.042-11.997-1.021c-3.598,3.02-4.078,8.381-1.074,11.992
			c11.554,11.856,27.164,18.905,43.698,19.731c5.591,10.54,21.267,34.54,48.19,34.54s42.599-24,48.19-34.54
			c16.534-0.826,32.144-7.874,43.698-19.731c2.999-3.621,2.504-8.986-1.108-11.997C343.045,391.284,337.678,391.763,334.657,395.366
			z M255.878,443.495c-16.212,0-27.167-15.092-31.991-23.458c5.159-4.699,11.199-8.328,17.771-10.675
			c2.793-0.111,5.527,0.823,7.667,2.621v-0.004c1.611,1.85,3.934,2.928,6.388,2.963c2.466-0.047,4.818-1.044,6.567-2.783
			c2.137-1.917,4.94-2.92,7.808-2.796c6.585,2.347,12.638,5.982,17.804,10.692C283.103,428.425,272.211,443.495,255.878,443.495z"/>
		<path d="M196.145,281.362h-34.133c-4.713,0-8.533,3.821-8.533,8.533c0,4.713,3.821,8.533,8.533,8.533h8.533
			c0,4.713,3.821,8.533,8.533,8.533c4.713,0,8.533-3.82,8.533-8.533h8.533c4.713,0,8.533-3.821,8.533-8.533
			C204.678,285.183,200.857,281.362,196.145,281.362z"/>
		<path d="M349.745,281.362h-34.133c-4.713,0-8.533,3.821-8.533,8.533c0,4.713,3.82,8.533,8.533,8.533h8.533
			c0,4.713,3.821,8.533,8.533,8.533c4.713,0,8.533-3.82,8.533-8.533h8.533c4.713,0,8.533-3.821,8.533-8.533
			C358.278,285.183,354.457,281.362,349.745,281.362z"/>
	</g>
</g>
<g>
</g>
<g>
</g>
<g>
</g>
<g>
</g>
<g>
</g>
<g>
</g>
<g>
</g>
<g>
</g>
<g>
</g>
<g>
</g>
<g>
</g>
<g>
</g>
<g>
</g>
<g>
</g>
<g>
</g>
</svg>
