<?xml version="1.0" encoding="iso-8859-1"?>
<!-- Generator: Adobe Illustrator 19.0.0, SVG Export Plug-In . SVG Version: 6.00 Build 0)  -->
<svg version="1.1" id="Capa_1" xmlns="http://www.w3.org/2000/svg" xmlns:xlink="http://www.w3.org/1999/xlink" x="0px" y="0px"
	 viewBox="0 0 512.025 512.025" style="enable-background:new 0 0 512.025 512.025;" xml:space="preserve">
<g transform="translate(0 -1)">
	<g transform="translate(1 1)">
		<path style="fill:#4E342E;" d="M93.476,295.022c0.085,1.109,0.085,2.304,0.256,3.584l-0.853,0.085H65.572
			c-8.931-0.521-15.779-8.131-15.36-17.067v-51.2c-0.004-3.302,0.881-6.544,2.56-9.387c2.596-4.655,7.471-7.58,12.8-7.68h23.125
			l6.315,0.512c-1.28,13.995-2.048,28.075-2.133,42.155v25.6c0,0,0,1.621,0.085,4.523c0,0.427,0.085,0.939,0.085,1.365
			c0,0.939,0.085,2.048,0.171,3.328c-0.014,0.315,0.015,0.631,0.085,0.939C93.391,292.804,93.391,293.913,93.476,295.022z"/>
		<path style="fill:#59474E;" d="M92.963,264.558h-17.15c-4.713,0-8.533-3.821-8.533-8.533c0-4.713,3.821-8.533,8.533-8.533h17.15
			c4.713,0,8.533,3.821,8.533,8.533C101.496,260.738,97.675,264.558,92.963,264.558z"/>
		<path style="fill:#4E342E;" d="M459.813,230.425v51.2c0.419,8.936-6.43,16.546-15.36,17.067h-27.307l-0.853-0.085
			c0.341-3.669,0.512-6.827,0.597-9.387l0.085-2.304c0.171-3.413,0.171-5.291,0.171-5.291v-25.6
			c-0.085-14.08-0.853-28.16-2.133-42.155l6.315-0.512h23.125c5.329,0.1,10.204,3.025,12.8,7.68
			C458.932,223.881,459.816,227.123,459.813,230.425z"/>
		<path style="fill:#59474E;" d="M434.212,264.558h-17.15c-4.713,0-8.533-3.821-8.533-8.533c0-4.713,3.821-8.533,8.533-8.533h17.15
			c4.713,0,8.533,3.821,8.533,8.533C442.746,260.738,438.925,264.558,434.212,264.558z"/>
		<path style="fill:#2C2F38;" d="M457.253,221.038c-2.596-4.655-7.471-7.58-12.8-7.68h-23.125l-6.315,0.512
			c0.085,0.853,0.171,1.707,0.171,2.56c1.194,13.141,1.877,26.368,1.963,39.595v25.6c0,0,0,1.877-0.171,5.291l-0.085,2.304
			c-0.085,2.56-0.256,5.717-0.597,9.387c-2.851,38.463-11.809,76.227-26.539,111.872v0.085c-0.256,0.512-0.512,1.109-0.768,1.621
			c-30.805,70.229-97.536,99.925-158.72,89.173c-49.252-9.272-90.423-42.923-109.312-89.344c-0.256-0.512-0.427-1.024-0.683-1.536
			c-14.729-35.645-23.688-73.409-26.539-111.872c-0.171-1.28-0.171-2.475-0.256-3.584c-0.085-1.109-0.085-2.219-0.171-3.243
			c-0.071-0.308-0.099-0.623-0.085-0.939c-0.085-1.28-0.171-2.389-0.171-3.328c0-0.427-0.085-0.939-0.085-1.365
			c-0.085-2.901-0.085-4.523-0.085-4.523v-25.6c0.085-14.08,0.853-28.16,2.133-42.155l-6.315-0.512H65.572
			c-5.329,0.1-10.204,3.025-12.8,7.68c-0.341-2.645-0.768-5.291-1.024-7.936c-8.875-69.888-3.157-145.408,64.597-183.637
			c29.44-16.64,65.365-20.224,100.096-20.821c9.301-0.085,18.773-0.171,28.416,0h10.155c45.141-0.171,98.048-2.133,138.667,20.821
			C463.994,69.145,467.493,149.017,457.253,221.038z"/>
		<path style="fill:#607D8B;" d="M408.783,213.102c-0.171,1.28-0.341,2.645-0.512,3.925c-0.171,1.365-0.341,2.645-0.512,3.925
			c-2.648-4.592-7.5-7.471-12.8-7.595h-23.125l-6.315,0.512c1.28,13.995,2.048,28.075,2.133,42.155v25.6c0,0,0,1.877-0.171,5.291
			l-0.085,2.304c-0.085,2.56-0.256,5.717-0.597,9.387c-2.851,38.463-11.809,76.227-26.539,111.872v0.085
			c-0.256,0.512-0.512,1.109-0.768,1.621c-18.936,46.32-60.054,79.889-109.227,89.173c-49.252-9.272-90.423-42.923-109.312-89.344
			c-0.256-0.512-0.427-1.024-0.683-1.536c-14.729-35.645-23.688-73.409-26.539-111.872c-0.171-1.28-0.171-2.475-0.256-3.584
			c-0.085-1.109-0.085-2.219-0.171-3.243c-0.071-0.308-0.099-0.623-0.085-0.939c-0.085-1.28-0.171-2.389-0.171-3.328
			c0-0.427-0.085-0.939-0.085-1.365c-0.085-2.901-0.085-4.523-0.085-4.523v-25.6c0.085-14.08,0.853-28.16,2.133-42.155l-6.315-0.512
			H65.572c-5.329,0.1-10.204,3.025-12.8,7.68c-0.341-2.645-0.768-5.291-1.024-7.936c-8.875-69.888-3.157-145.408,64.597-183.637
			c29.44-16.64,65.365-20.224,100.096-20.821c9.301-0.085,18.773-0.171,28.416,0c34.475,0.683,70.059,4.267,99.328,20.821
			C411.94,67.694,417.658,143.214,408.783,213.102z"/>
		<g>
			<path style="fill:#4E342E;" d="M229.412,430.19c4.278,0.006,8.552,0.262,12.8,0.768c-16.525,2.01-32.796,5.728-48.555,11.093
				c-7.509,2.458-15.649,2.155-22.955-0.853C189.636,434.701,209.412,430.993,229.412,430.19z"/>
			<path style="fill:#4E342E;" d="M417.146,256.025v25.6c0,0,0,1.877-0.171,5.291l-0.085,2.304
				c-2.357,34.447-11.583,68.075-27.136,98.901v0.085c-0.256,0.512-0.512,0.939-0.768,1.451
				c-10.188,19.141-24.82,35.557-42.667,47.872c-8.693,6.194-19.818,7.874-29.952,4.523c-0.768-0.256-1.621-0.512-2.475-0.768
				c2.407-0.997,4.696-2.256,6.827-3.755c17.847-12.315,32.478-28.732,42.667-47.872c0.256-0.512,0.512-0.939,0.768-1.451v-0.085
				c15.552-30.827,24.779-64.454,27.136-98.901l0.085-2.304c0.171-3.413,0.171-5.291,0.171-5.291v-25.6
				c-0.085-14.08-0.853-28.16-2.133-42.155c-0.427-5.547-1.024-11.008-1.707-16.555c-2.053-28.008-8.893-55.456-20.224-81.152
				c-4.58-9.862-11.783-18.275-20.821-24.32c-3.841-2.348-7.972-4.184-12.288-5.461c12.843-3.47,26.548-1.495,37.888,5.461
				c9.039,6.045,16.242,14.458,20.821,24.32c11.331,25.696,18.171,53.144,20.224,81.152c0.683,5.547,1.28,11.008,1.707,16.555
				C416.293,227.865,417.061,241.945,417.146,256.025z"/>
		</g>
		<g>
			<path style="fill:#795548;" d="M391.546,256.025v25.6c0,0,0,1.877-0.171,5.291l-0.085,2.304
				c-2.357,34.447-11.583,68.075-27.136,98.901v0.085c-0.256,0.512-0.512,0.939-0.768,1.451
				c-10.188,19.141-24.82,35.557-42.667,47.872c-2.131,1.499-4.42,2.758-6.827,3.755h-0.085
				c-18.968-6.486-38.767-10.221-58.795-11.093c-4.278,0.006-8.552,0.262-12.8,0.768c-4.248-0.506-8.522-0.762-12.8-0.768
				c-20,0.803-39.777,4.511-58.709,11.008h-0.085c-2.387-1.004-4.673-2.233-6.827-3.67c-17.944-12.326-32.64-28.809-42.837-48.043
				c-0.256-0.512-0.427-0.939-0.683-1.365c-15.164-30.056-24.323-62.78-26.965-96.341c-0.071-0.308-0.099-0.623-0.085-0.939
				c-0.085-1.28-0.171-2.389-0.171-3.328c0-0.427-0.085-0.939-0.085-1.365c-0.085-2.901-0.085-4.522-0.085-4.522v-25.6
				c0.085-14.08,0.853-28.16,2.133-42.155c0.427-5.547,1.024-11.008,1.707-16.555c2.053-28.008,8.893-55.456,20.224-81.152
				c4.58-9.862,11.783-18.275,20.821-24.32c3.841-2.348,7.972-4.184,12.288-5.461c31.147-8.619,61.269,19.115,92.16,25.941
				c4.191,1.015,8.488,1.531,12.8,1.536c26.795,0,52.907-21.333,79.36-27.477c4.316,1.278,8.447,3.114,12.288,5.461
				c9.039,6.045,16.242,14.458,20.821,24.32c11.331,25.696,18.171,53.144,20.224,81.152c0.683,5.547,1.28,11.008,1.707,16.555
				C390.693,227.865,391.461,241.945,391.546,256.025z"/>
			<path style="fill:#795548;" d="M313.807,441.284c-7.337,3.022-15.518,3.295-23.04,0.768
				c-15.781-5.285-32.044-9.001-48.555-11.093c4.248-0.506,8.522-0.762,12.8-0.768C275.04,431.062,294.839,434.798,313.807,441.284z
				"/>
		</g>
		<g>
			<path style="fill:#2C2F38;" d="M161.146,153.625h59.733c9.426,0,17.067,7.641,17.067,17.067l0,0
				c0,9.426-7.641,17.067-17.067,17.067h-59.733c-9.426,0-17.067-7.641-17.067-17.067l0,0
				C144.079,161.266,151.72,153.625,161.146,153.625z"/>
			<path style="fill:#2C2F38;" d="M289.146,153.625h59.733c9.426,0,17.067,7.641,17.067,17.067l0,0
				c0,9.426-7.641,17.067-17.067,17.067h-59.733c-9.426,0-17.067-7.641-17.067-17.067l0,0
				C272.079,161.266,279.72,153.625,289.146,153.625z"/>
		</g>
		<g>
			<path style="fill:#00838F;" d="M237.946,238.958v34.133c0.002,9.053-3.593,17.737-9.995,24.139
				c-6.402,6.402-15.085,9.997-24.139,9.995h-42.667c-9.053,0.002-17.737-3.593-24.139-9.995
				c-6.402-6.402-9.997-15.085-9.995-24.139v-51.2h93.867C230.293,221.919,237.918,229.544,237.946,238.958z"/>
			<path style="fill:#00838F;" d="M383.012,221.892v51.2c0.002,9.053-3.593,17.737-9.995,24.139
				c-6.402,6.402-15.085,9.997-24.139,9.995h-42.667c-9.053,0.002-17.737-3.593-24.139-9.995
				c-6.402-6.402-9.997-15.085-9.995-24.139v-34.133c0.027-9.414,7.652-17.039,17.067-17.067H383.012z"/>
		</g>
		<g>
			<path style="fill:#00BCD4;" d="M212.346,238.958v34.133c0.002,9.053-3.593,17.737-9.995,24.139
				c-6.402,6.402-15.085,9.997-24.139,9.995h-17.067c-9.053,0.002-17.737-3.593-24.139-9.995
				c-6.402-6.402-9.997-15.085-9.995-24.139v-51.2h68.267C204.693,221.919,212.318,229.544,212.346,238.958z"/>
			<path style="fill:#00BCD4;" d="M357.412,221.892v51.2c0.003,9.053-3.593,17.737-9.995,24.139
				c-6.402,6.402-15.085,9.997-24.139,9.995h-17.067c-9.053,0.002-17.737-3.593-24.139-9.995
				c-6.402-6.402-9.997-15.085-9.995-24.139v-34.133c0.027-9.414,7.652-17.039,17.067-17.067H357.412z"/>
		</g>
		<g>
			<path style="fill:#2C2F38;" d="M203.812,264.558h-42.667c-4.713,0-8.533-3.821-8.533-8.533c0-4.713,3.821-8.533,8.533-8.533
				h42.667c4.713,0,8.533,3.821,8.533,8.533C212.346,260.738,208.525,264.558,203.812,264.558z"/>
			<path style="fill:#2C2F38;" d="M186.746,273.092c-4.713,0-8.533-3.82-8.533-8.533v-8.533c0-4.713,3.821-8.533,8.533-8.533
				c4.713,0,8.533,3.821,8.533,8.533v8.533C195.279,269.271,191.459,273.092,186.746,273.092z"/>
			<path style="fill:#2C2F38;" d="M348.879,264.558h-42.667c-4.713,0-8.533-3.821-8.533-8.533c0-4.713,3.82-8.533,8.533-8.533
				h42.667c4.713,0,8.533,3.821,8.533,8.533C357.412,260.738,353.592,264.558,348.879,264.558z"/>
			<path style="fill:#2C2F38;" d="M323.279,273.092c-4.713,0-8.533-3.82-8.533-8.533v-8.533c0-4.713,3.82-8.533,8.533-8.533
				s8.533,3.821,8.533,8.533v8.533C331.813,269.271,327.992,273.092,323.279,273.092z"/>
		</g>
	</g>
	<g>
		<path d="M398.879,23.038C358.959,0.471,309.004,0.796,264.971,1.058l-8.958,0.05l-8.958-0.05
			c-44.058-0.246-93.988-0.583-133.9,21.975c-59.449,33.548-81.72,98.22-68.155,197.568c-1.517,3.407-2.307,7.094-2.32,10.823v51.2
			c-0.443,13.651,10.23,25.094,23.879,25.6h20.317c3.48,36.795,12.484,72.855,26.708,106.967l0.533,1.229
			c26.005,59.525,80.308,96.542,141.725,96.604h0.154c61.387,0,115.725-36.912,141.838-96.363l0.75-1.721
			c0.1-0.229,0.188-0.462,0.267-0.704c14.009-33.827,22.877-69.56,26.307-106.013h20.309c13.649-0.507,24.322-11.949,23.879-25.6
			v-51.2c-0.013-3.73-0.803-7.416-2.32-10.823C480.591,121.253,458.32,56.582,398.879,23.038z M121.546,37.896
			c35.962-20.325,83.508-20.021,125.4-19.771l9.033,0.05h0.067l9.033-0.05c41.912-0.25,89.438-0.558,125.408,19.775
			c51.145,28.861,70.671,82.756,61.057,168.87c-1.972-0.596-4.018-0.914-6.078-0.945h-21.8c-0.3-2.843-0.568-5.664-0.913-8.538
			c-2.176-28.978-9.3-57.369-21.063-83.942c-5.244-11.34-13.563-20.981-24.013-27.829c-27.925-17.017-54.938-4.242-78.771,7.033
			c-13.158,7.587-27.781,12.283-42.895,13.775c-15.115-1.492-29.738-6.188-42.896-13.775c-23.821-11.267-50.808-24.054-78.771-7.033
			c-10.451,6.849-18.77,16.492-24.013,27.833c-11.764,26.572-18.887,54.963-21.062,83.942c-0.349,2.903-0.495,5.661-0.798,8.533
			H66.558c-2.06,0.03-4.106,0.348-6.078,0.945C50.867,120.656,70.393,66.76,121.546,37.896z M129.287,386.067l-0.454-0.879
			c-16.025-31.913-25.034-66.887-26.421-102.571v-25.179c0.007-0.145,0.083-0.266,0.083-0.412c0-0.131-0.069-0.24-0.074-0.369
			c0.187-19.165,1.453-38.304,3.791-57.327c1.921-27.01,8.468-53.49,19.354-78.283c3.862-8.468,9.971-15.715,17.662-20.954
			c20.079-12.238,39.783-2.904,62.588,7.887c15.397,8.762,32.535,14.024,50.196,15.413c17.661-1.389,34.799-6.651,50.196-15.412
			c22.817-10.796,42.508-20.117,62.588-7.887c7.691,5.239,13.8,12.484,17.662,20.95c10.886,24.794,17.432,51.273,19.354,78.283
			c2.338,19.023,3.604,38.162,3.792,57.327c-0.006,0.131-0.076,0.241-0.076,0.373c0,0.146,0.076,0.268,0.083,0.413v25.179
			c-1.387,35.684-10.395,70.658-26.421,102.571c-0.108,0.208-0.208,0.425-0.3,0.642l-0.446,0.8
			c-9.512,17.962-23.224,33.36-39.967,44.883c-6.501,4.647-14.821,5.938-22.425,3.479c-20.615-7.275-42.199-11.44-64.042-12.358
			c-21.844,0.903-43.431,5.051-64.054,12.308c-7.58,2.442-15.868,1.158-22.354-3.462
			C152.662,419.857,138.82,404.266,129.287,386.067z M66.558,291.158c-4.18-0.578-7.174-4.329-6.813-8.533v-51.2
			c-0.362-4.204,2.633-7.955,6.813-8.533h20.319c-0.657,8.761-1.021,17.251-1.22,25.6h-8.844c-4.713,0-8.533,3.821-8.533,8.533
			c0,4.713,3.821,8.533,8.533,8.533h8.533v17.067c0,0.542,0.022,3.601,0.258,8.533H66.558z M255.996,495.958h-0.138
			c-48.19-0.404-92.563-26.297-116.623-68.053c6.325,6.503,13.245,12.401,20.669,17.615c10.875,7.672,24.735,9.759,37.388,5.629
			c18.923-6.613,38.699-10.469,58.721-11.45c20.025,0.923,39.803,4.799,58.696,11.5c4.221,1.396,8.638,2.109,13.083,2.113
			c8.746-0.035,17.271-2.752,24.425-7.783c7.374-5.209,14.252-11.086,20.547-17.557
			C348.648,469.734,304.219,495.601,255.996,495.958z M452.279,282.625c0.362,4.204-2.633,7.955-6.813,8.533h-19.044
			c0.234-4.93,0.257-7.991,0.257-8.533v-17.067h8.533c4.713,0,8.533-3.821,8.533-8.533c0-4.713-3.82-8.533-8.533-8.533h-8.713
			c-0.201-8.32-0.628-16.853-1.282-25.6h20.249c4.18,0.578,7.174,4.329,6.813,8.533V282.625z"/>
		<path d="M290.146,367.958h-68.267c-4.713,0-8.533,3.821-8.533,8.533c0,4.713,3.821,8.533,8.533,8.533h68.267
			c4.713,0,8.533-3.821,8.533-8.533C298.679,371.779,294.859,367.958,290.146,367.958z"/>
		<path d="M273.079,393.558h-34.133c-4.713,0-8.533,3.82-8.533,8.533s3.82,8.533,8.533,8.533h34.133
			c4.713,0,8.533-3.821,8.533-8.533S277.792,393.558,273.079,393.558z"/>
		<path d="M273.079,342.358c4.713,0,8.533-3.82,8.533-8.533s-3.82-8.533-8.533-8.533h-34.133c-4.713,0-8.533,3.82-8.533,8.533
			s3.82,8.533,8.533,8.533H273.079z"/>
		<path d="M204.812,316.758c23.553-0.028,42.639-19.114,42.667-42.667v-25.6h17.067v25.6c0.028,23.553,19.114,42.639,42.667,42.667
			h42.667c23.553-0.028,42.639-19.114,42.667-42.667v-51.2c0-4.713-3.821-8.533-8.533-8.533h-93.867
			c-10.813,0.033-20.435,6.868-24.028,17.067h-20.212c-3.592-10.199-13.214-17.033-24.028-17.067h-93.867
			c-4.713,0-8.533,3.821-8.533,8.533v51.2c0.028,23.553,19.114,42.639,42.667,42.667H204.812z M290.146,231.425h85.333v42.667
			c-0.015,14.132-11.468,25.585-25.6,25.6h-42.667c-14.132-0.015-25.585-11.468-25.6-25.6v-34.133
			C281.619,235.248,285.436,231.431,290.146,231.425z M136.546,274.092v-42.667h85.333c4.71,0.006,8.527,3.823,8.533,8.533v34.133
			c-0.015,14.132-11.468,25.585-25.6,25.6h-42.667C148.014,299.676,136.561,288.224,136.546,274.092z"/>
		<path d="M179.212,265.558c0,4.713,3.821,8.533,8.533,8.533c4.713,0,8.533-3.82,8.533-8.533h8.533c4.713,0,8.533-3.821,8.533-8.533
			c0-4.713-3.82-8.533-8.533-8.533h-42.667c-4.713,0-8.533,3.821-8.533,8.533c0,4.713,3.821,8.533,8.533,8.533H179.212z"/>
		<path d="M307.212,265.558h8.533c0,4.713,3.82,8.533,8.533,8.533s8.533-3.82,8.533-8.533h17.067c4.713,0,8.533-3.821,8.533-8.533
			c0-4.713-3.82-8.533-8.533-8.533h-42.667c-4.713,0-8.533,3.821-8.533,8.533C298.679,261.738,302.5,265.558,307.212,265.558z"/>
		<path d="M162.146,197.292h59.733c14.138,0,25.6-11.462,25.6-25.6c0-14.138-11.462-25.6-25.6-25.6h-59.733
			c-14.138,0-25.6,11.462-25.6,25.6C136.546,185.83,148.007,197.292,162.146,197.292z M162.146,163.158h59.733
			c4.713,0,8.533,3.821,8.533,8.533c0,4.713-3.821,8.533-8.533,8.533h-59.733c-4.713,0-8.533-3.821-8.533-8.533
			C153.612,166.979,157.433,163.158,162.146,163.158z"/>
		<path d="M290.146,197.292h59.733c14.138,0,25.6-11.462,25.6-25.6c0-14.138-11.462-25.6-25.6-25.6h-59.733
			c-14.138,0-25.6,11.462-25.6,25.6C264.546,185.83,276.007,197.292,290.146,197.292z M290.146,163.158h59.733
			c4.713,0,8.533,3.821,8.533,8.533c0,4.713-3.82,8.533-8.533,8.533h-59.733c-4.713,0-8.533-3.821-8.533-8.533
			C281.612,166.979,285.433,163.158,290.146,163.158z"/>
	</g>
</g>
<g>
</g>
<g>
</g>
<g>
</g>
<g>
</g>
<g>
</g>
<g>
</g>
<g>
</g>
<g>
</g>
<g>
</g>
<g>
</g>
<g>
</g>
<g>
</g>
<g>
</g>
<g>
</g>
<g>
</g>
</svg>
