<?xml version="1.0" encoding="iso-8859-1"?>
<!-- Generator: Adobe Illustrator 19.0.0, SVG Export Plug-In . SVG Version: 6.00 Build 0)  -->
<svg version="1.1" id="Capa_1" xmlns="http://www.w3.org/2000/svg" xmlns:xlink="http://www.w3.org/1999/xlink" x="0px" y="0px"
	 viewBox="0 0 511.867 511.867" style="enable-background:new 0 0 511.867 511.867;" xml:space="preserve">
<g>
	<g transform="translate(1 1)">
		<g>
			<path style="fill:#BFB186;" d="M109.867,195.125v85.333H75.733c-9.414-0.028-17.039-7.652-17.067-17.067v-51.2
				c0.028-9.414,7.652-17.039,17.067-17.067H109.867z"/>
			<path style="fill:#BFB186;" d="M451.2,212.192v51.2c-0.028,9.414-7.652,17.039-17.067,17.067H400v-85.333h34.133
				C443.548,195.153,451.173,202.777,451.2,212.192z"/>
			<path style="fill:#BFB186;" d="M407.85,339.424c-5.109-12.281-7.775-25.44-7.85-38.741V195.125
				c-26.228,0.578-52.317-3.973-76.8-13.397c-58.709-24.064-68.267-71.936-68.267-71.936c0,12.971-8.619,20.992-21.675,25.941
				c-1.698,0.7-3.436,1.298-5.205,1.792c-21.248,6.4-51.115,6.4-75.52,6.4c-13.584-0.576-26.404,6.292-33.45,17.92
				c-5.762,10.167-8.927,21.598-9.217,33.28v105.557c-0.075,13.301-2.741,26.46-7.85,38.741
				c-16.129,39.509-37.463,139.264,142.763,162.219c6.737,0.939,13.571,0.939,20.308,0c34.074-3.206,67.26-12.696,97.877-27.989
				C435.328,434.229,420.139,369.461,407.85,339.424z"/>
		</g>
		<path style="fill:#FFE0B2;" d="M383.36,356.49c-5.11-12.281-7.777-25.44-7.851-38.741V212.192
			c-26.228,0.578-52.317-3.973-76.8-13.397c-29.633-11.011-53.346-33.858-65.451-63.061c-1.171-2.879-2.113-5.847-2.816-8.875
			c0.047,3.693-0.771,7.346-2.389,10.667c-11.435,23.467-62.379,23.467-100.011,23.467c-3.008-0.037-6.012,0.249-8.959,0.853
			c-5.762,10.167-8.927,21.598-9.217,33.28v105.557c-0.075,13.301-2.741,26.46-7.85,38.741
			c-16.129,39.509-37.463,139.264,142.763,162.219c6.737,0.939,13.571,0.939,20.308,0c34.074-3.206,67.26-12.696,97.877-27.989
			C406.827,434.656,393.941,382.517,383.36,356.49z"/>
		<path style="fill:#606060;" d="M357.248,415.285c-0.683-74.837-52.224-100.523-70.4-107.264h-0.085
			c-0.512,1.208-1.111,2.377-1.792,3.499c-6.135,9.577-16.619,15.49-27.989,15.787c-1.363,0.114-2.733,0.114-4.096,0
			c-11.37-0.296-21.854-6.209-27.989-15.787c-0.681-1.121-1.28-2.291-1.792-3.499h-0.085c-18.176,6.741-69.717,32.427-70.4,107.264
			c-0.073,0.566-0.102,1.136-0.085,1.707c0.028,9.414,7.652,17.039,17.067,17.067c4.611,0.019,9.025-1.864,12.202-5.205
			c3.108-3.167,4.854-7.424,4.865-11.861c0.027,6.562,3.807,12.531,9.728,15.36c4.628,2.276,10.05,2.276,14.677,0h0.171
			c5.798-2.94,9.481-8.859,9.557-15.36c0.011,4.437,1.757,8.694,4.865,11.861c3.177,3.341,7.591,5.225,12.202,5.205
			c0.799-0.011,1.597-0.068,2.389-0.171h0.085c6.85-0.99,12.398-6.066,13.994-12.8h0.085v-0.171c0-0.085,0.085-0.171,0.085-0.256
			c0-0.171,0.085-0.256,0.085-0.427v-0.171c0.077-0.128,0.108-0.279,0.085-0.427c0.068-0.1,0.098-0.221,0.085-0.341
			c0.105-0.39,0.162-0.791,0.171-1.195c0.009,0.404,0.066,0.805,0.171,1.195c-0.013,0.12,0.018,0.241,0.085,0.341
			c-0.022,0.148,0.008,0.299,0.085,0.427v0.171c0.085,0.341,0.085,0.597,0.171,0.853c0.085,0.341,0.171,0.683,0.256,0.939
			c1.93,6.259,7.266,10.866,13.74,11.861h0.256c0.764,0.099,1.533,0.156,2.304,0.171c4.611,0.019,9.025-1.864,12.202-5.205
			c2.929-3.009,4.659-6.984,4.865-11.179c0.363,6.263,4.039,11.857,9.643,14.677h0.171c2.249,1.134,4.735,1.719,7.253,1.707
			c2.546,0.012,5.059-0.572,7.339-1.707c5.867-2.801,9.638-8.688,9.728-15.189c0.051,4.379,1.794,8.568,4.865,11.691
			c3.177,3.341,7.591,5.225,12.202,5.205c9.414-0.028,17.039-7.652,17.067-17.067C357.35,416.421,357.321,415.851,357.248,415.285z"
			/>
		<g>
			<path style="fill:#9E9E9E;" d="M331.733,416.992c0.08,4.245-1.206,8.403-3.669,11.861c-3.07-3.122-4.814-7.312-4.865-11.691
				c-0.09,6.501-3.861,12.388-9.728,15.189c-2.279,1.135-4.793,1.719-7.339,1.707c-2.519,0.013-5.004-0.572-7.253-1.707h-0.171
				c-5.604-2.82-9.279-8.414-9.643-14.677c-0.205,4.194-1.935,8.17-4.865,11.179c-3.177,3.341-7.591,5.225-12.202,5.205
				c-0.771-0.014-1.54-0.071-2.304-0.171h-0.256c-6.473-0.996-11.808-5.603-13.737-11.861c-0.085-0.256-0.171-0.597-0.256-0.939
				c-0.085-0.256-0.085-0.512-0.171-0.853v-0.171c-0.077-0.128-0.108-0.279-0.085-0.427c-0.068-0.1-0.098-0.221-0.085-0.341
				c-0.105-0.39-0.162-0.791-0.171-1.195c-0.009,0.404-0.066,0.805-0.171,1.195c0.013,0.12-0.018,0.241-0.085,0.341
				c0.022,0.148-0.008,0.299-0.085,0.427v0.171c0,0.171-0.085,0.256-0.085,0.427c0,0.085-0.085,0.171-0.085,0.256v0.171h-0.085
				c-1.596,6.735-7.145,11.811-13.996,12.8h-0.085c-0.793,0.102-1.59,0.159-2.389,0.171c-4.611,0.019-9.025-1.864-12.202-5.205
				c-3.108-3.167-4.854-7.424-4.865-11.861c-0.076,6.501-3.759,12.42-9.557,15.36h-0.171c-4.628,2.276-10.05,2.276-14.677,0
				c-5.921-2.829-9.701-8.798-9.728-15.36c-0.011,4.437-1.757,8.694-4.865,11.861c-2.462-3.458-3.748-7.617-3.669-11.861
				c-0.016-0.57,0.012-1.141,0.085-1.707c0.427-65.451,30.123-93.355,46.677-103.765c6.135,9.577,16.619,15.49,27.989,15.787
				c1.363,0.114,2.733,0.114,4.096,0c11.37-0.296,21.854-6.209,27.989-15.787c9.425,7.061,17.888,15.323,25.173,24.576
				c15.022,23.61,22.52,51.224,21.504,79.189C331.721,415.851,331.75,416.421,331.733,416.992z"/>
			<path style="fill:#9E9E9E;" d="M196.395,432.352c-1.605,1.11-3.51,1.705-5.461,1.707c-3.714-0.129-7.128-2.075-9.131-5.205
				c3.108-3.167,4.854-7.424,4.865-11.861C186.694,423.554,190.473,429.522,196.395,432.352z"/>
			<path style="fill:#9E9E9E;" d="M225.665,428.853c-2.003,3.13-5.417,5.076-9.131,5.205c-1.898-0.003-3.748-0.6-5.291-1.707
				c5.798-2.94,9.481-8.859,9.557-15.36C220.811,421.429,222.557,425.686,225.665,428.853z"/>
			<path style="fill:#9E9E9E;" d="M252.885,327.306c-11.37-0.296-21.854-6.209-27.989-15.787c1.972-1.296,4.024-2.464,6.144-3.499
				c1.644,5.439,4.849,10.275,9.216,13.909C243.822,324.964,248.227,326.84,252.885,327.306z"/>
			<path style="fill:#9E9E9E;" d="M254.335,421.088c-0.386,6.71-5.528,12.176-12.202,12.971c-0.601-0.014-1.199-0.071-1.792-0.171
				C247.191,432.898,252.74,427.822,254.335,421.088z"/>
			<path style="fill:#9E9E9E;" d="M269.44,433.888c-0.563,0.103-1.134,0.161-1.707,0.171c-6.344-0.676-11.356-5.688-12.031-12.032
				C257.632,428.285,262.967,432.891,269.44,433.888z"/>
			<path style="fill:#9E9E9E;" d="M284.971,311.52c-6.135,9.577-16.619,15.49-27.989,15.787
				c10.496-1.454,19.101-9.051,21.846-19.285L284.971,311.52z"/>
			<path style="fill:#9E9E9E;" d="M298.709,432.352c-1.574,1.108-3.451,1.704-5.376,1.707c-3.714-0.129-7.128-2.075-9.131-5.205
				c2.929-3.009,4.659-6.984,4.865-11.179C289.43,423.937,293.105,429.532,298.709,432.352z"/>
			<path style="fill:#9E9E9E;" d="M328.065,428.853c-2.003,3.13-5.417,5.076-9.131,5.205c-1.951-0.002-3.856-0.597-5.461-1.707
				c5.867-2.801,9.638-8.688,9.728-15.189C323.251,421.541,324.994,425.731,328.065,428.853z"/>
		</g>
		<g>
			<path style="fill:#2FA8CC;" d="M212.267,220.725v17.067c0,9.426-7.641,17.067-17.067,17.067c-9.426,0-17.067-7.641-17.067-17.067
				v-17.067H212.267z"/>
			<path style="fill:#2FA8CC;" d="M331.733,220.725v17.067c0,9.426-7.641,17.067-17.067,17.067c-9.426,0-17.067-7.641-17.067-17.067
				v-17.067H331.733z"/>
		</g>
		<path style="fill:#606060;" d="M408.448,79.072C377.387,23.349,305.877-7.286,247.083,14.389
			c-1.713,0.594-3.394,1.277-5.035,2.048c-9.624,3.959-18.781,8.967-27.307,14.933c-1.707,1.195-9.644,9.301-11.521,9.131
			c-7.595-0.84-15.252-0.954-22.868-0.341c-11.419,0.788-22.632,3.44-33.195,7.851c-0.506,0.176-0.993,0.405-1.451,0.683
			c-45.312,20.053-64.597,72.533-61.013,122.112c0.57,8.192,1.797,16.325,3.669,24.32h21.504c0,0,0-28.245,17.494-42.752
			c7.1-5.756,16.038-8.755,25.173-8.448c17.287,0.298,34.578-0.328,51.798-1.877c8.146-0.788,16.202-2.331,24.063-4.608
			c15.701-4.779,26.539-13.141,26.539-27.648c0,0,9.557,47.872,68.267,71.936c20.094,7.898,41.396,12.285,62.976,12.971
			c4.437,0.341,9.045,0.427,13.824,0.427h17.835c1.023-3.243,1.877-6.485,2.729-9.813
			C430.39,149.662,426.048,111.594,408.448,79.072z"/>
		<path style="fill:#9E9E9E;" d="M386.431,193.845c-0.084,0.256-0.17,0.597-0.255,0.853c-21.58-0.686-42.882-5.073-62.976-12.971
			c-58.709-24.064-68.267-71.936-68.267-71.936c0,14.507-10.837,22.869-26.539,27.648c-7.861,2.277-15.917,3.82-24.063,4.608
			c-17.22,1.549-34.511,2.176-51.798,1.877c-9.135-0.307-18.073,2.692-25.173,8.448c-17.494,14.507-17.494,42.752-17.494,42.752
			H88.363c-1.872-7.995-3.099-16.128-3.669-24.32c-3.585-49.579,15.701-102.059,61.013-122.112c0.458-0.278,0.944-0.507,1.451-0.683
			c10.562-4.411,21.775-7.063,33.195-7.851c7.616-0.613,15.274-0.499,22.869,0.341c1.877,0.171,9.815-7.936,11.521-9.131
			c8.525-5.967,17.683-10.975,27.306-14.933c54.067-3.504,105.401,24.118,132.267,71.168
			C391.915,120.127,396.256,158.195,386.431,193.845z"/>
	</g>
	<g>
		<path d="M435.133,187.592h-5.124c10.149-37.526,5.454-77.519-13.109-111.675c-33.617-60.3-110.683-91.058-171.767-68.533
			c-12.141,4.521-23.658,10.567-34.275,17.992c-0.675,0.475-2.142,1.742-3.867,3.325c-1.125,1.033-3.133,2.875-4.567,4.042
			c-19.593-1.951-39.366,0.936-57.583,8.408c-55.786,23.56-74.856,90.81-65.83,146.442h-2.279
			c-14.132,0.015-25.585,11.468-25.6,25.6v51.2c0.015,14.132,11.468,25.585,25.6,25.6h25.6v11.667
			c-0.078,12.214-2.529,24.296-7.217,35.575c-8.825,21.667-20.3,63.717,2.017,101.933c22.242,38.092,71.883,62.308,147.541,71.983
			c7.475,0.956,15.042,0.956,22.517,0c75.658-9.675,125.3-33.892,147.541-71.983c22.317-38.217,10.842-80.267,2.017-101.933
			c-4.688-11.279-7.139-23.361-7.216-35.575v-11.667h25.6c14.132-0.015,25.585-11.468,25.6-25.6v-51.2
			C460.718,199.06,449.265,187.607,435.133,187.592z M151.492,56.867c16.461-6.619,34.326-8.98,51.942-6.866
			c4.808,0.392,8.317-2.5,15.083-8.717c0.967-0.883,1.783-1.642,2.1-1.9c9.417-6.601,19.639-11.972,30.417-15.983
			c53.55-19.75,121.259,7.55,150.958,60.817c16.55,30.608,20.603,66.435,11.308,99.967c-0.298,1.155-0.642,2.269-0.946,3.408H401
			c-118.908,0-136.033-75.308-136.7-78.475c-0.862-4.3-4.844-7.246-9.208-6.814s-7.69,4.102-7.692,8.488
			c0,25.6-56.492,25.6-93.867,25.6c-35.419,0-48.044,29.884-50.656,51.2h-6.498C87.304,138.076,102.921,77.383,151.492,56.867z
			 M68.2,264.392v-51.2c0.003-4.712,3.822-8.53,8.533-8.533h25.6v25.6H85.267c-4.713,0-8.533,3.82-8.533,8.533
			s3.821,8.533,8.533,8.533h17.067v25.6h-25.6C72.022,272.922,68.203,269.103,68.2,264.392z M399.992,430.567
			c-19.425,33.267-64.833,54.683-134.967,63.65c-6.036,0.783-12.148,0.783-18.183,0c-70.133-8.967-115.541-30.383-134.967-63.65
			c-18.625-31.9-8.592-68.142-0.958-86.9c5.531-13.318,8.413-27.587,8.483-42.008V196.125c0-1.742,0.392-42.667,34.133-42.667
			c36.425,0,83.317,0,102.342-20.092c9.824,18.101,24.054,33.434,41.374,44.579l-8.391,1.196c-4.652,0.683-7.876,4.999-7.21,9.654
			c0.666,4.654,4.97,7.894,9.627,7.246l32.36-4.614c22.024,8.26,45.311,12.65,68.831,12.976v97.255
			c0.071,14.421,2.952,28.69,8.483,42.008C408.583,362.425,418.617,398.667,399.992,430.567z M443.667,264.392
			c-0.003,4.712-3.822,8.53-8.533,8.533h-25.6v-25.6H426.6c4.713,0,8.533-3.821,8.533-8.533s-3.821-8.533-8.533-8.533h-17.067v-25.6
			h25.6c4.712,0.003,8.53,3.822,8.533,8.533V264.392z"/>
		<path d="M162.067,230.258h8.533v8.533c0,14.138,11.462,25.6,25.6,25.6c14.139,0,25.6-11.462,25.6-25.6v-8.533h8.533
			c4.713,0,8.533-3.821,8.533-8.533s-3.821-8.533-8.533-8.533h-68.267c-4.713,0-8.533,3.821-8.533,8.533
			S157.354,230.258,162.067,230.258z M204.733,230.258v8.533c0,4.713-3.821,8.533-8.533,8.533c-4.713,0-8.533-3.821-8.533-8.533
			v-8.533H204.733z"/>
		<path d="M281.533,230.258h8.533v8.533c0,14.138,11.462,25.6,25.6,25.6c14.138,0,25.6-11.462,25.6-25.6v-8.533h8.533
			c4.713,0,8.533-3.821,8.533-8.533s-3.82-8.533-8.533-8.533h-68.267c-4.713,0-8.533,3.821-8.533,8.533
			S276.821,230.258,281.533,230.258z M324.2,230.258v8.533c0,4.713-3.82,8.533-8.533,8.533s-8.533-3.821-8.533-8.533v-8.533H324.2z"
			/>
		<path d="M255.933,289.992c2.264,0.001,4.435-0.897,6.035-2.498c1.601-1.601,2.499-3.772,2.498-6.035v-17.067
			c0-4.713-3.82-8.533-8.533-8.533c-4.713,0-8.533,3.821-8.533,8.533v17.067c-0.001,2.264,0.897,4.435,2.498,6.035
			C251.499,289.094,253.67,289.993,255.933,289.992z"/>
		<path d="M160.858,187.508l59.733,8.533c4.667,0.667,8.991-2.575,9.658-7.242s-2.575-8.991-7.242-9.658l-59.733-8.533
			c-3.019-0.432-6.039,0.78-7.922,3.179c-1.883,2.399-2.344,5.62-1.208,8.45C155.28,185.067,157.84,187.077,160.858,187.508z"/>
		<path d="M279.9,50.9c0.858,0.167,85.258,17.475,95.592,86.75c0.625,4.177,4.21,7.269,8.433,7.275
			c0.424-0.002,0.847-0.032,1.267-0.092c4.659-0.7,7.872-5.039,7.183-9.7C380.25,53.825,287.108,34.908,283.15,34.15
			c-4.625-0.897-9.103,2.125-10,6.75S275.274,50.003,279.9,50.9L279.9,50.9z"/>
		<path d="M136.475,119.292c2.39,0.005,4.672-0.993,6.292-2.75c0.866-0.925,21.708-22.817,70.5-22.817
			c4.713,0,8.533-3.821,8.533-8.533c0-4.713-3.821-8.533-8.533-8.533c-56.908,0-82.1,27.267-83.142,28.425
			c-2.242,2.505-2.802,6.093-1.43,9.162C130.066,117.314,133.114,119.29,136.475,119.292L136.475,119.292z"/>
		<path d="M300.667,85.45c-4.561-1.134-9.18,1.636-10.328,6.194c-1.148,4.558,1.608,9.185,6.162,10.348
			c17.654,5.023,31.456,18.816,36.492,36.467c0.731,2.964,2.991,5.311,5.925,6.154c2.934,0.843,6.095,0.054,8.289-2.07
			c2.193-2.124,3.084-5.258,2.336-8.218C342.951,110.588,324.403,92.041,300.667,85.45z"/>
		<path d="M297.979,304.047c0.357-1.821,0.564-3.668,0.621-5.522c0-4.713-3.82-8.533-8.533-8.533s-8.533,3.821-8.533,8.533
			c-0.03,2.554-0.601,5.072-1.675,7.388c-0.025,0.061-0.077,0.099-0.1,0.162c-0.022,0.059-0.007,0.121-0.027,0.18
			c-4.964,8.429-14.016,13.604-23.799,13.603c-9.782,0-18.834-5.176-23.797-13.605c-0.02-0.059-0.005-0.119-0.027-0.178
			c-0.023-0.062-0.075-0.099-0.098-0.16c-1.076-2.317-1.648-4.836-1.677-7.39c0-4.713-3.821-8.533-8.533-8.533
			s-8.533,3.821-8.533,8.533c0.057,1.855,0.264,3.702,0.621,5.522C191.148,314.43,145,344.543,145,417.992
			c-0.044,10.117,5.899,19.303,15.146,23.408c9.247,4.105,20.046,2.353,27.521-4.466c9.646,8.878,24.487,8.878,34.133,0
			c9.646,8.878,24.487,8.878,34.133,0c9.646,8.878,24.487,8.878,34.133,0c9.646,8.878,24.487,8.878,34.133,0
			c7.474,6.819,18.274,8.571,27.521,4.466c9.247-4.105,15.19-13.291,15.146-23.408C366.867,344.543,320.718,314.43,297.979,304.047z
			 M341.267,426.525c-4.712-0.003-8.53-3.822-8.533-8.533c0-4.713-3.82-8.533-8.533-8.533s-8.533,3.821-8.533,8.533
			c0,4.713-3.821,8.533-8.533,8.533c-4.713,0-8.533-3.821-8.533-8.533c0-4.713-3.82-8.533-8.533-8.533s-8.533,3.821-8.533,8.533
			c0,4.713-3.821,8.533-8.533,8.533s-8.533-3.821-8.533-8.533v-0.85c-0.016-2.22-0.935-4.338-2.544-5.867s-3.771-2.338-5.989-2.241
			c-4.794,0.198-8.568,4.16-8.533,8.958c0,4.713-3.821,8.533-8.533,8.533c-4.713,0-8.533-3.821-8.533-8.533
			c0-4.713-3.821-8.533-8.533-8.533s-8.533,3.821-8.533,8.533c0,4.713-3.821,8.533-8.533,8.533s-8.533-3.821-8.533-8.533v-0.85
			c-0.016-2.22-0.935-4.338-2.544-5.867c-1.609-1.529-3.771-2.338-5.989-2.241c-4.794,0.198-8.568,4.16-8.533,8.958
			c-0.003,4.712-3.822,8.53-8.533,8.533c-4.759-0.058-8.573-3.957-8.526-8.716c0.075-62.419,36.792-88.235,58.37-98.026
			c8.595,10.83,21.664,17.142,35.49,17.142s26.895-6.313,35.49-17.142c21.6,9.801,58.377,35.653,58.377,98.209
			C349.797,422.703,345.978,426.522,341.267,426.525z"/>
	</g>
</g>
<g>
</g>
<g>
</g>
<g>
</g>
<g>
</g>
<g>
</g>
<g>
</g>
<g>
</g>
<g>
</g>
<g>
</g>
<g>
</g>
<g>
</g>
<g>
</g>
<g>
</g>
<g>
</g>
<g>
</g>
</svg>
