<?xml version="1.0" encoding="iso-8859-1"?>
<!-- Generator: Adobe Illustrator 19.0.0, SVG Export Plug-In . SVG Version: 6.00 Build 0)  -->
<svg version="1.1" id="Capa_1" xmlns="http://www.w3.org/2000/svg" xmlns:xlink="http://www.w3.org/1999/xlink" x="0px" y="0px"
	 viewBox="0 0 512 512" style="enable-background:new 0 0 512 512;" xml:space="preserve">
<g>
	<g transform="translate(1 1)">
		<g>
			<path style="fill:#FFE0B2;" d="M118.467,195.267V280.6H78.644c-10.18,0.692-19.038-6.9-19.911-17.067v-51.2
				c0.873-10.167,9.731-17.759,19.911-17.067H118.467z"/>
			<path style="fill:#FFE0B2;" d="M451.267,212.333v51.2c-0.873,10.167-9.731,17.759-19.911,17.067h-39.822v-85.333h39.822
				C441.536,194.574,450.394,202.167,451.267,212.333z"/>
		</g>
		<path style="fill:#BFB186;" d="M265.155,501.784c-6.739,0.91-13.57,0.91-20.309,0l-7.424-1.024
			C90.819,479.768,84.248,405.955,95.341,360.472v-0.085c1.697-7.107,3.951-14.069,6.741-20.821
			c5.11-12.281,7.776-25.44,7.851-38.741V195.267c-2.568-19.207-2.997-38.64-1.28-57.941C114.883,63.341,170.52,7.533,235.885,7.533
			h38.229c65.365,0,121.003,55.808,127.232,129.792c1.717,19.302,1.288,38.734-1.28,57.941v105.557
			c0.074,13.301,2.741,26.46,7.851,38.741c2.802,6.778,5.056,13.769,6.741,20.907c0,0.023,0.008,0.045,0.024,0.061
			s0.038,0.025,0.061,0.024C425.923,406.808,418.755,482.243,265.155,501.784z"/>
		<path style="fill:#FFECB3;" d="M237.421,500.76C90.819,479.768,84.248,405.955,95.341,360.472v-0.085
			c1.697-7.107,3.951-14.069,6.741-20.821c5.11-12.281,7.776-25.44,7.851-38.741V195.267c-2.568-19.207-2.997-38.64-1.28-57.941
			C114.883,63.341,170.52,7.533,235.885,7.533h2.987c65.365,0,121.003,55.808,127.232,129.792
			c1.717,19.302,1.288,38.734-1.28,57.941v105.557c0.074,13.301,2.741,26.46,7.851,38.741c2.802,6.778,5.056,13.769,6.741,20.907
			c0,0.023,0.008,0.045,0.024,0.061c0.016,0.016,0.038,0.025,0.061,0.024C390.509,406.04,383.768,479.768,237.421,500.76z"/>
		<g>
			<path style="fill:#607D8B;" d="M242.797,321.56c-3.995,1.145-8.132,1.72-12.288,1.707c-9.961,0.249-19.64-3.323-27.051-9.984
				l-1.195,1.109c-2.901-0.341-8.107-0.939-14.763-1.194c13.094-0.749,26.229-0.349,39.253,1.194l1.195-1.109
				C232.167,317.188,237.258,320.026,242.797,321.56z"/>
			<path style="fill:#607D8B;" d="M245.528,501.101c2.308,0.681,4.683,1.11,7.083,1.28c-2.601,0.017-5.198-0.183-7.765-0.597
				l-2.048-0.256h-0.256c-0.853-0.171-1.707-0.256-2.56-0.427c0.936-0.194,1.851-0.48,2.731-0.853h0.085
				c0.821,0.373,1.679,0.659,2.56,0.853H245.528z"/>
			<path style="fill:#607D8B;" d="M265.155,501.784c-2.4,0.372-4.824,0.571-7.253,0.597c6.761-0.765,13.249-3.103,18.944-6.827
				c118.528-25.941,123.648-92.672,113.408-134.997c-0.023,0-0.045-0.008-0.061-0.024s-0.025-0.038-0.024-0.061
				c-17.664-35.669-59.648-45.397-91.819-47.275c30.891-1.621,93.525,1.451,116.309,47.275c0,0.023,0.008,0.045,0.024,0.061
				s0.038,0.025,0.061,0.024C425.923,406.808,418.755,482.243,265.155,501.784z"/>
		</g>
		<g>
			<path style="fill:#E6E7E8;" d="M276.845,495.555c31.744-19.627,54.955-76.117,54.955-92.501c0-19.968-34.389-54.187-76.8-54.187
				c-4.085,0.006-8.165,0.319-12.203,0.939c-36.608,5.632-64.597,35.243-64.597,53.248c0,18.005,27.904,84.309,64.512,97.195
				c-0.88,0.374-1.795,0.66-2.731,0.853c-11.179-1.536-21.589-3.328-31.232-5.461C90.051,469.613,85.016,402.797,95.341,360.472
				v-0.085c17.835-35.755,59.904-45.397,92.16-47.189c6.656,0.256,11.861,0.853,14.763,1.194l1.195-1.109
				c7.411,6.661,17.089,10.234,27.051,9.984c4.156,0.013,8.293-0.561,12.288-1.707c3.967,1.14,8.075,1.714,12.203,1.707
				c9.989,0.265,19.7-3.308,27.136-9.984l1.109,1.109c2.816-0.341,7.765-0.939,14.08-1.194h1.024
				c32.171,1.877,74.155,11.605,91.819,47.275c0,0.023,0.008,0.045,0.024,0.061s0.038,0.025,0.061,0.024
				C400.493,402.883,395.373,469.613,276.845,495.555z"/>
			<path style="fill:#E6E7E8;" d="M297.325,313.197c-6.315,0.256-11.264,0.853-14.08,1.194l-1.109-1.109
				c-7.436,6.676-17.147,10.249-27.136,9.984c-4.128,0.007-8.236-0.567-12.203-1.707c5.556-1.494,10.656-4.337,14.848-8.277
				l1.109,1.109C271.551,312.849,284.458,312.45,297.325,313.197z"/>
			<path style="fill:#E6E7E8;" d="M245.357,501.101c-0.853,0.171-1.707,0.256-2.56,0.427h-0.256
				c-0.597,0.085-1.28,0.171-1.877,0.256c-2.515,0.372-5.052,0.571-7.595,0.597c2.345-0.163,4.664-0.592,6.912-1.28
				c0.936-0.194,1.851-0.48,2.731-0.853h0.085C243.618,500.621,244.476,500.907,245.357,501.101z"/>
		</g>
		<g>
			<path style="fill:#2FA8CC;" d="M178.2,220.867h34.133v17.067c0,9.426-7.641,17.067-17.067,17.067
				c-9.426,0-17.067-7.641-17.067-17.067V220.867z"/>
			<path style="fill:#2FA8CC;" d="M297.667,220.867H331.8v17.067c0,9.426-7.641,17.067-17.067,17.067
				c-9.426,0-17.067-7.641-17.067-17.067V220.867z"/>
		</g>
		<g>
			<path style="fill:#607D8B;" d="M161.133,152.6h59.733c9.426,0,17.067,7.641,17.067,17.067l0,0
				c0,9.426-7.641,17.067-17.067,17.067h-59.733c-9.426,0-17.067-7.641-17.067-17.067l0,0
				C144.067,160.241,151.708,152.6,161.133,152.6z"/>
			<path style="fill:#607D8B;" d="M289.133,152.6h59.733c9.426,0,17.067,7.641,17.067,17.067l0,0
				c0,9.426-7.641,17.067-17.067,17.067h-59.733c-9.426,0-17.067-7.641-17.067-17.067l0,0
				C272.067,160.241,279.708,152.6,289.133,152.6z"/>
		</g>
		<g>
			<path style="fill:#E6E7E8;" d="M161.133,152.6h34.133c9.426,0,17.067,7.641,17.067,17.067l0,0
				c0,9.426-7.641,17.067-17.067,17.067h-34.133c-9.426,0-17.067-7.641-17.067-17.067l0,0
				C144.067,160.241,151.708,152.6,161.133,152.6z"/>
			<path style="fill:#E6E7E8;" d="M289.133,152.6h34.133c9.426,0,17.067,7.641,17.067,17.067l0,0
				c0,9.426-7.641,17.067-17.067,17.067h-34.133c-9.426,0-17.067-7.641-17.067-17.067l0,0
				C272.067,160.241,279.708,152.6,289.133,152.6z"/>
		</g>
	</g>
	<g>
		<path d="M435.2,290.133c14.132-0.015,25.585-11.468,25.6-25.6v-51.2c-0.015-14.132-11.468-25.585-25.6-25.6h-24.534
			c1.534-16.671,1.608-33.445,0.221-50.129C404.284,59.158,345.917,0,275.125,0h-38.25c-70.792,0-129.159,59.158-135.763,137.604
			c-1.386,16.684-1.312,33.458,0.221,50.129H76.8c-14.132,0.015-25.585,11.468-25.6,25.6v51.2c0.015,14.132,11.468,25.585,25.6,25.6
			h25.6v11.662c-0.074,12.216-2.527,24.301-7.221,35.579c-8.821,21.667-20.287,63.721,2.025,101.933
			c22.238,38.087,71.879,62.304,147.533,71.975c2.071,0.266,4.159,0.279,6.242,0.397c3.334,0.426,6.708,0.426,10.042-0.001
			c2.081-0.118,4.168-0.131,6.237-0.397c75.658-9.671,125.3-33.888,147.538-71.975c13.28-24.245,16.599-52.707,9.253-79.356
			c-0.065-0.392-0.157-0.779-0.276-1.159c-1.803-7.298-4.127-14.457-6.953-21.422c-4.694-11.277-7.147-23.36-7.221-35.575v-11.662
			H435.2z M443.733,213.333v51.2c-0.006,4.71-3.823,8.527-8.533,8.533h-25.6v-25.6h17.067c4.713,0,8.533-3.821,8.533-8.533
			c0-4.713-3.82-8.533-8.533-8.533H409.6v-25.6h25.6C439.91,204.806,443.727,208.623,443.733,213.333z M118.121,139.038
			c5.854-69.534,56.908-121.971,118.754-121.971h38.25c61.846,0,112.9,52.437,118.754,121.971
			c1.594,18.621,1.178,37.36-1.242,55.892c-0.037,0.233,0.046,0.447,0.029,0.679c-0.018,0.229-0.133,0.425-0.133,0.659v105.529
			c0.053,8.378,1.086,16.721,3.079,24.858c-31.22-21.039-74.081-22.314-97.865-20.985c0.605-2.285,0.914-4.638,0.919-7.002
			c0-4.713-3.821-8.533-8.533-8.533c-4.713,0-8.533,3.82-8.533,8.533c0,9.25-11.725,17.067-25.6,17.067
			c-13.875,0-25.6-7.817-25.6-17.067c0-4.713-3.821-8.533-8.533-8.533c-4.713,0-8.533,3.82-8.533,8.533
			c0.005,2.361,0.313,4.712,0.917,6.995c-23.783-1.335-66.642-0.056-97.861,20.99c1.993-8.137,3.026-16.478,3.078-24.855V196.267
			c0-0.234-0.115-0.43-0.133-0.659c-0.017-0.231,0.066-0.445,0.029-0.679C116.943,176.397,116.527,157.659,118.121,139.038z
			 M68.267,264.533v-51.2c0.006-4.71,3.823-8.527,8.533-8.533h25.6v25.6H85.333c-4.713,0-8.533,3.821-8.533,8.533
			c0,4.713,3.821,8.533,8.533,8.533H102.4v25.6H76.8C72.09,273.061,68.273,269.244,68.267,264.533z M256,494.933
			c-35.921,0-68.267-74.125-68.267-90.854c0-13.625,28.829-45.679,68.267-45.679s68.267,32.054,68.267,45.679
			C324.267,420.808,291.921,494.933,256,494.933z M400.058,430.704c-15.923,27.268-49.327,46.558-99.461,57.573
			c24.887-27.003,40.736-69.297,40.736-84.199c0-24.779-38.229-62.746-85.333-62.746s-85.333,37.967-85.333,62.746
			c0,14.902,15.849,57.196,40.736,84.199c-50.133-11.015-83.537-30.306-99.461-57.574c-10.922-20.231-13.634-43.89-7.573-66.067
			c26.24-51.223,112.521-42.011,122.323-40.779c0.239,0.029,0.453-0.063,0.689-0.053c17.195,11.993,40.044,11.993,57.239,0
			c0.235-0.009,0.451,0.082,0.689,0.053c9.795-1.232,96.077-10.448,122.324,40.78C413.692,386.815,410.979,410.474,400.058,430.704z
			"/>
		<path d="M230.4,213.333h-68.267c-4.713,0-8.533,3.821-8.533,8.533c0,4.713,3.821,8.533,8.533,8.533h8.533v8.533
			c0,14.138,11.462,25.6,25.6,25.6s25.6-11.462,25.6-25.6V230.4h8.533c4.713,0,8.533-3.821,8.533-8.533
			C238.933,217.154,235.113,213.333,230.4,213.333z M204.8,238.933c0,4.713-3.821,8.533-8.533,8.533s-8.533-3.821-8.533-8.533V230.4
			H204.8V238.933z"/>
		<path d="M349.867,213.333H281.6c-4.713,0-8.533,3.821-8.533,8.533c0,4.713,3.82,8.533,8.533,8.533h8.533v8.533
			c0,14.138,11.461,25.6,25.6,25.6s25.6-11.462,25.6-25.6V230.4h8.533c4.713,0,8.533-3.821,8.533-8.533
			C358.4,217.154,354.579,213.333,349.867,213.333z M324.267,238.933c0,4.713-3.821,8.533-8.533,8.533
			c-4.713,0-8.533-3.821-8.533-8.533V230.4h17.067V238.933z"/>
		<path d="M247.467,281.6c0,4.713,3.821,8.533,8.533,8.533c4.713,0,8.533-3.821,8.533-8.533v-17.067
			c0-4.713-3.821-8.533-8.533-8.533c-4.713,0-8.533,3.821-8.533,8.533V281.6z"/>
		<path d="M162.133,196.267h59.733c14.138,0,25.6-11.462,25.6-25.6c0-14.138-11.462-25.6-25.6-25.6h-59.733
			c-14.139,0-25.6,11.462-25.6,25.6C136.533,184.805,147.995,196.267,162.133,196.267z M162.133,162.133h59.733
			c4.713,0,8.533,3.821,8.533,8.533c0,4.713-3.821,8.533-8.533,8.533h-59.733c-4.713,0-8.533-3.821-8.533-8.533
			C153.6,165.954,157.421,162.133,162.133,162.133z"/>
		<path d="M290.133,196.267h59.733c14.138,0,25.6-11.462,25.6-25.6c0-14.138-11.462-25.6-25.6-25.6h-59.733
			c-14.139,0-25.6,11.462-25.6,25.6C264.533,184.805,275.995,196.267,290.133,196.267z M290.133,162.133h59.733
			c4.713,0,8.533,3.821,8.533,8.533c0,4.713-3.821,8.533-8.533,8.533h-59.733c-4.713,0-8.533-3.821-8.533-8.533
			C281.6,165.954,285.421,162.133,290.133,162.133z"/>
		<path d="M281.6,392.533h-51.2c-4.713,0-8.533,3.82-8.533,8.533s3.82,8.533,8.533,8.533h51.2c4.713,0,8.533-3.821,8.533-8.533
			S286.313,392.533,281.6,392.533z"/>
		<path d="M264.533,426.667h-17.067c-4.713,0-8.533,3.82-8.533,8.533s3.821,8.533,8.533,8.533h17.067
			c4.713,0,8.533-3.821,8.533-8.533S269.246,426.667,264.533,426.667z"/>
	</g>
</g>
<g>
</g>
<g>
</g>
<g>
</g>
<g>
</g>
<g>
</g>
<g>
</g>
<g>
</g>
<g>
</g>
<g>
</g>
<g>
</g>
<g>
</g>
<g>
</g>
<g>
</g>
<g>
</g>
<g>
</g>
</svg>
