<?xml version="1.0" encoding="iso-8859-1"?>
<!-- Generator: Adobe Illustrator 19.0.0, SVG Export Plug-In . SVG Version: 6.00 Build 0)  -->
<svg version="1.1" id="Capa_1" xmlns="http://www.w3.org/2000/svg" xmlns:xlink="http://www.w3.org/1999/xlink" x="0px" y="0px"
	 viewBox="0 0 511.846 511.846" style="enable-background:new 0 0 511.846 511.846;" xml:space="preserve">
<g>
	<g transform="translate(1 1)">
		<path style="fill:#4527A0;" d="M468.255,237.8V289c-0.028,9.414-7.652,17.039-17.067,17.067h-33.535
			c-0.171,0.341-0.427,0.597-0.598,0.939c-0.252,7.826-0.936,15.631-2.048,23.381c-3.785,28.048-12.357,55.237-25.344,80.384v0.085
			c-22.314,42.987-61.468,74.785-108.117,87.808c-17.416,4.864-35.832,4.864-53.248,0c-46.85-12.684-86.134-44.62-108.117-87.893
			c-16.527-32.2-25.873-67.603-27.392-103.765c-0.171-0.341-0.427-0.597-0.598-0.939H58.655
			c-9.414-0.028-17.039-7.653-17.067-17.067v-51.2c0.028-9.414,7.652-17.039,17.067-17.067c0,0,8.192-57.259-15.531-91.648
			c-0.462-0.773-0.975-1.514-1.535-2.219c0,0,1.109-0.171,2.987-0.512c11.178-2.048,49.663-11.52,44.971-43.179
			c-0.912-5.592-2.697-11.006-5.291-16.043c6.673,0.657,13.399,0.572,20.053-0.256c11.161-1.038,21.849-5.012,30.976-11.52
			c11.855-9.526,18.294-24.253,17.237-39.424c0,0,28.417,21.333,57.771,20.309c1.279,0,2.56-0.085,3.84-0.171
			c17.61-1.939,33.002-12.758,40.789-28.672c34.133,59.733,102.4,8.533,102.4,8.533c0,59.733,68.267,51.2,68.267,51.2
			c-25.6,51.2,42.667,59.733,42.667,59.733c-25.6,34.133-17.067,93.867-17.067,93.867
			C460.603,220.761,468.228,228.386,468.255,237.8z"/>
		<path style="fill:#673AB7;" d="M425.589,263.4v51.2c-0.042,6.908-4.207,13.123-10.581,15.787c-2.054,0.858-4.26,1.293-6.485,1.28
			h-33.535c-0.171,0.341-0.427,0.597-0.598,0.939c-1.519,36.162-10.865,71.565-27.392,103.765v0.085
			c-10.898,20.977-25.867,39.572-44.032,54.699c-6.965,2.976-14.12,5.484-21.419,7.509c-17.416,4.864-35.832,4.864-53.248,0
			c-46.85-12.684-86.134-44.62-108.117-87.893c-16.527-32.2-25.873-67.603-27.392-103.765c-0.171-0.341-0.427-0.597-0.598-0.939
			H58.655c-9.414-0.028-17.039-7.653-17.067-17.067v-51.2c0.028-9.414,7.652-17.039,17.067-17.067c0,0,8.192-57.259-15.531-91.648
			c0.535-0.882,1.019-1.794,1.451-2.731c11.178-2.048,49.663-11.52,44.971-43.179c6.313-3.988,11.417-9.623,14.763-16.299
			c11.161-1.038,21.849-5.012,30.976-11.52c22.273,9.045,54.188,13.568,75.008-19.115c0.683-1.024,1.365-2.133,1.963-3.243
			c0.598,1.024,1.195,2.048,1.877,3.072c34.645,54.869,100.523,5.461,100.523,5.461c0,59.733,68.267,51.2,68.267,51.2
			c-25.6,51.2,42.667,59.733,42.667,59.733c-25.6,34.133-17.067,93.867-17.067,93.867
			C417.936,246.361,425.561,253.986,425.589,263.4z"/>
		<g>
			<path style="fill:#FFE0B2;" d="M92.789,220.733v85.333H58.655c-9.414-0.028-17.039-7.653-17.067-17.067v-51.2
				c0.028-9.414,7.652-17.039,17.067-17.067H92.789z"/>
			<path style="fill:#FFE0B2;" d="M468.255,237.8V289c-0.028,9.414-7.652,17.039-17.067,17.067h-34.133v-85.333h34.133
				C460.603,220.761,468.228,228.386,468.255,237.8z"/>
		</g>
		<path style="fill:#BFB186;" d="M383.605,151.187c-11.666-2.203-23.697,1.104-32.598,8.96c-2.461,2.148-4.718,4.519-6.741,7.083
			c-8.191,10.373-12.614,23.221-12.544,36.437v42.667c-7.391-18.851-18.277-36.135-32.085-50.944
			c-9.255-10.385-22.288-16.624-36.181-17.323h-17.323c-9.116,0.222-17.951,3.197-25.344,8.533
			c-27.135,18.261-42.667,59.733-42.667,59.733v-42.667c0.014-0.655-0.014-1.311-0.085-1.963
			c-0.337-12.532-4.706-24.622-12.459-34.475c-8.959-12.44-24.236-18.67-39.34-16.043c-6.572,1.322-12.619,4.524-17.407,9.216
			c-20.139,19.456-16.043,60.331-16.043,60.331v85.333c1.333,36.489,10.685,72.237,27.392,104.704
			c21.983,43.273,61.267,75.209,108.117,87.893c11.201,3.154,22.876,4.281,34.474,3.328c6.35-0.506,12.637-1.62,18.774-3.328
			c46.827-12.679,86.103-44.577,108.117-87.808v-0.085c16.707-32.467,26.059-68.215,27.392-104.704v-85.333
			C417.055,220.733,423.199,159.549,383.605,151.187z"/>
		<path style="fill:#FFE0B2;" d="M382.581,229.267V314.6c-1.333,36.489-10.685,72.237-27.392,104.704v0.085
			c-19.397,38.118-52.369,67.589-92.417,82.603c-11.598,0.953-23.273-0.174-34.474-3.328c-46.85-12.684-86.134-44.62-108.117-87.893
			c-16.707-32.467-26.059-68.215-27.392-104.704v-85.333c0,0-4.096-40.875,16.043-60.331c4.788-4.692,10.835-7.894,17.407-9.216
			c15.103-2.627,30.38,3.603,39.339,16.043c7.753,9.853,12.122,21.942,12.459,34.475c0.071,0.652,0.1,1.307,0.085,1.963v42.667
			c0,0,15.531-41.472,42.667-59.733c7.393-5.337,16.228-8.311,25.344-8.533h17.323c13.893,0.698,26.926,6.938,36.181,17.323
			c13.809,14.809,24.695,32.093,32.085,50.944v-42.667c-0.07-13.217,4.353-26.065,12.544-36.437c2.024-2.564,4.28-4.935,6.741-7.083
			C388.553,170.045,382.581,229.267,382.581,229.267z"/>
		<g>
			<path style="fill:#37474F;" d="M237.855,280.467c0,28.245-32.513,51.2-72.533,51.2c-4.281,0.019-8.559-0.266-12.8-0.853
				c-33.963-4.267-59.733-25.173-59.733-50.347c0-47.104,0-50.859,56.576-51.115c0.651-0.085,1.311-0.085,1.963,0
				c4.352-0.085,8.959-0.085,13.995-0.085C205.343,229.267,237.855,229.267,237.855,280.467z"/>
			<path style="fill:#37474F;" d="M417.055,280.467c0,28.245-32.512,51.2-72.533,51.2c-4.281,0.019-8.559-0.266-12.8-0.853
				c-33.963-4.267-59.733-25.173-59.733-50.347c0-46.165,26.369-50.688,60.928-51.115c0.651-0.085,1.311-0.085,1.963,0
				c3.157-0.085,6.4-0.085,9.643-0.085C417.055,229.267,417.055,229.267,417.055,280.467z"/>
		</g>
		<g>
			<path style="fill:#607D8B;" d="M212.255,280.467c0,25.173-25.771,46.08-59.733,50.347c-33.963-4.267-59.733-25.173-59.733-50.347
				c0-47.104,0-50.859,56.576-51.115c0.651-0.085,1.311-0.085,1.963,0C185.887,229.779,212.255,234.301,212.255,280.467z"/>
			<path style="fill:#607D8B;" d="M391.455,280.467c0,25.173-25.771,46.08-59.733,50.347c-33.963-4.267-59.733-25.173-59.733-50.347
				c0-46.165,26.369-50.688,60.928-51.115c0.651-0.085,1.311-0.085,1.963,0C391.455,229.608,391.455,233.363,391.455,280.467z"/>
		</g>
	</g>
	<g>
		<path d="M460.019,214.554c-1.278-15.304-2.672-56.588,16.061-81.566c1.828-2.433,2.221-5.655,1.033-8.456
			c-1.189-2.801-3.78-4.757-6.799-5.132c-8.25-1.033-31.267-6.7-38.567-20.35c-3.773-8.877-2.844-19.054,2.475-27.1
			c1.4-2.813,1.142-6.167-0.67-8.733c-1.812-2.567-4.886-3.932-8.005-3.554c-0.292,0.042-29.767,3.4-46.65-11.563
			c-8.47-8.067-12.887-19.5-12.041-31.166c0.001-3.232-1.824-6.187-4.715-7.633c-2.891-1.445-6.35-1.133-8.935,0.808
			c-0.317,0.233-31.95,23.633-60.108,17.796c-12.988-3.031-23.922-11.749-29.767-23.737c-0.094-0.165-0.256-0.255-0.359-0.411
			c-0.331-0.468-0.71-0.901-1.13-1.291c-0.384-0.412-0.809-0.783-1.269-1.109c-0.158-0.105-0.25-0.269-0.417-0.364
			c-0.318-0.129-0.645-0.237-0.977-0.324c-0.531-0.241-1.086-0.425-1.656-0.548c-1.063-0.159-2.143-0.159-3.206-0.001
			c-0.575,0.125-1.134,0.311-1.67,0.555c-0.326,0.086-0.645,0.192-0.957,0.318c-0.164,0.094-0.253,0.254-0.408,0.357
			c-0.469,0.331-0.903,0.71-1.294,1.13c-0.413,0.386-0.786,0.813-1.112,1.274c-0.103,0.157-0.267,0.248-0.36,0.414
			c-5.84,11.967-16.746,20.677-29.708,23.725c-28.092,5.862-59.858-17.554-60.175-17.792c-2.587-1.933-6.043-2.24-8.93-0.793
			c-2.887,1.446-4.711,4.398-4.712,7.627c0.846,11.666-3.571,23.1-12.042,31.167c-16.892,14.967-46.383,11.592-46.633,11.567
			c-3.123-0.391-6.207,0.969-8.025,3.538c-1.818,2.569-2.074,5.93-0.666,8.745c5.31,8.038,6.245,18.199,2.492,27.071
			c-7.242,13.583-30.317,19.317-38.6,20.379c-3.012,0.389-5.591,2.347-6.774,5.144s-0.794,6.011,1.024,8.444
			c18.673,24.902,17.317,66.244,16.054,81.568c-10.551,3.376-17.724,13.167-17.762,24.244V290c0.015,14.132,11.468,25.585,25.6,25.6
			h25.959c2.433,34.955,11.968,69.047,28.024,100.192c22.984,45.405,64.195,78.892,113.342,92.1c18.937,5.272,38.955,5.272,57.892,0
			c49.106-13.232,90.295-46.672,113.333-92.013c0.119-0.223,0.225-0.452,0.317-0.687c15.864-30.986,25.29-64.864,27.708-99.592
			h25.958c14.132-0.015,25.585-11.468,25.6-25.6v-51.2C477.75,227.72,470.573,217.927,460.019,214.554z M95.147,107.104
			c4.819-9.285,5.783-20.096,2.683-30.088c16.819-0.002,33.149-5.664,46.358-16.075c8.638-7.678,14.449-18.034,16.5-29.408
			c14,7.792,38,17.917,61.517,13.083c13.394-2.826,25.346-10.326,33.717-21.158c8.37,10.832,20.322,18.332,33.717,21.158
			c23.475,4.833,47.508-5.292,61.517-13.083c2.051,11.374,7.862,21.73,16.5,29.408c13.21,10.411,29.539,16.073,46.358,16.075
			c-3.1,9.992-2.135,20.802,2.683,30.087c8.292,15.5,26.508,23.063,38.908,26.546c-14.327,27.492-14.018,62.71-12.832,79.55h-15.841
			c0.077-19.178-3.952-61.653-40.594-69.396c-18.309-3.371-36.921,4.107-47.808,19.209c-9.361,11.859-14.418,26.546-14.342,41.654
			v7.546c-12.569-19.397-32.087-40.504-57.715-41.577c-0.833-0.249-1.7-0.364-2.569-0.34c-2.475,0.162-5.108,0.237-7.983,0.237
			c-3.042,0-5.692-0.075-8.258-0.237c-0.98-0.058-1.963,0.067-2.898,0.368c-25.325,1.37-44.634,22.302-57.111,41.553v-7.55
			c0.077-15.105-4.977-29.788-14.333-41.646c-10.887-15.106-29.504-22.588-47.817-19.217c-36.642,7.743-40.671,50.218-40.594,69.396
			h-15.84c1.185-16.84,1.493-52.058-12.833-79.55C68.639,130.167,86.855,122.604,95.147,107.104z M129.039,160.504
			c11.884-1.869,23.802,3.147,30.775,12.95c7.024,8.883,10.823,19.888,10.775,31.212v17.075c-1.423-0.003-2.846-0.009-4.267-0.009
			c-32.679,0-52.277,0.336-64,5.658v-5.658c0-0.149-0.077-0.273-0.085-0.42c-0.006-0.148,0.058-0.28,0.044-0.43
			C102.222,220.346,97.272,167.212,129.039,160.504z M107.78,243.637c6.85-4.837,26.308-4.837,58.542-4.837
			c1.473,0,2.848,0.01,4.267,0.016v8.518c0,4.125,2.95,7.659,7.008,8.396c0.506,0.091,1.019,0.137,1.534,0.137
			c3.555-0.003,6.735-2.209,7.983-5.538c1.1-2.933,2.722-6.696,4.74-10.861c20.468,1.541,32.302,6.744,36.581,23.875
			c0.046,0.311,0.111,0.619,0.194,0.922c1.208,5.652,1.776,11.423,1.694,17.202c0,23.525-28.708,42.667-64,42.667
			s-64-19.142-64-42.667C102.322,257.904,102.539,247.333,107.78,243.637z M200.821,223.306
			c11.143-17.628,27.509-35.593,46.568-35.706h17.067c18.968,0,35.365,18.021,46.545,35.709
			c-17.814,2.508-32.955,9.207-40.789,26.605c-9.309-2.876-19.27-2.876-28.579,0C233.795,232.509,218.645,225.811,200.821,223.306z
			 M409.607,221.314c-0.009,0.147-0.085,0.27-0.085,0.419v5.658c-11.723-5.322-31.321-5.658-64-5.658
			c-1.421,0-2.844,0.006-4.267,0.009v-17.075c-0.048-11.328,3.754-22.337,10.783-31.221c6.963-9.81,18.885-14.825,30.767-12.942
			c31.633,6.683,26.808,59.85,26.758,60.387C409.549,221.039,409.614,221.168,409.607,221.314z M283.216,264.264
			c0.083-0.303,0.148-0.611,0.194-0.922c4.278-17.126,16.108-22.332,36.567-23.874c2.021,4.166,3.649,7.932,4.754,10.869
			c1.454,3.858,5.458,6.125,9.515,5.388c4.057-0.737,7.007-4.269,7.01-8.392v-8.518c1.419-0.005,2.794-0.016,4.267-0.016
			c32.233,0,51.692,0,58.542,4.837c5.242,3.696,5.458,14.267,5.458,37.829c0,23.525-28.708,42.667-64,42.667s-64-19.142-64-42.667
			C281.439,275.687,282.007,269.917,283.216,264.264L283.216,264.264z M51.122,290v-51.2c0.005-4.711,3.822-8.529,8.533-8.533h25.6
			v25.6H68.189c-4.713,0-8.533,3.82-8.533,8.533s3.821,8.533,8.533,8.533h17.067v25.6h-25.6
			C54.944,298.529,51.127,294.711,51.122,290z M383.13,407.804c-0.118,0.216-0.224,0.439-0.317,0.667
			c-20.961,40.893-58.215,71.034-102.583,82.996c-15.9,4.433-32.709,4.433-48.608,0c-44.628-12.007-82.044-42.425-102.908-83.663
			c-14.217-27.779-22.941-58.04-25.696-89.124c17.603,15.056,40.148,23.076,63.304,22.519c44.7,0,81.067-26.796,81.067-59.733
			c-0.004-5.078-0.394-10.147-1.168-15.166c6.293-2.126,13.109-2.126,19.402,0c-0.773,5.018-1.164,10.088-1.168,15.166
			c0,32.937,36.367,59.733,81.067,59.733c23.156,0.557,45.702-7.464,63.304-22.519C406.072,349.765,397.348,380.025,383.13,407.804z
			 M460.722,290c-0.005,4.711-3.822,8.529-8.533,8.533h-25.6v-25.6h17.067c4.713,0,8.533-3.821,8.533-8.533
			s-3.821-8.533-8.533-8.533h-17.067v-25.6h25.6c4.711,0.005,8.529,3.822,8.533,8.533V290z"/>
		<path d="M324.189,400.933H187.655c-4.713,0-8.533,3.82-8.533,8.533s3.821,8.533,8.533,8.533h136.533
			c4.713,0,8.533-3.82,8.533-8.533S328.901,400.933,324.189,400.933z"/>
		<path d="M298.589,426.533c-2.263-0.001-4.434,0.898-6.035,2.499c-1.6,1.6-2.499,3.771-2.499,6.035h-76.8
			c-4.713,0-8.533,3.82-8.533,8.533s3.821,8.533,8.533,8.533h85.333c2.263,0.001,4.434-0.898,6.035-2.499
			c1.6-1.6,2.499-3.771,2.499-6.035v-8.533c0.001-2.263-0.898-4.434-2.499-6.035C303.023,427.432,300.852,426.533,298.589,426.533z"
			/>
		<path d="M226.472,365.846c1.189,0.61,2.506,0.927,3.842,0.925c3.206-0.001,6.144-1.79,7.617-4.637
			c3.563-6.867,10.306-11.514,17.992-12.4c7.687,0.879,14.432,5.526,17.992,12.396c2.121,4.209,7.252,5.902,11.46,3.781
			c4.209-2.121,5.902-7.252,3.781-11.46c-6.44-12.632-19.08-20.917-33.233-21.783c-14.153,0.866-26.793,9.151-33.233,21.783
			C220.595,358.642,222.287,363.738,226.472,365.846z"/>
		<path d="M127.922,281.467c2.264,0.003,4.435-0.897,6.033-2.5l8.533-8.533c3.281-3.341,3.256-8.701-0.054-12.012
			c-3.311-3.311-8.671-3.335-12.012-0.054l-8.533,8.533c-2.44,2.44-3.169,6.11-1.849,9.298
			C121.36,279.387,124.471,281.466,127.922,281.467z"/>
		<path d="M138.956,304.566c1.6,1.601,3.77,2.5,6.033,2.5c2.263,0,4.433-0.899,6.033-2.5l25.6-25.6
			c2.178-2.151,3.037-5.304,2.251-8.262c-0.786-2.958-3.097-5.269-6.055-6.055c-2.958-0.786-6.111,0.073-8.262,2.251l-25.6,25.6
			c-1.601,1.6-2.5,3.77-2.5,6.033C136.456,300.796,137.355,302.967,138.956,304.566z"/>
		<path d="M307.122,281.467c2.264,0.003,4.435-0.897,6.033-2.5l8.533-8.533c2.188-2.149,3.055-5.307,2.27-8.271
			c-0.785-2.965-3.1-5.28-6.065-6.065s-6.122,0.082-8.271,2.27l-8.533,8.533c-2.44,2.44-3.169,6.11-1.849,9.298
			C300.56,279.387,303.671,281.466,307.122,281.467z"/>
		<path d="M318.156,304.566c1.6,1.601,3.77,2.5,6.033,2.5s4.433-0.899,6.033-2.5l25.6-25.6c2.178-2.151,3.037-5.304,2.251-8.262
			c-0.786-2.958-3.097-5.269-6.055-6.055s-6.111,0.073-8.262,2.251l-25.6,25.6c-1.601,1.6-2.5,3.77-2.5,6.033
			C315.656,300.796,316.555,302.967,318.156,304.566z"/>
	</g>
</g>
<g>
</g>
<g>
</g>
<g>
</g>
<g>
</g>
<g>
</g>
<g>
</g>
<g>
</g>
<g>
</g>
<g>
</g>
<g>
</g>
<g>
</g>
<g>
</g>
<g>
</g>
<g>
</g>
<g>
</g>
</svg>
