<?xml version="1.0" encoding="iso-8859-1"?>
<!-- Generator: Adobe Illustrator 19.0.0, SVG Export Plug-In . SVG Version: 6.00 Build 0)  -->
<svg version="1.1" id="Capa_1" xmlns="http://www.w3.org/2000/svg" xmlns:xlink="http://www.w3.org/1999/xlink" x="0px" y="0px"
	 viewBox="0 0 512 512" style="enable-background:new 0 0 512 512;" xml:space="preserve">
<g>
	<g transform="translate(1 1)">
		<path style="fill:#6A1B9A;" d="M255,7.533c-307.2,0-187.733,332.8-187.733,332.8S101.4,434.2,101.4,451.267h-8.533
			c-9.414,0.027-17.039,7.652-17.067,17.067c0.135,18.795,15.338,33.999,34.133,34.133h290.133
			c18.828-0.055,34.078-15.305,34.133-34.133c-0.068-9.397-7.669-16.998-17.067-17.067H408.6
			c0-17.067,34.133-110.933,34.133-110.933S562.2,7.533,255,7.533z"/>
		<g>
			<path style="fill:#4E342E;" d="M235.544,209.176c0.598,15.616,1.792,26.283,1.792,26.283
				c-25.023-12.105-45.25-32.271-57.429-57.259c5.822-13.316,13.65-25.662,23.211-36.608
				C206.519,166.979,217.87,190.637,235.544,209.176z"/>
			<path style="fill:#4E342E;" d="M417.133,283.587V255c0-2.816-0.085-5.717-0.171-8.533
				c-3.783-71.656-54.222-132.301-123.989-149.077c-2.816,2.683-5.23,5.758-7.168,9.131
				c-24.491,39.424-14.251,128.939-14.251,128.939c-13.377-6.706-25.546-15.587-36.011-26.283
				c0.598,15.616,1.792,26.283,1.792,26.283c-25.023-12.105-45.25-32.271-57.429-57.259c-10.803,24.698-19.065,50.43-24.66,76.8
				c-10.23-10.036-18.787-21.646-25.344-34.389c-8.102-15.72-12.482-33.091-12.8-50.773h-0.085
				c-9.899,15.976-16.918,33.566-20.737,51.968c-1.73,8.122-2.815,16.368-3.243,24.661c-0.085,2.816-0.171,5.717-0.171,8.533v28.587
				c0,0-7.595,155.819,134.913,213.675c3.286,1.347,6.684,2.403,10.154,3.157c14.733,3.562,30.209,2.458,44.287-3.157
				C424.728,439.405,417.133,283.587,417.133,283.587z"/>
		</g>
		<g>
			<path style="fill:#795548;" d="M248.002,497.261c-3.257,1.347-6.626,2.403-10.069,3.157c-3.47-0.754-6.868-1.811-10.154-3.157
				C85.272,439.405,92.866,283.587,92.866,283.587V255c0-2.816,0.085-5.717,0.171-8.533c0.428-8.293,1.512-16.539,3.243-24.661
				c3.819-18.402,10.838-35.992,20.737-51.968h0.085c0.318,17.682,4.698,35.054,12.8,50.773
				c6.557,12.743,15.114,24.353,25.344,34.389c5.595-26.37,13.858-52.102,24.661-76.8c12.179,24.987,32.406,45.154,57.429,57.259
				c0,0-1.194-10.667-1.792-26.283c10.465,10.695,22.634,19.577,36.011,26.283c0,0-10.24-89.515,14.251-128.939
				c56.211,24.524,93.74,78.703,96.939,139.947c0.085,2.816,0.171,5.717,0.171,8.533v28.587
				C382.914,283.587,390.509,439.405,248.002,497.261z"/>
			<path style="fill:#795548;" d="M168.897,141.592c1.798,12.689,5.51,25.032,11.009,36.608c-10.803,24.698-19.065,50.43-24.66,76.8
				c-10.23-10.036-18.787-21.646-25.344-34.389C137.752,194.925,150.722,160.877,168.897,141.592z"/>
			<path style="fill:#795548;" d="M271.554,235.459c-13.377-6.706-25.546-15.587-36.011-26.283
				c-1.279-33.536,0.341-89.771,23.211-111.787c9.282,2.193,18.339,5.249,27.051,9.131
				C261.314,145.944,271.554,235.459,271.554,235.459z"/>
		</g>
		<g>
			<path style="fill:#009688;" d="M161.133,289.133H203.8v21.333c0,5.658-2.248,11.084-6.248,15.085
				c-4.001,4.001-9.427,6.248-15.085,6.248c-11.782,0-21.333-9.551-21.333-21.333V289.133z"/>
			<path style="fill:#009688;" d="M327.533,331.8c-5.658,0-11.084-2.248-15.085-6.248c-4.001-4.001-6.248-9.427-6.248-15.085
				v-21.333h42.667v21.333C348.866,322.249,339.315,331.8,327.533,331.8z"/>
		</g>
		<path style="fill:#9D27B0;" d="M417.133,218.563v27.904h-0.171c-3.783-71.656-54.222-132.301-123.989-149.077
			c-12.431-3.025-25.18-4.543-37.973-4.523c-86.23,0.018-157.378,67.492-161.963,153.6h-0.171v-27.904
			c0-97.707,72.619-176.896,162.133-176.896S417.133,120.856,417.133,218.563z"/>
		<g>
			<path style="fill:#4E342E;" d="M203.116,141.592C171.116,175.469,155.245,255,155.245,255
				c-23.523-22.193-37.247-52.835-38.144-85.163h-0.085c19.834-32.092,50.213-56.287,85.93-68.437v0.085
				C201.075,114.793,201.132,128.301,203.116,141.592z"/>
			<path style="fill:#4E342E;" d="M271.554,235.459c-37.207-17.716-62.95-53.024-68.437-93.867
				c-1.984-13.291-2.041-26.799-0.17-40.107V101.4c16.767-5.676,34.352-8.559,52.053-8.533c12.793-0.021,25.543,1.498,37.973,4.523
				C259.437,129.645,271.554,235.459,271.554,235.459z"/>
		</g>
	</g>
	<g>
		<path d="M213.333,311.467v-21.333c0.001-2.263-0.898-4.434-2.499-6.035c-1.6-1.6-3.771-2.499-6.035-2.499h-59.733
			c-4.713,0-8.533,3.821-8.533,8.533c0,4.713,3.821,8.533,8.533,8.533h8.533v12.8c0,16.495,13.372,29.867,29.867,29.867
			S213.333,327.962,213.333,311.467z M196.266,311.467c0,7.069-5.731,12.8-12.8,12.8c-7.069,0-12.8-5.731-12.8-12.8v-12.8h25.6
			V311.467z"/>
		<path d="M328.533,341.333c16.487-0.02,29.847-13.38,29.867-29.867v-12.8h8.533c4.713,0,8.533-3.821,8.533-8.533
			c0-4.713-3.82-8.533-8.533-8.533H307.2c-2.263-0.001-4.434,0.898-6.035,2.499s-2.499,3.771-2.499,6.035v21.333
			C298.686,327.953,312.046,341.313,328.533,341.333z M341.333,298.667v12.8c0,7.069-5.731,12.8-12.8,12.8
			c-7.069,0-12.8-5.731-12.8-12.8v-12.8H341.333z"/>
		<path d="M238.933,384h34.133c4.713,0,8.533-3.821,8.533-8.533c0-4.713-3.82-8.533-8.533-8.533h-34.133
			c-4.713,0-8.533,3.821-8.533,8.533C230.4,380.18,234.22,384,238.933,384z"/>
		<path d="M256,349.867c2.263,0.001,4.434-0.898,6.035-2.499c1.6-1.6,2.499-3.771,2.499-6.035v-17.067
			c0-4.713-3.82-8.533-8.533-8.533s-8.533,3.821-8.533,8.533v17.067c-0.001,2.263,0.898,4.434,2.499,6.035
			C251.565,348.968,253.736,349.867,256,349.867z"/>
		<path d="M315.733,247.467h51.2c4.711,0.005,8.529,3.822,8.533,8.533v8.533c0,4.713,3.82,8.533,8.533,8.533s8.533-3.82,8.533-8.533
			V256c-0.015-14.132-11.468-25.585-25.6-25.6h-51.2c-4.713,0-8.533,3.821-8.533,8.533
			C307.2,243.646,311.02,247.467,315.733,247.467z"/>
		<path d="M315.733,418.133c0.001-2.263-0.898-4.434-2.499-6.035c-1.6-1.6-3.771-2.499-6.035-2.499H204.8
			c-4.713,0-8.533,3.82-8.533,8.533s3.821,8.533,8.533,8.533h102.4c2.263,0.001,4.434-0.898,6.035-2.499
			C314.835,422.568,315.733,420.397,315.733,418.133z"/>
		<path d="M290.133,452.267v-8.533c0-4.713-3.82-8.533-8.533-8.533s-8.533,3.821-8.533,8.533h-34.133
			c-4.713,0-8.533,3.82-8.533,8.533s3.82,8.533,8.533,8.533H281.6c2.263,0.001,4.434-0.898,6.035-2.499
			C289.235,456.701,290.133,454.53,290.133,452.267z"/>
		<path d="M256,0C169.808,0,107.95,25.808,72.141,76.704C1.483,177.142,57.8,337.442,60.25,344.25
			c11.027,30.341,27.506,78.718,32.253,99.621c-13.558,0.705-24.201,11.885-24.236,25.462c0.028,23.553,19.114,42.639,42.667,42.667
			h290.133c23.553-0.028,42.639-19.114,42.667-42.667c-0.036-13.577-10.678-24.757-24.236-25.462
			c4.747-20.904,21.228-69.286,32.27-99.655c2.433-6.775,58.75-167.075-11.908-267.513C404.05,25.808,342.191,0,256,0z
			 M231.95,490.325C96.933,435.483,102.1,291.092,102.391,284.975c-0.022-0.639-0.12-1.274-0.292-1.89
			c0.146-0.484,0.247-0.982,0.3-1.485V256c0.015-19.484,3.762-38.786,11.038-56.86c3.304,13.038,8.676,25.463,15.91,36.802
			c-6.204,4.81-9.848,12.208-9.881,20.058v8.533c0,4.713,3.821,8.533,8.533,8.533s8.533-3.82,8.533-8.533V256
			c0.035-2.343,1.052-4.563,2.802-6.12c3.415,4.234,7.044,8.29,10.873,12.153c2.225,2.226,5.495,3.046,8.507,2.133
			s5.277-3.409,5.893-6.496c0.034-0.168,0.846-4.082,2.335-10.204h29.323c4.713,0,8.533-3.821,8.533-8.533
			c0-4.713-3.821-8.533-8.533-8.533h-24.802c6.303-23.827,15.784-46.697,28.187-67.996c10.252,35.839,35.376,65.563,69.006,81.642
			c2.799,1.438,6.163,1.218,8.751-0.572c2.588-1.79,3.981-4.86,3.624-7.987c-3.094-27.042-5.837-100.043,15.829-127.397
			C363.38,126.501,409.479,186.981,409.6,256v25.6c0.053,0.501,0.153,0.996,0.298,1.478c-0.17,0.622-0.267,1.261-0.29,1.905
			c0.075,1.496,5.742,150.388-129.558,205.338c-7.638,3.057-15.79,4.623-24.017,4.612h-0.067
			C247.74,494.942,239.588,493.378,231.95,490.325z M297.491,90.647c-0.539-0.201-1.098-0.345-1.667-0.43
			c-30.986-7.667-63.522-6.284-93.746,3.985c-0.305,0.092-0.604,0.201-0.896,0.329c-37.15,12.707-68.806,37.792-89.668,71.055
			c-0.579,0.68-1.047,1.449-1.384,2.276c-0.188,0.31-0.378,0.618-0.565,0.929C129.259,100.7,187.442,51.2,256,51.2
			s126.741,49.5,146.433,117.591C379.193,129.863,341.447,101.756,297.491,90.647z M262.7,220.796
			c-27.502-17.902-45.816-46.921-50.142-79.45c-1.574-10.722-1.847-21.595-0.811-32.382c21.692-6.695,44.635-8.297,67.046-4.681
			C260.264,136.073,260.981,192.689,262.7,220.796z M151.65,238.096c-15.052-18.372-23.769-41.114-24.852-64.84
			c16.329-25.437,39.764-45.522,67.4-57.766c-0.325,8.136,0.005,16.285,0.987,24.368
			C172.275,166.502,157.958,213.349,151.65,238.096z M435.716,338.417c-12.966,34.511-24.159,69.663-33.535,105.317h-1.115
			c-4.713,0-8.533,3.82-8.533,8.533s3.82,8.533,8.533,8.533h17.067c4.711,0.005,8.529,3.822,8.533,8.533
			c-0.015,14.132-11.468,25.585-25.6,25.6h-90.979c122.031-66.198,116.642-209.255,116.571-210.783
			c-0.067-0.372-0.163-0.739-0.285-1.096c0.142-0.475,0.241-0.961,0.294-1.454V256c0-2.302-0.254-4.54-0.346-6.82
			c0.177-0.557,0.292-1.132,0.346-1.714v-27.93c0-102.233-76.558-185.404-170.667-185.404S85.333,117.304,85.333,219.537v27.93
			c0.053,0.582,0.169,1.156,0.346,1.712c-0.091,2.281-0.346,4.518-0.346,6.821v25.6c0.053,0.491,0.151,0.976,0.293,1.449
			c-0.121,0.36-0.216,0.727-0.284,1.101c-0.071,1.528-5.458,144.58,116.562,210.783h-90.971c-14.132-0.015-25.585-11.468-25.6-25.6
			c0.005-4.711,3.822-8.529,8.533-8.533h17.067c4.713,0,8.533-3.821,8.533-8.533c0-4.713-3.82-8.533-8.533-8.533h-1.115
			c-9.373-35.641-20.561-70.78-33.519-105.279c-0.566-1.579-55.75-158.821,9.834-251.971C118.558,40.421,175.708,17.067,256,17.067
			s137.442,23.354,169.867,69.417C491.45,179.633,436.266,336.875,435.716,338.417z"/>
	</g>
</g>
<g>
</g>
<g>
</g>
<g>
</g>
<g>
</g>
<g>
</g>
<g>
</g>
<g>
</g>
<g>
</g>
<g>
</g>
<g>
</g>
<g>
</g>
<g>
</g>
<g>
</g>
<g>
</g>
<g>
</g>
</svg>
