<?xml version="1.0" encoding="iso-8859-1"?>
<!-- Generator: Adobe Illustrator 19.0.0, SVG Export Plug-In . SVG Version: 6.00 Build 0)  -->
<svg version="1.1" id="Capa_1" xmlns="http://www.w3.org/2000/svg" xmlns:xlink="http://www.w3.org/1999/xlink" x="0px" y="0px"
	 viewBox="0 0 503.713 503.713" style="enable-background:new 0 0 503.713 503.713;" xml:space="preserve">
<g>
	<g transform="translate(1 1)">
		<g>
			<path style="fill:#FFE0B2;" d="M114.153,183.762v83.934H70.993c-10.537,1.118-20.071-6.298-21.58-16.787v-50.361
				c1.508-10.489,11.042-17.905,21.58-16.787H114.153z"/>
			<path style="fill:#FFE0B2;" d="M452.299,200.549v50.361c-1.124,10.208-10.183,17.656-20.415,16.787h-40.831v-83.934h40.831
				C442.116,182.893,451.175,190.342,452.299,200.549z"/>
		</g>
		<g>
			<path style="fill:#CC4B4C;" d="M99.775,234.123h-25.18c-4.636,0-8.393-3.758-8.393-8.393c0-4.636,3.758-8.393,8.393-8.393h25.18
				c4.636,0,8.393,3.758,8.393,8.393C108.168,230.365,104.41,234.123,99.775,234.123z"/>
			<path style="fill:#CC4B4C;" d="M427.119,234.123h-25.18c-4.636,0-8.393-3.758-8.393-8.393c0-4.636,3.758-8.393,8.393-8.393h25.18
				c4.636,0,8.393,3.758,8.393,8.393C435.512,230.365,431.754,234.123,427.119,234.123z"/>
		</g>
		<path style="fill:#BFB186;" d="M309.611,469.139h-0.336c-1.028,13.586-11.918,24.333-25.516,25.18H261.18
			c-6.078-0.498-10.655-5.745-10.324-11.835c0.331,6.09-4.246,11.337-10.324,11.835h-22.998c-0.338,0.014-0.677-0.014-1.008-0.084
			c-12.976-1.572-23.05-12.067-24.089-25.096h-0.336C49.414,368.418,99.775,267.697,99.775,267.697V133.402
			c4.041-51.667,36.635-96.736,84.438-116.753c14.898-6.065,30.834-9.172,46.919-9.149l19.725-0.084L270.581,7.5
			c67.399,0,124.894,54.138,131.357,125.902v134.295C401.939,267.697,452.299,368.418,309.611,469.139z"/>
		<path style="fill:#FFE0B2;" d="M275.785,477.617h-0.336c-0.838,6.168-3.431,11.966-7.47,16.703h-6.799
			c-6.078-0.498-10.655-5.745-10.324-11.835c0.331,6.09-4.246,11.337-10.324,11.835h-22.998c-0.344-1.143-0.514-2.332-0.504-3.525
			c0.004,1.166-0.166,2.325-0.504,3.441c-12.976-1.572-23.05-12.067-24.089-25.096h-0.336
			C49.414,368.418,99.775,267.697,99.775,267.697V133.402c4.041-51.667,36.635-96.736,84.438-116.753
			c4.281-0.42,8.645-0.671,13.094-0.671l19.725-0.084l19.725,0.084c67.399,0,124.894,54.138,131.357,125.902v134.295
			C368.113,276.174,418.474,376.895,275.785,477.617z"/>
		<g>
			<path style="fill:#2296F3;" d="M166.922,225.73h33.574v16.787c0,9.271-7.516,16.787-16.787,16.787s-16.787-7.516-16.787-16.787
				V225.73z"/>
			<path style="fill:#2296F3;" d="M301.217,225.73h33.574v16.787c0,9.271-7.516,16.787-16.787,16.787s-16.787-7.516-16.787-16.787
				V225.73z"/>
		</g>
		<g>
			<path style="fill:#BDC3C7;" d="M318.004,57.861c-0.563-0.019-1.124-0.075-1.68-0.168c-0.525-0.093-1.033-0.263-1.508-0.504
				c-0.537-0.184-1.047-0.439-1.516-0.758c-0.418-0.332-0.836-0.668-1.254-1.004c-3.246-3.31-3.246-8.608,0-11.918
				c0.397-0.362,0.815-0.699,1.254-1.008c0.47-0.319,0.98-0.574,1.516-0.758c0.475-0.242,0.983-0.41,1.508-0.5
				c1.08-0.211,2.191-0.211,3.271,0c0.557,0.077,1.097,0.246,1.598,0.5c0.516,0.168,0.998,0.425,1.426,0.758
				c0.482,0.288,0.933,0.626,1.345,1.008c0.777,0.787,1.378,1.73,1.763,2.766c0.431,1.01,0.659,2.095,0.672,3.193
				c-0.034,2.222-0.903,4.349-2.434,5.959c-0.418,0.336-0.844,0.672-1.344,1.004c-0.428,0.333-0.91,0.59-1.426,0.758
				c-0.502,0.253-1.042,0.424-1.598,0.504C319.069,57.789,318.538,57.845,318.004,57.861z"/>
			<path style="fill:#BDC3C7;" d="M343.184,83.041c-2.222-0.033-4.35-0.902-5.959-2.434c-0.776-0.789-1.377-1.733-1.763-2.771
				c-0.43-1.009-0.658-2.092-0.671-3.189c0.014-2.226,0.886-4.361,2.434-5.959c2.401-2.421,6.029-3.149,9.178-1.841
				c3.149,1.308,5.195,4.391,5.175,7.801c-0.013,1.097-0.242,2.18-0.672,3.188c-0.386,1.037-0.987,1.981-1.763,2.771
				C347.533,82.137,345.406,83.006,343.184,83.041z"/>
			<path style="fill:#BDC3C7;" d="M359.971,108.221c-1.101,0.029-2.193-0.202-3.189-0.672c-1.027-0.406-1.967-1.005-2.771-1.763
				c-1.535-1.608-2.404-3.736-2.434-5.959c0.013-1.098,0.241-2.183,0.672-3.193c0.767-2.106,2.426-3.765,4.532-4.532
				c1.532-0.668,3.234-0.843,4.869-0.5c0.525,0.091,1.033,0.26,1.508,0.5c0.534,0.184,1.042,0.439,1.508,0.758
				c0.441,0.309,0.863,0.646,1.263,1.008c3.246,3.31,3.246,8.608,0,11.918c-0.399,0.361-0.821,0.696-1.262,1.004
				c-0.467,0.319-0.974,0.574-1.508,0.758c-0.476,0.24-0.984,0.41-1.508,0.504C361.096,108.145,360.535,108.201,359.971,108.221z"/>
			<path style="fill:#BDC3C7;" d="M368.365,141.795c-2.222-0.033-4.35-0.902-5.959-2.434c-0.758-0.803-1.357-1.743-1.763-2.771
				c-0.43-1.009-0.658-2.092-0.671-3.189c0-4.636,3.758-8.393,8.393-8.393s8.393,3.758,8.393,8.393
				c-0.013,1.097-0.242,2.18-0.672,3.189c-0.406,1.027-1.004,1.968-1.763,2.771c-0.418,0.336-0.844,0.672-1.344,1.004
				c-0.428,0.333-0.911,0.59-1.426,0.758c-0.502,0.253-1.042,0.424-1.598,0.504C369.43,141.724,368.898,141.78,368.365,141.795z"/>
			<path style="fill:#BDC3C7;" d="M326.398,108.221c-2.233,0.022-4.38-0.856-5.959-2.434c-1.579-1.579-2.456-3.726-2.434-5.959
				c0.013-1.098,0.241-2.183,0.672-3.193c0.426-1.016,1.022-1.951,1.763-2.766c2.002-1.931,4.814-2.776,7.549-2.266
				c0.557,0.077,1.097,0.246,1.598,0.5c0.516,0.168,0.998,0.425,1.426,0.758c0.5,0.336,0.926,0.672,1.344,1.008
				c3.246,3.31,3.246,8.608,0,11.918c-0.412,0.381-0.862,0.718-1.344,1.004c-0.428,0.333-0.91,0.59-1.426,0.758
				c-0.502,0.253-1.042,0.424-1.598,0.504C327.463,108.15,326.931,108.206,326.398,108.221z"/>
			<path style="fill:#BDC3C7;" d="M309.611,83.041c-3.394-0.013-6.449-2.061-7.75-5.196c-1.301-3.134-0.596-6.744,1.791-9.157
				c2.435-2.339,6.017-3.031,9.147-1.766c1.027,0.408,1.967,1.008,2.771,1.766c0.759,0.801,1.358,1.74,1.763,2.766
				c0.431,1.01,0.659,2.095,0.671,3.193c-0.017,2.225-0.889,4.358-2.434,5.959C313.96,82.138,311.832,83.007,309.611,83.041z"/>
			<path style="fill:#BDC3C7;" d="M284.43,57.861c-0.536-0.015-1.071-0.071-1.598-0.168c-0.554-0.081-1.091-0.251-1.59-0.504
				c-0.537-0.184-1.047-0.439-1.516-0.758c-0.418-0.332-0.836-0.668-1.254-1.004c-0.336-0.422-0.672-0.84-1.008-1.258
				c-0.319-0.467-0.573-0.976-0.754-1.512c-0.43-1.009-0.659-2.092-0.672-3.189c0.029-2.223,0.899-4.352,2.434-5.959l1.254-1.008
				c0.47-0.319,0.98-0.574,1.516-0.758c0.499-0.254,1.036-0.423,1.59-0.5c2.737-0.497,5.546,0.345,7.557,2.266
				c1.532,1.609,2.401,3.737,2.434,5.959c-0.013,1.097-0.242,2.18-0.672,3.188c-0.185,0.535-0.438,1.043-0.754,1.512
				c-0.336,0.418-0.672,0.836-1.008,1.258C288.779,56.957,286.652,57.826,284.43,57.861z"/>
			<path style="fill:#BDC3C7;" d="M183.709,57.861c-2.222-0.033-4.35-0.902-5.959-2.434c-0.758-0.803-1.357-1.743-1.763-2.771
				c-0.43-1.009-0.658-2.092-0.671-3.189c0.029-2.223,0.899-4.352,2.434-5.959c2.431-2.346,6.017-3.039,9.148-1.766
				c1.027,0.408,1.967,1.008,2.771,1.766c0.336,0.418,0.672,0.836,1.008,1.258c0.315,0.468,0.569,0.975,0.754,1.508
				c0.256,0.501,0.425,1.041,0.5,1.598c0.102,0.526,0.159,1.059,0.172,1.595c0.022,2.233-0.856,4.38-2.434,5.959
				C188.089,57.005,185.942,57.882,183.709,57.861z"/>
			<path style="fill:#BDC3C7;" d="M158.529,83.041c-3.394-0.013-6.449-2.061-7.75-5.196c-1.301-3.134-0.596-6.744,1.791-9.157
				c0.802-0.76,1.743-1.36,2.771-1.766c1.501-0.663,3.173-0.838,4.779-0.5c0.557,0.077,1.097,0.246,1.598,0.5
				c0.534,0.184,1.041,0.439,1.508,0.758c0.418,0.336,0.844,0.672,1.262,1.008c3.246,3.31,3.246,8.608,0,11.918
				c-0.399,0.361-0.821,0.696-1.262,1.004c-0.467,0.319-0.974,0.574-1.508,0.758c-0.502,0.253-1.042,0.424-1.598,0.504
				C159.594,82.969,159.062,83.026,158.529,83.041z"/>
			<path style="fill:#BDC3C7;" d="M141.742,108.221c-1.097-0.013-2.18-0.242-3.189-0.672c-1.027-0.406-1.967-1.005-2.771-1.763
				c-1.535-1.608-2.404-3.736-2.434-5.959c-0.031-1.102,0.199-2.196,0.672-3.193c0.426-1.016,1.022-1.951,1.763-2.766
				c0.802-0.76,1.743-1.36,2.771-1.766c1.501-0.663,3.173-0.838,4.779-0.5c0.557,0.077,1.097,0.246,1.598,0.5
				c0.534,0.184,1.041,0.439,1.508,0.758c0.441,0.309,0.863,0.646,1.262,1.008c0.759,0.801,1.358,1.74,1.763,2.766
				c0.431,1.01,0.659,2.095,0.671,3.193c-0.034,2.222-0.903,4.349-2.434,5.959c-0.399,0.361-0.821,0.696-1.262,1.004
				c-0.467,0.319-0.974,0.574-1.508,0.758c-0.502,0.253-1.042,0.424-1.598,0.504C142.807,108.15,142.275,108.206,141.742,108.221z"
				/>
			<path style="fill:#BDC3C7;" d="M133.348,141.795c-1.097-0.013-2.18-0.242-3.189-0.672c-2.108-0.764-3.768-2.424-4.532-4.532
				c-0.43-1.009-0.659-2.092-0.672-3.189c0.029-2.223,0.899-4.352,2.434-5.959c0.802-0.76,1.743-1.36,2.771-1.766
				c1.501-0.663,3.173-0.838,4.779-0.5c0.557,0.077,1.097,0.246,1.598,0.5c0.516,0.168,0.998,0.425,1.426,0.758
				c0.471,0.268,0.897,0.608,1.262,1.008c1.582,1.58,2.471,3.723,2.471,5.959s-0.889,4.38-2.471,5.959
				c-0.387,0.375-0.81,0.712-1.262,1.004c-0.428,0.333-0.911,0.59-1.426,0.758c-0.502,0.253-1.042,0.424-1.598,0.504
				C134.413,141.723,133.882,141.78,133.348,141.795z"/>
			<path style="fill:#BDC3C7;" d="M175.316,108.221c-2.233,0.022-4.38-0.856-5.959-2.434c-1.579-1.579-2.456-3.726-2.434-5.959
				c0.018-0.563,0.073-1.124,0.164-1.68c0.095-0.526,0.266-1.036,0.508-1.512c0.166-0.516,0.421-0.999,0.754-1.426
				c0.288-0.481,0.626-0.93,1.008-1.341c3.365-3.107,8.553-3.107,11.918,0c0.336,0.418,0.672,0.836,1.008,1.34
				c0.33,0.43,0.585,0.912,0.754,1.426c0.243,0.475,0.412,0.985,0.5,1.512c0.098,0.555,0.156,1.117,0.172,1.681
				c0.022,2.233-0.856,4.38-2.434,5.959C179.696,107.366,177.548,108.243,175.316,108.221z"/>
			<path style="fill:#BDC3C7;" d="M192.102,83.041c-0.563-0.019-1.124-0.075-1.68-0.168c-0.525-0.093-1.033-0.263-1.508-0.504
				c-0.537-0.184-1.047-0.439-1.516-0.758c-0.418-0.332-0.836-0.668-1.254-1.004c-0.758-0.803-1.357-1.743-1.763-2.771
				c-0.896-2.033-0.896-4.348,0-6.381c0.426-1.016,1.022-1.952,1.763-2.767l1.254-1.008c0.47-0.319,0.98-0.574,1.516-0.758
				c0.475-0.241,0.983-0.41,1.508-0.5c3.632-0.726,7.312,1.005,9.068,4.266c1.756,3.261,1.177,7.286-1.428,9.919
				C196.451,82.138,194.324,83.007,192.102,83.041z"/>
			<path style="fill:#BDC3C7;" d="M217.283,57.861c-0.563-0.019-1.124-0.075-1.68-0.168c-0.525-0.093-1.033-0.263-1.508-0.504
				c-0.537-0.184-1.047-0.439-1.516-0.758c-0.418-0.332-0.836-0.668-1.254-1.004c-3.246-3.31-3.246-8.608,0-11.918
				c3.342-3.166,8.576-3.166,11.918,0c3.246,3.31,3.246,8.608,0,11.918C221.631,56.957,219.504,57.826,217.283,57.861z"/>
		</g>
	</g>
	<g>
		<path d="M219.168,290.123c-2.059,4.123-0.395,9.136,3.721,11.209c1.169,0.6,2.465,0.912,3.779,0.91
			c3.153-0.001,6.043-1.76,7.492-4.561c3.505-6.754,10.137-11.325,17.697-12.197c7.561,0.865,14.195,5.436,17.697,12.193
			c2.086,4.14,7.133,5.805,11.273,3.719c4.14-2.086,5.805-7.133,3.719-11.273c-6.335-12.425-18.768-20.574-32.689-21.426
			C237.936,269.549,225.503,277.698,219.168,290.123z"/>
		<path d="M209.889,243.516v-8.393h8.393c4.636,0,8.393-3.758,8.393-8.393c0-4.636-3.758-8.393-8.393-8.393h-67.148
			c-4.636,0-8.393,3.758-8.393,8.393c0,4.636,3.758,8.393,8.393,8.393h8.393v8.393c0,13.907,11.274,25.18,25.18,25.18
			C198.616,268.697,209.889,257.423,209.889,243.516z M176.316,243.516v-8.393h16.787v8.393c0,4.636-3.758,8.393-8.393,8.393
			C180.073,251.91,176.316,248.152,176.316,243.516z"/>
		<path d="M277.037,226.73c-0.001,2.226,0.884,4.361,2.458,5.936c1.574,1.574,3.709,2.458,5.936,2.458h8.393v8.393
			c0,13.907,11.274,25.18,25.18,25.18s25.18-11.274,25.18-25.18v-8.393h8.393c4.636,0,8.393-3.758,8.393-8.393
			c0-4.636-3.758-8.393-8.393-8.393H285.43c-2.226-0.001-4.362,0.884-5.936,2.458C277.92,222.368,277.036,224.503,277.037,226.73z
			 M327.398,235.123v8.393c0,4.636-3.758,8.393-8.393,8.393c-4.636,0-8.393-3.758-8.393-8.393v-8.393H327.398z"/>
		<path d="M260.25,243.516v-8.393c0-4.636-3.758-8.393-8.393-8.393c-4.636,0-8.393,3.758-8.393,8.393v8.393
			c0,4.636,3.758,8.393,8.393,8.393C256.492,251.91,260.25,248.152,260.25,243.516z"/>
		<path d="M251.857,428.172c-2.226-0.001-4.362,0.884-5.936,2.458c-1.574,1.574-2.458,3.709-2.458,5.936v8.393
			c0,4.636,3.758,8.393,8.393,8.393c4.636,0,8.393-3.758,8.393-8.393v-8.393c0.001-2.226-0.884-4.361-2.458-5.936
			C256.218,429.056,254.083,428.172,251.857,428.172z"/>
		<path d="M92.381,176.369h-25.18c-13.9,0.015-25.165,11.28-25.18,25.18v50.361c0.015,13.9,11.28,25.165,25.18,25.18h21.756
			c-8.689,30.78-18.503,115.418,96.974,198.19c1.302,5.612,3.799,10.878,7.32,15.437c6.097,8.07,15.583,12.868,25.697,12.996h22.582
			c3.717-0.013,7.333-1.206,10.328-3.408c2.994,2.202,6.611,3.395,10.328,3.408h22.582c10.114-0.128,19.6-4.926,25.697-12.996
			c3.521-4.56,6.018-9.825,7.32-15.437c115.477-82.771,105.663-167.41,96.974-198.19h21.756c13.9-0.015,25.165-11.28,25.18-25.18
			v-50.361c-0.015-13.9-11.28-25.165-25.18-25.18h-25.18v-41.967c0-0.132-0.069-0.241-0.075-0.371
			c-0.006-0.13,0.054-0.247,0.042-0.379C404.479,57.521,344.414,0.107,271.643,0.107L251.906,0h-0.098l-19.689,0.107
			c-72.82,0-132.885,57.414-139.705,133.545c-0.012,0.132,0.048,0.249,0.042,0.38c-0.006,0.131-0.075,0.239-0.075,0.37V176.369z
			 M58.807,251.91v-50.361c0.005-4.634,3.76-8.389,8.393-8.393h25.18v25.18H75.594c-4.636,0-8.393,3.758-8.393,8.393
			c0,4.636,3.758,8.393,8.393,8.393h16.787v25.18h-25.18C62.567,260.299,58.812,256.544,58.807,251.91z M444.906,201.549v50.361
			c-0.005,4.634-3.76,8.389-8.393,8.393h-25.18v-25.18h16.787c4.636,0,8.393-3.758,8.393-8.393c0-4.636-3.758-8.393-8.393-8.393
			h-16.787v-25.18h25.18C441.146,193.16,444.901,196.916,444.906,201.549z M232.168,16.893l19.688-0.106l19.738,0.106
			c63.995,0,116.803,50.719,122.951,118.014v133.789c0,0.089,0.048,0.163,0.05,0.252c0.184,1.098,0.44,2.183,0.766,3.248
			c0.038,0.083,0.028,0.172,0.069,0.254c0.461,0.914,42.854,89.706-77.811,182.113l-0.795-3.223
			c-1.116-4.495-5.661-7.236-10.157-6.125s-7.243,5.653-6.138,10.15l0.926,3.746c1.904,7.354,0.357,15.175-4.205,21.25
			c-2.906,4.019-7.525,6.448-12.483,6.565h-22.582c-0.68,0-1.934-1.365-1.934-3.598V471.34c0-4.636-3.758-8.393-8.393-8.393
			c-4.636,0-8.393,3.758-8.393,8.393v11.988c0,2.234-1.254,3.598-1.934,3.598h-22.582c-4.959-0.117-9.577-2.546-12.484-6.566
			c-4.561-6.072-6.109-13.89-4.205-21.242l0.926-3.754c1.105-4.497-1.642-9.04-6.138-10.15c-4.496-1.11-9.042,1.631-10.157,6.125
			l-0.796,3.232c-120.093-91.812-79.662-178.344-77.803-182.146c0.037-0.074,0.028-0.156,0.062-0.231
			c0.323-1.066,0.579-2.152,0.765-3.251c0.003-0.088,0.05-0.16,0.05-0.248V134.908C115.316,67.613,168.124,16.893,232.168,16.893z"
			/>
		<path d="M319.004,335.844H184.709c-4.636,0-8.393,3.758-8.393,8.393s3.758,8.393,8.393,8.393h134.295
			c4.636,0,8.393-3.758,8.393-8.393S323.64,335.844,319.004,335.844z"/>
		<path d="M293.824,361.025c-2.226-0.001-4.361,0.884-5.936,2.458c-1.574,1.574-2.458,3.709-2.458,5.936h-75.541
			c-4.636,0-8.393,3.758-8.393,8.393s3.758,8.393,8.393,8.393h83.934c2.226,0.001,4.362-0.884,5.936-2.458
			c1.574-1.574,2.458-3.709,2.458-5.936v-8.393c0.001-2.226-0.884-4.362-2.458-5.936
			C298.185,361.908,296.05,361.024,293.824,361.025z"/>
		<path d="M314.299,57.43c0.47,0.319,0.98,0.574,1.516,0.758c0.475,0.241,0.983,0.411,1.508,0.504
			c0.556,0.092,1.117,0.149,1.68,0.168c0.534-0.015,1.065-0.071,1.59-0.168c0.557-0.081,1.096-0.251,1.598-0.504
			c0.516-0.168,0.998-0.425,1.426-0.758c0.5-0.332,0.926-0.668,1.345-1.004c1.531-1.61,2.4-3.738,2.434-5.959
			c-0.013-1.098-0.241-2.183-0.672-3.193c-0.385-1.037-0.985-1.98-1.762-2.767c-0.411-0.382-0.862-0.72-1.344-1.008
			c-0.428-0.333-0.91-0.59-1.426-0.758c-0.502-0.254-1.042-0.423-1.599-0.5c-1.08-0.211-2.191-0.211-3.271,0
			c-0.525,0.09-1.033,0.259-1.508,0.5c-0.537,0.184-1.047,0.439-1.516,0.758c-0.439,0.31-0.858,0.646-1.254,1.008
			c-3.246,3.31-3.246,8.608,0,11.918C313.463,56.762,313.881,57.098,314.299,57.43z"/>
		<path d="M338.225,81.607c3.31,3.246,8.608,3.246,11.918,0c0.776-0.789,1.377-1.733,1.763-2.771
			c0.43-1.009,0.659-2.092,0.672-3.189c0.02-3.41-2.025-6.493-5.175-7.801c-3.149-1.308-6.777-0.58-9.178,1.841
			c-1.549,1.599-2.421,3.734-2.434,5.959c0.013,1.097,0.242,2.18,0.672,3.188C336.849,79.873,337.449,80.818,338.225,81.607z"/>
		<path d="M355.012,106.787c0.803,0.758,1.744,1.356,2.771,1.763c0.996,0.47,2.088,0.7,3.189,0.671
			c0.563-0.02,1.124-0.076,1.68-0.168c0.524-0.095,1.032-0.264,1.508-0.504c0.534-0.184,1.042-0.439,1.508-0.758
			c0.441-0.308,0.863-0.643,1.263-1.004c3.246-3.31,3.246-8.608,0-11.918c-0.399-0.362-0.821-0.699-1.262-1.008
			c-0.467-0.319-0.974-0.574-1.508-0.758c-0.475-0.241-0.984-0.409-1.508-0.5c-1.635-0.343-3.337-0.168-4.869,0.5
			c-2.106,0.767-3.765,2.426-4.532,4.532c-0.431,1.01-0.659,2.095-0.672,3.193C352.608,103.05,353.477,105.179,355.012,106.787z"/>
		<path d="M363.405,128.442c-1.535,1.607-2.405,3.737-2.434,5.959c0.013,1.097,0.242,2.18,0.672,3.189
			c0.406,1.027,1.004,1.968,1.763,2.771c1.609,1.532,3.737,2.401,5.959,2.434c0.534-0.015,1.065-0.071,1.59-0.168
			c0.557-0.081,1.096-0.251,1.598-0.504c0.516-0.168,0.998-0.425,1.426-0.758c0.5-0.332,0.926-0.668,1.344-1.004
			c0.758-0.803,1.357-1.743,1.763-2.771c0.43-1.009,0.658-2.092,0.672-3.189c0.02-3.41-2.025-6.493-5.175-7.801
			C369.434,125.293,365.807,126.021,363.405,128.442z"/>
		<path d="M321.438,94.869c-0.741,0.815-1.337,1.751-1.763,2.766c-0.431,1.01-0.659,2.095-0.672,3.193
			c-0.022,2.233,0.856,4.38,2.434,5.959c1.579,1.579,3.726,2.456,5.959,2.434c0.534-0.015,1.065-0.071,1.59-0.168
			c0.557-0.081,1.096-0.251,1.598-0.504c0.516-0.168,0.998-0.425,1.426-0.758c0.482-0.286,0.933-0.623,1.345-1.004
			c3.246-3.31,3.246-8.608,0-11.918c-0.418-0.336-0.844-0.672-1.344-1.008c-0.428-0.333-0.91-0.59-1.426-0.758
			c-0.502-0.254-1.042-0.423-1.598-0.5C326.253,92.093,323.44,92.937,321.438,94.869z"/>
		<path d="M310.611,84.041c2.222-0.034,4.349-0.903,5.959-2.434c1.545-1.601,2.417-3.734,2.434-5.959
			c-0.013-1.098-0.241-2.183-0.672-3.193c-0.405-1.027-1.003-1.966-1.762-2.767c-0.803-0.759-1.744-1.358-2.771-1.766
			c-3.131-1.265-6.713-0.573-9.148,1.766c-2.421,2.401-3.149,6.029-1.841,9.178C304.118,82.016,307.201,84.061,310.611,84.041z"/>
		<path d="M278.463,55.168c0.336,0.418,0.672,0.836,1.008,1.258c0.418,0.336,0.836,0.672,1.254,1.004
			c0.47,0.319,0.98,0.574,1.516,0.758c0.499,0.253,1.036,0.424,1.59,0.504c0.528,0.096,1.062,0.153,1.598,0.168
			c2.222-0.034,4.349-0.903,5.959-2.434c0.336-0.422,0.672-0.84,1.008-1.258c0.316-0.469,0.57-0.978,0.754-1.512
			c0.43-1.009,0.658-2.092,0.672-3.189c-0.033-2.222-0.902-4.35-2.434-5.959c-2.011-1.921-4.821-2.764-7.557-2.266
			c-0.554,0.077-1.091,0.246-1.59,0.5c-0.537,0.184-1.047,0.439-1.516,0.758l-1.255,1.008c-1.535,1.607-2.405,3.737-2.434,5.959
			c0.013,1.097,0.242,2.18,0.672,3.188C277.89,54.192,278.144,54.701,278.463,55.168z"/>
		<path d="M178.75,56.427c2.401,2.421,6.029,3.149,9.178,1.841c3.149-1.308,5.195-4.391,5.175-7.801
			c-0.012-0.535-0.07-1.069-0.172-1.594c-0.075-0.557-0.244-1.098-0.5-1.598c-0.185-0.533-0.439-1.04-0.754-1.508
			c-0.336-0.422-0.672-0.84-1.008-1.258c-0.803-0.759-1.744-1.358-2.771-1.766c-3.13-1.273-6.716-0.58-9.148,1.766
			c-1.535,1.607-2.405,3.737-2.434,5.959c0.013,1.097,0.242,2.18,0.672,3.188C177.393,54.683,177.991,55.623,178.75,56.427z"/>
		<path d="M159.529,84.041c0.534-0.015,1.065-0.071,1.59-0.168c0.557-0.081,1.096-0.251,1.598-0.504
			c0.534-0.184,1.041-0.439,1.508-0.758c0.441-0.308,0.863-0.643,1.263-1.004c3.246-3.31,3.246-8.608,0-11.918
			c-0.418-0.336-0.844-0.672-1.262-1.008c-0.467-0.319-0.974-0.574-1.508-0.758c-0.502-0.254-1.042-0.423-1.599-0.5
			c-1.606-0.338-3.278-0.163-4.779,0.5c-1.028,0.406-1.969,1.006-2.771,1.766c-2.421,2.401-3.149,6.029-1.841,9.178
			C153.036,82.016,156.119,84.061,159.529,84.041z"/>
		<path d="M139.553,108.549c1.009,0.43,2.092,0.659,3.189,0.672c0.534-0.015,1.065-0.071,1.59-0.168
			c0.557-0.081,1.096-0.251,1.598-0.504c0.534-0.184,1.041-0.439,1.508-0.758c0.441-0.308,0.863-0.643,1.263-1.004
			c1.531-1.61,2.4-3.738,2.434-5.959c-0.013-1.098-0.241-2.183-0.672-3.193c-0.405-1.026-1.003-1.966-1.763-2.766
			c-0.399-0.362-0.821-0.699-1.262-1.008c-0.467-0.319-0.974-0.574-1.508-0.758c-0.502-0.254-1.042-0.423-1.598-0.5
			c-1.606-0.338-3.278-0.163-4.779,0.5c-1.028,0.406-1.968,1.006-2.771,1.766c-0.741,0.815-1.337,1.751-1.763,2.766
			c-0.473,0.996-0.703,2.091-0.671,3.193c0.03,2.223,0.899,4.351,2.434,5.959C137.586,107.545,138.526,108.143,139.553,108.549z"/>
		<path d="M128.389,140.361c0.817,0.74,1.754,1.337,2.771,1.763c1.009,0.43,2.092,0.658,3.189,0.671
			c0.534-0.015,1.065-0.071,1.59-0.168c0.557-0.081,1.096-0.251,1.598-0.504c0.516-0.168,0.998-0.425,1.426-0.758
			c0.453-0.293,0.875-0.629,1.262-1.004c1.609-1.565,2.516-3.714,2.516-5.959c0-2.245-0.908-4.394-2.516-5.959
			c-0.365-0.4-0.791-0.741-1.262-1.008c-0.428-0.333-0.911-0.59-1.426-0.758c-0.502-0.254-1.042-0.423-1.598-0.5
			c-1.606-0.338-3.278-0.163-4.779,0.5c-1.028,0.406-1.969,1.006-2.771,1.766c-1.535,1.607-2.405,3.737-2.434,5.959
			c0.013,1.097,0.242,2.18,0.672,3.189C127.052,138.607,127.648,139.544,128.389,140.361z"/>
		<path d="M170.356,106.787c2.401,2.421,6.029,3.149,9.178,1.841c3.149-1.308,5.195-4.391,5.175-7.801
			c-0.017-0.564-0.074-1.125-0.172-1.68c-0.088-0.527-0.257-1.037-0.5-1.512c-0.169-0.514-0.424-0.997-0.754-1.426
			c-0.336-0.504-0.672-0.922-1.008-1.34c-3.365-3.107-8.553-3.107-11.918,0c-0.382,0.41-0.72,0.859-1.008,1.34
			c-0.333,0.428-0.588,0.91-0.754,1.426c-0.242,0.477-0.413,0.986-0.508,1.512c-0.091,0.556-0.146,1.117-0.164,1.68
			C167.952,103.05,168.822,105.179,170.356,106.787z"/>
		<path d="M189.914,67.922c-0.537,0.184-1.047,0.439-1.516,0.758l-1.254,1.008c-0.741,0.815-1.337,1.751-1.763,2.766
			c-0.896,2.033-0.896,4.348,0,6.381c0.406,1.027,1.004,1.968,1.763,2.771c0.418,0.336,0.836,0.672,1.254,1.004
			c0.47,0.319,0.98,0.574,1.516,0.758c0.475,0.241,0.984,0.411,1.508,0.505c0.556,0.092,1.117,0.149,1.68,0.168
			c3.394-0.013,6.449-2.061,7.75-5.196s0.596-6.744-1.791-9.157c-2.038-1.934-4.877-2.776-7.639-2.266
			C190.897,67.512,190.389,67.681,189.914,67.922z"/>
		<path d="M213.578,57.43c0.47,0.319,0.98,0.574,1.516,0.758c0.475,0.241,0.983,0.411,1.508,0.504
			c0.556,0.092,1.117,0.149,1.68,0.168c2.233,0.022,4.38-0.856,5.959-2.434c1.579-1.579,2.456-3.726,2.434-5.959
			c-0.033-2.222-0.902-4.35-2.434-5.959c-2.401-2.421-6.029-3.149-9.178-1.841c-3.149,1.308-5.195,4.391-5.175,7.801
			c0.03,2.223,0.899,4.351,2.434,5.959C212.742,56.762,213.16,57.098,213.578,57.43z"/>
		<path d="M235.07,167.975h-8.393c-4.636,0-8.393,3.758-8.393,8.393c0,4.636,3.758,8.393,8.393,8.393h8.393
			c6.215-0.019,12.2-2.354,16.787-6.549c4.586,4.195,10.572,6.53,16.787,6.549h8.393c4.636,0,8.393-3.758,8.393-8.393
			c0-4.636-3.758-8.393-8.393-8.393h-8.393c-4.634-0.005-8.389-3.76-8.393-8.393v-25.18h8.393c4.636,0,8.393-3.758,8.393-8.393
			s-3.758-8.393-8.393-8.393H235.07c-4.636,0-8.393,3.758-8.393,8.393s3.758,8.393,8.393,8.393h8.393v25.18
			C243.458,164.216,239.703,167.971,235.07,167.975z"/>
		<path d="M218.283,92.434c-0.001,2.226,0.884,4.361,2.458,5.936c1.574,1.574,3.709,2.458,5.936,2.458h50.361
			c4.636,0,8.393-3.758,8.393-8.393c0-4.636-3.758-8.393-8.393-8.393h-50.361c-2.226-0.001-4.362,0.884-5.936,2.458
			C219.166,88.073,218.282,90.208,218.283,92.434z"/>
		<path d="M134.348,209.943c2.226,0.001,4.361-0.884,5.936-2.458c1.574-1.574,2.458-3.709,2.458-5.936v-8.393
			c0.005-4.634,3.76-8.389,8.393-8.393h41.967c4.636,0,8.393-3.758,8.393-8.393c0-4.636-3.758-8.393-8.393-8.393h-41.967
			c-13.9,0.015-25.165,11.28-25.18,25.18v8.393c-0.001,2.226,0.884,4.361,2.458,5.936
			C129.987,209.059,132.122,209.943,134.348,209.943z"/>
		<path d="M310.611,184.762h41.967c4.634,0.005,8.389,3.76,8.393,8.393v8.393c0,4.636,3.758,8.393,8.393,8.393
			s8.393-3.758,8.393-8.393v-8.393c-0.015-13.9-11.28-25.165-25.18-25.18h-41.967c-4.636,0-8.393,3.758-8.393,8.393
			C302.217,181.004,305.975,184.762,310.611,184.762z"/>
	</g>
</g>
<g>
</g>
<g>
</g>
<g>
</g>
<g>
</g>
<g>
</g>
<g>
</g>
<g>
</g>
<g>
</g>
<g>
</g>
<g>
</g>
<g>
</g>
<g>
</g>
<g>
</g>
<g>
</g>
<g>
</g>
</svg>
