<?xml version="1.0" encoding="iso-8859-1"?>
<!-- Generator: Adobe Illustrator 19.0.0, SVG Export Plug-In . SVG Version: 6.00 Build 0)  -->
<svg version="1.1" id="Capa_1" xmlns="http://www.w3.org/2000/svg" xmlns:xlink="http://www.w3.org/1999/xlink" x="0px" y="0px"
	 viewBox="0 0 512.004 512.004" style="enable-background:new 0 0 512.004 512.004;" xml:space="preserve">
<g>
	<g transform="translate(1 1)">
		<g>
			<path style="fill:#CFD8DC;" d="M110.657,139.327c-1.717,19.302-1.288,38.734,1.28,57.941H77.803
				c-8.639-19.105-15.522-38.955-20.565-59.307c-4.052-13.952-5.413-28.547-4.011-43.008c3.413-21.76,26.795-45.995,44.373-58.112
				c20.565-14.251,46.763-10.155,69.376-3.157C134.026,59.28,113.543,97.703,110.657,139.327z"/>
			<path style="fill:#CFD8DC;" d="M455.024,135.271c-5.043,20.351-11.927,40.202-20.565,59.307h-34.133
				c2.568-19.207,2.997-38.64,1.28-57.941c-2.886-41.624-23.37-80.047-56.32-105.643c22.613-6.997,48.811-11.093,69.376,3.158
				c17.579,12.117,40.96,36.352,44.373,58.112C460.437,106.723,459.076,121.319,455.024,135.271z"/>
		</g>
		<g>
			<path style="fill:#4E342E;" d="M109.935,195.267V280.6H75.801c-9.414-0.028-17.039-7.652-17.067-17.067v-51.2
				c0.028-9.414,7.652-17.039,17.067-17.067H109.935z"/>
			<path style="fill:#4E342E;" d="M451.268,212.333v51.2c-0.028,9.414-7.653,17.039-17.067,17.067h-34.133v-85.333h34.133
				C443.616,195.294,451.241,202.919,451.268,212.333z"/>
		</g>
		<g>
			<path style="fill:#59474E;" d="M118.468,246.467h-25.6c-4.713,0-8.533-3.821-8.533-8.533c0-4.713,3.821-8.533,8.533-8.533h25.6
				c4.713,0,8.533,3.821,8.533,8.533C127.001,242.646,123.181,246.467,118.468,246.467z"/>
			<path style="fill:#59474E;" d="M417.135,246.467h-25.6c-4.713,0-8.533-3.821-8.533-8.533c0-4.713,3.821-8.533,8.533-8.533h25.6
				c4.713,0,8.533,3.821,8.533,8.533C425.668,242.646,421.848,246.467,417.135,246.467z"/>
		</g>
		<path style="fill:#4E342E;" d="M265.156,501.784c-6.737,0.939-13.572,0.939-20.309,0
			C64.623,478.829,85.956,379.075,102.084,339.565c5.11-12.281,7.776-25.44,7.851-38.741V195.267
			c-2.568-19.207-2.997-38.64-1.28-57.941c2.886-41.624,23.37-80.047,56.32-105.643h0.085
			c20.361-15.525,45.222-24.002,70.827-24.149h38.229c25.605,0.147,50.466,8.624,70.827,24.149h0.085
			c32.95,25.596,53.434,64.019,56.32,105.643c1.717,19.302,1.288,38.734-1.28,57.941v105.557c0.074,13.301,2.741,26.46,7.851,38.741
			C424.047,379.075,445.38,478.829,265.156,501.784z"/>
		<path style="fill:#795548;" d="M263.494,501.784c-5.623,0.939-11.362,0.939-16.985,0
			C95.79,478.829,113.631,379.075,127.118,339.565c4.304-12.465,6.523-25.554,6.565-38.741V195.267
			c-2.149-19.239-2.508-38.636-1.071-57.941c1.616-39.941,18.471-77.745,47.1-105.643h0.071
			c16.056-15.132,37.172-23.741,59.232-24.149h31.971c22.059,0.408,43.175,9.018,59.232,24.149h0.071
			c28.629,27.897,45.484,65.702,47.1,105.643c1.437,19.305,1.079,38.702-1.071,57.941v105.557
			c0.043,13.187,2.261,26.277,6.565,38.741C396.372,379.075,414.213,478.829,263.494,501.784z"/>
		<g>
			<path style="fill:#424242;" d="M178.201,220.867h34.133v17.067c0,9.426-7.641,17.067-17.067,17.067
				c-9.426,0-17.067-7.641-17.067-17.067V220.867z"/>
			<path style="fill:#424242;" d="M297.668,220.867h34.133v17.067c0,9.426-7.641,17.067-17.067,17.067s-17.067-7.641-17.067-17.067
				V220.867z"/>
		</g>
		<path style="fill:#CFD8DC;" d="M340.335,391.533v25.6c-0.014,4.707-3.826,8.519-8.533,8.533h-153.6
			c-4.707-0.014-8.519-3.826-8.533-8.533v-25.6c-0.003-9.054,3.593-17.737,9.995-24.139c6.402-6.402,15.085-9.997,24.139-9.995
			h102.4c9.053-0.003,17.737,3.593,24.139,9.995S340.337,382.48,340.335,391.533z"/>
		<g>
			<path style="fill:#2C2F38;" d="M212.335,400.067v25.6h-17.067v-25.6c0-4.713,3.821-8.533,8.533-8.533
				S212.335,395.354,212.335,400.067z"/>
			<path style="fill:#2C2F38;" d="M246.468,400.067v25.6h-17.067v-25.6c0-4.713,3.82-8.533,8.533-8.533
				S246.468,395.354,246.468,400.067z"/>
			<path style="fill:#2C2F38;" d="M280.602,400.067v25.6h-17.067v-25.6c0-4.713,3.821-8.533,8.533-8.533
				S280.602,395.354,280.602,400.067z"/>
			<path style="fill:#2C2F38;" d="M314.735,400.067v25.6h-17.067v-25.6c0-4.713,3.82-8.533,8.533-8.533
				S314.735,395.354,314.735,400.067z"/>
		</g>
	</g>
	<g>
		<path d="M230.402,298.667c0-4.713-3.821-8.533-8.533-8.533s-8.533,3.82-8.533,8.533c1.264,22.345,20.312,39.489,42.667,38.4
			c22.354,1.089,41.403-16.055,42.667-38.4c0-4.713-3.821-8.533-8.533-8.533s-8.533,3.82-8.533,8.533
			c-1.295,12.899-12.679,22.386-25.6,21.333C243.081,321.052,231.696,311.565,230.402,298.667z"/>
		<path d="M170.668,230.4v8.533c0,14.138,11.462,25.6,25.6,25.6c14.139,0,25.6-11.462,25.6-25.6V230.4h8.533
			c4.713,0,8.533-3.821,8.533-8.533c0-4.713-3.821-8.533-8.533-8.533h-68.267c-4.713,0-8.533,3.821-8.533,8.533
			c0,4.713,3.82,8.533,8.533,8.533H170.668z M204.801,230.4v8.533c0,4.713-3.821,8.533-8.533,8.533
			c-4.713,0-8.533-3.821-8.533-8.533V230.4H204.801z"/>
		<path d="M349.868,213.333h-68.267c-4.713,0-8.533,3.821-8.533,8.533c0,4.713,3.82,8.533,8.533,8.533h8.533v8.533
			c0,14.138,11.462,25.6,25.6,25.6s25.6-11.462,25.6-25.6V230.4h8.533c4.713,0,8.533-3.821,8.533-8.533
			C358.402,217.154,354.581,213.333,349.868,213.333z M324.268,238.933c0,4.713-3.82,8.533-8.533,8.533s-8.533-3.821-8.533-8.533
			V230.4h17.067V238.933z"/>
		<path d="M256.001,256c-2.263-0.001-4.434,0.898-6.035,2.499c-1.6,1.6-2.499,3.771-2.499,6.035V281.6
			c0,4.713,3.821,8.533,8.533,8.533c4.713,0,8.533-3.821,8.533-8.533v-17.067c0.001-2.263-0.898-4.434-2.499-6.035
			S258.265,255.999,256.001,256z"/>
		<path d="M468.21,92.629c-3.717-23.692-27.467-49.687-47.95-63.8c-23.377-16.196-51.642-11.579-72.359-5.63
			C326.618,8.143,301.197,0.039,275.126,0h-38.25c-26.071,0.039-51.491,8.143-72.774,23.199
			c-20.713-5.95-48.997-10.567-72.343,5.617c-20.5,14.125-44.25,40.121-47.967,63.813c-1.599,15.573-0.19,31.309,4.15,46.35
			c4.386,17.649,10.145,34.929,17.226,51.68c-8.541,4.339-13.934,13.094-13.968,22.674v51.2c0.015,14.132,11.468,25.585,25.6,25.6
			h25.6v11.662c-0.073,12.216-2.524,24.3-7.217,35.579c-8.825,21.663-20.3,63.713,2.017,101.929
			c22.242,38.092,71.875,62.308,147.541,71.979c7.475,0.961,15.042,0.961,22.517,0c75.667-9.671,125.3-33.888,147.541-71.979
			c22.317-38.217,10.842-80.267,2.017-101.933c-4.693-11.277-7.144-23.361-7.216-35.575v-11.662h25.6
			c14.132-0.015,25.585-11.468,25.6-25.6v-51.2c-0.033-9.58-5.426-18.335-13.968-22.674c7.088-16.772,12.853-34.072,17.243-51.743
			C468.406,123.895,469.809,108.181,468.21,92.629z M60.66,95.271c2.767-17.692,23.083-40.204,40.8-52.416
			c11.535-7.998,26.511-9.91,46.22-6.017c-27.247,26.817-43.798,62.637-46.562,100.767c-1.389,16.684-1.316,33.458,0.217,50.129
			H82.454c-7.425-17.05-13.415-34.689-17.91-52.733C60.778,122.116,59.461,108.64,60.66,95.271z M68.268,264.533v-51.2
			c0.005-4.707,3.818-8.523,8.525-8.532l0.017,0.003l0.019-0.004h25.572v25.6H85.335c-4.713,0-8.533,3.821-8.533,8.533
			c0,4.713,3.821,8.533,8.533,8.533h17.067v25.6h-25.6C72.091,273.062,68.273,269.244,68.268,264.533z M400.06,430.7
			c-19.425,33.275-64.833,54.692-134.967,63.659c-6.036,0.775-12.147,0.775-18.183,0c-70.133-8.967-115.541-30.383-134.967-63.659
			c-18.625-31.9-8.592-68.133-0.958-86.887c5.532-13.321,8.413-27.593,8.483-42.017V196.267c0-0.239-0.117-0.44-0.136-0.673
			c-0.018-0.227,0.064-0.436,0.028-0.664c-2.412-18.532-2.828-37.27-1.242-55.892c2.586-38.717,21.354-74.555,51.705-98.732
			c1.073-0.517,2.025-1.256,2.793-2.167c18.659-13.631,41.153-21.008,64.261-21.072h38.25c23.109,0.065,45.605,7.442,64.265,21.076
			c0.768,0.908,1.718,1.645,2.789,2.163c30.351,24.177,49.119,60.015,51.705,98.732c1.587,18.621,1.17,37.359-1.242,55.892
			c-0.036,0.228,0.045,0.438,0.028,0.665c-0.019,0.234-0.136,0.434-0.136,0.673v105.529c0.07,14.422,2.951,28.693,8.483,42.012
			C408.652,362.567,418.685,398.8,400.06,430.7z M443.735,264.533c-0.005,4.711-3.822,8.529-8.533,8.533h-25.6v-25.6h17.067
			c4.713,0,8.533-3.821,8.533-8.533c0-4.713-3.82-8.533-8.533-8.533h-17.067v-25.6h25.572l0.019,0.004l0.017-0.003
			c4.707,0.009,8.519,3.825,8.525,8.532V264.533z M447.477,134.938c-4.498,18.066-10.495,35.726-17.927,52.796h-18.882
			c1.533-16.671,1.606-33.445,0.217-50.129c-2.764-38.128-19.314-73.946-46.558-100.763c19.72-3.89,34.697-1.973,46.233,6.025
			c17.7,12.2,38.017,34.712,40.783,52.404C452.542,108.619,451.231,122.073,447.477,134.938z"/>
		<path d="M307.202,349.867h-102.4c-23.553,0.028-42.639,19.114-42.667,42.667v25.6c0.011,9.421,7.645,17.056,17.067,17.067h153.6
			c9.421-0.011,17.056-7.645,17.067-17.067v-25.6C349.841,368.981,330.754,349.894,307.202,349.867z M315.735,418.133v-17.067
			c0-4.713-3.82-8.533-8.533-8.533s-8.533,3.82-8.533,8.533v17.067h-17.067v-17.067c0-4.713-3.82-8.533-8.533-8.533
			s-8.533,3.82-8.533,8.533v17.067h-17.067v-17.067c0-4.713-3.821-8.533-8.533-8.533s-8.533,3.82-8.533,8.533v17.067h-17.067
			v-17.067c0-4.713-3.82-8.533-8.533-8.533s-8.533,3.82-8.533,8.533v17.067h-17.067v-25.6c0.015-14.132,11.468-25.585,25.6-25.6
			h102.4c14.132,0.015,25.585,11.468,25.6,25.6l0.009,25.6H315.735z"/>
		<path d="M230.402,162.133h8.533c6.319-0.02,12.404-2.394,17.067-6.658c4.663,4.265,10.748,6.639,17.067,6.658h8.533
			c4.713,0,8.533-3.821,8.533-8.533s-3.82-8.533-8.533-8.533h-8.533c-4.711-0.005-8.529-3.822-8.533-8.533v-25.6h8.533
			c4.713,0,8.533-3.821,8.533-8.533c0-4.713-3.82-8.533-8.533-8.533h-34.133c-4.713,0-8.533,3.821-8.533,8.533
			c0,4.713,3.82,8.533,8.533,8.533h8.533v25.6c-0.005,4.711-3.822,8.529-8.533,8.533h-8.533c-4.713,0-8.533,3.82-8.533,8.533
			S225.689,162.133,230.402,162.133z"/>
		<path d="M230.402,76.8h51.2c4.713,0,8.533-3.82,8.533-8.533c0-4.713-3.82-8.533-8.533-8.533h-51.2
			c-4.713,0-8.533,3.821-8.533,8.533C221.868,72.98,225.689,76.8,230.402,76.8z"/>
		<path d="M187.735,170.667c4.713,0,8.533-3.821,8.533-8.533c0-4.713-3.82-8.533-8.533-8.533c-40.5,0-51.2,27.908-51.2,42.667
			c0,4.713,3.821,8.533,8.533,8.533s8.533-3.821,8.533-8.533C153.602,195.221,153.993,170.667,187.735,170.667z"/>
		<path d="M324.268,153.6c-4.713,0-8.533,3.821-8.533,8.533c0,4.713,3.821,8.533,8.533,8.533c32.683,0,34.083,22.992,34.133,25.667
			c0.012,3.049,1.649,5.859,4.296,7.373c2.646,1.514,5.899,1.501,8.533-0.033c2.634-1.535,4.25-4.358,4.238-7.407
			C375.468,181.508,364.768,153.6,324.268,153.6z"/>
	</g>
</g>
<g>
</g>
<g>
</g>
<g>
</g>
<g>
</g>
<g>
</g>
<g>
</g>
<g>
</g>
<g>
</g>
<g>
</g>
<g>
</g>
<g>
</g>
<g>
</g>
<g>
</g>
<g>
</g>
<g>
</g>
</svg>
