<?xml version="1.0" encoding="iso-8859-1"?>
<!-- Generator: Adobe Illustrator 19.0.0, SVG Export Plug-In . SVG Version: 6.00 Build 0)  -->
<svg version="1.1" id="Capa_1" xmlns="http://www.w3.org/2000/svg" xmlns:xlink="http://www.w3.org/1999/xlink" x="0px" y="0px"
	 viewBox="0 0 511.979 511.979" style="enable-background:new 0 0 511.979 511.979;" xml:space="preserve">
<g>
	<g transform="translate(2 1)">
		<path style="fill:#607D8B;" d="M96.123,195.267v25.6H61.99c-2.829,0.01-5.612,0.713-8.107,2.048l-0.427-2.048
			c0,0-85.163-170.325,84.821-170.667C83.92,105.667,96.123,195.267,96.123,195.267z"/>
		<path style="fill:#CFD8DC;" d="M106.289,195.267v25.6H80.388c-2.213,0.032-4.361,0.747-6.152,2.048l-0.324-2.048
			c0,0-64.625-170.325,64.366-170.667C97.029,105.667,106.289,195.267,106.289,195.267z"/>
		<path style="fill:#607D8B;" d="M458.278,223l-6.827,0.085c-0.566-0.073-1.136-0.102-1.707-0.085h-34.133v-25.6
			c0,0,12.203-89.6-42.155-145.067C543.44,52.675,458.278,223,458.278,223z"/>
		<path style="fill:#CFD8DC;" d="M434.822,223l-4.939,0.085c-0.407-0.073-0.821-0.102-1.235-0.085h-24.694v-25.6
			c0,0,8.828-89.6-30.498-145.067C496.435,52.675,434.822,223,434.822,223z"/>
		<g>
			<path style="fill:#BFB186;" d="M99.323,220.867V306.2H60.212c-10.086,0.609-18.794-6.991-19.556-17.067v-51.2
				c0.233-6.569,4.23-12.416,10.267-15.019c2.912-1.347,6.081-2.046,9.289-2.048H99.323z"/>
			<path style="fill:#BFB186;" d="M467.323,237.933v51.2c-0.817,10.121-9.6,17.718-19.733,17.067h-39.467v-85.333h39.467
				c0.659-0.016,1.318,0.012,1.974,0.085C458.972,221.195,466.658,228.544,467.323,237.933z"/>
		</g>
		<g>
			<path style="fill:#CC4B4C;" d="M91.856,272.067h-25.6c-4.713,0-8.533-3.82-8.533-8.533S61.543,255,66.256,255h25.6
				c4.713,0,8.533,3.821,8.533,8.533S96.569,272.067,91.856,272.067z"/>
			<path style="fill:#CC4B4C;" d="M441.723,272.067h-25.6c-4.713,0-8.533-3.82-8.533-8.533S411.41,255,416.123,255h25.6
				c4.713,0,8.533,3.821,8.533,8.533S446.436,272.067,441.723,272.067z"/>
		</g>
		<path style="fill:#BFB186;" d="M416.123,195.267V306.2c-1.333,36.489-10.685,72.237-27.392,104.704v0.085
			c-22.014,43.231-61.29,75.13-108.117,87.808c-17.416,4.864-35.832,4.864-53.248,0c-46.85-12.684-86.135-44.62-108.117-87.893
			c-16.707-32.467-26.059-68.215-27.392-104.704V195.267c0,0-12.203-89.6,42.155-145.067c24.32-24.747,61.952-42.667,119.979-42.667
			s95.659,17.92,119.979,42.667C428.326,105.667,416.123,195.267,416.123,195.267z"/>
		<path style="fill:#FFE0B2;" d="M380.949,195.267V306.2c-1.138,36.163-9.407,71.745-24.333,104.704v0.085
			c-17.953,41.68-52.925,73.653-96.043,87.808c-15.392,4.864-31.909,4.864-47.301,0c-43.14-14.164-78.118-46.175-96.042-87.893
			c-14.926-32.959-23.195-68.541-24.333-104.704V195.267c0,0-10.84-89.6,37.446-145.067c21.604-24.747,55.033-42.667,106.579-42.667
			s84.975,17.92,106.579,42.667C391.789,105.667,380.949,195.267,380.949,195.267z"/>
		<g>
			<path style="fill:#0377BC;" d="M236.923,276.333c0,25.941-24.832,46.933-55.467,46.933c-4.299,0.014-8.589-0.415-12.8-1.28
				c-24.491-4.864-42.667-23.467-42.667-45.653c0-43.008,0-46.592,42.667-46.848c3.925-0.085,8.192-0.085,12.8-0.085
				C236.923,229.4,236.923,229.4,236.923,276.333z"/>
			<path style="fill:#0377BC;" d="M381.99,276.333c0,25.941-24.832,46.933-55.467,46.933c-4.299,0.014-8.589-0.415-12.8-1.28
				c-24.491-4.864-42.667-23.467-42.667-45.653c0-43.008,0-46.592,42.667-46.848c3.925-0.085,8.192-0.085,12.8-0.085
				C381.99,229.4,381.99,229.4,381.99,276.333z"/>
		</g>
		<g>
			<path style="fill:#02A9F4;" d="M211.323,276.333c0,22.187-18.176,40.789-42.667,45.653
				c-24.491-4.864-42.667-23.467-42.667-45.653c0-43.008,0-46.592,42.667-46.848C211.323,229.741,211.323,233.325,211.323,276.333z"
				/>
			<path style="fill:#02A9F4;" d="M356.39,276.333c0,22.187-18.176,40.789-42.667,45.653c-24.491-4.864-42.667-23.467-42.667-45.653
				c0-43.008,0-46.592,42.667-46.848C356.39,229.741,356.39,233.325,356.39,276.333z"/>
		</g>
		<g>
			<path style="fill:#2C2F38;" d="M202.79,272.067h-42.667c-4.713,0-8.533-3.82-8.533-8.533S155.41,255,160.123,255h42.667
				c4.713,0,8.533,3.821,8.533,8.533S207.502,272.067,202.79,272.067z"/>
			<path style="fill:#2C2F38;" d="M185.723,280.6c-2.263,0.001-4.434-0.898-6.035-2.499c-1.6-1.6-2.499-3.771-2.499-6.035v-8.533
				c0-4.713,3.821-8.533,8.533-8.533c4.713,0,8.533,3.821,8.533,8.533v8.533c0.001,2.263-0.898,4.434-2.499,6.035
				C190.157,279.702,187.986,280.601,185.723,280.6z"/>
			<path style="fill:#2C2F38;" d="M347.856,272.067H305.19c-4.713,0-8.533-3.82-8.533-8.533s3.82-8.533,8.533-8.533h42.667
				c4.713,0,8.533,3.821,8.533,8.533S352.569,272.067,347.856,272.067z"/>
			<path style="fill:#2C2F38;" d="M322.256,280.6c-2.263,0.001-4.434-0.898-6.035-2.499c-1.6-1.6-2.499-3.771-2.499-6.035v-8.533
				c0-4.713,3.82-8.533,8.533-8.533s8.533,3.821,8.533,8.533v8.533c0.001,2.263-0.898,4.434-2.499,6.035
				S324.52,280.601,322.256,280.6z"/>
		</g>
	</g>
	<g>
		<path d="M324.256,401.067H187.723c-4.713,0-8.533,3.821-8.533,8.533c0,4.713,3.821,8.533,8.533,8.533h136.533
			c4.713,0,8.533-3.821,8.533-8.533C332.79,404.887,328.969,401.067,324.256,401.067z"/>
		<path d="M298.656,426.667c-2.263-0.001-4.434,0.898-6.035,2.499c-1.6,1.6-2.499,3.771-2.499,6.035h-76.8
			c-4.713,0-8.533,3.821-8.533,8.533c0,4.713,3.821,8.533,8.533,8.533h85.333c2.263,0.001,4.434-0.898,6.035-2.499
			c1.6-1.6,2.499-3.771,2.499-6.035V435.2c0.001-2.263-0.898-4.434-2.499-6.035C303.091,427.565,300.92,426.666,298.656,426.667z"/>
		<path d="M298.656,349.867c0-4.713-3.821-8.533-8.533-8.533s-8.533,3.821-8.533,8.533c0,9.25-11.725,17.067-25.6,17.067
			c-13.875,0-25.6-7.817-25.6-17.067c0-4.713-3.821-8.533-8.533-8.533s-8.533,3.821-8.533,8.533
			c0,18.821,19.142,34.133,42.667,34.133S298.656,368.688,298.656,349.867z"/>
		<path d="M204.79,256h-42.667c-4.713,0-8.533,3.821-8.533,8.533s3.821,8.533,8.533,8.533h17.067c0,4.713,3.821,8.533,8.533,8.533
			c4.713,0,8.533-3.82,8.533-8.533h8.533c4.713,0,8.533-3.82,8.533-8.533S209.502,256,204.79,256z"/>
		<path d="M349.856,256H307.19c-4.713,0-8.533,3.821-8.533,8.533s3.82,8.533,8.533,8.533h8.533c0,4.713,3.82,8.533,8.533,8.533
			s8.533-3.82,8.533-8.533h17.067c4.713,0,8.533-3.82,8.533-8.533S354.569,256,349.856,256z"/>
		<path d="M230.39,196.267h8.533c6.319-0.02,12.404-2.394,17.067-6.658c4.663,4.265,10.748,6.639,17.067,6.658h8.533
			c4.713,0,8.533-3.821,8.533-8.533c0-4.713-3.82-8.533-8.533-8.533h-8.533c-4.711-0.005-8.529-3.822-8.533-8.533v-25.6h8.533
			c4.713,0,8.533-3.821,8.533-8.533s-3.82-8.533-8.533-8.533h-34.133c-4.713,0-8.533,3.821-8.533,8.533s3.82,8.533,8.533,8.533
			h8.533v25.6c-0.005,4.711-3.822,8.529-8.533,8.533h-8.533c-4.713,0-8.533,3.821-8.533,8.533
			C221.856,192.446,225.677,196.267,230.39,196.267z"/>
		<path d="M230.39,110.933h51.2c4.713,0,8.533-3.821,8.533-8.533c0-4.713-3.82-8.533-8.533-8.533h-51.2
			c-4.713,0-8.533,3.821-8.533,8.533C221.856,107.113,225.677,110.933,230.39,110.933z"/>
		<path d="M127.99,204.8c2.263,0.001,4.434-0.898,6.035-2.499c1.6-1.6,2.499-3.771,2.499-6.035v-8.533
			c0.005-4.711,3.822-8.529,8.533-8.533h51.2c4.713,0,8.533-3.821,8.533-8.533c0-4.713-3.821-8.533-8.533-8.533h-51.2
			c-14.132,0.015-25.585,11.468-25.6,25.6v8.533c-0.001,2.263,0.898,4.434,2.499,6.035
			C123.555,203.902,125.726,204.801,127.99,204.8z"/>
		<path d="M366.923,162.133h-51.2c-4.713,0-8.533,3.821-8.533,8.533c0,4.713,3.82,8.533,8.533,8.533h51.2
			c4.711,0.005,8.529,3.822,8.533,8.533v8.533c0,4.713,3.82,8.533,8.533,8.533s8.533-3.821,8.533-8.533v-8.533
			C392.508,173.601,381.055,162.149,366.923,162.133z"/>
		<path d="M379.275,42.809C349.94,14.503,308.632,0,255.99,0s-93.95,14.503-123.285,42.809
			c-48.101,0.74-81.278,15.029-98.389,42.724c-29.251,47.322-1.261,117.083,7.092,135.576c-4.665,4.76-7.28,11.159-7.284,17.824
			v51.2c0.015,14.132,11.468,25.585,25.6,25.6h25.959c2.433,34.955,11.969,69.047,28.024,100.192
			c22.984,45.405,64.195,78.892,113.342,92.1c18.937,5.272,38.955,5.272,57.892,0c49.106-13.232,90.295-46.672,113.333-92.013
			c0.119-0.223,0.225-0.452,0.317-0.687c15.864-30.986,25.29-64.864,27.708-99.592h25.958c14.132-0.015,25.585-11.468,25.6-25.6
			v-51.2c-0.004-6.665-2.619-13.064-7.284-17.824c8.353-18.493,36.343-88.254,7.092-135.576
			C460.553,57.838,427.376,43.549,379.275,42.809z M48.848,94.475c12.012-19.412,34.958-30.659,68.079-33.761
			c-40.271,55.244-32.603,128.102-31.604,136.103v16.517h-25.6c-0.982,0.041-1.96,0.14-2.931,0.296
			C49.29,196.686,24.444,133.913,48.848,94.475z M51.19,290.133v-51.2c0.005-4.711,3.822-8.529,8.533-8.533h25.6V256H68.256
			c-4.713,0-8.533,3.821-8.533,8.533s3.821,8.533,8.533,8.533h17.067v25.6h-25.6C55.012,298.662,51.194,294.844,51.19,290.133z
			 M383.198,407.938c-0.118,0.216-0.224,0.439-0.317,0.667c-20.961,40.893-58.215,71.034-102.583,82.996
			c-15.9,4.433-32.709,4.433-48.608,0c-44.628-12.007-82.044-42.426-102.908-83.663c-15.988-31.275-24.993-65.649-26.392-100.746
			V196.267c0-0.386-0.025-0.771-0.075-1.154c-0.108-0.8-10.4-80.708,35.075-132.808c1.481-1.697,3.165-3.174,4.733-4.777
			c0.264-0.234,0.512-0.485,0.744-0.751c26.158-26.242,64.065-39.71,113.123-39.71c49.065,0,86.977,13.472,113.134,39.726
			c0.225,0.257,0.466,0.5,0.722,0.728c1.546,1.579,3.208,3.033,4.669,4.705c45.433,51.946,35.258,132.092,35.15,132.896
			c-0.05,0.38-0.075,0.763-0.075,1.146v110.925C408.191,342.288,399.186,376.663,383.198,407.938z M460.79,290.133
			c-0.005,4.711-3.822,8.529-8.533,8.533h-25.6v-25.6h17.067c4.713,0,8.533-3.82,8.533-8.533S448.436,256,443.723,256h-17.067v-25.6
			h25.6c4.711,0.005,8.529,3.822,8.533,8.533V290.133z M455.187,213.63c-0.97-0.156-1.949-0.255-2.931-0.296h-25.6v-16.517
			c0.999-8.002,8.667-80.859-31.604-136.103c33.121,3.103,56.066,14.349,68.079,33.761
			C487.536,133.913,462.689,196.686,455.187,213.63z"/>
		<path d="M328.523,221.867c-30.128,0-46.17,0.567-54.692,8.69c-0.268-0.026-0.5-0.156-0.775-0.156h-34.133
			c-0.275,0-0.507,0.131-0.775,0.156c-8.522-8.122-24.564-8.69-54.692-8.69c-57.667,0-64,1.8-64,55.467
			c0,30.583,28.708,55.467,64,55.467c32.538,0,59.421-21.168,63.428-48.437c0.143-0.297,0.267-0.601,0.372-0.913
			c5.561-2.467,11.906-2.467,17.467,0c0.106,0.311,0.23,0.616,0.372,0.912c4.006,27.269,30.89,48.438,63.428,48.438
			c35.292,0,64-24.883,64-55.467C392.523,223.667,386.19,221.867,328.523,221.867z M183.456,315.733
			c-25.875,0-46.933-17.225-46.933-38.4c0-18.813,0-31.242,3.908-34.554c4.55-3.846,19.858-3.846,43.025-3.846
			s38.475,0,43.025,3.846c3.908,3.313,3.908,15.742,3.908,34.554C230.39,298.508,209.331,315.733,183.456,315.733z M247.286,265.508
			c-0.088-6.041-0.592-12.069-1.507-18.042h20.422c-0.915,5.972-1.419,12-1.507,18.042
			C258.964,264.208,253.016,264.208,247.286,265.508L247.286,265.508z M328.523,315.733c-25.875,0-46.933-17.225-46.933-38.4
			c0-18.813,0-31.242,3.908-34.554c4.55-3.846,19.858-3.846,43.025-3.846c23.167,0,38.475,0,43.025,3.846
			c3.908,3.313,3.908,15.742,3.908,34.554C375.456,298.508,354.398,315.733,328.523,315.733z"/>
	</g>
</g>
<g>
</g>
<g>
</g>
<g>
</g>
<g>
</g>
<g>
</g>
<g>
</g>
<g>
</g>
<g>
</g>
<g>
</g>
<g>
</g>
<g>
</g>
<g>
</g>
<g>
</g>
<g>
</g>
<g>
</g>
</svg>
