<?xml version="1.0" encoding="iso-8859-1"?>
<!-- Generator: Adobe Illustrator 19.0.0, SVG Export Plug-In . SVG Version: 6.00 Build 0)  -->
<svg version="1.1" id="Capa_1" xmlns="http://www.w3.org/2000/svg" xmlns:xlink="http://www.w3.org/1999/xlink" x="0px" y="0px"
	 viewBox="0 0 512.002 512.002" style="enable-background:new 0 0 512.002 512.002;" xml:space="preserve">
<g>
	<g transform="translate(1)">
		<path style="fill:#2C2F38;" d="M451.265,256.002l-0.768,1.451c-1.879-0.95-3.954-1.447-6.059-1.451h-27.307
			c-0.169-19.627-1.451-39.228-3.84-58.709c-2.053-28.008-8.893-55.456-20.224-81.152c-4.58-9.862-11.783-18.275-20.821-24.32
			c-39.851-24.32-77.739,22.016-117.248,22.016s-77.397-46.336-117.248-22.016c-9.039,6.045-16.242,14.458-20.821,24.32
			c-11.331,25.696-18.171,53.144-20.224,81.152c-2.389,19.481-3.671,39.083-3.84,58.709H65.559
			c-2.067,0.017-4.105,0.482-5.973,1.365l-0.853-1.365c-15.531-79.445-24.32-180.309,57.6-226.56
			C156.951,6.487,209.857,8.45,254.999,8.621c45.141-0.171,98.048-2.133,138.667,20.821
			C475.585,75.693,466.796,176.557,451.265,256.002z"/>
		<path style="fill:#607D8B;" d="M451.265,256.251l-0.768,1.202c-1.921-0.795-3.98-1.204-6.059-1.202h-27.307
			c-0.17-16.282-1.453-32.534-3.84-48.641c-2.155-23.543-9.033-46.41-20.224-67.235c-4.938-8.517-12.147-15.493-20.821-20.149
			c-39.851-20.15-77.739,18.24-117.248,18.24s-77.397-38.39-117.248-18.24c-8.674,4.656-15.883,11.632-20.821,20.149
			c-11.191,20.825-18.069,43.692-20.224,67.235c-2.387,16.107-3.67,32.359-3.84,48.641H65.559c-2.043,0.009-4.068,0.393-5.973,1.131
			l-0.853-1.131c-15.531-65.821-24.32-149.387,57.6-187.706c40.619-19.018,93.525-17.392,138.667-17.251
			c45.141-0.141,98.048-1.767,138.667,17.251C475.585,106.863,466.796,190.43,451.265,256.251z"/>
		<g>
			<path style="fill:#4E342E;" d="M101.482,341.335H66.365c-9.162-0.282-16.381-7.903-16.166-17.067v-51.2
				c-0.05-6.712,3.807-12.841,9.879-15.701c1.979-0.885,4.119-1.35,6.287-1.365h28.74v28.587c-0.261,18.67,1.79,37.301,6.107,55.467
				L101.482,341.335z"/>
			<path style="fill:#4E342E;" d="M459.799,273.069v51.2c0.215,9.164-7.004,16.785-16.166,17.067h-35.117
				c4.535-18.567,6.678-37.637,6.377-56.747v-28.587h28.74c2.207,0.002,4.386,0.498,6.376,1.451
				C456.054,260.286,459.882,266.393,459.799,273.069z"/>
			<path style="fill:#4E342E;" d="M411.073,339.492c-11.179,51.092-42.325,123.155-128.853,158.712
				c-17.469,7.019-36.974,7.019-54.443,0c-86.443-35.558-117.76-107.621-128.853-158.712l-0.256-1.295
				c-4.104-18.411-6.052-37.237-5.803-56.098v-28.911c0.169-19.849,1.451-39.672,3.84-59.377
				c2.048-28.306,8.886-56.058,20.224-82.075c4.559-9.95,11.761-18.458,20.821-24.596c39.851-24.597,77.739,22.266,117.248,22.266
				s77.397-46.863,117.248-22.266c9.061,6.139,16.263,14.647,20.821,24.596c11.338,26.016,18.176,53.769,20.224,82.074
				c2.389,19.705,3.671,39.529,3.84,59.377V282.1C417.419,301.404,415.385,320.673,411.073,339.492z"/>
		</g>
		<path style="fill:#795548;" d="M378.16,346.241c-8.821,46.33-33.4,111.677-101.682,143.921c-13.614,6.365-29.349,6.365-42.963,0
			c-68.215-32.244-92.929-97.591-101.683-143.921l-0.202-1.174c-3.243-16.758-4.777-33.802-4.579-50.869v-26.217
			c0.067-18,1.212-36,3.03-53.843c1.572-25.466,6.952-50.553,15.959-74.426c3.401-8.761,9.072-16.459,16.431-22.304
			c31.447-22.304,61.346,20.191,92.525,20.191c31.178,0,61.077-42.495,92.524-20.191c7.359,5.845,13.03,13.543,16.431,22.304
			c9.007,23.872,14.387,48.959,15.959,74.425c1.818,17.843,2.963,35.843,3.03,53.843v26.217
			C383.169,311.665,381.566,329.108,378.16,346.241z"/>
		<g>
			<path style="fill:#00838F;" d="M126.999,238.935h93.867c9.426,0,17.067,7.641,17.067,17.067v34.133
				c0,18.851-15.282,34.133-34.133,34.133h-42.667c-18.851,0-34.133-15.282-34.133-34.133V238.935z"/>
			<path style="fill:#00838F;" d="M289.132,238.935h93.867v51.2c0,18.851-15.282,34.133-34.133,34.133h-42.667
				c-18.851,0-34.133-15.282-34.133-34.133v-34.133C272.065,246.576,279.706,238.935,289.132,238.935z"/>
		</g>
		<g>
			<path style="fill:#00BCD4;" d="M126.999,238.935h68.267c9.426,0,17.067,7.641,17.067,17.067v34.133
				c0,18.851-15.282,34.133-34.133,34.133h-17.067c-18.851,0-34.133-15.282-34.133-34.133V238.935z"/>
			<path style="fill:#00BCD4;" d="M289.132,238.935h68.267v51.2c0,18.851-15.282,34.133-34.133,34.133h-17.067
				c-18.851,0-34.133-15.282-34.133-34.133v-34.133C272.065,246.576,279.706,238.935,289.132,238.935z"/>
		</g>
		<path style="fill:#2C2F38;" d="M382.999,230.402h-93.867c-10.813,0.033-20.435,6.868-24.028,17.067h-20.212
			c-3.592-10.199-13.214-17.033-24.028-17.067h-93.867c-4.713,0-8.533,3.821-8.533,8.533v51.2
			c0.028,23.553,19.114,42.639,42.667,42.667h42.667c23.553-0.028,42.639-19.114,42.667-42.667v-25.6h17.067v25.6
			c0.028,23.553,19.114,42.639,42.667,42.667h42.667c23.553-0.028,42.639-19.114,42.667-42.667v-51.2
			C391.532,234.222,387.712,230.402,382.999,230.402z M229.399,290.135c-0.015,14.132-11.468,25.585-25.6,25.6h-42.667
			c-14.132-0.015-25.585-11.468-25.6-25.6v-42.667h85.333c4.71,0.006,8.527,3.823,8.533,8.533V290.135z M374.465,290.135
			c-0.015,14.132-11.468,25.585-25.6,25.6h-42.667c-14.132-0.015-25.585-11.468-25.6-25.6v-34.133
			c0.006-4.71,3.823-8.527,8.533-8.533h85.333V290.135z"/>
	</g>
	<g>
		<path d="M273.065,384.002c4.713,0,8.533-3.821,8.533-8.533c0-4.713-3.821-8.533-8.533-8.533h-34.133
			c-4.713,0-8.533,3.821-8.533,8.533c0,4.713,3.821,8.533,8.533,8.533H273.065z"/>
		<path d="M383.999,230.402h-93.867c-10.813,0.033-20.435,6.868-24.028,17.067h-20.212c-3.592-10.199-13.214-17.033-24.028-17.067
			h-93.867c-4.713,0-8.533,3.821-8.533,8.533v51.2c0.028,23.553,19.114,42.639,42.667,42.667h42.667
			c23.553-0.028,42.639-19.114,42.667-42.667v-25.6h17.067v25.6c0.028,23.553,19.114,42.639,42.667,42.667h42.667
			c23.553-0.028,42.639-19.114,42.667-42.667v-51.2C392.532,234.222,388.712,230.402,383.999,230.402z M230.399,290.135
			c-0.015,14.132-11.468,25.585-25.6,25.6h-42.667c-14.132-0.015-25.585-11.468-25.6-25.6v-42.667h85.333
			c4.71,0.006,8.527,3.823,8.533,8.533V290.135z M375.465,290.135c-0.015,14.132-11.468,25.585-25.6,25.6h-42.667
			c-14.132-0.015-25.585-11.468-25.6-25.6v-34.133c0.006-4.71,3.823-8.527,8.533-8.533h85.333V290.135z"/>
		<path d="M204.799,264.535h-42.667c-4.713,0-8.533,3.82-8.533,8.533s3.821,8.533,8.533,8.533h17.067
			c0,4.713,3.821,8.533,8.533,8.533c4.713,0,8.533-3.821,8.533-8.533h8.533c4.713,0,8.533-3.82,8.533-8.533
			S209.512,264.535,204.799,264.535z"/>
		<path d="M307.199,281.602h8.533c0,4.713,3.82,8.533,8.533,8.533s8.533-3.821,8.533-8.533h17.067c4.713,0,8.533-3.82,8.533-8.533
			s-3.82-8.533-8.533-8.533h-42.667c-4.713,0-8.533,3.82-8.533,8.533S302.486,281.602,307.199,281.602z"/>
		<path d="M324.265,409.602H187.732c-4.713,0-8.533,3.82-8.533,8.533s3.821,8.533,8.533,8.533h136.533
			c4.713,0,8.533-3.82,8.533-8.533S328.978,409.602,324.265,409.602z"/>
		<path d="M298.665,435.202c-4.713,0-8.533,3.821-8.533,8.533h-76.8c-4.713,0-8.533,3.82-8.533,8.533s3.82,8.533,8.533,8.533h85.333
			c4.713,0,8.533-3.82,8.533-8.533v-8.533C307.199,439.022,303.378,435.202,298.665,435.202z"/>
		<path d="M398.89,21.994C358.974-0.556,309.049-0.227,265.024,0.069l-9.025,0.054l-9.025-0.054
			c-44.021-0.296-93.95-0.625-133.867,21.925c-84.849,47.92-78.399,148.58-62.429,232.086c-5.147,4.973-8.041,11.832-8.013,18.989
			v51.2c-0.443,13.651,10.23,25.093,23.879,25.6h26.946c12.997,52.02,46.407,121.489,132.041,156.271
			c9.669,3.906,20.005,5.897,30.433,5.862l0.032-0.007l0.035,0.007c10.429,0.035,20.765-1.958,30.433-5.867
			c85.636-34.78,119.045-104.247,132.041-156.267h26.943c13.65-0.506,24.324-11.948,23.883-25.6v-51.2
			c0.028-7.156-2.866-14.014-8.013-18.987C477.294,170.576,483.753,69.918,398.89,21.994z M121.499,36.852
			c35.954-20.312,83.437-20.013,125.363-19.717l9.104,0.054h0.067l9.104-0.054c41.925-0.292,89.404-0.596,125.362,19.717
			c74.333,41.984,69.132,133.434,54.709,210.617h-18.721c-0.393-16.32-1.609-33.465-3.746-51.2
			c-2.171-28.981-9.296-57.374-21.067-83.946c-5.241-11.34-13.559-20.982-24.008-27.829c-27.933-17.008-54.938-4.237-78.771,7.033
			c-13.158,7.587-27.781,12.283-42.896,13.775c-15.115-1.492-29.738-6.188-42.896-13.775c-23.825-11.271-50.817-24.05-78.771-7.033
			c-10.451,6.849-18.77,16.492-24.013,27.833c-11.764,26.572-18.887,54.963-21.062,83.942c-2.137,17.786-3.224,34.84-3.614,51.2
			H66.791C52.372,170.283,47.17,78.833,121.499,36.852z M66.545,332.802c-4.18-0.578-7.174-4.329-6.813-8.533v-51.2
			c-0.362-4.204,2.633-7.955,6.813-8.533h18.787v17.067c0.053,0.485,0.15,0.964,0.289,1.432c-0.12,0.365-0.214,0.739-0.281,1.118
			c-0.009,0.177-0.081,2.348-0.028,5.983h-8.514c-4.713,0-8.533,3.82-8.533,8.533c0,4.713,3.821,8.533,8.533,8.533h9.456
			c0.652,7.27,1.733,15.927,3.519,25.6H66.545z M280.04,490.323c-7.634,3.057-15.784,4.623-24.008,4.613h-0.067
			c-8.223,0.01-16.373-1.554-24.008-4.608C96.936,435.485,102.103,291.094,102.39,284.977c-0.023-0.64-0.12-1.275-0.291-1.892
			c0.146-0.484,0.246-0.98,0.3-1.483v-25.554c0.173-19.304,1.442-38.582,3.8-57.742c1.921-27.01,8.468-53.49,19.354-78.283
			c3.862-8.468,9.971-15.715,17.662-20.954c20.079-12.238,39.775-2.908,62.588,7.887c15.397,8.762,32.535,14.024,50.196,15.412
			c17.661-1.389,34.799-6.651,50.196-15.412c22.813-10.796,42.513-20.121,62.588-7.887c7.692,5.239,13.801,12.486,17.662,20.954
			c10.888,24.793,17.432,51.273,19.346,78.283c2.366,19.144,3.638,38.407,3.808,57.696v25.6c0.053,0.501,0.153,0.996,0.299,1.478
			c-0.171,0.621-0.269,1.261-0.29,1.905C409.682,286.481,415.349,435.373,280.04,490.323L280.04,490.323z M452.265,324.269
			c0.36,4.205-2.636,7.956-6.817,8.533h-23.226c1.785-9.673,2.867-18.33,3.518-25.6h9.457c4.713,0,8.533-3.82,8.533-8.533
			s-3.82-8.533-8.533-8.533h-8.515c0.054-3.635-0.018-5.806-0.027-5.983c-0.068-0.375-0.162-0.744-0.283-1.106
			c0.141-0.472,0.238-0.955,0.291-1.444v-17.067h18.783c4.181,0.578,7.177,4.328,6.817,8.533V324.269z"/>
		<path d="M305.47,206.514c4.409-0.013,8.786-0.739,12.963-2.15c2.671-0.892,5.25-1.783,7.746-2.642
			c22.562-7.788,32.158-10.508,43.254,0.579c2.151,2.178,5.304,3.037,8.262,2.251c2.958-0.786,5.269-3.097,6.055-6.055
			c0.786-2.958-0.073-6.111-2.251-8.262c-19.075-19.079-38.454-12.396-60.887-4.646l-7.579,2.583
			c-18.933,6.329-32.3-12.875-32.887-13.733c-2.63-3.895-7.915-4.931-11.82-2.315c-3.905,2.615-4.96,7.896-2.359,11.811
			C274.842,197.263,289.48,205.63,305.47,206.514z"/>
		<path d="M142.565,202.302c11.096-11.088,20.683-8.367,43.254-0.579c2.496,0.858,5.075,1.75,7.746,2.642
			c4.176,1.413,8.554,2.14,12.963,2.15c15.989-0.885,30.627-9.251,39.504-22.579c2.601-3.915,1.546-9.196-2.359-11.811
			c-3.905-2.615-9.19-1.58-11.82,2.315c-0.558,0.821-13.9,20.067-32.887,13.733l-7.579-2.583
			c-22.433-7.75-41.804-14.433-60.887,4.646c-3.332,3.332-3.332,8.735,0,12.067C133.831,205.634,139.233,205.634,142.565,202.302z"
			/>
	</g>
</g>
<g>
</g>
<g>
</g>
<g>
</g>
<g>
</g>
<g>
</g>
<g>
</g>
<g>
</g>
<g>
</g>
<g>
</g>
<g>
</g>
<g>
</g>
<g>
</g>
<g>
</g>
<g>
</g>
<g>
</g>
</svg>
