<?xml version="1.0" encoding="iso-8859-1"?>
<!-- Generator: Adobe Illustrator 19.0.0, SVG Export Plug-In . SVG Version: 6.00 Build 0)  -->
<svg version="1.1" id="Capa_1" xmlns="http://www.w3.org/2000/svg" xmlns:xlink="http://www.w3.org/1999/xlink" x="0px" y="0px"
	 viewBox="0 0 512.001 512.001" style="enable-background:new 0 0 512.001 512.001;" xml:space="preserve">
<g>
	<g transform="translate(1 1)">
		<g>
			<path style="fill:#4E342E;" d="M99.95,344.856l-2.304-4.523H67.267c-9.414-0.028-17.039-7.653-17.067-17.067v-51.2
				c0.03-8.294,5.997-15.375,14.165-16.811c0.957-0.173,1.928-0.259,2.901-0.256h25.771c-0.085,2.816-0.171,5.717-0.171,8.533
				v20.053c-0.291,19.002,1.714,37.97,5.973,56.491C99.182,341.699,99.523,343.235,99.95,344.856z"/>
			<path style="fill:#4E342E;" d="M459.8,272.067v51.2c-0.028,9.414-7.652,17.039-17.067,17.067h-31.659
				c4.311-18.6,6.346-37.656,6.059-56.747v-20.053c0-2.816-0.085-5.717-0.171-8.533h25.771
				C452.148,255.028,459.773,262.653,459.8,272.067z"/>
			<path style="fill:#4E342E;" d="M411.075,340.334c-11.179,50.517-42.325,121.771-128.853,156.928
				c-17.484,6.94-36.959,6.94-54.443,0C143.811,463.128,111.896,395.032,99.95,344.856c-0.427-1.621-0.768-3.157-1.109-4.779
				c-4.259-18.521-6.265-37.489-5.973-56.491v-20.053c0-2.816,0.085-5.717,0.171-8.533c0.341-16.811,1.706-33.536,3.669-50.176
				c0.171-1.792,0.427-3.499,0.683-5.291v-0.085c2.165-26.185,8.773-51.81,19.541-75.776c4.58-9.862,11.783-18.275,20.821-24.32
				c39.851-24.32,77.739,22.016,117.248,22.016s77.397-46.336,117.248-22.016c9.039,6.045,16.242,14.458,20.821,24.32
				c10.768,23.966,17.376,49.591,19.541,75.776v0.085c0.256,1.792,0.513,3.499,0.683,5.291c1.963,16.64,3.328,33.365,3.669,50.176
				c0.085,2.816,0.171,5.717,0.171,8.533v20.053C417.421,302.678,415.386,321.733,411.075,340.334z"/>
		</g>
		<path style="fill:#795548;" d="M378.161,347.306c-8.821,48.345-33.399,116.534-101.68,150.18c-13.55,6.642-29.411,6.642-42.961,0
			c-66.26-32.666-91.445-97.833-100.872-145.852c-0.337-1.552-0.606-3.021-0.875-4.573c-3.366-17.819-4.945-35.929-4.714-54.061
			v-19.191c0-2.695,0.067-5.472,0.135-8.166c0.269-16.088,1.346-32.094,2.896-48.018c0.134-1.715,0.337-3.348,0.539-5.063v-0.082
			c1.65-24.785,6.842-49.205,15.42-72.517c3.344-9.063,9.01-17.089,16.43-23.274c31.447-23.274,61.345,21.069,92.522,21.069
			s61.075-44.343,92.522-21.069c7.421,6.185,13.087,14.211,16.431,23.274c8.577,23.312,13.77,47.732,15.42,72.517v0.082
			c0.202,1.715,0.405,3.348,0.539,5.063c1.549,15.924,2.626,31.93,2.896,48.018c0.067,2.695,0.135,5.471,0.135,8.166v19.19
			C383.171,311.216,381.569,329.409,378.161,347.306z"/>
		<g>
			<path style="fill:#37474F;" d="M161.134,289.134H203.8v21.333c0,5.658-2.248,11.084-6.248,15.085
				c-4.001,4.001-9.427,6.248-15.085,6.248c-11.782,0-21.333-9.551-21.333-21.333V289.134z"/>
			<path style="fill:#37474F;" d="M327.534,331.8c-5.658,0-11.084-2.248-15.085-6.248c-4.001-4.001-6.248-9.427-6.248-15.085
				v-21.333h42.667v21.333C348.867,322.249,339.316,331.8,327.534,331.8z"/>
		</g>
		<path style="fill:#424242;" d="M502.467,148.334c0.031,3.405-0.429,6.796-1.365,10.069v0.085
			c-4.028,14.482-16.132,25.284-30.976,27.648c9.541,7.236,15.184,18.49,15.275,30.464c0,1.365-0.085,2.645-0.171,3.925v0.085
			C483.17,240.171,466.669,255.015,447,255c-1.426,0-2.851-0.086-4.267-0.256V255h-25.771c-0.085-3.072-0.171-6.229-0.341-9.301
			c-0.512-13.653-1.707-27.307-3.328-40.875c-0.171-1.792-0.427-3.499-0.683-5.291v-0.085c-2.165-26.185-8.773-51.81-19.541-75.776
			c-4.58-9.862-11.783-18.275-20.821-24.32C332.398,75.032,294.51,121.368,255,121.368s-77.397-46.336-117.248-22.016
			c-9.039,6.045-16.242,14.458-20.821,24.32c-10.768,23.966-17.376,49.591-19.541,75.776v0.085
			c-0.256,1.792-0.513,3.499-0.683,5.291c-1.621,13.568-2.816,27.221-3.328,40.875c-0.171,3.072-0.256,6.229-0.341,9.301H67.267
			c-0.49-0.033-0.982,0.025-1.451,0.171c-0.485-0.014-0.971,0.014-1.451,0.085l-0.085-0.171v-0.171
			c-0.423,0.071-0.852,0.099-1.28,0.085c-19.668,0.015-36.17-14.829-38.229-34.389v-0.085c-0.085-1.28-0.171-2.56-0.171-3.925
			c0.09-11.974,5.733-23.228,15.275-30.464c-14.844-2.364-26.948-13.166-30.976-27.648v-0.085
			c-0.936-3.273-1.396-6.665-1.365-10.069c0.007-13.389,7.036-25.794,18.517-32.683c-3.284-11.528-0.932-23.93,6.343-33.457
			S51.014,67.134,63,67.267c1.604,0.044,3.202,0.215,4.779,0.512c-0.297-1.577-0.468-3.175-0.512-4.779
			c-0.055-16.489,10.457-31.16,26.088-36.409s32.868,0.103,42.776,13.284c2.711-17.47,17.056-30.797,34.677-32.218
			s33.916,9.435,39.392,26.244c9.036-16.274,26.186-26.368,44.8-26.368s35.764,10.094,44.8,26.368
			c5.476-16.809,21.77-27.666,39.392-26.244c17.622,1.421,31.966,14.748,34.677,32.218c9.908-13.18,27.144-18.533,42.776-13.284
			c15.631,5.249,26.143,19.92,26.088,36.409c-0.044,1.604-0.215,3.202-0.512,4.779c1.577-0.297,3.175-0.468,4.779-0.512
			c11.986-0.133,23.331,5.401,30.607,14.927s9.626,21.928,6.343,33.457C495.431,122.539,502.46,134.944,502.467,148.334z"/>
		<path style="fill:#607D8B;" d="M501.102,158.403v0.085c-4.028,14.482-16.132,25.284-30.976,27.648
			c3.567,2.682,6.63,5.976,9.045,9.728c-2.931,1.049-5.962,1.792-9.045,2.218c8.247,4.729,13.828,13.022,15.104,22.443v0.085
			c0.085,0.853,0.171,1.792,0.171,2.645c0,17.579-17.152,31.829-38.4,31.829c-1.426,0-2.851-0.086-4.267-0.256v0.256h-25.771V255
			c-0.085-3.072-0.171-6.229-0.341-9.301c-0.512-13.653-1.707-27.307-3.328-40.875c-0.171-1.792-0.427-3.499-0.683-5.291v-0.085
			c-2.165-26.185-8.773-51.81-19.541-75.776c-4.58-9.862-11.783-18.275-20.821-24.32C332.398,75.032,294.51,121.368,255,121.368
			s-77.397-46.336-117.248-22.016c-9.039,6.045-16.242,14.458-20.821,24.32c-10.768,23.966-17.376,49.591-19.541,75.776v0.085
			c-0.256,1.792-0.513,3.499-0.683,5.291c-1.621,13.568-2.816,27.221-3.328,40.875c-0.171,3.072-0.256,6.229-0.341,9.301v0.085
			H67.267c-0.485-0.017-0.971,0.012-1.451,0.085c-0.485-0.014-0.971,0.014-1.451,0.085l-0.085-0.171V255
			c-0.423,0.071-0.852,0.099-1.28,0.085c-21.248,0-38.4-14.251-38.4-31.829c0-0.853,0.085-1.792,0.171-2.645v-0.085
			c1.276-9.421,6.857-17.713,15.104-22.443c-3.083-0.426-6.115-1.17-9.045-2.219c2.416-3.752,5.478-7.046,9.045-9.728
			c-14.844-2.364-26.948-13.166-30.976-27.648v-0.085c3.028-8.249,9.193-14.966,17.152-18.688c-0.909-2.667-1.398-5.46-1.451-8.277
			c0-17.579,17.152-31.829,38.4-31.829c1.599,0.058,3.194,0.2,4.779,0.427c-0.301-1.288-0.473-2.603-0.512-3.925
			c0-17.579,17.152-31.744,38.4-31.744c11.472-0.227,22.517,4.352,30.464,12.629c4.699-16.733,20.458-27.903,37.803-26.795
			c15.385-0.685,29.679,7.925,36.267,21.845C220.636,57.843,237.384,49.676,255,50.2c17.616-0.524,34.365,7.643,44.8,21.845
			c6.587-13.92,20.882-22.531,36.267-21.845c17.345-1.108,33.104,10.061,37.803,26.795c7.947-8.277,18.992-12.856,30.464-12.629
			c21.248,0,38.4,14.165,38.4,31.744c-0.039,1.322-0.211,2.637-0.512,3.925c1.584-0.227,3.179-0.369,4.779-0.427
			c21.248,0,38.4,14.251,38.4,31.829c-0.052,2.818-0.542,5.61-1.451,8.277C491.909,143.437,498.074,150.154,501.102,158.403z"/>
		<path style="fill:#FFFFFF;" d="M306.2,408.603c-3.121,9.691-5.573,19.584-7.339,29.611c-1.865,13.326-11.447,24.281-24.405,27.904
			c-12.802,2.958-26.11,2.958-38.913,0c-12.959-3.623-22.54-14.578-24.405-27.904c-1.765-10.027-4.217-19.92-7.339-29.611H306.2z"/>
	</g>
	<g>
		<path d="M183.467,341.334c16.487-0.02,29.847-13.38,29.867-29.867v-21.333c0-4.713-3.821-8.533-8.533-8.533h-59.733
			c-4.713,0-8.533,3.82-8.533,8.533s3.82,8.533,8.533,8.533h8.533v12.8C153.62,327.954,166.98,341.314,183.467,341.334z
			 M196.267,298.667v12.8c0,7.069-5.731,12.8-12.8,12.8c-7.069,0-12.8-5.731-12.8-12.8v-12.8H196.267z"/>
		<path d="M366.934,281.6H307.2c-4.713,0-8.533,3.82-8.533,8.533v21.333c0,16.495,13.372,29.867,29.867,29.867
			c16.495,0,29.867-13.372,29.867-29.867v-12.8h8.533c4.713,0,8.533-3.82,8.533-8.533S371.647,281.6,366.934,281.6z
			 M341.334,311.467c0,7.069-5.731,12.8-12.8,12.8c-7.069,0-12.8-5.731-12.8-12.8v-12.8h25.6V311.467z"/>
		<path d="M238.934,384h34.133c4.713,0,8.533-3.82,8.533-8.533s-3.82-8.533-8.533-8.533h-34.133c-4.713,0-8.533,3.821-8.533,8.533
			S234.221,384,238.934,384z"/>
		<path d="M256,349.867c4.713,0,8.533-3.821,8.533-8.533v-17.067c0-4.713-3.821-8.533-8.533-8.533c-4.713,0-8.533,3.82-8.533,8.533
			v17.067C247.467,346.046,251.288,349.867,256,349.867z"/>
		<path d="M328.084,376.367c-4.02-2.054-8.944-0.591-11.19,3.324c-2.246,3.916-1.022,8.905,2.781,11.337l-15.058,10.039h-97.233
			l-15.058-10.039c3.803-2.432,5.027-7.421,2.781-11.337c-2.246-3.916-7.17-5.379-11.19-3.324
			c-12.804,6.248-21.163,19-21.783,33.233c0,4.713,3.821,8.533,8.533,8.533s8.533-3.82,8.533-8.533
			c0.14-2.032,0.584-4.032,1.317-5.933l17.05,11.366c2.595,8.372,4.647,16.902,6.142,25.538
			c2.391,16.672,14.444,30.338,30.688,34.792c14.211,3.339,29.002,3.339,43.213,0c16.241-4.456,28.293-18.121,30.683-34.792
			c1.495-8.636,3.547-17.166,6.142-25.538l17.008-11.339c0.74,1.92,1.198,3.938,1.357,5.989c0.023,4.713,3.862,8.515,8.575,8.492
			c4.713-0.023,8.515-3.862,8.492-8.575C349.246,395.367,340.888,382.615,328.084,376.367z M273.371,458.829
			c-11.43,2.628-23.307,2.628-34.738,0c-9.656-2.771-16.753-11-18.075-20.958c-1.112-6.649-2.562-13.237-4.347-19.738h79.577
			c-1.784,6.501-3.235,13.089-4.347,19.738C290.12,447.828,283.025,456.056,273.371,458.829z"/>
		<path d="M494.45,112.9c0.318-2.063,0.48-4.146,0.483-6.233c-0.029-24.324-18.613-44.607-42.842-46.758
			c-2.152-24.229-22.434-42.812-46.758-42.842c-9.518-0.02-18.809,2.901-26.604,8.363c-7.37-14.387-21.65-23.944-37.759-25.271
			c-16.11-1.327-31.762,5.764-41.386,18.75C288.299,6.846,272.519,0,256,0s-32.298,6.846-43.583,18.908
			c-9.625-12.986-25.277-20.078-41.386-18.75s-30.39,10.885-37.759,25.271c-7.795-5.462-17.086-8.382-26.604-8.363
			C82.343,17.096,62.061,35.68,59.909,59.909C35.68,62.06,17.097,82.343,17.067,106.667c0.004,2.087,0.165,4.171,0.483,6.233
			c-12.387,9.903-18.906,25.413-17.314,41.192s11.078,29.674,25.193,36.904c-5.462,7.795-8.382,17.086-8.363,26.604
			c0.021,18.915,11.379,35.974,28.822,43.29c-2.084,3.722-3.192,7.911-3.222,12.177v51.2c0.015,14.132,11.468,25.585,25.6,25.6
			h25.226c12.997,52.02,46.407,121.489,132.041,156.271c9.669,3.906,20.005,5.897,30.433,5.862l0.033-0.007l0.034,0.007
			c10.429,0.035,20.765-1.958,30.433-5.867c85.634-34.78,119.045-104.247,132.041-156.267h25.226
			c14.132-0.015,25.585-11.468,25.6-25.6v-51.2c-0.029-4.266-1.137-8.455-3.221-12.177c17.443-7.316,28.8-24.375,28.821-43.29
			c0.02-9.518-2.901-18.809-8.363-26.604c14.115-7.23,23.601-21.125,25.193-36.904S506.837,122.804,494.45,112.9L494.45,112.9z
			 M68.267,332.8c-4.71-0.006-8.527-3.823-8.533-8.533v-51.2c0.006-4.71,3.823-8.527,8.533-8.533h17.067v19.867
			c-0.02,0.546-0.067,2.525-0.019,5.733H76.8c-4.713,0-8.533,3.82-8.533,8.533s3.821,8.533,8.533,8.533h9.456
			c0.652,7.27,1.733,15.927,3.519,25.6H68.267z M280.042,490.321c-7.635,3.057-15.784,4.623-24.008,4.613h-0.067
			c-8.223,0.01-16.373-1.554-24.008-4.608c-121.772-49.461-129.515-171.718-129.652-199.73c0.009-0.161,0.093-0.298,0.093-0.462
			v-25.554c0.173-19.304,1.442-38.582,3.8-57.742c1.921-27.01,8.468-53.49,19.354-78.283c3.862-8.468,9.971-15.715,17.662-20.954
			c20.079-12.238,39.779-2.904,62.588,7.887c15.397,8.762,32.535,14.024,50.196,15.412c17.661-1.389,34.799-6.651,50.196-15.412
			c22.813-10.796,42.513-20.117,62.588-7.887c7.691,5.238,13.8,12.484,17.662,20.95c10.886,24.794,17.432,51.273,19.354,78.283
			c2.356,19.146,3.625,38.41,3.8,57.7v25.6c0,0.164,0.084,0.301,0.093,0.462C409.557,318.607,401.814,440.865,280.042,490.321z
			 M452.267,324.267c-0.006,4.71-3.823,8.527-8.533,8.533h-21.508c1.785-9.673,2.867-18.33,3.519-25.6h9.456
			c4.713,0,8.533-3.82,8.533-8.533s-3.82-8.533-8.533-8.533h-8.514c0.047-3.208,0.001-5.187-0.019-5.733v-19.867h17.067
			c4.71,0.006,8.527,3.823,8.533,8.533V324.267z M469.792,178.709c-3.377,0.535-6.108,3.033-6.941,6.349
			c-0.833,3.316,0.393,6.809,3.116,8.876c7.477,5.571,11.888,14.343,11.9,23.667c-0.065,8.467-3.698,16.513-10.006,22.162
			c-6.308,5.648-14.705,8.375-23.127,7.509c-0.854-0.068-1.713-0.002-2.546,0.196h-15.963c-0.577-13.727-1.72-27.994-3.483-42.671
			c-2.176-28.978-9.3-57.369-21.062-83.942c-5.244-11.34-13.563-20.981-24.013-27.829c-27.925-17.017-54.942-4.233-78.771,7.033
			c-13.158,7.587-27.781,12.283-42.896,13.775c-15.115-1.492-29.738-6.188-42.896-13.775c-23.821-11.271-50.813-24.05-78.771-7.033
			c-10.451,6.849-18.77,16.492-24.013,27.833c-11.764,26.572-18.887,54.963-21.062,83.942c-1.77,14.731-2.729,28.876-3.303,42.667
			H68.267c-0.429,0-0.83,0.106-1.254,0.127c-0.675-0.132-1.364-0.18-2.051-0.143c-0.158,0.015-0.316,0.022-0.475,0.021
			c-7.987,0.065-15.672-3.046-21.365-8.648s-8.926-13.236-8.99-21.223c0.012-9.324,4.423-18.096,11.9-23.667
			c2.723-2.067,3.949-5.56,3.116-8.876c-0.833-3.316-3.565-5.814-6.941-6.349c-12.354-1.906-22.187-11.352-24.589-23.618
			c-2.402-12.267,3.142-24.723,13.864-31.149c3.227-1.964,4.779-5.814,3.817-9.467c-2.605-8.968-0.804-18.641,4.856-26.07
			S54.662,76.67,64,76.8c1.155,0.045,2.304,0.18,3.437,0.404c2.708,0.4,5.444-0.518,7.363-2.471
			c1.933-1.967,2.816-4.735,2.379-7.458C76.967,66.195,76.84,65.1,76.8,64c0.02-16.487,13.38-29.847,29.867-29.867
			c9.324,0.012,18.096,4.423,23.667,11.9c2.067,2.723,5.56,3.949,8.876,3.116s5.814-3.565,6.349-6.941
			c2.096-13.579,13.242-23.942,26.937-25.046s26.357,7.34,30.601,20.408c1.058,3.215,3.917,5.501,7.287,5.825
			c3.369,0.324,6.612-1.374,8.263-4.329c7.528-13.577,21.83-22,37.354-22s29.826,8.423,37.354,22
			c1.652,2.955,4.894,4.653,8.263,4.329c3.369-0.324,6.228-2.61,7.287-5.825c4.244-13.068,16.905-21.512,30.601-20.408
			c13.695,1.104,24.841,11.467,26.937,25.046c0.535,3.377,3.033,6.108,6.349,6.941s6.809-0.393,8.876-3.116
			c5.571-7.477,14.343-11.888,23.667-11.9C421.82,34.153,435.181,47.514,435.2,64c-0.045,1.155-0.18,2.304-0.404,3.437
			c-0.403,2.708,0.516,5.446,2.471,7.363c1.969,1.93,4.736,2.813,7.458,2.379c1.08-0.213,2.175-0.34,3.275-0.379
			c9.338-0.13,18.185,4.176,23.844,11.605c5.659,7.429,7.461,17.102,4.856,26.07c-0.962,3.652,0.59,7.503,3.817,9.467
			c10.722,6.425,16.266,18.882,13.864,31.149C491.979,167.357,482.146,176.802,469.792,178.709L469.792,178.709z"/>
		<path d="M136.534,256c0.006-4.71,3.823-8.527,8.533-8.533h51.2c4.713,0,8.533-3.821,8.533-8.533c0-4.713-3.821-8.533-8.533-8.533
			h-51.2c-14.132,0.015-25.585,11.468-25.6,25.6v8.533c0,4.713,3.821,8.533,8.533,8.533c4.713,0,8.533-3.82,8.533-8.533V256z"/>
		<path d="M366.934,230.4h-51.2c-4.713,0-8.533,3.821-8.533,8.533c0,4.713,3.82,8.533,8.533,8.533h51.2
			c4.71,0.006,8.527,3.823,8.533,8.533v8.533c0,4.713,3.821,8.533,8.533,8.533c4.713,0,8.533-3.82,8.533-8.533V256
			C392.518,241.868,381.066,230.416,366.934,230.4z"/>
	</g>
</g>
<g>
</g>
<g>
</g>
<g>
</g>
<g>
</g>
<g>
</g>
<g>
</g>
<g>
</g>
<g>
</g>
<g>
</g>
<g>
</g>
<g>
</g>
<g>
</g>
<g>
</g>
<g>
</g>
<g>
</g>
</svg>
