<?xml version="1.0" encoding="iso-8859-1"?>
<!-- Generator: Adobe Illustrator 19.0.0, SVG Export Plug-In . SVG Version: 6.00 Build 0)  -->
<svg version="1.1" id="Capa_1" xmlns="http://www.w3.org/2000/svg" xmlns:xlink="http://www.w3.org/1999/xlink" x="0px" y="0px"
	 viewBox="0 0 511.902 511.902" style="enable-background:new 0 0 511.902 511.902;" xml:space="preserve">
<g>
	<g transform="translate(1 1)">
		<g>
			<path style="fill:#424242;" d="M173.884,452.38C66.535,483.612,41.618,417.052,41.618,417.052
				c25.6-17.067,16.811-129.195,16.811-129.195c4.693,12.544,16.725,42.069,34.731,36.352c3.136-1.124,5.949-2.999,8.192-5.461
				l0.256-0.085C111.335,361.671,131.644,413.553,173.884,452.38z"/>
			<path style="fill:#424242;" d="M468.284,417.052c0,0-24.917,66.56-132.267,35.328c42.24-38.827,62.549-90.709,72.277-133.717
				l0.256,0.085c2.243,2.463,5.056,4.338,8.192,5.461c18.005,5.717,30.037-23.808,34.731-36.352
				C451.474,287.857,442.684,399.985,468.284,417.052z"/>
		</g>
		<path style="fill:#4E342E;" d="M408.295,327.196c-9.728,43.008-30.037,94.891-72.277,133.717h-0.085
			c-15.876,14.693-34.032,26.711-53.76,35.584c-17.298,7.851-37.144,7.851-54.443,0c-19.728-8.873-37.884-20.891-53.76-35.584
			h-0.085c-42.24-38.827-62.549-90.709-72.277-133.717c-6.121-26.407-9.072-53.449-8.789-80.555c0,0,162.133-8.704,162.133-111.189
			c0,102.485,162.133,111.189,162.133,111.189C417.367,273.747,414.416,300.789,408.295,327.196z"/>
		<path style="fill:#795548;" d="M375.959,322.736c-7.676,42.008-23.703,92.684-57.036,130.608h-0.067
			c-12.033,13.943-26.386,25.701-42.423,34.756c-13.294,7.668-29.668,7.668-42.962,0c-16.038-9.055-30.39-20.813-42.423-34.756
			h-0.067c-33.333-37.924-49.36-88.6-57.036-130.608c-4.839-25.943-7.162-52.292-6.936-78.681c0,0,127.944-8.501,127.944-108.603
			c0,100.102,127.944,108.604,127.944,108.604C383.121,270.445,380.799,296.794,375.959,322.736z"/>
		<g>
			<path style="fill:#009688;" d="M203.751,274.953v25.003c0,11.782-9.551,21.333-21.333,21.333
				c-11.782,0-21.333-9.551-21.333-21.333v-24.917"/>
			<path style="fill:#009688;" d="M348.818,275.038v24.917c0,11.782-9.551,21.333-21.333,21.333s-21.333-9.551-21.333-21.333
				v-25.003"/>
		</g>
		<path style="fill:#424242;" d="M451.218,231.06l-6.315,1.376c-10.861,1.963-20.698,7.65-27.819,16.083
			c0,0-162.133-8.772-162.133-112.062c0,103.29-162.133,112.062-162.133,112.062c-7.12-8.433-16.958-14.12-27.819-16.083
			c-1.798-0.106-3.599,0.157-5.291,0.774l-1.024-2.15c8.533-51.172,34.133-162.03,93.867-204.688c59.733-42.572,102.4,0,102.4,0
			s42.667-42.572,102.4,0C417.084,69.03,442.684,179.888,451.218,231.06z"/>
		<path style="fill:#607D8B;" d="M451.218,224.874l-6.315,1.023c-10.24,1.19-19.908,5.345-27.819,11.955
			c0,0-162.133-6.521-162.133-83.302c0,76.782-162.133,83.302-162.133,83.302c-7.91-6.61-17.579-10.765-27.819-11.955
			c-1.783-0.081-3.567,0.113-5.291,0.576l-1.024-1.598c8.533-38.039,34.133-120.447,93.867-152.157c59.733-31.646,102.4,0,102.4,0
			s42.667-31.646,102.4,0C417.084,104.427,442.684,186.835,451.218,224.874z"/>
		<g>
			<path style="fill:#4E342E;" d="M451.474,296.391c-4.693,12.544-16.725,42.069-34.731,36.352
				c-3.136-1.124-5.949-2.999-8.192-5.461l-0.256-0.085c6.121-26.407,9.072-53.449,8.789-80.555
				c7.145-8.381,16.977-14.021,27.819-15.957c6.431-0.195,12.138,4.094,13.739,10.325
				C465.042,258.759,457.788,279.58,451.474,296.391z"/>
			<path style="fill:#4E342E;" d="M101.607,327.196l-0.256,0.085c-2.243,2.463-5.056,4.338-8.192,5.461
				c-18.005,5.717-30.037-23.808-34.731-36.352c-6.315-16.811-13.568-37.632-7.168-55.381c1.318-4.249,4.393-7.728,8.448-9.557
				c1.693-0.612,3.493-0.874,5.291-0.768c10.841,1.936,20.674,7.576,27.819,15.957C92.535,273.747,95.486,300.789,101.607,327.196z"
				/>
		</g>
	</g>
	<g>
		<path d="M226.534,333.635c-2.025,1.012-3.564,2.787-4.28,4.934c-0.716,2.147-0.549,4.491,0.463,6.516
			c6.44,12.632,19.08,20.918,33.233,21.784c14.153-0.866,26.793-9.151,33.233-21.783c2.086-4.203,0.387-9.302-3.803-11.415
			c-4.19-2.112-9.3-0.445-11.438,3.732c-3.561,6.869-10.305,11.517-17.992,12.4c-7.668-0.878-14.4-5.505-17.967-12.35
			c-1.011-2.025-2.786-3.566-4.934-4.281C230.903,332.455,228.559,332.622,226.534,333.635z"/>
		<path d="M213.284,288.413c4.279,1.927,8.39,4.206,12.292,6.813c2.526,1.706,5.771,1.935,8.511,0.6
			c2.74-1.335,4.561-4.03,4.775-7.071c0.214-3.041-1.21-5.965-3.736-7.671c-8.19-5.58-17.184-9.876-26.672-12.739
			c-0.487-0.209-0.992-0.372-1.509-0.485c-15.252-4.288-31.391-4.287-46.643,0.004c-0.644,0.106-1.273,0.287-1.876,0.538
			c-9.735,2.81-18.934,7.219-27.221,13.048c-3.67,2.925-4.29,8.265-1.386,11.953c2.904,3.687,8.24,4.338,11.944,1.456
			c3.687-2.628,7.637-4.865,11.788-6.673v12.769c0,16.495,13.372,29.867,29.867,29.867s29.867-13.372,29.867-29.867V288.413z
			 M183.418,313.756c-7.066-0.008-12.792-5.734-12.8-12.8v-18.093c8.461-1.584,17.142-1.575,25.6,0.025v18.069
			C196.21,308.022,190.484,313.748,183.418,313.756L183.418,313.756z"/>
		<path d="M358.351,300.956v-12.879c4.164,1.836,8.12,4.113,11.8,6.792c3.705,2.912,9.069,2.27,11.981-1.435
			c2.912-3.705,2.27-9.069-1.435-11.981c-8.291-5.824-17.489-10.234-27.222-13.049c-0.599-0.249-1.225-0.429-1.865-0.535
			c-15.272-4.302-31.436-4.301-46.707,0.005c-0.492,0.11-0.973,0.265-1.437,0.462c-9.495,2.863-18.496,7.163-26.69,12.751
			c-2.526,1.706-3.95,4.63-3.736,7.671c0.214,3.041,2.035,5.736,4.775,7.071c2.74,1.335,5.985,1.106,8.511-0.6
			c3.904-2.611,8.015-4.898,12.292-6.839v12.568c0,16.495,13.372,29.867,29.867,29.867
			C344.979,330.823,358.351,317.451,358.351,300.956z M328.484,313.756c-7.066-0.008-12.792-5.734-12.8-12.8v-18.158
			c8.453-1.63,17.138-1.654,25.6-0.068v18.227C341.277,308.022,335.55,313.748,328.484,313.756z"/>
		<path d="M122.668,478.706c16.94-0.264,33.772-2.755,50.064-7.406c15.674,13.899,33.353,25.358,52.441,33.99
			c9.658,4.351,20.128,6.605,30.721,6.613l0.027-0.005l0.023,0.005h0.067c10.593-0.008,21.063-2.262,30.721-6.613
			c19.088-8.632,36.767-20.09,52.441-33.99c16.291,4.652,33.123,7.142,50.064,7.407c68.679,0,87.817-48.525,88.042-49.129
			c1.391-3.712,0.041-7.894-3.258-10.092c-14.64-9.762-16.477-75.723-13.121-120.211c7.39-19.821,13.801-40.73,6.725-60.218
			c-1.431-4.052-3.858-7.68-7.058-10.55c-8.082-47.898-33.631-163.138-97.28-208.213c-51.595-36.539-92.512-14.661-107.328-3.96
			c-14.808-10.706-55.727-32.602-107.338,3.96C84.994,65.351,59.441,180.515,51.349,228.446c-3.209,2.89-5.639,6.54-7.069,10.614
			c-7.076,19.485-0.665,40.393,6.725,60.214c3.356,44.488,1.519,110.448-13.121,120.211c-3.3,2.198-4.65,6.379-3.258,10.092
			C34.851,430.181,53.976,478.706,122.668,478.706z M53.005,428.352c14.541-18.335,16.942-62.659,16.519-95.56
			c6.281,8.435,17.156,12.057,27.24,9.072c0.238-0.075,0.475-0.154,0.713-0.237c10.52,42.995,31.463,82.738,60.982,115.721
			C87.026,473.392,60.461,441.073,53.005,428.352z M93.443,324.706c-0.569,0.374-1.184,0.672-1.829,0.887
			c-7.083,2.279-15.933-9.112-24.225-31.192c-6.437-17.167-12.292-35.133-7.067-49.513c1.579-4.35,3.8-4.738,4.879-4.738
			c0.138,0,0.254,0.009,0.35,0.013c7.605,1.417,14.528,5.311,19.688,11.075C85.482,275.942,88.231,300.557,93.443,324.706z
			 M279.68,489.748c-7.442,3.35-15.51,5.084-23.671,5.087h-0.117c-8.161-0.003-16.229-1.737-23.671-5.087
			c-119.575-54.243-129.297-199.615-129.886-234.222c28.738-2.79,124.503-16.749,153.616-79.39
			c29.116,62.646,124.895,76.603,153.623,79.391C409.021,290.117,399.44,435.424,279.68,489.748z M446.351,240.165
			c0.842-0.038,3.45-0.179,5.229,4.721c5.225,14.383-0.629,32.35-7.067,49.517c-8.288,22.075-17.075,33.412-24.233,31.187
			c-0.642-0.215-1.254-0.512-1.82-0.884c5.213-24.148,7.962-48.763,8.204-73.467C431.824,245.475,438.746,241.581,446.351,240.165
			L446.351,240.165z M353.449,457.344c29.516-32.982,50.458-72.724,60.977-115.717c0.233,0.083,0.471,0.158,0.704,0.233
			c10.082,3,20.965-0.615,27.247-9.052c-0.422,32.875,1.976,77.143,16.486,95.502C451.332,440.898,424.441,473.218,353.449,457.344
			L353.449,457.344z M158.484,34.219c52.9-37.454,89.938-2.387,91.483-0.875c0.458,0.375,0.955,0.699,1.483,0.966
			c0.41,0.324,0.849,0.61,1.311,0.854c0.519,0.157,1.052,0.263,1.592,0.317c1.042,0.405,2.198,0.403,3.238-0.007
			c0.534-0.054,1.061-0.16,1.575-0.316c0.534-0.278,1.038-0.61,1.504-0.992c0.456-0.242,0.888-0.527,1.29-0.851
			c1.529-1.521,38.192-36.825,91.458,0.905c56.197,39.803,81.003,146.306,88.926,189.269c-10.447,2.286-19.975,7.636-27.365,15.366
			c-22.919-2.002-150.494-17.01-150.494-102.403c0-4.713-3.821-8.533-8.533-8.533c-4.713,0-8.533,3.821-8.533,8.533
			c0,85.267-127.574,100.379-150.497,102.4c-7.39-7.729-16.917-13.079-27.363-15.365C77.482,180.525,102.287,74.021,158.484,34.219z
			"/>
		<path d="M290.084,409.519h-68.267c-4.713,0-8.533,3.821-8.533,8.533c0,4.713,3.821,8.533,8.533,8.533h68.267
			c4.713,0,8.533-3.821,8.533-8.533C298.618,413.339,294.797,409.519,290.084,409.519z"/>
		<path d="M264.484,443.652h-17.067c-4.713,0-8.533,3.821-8.533,8.533s3.821,8.533,8.533,8.533h17.067
			c4.713,0,8.533-3.82,8.533-8.533S269.197,443.652,264.484,443.652z"/>
	</g>
</g>
<g>
</g>
<g>
</g>
<g>
</g>
<g>
</g>
<g>
</g>
<g>
</g>
<g>
</g>
<g>
</g>
<g>
</g>
<g>
</g>
<g>
</g>
<g>
</g>
<g>
</g>
<g>
</g>
<g>
</g>
</svg>
