<?xml version="1.0" encoding="iso-8859-1"?>
<!-- Generator: Adobe Illustrator 19.0.0, SVG Export Plug-In . SVG Version: 6.00 Build 0)  -->
<svg version="1.1" id="Capa_1" xmlns="http://www.w3.org/2000/svg" xmlns:xlink="http://www.w3.org/1999/xlink" x="0px" y="0px"
	 viewBox="0 0 503.904 503.904" style="enable-background:new 0 0 503.904 503.904;" xml:space="preserve">
<g>
	<g transform="translate(1 1)">
		<g>
			<path style="fill:#4E342E;" d="M107.286,217.547v83.934H63.173c-12.131,0-22.057-7.554-22.057-16.787v-50.361
				c0-9.233,9.926-16.787,22.057-16.787H107.286z"/>
			<path style="fill:#4E342E;" d="M460.788,234.334v50.361c-0.762,9.922-9.345,17.396-19.278,16.787h-38.556v-83.934h38.556
				C451.443,216.938,460.026,224.412,460.788,234.334z"/>
		</g>
		<g>
			<path style="fill:#59474E;" d="M91.476,267.908h-25.18c-4.636,0-8.393-3.758-8.393-8.393s3.758-8.393,8.393-8.393h25.18
				c4.636,0,8.393,3.758,8.393,8.393S96.112,267.908,91.476,267.908z"/>
			<path style="fill:#59474E;" d="M435.608,267.908h-25.18c-4.636,0-8.393-3.758-8.393-8.393s3.758-8.393,8.393-8.393h25.18
				c4.636,0,8.393,3.758,8.393,8.393S440.243,267.908,435.608,267.908z"/>
		</g>
		<path style="fill:#4E342E;" d="M410.427,192.367v109.115c-1.311,35.891-10.51,71.053-26.943,102.988v0.084
			c-21.653,42.522-60.286,73.898-106.345,86.369c-12.609,3.518-25.797,4.46-38.778,2.77c-4.595-0.583-9.14-1.509-13.597-2.77
			c-46.082-12.476-84.723-43.889-106.345-86.452c-16.433-31.935-25.632-67.097-26.943-102.988V192.367
			c15.616,0.023,31.204-1.325,46.584-4.029l0.084-0.084c60.097-11.079,88.467-42.135,101.393-64.21
			c4.575-7.445,7.999-15.538,10.156-24.006c0,30.636,45.241,35.84,87.376,36.763c8.645,0.168,17.207,0.168,25.18,0.168
			c46.919,0,46.919,55.397,46.919,55.397H410.427z"/>
		<path style="fill:#795548;" d="M385.247,192.367v109.115c-1.311,35.891-10.51,71.053-26.943,102.988v0.084
			c-21.653,42.522-60.286,73.898-106.345,86.369c-4.457,1.261-9.002,2.186-13.597,2.77c-4.595-0.583-9.14-1.509-13.597-2.77
			c-46.082-12.476-84.723-43.889-106.345-86.452c-16.433-31.935-25.632-67.097-26.943-102.988V192.367
			c15.616,0.023,31.204-1.325,46.584-4.029l0.084-0.084c60.097-11.079,88.467-42.135,101.393-64.21
			c22.159,12.926,64.462,12.926,97.532,12.926c46.919,0,46.919,55.397,46.919,55.397L385.247,192.367z"/>
		<g>
			<path style="fill:#00838F;" d="M125.05,225.94h92.328c9.271,0,16.787,7.516,16.787,16.787v33.574
				c0,18.542-15.031,33.574-33.574,33.574h-41.967c-18.542,0-33.574-15.031-33.574-33.574V225.94z"/>
			<path style="fill:#00838F;" d="M284.526,225.94h92.328v50.361c0,18.542-15.031,33.574-33.574,33.574h-41.967
				c-18.542,0-33.574-15.031-33.574-33.574v-33.574C267.739,233.456,275.255,225.94,284.526,225.94z"/>
		</g>
		<g>
			<path style="fill:#00BCD4;" d="M125.05,225.94h67.148c9.271,0,16.787,7.516,16.787,16.787v33.574
				c0,18.542-15.031,33.574-33.574,33.574h-16.787c-18.542,0-33.574-15.031-33.574-33.574V225.94z"/>
			<path style="fill:#00BCD4;" d="M284.526,225.94h67.148v50.361c0,18.542-15.031,33.574-33.574,33.574h-16.787
				c-18.542,0-33.574-15.031-33.574-33.574v-33.574C267.739,233.456,275.255,225.94,284.526,225.94z"/>
		</g>
		<path style="fill:#4E342E;" d="M250.952,381.219c-21.988,1.071-40.724-15.792-41.967-37.771c0-4.636,3.758-8.393,8.393-8.393
			c4.636,0,8.393,3.758,8.393,8.393c1.274,12.687,12.471,22.019,25.18,20.984c12.709,1.035,23.907-8.296,25.18-20.984
			c0-4.636,3.758-8.393,8.393-8.393s8.393,3.758,8.393,8.393C291.676,365.427,272.94,382.29,250.952,381.219z"/>
		<g>
			<path style="fill:#59474E;" d="M318.099,418.99H183.804c-4.636,0-8.393-3.758-8.393-8.393c0-4.636,3.758-8.393,8.393-8.393
				h134.295c4.636,0,8.393,3.758,8.393,8.393C326.493,415.232,322.735,418.99,318.099,418.99z"/>
			<path style="fill:#59474E;" d="M292.919,452.563h-83.934c-4.636,0-8.393-3.758-8.393-8.393s3.758-8.393,8.393-8.393h75.541
				c0-4.636,3.758-8.393,8.393-8.393s8.393,3.758,8.393,8.393v8.393C301.313,448.805,297.555,452.563,292.919,452.563z"/>
		</g>
		<g>
			<path style="fill:#2C2F38;" d="M183.804,276.301c-4.636,0-8.393-3.758-8.393-8.393v-8.393c0-4.636,3.758-8.393,8.393-8.393
				c4.636,0,8.393,3.758,8.393,8.393v8.393C192.198,272.543,188.44,276.301,183.804,276.301z"/>
			<path style="fill:#2C2F38;" d="M318.099,276.301c-4.636,0-8.393-3.758-8.393-8.393v-8.393c0-4.636,3.758-8.393,8.393-8.393
				s8.393,3.758,8.393,8.393v8.393C326.493,272.543,322.735,276.301,318.099,276.301z"/>
		</g>
		<path style="fill:#37474F;" d="M353.06,48.167c-17.363-7.451-36.396-10.145-55.145-7.806c-1.847,0.252-9.652-8.226-11.331-9.401
			c-9.768-7.272-20.467-13.2-31.811-17.626c-50.361-19.557-110.877-0.755-145.71,42.723C103.741,62.5,99.1,69.476,95.213,76.873
			c-17.091,35.389-21.019,75.709-11.079,113.731c0.839,3.441,1.678,6.799,2.686,10.156h1.259
			c15.627,0.031,31.223-1.402,46.584-4.281l0.084-0.084c23.764-4.12,46.288-13.56,65.889-27.614
			c9.928-7.279,18.749-15.959,26.188-25.768c9.182-11.704,15.815-25.198,19.472-39.617c0,38.946,65.637,38.946,112.556,38.946
			c8.571-0.223,17.005,2.178,24.173,6.883c22.746,15.444,22.746,51.536,22.746,51.536C418.612,142.594,406.106,71.837,353.06,48.167
			z"/>
		<path style="fill:#607D8B;" d="M385.247,144.606c-7.168-4.704-15.602-7.106-24.173-6.883c-46.919,0-112.556,0-112.556-38.946
			c-3.658,14.419-10.29,27.913-19.472,39.617c-7.439,9.809-16.259,18.489-26.188,25.768c-19.6,14.054-42.125,23.494-65.889,27.614
			l-0.084,0.084c-15.36,2.878-30.956,4.312-46.584,4.281h-1.259c-1.007-3.357-1.847-6.715-2.686-10.156
			c-9.939-38.022-6.012-78.342,11.079-113.731c3.887-7.397,8.528-14.373,13.849-20.816c34.497-26.69,80.226-33.937,121.285-19.221
			c11.344,4.426,22.044,10.354,31.811,17.626c1.679,1.175,9.485,9.569,11.331,9.401c18.749-2.34,37.782,0.355,55.144,7.806
			C361.745,80.815,378.952,110.612,385.247,144.606z"/>
	</g>
	<g>
		<path d="M445.001,210.154h-25.18v-9.764c1.83-1.168,3.133-3.004,3.631-5.117c13.139-56.418-4.385-129.684-62.73-154.336
			c-17.923-7.349-37.376-10.188-56.652-8.271c-1.414-1.156-3.402-2.975-4.512-3.992c-1.689-1.549-3.115-2.791-3.799-3.271
			c-10.439-7.3-21.763-13.244-33.701-17.689c-61.324-22.594-137.5,6.131-169.795,64.066c-18.109,35.175-22.348,75.868-11.877,114.02
			c0.881,3.426,1.763,6.762,2.816,10.094c0.047,0.148,0.149,0.257,0.202,0.401c0.138,0.324,0.297,0.64,0.476,0.943
			c0.07,0.132,0.126,0.274,0.202,0.401v12.513H58.903c-13.9,0.015-25.165,11.28-25.18,25.18v50.361
			c0.015,13.9,11.28,25.165,25.18,25.18h25.533c2.391,34.382,11.769,67.915,27.561,98.549
			c22.609,44.659,63.143,77.597,111.484,90.59c18.628,5.186,38.319,5.186,56.947,0c48.3-13.016,88.812-45.908,111.472-90.504
			c0.115-0.217,0.221-0.443,0.32-0.676c15.6-30.48,24.869-63.802,27.249-97.959h25.533c13.9-0.015,25.165-11.28,25.18-25.18v-50.361
			C470.166,221.433,458.901,210.169,445.001,210.154z M106.931,79.945C135.374,28.932,202.354,3.6,256.255,23.469
			c10.533,3.921,20.528,9.159,29.746,15.59c0.475,0.377,1.275,1.127,2.217,1.992c6.664,6.102,10.127,9.057,14.996,8.57
			c17.287-2.055,34.813,0.274,50.963,6.775c39.673,16.762,56.973,60.803,56.6,103.152c-8.199-18.789-27.038-30.669-47.526-29.968
			c-41.484,0-104.176,0-104.176-28.537c0.001-4.311-3.264-7.922-7.553-8.353c-4.289-0.432-8.208,2.456-9.066,6.681
			c-0.169,0.843-18.398,82.786-144.914,85.475c-0.283-1.061-0.611-2.11-0.885-3.18C87.228,147.668,90.895,111.37,106.931,79.945z
			 M50.509,285.695v-50.361c0.006-4.633,3.76-8.387,8.393-8.393h25.18v25.18H67.296c-4.636,0-8.393,3.758-8.393,8.393
			s3.758,8.393,8.393,8.393h16.787v25.18h-25.18C54.27,294.082,50.515,290.328,50.509,285.695z M377.071,401.568
			c-0.111,0.213-0.217,0.43-0.307,0.652c-20.62,40.224-57.264,69.871-100.906,81.639c-15.637,4.361-32.17,4.361-47.807,0
			c-43.896-11.808-80.699-41.729-101.217-82.291c-15.729-30.762-24.587-64.573-25.963-99.094V201.471
			c12.743-0.339,25.446-1.601,38.007-3.775c0.062,0.002,0.12,0.035,0.182,0.035c0.642-0.05,1.277-0.174,1.891-0.368
			c7.126-1.338,13.78-2.976,20.09-4.823c1.146,0.113,2.283,0.302,3.404,0.564c6.763,1.639,13.423,3.679,19.943,6.11l6.156,2.115
			c4.108,1.39,8.414,2.104,12.75,2.115c15.727-0.87,30.125-9.1,38.857-22.209c2.558-3.851,1.521-9.045-2.321-11.618
			s-9.039-1.554-11.626,2.277c-0.549,0.807-13.68,19.738-32.311,13.52l-6.016-2.066c-0.831-0.287-1.598-0.53-2.42-0.813
			c26.859-12.181,49.011-32.794,63.092-58.708c19.979,22.537,72.262,22.537,112.705,22.537c37.857,0,38.504,45.098,38.512,47.02
			c0.04,1.474,0.48,2.909,1.27,4.154v104.932C401.658,336.995,392.799,370.806,377.071,401.568z M453.395,285.695
			c-0.006,4.633-3.76,8.387-8.393,8.393h-25.18v-25.18h16.787c4.636,0,8.393-3.758,8.393-8.393s-3.758-8.393-8.393-8.393h-16.787
			v-25.18h25.18c4.633,0.006,8.387,3.76,8.393,8.393V285.695z"/>
		<path d="M293.919,344.449c0-4.636-3.758-8.393-8.393-8.393s-8.393,3.758-8.393,8.393c-1.274,12.687-12.471,22.019-25.18,20.984
			c-12.709,1.035-23.907-8.296-25.18-20.984c0-4.636-3.758-8.393-8.393-8.393c-4.636,0-8.393,3.758-8.393,8.393
			c1.243,21.979,19.979,38.842,41.967,37.771C273.94,383.29,292.676,366.427,293.919,344.449z"/>
		<path d="M319.099,403.203H184.804c-4.636,0-8.393,3.758-8.393,8.393c0,4.636,3.758,8.393,8.393,8.393h134.295
			c4.636,0,8.393-3.758,8.393-8.393C327.493,406.961,323.735,403.203,319.099,403.203z"/>
		<path d="M293.919,428.383c-4.636,0-8.393,3.758-8.393,8.393h-75.541c-4.636,0-8.393,3.758-8.393,8.393s3.758,8.393,8.393,8.393
			h83.934c4.636,0,8.393-3.758,8.393-8.393v-8.393C302.313,432.141,298.555,428.383,293.919,428.383z"/>
		<path d="M377.854,218.547h-92.328c-10.636,0.033-20.1,6.755-23.634,16.787h-19.88c-3.534-10.032-12.998-16.754-23.634-16.787
			H126.05c-4.636,0-8.393,3.758-8.393,8.393v50.361c0.027,23.167,18.801,41.94,41.967,41.967h41.967
			c23.167-0.027,41.94-18.801,41.967-41.967v-25.18h16.787v25.18c0.027,23.167,18.801,41.94,41.967,41.967h41.967
			c23.167-0.027,41.94-18.801,41.967-41.967V226.94C386.247,222.305,382.489,218.547,377.854,218.547z M226.772,277.301
			c-0.015,13.9-11.28,25.165-25.18,25.18h-41.967c-13.9-0.015-25.165-11.28-25.18-25.18v-41.967h83.934
			c4.633,0.006,8.387,3.76,8.393,8.393V277.301z M369.46,277.301c-0.015,13.9-11.28,25.165-25.18,25.18h-41.967
			c-13.9-0.015-25.165-11.28-25.18-25.18v-33.574c0.006-4.633,3.76-8.387,8.393-8.393h83.934V277.301z"/>
		<path d="M201.591,252.121h-41.967c-4.636,0-8.393,3.758-8.393,8.393s3.758,8.393,8.393,8.393h16.787
			c0,4.636,3.758,8.393,8.393,8.393c4.636,0,8.393-3.758,8.393-8.393h8.393c4.636,0,8.393-3.758,8.393-8.393
			S206.227,252.121,201.591,252.121z"/>
		<path d="M302.313,268.908h8.393c0,4.636,3.758,8.393,8.393,8.393s8.393-3.758,8.393-8.393h16.787c4.636,0,8.393-3.758,8.393-8.393
			s-3.758-8.393-8.393-8.393h-41.967c-4.636,0-8.393,3.758-8.393,8.393S297.677,268.908,302.313,268.908z"/>
		<path d="M300.612,203.444c4.336-0.013,8.642-0.727,12.75-2.115c2.627-0.877,5.164-1.754,7.619-2.598
			c22.192-7.66,31.627-10.336,42.545,0.57c2.116,2.142,5.217,2.987,8.127,2.214s5.183-3.046,5.956-5.956
			c0.773-2.91-0.072-6.011-2.214-8.127c-18.762-18.766-37.828-12.193-59.889-4.57l-7.455,2.541
			c-18.623,6.225-31.77-12.664-32.348-13.508c-2.587-3.832-7.785-4.85-11.626-2.277c-3.841,2.572-4.879,7.767-2.321,11.618
			C270.487,194.345,284.885,202.574,300.612,203.444z"/>
	</g>
</g>
<g>
</g>
<g>
</g>
<g>
</g>
<g>
</g>
<g>
</g>
<g>
</g>
<g>
</g>
<g>
</g>
<g>
</g>
<g>
</g>
<g>
</g>
<g>
</g>
<g>
</g>
<g>
</g>
<g>
</g>
</svg>
