<?xml version="1.0" encoding="iso-8859-1"?>
<!-- Generator: Adobe Illustrator 19.0.0, SVG Export Plug-In . SVG Version: 6.00 Build 0)  -->
<svg version="1.1" id="Capa_1" xmlns="http://www.w3.org/2000/svg" xmlns:xlink="http://www.w3.org/1999/xlink" x="0px" y="0px"
	 viewBox="0 0 511.694 511.694" style="enable-background:new 0 0 511.694 511.694;" xml:space="preserve">
<g>
	<g transform="translate(1)">
		<path style="fill:#4E342E;" d="M444.287,255.779c-0.566-0.073-1.136-0.102-1.707-0.085h-17.067c0,0,25.6-110.933-51.2-93.867
			c-39.167,9.591-79.181,15.307-119.467,17.067c-40.285-1.76-80.3-7.476-119.467-17.067c-76.8-17.067-51.2,93.867-51.2,93.867
			H67.114c-4.526,0-8.868,1.798-12.068,4.998c-3.201,3.201-4.999,7.542-4.998,12.068v51.2c0.028,9.414,7.653,17.039,17.067,17.067
			h29.611c13.084,71.651,62.76,131.204,130.901,156.928c17.484,6.94,36.959,6.94,54.443,0
			c68.141-25.724,117.818-85.277,130.901-156.928h29.611c9.414-0.028,17.039-7.652,17.067-17.067v-51.2
			C459.625,264.004,452.997,256.676,444.287,255.779z"/>
		<path style="fill:#795548;" d="M396.138,255.694c0,0,23.597-110.933-47.194-93.867c-35.997,9.579-72.912,15.3-110.12,17.067
			c-37.208-1.767-74.122-7.488-110.12-17.067C57.913,144.76,81.51,255.694,81.51,255.694H65.778
			c-2.627,0.015-5.205,0.722-7.473,2.048c-5.195,3.213-8.328,8.911-8.259,15.019v51.2c-0.326,9.041,6.693,16.657,15.731,17.067
			h27.294c8.416,46.592,35.474,119.381,120.66,156.928c16.008,6.94,34.175,6.94,50.183,0
			c85.186-37.547,112.244-110.336,120.66-156.928L396.138,255.694z"/>
		<g>
			<path style="fill:#00BCD4;" d="M203.647,289.827v21.333c0,11.782-9.551,21.333-21.333,21.333s-21.333-9.551-21.333-21.333
				v-21.333H203.647z"/>
			<path style="fill:#00BCD4;" d="M348.714,289.827v21.333c0,11.782-9.551,21.333-21.333,21.333
				c-11.782,0-21.333-9.551-21.333-21.333v-21.333H348.714z"/>
		</g>
		<path style="fill:#37474F;" d="M474.41,188.963c-3.77,23.443-11.657,46.035-23.296,66.731l-6.827,0.085
			c-0.566-0.073-1.136-0.102-1.707-0.085h-17.067c0,0,1.024-4.352,2.048-11.264v-0.171c4.096-27.819,8.192-96.085-53.248-82.432
			c-39.167,9.591-79.181,15.307-119.467,17.067c-40.285-1.76-80.3-7.476-119.467-17.067c-61.44-13.653-57.344,54.613-53.248,82.432
			v0.171c1.024,6.912,2.048,11.264,2.048,11.264H67.114c-2.829,0.01-5.612,0.713-8.107,2.048l-0.427-2.048
			c-11.639-20.696-19.526-43.288-23.296-66.731c-4.096-24.372-1.953-49.384,6.229-72.704V30.328
			c-0.072-3.344,1.816-6.421,4.829-7.873c3.013-1.451,6.596-1.009,9.166,1.131L85.46,49.102c1.862,1.549,4.297,2.231,6.693,1.872
			c2.396-0.359,4.525-1.723,5.851-3.749l22.357-34.304c1.469-2.313,3.976-3.763,6.714-3.882c2.738-0.119,5.361,1.107,7.025,3.284
			l20.224,25.771c1.595,2.059,4.052,3.264,6.656,3.264s5.061-1.205,6.656-3.264l20.821-26.624c1.595-2.059,4.052-3.264,6.656-3.264
			c2.604,0,5.062,1.205,6.656,3.264l19.797,25.344c1.743,2.206,4.465,3.404,7.269,3.199c2.803-0.205,5.323-1.787,6.726-4.223
			l11.947-20.309c1.493-2.649,4.298-4.288,7.339-4.288c3.041,0,5.846,1.639,7.339,4.288l11.947,20.309
			c1.403,2.436,3.922,4.018,6.726,4.223c2.803,0.205,5.526-0.993,7.269-3.199l19.797-25.344c1.595-2.059,4.052-3.264,6.656-3.264
			s5.062,1.205,6.656,3.264l20.821,26.624c1.595,2.059,4.052,3.264,6.656,3.264s5.061-1.205,6.656-3.264l20.224-25.771
			c1.664-2.177,4.287-3.403,7.025-3.284c2.738,0.119,5.244,1.568,6.714,3.882l22.357,34.304c1.327,2.027,3.456,3.391,5.851,3.749
			c2.396,0.359,4.831-0.323,6.693-1.872l29.952-25.515c2.57-2.14,6.153-2.583,9.166-1.131c3.013,1.451,4.901,4.529,4.829,7.873
			v85.931C476.363,139.579,478.506,164.591,474.41,188.963z"/>
		<path style="fill:#607D8B;" d="M474.41,188.963c-3.77,23.443-11.657,46.035-23.296,66.731l-6.827,0.085
			c-0.566-0.073-1.136-0.102-1.707-0.085h-13.397c-0.331-3.782-0.872-7.542-1.621-11.264v-0.171
			c4.096-27.819,8.192-96.085-53.248-82.432c-39.167,9.591-79.181,15.307-119.467,17.067c-40.285-1.76-80.3-7.476-119.467-17.067
			c-61.44-13.653-57.344,54.613-53.248,82.432v0.171c-0.749,3.722-1.291,7.482-1.621,11.264H67.114
			c-2.829,0.01-5.612,0.713-8.107,2.048l-0.427-2.048c-11.639-20.696-19.526-43.288-23.296-66.731
			c1.365-8.022,3.449-15.904,6.229-23.552V79.48c-0.072-3.344,1.816-6.421,4.829-7.873c3.013-1.451,6.596-1.009,9.166,1.131
			L85.46,98.254c1.862,1.549,4.297,2.23,6.693,1.872c2.396-0.359,4.525-1.723,5.851-3.749l22.357-34.304
			c1.469-2.313,3.976-3.763,6.714-3.882s5.361,1.107,7.025,3.284l20.224,25.771c1.595,2.059,4.052,3.264,6.656,3.264
			s5.062-1.205,6.656-3.264l20.821-26.624c1.595-2.059,4.052-3.264,6.656-3.264s5.062,1.205,6.656,3.264l19.797,25.344
			c1.743,2.206,4.465,3.404,7.269,3.199c2.803-0.205,5.323-1.787,6.726-4.223l11.947-20.309c1.493-2.649,4.298-4.288,7.339-4.288
			c3.041,0,5.846,1.639,7.339,4.288l11.947,20.309c1.403,2.436,3.922,4.018,6.726,4.223c2.803,0.205,5.526-0.993,7.269-3.199
			l19.797-25.344c1.594-2.059,4.052-3.264,6.656-3.264s5.062,1.205,6.656,3.264l20.821,26.624c1.595,2.059,4.052,3.264,6.656,3.264
			s5.062-1.205,6.656-3.264l20.224-25.771c1.664-2.177,4.287-3.403,7.025-3.284s5.244,1.568,6.714,3.882l22.357,34.304
			c1.327,2.027,3.456,3.391,5.851,3.749c2.396,0.359,4.831-0.322,6.693-1.872l29.952-25.515c2.57-2.14,6.153-2.582,9.165-1.131
			c3.013,1.451,4.9,4.529,4.829,7.872v85.931C470.96,173.059,473.045,180.941,474.41,188.963z"/>
	</g>
	<g>
		<path d="M213.18,311.16v-21.333c0.001-2.264-0.897-4.435-2.498-6.035c-1.601-1.601-3.772-2.499-6.035-2.498h-59.733
			c-4.713,0-8.533,3.821-8.533,8.533s3.82,8.533,8.533,8.533h8.533v12.8c0,16.495,13.372,29.867,29.867,29.867
			S213.18,327.655,213.18,311.16z M196.114,311.16c0,7.069-5.731,12.8-12.8,12.8s-12.8-5.731-12.8-12.8v-12.8h25.6V311.16z"/>
		<path d="M366.78,281.294h-59.733c-2.264-0.001-4.435,0.897-6.035,2.498c-1.601,1.601-2.499,3.772-2.498,6.035v21.333
			c0,16.495,13.372,29.867,29.867,29.867c16.495,0,29.867-13.372,29.867-29.867v-12.8h8.533c4.713,0,8.533-3.82,8.533-8.533
			S371.493,281.294,366.78,281.294z M341.18,311.16c0,7.069-5.731,12.8-12.8,12.8s-12.8-5.731-12.8-12.8v-12.8h25.6V311.16z"/>
		<path d="M238.78,383.694h34.133c4.713,0,8.533-3.821,8.533-8.533c0-4.713-3.82-8.533-8.533-8.533H238.78
			c-4.713,0-8.533,3.821-8.533,8.533C230.247,379.873,234.068,383.694,238.78,383.694z"/>
		<path d="M255.847,349.56c2.264,0.001,4.435-0.897,6.035-2.498c1.601-1.601,2.499-3.772,2.498-6.035V323.96
			c0-4.713-3.821-8.533-8.533-8.533c-4.713,0-8.533,3.82-8.533,8.533v17.067c-0.001,2.264,0.897,4.435,2.498,6.035
			C251.412,348.663,253.583,349.562,255.847,349.56z"/>
		<path d="M144.914,238.627h59.733c4.713,0,8.533-3.821,8.533-8.533c0-4.713-3.821-8.533-8.533-8.533h-59.733
			c-4.713,0-8.533,3.821-8.533,8.533C136.38,234.806,140.201,238.627,144.914,238.627z"/>
		<path d="M366.78,221.56h-59.733c-4.713,0-8.533,3.821-8.533,8.533c0,4.713,3.82,8.533,8.533,8.533h59.733
			c4.713,0,8.533-3.821,8.533-8.533C375.314,225.381,371.493,221.56,366.78,221.56z"/>
		<path d="M307.047,400.76h-102.4c-4.713,0-8.533,3.821-8.533,8.533s3.821,8.533,8.533,8.533h102.4c4.713,0,8.533-3.82,8.533-8.533
			S311.76,400.76,307.047,400.76z"/>
		<path d="M264.38,434.894h-17.067c-4.713,0-8.533,3.82-8.533,8.533s3.82,8.533,8.533,8.533h17.067c4.713,0,8.533-3.82,8.533-8.533
			S269.093,434.894,264.38,434.894z"/>
		<path d="M477.714,114.777V30.31c0.059-6.74-3.847-12.885-9.975-15.692c-5.997-2.799-13.078-1.82-18.092,2.5l-29.791,25.425
			l-22.391-34.3c-2.999-4.602-8.03-7.48-13.517-7.733c-5.472-0.187-10.707,2.234-14.108,6.525l-20.075,25.758l-20.8-26.567
			c-3.324-3.95-8.223-6.229-13.385-6.227c-5.162,0.002-10.06,2.284-13.381,6.236l-19.708,25.259l-11.967-20.376
			c-3.04-5.226-8.629-8.442-14.675-8.442s-11.636,3.215-14.675,8.442l-11.875,20.4l-19.8-25.292
			c-3.324-3.95-8.223-6.229-13.385-6.227c-5.162,0.002-10.06,2.284-13.381,6.236l-20.7,26.558L141.855,7.027
			c-3.407-4.281-8.64-6.698-14.108-6.517c-5.487,0.253-10.517,3.131-13.517,7.733L91.956,42.569l-29.909-25.45
			c-5.014-4.319-12.094-5.298-18.091-2.5c-6.128,2.806-10.035,8.952-9.975,15.692v84.467
			c-22.129,62.386,6.225,123.117,15.56,140.471c-4.5,4.721-7.015,10.99-7.027,17.513v51.2c0.015,14.132,11.468,25.585,25.6,25.6
			h23.013c15.432,71.445,65.943,130.242,134.246,156.267c9.661,3.906,19.988,5.899,30.408,5.867l0.064-0.013l0.069,0.013
			c10.418,0.033,20.743-1.96,30.4-5.867c68.305-26.023,118.82-84.82,134.254-156.267h23.013c14.132-0.015,25.585-11.468,25.6-25.6
			v-51.2c-0.012-6.522-2.527-12.791-7.027-17.513C471.489,237.894,499.843,177.163,477.714,114.777z M452.114,323.96
			c-0.003,4.712-3.822,8.53-8.533,8.533h-19.712c1.351-8.476,2.208-17.024,2.565-25.6h8.614c4.713,0,8.533-3.82,8.533-8.533
			s-3.821-8.533-8.533-8.533h-17.15c-0.063,0-0.115,0.034-0.178,0.036c-0.069,0.003-0.129-0.032-0.197-0.028
			c-0.396,0.072-0.787,0.173-1.168,0.303c-0.695,0.091-1.376,0.268-2.028,0.525c-0.196,0.093-0.341,0.249-0.528,0.356
			c-0.801,0.423-1.528,0.973-2.154,1.627l-0.077,0.114c-1.399,1.532-2.184,3.526-2.204,5.6c0,0.162,0.083,0.297,0.092,0.456
			l-0.001,0.002c0.075,1.358,5.717,136.258-129.567,191.192c-7.622,3.061-15.761,4.628-23.975,4.617h-0.133
			c-8.216,0.01-16.358-1.557-23.983-4.617c-65.002-24.229-112.622-80.658-125.577-148.808c0.002-0.062,0.035-0.113,0.035-0.175
			c-0.001-1.16-0.24-2.307-0.702-3.371c-2.492-12.79-3.604-25.81-3.316-38.837c0.009-0.16,0.092-0.296,0.092-0.458
			c-0.024-3.149-1.799-6.023-4.604-7.455c-0.123-0.067-0.216-0.171-0.343-0.231c-0.714-0.291-1.465-0.484-2.231-0.573
			c-0.327-0.107-0.66-0.193-0.997-0.257c-0.054-0.003-0.102,0.026-0.156,0.024c-0.071-0.002-0.13-0.041-0.202-0.041h-17.15
			c-4.713,0-8.533,3.82-8.533,8.533s3.821,8.533,8.533,8.533h8.614c0.358,8.576,1.214,17.124,2.565,25.6H68.114
			c-4.712-0.003-8.53-3.822-8.533-8.533v-51.2c0.003-4.712,3.822-8.53,8.533-8.533H85.18c2.6,0,5.059-1.185,6.678-3.22
			c1.619-2.034,2.223-4.696,1.639-7.23c-3.625-15.792-9.275-60.558,7.875-77.825c7.208-7.258,18.067-9.175,33.158-5.792
			c39.768,9.753,80.406,15.537,121.317,17.267c40.91-1.73,81.548-7.514,121.317-17.267c15.092-3.383,25.941-1.467,33.158,5.792
			c17.15,17.267,11.5,62.033,7.875,77.825c-0.584,2.534,0.02,5.196,1.639,7.23c1.619,2.035,4.078,3.22,6.678,3.22h17.067
			c4.712,0.003,8.53,3.822,8.533,8.533V323.96z M446.911,247.497c-1.101-0.186-2.214-0.298-3.33-0.336h-6.808
			c3.058-19.717,6.625-62.092-14.325-83.217c-11.508-11.6-27.992-15.125-48.983-10.45c-38.571,9.395-77.96,15.044-117.617,16.867
			c-39.657-1.823-79.045-7.472-117.617-16.867c-21-4.675-37.483-1.15-48.983,10.45c-20.95,21.125-17.383,63.5-14.325,83.217h-6.808
			c-1.116,0.038-2.229,0.151-3.33,0.336c-7.896-14.824-34.888-72.117-14.262-128.286c0.348-0.942,0.526-1.938,0.525-2.942
			l-0.067-86.15L80.889,55.56c3.714,3.174,8.618,4.59,13.452,3.884c4.834-0.706,9.129-3.464,11.781-7.567l22.3-34.325l20.175,25.758
			c3.316,3.961,8.217,6.25,13.383,6.25c5.166,0,10.067-2.289,13.383-6.25l20.7-26.559l19.8,25.292
			c3.444,4.457,8.889,6.897,14.508,6.5c5.628-0.387,10.7-3.532,13.55-8.4l11.883-20.375l11.967,20.375
			c2.85,4.868,7.922,8.013,13.55,8.4c5.624,0.417,11.08-2.03,14.508-6.508l19.7-25.283l20.8,26.558
			c3.316,3.961,8.217,6.25,13.383,6.25c5.166,0,10.067-2.289,13.383-6.25l20.083-25.733l22.391,34.3
			c2.653,4.102,6.946,6.86,11.78,7.567c4.833,0.707,9.737-0.705,13.454-3.875l29.842-25.258v85.958
			c-0.001,1.004,0.177,2,0.525,2.942C481.798,175.38,454.807,232.672,446.911,247.497z"/>
	</g>
</g>
<g>
</g>
<g>
</g>
<g>
</g>
<g>
</g>
<g>
</g>
<g>
</g>
<g>
</g>
<g>
</g>
<g>
</g>
<g>
</g>
<g>
</g>
<g>
</g>
<g>
</g>
<g>
</g>
<g>
</g>
</svg>
