<?xml version="1.0" encoding="iso-8859-1"?>
<!-- Generator: Adobe Illustrator 19.0.0, SVG Export Plug-In . SVG Version: 6.00 Build 0)  -->
<svg version="1.1" id="Capa_1" xmlns="http://www.w3.org/2000/svg" xmlns:xlink="http://www.w3.org/1999/xlink" x="0px" y="0px"
	 viewBox="0 0 511.856 511.856" style="enable-background:new 0 0 511.856 511.856;" xml:space="preserve">
<g>
	<g transform="translate(1 1)">
		<g>
			<path style="fill:#4E342E;" d="M407.845,339.418c11.35,27.819,25.259,85.504-30.378,125.099
				c24.576-35.925,13.824-77.227,4.778-99.499c-5.109-12.281-7.775-25.44-7.85-38.741v-20.224h25.771
				C400.822,317.528,403.418,328.81,407.845,339.418z"/>
			<path style="fill:#4E342E;" d="M434.128,195.119H417.83c1.023-3.243,1.877-6.485,2.729-9.813
				c9.825-35.65,5.484-73.718-12.117-106.24C377.382,23.343,305.872-7.292,247.078,14.383c-11.455,4.27-22.322,9.976-32.341,16.981
				c-1.707,1.195-9.644,9.301-11.521,9.131c-19.022-2.268-38.309,0.315-56.064,7.509c-16.509,7.042-30.598,18.759-40.533,33.707
				h-0.085c-21.2,33.769-27.761,74.705-18.176,113.408H75.728c-9.417,0.021-17.045,7.65-17.067,17.067v51.2
				c0.028,9.414,7.653,17.039,17.067,17.067h34.133v20.224c-0.075,13.301-2.741,26.46-7.85,38.741
				c-16.129,39.509-37.463,139.264,142.763,162.219c6.737,0.939,13.571,0.939,20.308,0c53.333-6.827,89.003-20.309,112.384-37.12
				c24.576-35.925,13.824-77.227,4.778-99.499c-5.109-12.281-7.775-25.44-7.85-38.741v-20.224h25.771
				c-0.085-1.792-0.171-3.584-0.171-5.376v-20.224h34.133c9.414-0.028,17.039-7.653,17.067-17.067v-51.2
				C451.167,202.771,443.542,195.146,434.128,195.119z"/>
		</g>
		<path style="fill:#795548;" d="M399.995,280.452v20.224c0,1.792,0.085,3.584,0.171,5.376h-25.771v20.224
			c0.075,13.301,2.741,26.46,7.85,38.741c9.046,22.272,19.798,63.573-4.778,99.499c-23.381,16.811-59.051,30.293-112.384,37.12
			c-6.737,0.939-13.571,0.939-20.308,0C64.549,478.682,85.882,378.927,102.011,339.418c5.109-12.281,7.775-25.44,7.85-38.741
			v-20.224H75.728c-9.414-0.028-17.039-7.653-17.067-17.067v-51.2c0.021-9.417,7.65-17.045,17.067-17.067h12.629
			c-9.585-38.703-3.024-79.639,18.176-113.408h0.085c4.701-3.184,9.703-5.899,14.933-8.107c17.755-7.194,37.041-9.777,56.063-7.509
			c1.877,0.171,9.815-7.936,11.521-9.131c10.019-7.005,20.886-12.711,32.341-16.981c58.794-21.675,130.304,8.96,161.365,64.683
			c17.6,32.522,21.942,70.59,12.117,106.24c-0.852,3.328-1.707,6.571-2.729,9.813h16.298c9.414,0.027,17.039,7.652,17.067,17.067
			v42.667H399.995z"/>
		<g>
			<path style="fill:#BFB186;" d="M109.862,195.119v85.333H75.728c-9.414-0.028-17.039-7.653-17.067-17.067v-51.2
				c0.028-9.414,7.652-17.039,17.067-17.067H109.862z"/>
			<path style="fill:#BFB186;" d="M451.195,212.186v51.2c-0.028,9.414-7.652,17.039-17.067,17.067h-34.133v-85.333h34.133
				C443.542,195.146,451.167,202.771,451.195,212.186z"/>
		</g>
		<g>
			<path style="fill:#CC4B4C;" d="M109.862,246.319h-25.6c-4.713,0-8.533-3.821-8.533-8.533c0-4.713,3.821-8.533,8.533-8.533h25.6
				c4.713,0,8.533,3.821,8.533,8.533C118.395,242.498,114.574,246.319,109.862,246.319z"/>
			<path style="fill:#CC4B4C;" d="M425.595,246.319h-25.6c-4.713,0-8.533-3.821-8.533-8.533c0-4.713,3.821-8.533,8.533-8.533h25.6
				c4.713,0,8.533,3.821,8.533,8.533C434.128,242.498,430.308,246.319,425.595,246.319z"/>
		</g>
		<path style="fill:#BFB186;" d="M379.6,463.066c-23.296,17.408-59.563,31.573-114.518,38.571c-6.737,0.939-13.571,0.939-20.308,0
			C64.549,478.682,85.882,378.927,102.011,339.418c5.109-12.281,7.775-25.44,7.85-38.741V195.119
			c0.232-8.007,1.729-15.928,4.437-23.467c4.999-16.83,20.679-28.205,38.229-27.733c25.259,0,56.491,0,77.824-7.083
			c0.171-0.085,0.256-0.085,0.426-0.171c14.422-4.864,24.15-13.056,24.15-26.88c0,0,17.067,85.333,145.067,85.333v105.557
			c0.075,13.301,2.741,26.46,7.85,38.741C419.024,366.895,432.764,423.471,379.6,463.066z"/>
		<path style="fill:#FFE0B2;" d="M379.6,463.066c-23.296,17.408-59.563,31.573-114.518,38.571c-6.737,0.939-13.571,0.939-20.308,0
			C64.549,478.682,85.882,378.927,102.011,339.418c5.109-12.281,7.775-25.44,7.85-38.741V195.119
			c0.232-8.007,1.729-15.928,4.437-23.467c4.43-1.466,9.073-2.186,13.739-2.133c42.07,0,100.607,0,102.315-32.683
			c0.073-0.48,0.102-0.966,0.085-1.451c0,0,0.085,0.427,0.341,1.28c2.646,10.496,25.857,84.053,144.726,84.053v105.557
			c0.074,13.301,2.741,26.461,7.851,38.741C392.315,386.948,402.897,427.482,379.6,463.066z"/>
		<g>
			<path style="fill:#795548;" d="M178.128,220.719h34.133v17.067c0,9.426-7.641,17.067-17.067,17.067s-17.067-7.641-17.067-17.067
				V220.719z"/>
			<path style="fill:#795548;" d="M297.595,220.719h34.133v17.067c0,9.426-7.641,17.067-17.067,17.067s-17.067-7.641-17.067-17.067
				V220.719z"/>
		</g>
		<g>
			<path style="fill:#2C3E50;" d="M229.328,229.252h-68.267c-4.713,0-8.533-3.821-8.533-8.533c0-4.713,3.821-8.533,8.533-8.533
				h68.267c4.713,0,8.533,3.821,8.533,8.533C237.862,225.432,234.041,229.252,229.328,229.252z"/>
			<path style="fill:#2C3E50;" d="M348.795,229.252h-68.267c-4.713,0-8.533-3.821-8.533-8.533c0-4.713,3.821-8.533,8.533-8.533
				h68.267c4.713,0,8.533,3.821,8.533,8.533C357.328,225.432,353.508,229.252,348.795,229.252z"/>
		</g>
	</g>
	<g>
		<path d="M76.728,289.986h25.6v11.663c-0.073,12.216-2.524,24.3-7.217,35.579c-8.825,21.663-20.3,63.713,2.017,101.929
			c22.242,38.092,71.875,62.308,147.541,71.979c7.475,0.961,15.042,0.961,22.517,0c75.667-9.671,125.3-33.888,147.541-71.979
			c22.317-38.217,10.842-80.267,2.017-101.933c-4.693-11.277-7.144-23.361-7.216-35.575v-11.663h25.6
			c14.132-0.015,25.585-11.468,25.6-25.6v-51.2c-0.015-14.132-11.468-25.585-25.6-25.6h-5.125
			c10.15-37.526,5.455-77.519-13.108-111.675C383.27,15.594,306.22-15.123,245.128,7.373c-12.145,4.521-23.666,10.569-34.283,18
			c-0.675,0.471-2.125,1.738-3.85,3.313c-1.125,1.029-3.142,2.879-4.575,4.054c-19.595-1.959-39.372,0.925-57.591,8.4
			c-55.776,23.571-74.847,90.813-65.822,146.446h-2.278c-14.132,0.015-25.585,11.468-25.6,25.6v51.2
			C51.144,278.518,62.596,289.97,76.728,289.986z M399.987,430.552c-19.425,33.275-64.833,54.692-134.967,63.659
			c-6.036,0.775-12.147,0.775-18.183,0c-70.133-8.967-115.541-30.383-134.967-63.659c-18.625-31.9-8.592-68.133-0.958-86.888
			c5.532-13.321,8.413-27.593,8.483-42.017V196.119c0-1.742,0.392-42.667,34.133-42.667c36.425,0,83.317,0,102.342-20.092
			c9.824,18.103,24.054,33.436,41.375,44.581l-8.383,1.195c-4.433,0.63-7.626,4.579-7.312,9.046
			c0.313,4.467,4.026,7.932,8.504,7.937c0.404-0.001,0.808-0.029,1.208-0.083l32.372-4.611
			c22.024,8.259,45.309,12.648,68.828,12.973v97.251c0.07,14.422,2.951,28.693,8.483,42.012
			C408.578,362.419,418.612,398.652,399.987,430.552z M443.662,213.186v51.2c-0.005,4.711-3.822,8.529-8.533,8.533h-25.6v-25.6
			h17.067c4.713,0,8.533-3.821,8.533-8.533c0-4.713-3.821-8.533-8.533-8.533h-17.067v-25.6h9.273l0.027,0.004l0.026-0.004h16.274
			C439.839,204.657,443.657,208.475,443.662,213.186z M151.486,56.856c16.468-6.616,34.337-8.976,51.958-6.863
			c5.008,0.379,8.325-2.529,15.083-8.725c0.967-0.883,1.775-1.646,2.075-1.896c9.423-6.596,19.647-11.967,30.425-15.983
			c53.533-19.738,121.267,7.55,150.958,60.821c16.55,30.608,20.603,66.435,11.308,99.967c-0.297,1.156-0.643,2.27-0.946,3.408
			h-11.354c-118.908,0-136.033-75.304-136.7-78.475c-0.862-4.3-4.844-7.246-9.208-6.814s-7.69,4.103-7.692,8.488
			c0,25.6-56.492,25.6-93.867,25.6c-35.419,0-48.045,29.881-50.656,51.2h-6.498C87.298,138.073,102.915,77.381,151.486,56.856z
			 M68.195,213.186c0.005-4.711,3.822-8.529,8.533-8.533h25.6v25.6H85.262c-4.713,0-8.533,3.821-8.533,8.533
			c0,4.713,3.821,8.533,8.533,8.533h17.067v25.6h-25.6c-4.711-0.005-8.529-3.822-8.533-8.533V213.186z"/>
		<path d="M230.328,298.519c0-4.713-3.821-8.533-8.533-8.533c-4.713,0-8.533,3.82-8.533,8.533
			c1.264,22.345,20.312,39.489,42.667,38.4c22.354,1.089,41.403-16.055,42.667-38.4c0-4.713-3.82-8.533-8.533-8.533
			s-8.533,3.82-8.533,8.533c-1.295,12.899-12.679,22.386-25.6,21.333C243.007,320.905,231.623,311.418,230.328,298.519z"/>
		<path d="M221.795,238.786v-8.533h8.533c4.713,0,8.533-3.821,8.533-8.533c0-4.713-3.821-8.533-8.533-8.533h-68.267
			c-4.713,0-8.533,3.821-8.533,8.533c0,4.713,3.821,8.533,8.533,8.533h8.533v8.533c0,14.138,11.462,25.6,25.6,25.6
			C210.333,264.385,221.795,252.924,221.795,238.786z M187.662,238.786v-8.533h17.067v8.533c0,4.713-3.821,8.533-8.533,8.533
			C191.482,247.319,187.662,243.498,187.662,238.786z"/>
		<path d="M349.795,213.186h-68.267c-4.713,0-8.533,3.821-8.533,8.533c0,4.713,3.821,8.533,8.533,8.533h8.533v8.533
			c0,14.138,11.462,25.6,25.6,25.6c14.138,0,25.6-11.462,25.6-25.6v-8.533h8.533c4.713,0,8.533-3.821,8.533-8.533
			C358.328,217.006,354.508,213.186,349.795,213.186z M324.195,238.786c0,4.713-3.82,8.533-8.533,8.533s-8.533-3.821-8.533-8.533
			v-8.533h17.067V238.786z"/>
		<path d="M255.928,289.986c2.263,0.001,4.434-0.898,6.035-2.499c1.6-1.6,2.499-3.771,2.499-6.035v-17.067
			c0-4.713-3.82-8.533-8.533-8.533s-8.533,3.82-8.533,8.533v17.067c-0.001,2.263,0.898,4.434,2.499,6.035
			C251.494,289.087,253.665,289.986,255.928,289.986z"/>
		<path d="M160.853,187.498l59.733,8.533c0.403,0.058,0.81,0.087,1.217,0.087c4.477-0.002,8.191-3.465,8.507-7.931
			s-2.874-8.416-7.307-9.048l-59.733-8.533c-3.021-0.439-6.046,0.77-7.933,3.169c-1.887,2.399-2.348,5.624-1.21,8.456
			C155.266,185.064,157.831,187.072,160.853,187.498L160.853,187.498z"/>
		<path d="M318.262,352.115c-0.15,0.15-16.25,14.671-62.333,14.671c-45.533,0-61.792-14.179-62.325-14.658
			c-3.367-3.25-8.722-3.182-12.005,0.152c-3.283,3.334-3.27,8.689,0.031,12.006c2,2.004,21.1,19.567,74.3,19.567
			s72.3-17.563,74.3-19.567c3.276-3.285,3.299-8.596,0.05-11.908C327.01,349.037,321.672,348.921,318.262,352.115z"/>
		<path d="M264.462,417.986h-17.067c-4.713,0-8.533,3.821-8.533,8.533c0,4.713,3.82,8.533,8.533,8.533v17.067
			c0,4.713,3.821,8.533,8.533,8.533s8.533-3.821,8.533-8.533v-17.067c4.713,0,8.533-3.821,8.533-8.533
			C272.995,421.806,269.174,417.986,264.462,417.986z"/>
		<path d="M279.895,50.894c0.858,0.167,85.258,17.479,95.592,86.75c0.625,4.177,4.21,7.269,8.433,7.275
			c0.424,0,0.847-0.03,1.267-0.092c4.66-0.698,7.875-5.039,7.183-9.7C380.245,53.823,287.103,34.906,283.145,34.14
			c-4.616-0.873-9.069,2.148-9.964,6.76C272.287,45.511,275.287,49.978,279.895,50.894z"/>
		<path d="M136.47,119.285c2.389,0.005,4.671-0.991,6.292-2.746c0.866-0.933,21.708-22.821,70.5-22.821
			c4.713,0,8.533-3.821,8.533-8.533s-3.82-8.533-8.533-8.533c-56.908,0-82.1,27.262-83.142,28.425
			c-2.244,2.504-2.806,6.094-1.434,9.164C130.058,117.31,133.107,119.286,136.47,119.285L136.47,119.285z"/>
		<path d="M300.662,85.44c-4.559-1.122-9.168,1.65-10.314,6.203c-1.146,4.553,1.601,9.176,6.147,10.347
			c17.657,5.018,31.461,18.813,36.492,36.467c0.74,2.956,3.001,5.293,5.931,6.131c2.93,0.837,6.085,0.048,8.275-2.071
			c2.19-2.119,3.084-5.245,2.344-8.202C342.94,110.581,324.395,92.036,300.662,85.44z"/>
	</g>
</g>
<g>
</g>
<g>
</g>
<g>
</g>
<g>
</g>
<g>
</g>
<g>
</g>
<g>
</g>
<g>
</g>
<g>
</g>
<g>
</g>
<g>
</g>
<g>
</g>
<g>
</g>
<g>
</g>
<g>
</g>
</svg>
