<?xml version="1.0" encoding="iso-8859-1"?>
<!-- Generator: Adobe Illustrator 19.0.0, SVG Export Plug-In . SVG Version: 6.00 Build 0)  -->
<svg version="1.1" id="Capa_1" xmlns="http://www.w3.org/2000/svg" xmlns:xlink="http://www.w3.org/1999/xlink" x="0px" y="0px"
	 viewBox="0 0 511.979 511.979" style="enable-background:new 0 0 511.979 511.979;" xml:space="preserve">
<g>
	<g transform="translate(1 1)">
		<path style="fill:#D84315;" d="M468.323,237.933v51.2c-0.028,9.414-7.652,17.039-17.067,17.067v85.333
			c-0.028,9.414-7.653,17.039-17.067,17.067h-42.667l-0.513-0.256c-0.341,0.853-0.852,1.707-1.279,2.56v0.085
			c-4.281,8.07-9.129,15.826-14.507,23.211c-8.882,12.335-19.388,23.414-31.233,32.939c-18.422,14.687-39.648,25.459-62.378,31.659
			c-17.416,4.864-35.832,4.864-53.248,0c-46.85-12.684-86.134-44.62-108.117-87.893c-0.427-0.853-0.939-1.706-1.279-2.56
			l-0.513,0.256H75.79c-9.414-0.028-17.039-7.653-17.067-17.067V306.2c-9.414-0.028-17.039-7.652-17.067-17.067v-51.2
			c0.028-9.414,7.652-17.039,17.067-17.067v-85.333c0-70.692,57.308-128,128-128h34.133c16.059-0.002,29.949,11.188,33.365,26.88
			c0.518,2.383,0.776,4.815,0.769,7.253c0.022-2.582,0.308-5.156,0.853-7.68c3.578-15.493,17.379-26.463,33.28-26.453h34.133
			c70.682,0.026,127.974,57.318,128,128v85.333C460.671,220.894,468.295,228.519,468.323,237.933z"/>
		<path style="fill:#FF5722;" d="M442.723,263.533v51.2c-0.028,9.414-7.652,17.039-17.067,17.067v76.8h-34.133l-0.513-0.256
			c-0.341,0.853-0.852,1.707-1.279,2.56v0.085c-4.281,8.07-9.129,15.826-14.507,23.211h-9.302l-0.513-0.256
			c-0.341,0.853-0.852,1.707-1.279,2.56v0.085c-5.697,10.818-12.442,21.05-20.14,30.549c-18.422,14.687-39.648,25.459-62.378,31.659
			c-17.416,4.864-35.832,4.864-53.248,0c-46.85-12.684-86.134-44.62-108.117-87.893c-0.427-0.853-0.939-1.706-1.279-2.56
			l-0.513,0.256H75.79c-9.414-0.028-17.039-7.653-17.067-17.067V306.2c-9.414-0.028-17.039-7.652-17.067-17.067v-51.2
			c0.028-9.414,7.652-17.039,17.067-17.067v-85.333c-0.042-27.702,8.945-54.663,25.6-76.8c22.137-16.655,49.098-25.642,76.8-25.6
			h34.133c9.053-0.002,17.737,3.593,24.139,9.995c6.402,6.402,9.997,15.085,9.995,24.139c0.016-15.266,10.149-28.672,24.831-32.853
			c0.513-0.171,1.025-0.256,1.622-0.427c2.524-0.546,5.098-0.832,7.68-0.853h34.133c70.682,0.026,127.974,57.318,128,128v85.333
			C435.07,246.494,442.695,254.119,442.723,263.533z"/>
		<g>
			<path style="fill:#BFB186;" d="M92.856,220.867V306.2H58.723c-9.414-0.028-17.039-7.652-17.067-17.067v-51.2
				c0.028-9.414,7.652-17.039,17.067-17.067H92.856z"/>
			<path style="fill:#BFB186;" d="M468.323,237.933v51.2c-0.028,9.414-7.652,17.039-17.067,17.067h-34.133v-85.333h34.133
				C460.671,220.894,468.295,228.519,468.323,237.933z"/>
		</g>
		<g>
			<path style="fill:#CC4B4C;" d="M92.856,272.067h-25.6c-4.713,0-8.533-3.82-8.533-8.533S62.543,255,67.256,255h25.6
				c4.713,0,8.533,3.821,8.533,8.533S97.569,272.067,92.856,272.067z"/>
			<path style="fill:#CC4B4C;" d="M442.723,272.067h-25.6c-4.713,0-8.533-3.82-8.533-8.533S412.41,255,417.123,255h25.6
				c4.713,0,8.533,3.821,8.533,8.533S447.436,272.067,442.723,272.067z"/>
		</g>
		<path style="fill:#BFB186;" d="M417.123,195.267V306.2c-1.308,35.522-10.212,70.352-26.113,102.144
			c-0.341,0.853-0.852,1.707-1.279,2.56v0.085c-12.786,24.768-31.27,46.147-53.931,62.379
			c-16.497,11.475-34.818,20.073-54.187,25.429c-17.416,4.864-35.832,4.864-53.248,0c-46.85-12.684-86.134-44.62-108.117-87.893
			c-0.427-0.853-0.939-1.706-1.279-2.56c-15.901-31.792-24.805-66.622-26.113-102.144V195.267
			c13.808-0.154,27.575-1.553,41.131-4.181c10.001-1.565,19.83-4.08,29.354-7.509c10.759-3.637,19.729-11.235,25.088-21.248
			c4.476-11.718,7.569-23.917,9.216-36.352c2.22-9.057,6.16-17.603,11.605-25.173c2.062-2.929,4.344-5.696,6.826-8.277
			c10.725-10.744,24.18-18.356,38.913-22.016c14.733,3.66,28.188,11.272,38.913,22.016c8.964,9.346,15.319,20.88,18.431,33.451
			c1.648,12.435,4.741,24.634,9.217,36.352c10.496,20.565,33.792,24.747,54.442,28.757
			C389.549,193.714,403.315,195.113,417.123,195.267z"/>
		<path style="fill:#FFE0B2;" d="M391.523,217.624v110.933c-1.308,35.522-10.212,70.352-26.113,102.144
			c-0.341,0.853-0.852,1.707-1.279,2.56v0.085c-7.621,14.541-17.149,28.001-28.331,40.021
			c-16.497,11.475-34.818,20.073-54.187,25.429c-17.416,4.864-35.832,4.864-53.248,0c-46.85-12.684-86.134-44.62-108.117-87.893
			c-0.427-0.853-0.939-1.706-1.279-2.56c-15.901-31.792-24.805-66.622-26.113-102.144v-90.368
			c5.205-0.597,10.411-1.451,15.531-2.389c20.65-4.011,43.946-8.192,54.442-28.757c0.171-0.341,0.341-0.683,0.513-1.109
			c10.759-3.638,19.729-11.235,25.087-21.248c4.476-11.718,7.569-23.917,9.216-36.352c2.22-9.057,6.16-17.603,11.605-25.173
			c6.372-3.44,13.133-6.104,20.139-7.936c14.733,3.66,28.187,11.272,38.913,22.016c8.964,9.346,15.319,20.88,18.431,33.451
			c1.648,12.435,4.741,24.634,9.217,36.352c10.496,20.565,33.792,24.747,54.442,28.757
			C363.949,216.071,377.715,217.47,391.523,217.624z"/>
		<g>
			<path style="fill:#2FA8CC;" d="M182.456,314.733c-5.658,0-11.084-2.248-15.085-6.248c-4.001-4.001-6.248-9.427-6.248-15.085
				v-21.333h42.667V293.4C203.79,305.182,194.238,314.733,182.456,314.733z"/>
			<path style="fill:#2FA8CC;" d="M306.19,272.067h42.667V293.4c0,5.658-2.248,11.084-6.248,15.085
				c-4.001,4.001-9.427,6.248-15.085,6.248c-11.782,0-21.333-9.551-21.333-21.333V272.067z"/>
		</g>
	</g>
	<g>
		<path d="M460.79,214.906v-78.372C460.703,61.164,399.626,0.086,324.256,0h-34.133c-13.482,0.037-26.148,6.467-34.133,17.331
			C248.004,6.467,235.339,0.037,221.856,0h-34.133C112.353,0.086,51.276,61.164,51.19,136.533v78.372
			c-10.199,3.592-17.033,13.214-17.067,24.028v51.2c0.033,10.813,6.868,20.435,17.067,24.027v78.373
			c0.015,14.132,11.468,25.585,25.6,25.6h38.217c23.148,44.302,63.776,76.898,112.042,89.892c18.937,5.272,38.955,5.272,57.892,0
			c48.26-13.025,88.888-45.61,112.079-89.892h38.171c14.132-0.015,25.585-11.468,25.6-25.6v-78.372
			c10.199-3.592,17.033-13.214,17.067-24.028v-51.2C477.823,228.12,470.989,218.498,460.79,214.906z M187.723,17.067h34.133
			c14.132,0.015,25.585,11.468,25.6,25.6c0,4.713,3.821,8.533,8.533,8.533c4.713,0,8.533-3.821,8.533-8.533
			c0.015-14.132,11.468-25.585,25.6-25.6h34.133c65.949,0.074,119.393,53.518,119.467,119.467v76.8h-17.067v-17.067
			c-0.053-0.583-0.169-1.159-0.346-1.718c-0.058-0.534-0.165-1.062-0.319-1.577c-0.279-0.538-0.616-1.044-1.004-1.51
			c-0.445-0.993-1.254-1.779-2.26-2.194c-0.393-0.321-0.814-0.605-1.258-0.849c-0.547-0.172-1.111-0.289-1.681-0.35
			c-0.525-0.166-1.066-0.279-1.615-0.336c-13.281-0.146-26.521-1.493-39.558-4.025l-1.092-0.212
			c-19.15-3.713-38.95-7.55-47.375-24.05c-3.093-6.996-5.129-14.413-6.042-22.008c-0.733-4.2-1.475-8.396-2.492-12.504
			c-3.453-14.044-10.553-26.927-20.583-37.346c-11.748-11.805-26.485-20.194-42.633-24.267c-0.758-0.357-1.606-0.477-2.433-0.346
			h-0.067c-0.755,0.008-1.506,0.116-2.233,0.321c-16.187,4.068-30.958,12.472-42.725,24.308
			c-10.026,10.412-17.124,23.288-20.575,37.325c-1.017,4.112-1.758,8.308-2.492,12.508c-0.913,7.596-2.949,15.014-6.042,22.012
			c-8.425,16.496-28.225,20.333-47.375,24.046l-1.058,0.204c-13.048,2.537-26.3,3.887-39.592,4.034
			c-0.551,0.057-1.095,0.17-1.623,0.338c-0.567,0.061-1.127,0.178-1.672,0.347c-0.453,0.247-0.881,0.537-1.28,0.864
			c-0.507,0.275-0.985,0.601-1.426,0.973c-0.313,0.387-0.591,0.8-0.832,1.235c-0.38,0.457-0.71,0.954-0.985,1.481
			c-0.16,0.53-0.269,1.073-0.327,1.623c-0.171,0.544-0.284,1.104-0.338,1.672v17.067H68.256v-76.8
			C68.33,70.584,121.774,17.141,187.723,17.067z M51.19,238.933c0.005-4.711,3.822-8.529,8.533-8.533h25.6V256H68.256
			c-4.713,0-8.533,3.821-8.533,8.533s3.821,8.533,8.533,8.533h17.067v25.6h-25.6c-4.711-0.005-8.529-3.822-8.533-8.533V238.933z
			 M68.256,392.533v-76.8h17.426c2.124,29.417,9.191,58.265,20.903,85.333H76.79C72.079,401.062,68.261,397.244,68.256,392.533z
			 M382.881,408.604c-20.961,40.893-58.215,71.034-102.583,82.996c-15.9,4.433-32.709,4.433-48.608,0
			c-44.628-12.007-82.044-42.426-102.908-83.663c-15.988-31.275-24.993-65.649-26.392-100.746V204.538
			c11.49-0.551,22.927-1.915,34.225-4.08l1.092-0.208c20.992-4.07,47.117-9.133,59.325-33.038
			c3.911-8.501,6.494-17.552,7.658-26.837c0.667-3.813,1.325-7.621,2.242-11.358c2.731-11.113,8.348-21.309,16.283-29.554
			c9.083-9.102,20.378-15.684,32.775-19.1c12.391,3.415,23.682,9.991,32.767,19.083c7.939,8.252,13.559,18.455,16.292,29.575
			c0.917,3.733,1.575,7.542,2.242,11.354c1.164,9.284,3.747,18.334,7.658,26.833c12.208,23.908,38.333,28.971,59.325,33.042
			l1.125,0.217c11.287,2.161,22.713,3.521,34.192,4.071v102.653c-1.399,35.097-10.403,69.471-26.392,100.746
			C383.08,408.153,382.974,408.376,382.881,408.604z M435.19,401.067h-29.794c11.713-27.068,18.78-55.916,20.902-85.333h17.425v76.8
			C443.718,397.244,439.9,401.062,435.19,401.067z M460.79,290.133c-0.005,4.711-3.822,8.529-8.533,8.533h-25.6v-25.6h17.067
			c4.713,0,8.533-3.82,8.533-8.533S448.436,256,443.723,256h-17.067v-25.6h25.6c4.711,0.005,8.529,3.822,8.533,8.533V290.133z"/>
		<path d="M230.39,264.533c0,4.713,3.821,8.533,8.533,8.533c4.713,0,8.533-3.82,8.533-8.533
			c-0.028-23.553-19.114-42.639-42.667-42.667h-76.8c-4.713,0-8.533,3.82-8.533,8.533s3.821,8.533,8.533,8.533h76.8
			C218.922,238.949,230.374,250.401,230.39,264.533z"/>
		<path d="M213.323,294.4v-21.333c0.001-2.263-0.898-4.434-2.499-6.035c-1.6-1.6-3.771-2.499-6.035-2.499h-42.667
			c-2.263-0.001-4.434,0.898-6.035,2.499s-2.499,3.771-2.499,6.035V294.4c0,16.495,13.372,29.867,29.867,29.867
			S213.323,310.895,213.323,294.4z M170.656,294.4v-12.8h25.6v12.8c0,7.069-5.731,12.8-12.8,12.8
			C176.387,307.2,170.656,301.469,170.656,294.4z"/>
		<path d="M383.99,221.867h-76.8c-23.553,0.028-42.639,19.114-42.667,42.667c0,4.713,3.82,8.533,8.533,8.533s8.533-3.82,8.533-8.533
			c0.015-14.132,11.468-25.585,25.6-25.6h76.8c4.713,0,8.533-3.821,8.533-8.533S388.702,221.867,383.99,221.867z"/>
		<path d="M349.856,264.533H307.19c-2.263-0.001-4.434,0.898-6.035,2.499s-2.499,3.771-2.499,6.035V294.4
			c0,16.495,13.372,29.867,29.867,29.867c16.495,0,29.867-13.372,29.867-29.867v-21.333c0.001-2.263-0.898-4.434-2.499-6.035
			S352.12,264.533,349.856,264.533z M341.323,294.4c0,7.069-5.731,12.8-12.8,12.8c-7.069,0-12.8-5.731-12.8-12.8v-12.8h25.6V294.4z"
			/>
		<path d="M230.39,349.867c0-4.713-3.821-8.533-8.533-8.533s-8.533,3.821-8.533,8.533c1.264,22.345,20.312,39.489,42.667,38.4
			c22.354,1.089,41.403-16.055,42.667-38.4c0-4.713-3.821-8.533-8.533-8.533s-8.533,3.821-8.533,8.533
			c-1.295,12.899-12.679,22.386-25.6,21.333C243.069,372.252,231.684,362.765,230.39,349.867z"/>
		<path d="M247.456,324.267c0,4.713,3.821,8.533,8.533,8.533c4.713,0,8.533-3.82,8.533-8.533v-25.6c0-4.713-3.821-8.533-8.533-8.533
			c-4.713,0-8.533,3.82-8.533,8.533V324.267z"/>
		<path d="M324.256,409.6H187.723c-4.713,0-8.533,3.82-8.533,8.533s3.821,8.533,8.533,8.533h136.533c4.713,0,8.533-3.82,8.533-8.533
			S328.969,409.6,324.256,409.6z"/>
		<path d="M298.656,435.2c-2.263-0.001-4.434,0.898-6.035,2.499s-2.499,3.771-2.499,6.035h-76.8c-4.713,0-8.533,3.82-8.533,8.533
			s3.821,8.533,8.533,8.533h85.333c2.263,0.001,4.434-0.898,6.035-2.499c1.6-1.6,2.499-3.771,2.499-6.035v-8.533
			c0.001-2.263-0.898-4.434-2.499-6.035C303.09,436.098,300.92,435.199,298.656,435.2z"/>
	</g>
</g>
<g>
</g>
<g>
</g>
<g>
</g>
<g>
</g>
<g>
</g>
<g>
</g>
<g>
</g>
<g>
</g>
<g>
</g>
<g>
</g>
<g>
</g>
<g>
</g>
<g>
</g>
<g>
</g>
<g>
</g>
</svg>
