<?xml version="1.0" encoding="iso-8859-1"?>
<!-- Generator: Adobe Illustrator 19.0.0, SVG Export Plug-In . SVG Version: 6.00 Build 0)  -->
<svg version="1.1" id="Capa_1" xmlns="http://www.w3.org/2000/svg" xmlns:xlink="http://www.w3.org/1999/xlink" x="0px" y="0px"
	 viewBox="0 0 512.001 512.001" style="enable-background:new 0 0 512.001 512.001;" xml:space="preserve">
<g>
	<g transform="translate(1)">
		<g>
			<path style="fill:#4E342E;" d="M107.267,341.334H71.066c-10.432,0.908-19.687-6.662-20.865-17.067v-51.2
				c1.178-10.405,10.434-17.975,20.865-17.067h20.865c3.222-0.001,6.437-0.316,9.598-0.939l0.939,43.605h-0.104
				C102.041,313.046,103.691,327.402,107.267,341.334z"/>
			<path style="fill:#4E342E;" d="M459.8,273.067v51.2c-1.242,10.452-10.577,18.017-21.06,17.067H402.2
				c3.609-13.926,5.275-28.284,4.949-42.667h-0.105l0.948-43.605c3.192,0.623,6.436,0.938,9.688,0.939h21.06
				C449.223,255.049,458.558,262.615,459.8,273.067z"/>
		</g>
		<g>
			<path style="fill:#59474E;" d="M92.867,307.2H75.8c-4.713,0-8.533-3.821-8.533-8.533c0-4.713,3.821-8.533,8.533-8.533h17.067
				c4.713,0,8.533,3.821,8.533,8.533C101.4,303.38,97.58,307.2,92.867,307.2z"/>
			<path style="fill:#59474E;" d="M434.2,307.2h-17.067c-4.713,0-8.533-3.821-8.533-8.533c0-4.713,3.82-8.533,8.533-8.533H434.2
				c4.713,0,8.533,3.821,8.533,8.533C442.734,303.38,438.913,307.2,434.2,307.2z"/>
		</g>
		<path style="fill:#4E342E;" d="M459.203,140.8c13.643-7.51,20.469-23.306,16.588-38.388C471.91,87.33,458.307,76.791,442.734,76.8
			c-0.372-0.014-0.744,0.015-1.109,0.085c3.243-12.8,0.768-29.44-25.088-40.875c-2.485-1.173-5.189-1.812-7.936-1.877
			c-6.783-0.027-13.416,1.995-19.029,5.803c-5.159-14.83-19.788-24.211-35.418-22.713c-15.63,1.498-28.211,13.488-30.459,29.028
			l-0.597-0.085c0.278-2.471,0.221-4.968-0.171-7.424c-2.413-16.414-15.883-28.962-32.427-30.208
			c-9.284-0.36-18.314,3.075-25.011,9.515S255.004,33.376,255,42.667c-0.032-12.892-7.325-24.667-18.853-30.438
			s-25.325-4.555-35.665,3.144s-15.461,20.568-13.237,33.267l-0.597,0.085c-0.072-0.83-0.186-1.656-0.341-2.475
			c-2.248-15.54-14.829-27.53-30.459-29.028s-30.259,7.883-35.418,22.713c-5.613-3.808-12.246-5.83-19.029-5.803
			c-2.747,0.065-5.451,0.704-7.936,1.877C67.608,47.446,65.134,64.086,68.376,76.886c-0.365-0.071-0.738-0.099-1.109-0.085
			c-15.574-0.009-29.176,10.53-33.057,25.612s2.945,30.878,16.588,38.388c-11.795,6.481-18.67,19.298-17.545,32.709
			c1.125,13.411,10.04,24.904,22.75,29.328c-3.784,5.625-5.805,12.25-5.803,19.029c0.157,5.686,1.837,11.227,4.864,16.043
			c6.864,13.67,22.261,20.784,37.12,17.152l0.768,43.605h-0.085c-0.266,14.328,1.08,28.64,4.011,42.667
			c13.084,71.651,62.76,131.204,130.901,156.928c17.484,6.94,36.959,6.94,54.443,0c68.141-25.724,117.818-85.277,130.901-156.928
			c2.931-14.027,4.276-28.339,4.011-42.667h-0.085l0.768-43.605c14.974,3.657,30.479-3.581,37.291-17.408
			c2.935-4.753,4.555-10.202,4.693-15.787c0.027-6.783-1.995-13.416-5.803-19.029c12.71-4.425,21.625-15.917,22.75-29.328
			C477.873,160.098,470.998,147.281,459.203,140.8z"/>
		<path style="fill:#795548;" d="M427.787,140.8c9.677-6.818,15.29-18.034,14.946-29.867c0-18.859-12.925-34.133-28.882-34.133
			c-0.315-0.014-0.631,0.015-0.939,0.085c2.744-12.8,0.65-29.44-21.228-40.875c-2.054-1.159-4.358-1.803-6.715-1.877
			c-5.875,0.022-11.563,2.072-16.102,5.803c-2.969-12.834-14.067-22.159-27.221-22.869c-15.513,1.128-27.75,13.649-28.521,29.184
			l-0.505-0.085c0.236-2.472,0.187-4.963-0.144-7.424c-2.238-16.213-13.575-29.525-27.438-30.208
			C268.503,7.851,255,23.382,255,42.667c0-18.859-12.925-34.133-28.882-34.133s-28.882,15.275-28.882,34.133
			c-0.006,1.999,0.139,3.996,0.433,5.973l-0.506,0.085c-0.072-0.853-0.145-1.621-0.289-2.475
			c-0.771-15.535-13.008-28.056-28.521-29.184c-13.154,0.711-24.253,10.035-27.221,22.869c-4.539-3.731-10.226-5.78-16.102-5.803
			c-2.357,0.074-4.661,0.718-6.715,1.877C96.438,47.446,94.344,64.086,97.088,76.886c-0.308-0.071-0.623-0.099-0.939-0.085
			c-15.958,0-28.882,15.275-28.882,34.133c-0.344,11.833,5.27,23.049,14.946,29.867c-9.677,6.818-15.29,18.034-14.946,29.867
			c-0.569,13.63,7.044,26.286,19.351,32.171c-3.252,5.813-4.943,12.369-4.91,19.029c0.109,5.594,1.518,11.087,4.116,16.043
			c3.939,10.406,13.655,17.503,24.766,18.091c2.247-0.004,4.483-0.32,6.643-0.939l0.65,43.605h-0.072
			c-0.226,14.298,0.911,28.584,3.393,42.667c7.726,46.592,32.565,119.381,110.763,156.928c14.571,6.94,31.495,6.94,46.067,0
			c78.198-37.547,103.037-110.336,110.763-156.928c2.483-14.082,3.619-28.369,3.393-42.667h-0.072l0.65-43.605
			c2.16,0.619,4.396,0.935,6.643,0.939c11.209-0.629,20.985-7.829,24.911-18.347c2.518-4.888,3.877-10.289,3.972-15.787
			c0.055-6.663-1.638-13.225-4.91-19.029c12.307-5.885,19.92-18.541,19.351-32.171C443.077,158.834,437.464,147.618,427.787,140.8z"
			/>
		<g>
			<path style="fill:#4E342E;" d="M161.134,290.134H203.8v21.333c0,5.658-2.248,11.084-6.248,15.085
				c-4.001,4.001-9.427,6.248-15.085,6.248c-11.782,0-21.333-9.551-21.333-21.333V290.134z"/>
			<path style="fill:#4E342E;" d="M327.534,332.8c-5.658,0-11.084-2.248-15.085-6.248c-4.001-4.001-6.248-9.427-6.248-15.085
				v-21.333h42.667v21.333C348.867,323.249,339.316,332.8,327.534,332.8z"/>
		</g>
		<path style="fill:#37474F;" d="M474.307,157.867c1.723,4.046,2.594,8.403,2.56,12.8c0.035,6.001-1.558,11.899-4.608,17.067
			c-4.055,7.082-10.544,12.45-18.261,15.104c3.807,5.614,5.83,12.246,5.803,19.029c-0.112,5.028-1.46,9.952-3.925,14.336
			c-0.222,0.501-0.479,0.985-0.768,1.451c-0.083,0.189-0.199,0.362-0.341,0.512c-5.734,10.795-16.877,17.625-29.099,17.835h-0.597
			c-2.442-0.086-4.87-0.4-7.253-0.939c2.5-8.199,4.467-16.55,5.888-25.003c0.768-3.84,1.365-7.765,1.792-11.776
			c2.096-13.502,1.662-27.276-1.28-40.619c-6.741-27.563-34.048-40.789-60.416-42.581c-22.327-1-44.381,5.224-62.891,17.749
			c-2.731,1.707-5.461,3.499-8.107,5.291c-22.913,15.19-52.692,15.19-75.605,0c-2.645-1.792-5.376-3.584-8.107-5.291
			c-18.51-12.525-40.564-18.75-62.891-17.749c-18.1,0.636-35.328,7.928-48.384,20.48c-5.883,6.182-10.033,13.805-12.032,22.101
			c-0.852,3.306-1.451,6.672-1.792,10.069c-0.553,4.329-0.81,8.692-0.768,13.056c-0.002,5.883,0.426,11.758,1.28,17.579
			c0.427,3.925,1.109,7.851,1.792,11.691c1.421,8.452,3.388,16.804,5.888,25.003c-2.383,0.538-4.812,0.853-7.253,0.939h-0.597
			c-12.21-0.17-23.36-6.971-29.099-17.749c-0.021-0.128-0.081-0.247-0.171-0.341c-0.335-0.512-0.62-1.055-0.853-1.621
			c-2.541-4.388-3.921-9.352-4.011-14.421c-0.002-6.779,2.018-13.405,5.803-19.029c-7.717-2.654-14.207-8.022-18.261-15.104
			c-3.05-5.168-4.643-11.066-4.608-17.067c-0.034-4.397,0.837-8.754,2.56-12.8c2.891-7.276,8.233-13.313,15.104-17.067
			c-5.451-2.979-9.97-7.409-13.056-12.8c-3.05-5.168-4.643-11.066-4.608-17.067c-0.003-9.054,3.593-17.737,9.995-24.139
			c6.402-6.402,15.085-9.997,24.139-9.995c0.372-0.014,0.744,0.015,1.109,0.085c-3.243-12.8-0.768-29.44,25.088-40.875
			c2.485-1.173,5.189-1.812,7.936-1.877c6.783-0.027,13.416,1.995,19.029,5.803c5.159-14.83,19.788-24.211,35.418-22.713
			s28.211,13.488,30.459,29.028c0.155,0.819,0.269,1.645,0.341,2.475l0.597-0.085c-2.257-12.715,2.853-25.615,13.205-33.335
			c10.352-7.72,24.173-8.938,35.716-3.149S254.998,29.753,255,42.667c0.004-9.291,3.791-18.179,10.488-24.619
			s15.727-9.875,25.011-9.515c16.544,1.246,30.013,13.794,32.427,30.208c0.392,2.456,0.449,4.953,0.171,7.424l0.597,0.085
			c2.248-15.54,14.829-27.53,30.459-29.028c15.63-1.498,30.259,7.883,35.418,22.713c5.613-3.808,12.246-5.83,19.029-5.803
			c2.747,0.065,5.451,0.704,7.936,1.877c25.856,11.435,28.331,28.075,25.088,40.875c0.365-0.071,0.738-0.099,1.109-0.085
			c9.054-0.003,17.737,3.593,24.139,9.995c6.402,6.402,9.997,15.085,9.995,24.139c0.035,6.001-1.558,11.899-4.608,17.067
			c-3.086,5.391-7.605,9.822-13.056,12.8C466.074,144.554,471.416,150.591,474.307,157.867z"/>
		<path style="fill:#607D8B;" d="M472.259,187.734c-4.055,7.082-10.544,12.45-18.261,15.104c3.807,5.614,5.83,12.246,5.803,19.029
			c-0.112,5.028-1.46,9.952-3.925,14.336c-0.61,0.292-1.237,0.549-1.877,0.768c0.256,0.427,0.512,0.768,0.768,1.195
			c-5.734,10.795-16.877,17.625-29.099,17.835h-0.597c2.103-12.474,2.247-25.199,0.427-37.717
			c2.096-13.502,1.662-27.276-1.28-40.619c-6.741-27.563-34.048-40.789-60.416-42.581c-22.327-1-44.381,5.224-62.891,17.749
			c-2.731,1.707-5.461,3.499-8.107,5.291c-22.913,15.19-52.692,15.19-75.605,0c-2.645-1.792-5.376-3.584-8.107-5.291
			c-18.51-12.525-40.564-18.75-62.891-17.749c-18.1,0.636-35.328,7.928-48.384,20.48c-5.883,6.182-10.033,13.805-12.032,22.101
			c-0.852,3.306-1.451,6.672-1.792,10.069c-0.553,4.329-0.81,8.692-0.768,13.056c-0.002,5.883,0.426,11.758,1.28,17.579
			c-0.26,1.151-0.432,2.321-0.512,3.499c-0.553,4.329-0.81,8.692-0.768,13.056c0.053,7.058,0.623,14.103,1.707,21.077h-0.597
			c-12.21-0.17-23.36-6.971-29.099-17.749l0.768-1.28c-0.611-0.19-1.209-0.418-1.792-0.683c-2.541-4.388-3.921-9.352-4.011-14.421
			c-0.002-6.779,2.018-13.405,5.803-19.029c-7.717-2.654-14.207-8.022-18.261-15.104c3.086-5.391,7.605-9.822,13.056-12.8
			c-6.871-3.754-12.213-9.791-15.104-17.067c2.891-7.276,8.233-13.313,15.104-17.067c-5.451-2.979-9.97-7.409-13.056-12.8
			c6.065-10.576,17.334-17.089,29.525-17.067c0.372-0.014,0.744,0.015,1.109,0.085c-3.243-12.8-0.768-29.44,25.088-40.875
			c2.485-1.173,5.189-1.812,7.936-1.877c6.783-0.027,13.416,1.995,19.029,5.803c5.159-14.83,19.788-24.211,35.418-22.713
			c15.63,1.498,28.211,13.488,30.459,29.028c0.155,0.819,0.269,1.645,0.341,2.475l0.597-0.085
			c-2.257-12.715,2.853-25.615,13.205-33.335c10.352-7.72,24.173-8.938,35.716-3.149S254.998,63.887,255,76.8
			c0.004-9.291,3.791-18.179,10.488-24.619s15.727-9.875,25.011-9.515c16.544,1.246,30.013,13.794,32.427,30.208
			c0.392,2.456,0.449,4.953,0.171,7.424l0.597,0.085c2.248-15.54,14.829-27.53,30.459-29.028
			c15.63-1.498,30.259,7.883,35.418,22.713c5.613-3.808,12.246-5.83,19.029-5.803c2.747,0.065,5.451,0.704,7.936,1.877
			c25.856,11.435,28.331,28.075,25.088,40.875c0.365-0.071,0.738-0.099,1.109-0.085c12.192-0.023,23.46,6.491,29.525,17.067
			c-3.086,5.391-7.605,9.822-13.056,12.8c6.871,3.754,12.213,9.791,15.104,17.067c-2.891,7.276-8.233,13.313-15.104,17.067
			C464.654,177.912,469.173,182.343,472.259,187.734z"/>
		<g>
			<path style="fill:#2C3E50;" d="M203.8,298.667h-59.733c-4.713,0-8.533-3.82-8.533-8.533s3.82-8.533,8.533-8.533H203.8
				c4.713,0,8.533,3.82,8.533,8.533S208.513,298.667,203.8,298.667z"/>
			<path style="fill:#2C3E50;" d="M365.934,298.667H306.2c-4.713,0-8.533-3.82-8.533-8.533s3.821-8.533,8.533-8.533h59.733
				c4.713,0,8.533,3.82,8.533,8.533S370.646,298.667,365.934,298.667z"/>
		</g>
	</g>
	<g>
		<path d="M213.334,311.467v-21.333c0.001-2.263-0.898-4.434-2.499-6.035c-1.6-1.6-3.771-2.499-6.035-2.499h-59.733
			c-4.713,0-8.533,3.82-8.533,8.533s3.82,8.533,8.533,8.533h8.533v12.8c0,16.495,13.372,29.867,29.867,29.867
			S213.334,327.962,213.334,311.467z M196.267,311.467c0,7.069-5.731,12.8-12.8,12.8c-7.069,0-12.8-5.731-12.8-12.8v-12.8h25.6
			V311.467z"/>
		<path d="M366.934,281.6H307.2c-2.263-0.001-4.434,0.898-6.035,2.499c-1.6,1.6-2.499,3.771-2.499,6.035v21.333
			c0,16.495,13.372,29.867,29.867,29.867c16.495,0,29.867-13.372,29.867-29.867v-12.8h8.533c4.713,0,8.533-3.82,8.533-8.533
			S371.646,281.6,366.934,281.6z M341.334,311.467c0,7.069-5.731,12.8-12.8,12.8s-12.8-5.731-12.8-12.8v-12.8h25.6V311.467z"/>
		<path d="M238.934,384h34.133c4.713,0,8.533-3.82,8.533-8.533s-3.821-8.533-8.533-8.533h-34.133c-4.713,0-8.533,3.82-8.533,8.533
			S234.221,384,238.934,384z"/>
		<path d="M256,349.867c2.263,0.001,4.434-0.898,6.035-2.499c1.6-1.6,2.499-3.771,2.499-6.035v-17.067
			c0-4.713-3.82-8.533-8.533-8.533s-8.533,3.82-8.533,8.533v17.067c-0.001,2.263,0.898,4.434,2.499,6.035
			C251.566,348.969,253.737,349.867,256,349.867z"/>
		<path d="M145.067,238.934H204.8c4.713,0,8.533-3.821,8.533-8.533c0-4.713-3.821-8.533-8.533-8.533h-59.733
			c-4.713,0-8.533,3.821-8.533,8.533C136.534,235.113,140.354,238.934,145.067,238.934z"/>
		<path d="M307.2,238.934h59.733c4.713,0,8.533-3.821,8.533-8.533c0-4.713-3.821-8.533-8.533-8.533H307.2
			c-4.713,0-8.533,3.821-8.533,8.533C298.667,235.113,302.488,238.934,307.2,238.934z"/>
		<path d="M366.934,196.267c-4.713,0-8.533,3.821-8.533,8.533s3.821,8.533,8.533,8.533c9.426,0,17.067,7.641,17.067,17.067
			c0,9.426-7.641,17.067-17.067,17.067c-4.713,0-8.533,3.82-8.533,8.533s3.821,8.533,8.533,8.533
			c18.851,0,34.133-15.282,34.133-34.133S385.785,196.267,366.934,196.267z"/>
		<path d="M452.25,69.121c0.267-12.779-5.316-29.45-31.217-40.942c-8.527-3.565-18.14-3.497-26.617,0.188
			c-7.076-11.198-18.961-18.464-32.153-19.66c-13.192-1.195-26.189,3.816-35.164,13.56c-6.892-12.67-19.754-20.965-34.138-22.016
			s-28.316,5.284-36.978,16.816c-8.668-11.563-22.603-17.95-37.021-16.968c-14.418,0.982-27.358,9.199-34.379,21.831
			c-9.023-9.586-21.973-14.46-35.078-13.201s-24.89,8.509-31.922,19.638c-8.473-3.684-18.083-3.753-26.608-0.192
			c-25.9,11.496-31.492,28.167-31.225,40.946C44.431,72.24,32.045,83.488,27.469,98.437s-0.609,31.203,10.34,42.363
			c-9.025,9.194-13.409,21.976-11.925,34.774s8.676,24.238,19.566,31.122c-1.843,4.845-2.787,9.987-2.783,15.171
			c0.133,7.239,2.227,14.307,6.059,20.45c1.919,3.139,4.163,6.067,6.695,8.736c-7.867,4.544-12.724,12.929-12.753,22.014v51.2
			c0.015,14.132,11.468,25.585,25.6,25.6H91.28c15.437,71.446,65.95,130.243,134.254,156.271c9.669,3.907,20.005,5.898,30.433,5.862
			h0.067c10.429,0.034,20.765-1.958,30.433-5.867c68.304-26.025,118.817-84.821,134.254-156.267h23.013
			c14.132-0.015,25.585-11.468,25.6-25.6v-51.2c-0.028-9.049-4.846-17.407-12.664-21.966c2.588-2.785,4.87-5.841,6.806-9.114
			c3.718-6.063,5.741-13.013,5.858-20.125c0.011-5.187-0.927-10.333-2.767-15.183c10.884-6.886,18.07-18.324,19.551-31.118
			c1.481-12.794-2.903-25.571-11.926-34.761c10.949-11.16,14.916-27.414,10.34-42.363S467.57,72.24,452.25,69.121z M452.267,324.267
			c-0.005,4.711-3.822,8.529-8.533,8.533h-19.712c1.351-8.476,2.208-17.024,2.565-25.6h8.614c4.713,0,8.533-3.821,8.533-8.533
			c0-4.713-3.82-8.533-8.533-8.533h-17.15c-0.068,0-0.126,0.037-0.194,0.039c-0.063,0.002-0.118-0.03-0.181-0.027
			c-0.379,0.069-0.753,0.166-1.119,0.289c-0.712,0.09-1.411,0.271-2.078,0.537c-0.195,0.093-0.339,0.247-0.524,0.353
			c-0.801,0.423-1.529,0.973-2.155,1.627l-0.084,0.126c-1.395,1.53-2.177,3.519-2.198,5.589c0,0.162,0.083,0.296,0.092,0.456
			l-0.001,0.003c0.075,1.354,5.717,136.254-129.558,191.196c-7.638,3.057-15.79,4.622-24.017,4.612h-0.067
			c-8.226,0.009-16.378-1.555-24.017-4.608c-65.002-24.234-112.62-80.665-125.577-148.816c0.002-0.062,0.035-0.113,0.035-0.176
			c-0.001-1.159-0.24-2.305-0.702-3.368c-2.493-12.791-3.605-25.813-3.316-38.842c0.009-0.16,0.092-0.295,0.092-0.457
			c-0.026-3.133-1.786-5.994-4.57-7.431c-0.137-0.076-0.241-0.191-0.383-0.258c-0.707-0.287-1.45-0.478-2.208-0.567
			c-0.332-0.109-0.671-0.196-1.014-0.26c-0.054-0.002-0.102,0.026-0.155,0.025c-0.072-0.002-0.131-0.041-0.204-0.041H76.8
			c-4.713,0-8.533,3.821-8.533,8.533c0,4.713,3.821,8.533,8.533,8.533h8.614c0.357,8.576,1.214,17.124,2.565,25.6H68.267
			c-4.711-0.005-8.529-3.822-8.533-8.533v-51.2c0.005-4.711,3.822-8.529,8.533-8.533h17.067c0.148,0,0.271-0.077,0.418-0.084
			c3.175-0.01,6.339-0.376,9.432-1.091c2.476-0.628,4.544-2.327,5.642-4.634c1.106-2.319,1.127-5.009,0.058-7.346
			c-2.23-7.049-3.882-14.267-4.942-21.583l-0.258-1.317c-1.841-9.118-2.82-18.39-2.925-27.692c-0.042-4.08,0.2-8.158,0.725-12.204
			c0.302-3.006,0.834-5.984,1.592-8.908c1.652-6.85,5.081-13.144,9.941-18.246c11.58-11.012,26.818-17.362,42.792-17.833
			c20.542-0.936,40.829,4.852,57.783,16.488c2.65,1.646,5.283,3.367,7.917,5.121c25.73,17.158,59.254,17.158,84.983,0
			c2.633-1.754,5.267-3.475,7.942-5.133c16.967-11.615,37.251-17.397,57.792-16.475c21.567,1.467,46.742,11.716,52.7,36.1
			c3.284,16.069,3.085,32.656-0.584,48.642l-0.283,1.458c-1.062,7.311-2.712,14.525-4.933,21.571
			c-1.116,2.323-1.122,5.026-0.017,7.354c1.105,2.328,3.203,4.033,5.708,4.637c3.303,0.809,6.691,1.22,10.092,1.225
			c0.247,0,0.484-0.045,0.73-0.05h16.095c4.711,0.005,8.529,3.822,8.533,8.533V324.267z M456.1,148.284
			c8.836,4.858,13.985,14.461,13.144,24.509c-0.841,10.048-7.516,18.661-17.036,21.983c-2.511,0.87-4.474,2.86-5.308,5.384
			c-0.835,2.523-0.446,5.291,1.05,7.487c2.842,4.194,4.346,9.15,4.316,14.216c-0.121,4.048-1.321,7.991-3.475,11.421
			c-3.725,7.375-10.729,12.544-18.875,13.929c0.858-3.779,1.817-8.467,2.908-14.234l0.259-1.324
			c4.164-18.426,4.309-37.533,0.425-56.021c-8.15-33.317-40.542-47.187-68.1-49.062c-2.233-0.158-4.472-0.238-6.717-0.237
			c-21.838,0.485-43.09,7.16-61.283,19.25c-2.8,1.737-5.583,3.558-8.367,5.404c-20.008,13.342-46.076,13.342-66.083,0
			c-2.783-1.846-5.567-3.667-8.342-5.392c-20.038-13.462-43.869-20.132-67.983-19.029c-20.25,0.768-39.498,9.013-54.025,23.142
			c-6.885,7.227-11.746,16.14-14.092,25.842c-0.936,3.617-1.596,7.3-1.975,11.017c-0.615,4.715-0.899,9.467-0.85,14.221
			c0.103,10.41,1.191,20.787,3.249,30.992l0.233,1.2c1.092,5.767,2.05,10.454,2.908,14.234c-8.048-1.361-14.986-6.432-18.725-13.687
			c-2.236-3.489-3.488-7.517-3.625-11.659c-0.001-5.085,1.513-10.055,4.35-14.275c1.476-2.197,1.848-4.955,1.008-7.465
			s-2.798-4.487-5.3-5.353c-9.52-3.322-16.194-11.935-17.035-21.982c-0.841-10.048,4.308-19.65,13.143-24.509
			c2.734-1.497,4.433-4.366,4.433-7.483s-1.7-5.986-4.433-7.483c-10.214-5.629-15.328-17.454-12.434-28.751
			C46.36,93.268,56.53,85.358,68.192,85.334c0.233,0.036,0.461,0.006,0.693,0.022c0.088,0.005,0.16,0.055,0.249,0.057
			c11.302,0.382,21.016,8.132,23.9,19.067c1.194,4.561,5.86,7.29,10.421,6.096s7.29-5.86,6.096-10.421
			c-4.166-15.653-16.802-27.618-32.658-30.925C76.512,58.589,83.39,50.21,97.9,43.771c1.409-0.67,2.94-1.046,4.5-1.104
			c5.069-0.027,10.028,1.479,14.225,4.321l0.021,0.008l0.021,0.021c7.085,4.751,11.335,12.72,11.333,21.25
			c0.005,2.836-0.483,5.652-1.442,8.321c-1.051,2.861-0.496,6.066,1.457,8.406c1.952,2.341,5.005,3.462,8.009,2.942
			c3.003-0.52,5.501-2.604,6.552-5.465c1.661-4.551,2.504-9.36,2.492-14.204c-0.015-11.557-4.732-22.61-13.065-30.617
			c5.688-9.171,16.537-13.764,27.082-11.465c10.544,2.299,18.496,10.992,19.85,21.698c0.108,0.575,0.167,1.096,0.225,1.671
			c0.34,2.336,1.604,4.438,3.508,5.833c1.942,1.439,4.375,2.051,6.767,1.704c2.299-0.324,4.366-1.571,5.725-3.454
			s1.891-4.237,1.475-6.521c-1.679-9.536,2.163-19.203,9.93-24.984c7.767-5.781,18.13-6.689,26.783-2.345
			s14.117,13.197,14.12,22.879c0,4.713,3.821,8.533,8.533,8.533s8.533-3.821,8.533-8.533c-0.026-6.964,2.809-13.633,7.842-18.446
			c4.985-4.888,11.785-7.474,18.758-7.133c12.504,1.064,22.617,10.622,24.383,23.046c0.265,1.8,0.29,3.627,0.075,5.433
			c-0.055,4.607,3.341,8.529,7.908,9.133c2.243,0.317,4.52-0.271,6.329-1.635c1.809-1.364,3-3.392,3.312-5.636
			c1.531-10.596,9.525-19.105,20.005-21.292c10.481-2.187,21.21,2.413,26.852,11.512c-8.333,8.007-13.05,19.06-13.065,30.617
			c-0.012,4.845,0.831,9.653,2.492,14.204c1.051,2.861,3.549,4.944,6.552,5.465c3.003,0.52,6.056-0.601,8.009-2.942
			c1.952-2.341,2.508-5.545,1.457-8.406c-0.96-2.669-1.447-5.485-1.442-8.321c-0.002-8.53,4.249-16.5,11.333-21.25l0.021-0.021
			l0.021-0.008c4.197-2.842,9.156-4.348,14.225-4.321c1.563,0.059,3.097,0.436,4.508,1.108c14.503,6.435,21.38,14.813,21,25.454
			c-15.856,3.306-28.493,15.272-32.658,30.925c-1.194,4.561,1.535,9.227,6.096,10.421c4.561,1.194,9.227-1.535,10.421-6.096
			c2.884-10.935,12.598-18.684,23.9-19.067c0.185-0.005,0.336-0.103,0.518-0.119c0.148-0.012,0.283,0.06,0.432,0.041
			c11.66,0.029,21.825,7.94,24.717,19.236c2.892,11.296-2.221,23.118-12.433,28.747c-2.734,1.497-4.433,4.366-4.433,7.483
			S453.367,146.786,456.1,148.284L456.1,148.284z"/>
		<path d="M307.2,401.067H204.8c-4.713,0-8.533,3.82-8.533,8.533s3.82,8.533,8.533,8.533h102.4c4.713,0,8.533-3.82,8.533-8.533
			S311.913,401.067,307.2,401.067z"/>
		<path d="M264.534,435.2h-17.067c-4.713,0-8.533,3.82-8.533,8.533s3.821,8.533,8.533,8.533h17.067c4.713,0,8.533-3.821,8.533-8.533
			S269.246,435.2,264.534,435.2z"/>
	</g>
</g>
<g>
</g>
<g>
</g>
<g>
</g>
<g>
</g>
<g>
</g>
<g>
</g>
<g>
</g>
<g>
</g>
<g>
</g>
<g>
</g>
<g>
</g>
<g>
</g>
<g>
</g>
<g>
</g>
<g>
</g>
</svg>
