<?xml version="1.0" encoding="iso-8859-1"?>
<!-- Generator: Adobe Illustrator 19.0.0, SVG Export Plug-In . SVG Version: 6.00 Build 0)  -->
<svg version="1.1" id="Capa_1" xmlns="http://www.w3.org/2000/svg" xmlns:xlink="http://www.w3.org/1999/xlink" x="0px" y="0px"
	 viewBox="0 0 511.995 511.995" style="enable-background:new 0 0 511.995 511.995;" xml:space="preserve">
<g>
	<g transform="translate(1 1)">
		<g>
			<path style="fill:#BFB186;" d="M101.397,339.376l-3.499,0.939c-1.842,1.672-4.026,2.924-6.4,3.669
				c-18.005,5.717-30.037-23.723-34.731-36.267C50.453,290.906,43.2,270.085,49.6,252.25c1.661-6.191,7.33-10.452,13.739-10.325
				c10.836,2.004,20.656,7.667,27.819,16.043c-0.263,27.086,3.066,54.087,9.899,80.299
				C101.131,338.647,101.245,339.019,101.397,339.376z"/>
			<path style="fill:#BFB186;" d="M452.885,307.717c-4.693,12.544-16.725,41.984-34.731,36.267
				c-3.131-1.092-5.944-2.938-8.192-5.376l-1.365-0.341c6.833-26.211,10.161-53.213,9.899-80.299
				c7.162-8.375,16.982-14.038,27.819-16.043c6.409-0.126,12.078,4.134,13.739,10.325
				C466.453,270.085,459.2,290.906,452.885,307.717z"/>
			<path style="fill:#BFB186;" d="M407.232,336.816c-13.653,54.187-45.995,122.197-121.941,158.208
				c-1.024,0.512-2.048,0.939-3.072,1.451c-17.274,7.965-37.169,7.965-54.443,0c-77.653-35.413-110.763-103.765-124.672-158.549
				c-0.153-0.357-0.267-0.729-0.341-1.109c-6.835-26.443-10.163-53.67-9.899-80.981V235.61c0-3.499,0.085-6.997,0.341-10.411
				c23.134,3.512,46.757,1.91,69.205-4.693c3.73-1.184,7.378-2.609,10.923-4.267c11.696-5.152,21.908-13.163,29.696-23.296
				c12.625-17.63,18.911-39.014,17.835-60.672c0,0,10.411,77.227,100.352,92.245c31.749,4.345,64.034,2.637,95.147-5.035
				c0.512,5.291,0.768,10.667,0.768,16.128v20.224C417.395,283.145,414.067,310.372,407.232,336.816z"/>
		</g>
		<path style="fill:#FFE0B2;" d="M373.013,357.125c-11.349,45.227-35.84,100.011-87.723,137.899
			c-1.024,0.512-2.048,0.939-3.072,1.451c-17.274,7.965-37.169,7.965-54.443,0c-77.653-35.413-110.763-103.765-124.672-158.549
			c-0.153-0.357-0.267-0.729-0.341-1.109c-6.835-26.443-10.163-53.67-9.899-80.981v-8.789c15.941-0.548,31.634-4.11,46.251-10.496
			c8.638-3.955,16.521-9.383,23.296-16.043c14.336-14.251,24.235-35.669,24.235-67.925c2.647,14.432,8.223,28.169,16.384,40.363
			c19.129,28.651,49.78,47.559,83.968,51.797c31.741,4.423,64.036,2.743,95.147-4.949c0.512,5.205,0.768,10.667,0.768,16.043v20.309
			C383.173,303.454,379.845,330.681,373.013,357.125z"/>
		<path style="fill:#F29C1F;" d="M416.363,221.957c-9.899,2.133-19.285,3.84-28.245,4.949c-0.939-4.181-2.133-8.363-3.413-12.373
			c-15.7-49.42-54.071-88.362-103.253-104.79c-14.894-5.027-30.452-7.817-46.165-8.277c-1.707-0.085-3.413-0.085-5.12-0.085
			c-1.707,0-3.413,0-5.12,0.085c-1.792,0.085-3.755,0.171-5.547,0.341h-0.341c-33.946,2.266-66.3,15.231-92.416,37.035
			c19.658-25.469,46.453-44.511,76.971-54.699c14.894-5.027,30.452-7.817,46.165-8.277c1.707-0.085,3.413-0.085,5.12-0.085
			c1.707,0,3.413,0,5.12,0.085c15.713,0.461,31.271,3.25,46.165,8.277c49.183,16.428,87.553,55.37,103.253,104.789
			C412.986,199.665,415.275,210.736,416.363,221.957z"/>
		<path style="fill:#FFEB3A;" d="M388.117,226.906c-22.178,3.31-44.724,3.31-66.901,0c-76.459-12.629-95.403-69.888-99.413-86.784
			c-0.085-0.512-0.256-1.024-0.341-1.451c-0.085-0.512-0.171-0.939-0.256-1.28c-0.256-1.195-0.341-1.877-0.341-1.877
			c0.805,19.484-4.216,38.765-14.421,55.381c-5.852,8.996-13.635,16.576-22.784,22.187c-3.291,2.141-6.744,4.024-10.325,5.632
			c-34.475,15.872-75.861,9.557-80.128,8.875c2.054-32.27,13.736-63.183,33.536-88.747c26.116-21.803,58.47-34.769,92.416-37.035
			h0.341c1.792-0.171,3.755-0.256,5.547-0.341c1.707-0.085,3.413-0.085,5.12-0.085c1.707,0,3.413,0,5.12,0.085
			c15.713,0.461,31.271,3.25,46.165,8.277c49.182,16.428,87.553,55.37,103.253,104.789
			C385.984,218.544,387.179,222.725,388.117,226.906z"/>
		<g>
			<path style="fill:#CC4B4C;" d="M254.997,365.914c-4.713,0-8.533-3.82-8.533-8.533s3.821-8.533,8.533-8.533
				c3.866,0.004,7.527-1.735,9.967-4.733c2.634-3.869,7.893-4.894,11.787-2.297c3.894,2.596,4.971,7.845,2.412,11.764
				C273.541,361.317,264.561,365.9,254.997,365.914z"/>
			<path style="fill:#CC4B4C;" d="M254.997,365.914c-9.563-0.014-18.544-4.597-24.166-12.333c-1.727-2.536-1.959-5.805-0.608-8.56
				c1.351-2.755,4.077-4.573,7.14-4.76s5.99,1.284,7.668,3.853c2.444,2.993,6.103,4.731,9.967,4.733
				c4.713,0,8.533,3.821,8.533,8.533S259.71,365.914,254.997,365.914z"/>
		</g>
		<g>
			<path style="fill:#E91E63;" d="M190.315,15.365c-24.5-10.438-52.191-10.469-76.715-0.085
				C85.099,27.141,69.568,50.693,64.619,82.267c-5.12,32.256-18.688,77.141-57.088,77.141c15.636,9.691,32.401,17.429,49.92,23.04
				c13.869,4.564,28.409,6.757,43.008,6.485c15.7-49.42,54.071-88.361,103.253-104.789c14.894-5.027,30.452-7.817,46.165-8.277
				C237.503,49.498,216.487,28.151,190.315,15.365z"/>
			<path style="fill:#E91E63;" d="M445.376,82.267c-4.949-31.573-20.48-55.125-48.981-66.987
				C371.871,4.897,344.18,4.928,319.68,15.366c-26.172,12.786-47.188,34.133-59.563,60.501c15.713,0.461,31.271,3.25,46.165,8.277
				c49.183,16.428,87.553,55.37,103.253,104.789c14.599,0.271,29.139-1.921,43.008-6.485c17.519-5.611,34.284-13.349,49.92-23.04
				C464.064,159.408,450.496,114.523,445.376,82.267z"/>
		</g>
		<g>
			<path style="fill:#F29C1F;" d="M203.712,84.144c-49.183,16.428-87.553,55.37-103.253,104.789
				c-14.599,0.271-29.139-1.921-43.008-6.485l1.28-4.267c17.647-23.828,32.185-49.808,43.264-77.312
				c3.328-8.789,5.291-18.091,8.619-26.88c1.711-4.831,4.189-9.355,7.339-13.397c19.968-23.893,65.792-13.227,80.811,10.923
				c1.085,1.843,2.054,3.753,2.901,5.717C202.592,79.456,203.278,81.773,203.712,84.144z"/>
			<path style="fill:#F29C1F;" d="M452.544,182.448c-13.869,4.564-28.409,6.757-43.008,6.485
				c-15.7-49.42-54.071-88.361-103.253-104.789c0.434-2.371,1.12-4.688,2.048-6.912c0.847-1.964,1.816-3.874,2.901-5.717
				c15.019-24.149,60.842-34.816,80.811-10.923c3.15,4.042,5.628,8.566,7.339,13.397c3.328,8.789,5.291,18.091,8.619,26.88
				c11.079,27.504,25.617,53.484,43.264,77.312L452.544,182.448z"/>
		</g>
		<g>
			<path style="fill:#E91E63;" d="M323.179,417.114c-22.255,5.818-45.179,8.687-68.181,8.533
				c-23.031,0.153-45.982-2.716-68.267-8.533c0,0,30.379-25.6,45.483-25.6c8.433-0.336,16.646,2.74,22.784,8.533
				c6.138-5.794,14.351-8.87,22.784-8.533C292.373,391.514,321.387,415.578,323.179,417.114z"/>
			<path style="fill:#E91E63;" d="M323.264,417.114c0,0-22.784,51.2-68.267,51.2s-68.267-51.2-68.267-51.2
				c22.285,5.817,45.236,8.686,68.267,8.533c23.003,0.153,45.926-2.716,68.181-8.533H323.264z"/>
		</g>
		<g>
			<path style="fill:#02A9F4;" d="M161.131,289.114h34.133v17.067c0,9.426-7.641,17.067-17.067,17.067
				c-9.426,0-17.067-7.641-17.067-17.067V289.114z"/>
			<path style="fill:#02A9F4;" d="M314.731,289.114h34.133v17.067c0,9.426-7.641,17.067-17.067,17.067
				c-9.426,0-17.067-7.641-17.067-17.067V289.114z"/>
		</g>
		<g>
			<path style="fill:#2C2F38;" d="M212.331,297.648h-68.267c-4.713,0-8.533-3.821-8.533-8.533c0-4.713,3.821-8.533,8.533-8.533
				h68.267c4.713,0,8.533,3.821,8.533,8.533C220.864,293.827,217.044,297.648,212.331,297.648z"/>
			<path style="fill:#2C2F38;" d="M365.931,297.648h-68.267c-4.713,0-8.533-3.821-8.533-8.533c0-4.713,3.82-8.533,8.533-8.533
				h68.267c4.713,0,8.533,3.821,8.533,8.533C374.464,293.827,370.644,297.648,365.931,297.648z"/>
		</g>
	</g>
	<g>
		<path d="M255.997,366.914c9.563-0.014,18.544-4.597,24.166-12.333c2.558-3.919,1.482-9.168-2.412-11.764
			c-3.894-2.596-9.153-1.571-11.787,2.297c-2.442,2.995-6.102,4.733-9.967,4.733s-7.524-1.738-9.967-4.733
			c-1.682-2.559-4.606-4.021-7.662-3.831c-3.056,0.19-5.777,2.004-7.128,4.752c-1.351,2.748-1.126,6.01,0.59,8.546
			C237.453,362.317,246.434,366.9,255.997,366.914z"/>
		<path d="M503.464,151.872c-31.033,0-43.592-38.037-48.658-69.929c-5.675-36.212-23.884-60.954-54.1-73.529
			c-26.71-11.257-56.843-11.198-83.508,0.162c-26.316,12.709-47.763,33.664-61.08,59.677l-0.12-0.006l-0.12,0.006
			c-13.321-26.019-34.774-46.976-61.096-59.685C168.13-2.779,138.018-2.839,111.322,8.402
			c-30.25,12.587-48.458,37.329-54.125,73.525c-5.075,31.909-17.633,69.946-48.667,69.946c-3.774,0.003-7.099,2.483-8.175,6.101
			c-1.077,3.617,0.35,7.512,3.509,9.578c1.886,1.231,43.259,27.894,86.565,30.706c-2.304,9.369-3.805,18.918-4.485,28.542
			c-0.034,0.157-0.137,0.278-0.164,0.439c-0.03,0.521-0.009,1.044,0.063,1.561c-0.199,3.365-0.513,6.7-0.513,10.114v2.129
			c-5.607-3.791-12.096-6.074-18.842-6.629c-10.144-0.314-19.234,6.222-22.167,15.937c-7.2,19.854-0.425,41.187,7.133,61.338
			c12.433,33.121,27.75,47.054,45.35,41.467c0.683-0.217,1.358-0.467,2.033-0.75c16.033,54.391,50.867,118.713,126.375,152.963
			c9.649,4.381,20.128,6.636,30.725,6.612h0.117c10.597,0.023,21.076-2.232,30.725-6.612
			c75.508-34.254,110.342-98.567,126.375-152.963c0.662,0.282,1.338,0.531,2.025,0.746c17.683,5.621,32.925-8.346,45.358-41.467
			c7.558-20.146,14.333-41.479,7.125-61.338c-2.877-9.754-12.005-16.315-22.167-15.933c-6.743,0.556-13.229,2.839-18.833,6.629
			v-2.129c-0.053-13.708-1.765-27.36-5.098-40.657c43.306-2.817,84.679-29.474,86.565-30.705c3.158-2.066,4.585-5.961,3.508-9.578
			C510.563,154.356,507.238,151.875,503.464,151.872z M407.722,216.174c-27.628,6.025-56.1,7.146-84.117,3.311
			c-82.333-13.587-92.883-81.271-93.283-84.121c-0.1-0.373-0.226-0.738-0.378-1.093c-0.127-0.533-0.306-1.051-0.534-1.549
			c-0.269-0.507-0.591-0.984-0.959-1.423c-0.295-0.399-0.624-0.77-0.985-1.11c-1.243-1.151-2.837-1.852-4.526-1.99
			c-0.353-0.097-0.713-0.169-1.076-0.217c-0.203,0-0.371,0.101-0.57,0.115c-0.199,0.014-0.379-0.064-0.58-0.036
			c-0.359,0.097-0.711,0.219-1.053,0.366c-0.557,0.131-1.1,0.319-1.618,0.562c-0.469,0.254-0.913,0.552-1.324,0.892
			c-0.897,0.617-1.624,1.449-2.116,2.42c-0.285,0.457-0.524,0.941-0.713,1.444c-0.171,0.547-0.284,1.111-0.339,1.681
			c-0.098,0.357-0.172,0.721-0.22,1.089c0,37.208-14.308,62.587-42.567,75.45c-21.317,8.553-44.42,11.697-67.248,9.152
			c1.083-9.559,3.068-18.994,5.928-28.18l0.002-0.003c21.376-68.265,87.076-112.712,158.393-107.155
			S397.178,145.422,407.722,216.174z M74.056,84.585c4.683-29.946,19.425-50.275,43.85-60.438
			c22.348-9.463,47.578-9.461,69.925,0.004c20.492,9.857,37.574,25.609,49.055,45.237c-8.958,1.035-17.82,2.785-26.499,5.234
			c-0.987-2.271-2.114-4.48-3.373-6.612c-11.838-16.822-30.779-27.238-51.325-28.225c-16.272-1.952-32.468,4.187-43.358,16.433
			c-3.735,4.743-6.673,10.063-8.7,15.75c-1.775,4.704-3.167,9.462-4.517,14.067c-1.258,4.308-2.517,8.625-4.1,12.813
			C84.452,125.148,70.592,150,53.767,172.808c-7.476-2.694-14.799-5.794-21.936-9.286C49.431,154.581,66.406,132.702,74.056,84.585z
			 M70.947,177.973c16.273-22.638,29.717-47.181,40.033-73.083c1.775-4.704,3.167-9.463,4.517-14.067
			c1.258-4.308,2.517-8.625,4.108-12.838c1.371-3.932,3.363-7.619,5.9-10.921c7.505-7.801,18.251-11.602,28.992-10.254
			c14.982,0.735,28.868,8.073,37.917,20.037c0.631,1.071,1.119,2.142,1.631,3.214c-45.876,18.014-81.768,54.916-98.504,101.274
			C87.247,181.096,79.001,179.969,70.947,177.973z M91.664,336.885c-7.033,2.283-15.933-9.117-24.225-31.192
			c-6.442-17.167-12.292-35.129-7.075-49.512c1.583-4.354,3.817-4.733,4.883-4.733l0.35,0.009
			c7.607,1.417,14.532,5.312,19.692,11.079c0.289,24.551,3.322,48.993,9.042,72.871C93.532,336.047,92.631,336.547,91.664,336.885z
			 M279.731,489.827c-7.436,3.372-15.51,5.107-23.675,5.087h-0.117c-8.165,0.02-16.239-1.715-23.675-5.087
			C96.847,428.393,102.322,260.998,102.389,259.314c0.003-0.062-0.031-0.117-0.03-0.178c0.002-0.067,0.038-0.122,0.038-0.189
			v-20.033c0-0.246,0.036-0.483,0.037-0.729c4.55,0.416,10.299,0.763,16.838,0.763c18.7,0.25,37.275-3.097,54.711-9.859
			c17.468,8.738,38.934,22.259,49.03,39.701c1.527,2.638,4.346,4.26,7.394,4.257c3.048-0.004,5.863-1.634,7.383-4.275
			c1.521-2.642,1.517-5.894-0.011-8.532c-11.505-17.268-27.225-31.316-45.674-40.812c16.51-11.388,28.437-28.272,33.654-47.638
			c15.852,29.399,43.02,51.051,75.215,59.944c-10.722,7.625-19.817,17.31-26.753,28.49c-2.37,4.073-0.99,9.296,3.083,11.667
			s9.296,0.99,11.667-3.083c8.951-13.386,21.022-24.397,35.172-32.084c9.883,1.441,19.858,2.165,29.845,2.167
			c18.576-0.174,37.096-2.078,55.319-5.69c0.071,1.913,0.29,3.787,0.29,5.715v20.033c0,0.067,0.037,0.123,0.039,0.19
			c0.002,0.063-0.033,0.118-0.03,0.181C409.681,261.002,415.381,428.289,279.731,489.827z M446.389,251.456
			c0.892-0.029,3.467-0.167,5.233,4.721c5.225,14.387-0.625,32.35-7.067,49.513c-8.275,22.075-17.008,33.471-24.233,31.192
			c-0.964-0.335-1.864-0.834-2.658-1.475c5.72-23.877,8.753-48.319,9.042-72.871C431.864,256.77,438.785,252.875,446.389,251.456z
			 M317.949,80.061c0.499-1.043,0.986-2.117,1.531-3.043c9.036-12.055,22.969-19.462,38.017-20.208
			c10.699-1.339,21.406,2.423,28.917,10.158c2.576,3.335,4.596,7.063,5.983,11.041c1.583,4.188,2.842,8.504,4.1,12.813
			c1.35,4.604,2.742,9.363,4.517,14.067c10.317,25.904,23.762,50.449,40.037,73.089c-8.056,1.991-16.302,3.116-24.598,3.354
			C399.717,134.976,363.824,98.075,317.949,80.061z M458.236,172.82c-16.829-22.811-30.692-47.668-41.255-73.973
			c-1.583-4.188-2.842-8.504-4.1-12.813c-1.35-4.604-2.742-9.363-4.508-14.042c-2.044-5.733-5.011-11.094-8.783-15.871
			c-10.898-12.182-27.054-18.281-43.283-16.337c-20.611,1.001-39.599,11.485-51.425,28.396c-1.219,2.079-2.311,4.231-3.268,6.443
			c-8.681-2.449-17.544-4.2-26.505-5.235c11.477-19.624,28.553-35.373,49.039-45.229c22.362-9.477,47.613-9.477,69.975,0
			c24.392,10.15,39.133,30.479,43.825,60.442c7.642,48.125,24.625,69.996,42.233,78.929
			C473.042,167.027,465.716,170.128,458.236,172.82z"/>
		<path d="M332.507,416.017c-0.012-0.05,0.004-0.098-0.01-0.148c-0.052-0.19-0.191-0.323-0.255-0.506
			c-0.255-0.759-0.617-1.477-1.076-2.132c-0.468-0.545-0.935-1.091-1.402-1.636c-5.458-4.613-33.608-27.612-51.008-27.612
			c-8.023-0.116-15.915,2.047-22.758,6.238c-6.843-4.19-14.735-6.354-22.758-6.238c-17.4,0-45.55,23-51.008,27.612
			c-0.468,0.547-0.937,1.094-1.406,1.64c-0.457,0.654-0.817,1.37-1.071,2.126c-0.064,0.184-0.204,0.318-0.256,0.509
			c-0.014,0.05,0.003,0.098-0.01,0.148c-0.256,1.003-0.327,2.045-0.207,3.074c0.057,0.278,0.129,0.553,0.215,0.823
			c0.087,0.569,0.233,1.128,0.435,1.667c1.025,2.296,25.592,56.267,76.067,56.267s75.042-53.971,76.067-56.267
			c0.202-0.539,0.348-1.098,0.435-1.667c0.086-0.27,0.158-0.545,0.215-0.823C332.834,418.062,332.764,417.02,332.507,416.017z
			 M249.622,406.714c1.66,1.748,3.965,2.738,6.375,2.738c2.41,0,4.715-0.99,6.375-2.738c4.539-3.908,10.4-5.935,16.383-5.667
			c9.384,2.298,18.145,6.638,25.659,12.71c-32.045,5.527-64.8,5.527-96.845-0.002c7.516-6.076,16.281-10.416,25.67-12.709
			C239.224,400.772,245.087,402.8,249.622,406.714z M255.997,460.781c-23.815,0-40.865-16.755-50.677-30.077
			c33.543,5.973,67.878,5.969,101.42-0.01C296.972,444.014,279.949,460.781,255.997,460.781z"/>
		<path d="M204.797,307.181v-8.533h8.533c4.713,0,8.533-3.821,8.533-8.533c0-4.713-3.821-8.533-8.533-8.533h-68.267
			c-4.713,0-8.533,3.821-8.533,8.533c0,4.713,3.821,8.533,8.533,8.533h8.533v8.533c0,14.138,11.462,25.6,25.6,25.6
			S204.797,321.319,204.797,307.181z M187.731,307.181c0,4.713-3.82,8.533-8.533,8.533s-8.533-3.82-8.533-8.533v-8.533h17.067
			V307.181z"/>
		<path d="M366.931,281.581h-68.267c-4.713,0-8.533,3.821-8.533,8.533c0,4.713,3.82,8.533,8.533,8.533h8.533v8.533
			c0,14.138,11.462,25.6,25.6,25.6c14.138,0,25.6-11.462,25.6-25.6v-8.533h8.533c4.713,0,8.533-3.821,8.533-8.533
			C375.464,285.401,371.644,281.581,366.931,281.581z M341.331,307.181c0,4.713-3.821,8.533-8.533,8.533
			c-4.713,0-8.533-3.82-8.533-8.533v-8.533h17.067V307.181z"/>
	</g>
</g>
<g>
</g>
<g>
</g>
<g>
</g>
<g>
</g>
<g>
</g>
<g>
</g>
<g>
</g>
<g>
</g>
<g>
</g>
<g>
</g>
<g>
</g>
<g>
</g>
<g>
</g>
<g>
</g>
<g>
</g>
</svg>
