<?xml version="1.0" encoding="iso-8859-1"?>
<!-- Generator: Adobe Illustrator 19.0.0, SVG Export Plug-In . SVG Version: 6.00 Build 0)  -->
<svg version="1.1" id="Capa_1" xmlns="http://www.w3.org/2000/svg" xmlns:xlink="http://www.w3.org/1999/xlink" x="0px" y="0px"
	 viewBox="0 0 512.004 512.004" style="enable-background:new 0 0 512.004 512.004;" xml:space="preserve">
<g transform="translate(0 -1)">
	<g transform="translate(1 2)">
		<g>
			<path style="fill:#9D27B0;" d="M164.719,12.487C117.701-10.724,42.607,58.226,7.535,9.842
				c2.887,19.964,9.486,39.211,19.456,56.747c8.41,15.115,21.244,27.294,36.779,34.901c42.496,19.371,46.507-22.016,90.624,9.387
				l47.104-22.869l15.701-7.68C211.311,61.127,196.89,28.359,164.719,12.487z"/>
			<path style="fill:#9D27B0;" d="M345.285,12.487c-32.171,15.872-46.592,48.64-52.48,67.84l15.701,7.68l47.104,22.869
				c44.117-31.403,48.128,9.984,90.624-9.387c15.535-7.607,28.369-19.786,36.779-34.901c9.97-17.536,16.569-36.783,19.456-56.747
				C467.397,58.226,392.303-10.724,345.285,12.487z"/>
		</g>
		<g>
			<path style="fill:#6A1B9A;" d="M164.719,54.215C125.125,34.674,65.733,80.412,26.991,66.588
				c8.41,15.115,21.244,27.294,36.779,34.901c42.496,19.371,46.507-22.016,90.624,9.387l47.104-22.869
				C192.537,73.61,179.822,61.928,164.719,54.215z"/>
			<path style="fill:#6A1B9A;" d="M345.285,54.215c-15.103,7.713-27.818,19.395-36.779,33.792l47.104,22.869
				c44.117-31.403,48.128,9.984,90.624-9.387c15.535-7.607,28.369-19.786,36.779-34.901
				C444.271,80.412,384.879,34.674,345.285,54.215z"/>
		</g>
		<g>
			<path style="fill:#BFB186;" d="M104.144,342.426l-1.365,0.341c-2.248,2.438-5.061,4.284-8.192,5.376
				c-18.005,5.717-30.037-23.723-34.731-36.267c-6.315-16.811-13.568-37.632-7.168-55.467c1.661-6.191,7.33-10.452,13.739-10.325
				c10.836,2.004,20.656,7.667,27.819,16.043C93.982,289.213,97.311,316.214,104.144,342.426z"/>
			<path style="fill:#BFB186;" d="M450.149,311.876c-4.694,12.544-16.725,41.984-34.731,36.267
				c-3.131-1.092-5.944-2.938-8.192-5.376l-1.365-0.341c6.833-26.211,10.161-53.213,9.899-80.299
				c7.162-8.375,16.982-14.038,27.819-16.043c6.409-0.126,12.078,4.134,13.739,10.325
				C463.716,274.244,456.463,295.065,450.149,311.876z"/>
		</g>
		<path style="fill:#6A1B9A;" d="M416.367,221.98c-31.124,7.607-63.402,9.286-95.147,4.949
			c-89.941-14.848-100.352-91.392-100.352-91.392c0,47.531-21.845,71.509-47.531,83.2c-34.475,15.872-75.861,9.557-80.128,8.875
			c0.731-11.285,2.618-22.466,5.632-33.365c9.237-32.964,28.686-62.152,55.552-83.371l57.515-27.989l5.291-2.56
			c24.841-6.03,50.764-6.03,75.605,0l62.805,30.549C390.072,138.156,411.995,178.246,416.367,221.98z"/>
		<path style="fill:#9D27B0;" d="M409.626,189.212c-29.014,6.494-58.961,7.708-88.405,3.584
			c-89.941-14.848-100.352-91.392-100.352-91.392c0.13,11.069-1.307,22.101-4.267,32.768c-5.897,22.57-21.853,41.171-43.264,50.432
			c-23.604,9.511-49.248,12.83-74.496,9.643c9.237-32.964,28.686-62.152,55.552-83.371l57.515-27.989l5.291-2.56
			c24.841-6.03,50.764-6.03,75.605,0l62.805,30.549C381.057,130.987,399.876,158.278,409.626,189.212z"/>
		<path style="fill:#BFB186;" d="M407.237,338.29c-13.824,54.443-46.848,122.88-125.013,158.293
			c-8.549,3.885-17.831,5.893-27.221,5.888h-1.365c-8.932-0.164-17.734-2.169-25.856-5.888
			C149.615,461.17,116.591,392.732,102.767,338.29c-6.833-26.211-10.161-53.213-9.899-80.299v-20.309
			c0-3.413,0.085-6.741,0.341-10.069c14.273,2.082,28.75,2.369,43.093,0.853c12.785-1.246,25.288-4.53,37.035-9.728
			c13.893-6.064,25.659-16.136,33.792-28.928c9.695-16.397,14.464-35.238,13.739-54.272c0,0,10.411,76.544,100.352,91.392
			c31.745,4.337,64.023,2.658,95.147-4.949c0.512,5.205,0.768,10.581,0.768,15.957v20.053
			C417.398,285.077,414.07,312.078,407.237,338.29z"/>
		<path style="fill:#FFE0B2;" d="M373.018,346.823c-13.483,53.077-45.227,119.552-119.381,155.648
			c-8.932-0.164-17.734-2.169-25.856-5.888C149.615,461.17,116.591,392.732,102.767,338.29
			c-6.833-26.211-10.161-53.213-9.899-80.299v-20.309c14.909-0.479,29.615-3.599,43.435-9.216
			c12.785-1.246,25.288-4.53,37.035-9.728c13.893-6.064,25.659-16.136,33.792-28.928c19.457,25.275,48.219,41.715,79.872,45.653
			c31.745,4.337,64.023,2.658,95.147-4.949c0.512,5.205,0.768,10.581,0.768,15.957v20.053
			C383.18,293.61,379.851,320.612,373.018,346.823z"/>
		<g>
			<path style="fill:#2296F3;" d="M209.861,303.815c1.65,3.404,2.496,7.14,2.475,10.923c0,14.138-11.462,25.6-25.6,25.6
				c-14.139,0-25.6-11.462-25.6-25.6c-0.012-7.486,3.264-14.599,8.96-19.456"/>
			<path style="fill:#2296F3;" d="M340.087,295.282c8.145,6.967,11.088,18.27,7.374,28.324
				c-3.713,10.054-13.296,16.731-24.014,16.732c-14.095-0.105-25.495-11.505-25.6-25.6c-0.022-3.782,0.825-7.519,2.475-10.923"/>
		</g>
	</g>
	<g>
		<path d="M224.369,365.437c8.748,7.583,20.066,11.531,31.633,11.034c11.567,0.498,22.885-3.45,31.633-11.034
			c3.277-3.287,3.298-8.6,0.046-11.913c-3.271-3.337-8.609-3.448-12.017-0.25c-5.607,4.336-12.585,6.511-19.662,6.129
			c-7.031,0.373-13.967-1.765-19.567-6.033c-3.341-3.281-8.701-3.256-12.012,0.054C221.113,356.736,221.088,362.097,224.369,365.437
			z"/>
		<path d="M307.202,410.604h-102.4c-4.713,0-8.533,3.821-8.533,8.533s3.821,8.533,8.533,8.533h102.4c4.713,0,8.533-3.82,8.533-8.533
			S311.915,410.604,307.202,410.604z"/>
		<path d="M264.535,444.738h-17.067c-4.713,0-8.533,3.82-8.533,8.533s3.821,8.533,8.533,8.533h17.067
			c4.713,0,8.533-3.82,8.533-8.533S269.248,444.738,264.535,444.738z"/>
		<path d="M221.869,316.738v-0.001l0.009,0.001c4.364-0.004,8.021-3.3,8.479-7.639c0.457-4.34-2.433-8.326-6.7-9.239l-26.282-5.619
			l-0.06-0.023c-10.47-1.719-18.144-10.782-18.113-21.392c-0.002-4.713-3.825-8.531-8.538-8.529
			c-4.713,0.002-8.531,3.825-8.529,8.538c0.016,4.967,0.987,9.884,2.861,14.484l-1.815-0.388
			c-10.469-1.719-18.143-10.782-18.113-21.392c-0.002-4.713-3.825-8.531-8.538-8.529c-4.713,0.002-8.531,3.825-8.529,8.538
			c-0.042,17.482,11.713,32.792,28.613,37.265c-5.688,12.703-3.089,27.587,6.566,37.61c9.655,10.024,24.432,13.177,37.338,7.969
			C213.426,343.182,221.875,330.655,221.869,316.738z M187.735,333.804c-9.422-0.009-17.057-7.645-17.067-17.067
			c-0.013-3.619,1.143-7.146,3.296-10.055l30.453,6.516c0.251,1.163,0.38,2.349,0.384,3.539
			C204.693,326.118,197.115,333.695,187.735,333.804z"/>
		<path d="M375.648,257.008c-4.714,0.002-8.533,3.824-8.533,8.538c-0.017,10.739-7.876,19.855-18.496,21.454l-1.428,0.306
			c1.872-4.599,2.842-9.516,2.857-14.481c-0.002-4.713-3.825-8.531-8.538-8.529c-4.713,0.002-8.531,3.825-8.529,8.538
			c0.028,10.607-7.646,19.666-18.113,21.383l-0.031,0.011l-26.311,5.63c-4.268,0.913-7.159,4.899-6.702,9.24
			c0.457,4.341,4.116,7.636,8.481,7.64l0.009-0.001v0.001c-0.036,13.945,8.415,26.51,21.344,31.735
			c12.93,5.225,27.737,2.059,37.4-7.996s12.237-24.977,6.502-37.689c16.886-4.486,28.636-19.779,28.62-37.251
			c0-2.263-0.9-4.433-2.5-6.032C380.081,257.906,377.911,257.008,375.648,257.008z M324.448,333.804
			c-9.38-0.109-16.957-7.687-17.067-17.067c0.004-1.191,0.132-2.378,0.383-3.541l30.448-6.521c2.157,2.91,3.316,6.44,3.302,10.063
			C341.505,326.159,333.87,333.795,324.448,333.804z"/>
		<path d="M61.231,111.254c15.068,7.666,32.775,8.192,48.271,1.434c10.094-4.967,22.024-4.445,31.645,1.385
			c-32.335,29.414-52.102,70.149-55.198,113.751c-0.034,0.157-0.138,0.278-0.164,0.439c-0.029,0.519-0.008,1.04,0.063,1.556
			c-0.199,3.366-0.513,6.703-0.513,10.119v2.13c-5.607-3.791-12.096-6.075-18.842-6.63c-10.156-0.359-19.271,6.195-22.163,15.937
			c-7.208,19.85-0.429,41.183,7.129,61.333c12.417,33.108,27.633,47.037,45.354,41.471c0.683-0.217,1.358-0.467,2.033-0.75
			c16.029,54.391,50.871,118.708,126.375,152.963c9.658,4.351,20.128,6.604,30.721,6.612h0.067l0.024-0.005l0.026,0.005
			c10.593-0.008,21.063-2.262,30.721-6.612c75.508-34.254,110.346-98.571,126.379-152.963c0.662,0.282,1.338,0.531,2.025,0.746
			c17.683,5.621,32.925-8.346,45.358-41.467c7.558-20.146,14.333-41.479,7.125-61.338c-2.875-9.756-12.004-16.317-22.167-15.933
			c-6.743,0.556-13.229,2.839-18.833,6.629v-2.129c-0.029-47.947-20.297-93.654-55.813-125.866
			c9.62-5.834,21.553-6.356,31.646-1.384c15.499,6.755,33.206,6.227,48.275-1.438c51.817-23.65,60.809-95.371,61.167-98.412
			c0.453-3.857-1.755-7.533-5.373-8.944c-3.617-1.412-7.732-0.203-10.011,2.94c-14.908,20.579-38.208,15.496-74.783,4.662
			c-27.254-8.075-55.458-16.421-79.267-4.662c-25.829,14.113-45.279,37.576-54.358,65.574c-21.229-4.182-43.071-4.182-64.3,0
			c-9.078-27.997-28.527-51.458-54.354-65.57c-23.812-11.762-52.008-3.417-79.275,4.658C53.64,22.329,30.36,27.413,15.444,6.833
			C13.165,3.689,9.05,2.479,5.432,3.891s-5.826,5.089-5.372,8.946C0.419,15.879,9.41,87.601,61.231,111.254z M91.665,337.909
			c-7.058,2.283-15.942-9.112-24.225-31.192c-6.437-17.167-12.292-35.134-7.067-49.513c1.579-4.354,3.808-4.733,4.883-4.733
			l0.346,0.009c7.606,1.417,14.529,5.313,19.688,11.079c0.296,24.55,3.33,48.99,9.046,72.867
			C93.536,337.069,92.633,337.57,91.665,337.909z M279.731,490.85c-7.442,3.35-15.51,5.084-23.671,5.087h-0.117
			c-8.161-0.003-16.229-1.737-23.671-5.087c-135.421-61.433-129.95-228.829-129.879-230.512c0.003-0.062-0.031-0.117-0.03-0.178
			c0.002-0.067,0.038-0.122,0.038-0.189v-20.033c0-0.246,0.036-0.484,0.037-0.73c4.55,0.416,10.3,0.763,16.838,0.763
			c18.702,0.249,37.277-3.098,54.716-9.858c17.471,8.746,38.933,22.266,49.021,39.7c1.527,2.639,4.347,4.263,7.396,4.26
			s5.865-1.633,7.387-4.275c1.522-2.642,1.519-5.896-0.009-8.535c-11.507-17.267-27.228-31.314-45.678-40.811
			c16.51-11.39,28.437-28.275,33.654-47.643c15.851,29.4,43.02,51.053,75.215,59.946c-10.724,7.623-19.819,17.309-26.753,28.491
			c-2.37,4.073-0.99,9.296,3.083,11.667c4.073,2.37,9.296,0.99,11.667-3.083c8.949-13.388,21.02-24.399,35.171-32.084
			c9.884,1.443,19.86,2.167,29.85,2.167c18.575-0.174,37.093-2.078,55.315-5.689c0.071,1.913,0.29,3.786,0.29,5.715v20.033
			c0,0.067,0.036,0.122,0.038,0.189c0.001,0.061-0.032,0.117-0.03,0.178C409.677,262.021,415.152,429.417,279.731,490.85z
			 M446.394,252.479c0.9-0.029,3.467-0.167,5.233,4.721c5.225,14.387-0.625,32.35-7.067,49.513
			c-8.275,22.075-17,33.471-24.233,31.192c-0.964-0.335-1.864-0.834-2.658-1.475c5.72-23.877,8.753-48.319,9.042-72.871
			C431.869,257.794,438.79,253.898,446.394,252.479z M407.728,217.197c-27.628,6.025-56.101,7.146-84.117,3.311
			c-82.333-13.587-92.879-81.271-93.288-84.121c-0.097-0.361-0.22-0.714-0.367-1.057c-0.501-2.185-1.932-4.041-3.917-5.082
			c-0.927-0.606-1.996-0.961-3.102-1.028c-0.351-0.096-0.708-0.168-1.068-0.216c-0.202,0-0.371,0.102-0.569,0.115
			c-0.198,0.014-0.38-0.064-0.581-0.036c-0.36,0.097-0.713,0.22-1.056,0.366c-3.33,0.766-5.792,3.583-6.105,6.985
			c-0.1,0.362-0.175,0.731-0.223,1.103c0,37.208-14.308,62.587-42.562,75.45c-21.317,8.56-44.424,11.704-67.253,9.152
			c8.851-76.46,72.978-134.532,149.938-135.782C330.418,85.107,396.397,141.065,407.728,217.197L407.728,217.197z M350.065,22.138
			c17.825-8.792,42.758-1.417,66.871,5.725c24.392,7.221,51.191,15.175,72.842,5.908c-6.317,20.758-19.608,49.867-46.083,61.95
			c-11.074,5.829-24.236,6.143-35.575,0.85c-16.905-7.647-36.647-5.37-51.366,5.926c-15.677-11.582-33.23-20.382-51.891-26.013
			C312.593,53.347,328.724,33.954,350.065,22.138z M95.069,27.863c24.112-7.146,49.042-14.517,66.875-5.721
			c21.34,11.815,37.469,31.207,45.199,54.342c-18.661,5.631-36.214,14.43-51.892,26.013c-14.72-11.294-34.461-13.571-51.366-5.926
			c-11.341,5.286-24.499,4.973-35.575-0.846c-26.475-12.083-39.763-41.196-46.088-61.95C43.89,43.029,70.677,35.083,95.069,27.863
			L95.069,27.863z"/>
	</g>
</g>
<g>
</g>
<g>
</g>
<g>
</g>
<g>
</g>
<g>
</g>
<g>
</g>
<g>
</g>
<g>
</g>
<g>
</g>
<g>
</g>
<g>
</g>
<g>
</g>
<g>
</g>
<g>
</g>
<g>
</g>
</svg>
