<?xml version="1.0" encoding="iso-8859-1"?>
<!-- Generator: Adobe Illustrator 19.0.0, SVG Export Plug-In . SVG Version: 6.00 Build 0)  -->
<svg version="1.1" id="Capa_1" xmlns="http://www.w3.org/2000/svg" xmlns:xlink="http://www.w3.org/1999/xlink" x="0px" y="0px"
	 viewBox="0 0 512 512" style="enable-background:new 0 0 512 512;" xml:space="preserve">
<g>
	<g transform="translate(1 1)">
		<path style="fill:#558B30;" d="M174.685,463.725c-15.491,22.279-40.116,36.484-67.158,38.741
			c20.48-28.416-9.899-47.445-39.339-75.861c-22.016-21.163-0.341-63.317,12.117-83.541c3.476,1.812,7.536,2.151,11.264,0.939
			c3.131-1.092,5.944-2.938,8.192-5.376l1.707,0.768C112.618,387.337,138.167,430.722,174.685,463.725z"/>
		<g>
			<path style="fill:#BFB186;" d="M101.4,339.395l-1.707-0.768c-2.248,2.438-5.061,4.284-8.192,5.376
				c-3.728,1.212-7.788,0.874-11.264-0.939c-11.861-5.803-19.797-25.6-23.467-35.328c-6.315-16.811-13.568-37.632-7.168-55.467
				c1.661-6.191,7.33-10.452,13.739-10.325c10.836,2.004,20.656,7.667,27.819,16.043c-0.263,27.086,3.066,54.087,9.899,80.299
				C101.133,338.666,101.248,339.038,101.4,339.395z"/>
			<path style="fill:#BFB186;" d="M452.888,307.736c-4.693,12.544-16.725,41.984-34.731,36.267
				c-3.131-1.092-5.944-2.938-8.192-5.376l-1.365-0.341c6.833-26.211,10.161-53.213,9.899-80.299
				c7.162-8.375,16.982-14.038,27.819-16.043c6.409-0.126,12.078,4.134,13.739,10.325
				C466.456,270.104,459.203,290.925,452.888,307.736z"/>
			<path style="fill:#BFB186;" d="M407.235,338.285c-13.824,54.443-46.848,122.88-125.013,158.293
				c-8.549,3.885-17.831,5.893-27.221,5.888c-5.766,0.001-11.507-0.774-17.067-2.304c-3.493-0.862-6.894-2.062-10.155-3.584
				c-18.676-8.357-36.016-19.428-51.456-32.853c-36.518-33.004-62.066-76.388-73.216-124.331c-0.152-0.357-0.267-0.729-0.341-1.109
				c-6.833-26.211-10.161-53.213-9.899-80.299v-20.053c0-2.987,0.085-5.888,0.256-8.789c0-0.512,0.085-1.024,0.085-1.536
				c0.939,0.171,3.584,0.597,7.595,0.939c16.299,1.621,54.528,2.901,83.456-15.701c10.027-6.37,18.369-15.063,24.32-25.344
				c8.666-15.914,12.909-33.859,12.288-51.968c0,0,11.52,92.587,115.285,101.632c15.587,1.227,31.259,0.826,46.763-1.195
				c11.448-1.531,22.812-3.639,34.048-6.315c0.085,2.731,0.171,5.547,0.171,8.277v20.053
				C417.396,285.073,414.068,312.074,407.235,338.285z"/>
		</g>
		<path style="fill:#FFE0B2;" d="M373.016,338.285c-13.824,54.443-46.848,122.88-125.013,158.293
			c-3.246,1.484-6.615,2.684-10.069,3.584c-3.493-0.862-6.894-2.062-10.155-3.584c-18.676-8.357-36.016-19.428-51.456-32.853
			c-36.518-33.004-62.066-76.388-73.216-124.331c-0.152-0.357-0.267-0.729-0.341-1.109c-6.833-26.211-10.161-53.213-9.899-80.299
			v-20.053c0-2.987,0.085-5.888,0.256-8.789c2.475-0.085,5.035-0.341,7.68-0.597c17.421-1.276,34.294-6.656,49.237-15.701
			c20.651-13.312,36.608-36.693,36.608-77.312c3.242,18.771,10.745,36.549,21.931,51.968
			c19.883,27.733,57.429,55.125,127.573,49.664c15.706-1.255,31.287-3.766,46.592-7.509c0.085,2.048,0.171,4.181,0.171,6.315v22.016
			C383.177,285.073,379.849,312.074,373.016,338.285z"/>
		<path style="fill:#558B30;" d="M369.603,127.597c-11.253-11.741-24.23-21.698-38.485-29.525c0.448-3.624,0.676-7.271,0.683-10.923
			c0.753-43.184-33.617-78.814-76.8-79.616c-18.132-0.011-35.643,6.605-49.237,18.603c-17.628,15.359-27.69,37.634-27.563,61.013
			c0.007,3.651,0.235,7.299,0.683,10.923C128.65,126.308,96.333,178.26,93.208,235.8c20.831,3.195,42.089,2.238,62.549-2.816
			c10.127-2.581,19.758-6.82,28.501-12.544c7.185-4.753,13.505-10.698,18.688-17.579c12.729-18.293,19.031-40.291,17.92-62.549
			c0,0,14.763,122.624,160.768,104.277c11.895-1.531,23.691-3.754,35.328-6.656C415.052,196.635,398.224,157.431,369.603,127.597z"
			/>
		<path style="fill:#8BC34A;" d="M381.635,244.589c-146.005,18.347-160.768-104.277-160.768-104.277
			c1.111,22.258-5.191,44.256-17.92,62.549c-5.183,6.881-11.503,12.826-18.688,17.579c-8.744,5.724-18.374,9.963-28.501,12.544
			c-20.46,5.054-41.718,6.011-62.549,2.816c3.125-57.54,35.442-109.492,85.675-137.728c-0.448-3.624-0.676-7.271-0.683-10.923
			c-0.128-23.379,9.935-45.655,27.563-61.013c4.853-1.03,9.801-1.545,14.763-1.536c43.183,0.802,77.553,36.432,76.8,79.616
			c-0.007,3.651-0.235,7.299-0.683,10.923c14.255,7.828,27.233,17.784,38.485,29.525
			C361.283,171.893,377.643,207.045,381.635,244.589z"/>
		<g>
			<path style="fill:#6A1B9A;" d="M219.843,272.067H92.867c7.312,2.961,13.999,7.274,19.712,12.715
				c0.688,0.56,1.317,1.189,1.877,1.877c6.599,6.62,11.515,14.726,14.336,23.637c0.085,0.085,0.085,0.085,0.085,0.171l3.84,16.64
				c2.684,12.418,13.498,21.401,26.198,21.76h41.216c11.548-0.249,21.693-7.729,25.344-18.688l11.264-32.171
				c2.232-5.72,1.568-12.166-1.783-17.311S225.977,272.338,219.843,272.067z"/>
			<path style="fill:#6A1B9A;" d="M391.533,272.067H290.157c-6.134,0.271-11.761,3.485-15.113,8.63
				c-3.351,5.145-4.015,11.591-1.783,17.311l11.264,32.171c3.651,10.959,13.796,18.439,25.344,18.688h41.216
				c12.7-0.359,23.514-9.342,26.197-21.76l3.84-16.64c0-0.085,0-0.085,0.085-0.171c5.889-17.335,18.989-31.276,35.925-38.229
				H391.533z"/>
		</g>
		<g>
			<path style="fill:#9D27B0;" d="M211.139,298.008l-11.264,32.171c-3.651,10.959-13.796,18.439-25.344,18.688h-15.616
				c-12.7-0.359-23.514-9.342-26.197-21.76l-3.84-16.64c0-0.085,0-0.085-0.085-0.171c-2.821-8.912-7.737-17.017-14.336-23.637
				c-0.56-0.688-1.189-1.317-1.877-1.877c-5.713-5.44-12.4-9.754-19.712-12.715h101.376c6.134,0.271,11.761,3.485,15.113,8.63
				C212.707,285.842,213.371,292.288,211.139,298.008z"/>
			<path style="fill:#9D27B0;" d="M391.533,272.067c-7.325,2.973-14.016,7.318-19.712,12.8c-0.667,0.553-1.294,1.152-1.877,1.792
				c-6.617,6.606-11.536,14.716-14.336,23.637c-0.085,0.085-0.085,0.085-0.085,0.171l-3.84,16.64
				c-2.684,12.418-13.498,21.401-26.197,21.76h-15.616c-11.548-0.249-21.693-7.729-25.344-18.688l-11.264-32.171
				c-2.232-5.72-1.568-12.166,1.783-17.311c3.351-5.145,8.978-8.359,15.113-8.63H391.533z"/>
		</g>
		<path style="fill:#E91E63;" d="M255,468.333c24.342-0.759,46.721-13.547,59.733-34.133c0,0-26.548-17.067-39.822-17.067
			c-7.085-0.373-14.092,1.629-19.911,5.689c-5.819-4.06-12.826-6.062-19.911-5.689c-13.274,0-39.822,17.067-39.822,17.067
			C208.279,454.786,230.658,467.575,255,468.333z"/>
	</g>
	<g>
		<path d="M71.653,346.398c-22.371,39.094-24.839,69.96-6.753,87.348c4.629,4.467,9.283,8.708,13.762,12.791
			c27.167,24.754,36.325,35.646,24.583,51.942c-1.873,2.598-2.134,6.026-0.674,8.877c1.459,2.851,4.392,4.644,7.595,4.644
			c26.655-1.894,51.366-14.641,68.362-35.262c14.302,11.468,29.989,21.094,46.692,28.65c9.658,4.351,20.128,6.604,30.721,6.612
			h0.117c10.592-0.008,21.063-2.262,30.721-6.612c75.504-34.254,110.346-98.571,126.375-152.963
			c0.671,0.283,1.346,0.532,2.025,0.746c17.671,5.587,32.938-8.346,45.358-41.467c7.563-20.15,14.342-41.483,7.133-61.338
			c-2.903-9.738-12.016-16.287-22.171-15.933c-6.743,0.556-13.229,2.839-18.833,6.629v-2.129c0-2.272-0.242-4.501-0.329-6.758
			c0.219-1.159,0.194-2.351-0.075-3.5c-0.02-0.086-0.084-0.147-0.107-0.232c-2.366-41.554-19.992-80.771-49.497-110.127
			c-10.615-10.648-22.624-19.808-35.698-27.232c0.123-1.907,0.373-3.878,0.373-5.751C341.333,38.205,303.128,0,256,0
			s-85.333,38.205-85.333,85.333c0,1.889,0.251,3.874,0.376,5.797c-49.147,28.283-81.036,79.132-85.096,135.691
			c-0.034,0.156-0.138,0.277-0.164,0.436c-0.029,0.519-0.008,1.04,0.063,1.555c-0.199,3.367-0.513,6.704-0.513,10.12v2.13
			c-5.607-3.791-12.096-6.075-18.842-6.63c-10.155-0.353-19.266,6.198-22.163,15.937c-7.208,19.85-0.429,41.183,7.129,61.333
			C55.576,324.605,62.469,336.447,71.653,346.398z M124.7,492.388c4.975-22.458-15.054-40.708-34.542-58.467
			c-4.362-3.975-8.896-8.104-13.421-12.467c-16.077-15.457-0.346-49.089,10.23-67.447c3.304,0.424,6.659,0.14,9.845-0.831
			c0.683-0.217,1.358-0.467,2.033-0.75c11.826,42.961,34.852,82.01,66.724,113.15C154.794,478.241,140.609,487.547,124.7,492.388z
			 M102.4,238.933c0-0.244,0.035-0.478,0.036-0.721c4.603,0.426,10.39,0.78,16.976,0.78c23.543,0.563,46.822-5.055,67.517-16.294
			c14.491,1.692,27.646,9.276,36.371,20.969c1.677,2.57,4.605,4.041,7.668,3.853c3.063-0.188,5.789-2.005,7.14-4.76
			c1.351-2.755,1.119-6.023-0.608-8.56c-8.121-11.732-19.902-20.441-33.499-24.765c9.867-9.905,17.128-22.098,21.135-35.493
			c11.131,23.819,29.654,43.409,52.813,55.856c-1.24,1.425-2.405,2.913-3.49,4.46c-2.574,3.944-1.467,9.227,2.473,11.806
			c3.94,2.579,9.225,1.48,11.81-2.456c1.561-2.295,3.363-4.416,5.377-6.327c19.118,7.016,39.361,10.466,59.723,10.177
			c18.752-0.205,37.434-2.318,55.758-6.308v17.837c0,0.064,0.034,0.116,0.036,0.179c0.001,0.057-0.03,0.109-0.028,0.167
			c0.007,0.167,0.063,2.029,0.033,5.2H291.146c-8.539,0.005-16.532,4.202-21.383,11.229c-2.019,2.959-3.454,6.278-4.226,9.776
			c-6.281-1.405-12.794-1.411-19.077-0.016c-0.773-3.493-2.206-6.805-4.222-9.76c-4.852-7.027-12.844-11.224-21.383-11.229H102.358
			c-0.03-3.171,0.026-5.033,0.033-5.2c0.003-0.062-0.031-0.117-0.03-0.178c0.002-0.067,0.038-0.122,0.038-0.189V238.933z
			 M282.355,296.377c-0.065-0.354-0.152-0.703-0.261-1.046c-0.947-3.308-0.362-6.867,1.594-9.698c1.67-2.491,4.46-4,7.458-4.033
			h99.308c-7.602,7.653-13.25,17.024-16.467,27.321c-0.029,0.094-0.003,0.188-0.029,0.282c-0.032,0.114-0.098,0.216-0.125,0.33
			l-0.012-0.004l-3.858,16.558c-1.713,8.611-9.114,14.919-17.888,15.246h-41.221c-7.922-0.263-14.823-5.477-17.242-13.025
			L282.355,296.377z M138.179,309.53l-0.012,0.004c-0.027-0.114-0.093-0.217-0.125-0.33c-0.026-0.094,0-0.188-0.029-0.282
			c-3.216-10.297-8.864-19.668-16.467-27.321h99.308c2.999,0.034,5.788,1.542,7.458,4.033c1.932,2.798,2.527,6.308,1.624,9.587
			c-0.118,0.37-0.211,0.748-0.278,1.13l-11.275,31.957c-2.415,7.549-9.316,12.763-17.237,13.025h-41.221
			c-8.756-0.32-16.15-6.605-17.875-15.196L138.179,309.53z M279.729,489.846c-7.442,3.35-15.51,5.084-23.671,5.087h-0.117
			c-8.161-0.003-16.229-1.737-23.671-5.087c-100.851-45.751-123.548-150.23-128.542-201.307c8.436,6.409,14.7,15.256,17.944,25.342
			l0.027,0.144l3.738,16.038c3.53,16.303,17.81,28.036,34.487,28.337h41.221c15.158-0.266,28.508-10.045,33.333-24.417
			l10.529-29.844c6.951-3.328,15.036-3.328,21.987,0.002l10.522,29.843c4.828,14.372,18.179,24.15,33.337,24.417h41.221
			c16.695-0.307,30.983-12.064,34.5-28.388l3.725-15.988l0.027-0.145c3.236-10.099,9.502-18.958,17.947-25.372
			C403.286,339.574,380.6,444.086,279.729,489.846z M446.392,251.475c0.858-0.029,3.458-0.183,5.238,4.721
			c5.225,14.383-0.629,32.35-7.071,49.517c-8.279,22.075-17.104,33.446-24.229,31.188c-0.965-0.337-1.866-0.838-2.662-1.479
			c4.689-19.802,7.593-39.985,8.676-60.306c0.312-1.139,0.38-2.331,0.199-3.498l-0.033-0.092c0.142-3.689,0.203-6.819,0.204-8.97
			C431.869,256.79,438.789,252.894,446.392,251.475z M256,85.333c4.713,0,8.533-3.82,8.533-8.533c0-4.713-3.82-8.533-8.533-8.533
			c-23.452-0.002-46.649,4.861-68.126,14.282c1.502-37.116,32.422-66.209,69.561-65.451s66.845,31.089,66.831,68.236
			c-0.006,3.153-0.212,6.302-0.617,9.429c-0.007,0.058,0.019,0.11,0.013,0.169c-0.031,0.667,0.019,1.336,0.148,1.991
			c0.014,0.445,0.062,0.889,0.144,1.327c0.197,0.504,0.442,0.989,0.731,1.446c0.211,0.503,0.469,0.984,0.772,1.438
			c0.311,0.317,0.646,0.61,1.002,0.876c0.463,0.481,0.983,0.905,1.547,1.263c0.051,0.028,0.079,0.08,0.131,0.107
			c13.449,7.092,25.737,16.194,36.442,26.992c25.223,25.017,40.891,58.075,44.284,93.438
			c-55.835,12.061-100.381,7.231-132.271-14.771c-24.347-17.629-40.924-43.997-46.258-73.579c-0.098-0.377-0.222-0.746-0.373-1.104
			c-0.126-0.552-0.308-1.09-0.543-1.606c-0.251-0.464-0.546-0.902-0.882-1.308c-0.593-0.895-1.408-1.621-2.365-2.107
			c-0.481-0.31-0.993-0.569-1.529-0.772c-0.515-0.157-1.045-0.264-1.58-0.319c-0.392-0.111-0.791-0.191-1.195-0.241
			c-0.189,0-0.347,0.095-0.532,0.107c-0.181,0.01-0.344-0.062-0.526-0.041c-0.377,0.096-0.746,0.22-1.104,0.37
			c-0.555,0.124-1.096,0.306-1.614,0.541c-0.474,0.256-0.922,0.558-1.337,0.902c-0.904,0.602-1.635,1.429-2.12,2.401
			c-0.291,0.456-0.536,0.94-0.732,1.445c-0.167,0.539-0.279,1.093-0.334,1.655c-0.106,0.378-0.184,0.764-0.233,1.154
			c0,32.554-11,56.154-32.688,70.133c-26.21,16.837-61.28,15.952-77.129,14.476C112.611,143.786,178.111,85.448,256,85.333z
			 M60.371,256.2c1.579-4.354,3.808-4.733,4.883-4.733l0.346,0.009c7.606,1.417,14.529,5.313,19.688,11.079
			c0.002,2.151,0.062,5.282,0.204,8.97l-0.033,0.092c-0.181,1.167-0.113,2.359,0.199,3.498c1.083,20.321,3.987,40.504,8.676,60.306
			c-0.799,0.643-1.703,1.145-2.671,1.483c-7.046,2.283-15.942-9.112-24.225-31.192C61,288.546,55.146,270.579,60.371,256.2z"/>
		<path d="M256,395.217c11.567,0.498,22.885-3.45,31.633-11.034c3.277-3.287,3.298-8.6,0.046-11.913
			c-3.271-3.339-8.61-3.45-12.017-0.25c-5.607,4.336-12.585,6.511-19.662,6.129c-7.031,0.373-13.967-1.765-19.567-6.033
			c-2.15-2.184-5.305-3.047-8.267-2.261c-2.962,0.785-5.275,3.099-6.06,6.061c-0.785,2.962,0.078,6.117,2.261,8.267
			C233.115,391.767,244.433,395.714,256,395.217z"/>
		<path d="M320.346,428.021c-4.783-3.075-29.417-18.421-44.433-18.421c-6.876-0.106-13.687,1.358-19.913,4.279
			c-6.226-2.921-13.036-4.385-19.913-4.279c-15.017,0-39.65,15.346-44.433,18.421c-3.846,2.47-5.062,7.532-2.758,11.479
			c14.495,23.258,39.708,37.673,67.104,38.367c27.396-0.693,52.609-15.109,67.104-38.367
			C325.408,435.552,324.192,430.491,320.346,428.021z M256,460.8c-18.424-0.296-35.767-8.749-47.35-23.079
			c8.376-5.364,17.682-9.113,27.437-11.054c5.044-0.28,10.054,0.988,14.358,3.633c3.174,2.607,7.732,2.657,10.963,0.121
			c4.324-2.736,9.396-4.048,14.504-3.754c9.745,1.936,19.041,5.68,27.408,11.038C291.718,451.996,274.405,460.446,256,460.8z"/>
		<path d="M198.767,313.233c2.149,2.188,5.307,3.055,8.271,2.27s5.28-3.1,6.065-6.065c0.785-2.965-0.082-6.122-2.27-8.271
			l-8.533-8.533c-3.341-3.281-8.701-3.256-12.012,0.054c-3.311,3.311-3.335,8.671-0.054,12.012L198.767,313.233z"/>
		<path d="M173.167,330.3c2.149,2.188,5.307,3.055,8.271,2.27c2.965-0.785,5.28-3.1,6.065-6.065c0.785-2.965-0.082-6.122-2.27-8.271
			l-25.6-25.6c-3.341-3.281-8.701-3.256-12.012,0.054s-3.335,8.671-0.054,12.012L173.167,330.3z"/>
		<path d="M352.367,313.233c3.341,3.281,8.701,3.256,12.012-0.054c3.311-3.311,3.335-8.671,0.054-12.012l-8.533-8.533
			c-3.341-3.281-8.701-3.256-12.012,0.054s-3.335,8.671-0.054,12.012L352.367,313.233z"/>
		<path d="M326.767,330.3c3.341,3.281,8.701,3.256,12.012-0.054c3.311-3.311,3.335-8.671,0.054-12.012l-25.6-25.6
			c-3.341-3.281-8.701-3.256-12.012,0.054c-3.311,3.311-3.335,8.671-0.054,12.012L326.767,330.3z"/>
		<path d="M256,358.4c4.713,0,8.533-3.821,8.533-8.533v-8.533c0-4.713-3.82-8.533-8.533-8.533s-8.533,3.82-8.533,8.533v8.533
			C247.467,354.579,251.287,358.4,256,358.4z"/>
	</g>
</g>
<g>
</g>
<g>
</g>
<g>
</g>
<g>
</g>
<g>
</g>
<g>
</g>
<g>
</g>
<g>
</g>
<g>
</g>
<g>
</g>
<g>
</g>
<g>
</g>
<g>
</g>
<g>
</g>
<g>
</g>
</svg>
