<?xml version="1.0" encoding="iso-8859-1"?>
<!-- Generator: Adobe Illustrator 19.0.0, SVG Export Plug-In . SVG Version: 6.00 Build 0)  -->
<svg version="1.1" id="Capa_1" xmlns="http://www.w3.org/2000/svg" xmlns:xlink="http://www.w3.org/1999/xlink" x="0px" y="0px"
	 viewBox="0 0 512.035 512.035" style="enable-background:new 0 0 512.035 512.035;" xml:space="preserve">
<g transform="translate(0 -1)">
	<g transform="translate(1 2)">
		<g>
			<path style="fill:#6A1B9A;" d="M252.381,502.502h-89.088c-2.237-0.017-4.379-0.905-5.973-2.475l-20.992-20.992
				c-2.173-2.172-5.344-3.012-8.308-2.201c-2.964,0.811-5.264,3.15-6.028,6.126l-3.243,13.056c-0.927,3.816-4.35,6.498-8.277,6.485
				H84.36c-2.488,0.001-4.852-1.083-6.476-2.968c-1.623-1.885-2.343-4.385-1.972-6.845l24.149-160.853l1.28-0.341
				c13.739,57.6,46.763,129.621,125.099,165.12c7.477,3.395,15.523,5.363,23.723,5.803
				C250.9,502.487,251.641,502.516,252.381,502.502z"/>
			<path style="fill:#6A1B9A;" d="M431.402,492.688c0.387,2.463-0.327,4.971-1.954,6.861s-4.001,2.969-6.494,2.952h-26.027
				c-3.927,0.013-7.35-2.669-8.277-6.485l-3.328-13.056c-0.738-2.974-3.023-5.319-5.977-6.132c-2.954-0.814-6.117,0.03-8.274,2.207
				l-20.992,20.992c-1.627,1.572-3.796,2.458-6.059,2.475l-89.003,0c9.39,0.005,18.673-2.003,27.221-5.888
				C360.404,461.2,393.428,389.35,407.252,331.835h0.085L431.402,492.688z"/>
		</g>
		<path style="fill:#BFB186;" d="M417.151,246.758c0.278,27.138-2.701,54.212-8.875,80.64c-0.256,1.451-0.597,2.901-1.024,4.437
			C393.428,389.35,360.404,461.2,282.239,496.614c-4.929,2.307-10.157,3.916-15.531,4.779c-3.851,0.753-7.767,1.125-11.691,1.109
			h-1.28c-0.74,0.014-1.481-0.014-2.218-0.085c-8.2-0.439-16.246-2.408-23.723-5.803c-78.336-35.499-111.36-107.52-125.099-165.12
			c-0.341-1.365-0.683-2.731-0.939-4.096c-6.173-26.428-9.153-53.502-8.875-80.64c-2.565-17.032-2.995-34.318-1.28-51.456
			c0.256-2.816,0.597-5.632,1.024-8.533h124.928c7.132-0.01,13.515-4.425,16.043-11.093l8.192-21.845l13.227-35.328l21.419,57.173
			c2.527,6.669,8.911,11.083,16.043,11.093h124.928C420.223,206.672,420.136,226.879,417.151,246.758z"/>
		<path style="fill:#FFE0B2;" d="M393.855,255.291c0.278,27.138-2.701,54.212-8.875,80.64c-0.256,1.451-0.597,2.901-1.024,4.437
			c-13.397,55.552-44.629,124.501-117.248,161.024c-3.851,0.753-7.767,1.125-11.691,1.109h-1.28
			c-0.74,0.014-1.481-0.014-2.218-0.085c-8.2-0.439-16.246-2.408-23.723-5.803c-78.336-35.499-111.36-107.52-125.099-165.12
			c-0.341-1.365-0.683-2.731-0.939-4.096c-6.173-26.428-9.153-53.502-8.875-80.64c-2.565-17.032-2.995-34.318-1.28-51.456H194.26
			c6.114-0.004,11.767-3.252,14.848-8.533c0.465-0.82,0.865-1.676,1.195-2.56l21.419-57.173l10.069,26.795l11.349,30.379
			c2.527,6.669,8.911,11.083,16.043,11.093h124.928C396.927,215.205,396.84,235.412,393.855,255.291z"/>
		<path style="fill:#BFB186;" d="M101.759,327.398l-0.341,0.085c-2.271,2.41-5.077,4.252-8.192,5.376
			c-18.005,5.717-30.037-23.808-34.731-36.352c-6.315-16.811-13.568-37.547-7.168-55.381c1.631-6.211,7.319-10.486,13.739-10.325
			c10.828,1.972,20.65,7.605,27.819,15.957C92.606,273.896,95.586,300.969,101.759,327.398z"/>
		<g>
			<path style="fill:#00BCD4;" d="M203.818,259.929v25.003c0,11.782-9.551,21.333-21.333,21.333
				c-11.782,0-21.333-9.551-21.333-21.333v-24.917"/>
			<path style="fill:#00BCD4;" d="M348.884,260.015v24.917c0,11.782-9.551,21.333-21.333,21.333s-21.333-9.551-21.333-21.333
				v-25.003"/>
		</g>
		<path style="fill:#AD1457;" d="M323.199,400.102c-22.255,5.818-45.179,8.687-68.181,8.533
			c-23.031,0.153-45.982-2.716-68.267-8.533c0,0,30.379-25.6,45.483-25.6c8.433-0.336,16.646,2.74,22.784,8.533
			c6.138-5.794,14.351-8.87,22.784-8.533C292.394,374.502,321.407,398.566,323.199,400.102z"/>
		<path style="fill:#E91E63;" d="M323.284,400.102c0,0-22.784,51.2-68.267,51.2s-68.267-51.2-68.267-51.2
			c22.285,5.817,45.236,8.686,68.267,8.533c23.003,0.153,45.926-2.716,68.181-8.533H323.284z"/>
		<path style="fill:#6A1B9A;" d="M424.234,195.302H292.479c-7.263-0.088-13.686-4.734-16.043-11.605l-21.419-59.904l-21.419,59.904
			c-2.356,6.871-8.779,11.517-16.043,11.605H85.802c-4.969-0.127-9.652-2.353-12.889-6.126c-3.236-3.773-4.723-8.74-4.093-13.671
			C88.106-0.709,255.018,7.654,255.018,7.654S421.93-0.709,441.215,175.504c0.631,4.931-0.856,9.898-4.093,13.671
			C433.886,192.949,429.203,195.174,424.234,195.302z"/>
		<path style="fill:#9D27B0;" d="M405.716,184.038c0.356,3.871-0.352,7.766-2.048,11.264H292.479
			c-7.263-0.088-13.686-4.734-16.043-11.605l-21.419-59.904l-21.419,59.904c-2.356,6.871-8.779,11.517-16.043,11.605H103.551
			c-1.696-3.498-2.404-7.393-2.048-11.264C117.29,7.824,253.567,16.187,253.567,16.187S389.93,7.824,405.716,184.038z"/>
		<path style="fill:#BFB186;" d="M451.54,296.507c-4.693,12.544-16.725,42.069-34.731,36.352c-3.115-1.124-5.921-2.966-8.192-5.376
			l-0.341-0.085c6.173-26.428,9.153-53.502,8.875-80.64c7.169-8.352,16.99-13.986,27.819-15.957
			c6.42-0.161,12.108,4.114,13.739,10.325C465.108,258.96,457.855,279.696,451.54,296.507z"/>
	</g>
	<g>
		<path d="M92.292,343.823L69.851,493.435c-0.74,4.914,0.7,9.905,3.942,13.671c3.242,3.765,7.964,5.931,12.933,5.929h26.096
			c7.834,0.008,14.665-5.324,16.558-12.925l3.262-13.05l20.975,20.975c3.193,3.212,7.538,5.012,12.067,5h179.338
			c4.523-0.027,8.859-1.811,12.092-4.975l20.937-20.992l3.312,12.975c1.854,7.639,8.702,13.011,16.562,12.992h26.029
			c4.976,0.015,9.709-2.147,12.956-5.918c3.247-3.771,4.682-8.773,3.928-13.691l-22.416-149.845
			c16.288,2.997,30.48-10.992,42.132-42.059c7.563-20.15,14.342-41.483,7.133-61.329c-2.923-9.722-12.02-16.263-22.167-15.938
			c-5.968,0.447-11.746,2.303-16.859,5.414c0.558-10.889,0.322-21.804-0.706-32.659c6.779-0.656,13.01-4.008,17.292-9.304
			c4.283-5.295,6.258-12.09,5.481-18.856C431.106-1.999,263.901,0.803,256.006,1.032c-8.24-0.222-175.095-2.847-194.701,167.824
			c-0.775,6.765,1.2,13.559,5.483,18.853c4.282,5.295,10.513,8.646,17.291,9.302c-1.028,10.855-1.264,21.77-0.706,32.658
			c-5.112-3.111-10.888-4.966-16.855-5.414c-10.172-0.405-19.314,6.167-22.171,15.938c-7.208,19.846-0.429,41.179,7.129,61.329
			C62.813,331.75,76.532,345.833,92.292,343.823z M144.709,474.993c-4.347-4.347-10.697-6.02-16.622-4.38
			c-5.925,1.64-10.51,6.341-12.003,12.305l-3.262,13.05H86.726l19.02-126.807c16.461,46.321,46.19,95.435,99.605,126.807h-39.667
			L144.709,474.993z M255.959,495.968c-8.161-0.003-16.229-1.737-23.671-5.087c-135.462-61.454-129.95-239.954-129.879-241.75
			c-0.034-0.3-0.084-0.599-0.151-0.894c0.028-0.333,0.035-0.668,0.021-1.002c-2.433-16.535-2.797-33.308-1.084-49.933h117.393
			c10.662-0.034,20.198-6.642,23.975-16.613l13.455-35.882l13.458,35.882c3.774,9.971,13.309,16.579,23.97,16.613H410.84
			c1.713,16.625,1.348,33.398-1.084,49.933c-0.014,0.334-0.007,0.668,0.021,1.001c-0.066,0.297-0.117,0.597-0.15,0.9
			c0.071,1.796,5.792,180.2-129.879,241.746c-7.445,3.351-15.515,5.085-23.68,5.087H255.959z M397.922,495.91l-3.304-12.942
			c-1.458-5.977-6.031-10.7-11.957-12.352c-5.926-1.652-12.283,0.025-16.622,4.385l-21.017,20.967h-38.338
			c46.486-28.532,81.429-72.535,98.689-124.276l18.582,124.276L397.922,495.91z M446.418,241.297
			c0.842-0.046,3.45-0.179,5.229,4.721c5.225,14.379-0.629,32.346-7.071,49.513c-8.275,22.087-17.108,33.479-24.217,31.196
			c-0.646-0.215-1.261-0.513-1.829-0.887c5.209-24.149,7.956-48.764,8.2-73.467C431.888,246.606,438.811,242.712,446.418,241.297z
			 M78.263,170.802C96.422,12.689,249.151,17.814,255.622,18.093c0.145,0.004,0.264-0.063,0.407-0.065
			c0.137,0.003,0.255,0.069,0.393,0.065c6.5-0.325,159.146-5.771,177.35,152.704c0.276,2.381-0.492,4.765-2.104,6.538
			c-1.634,1.838-3.974,2.893-6.433,2.9H293.447c-3.554-0.011-6.733-2.214-7.992-5.538l-21.446-57.192
			c-0.035-0.094-0.115-0.154-0.154-0.246c-0.269-0.559-0.599-1.087-0.984-1.574c-0.451-0.915-1.197-1.65-2.117-2.089
			c-0.458-0.357-0.952-0.666-1.474-0.921c-0.1-0.042-0.164-0.128-0.267-0.167c-0.42-0.101-0.847-0.169-1.278-0.202
			c-1.114-0.362-2.315-0.363-3.429-0.001c-0.433,0.033-0.862,0.101-1.284,0.203c-0.103,0.038-0.168,0.126-0.269,0.168
			c-0.513,0.252-0.999,0.556-1.451,0.906c-0.923,0.436-1.672,1.171-2.127,2.086c-0.39,0.491-0.725,1.025-0.996,1.591
			c-0.038,0.092-0.118,0.151-0.154,0.245l-21.442,57.188c-1.26,3.325-4.44,5.53-7.996,5.542H86.801
			c-2.459-0.007-4.799-1.062-6.433-2.9C78.756,175.563,77.988,173.181,78.263,170.802z M60.388,246.018
			c1.579-4.346,3.8-4.733,4.879-4.733c0.138,0,0.258,0.009,0.354,0.012c7.605,1.415,14.526,5.31,19.683,11.075
			c0.244,24.703,2.993,49.318,8.204,73.467c-0.569,0.371-1.182,0.669-1.825,0.887c-7.088,2.271-15.942-9.117-24.229-31.196
			C61.018,278.364,55.163,260.397,60.388,246.018z"/>
		<path d="M224.385,327.831c-1.601,1.6-2.5,3.77-2.5,6.033c0,2.263,0.899,4.433,2.5,6.033c8.748,7.583,20.066,11.531,31.633,11.033
			c11.567,0.498,22.885-3.45,31.633-11.034c3.277-3.287,3.298-8.6,0.046-11.913c-3.27-3.341-8.611-3.452-12.017-0.25
			c-5.607,4.336-12.585,6.511-19.662,6.129c-7.031,0.373-13.967-1.765-19.567-6.033c-1.6-1.601-3.77-2.5-6.033-2.5
			C228.155,325.331,225.984,326.23,224.385,327.831z"/>
		<path d="M213.351,286.931v-12.543c4.279,1.927,8.39,4.206,12.292,6.814c3.905,2.637,9.209,1.609,11.846-2.296
			c2.637-3.905,1.609-9.209-2.296-11.846c-8.193-5.583-17.192-9.88-26.684-12.742c-0.472-0.201-0.962-0.359-1.463-0.47
			c-15.262-4.298-31.414-4.301-46.677-0.007c-0.644,0.106-1.273,0.287-1.876,0.538c-9.735,2.81-18.934,7.219-27.221,13.048
			c-3.67,2.925-4.29,8.265-1.386,11.953c2.904,3.687,8.24,4.338,11.944,1.456c3.687-2.627,7.637-4.863,11.787-6.672v12.768
			c0,16.495,13.372,29.867,29.867,29.867S213.351,303.426,213.351,286.931z M170.684,286.931v-18.093
			c8.46-1.584,17.142-1.577,25.6,0.023v18.07c0,7.069-5.731,12.8-12.8,12.8C176.415,299.731,170.684,294,170.684,286.931z"/>
		<path d="M353.533,254.373c-0.585-0.242-1.196-0.417-1.82-0.522c-15.3-4.317-31.497-4.313-46.795,0.012
			c-0.468,0.108-0.926,0.255-1.368,0.44c-9.502,2.864-18.508,7.166-26.707,12.758c-2.545,1.698-3.986,4.629-3.777,7.682
			c0.209,3.053,2.037,5.759,4.791,7.094c2.753,1.335,6.01,1.093,8.536-0.634c3.904-2.611,8.015-4.898,12.292-6.839v12.568
			c0,16.495,13.372,29.867,29.867,29.867s29.867-13.372,29.867-29.867v-12.88c4.164,1.837,8.12,4.114,11.8,6.793
			c3.706,2.897,9.057,2.249,11.964-1.449c2.907-3.698,2.273-9.051-1.418-11.968C372.472,261.598,363.27,257.187,353.533,254.373z
			 M341.351,286.931c0,7.069-5.731,12.8-12.8,12.8s-12.8-5.731-12.8-12.8v-18.16c8.453-1.631,17.138-1.654,25.6-0.068V286.931z"/>
		<path d="M332.084,405.568c0.204-0.544,0.351-1.107,0.439-1.681c0.084-0.265,0.154-0.534,0.21-0.806
			c0.12-1.029,0.05-2.071-0.206-3.074c-0.013-0.051,0.004-0.101-0.01-0.151c-0.054-0.198-0.198-0.337-0.265-0.528
			c-0.25-0.743-0.603-1.447-1.05-2.092c-0.471-0.552-0.943-1.103-1.415-1.655c-5.467-4.613-33.608-27.613-51.017-27.613
			c-8.022-0.116-15.913,2.047-22.754,6.238c-6.842-4.191-14.732-6.354-22.754-6.238c-17.408,0-45.55,23-51.017,27.612
			c-0.468,0.547-0.936,1.095-1.404,1.642c-0.453,0.651-0.811,1.363-1.065,2.114c-0.066,0.188-0.207,0.324-0.261,0.519
			c-0.014,0.051,0.003,0.1-0.01,0.151c-0.256,1.004-0.325,2.046-0.205,3.076c0.056,0.27,0.125,0.537,0.208,0.799
			c0.087,0.576,0.235,1.141,0.44,1.686c1.025,2.296,25.587,56.267,76.066,56.267S331.06,407.864,332.084,405.568z M249.638,390.702
			c1.612,1.768,3.887,2.786,6.279,2.808c2.431,0.143,4.789-0.856,6.379-2.7c4.535-3.989,10.442-6.06,16.475-5.775
			c9.385,2.297,18.147,6.637,25.662,12.71c-32.04,5.527-64.791,5.527-96.831,0c7.514-6.073,16.277-10.413,25.662-12.71
			C239.246,384.756,245.108,386.784,249.638,390.702z M256.018,444.768c-23.821,0-40.867-16.756-50.676-30.078
			c33.52,5.97,67.832,5.97,101.352,0C296.885,428.013,279.838,444.768,256.018,444.768z"/>
		<path d="M155.222,231.281c4.628-0.886,7.661-5.356,6.775-9.983c-0.886-4.628-5.356-7.661-9.983-6.775
			c-11.807,3.292-22.319,10.127-30.117,19.583c-3.261,3.403-3.145,8.806,0.258,12.067c3.403,3.261,8.806,3.145,12.067-0.258
			C139.713,239.166,146.99,234.096,155.222,231.281z"/>
		<path d="M187.301,231.423c15.939,0.869,31.312,6.204,44.363,15.396c2.496,1.749,5.736,2.034,8.499,0.746
			c2.763-1.287,4.629-3.951,4.896-6.988c0.267-3.037-1.107-5.985-3.604-7.734c-15.67-11.031-34.128-17.429-53.263-18.463
			c-4.697-0.232-8.696,3.38-8.942,8.076C179.005,227.153,182.605,231.163,187.301,231.423L187.301,231.423z"/>
		<path d="M356.855,231.281c8.232,2.815,15.508,7.885,21,14.633c3.261,3.403,8.663,3.519,12.067,0.258s3.519-8.663,0.258-12.067
			c-7.798-9.456-18.31-16.292-30.117-19.583c-2.994-0.573-6.066,0.494-8.059,2.8c-1.993,2.306-2.605,5.5-1.604,8.379
			C351.401,228.581,353.861,230.708,356.855,231.281L356.855,231.281z"/>
		<path d="M275.53,248.364c1.75,0.002,3.457-0.538,4.888-1.546c13.049-9.192,28.421-14.527,44.358-15.396
			c4.696-0.259,8.296-4.269,8.05-8.965c-0.246-4.696-4.245-8.308-8.942-8.076c-19.134,1.033-37.591,7.431-53.258,18.462
			c-3.05,2.138-4.361,6.007-3.239,9.559C268.509,245.953,271.805,248.366,275.53,248.364L275.53,248.364z"/>
		<path d="M265.23,311.477c0.187,0.544,0.447,1.062,0.771,1.538c0.341,0.425,0.683,0.85,1.025,1.279
			c0.425,0.341,0.85,0.683,1.279,1.021c0.475,0.323,0.991,0.582,1.533,0.771c0.485,0.245,1.003,0.418,1.537,0.512
			c0.565,0.094,1.136,0.151,1.708,0.171c2.259-0.034,4.422-0.918,6.059-2.475c0.366-0.405,0.707-0.833,1.021-1.279
			c0.324-0.476,0.583-0.993,0.771-1.538c0.245-0.485,0.418-1.003,0.513-1.537c0.094-0.564,0.151-1.133,0.17-1.705
			c-0.033-2.259-0.917-4.422-2.475-6.059c-0.83-0.754-1.782-1.362-2.817-1.796c-3.183-1.294-6.828-0.59-9.301,1.796
			c-1.559,1.635-2.443,3.799-2.475,6.059c0.018,0.571,0.075,1.141,0.171,1.704C264.813,310.474,264.984,310.993,265.23,311.477z"/>
	</g>
</g>
<g>
</g>
<g>
</g>
<g>
</g>
<g>
</g>
<g>
</g>
<g>
</g>
<g>
</g>
<g>
</g>
<g>
</g>
<g>
</g>
<g>
</g>
<g>
</g>
<g>
</g>
<g>
</g>
<g>
</g>
</svg>
