<?xml version="1.0" encoding="iso-8859-1"?>
<!-- Generator: Adobe Illustrator 19.0.0, SVG Export Plug-In . SVG Version: 6.00 Build 0)  -->
<svg version="1.1" id="Capa_1" xmlns="http://www.w3.org/2000/svg" xmlns:xlink="http://www.w3.org/1999/xlink" x="0px" y="0px"
	 viewBox="0 0 512 512" style="enable-background:new 0 0 512 512;" xml:space="preserve">
<g>
	<g transform="translate(1 1)">
		<path style="fill:#F57C00;" d="M331.8,7.533H178.2c-23.143,0.014-45.659,7.529-64.171,21.419
			c-29.687,22.442-47.025,57.591-46.763,94.805l-0.003,71.509H101.4c3.781-15.005,10.195-29.221,18.944-41.984
			c2.514-3.673,5.433-7.051,8.704-10.069c12.34-10.18,27.198-16.842,43.008-19.285c4.523-1.024,9.045-2.304,13.483-3.755
			c15.685-4.553,30.091-12.705,42.069-23.808c1.024-1.024,2.133-2.048,3.157-3.157c6.339-6.519,12.106-13.57,17.237-21.077
			c1.993-3.848,4.335-7.504,6.997-10.923c0.094-0.012,0.188,0.02,0.256,0.085c2.465,3.472,4.716,7.092,6.741,10.837
			c5.974,8.737,12.806,16.856,20.395,24.235c15.672,14.059,34.876,23.588,55.552,27.563c20.48,4.779,38.741,10.581,51.712,29.354
			c8.749,12.764,15.163,26.979,18.944,41.984h34.133v-71.509C442.733,59.587,393.069,7.533,331.8,7.533z"/>
		<path style="fill:#FF9801;" d="M408.6,140.824v54.443c-3.781-15.005-10.195-29.221-18.944-41.984
			c-12.971-18.773-31.232-24.576-51.712-29.355c-20.676-3.975-39.88-13.503-55.552-27.563c-7.588-7.379-14.42-15.498-20.395-24.235
			c-2.025-3.746-4.277-7.365-6.741-10.837c-0.068-0.066-0.162-0.097-0.256-0.085c-2.662,3.419-5.004,7.075-6.997,10.923
			c-5.131,7.507-10.898,14.559-17.237,21.077c-1.024,1.109-2.133,2.133-3.157,3.157c-11.979,11.103-26.384,19.255-42.069,23.808
			c-4.437,1.451-8.96,2.73-13.483,3.755c-15.81,2.443-30.668,9.105-43.008,19.285c-3.271,3.019-6.19,6.396-8.704,10.069
			c-8.749,12.763-15.163,26.979-18.944,41.984H67.264l0.003-71.509c-0.262-37.214,17.076-72.364,46.763-94.805
			c9.752-2.883,19.868-4.349,30.037-4.352h153.6C358.936,24.6,408.6,76.653,408.6,140.824z"/>
		<g>
			<path style="fill:#F57C00;" d="M101.4,272.067c-0.272,10.829-2.378,21.534-6.229,31.659
				c-6.324,16.285-10.65,33.276-12.885,50.603c-32.768,10.923-49.152-5.461-49.152-5.461c34.133-11.349,34.133-76.8,34.133-76.8
				H101.4z"/>
			<path style="fill:#F57C00;" d="M476.867,348.184c0,0-16.384,16.384-49.152,5.461c-2.235-17.326-6.562-34.318-12.885-50.603
				c-3.851-10.125-5.957-20.83-6.229-31.659h34.133C442.733,271.384,442.733,336.835,476.867,348.184z"/>
		</g>
		<g>
			<path style="fill:#BFB186;" d="M112.067,186.733v85.333H70.822C60.454,272.921,51.3,265.345,50.2,255v-51.2
				c1.099-10.345,10.254-17.921,20.622-17.067H112.067z"/>
			<path style="fill:#BFB186;" d="M459.8,203.8V255c-1.358,10.538-10.838,18.093-21.413,17.067h-42.826v-85.333h42.826
				C448.962,185.707,458.442,193.262,459.8,203.8z"/>
		</g>
		<path style="fill:#CC4B4C;" d="M434.2,237.933h-25.6c-4.713,0-8.533-3.821-8.533-8.533s3.821-8.533,8.533-8.533h25.6
			c4.713,0,8.533,3.82,8.533,8.533S438.913,237.933,434.2,237.933z"/>
		<path style="fill:#BFB186;" d="M340.333,468.333l-1.621,3.925c-3.725,17.059-18.48,29.466-35.925,30.208h-32.768
			c-8.833-0.62-15.527-8.226-15.019-17.067c0.508,8.84-6.185,16.447-15.019,17.067h-32.768
			c-18.933-0.984-34.434-15.406-36.779-34.219l-0.768,0.085c-81.323-14.336-92.928-68.864-87.381-114.005
			c2.235-17.326,6.562-34.318,12.885-50.603c3.851-10.125,5.957-20.83,6.229-31.659v-85.333
			c3.829-14.407,10.248-27.998,18.944-40.107c12.971-17.92,31.232-23.467,51.713-27.989c20.516-3.694,39.685-12.763,55.552-26.283
			c1.707-1.536,3.328-3.072,4.864-4.693c5.654-5.726,10.847-11.889,15.531-18.432c1.992-3.714,4.335-7.229,6.997-10.496
			c0.094-0.012,0.188,0.02,0.256,0.085c2.457,3.329,4.709,6.806,6.741,10.411c6.011,8.369,12.843,16.116,20.395,23.125
			c15.867,13.52,35.036,22.589,55.552,26.283c20.48,4.523,38.741,10.07,51.712,27.989c8.695,12.109,15.114,25.699,18.944,40.107
			v85.333c0.272,10.829,2.378,21.534,6.229,31.659c6.324,16.285,10.651,33.276,12.885,50.603
			C433.261,399.469,421.656,453.997,340.333,468.333z"/>
		<path style="fill:#FFE0B2;" d="M339.309,466.029c-11.611,5.133-23.826,8.774-36.352,10.837l-1.621,3.925
			c-2.154,8.421-6.828,15.983-13.397,21.675h-17.92c-8.833-0.62-15.527-8.226-15.019-17.067c0.508,8.84-6.185,16.447-15.019,17.067
			h-20.309c-1.346-2.643-2.048-5.567-2.048-8.533c0,2.966-0.702,5.89-2.048,8.533h-8.363c-18.933-0.984-34.434-15.406-36.779-34.219
			l-0.768,0.085c-81.323-14.336-92.928-68.864-87.381-114.005c2.235-17.326,6.562-34.318,12.885-50.603
			c3.851-10.125,5.957-20.83,6.229-31.659v-85.333c3.829-14.407,10.248-27.998,18.944-40.107
			c12.971-17.92,31.232-23.467,51.713-27.989c20.516-3.694,39.685-12.763,55.552-26.283c1.707-1.536,3.328-3.072,4.864-4.693
			c3.869,4.695,8.06,9.115,12.544,13.227c15.867,13.52,35.036,22.589,55.552,26.283c20.48,4.523,38.741,10.069,51.712,27.989
			c8.695,12.109,15.114,25.699,18.944,40.107V280.6c0.272,10.829,2.378,21.534,6.229,31.659
			c6.324,16.285,10.65,33.276,12.885,50.603C394.947,400.152,387.779,443.843,339.309,466.029z"/>
		<g>
			<path style="fill:#2296F3;" d="M169.667,212.333H203.8V229.4c0,9.426-7.641,17.067-17.067,17.067
				c-9.426,0-17.067-7.641-17.067-17.067V212.333z"/>
			<path style="fill:#2296F3;" d="M306.2,212.333h34.133V229.4c0,9.426-7.641,17.067-17.067,17.067S306.2,238.826,306.2,229.4
				V212.333z"/>
		</g>
	</g>
	<g>
		<path d="M324.267,324.267H187.733c-4.713,0-8.533,3.82-8.533,8.533s3.821,8.533,8.533,8.533h136.533
			c4.713,0,8.533-3.82,8.533-8.533S328.979,324.267,324.267,324.267z"/>
		<path d="M298.667,349.867c-4.713,0-8.533,3.82-8.533,8.533h-76.8c-4.713,0-8.533,3.82-8.533,8.533s3.821,8.533,8.533,8.533h85.333
			c4.713,0,8.533-3.82,8.533-8.533V358.4C307.2,353.687,303.379,349.867,298.667,349.867z"/>
		<path d="M226.546,289.179c1.189,0.609,2.506,0.926,3.842,0.925c3.207-0.001,6.146-1.789,7.621-4.637
			c3.561-6.869,10.305-11.517,17.992-12.4c7.686,0.881,14.431,5.528,17.992,12.396c2.121,4.209,7.252,5.902,11.46,3.781
			c4.209-2.121,5.902-7.252,3.781-11.46c-6.44-12.632-19.08-20.917-33.233-21.783c-14.153,0.866-26.793,9.151-33.233,21.783
			C220.676,281.975,222.365,287.068,226.546,289.179z"/>
		<path d="M153.596,187.738c0.795-0.001,1.586-0.113,2.35-0.333l59.733-17.067c4.49-1.328,7.072-6.027,5.784-10.529
			c-1.287-4.502-5.962-7.126-10.476-5.88l-59.733,17.067c-4.09,1.171-6.694,5.175-6.104,9.388
			C145.739,184.598,149.341,187.734,153.596,187.738z"/>
		<path d="M296.321,170.338l59.733,17.067c4.514,1.246,9.189-1.377,10.476-5.88c1.287-4.502-1.294-9.201-5.784-10.529
			l-59.733-17.067c-2.941-0.87-6.123-0.094-8.334,2.031c-2.211,2.126-3.111,5.274-2.358,8.247
			C291.073,167.181,293.364,169.521,296.321,170.338z"/>
		<path d="M213.333,230.4v-8.533h8.533c4.713,0,8.533-3.821,8.533-8.533s-3.821-8.533-8.533-8.533H153.6
			c-4.713,0-8.533,3.82-8.533,8.533s3.821,8.533,8.533,8.533h8.533v8.533c0,14.139,11.462,25.6,25.6,25.6
			S213.333,244.539,213.333,230.4z M179.2,230.4v-8.533h17.067v8.533c0,4.713-3.82,8.533-8.533,8.533S179.2,235.113,179.2,230.4z"/>
		<path d="M358.4,204.8h-68.267c-4.713,0-8.533,3.82-8.533,8.533s3.82,8.533,8.533,8.533h8.533v8.533
			c0,14.139,11.462,25.6,25.6,25.6s25.6-11.461,25.6-25.6v-8.533h8.533c4.713,0,8.533-3.821,8.533-8.533S363.113,204.8,358.4,204.8z
			 M332.8,230.4c0,4.713-3.82,8.533-8.533,8.533s-8.533-3.821-8.533-8.533v-8.533H332.8V230.4z"/>
		<path d="M256,238.933c4.713,0,8.533-3.821,8.533-8.533v-8.533c0-4.713-3.82-8.533-8.533-8.533c-4.713,0-8.533,3.821-8.533,8.533
			v8.533C247.467,235.113,251.287,238.933,256,238.933z"/>
		<path d="M480.558,341.771c-20.421-6.793-26.807-42.239-28.043-61.821c10.073-3.668,16.787-13.23,16.818-23.95v-51.2
			c-0.033-10.813-6.868-20.435-17.067-24.028v-61.306C452.193,53.518,398.749,0.074,332.8,0H179.2
			C113.251,0.074,59.807,53.518,59.733,119.467v61.306C49.534,184.365,42.7,193.987,42.667,204.8V256
			c0.031,10.723,6.75,20.288,16.828,23.953c-1.212,19.57-7.568,55.003-28.053,61.818c-2.807,0.933-4.931,3.253-5.612,6.132
			s0.178,5.905,2.27,7.997c9.361,8.012,21.4,12.196,33.712,11.716c3.996-0.019,7.982-0.383,11.915-1.086
			c-1.608,20.964,2.782,41.953,12.656,60.516c14.474,25.524,40.818,42.153,78.101,49.677c1.846,6.4,4.882,12.394,8.949,17.669
			c8.232,10.942,21.074,17.447,34.766,17.608h32.796c5.582-0.059,10.938-2.216,15.004-6.041c4.066,3.825,9.422,5.982,15.004,6.041
			H303.8c13.692-0.161,26.535-6.666,34.767-17.608c4.067-5.275,7.103-11.269,8.949-17.669c37.283-7.523,63.627-24.152,78.101-49.677
			c9.874-18.563,14.264-39.552,12.656-60.516c3.933,0.703,7.919,1.067,11.915,1.086c12.312,0.478,24.351-3.706,33.712-11.717
			c2.092-2.092,2.951-5.118,2.271-7.997S483.366,342.703,480.558,341.771L480.558,341.771z M418.133,238.933H435.2
			c4.713,0,8.533-3.821,8.533-8.533s-3.821-8.533-8.533-8.533h-17.067v-25.6h25.6c4.71,0.006,8.527,3.823,8.533,8.533V256
			c-0.006,4.71-3.823,8.527-8.533,8.533h-25.6V238.933z M179.2,17.067h153.6c56.527,0.065,102.335,45.873,102.4,102.4V179.2h-19.354
			c-4.13-13.075-10.299-25.416-18.279-36.567c-14.971-20.625-36.262-26.796-56.783-31.35c-19.055-3.321-36.876-11.673-51.621-24.192
			c-7.05-6.577-13.449-13.819-19.108-21.625l-1.058-1.771c-1.874-3.598-4.201-6.939-6.927-9.944
			c-0.102-0.104-0.236-0.162-0.343-0.26c-0.707-0.667-1.519-1.213-2.402-1.619c-2.126-0.897-4.524-0.897-6.649,0.001
			c-0.91,0.413-1.745,0.976-2.47,1.665c-0.082,0.077-0.188,0.122-0.267,0.202c-2.75,3.018-5.096,6.38-6.98,10.002l-0.867,1.479
			c-5.686,7.914-12.147,15.242-19.288,21.875c-14.731,12.524-32.541,20.881-51.587,24.208c-20.546,4.533-41.85,10.687-56.792,31.329
			c-7.966,11.159-14.133,23.498-18.278,36.567H76.8v-59.733C76.865,62.94,122.673,17.131,179.2,17.067z M59.733,204.8
			c0.006-4.71,3.823-8.527,8.533-8.533h25.6v25.6H76.8c-4.713,0-8.533,3.82-8.533,8.533s3.821,8.533,8.533,8.533h17.067v25.6h-25.6
			c-4.71-0.006-8.527-3.823-8.533-8.533V204.8z M51.446,349.313c19.281-17.538,23.888-51.753,24.993-67.713h16.696
			c-0.833,6.868-2.49,13.611-4.934,20.083c-5.825,15.14-10.057,30.846-12.628,46.864C67.718,350.799,59.427,351.062,51.446,349.313z
			 M410.775,418.625c-11.222,19.789-31.772,33.237-60.996,40.182c-0.13-3.982-0.678-7.94-1.637-11.807l-1.342-5.346
			c-1.148-4.57-5.784-7.344-10.354-6.196c-4.57,1.148-7.344,5.784-6.196,10.354l1.342,5.346c2.954,11.33,0.566,23.389-6.483,32.737
			c-4.974,6.823-12.866,10.91-21.308,11.038h-32.796c-3.508,0-6.471-3.908-6.471-8.533v-17.067c0-4.713-3.82-8.533-8.533-8.533
			c-4.713,0-8.533,3.821-8.533,8.533V486.4c0,4.625-2.963,8.533-6.471,8.533H208.2c-8.442-0.127-16.334-4.215-21.308-11.038
			c-7.05-9.349-9.438-21.408-6.483-32.737l1.342-5.346c0.753-2.96-0.134-6.096-2.325-8.224c-2.191-2.128-5.352-2.922-8.289-2.083
			c-2.936,0.839-5.2,3.184-5.936,6.148L163.858,447c-0.959,3.867-1.507,7.825-1.637,11.807
			c-29.224-6.944-49.774-20.393-60.996-40.182c-9.729-19.176-13.078-40.959-9.559-62.172c0.034-0.251,0.082-0.485,0.094-0.74
			c2.252-16.41,6.408-32.503,12.386-47.951c4.148-10.912,6.404-22.451,6.671-34.121c0.013-0.2,0.116-0.371,0.116-0.574v-84.06
			c3.57-13.058,9.436-25.376,17.325-36.378c11.446-15.808,27.892-20.521,46.65-24.663c22.008-3.945,42.55-13.732,59.479-28.337
			c7.97-7.396,15.182-15.568,21.529-24.396l0.074-0.115l0.109,0.169c6.35,8.785,13.54,16.932,21.467,24.325
			c16.942,14.606,37.498,24.39,59.517,28.329c18.738,4.158,35.183,8.888,46.675,24.717c7.888,10.991,13.749,23.303,17.308,36.355
			v84.053c0,0.204,0.102,0.374,0.116,0.574c0.267,11.672,2.525,23.213,6.676,34.126c5.976,15.446,10.131,31.536,12.382,47.944
			c0.011,0.257,0.06,0.494,0.094,0.747C423.853,377.669,420.503,399.45,410.775,418.625z M436.429,348.546
			c-2.57-16.016-6.801-31.72-12.625-46.859c-2.447-6.473-4.105-13.218-4.939-20.087h16.696c1.105,15.958,5.71,50.167,24.988,67.708
			C452.57,351.055,444.282,350.793,436.429,348.546z"/>
	</g>
</g>
<g>
</g>
<g>
</g>
<g>
</g>
<g>
</g>
<g>
</g>
<g>
</g>
<g>
</g>
<g>
</g>
<g>
</g>
<g>
</g>
<g>
</g>
<g>
</g>
<g>
</g>
<g>
</g>
<g>
</g>
</svg>
