<?xml version="1.0" encoding="iso-8859-1"?>
<!-- Generator: Adobe Illustrator 19.0.0, SVG Export Plug-In . SVG Version: 6.00 Build 0)  -->
<svg version="1.1" id="Capa_1" xmlns="http://www.w3.org/2000/svg" xmlns:xlink="http://www.w3.org/1999/xlink" x="0px" y="0px"
	 viewBox="0 0 512.009 512.009" style="enable-background:new 0 0 512.009 512.009;" xml:space="preserve">
<g transform="translate(-1)">
	<g transform="translate(1 1)">
		<g>
			<path style="fill:#BFB186;" d="M93.871,280.6c0,0,0,6.315,0.853,16.981l-0.853,0.085H66.564
				c-8.931-0.521-15.779-8.131-15.36-17.067v-51.2c-0.12-6.595,3.52-12.685,9.387-15.701h0.085c1.821-0.931,3.843-1.4,5.888-1.365
				H89.69l6.315,0.512c-1.28,13.995-2.048,28.075-2.133,42.155V280.6z"/>
			<path style="fill:#BFB186;" d="M460.804,229.4v51.2c0.419,8.936-6.43,16.546-15.36,17.067h-27.307l-0.853-0.085
				c0.853-10.667,0.853-16.981,0.853-16.981V255c-0.085-14.08-0.853-28.16-2.133-42.155l6.315-0.512h23.125
				c2.045-0.035,4.067,0.434,5.888,1.365h0.085C457.284,216.715,460.925,222.805,460.804,229.4z"/>
			<path style="fill:#BFB186;" d="M416.004,212.845c-0.427-5.547-1.024-11.008-1.707-16.555
				c-2.059-25.082-8.925-49.534-20.224-72.021c-4.577-9.887-11.779-18.328-20.821-24.405c-19.627-11.947-38.656-6.741-57.771,1.536
				c-19.712,8.619-39.424,20.565-59.477,20.565h-0.768c-39.253-0.597-76.885-46.165-116.48-22.101
				c-1.02,0.605-1.99,1.289-2.901,2.048c-7.662,5.925-13.805,13.589-17.92,22.357c-11.299,22.487-18.165,46.939-20.224,72.021
				c-0.683,5.547-1.28,11.008-1.707,16.555c-1.28,13.995-2.048,28.075-2.133,42.155v25.6c0,0,0,6.315,0.853,16.981
				c2.851,38.463,11.809,76.227,26.539,111.872c0.256,0.512,0.427,1.024,0.683,1.536c29.44,67.413,91.819,97.536,150.869,90.539
				c52.474-6.772,97.24-41.268,117.163-90.283c0.256-0.597,0.512-1.109,0.768-1.707v-0.085
				c14.729-35.645,23.688-73.409,26.539-111.872c0.853-10.667,0.853-16.981,0.853-16.981V255
				C418.052,240.92,417.284,226.84,416.004,212.845z"/>
		</g>
		<path style="fill:#FFE0B2;" d="M381.871,221.379c-0.427-5.547-1.024-11.008-1.707-16.555
			c-2.059-25.082-8.925-49.534-20.224-72.021c-4.577-9.887-11.779-18.328-20.821-24.405c-7.096-4.439-15.268-6.858-23.637-6.997
			c-20.224-0.427-40.192,11.861-60.245,20.565c-10.424,5.089-21.778,7.993-33.365,8.533c-29.099,0-57.259-25.088-86.016-28.587
			c-7.662,5.925-13.805,13.589-17.92,22.357c-11.299,22.487-18.165,46.939-20.224,72.021c-0.683,5.547-1.28,11.008-1.707,16.555
			c-1.28,13.995-2.048,28.075-2.133,42.155v25.6c0,0,0,6.315,0.853,16.981c2.851,38.463,11.809,76.227,26.539,111.872
			c0.256,0.512,0.427,1.024,0.683,1.536c29.44,67.413,91.819,97.536,150.869,90.539c37.594-14.898,67.549-44.391,83.029-81.749
			c0.256-0.597,0.512-1.109,0.768-1.707v-0.085c14.729-35.645,23.688-73.409,26.539-111.872c0.853-10.667,0.853-16.981,0.853-16.981
			v-25.6C383.919,249.453,383.151,235.373,381.871,221.379z"/>
		<g>
			<path style="fill:#00838F;" d="M238.938,237.933v34.133c0.002,9.053-3.593,17.737-9.995,24.139
				c-6.402,6.402-15.085,9.997-24.139,9.995h-42.667c-9.053,0.002-17.737-3.593-24.139-9.995
				c-6.402-6.402-9.997-15.085-9.995-24.139v-51.2h93.867C231.285,220.894,238.91,228.519,238.938,237.933z"/>
			<path style="fill:#00838F;" d="M384.004,220.867v51.2c0.002,9.053-3.593,17.737-9.995,24.139
				c-6.402,6.402-15.085,9.997-24.139,9.995h-42.667c-9.053,0.002-17.737-3.593-24.139-9.995
				c-6.402-6.402-9.997-15.085-9.995-24.139v-34.133c0.027-9.414,7.652-17.039,17.067-17.067H384.004z"/>
		</g>
		<g>
			<path style="fill:#00BCD4;" d="M213.338,237.933v34.133c0.002,9.053-3.593,17.737-9.995,24.139
				c-6.402,6.402-15.085,9.997-24.139,9.995h-17.067c-9.053,0.002-17.737-3.593-24.139-9.995
				c-6.402-6.402-9.997-15.085-9.995-24.139v-51.2h68.267C205.685,220.894,213.31,228.519,213.338,237.933z"/>
			<path style="fill:#00BCD4;" d="M358.404,220.867v51.2c0.002,9.053-3.593,17.737-9.995,24.139
				c-6.402,6.402-15.085,9.997-24.139,9.995h-17.067c-9.053,0.002-17.737-3.593-24.139-9.995
				c-6.402-6.402-9.997-15.085-9.995-24.139v-34.133c0.027-9.414,7.652-17.039,17.067-17.067H358.404z"/>
		</g>
		<path style="fill:#D84315;" d="M256.004,7.533c-35.497-0.104-70.388,9.2-101.12,26.965
			c-58.383,32.893-94.686,94.527-95.147,161.536c-0.018,5.899,0.267,11.794,0.853,17.664h0.085c0.872-0.503,1.825-0.85,2.816-1.024
			c1.006-0.24,2.038-0.354,3.072-0.341H89.69l6.315,0.512c0.427-5.547,1.024-11.008,1.707-16.555
			c2.059-25.082,8.925-49.534,20.224-72.021c2.814-5.68,6.373-10.961,10.581-15.701c2.979-3.377,6.427-6.308,10.24-8.704
			c39.851-24.235,77.739,22.101,117.248,22.101c10.044-0.344,19.926-2.633,29.099-6.741c29.27-11.861,58.197-33.621,88.149-15.36
			c9.042,6.077,16.244,14.519,20.821,24.405c11.299,22.487,18.165,46.939,20.224,72.021c0.683,5.547,1.28,11.008,1.707,16.555
			l2.133-0.171l4.181-0.341h23.125c2.045-0.035,4.067,0.434,5.888,1.365h0.085c0.586-5.87,0.871-11.765,0.853-17.664
			C452.271,91.928,364.378,7.533,256.004,7.533z"/>
		<path style="fill:#FF5722;" d="M418.138,211.736v0.939l-2.133,0.171c-0.427-5.547-1.024-11.008-1.707-16.555
			c-2.059-25.082-8.925-49.534-20.224-72.021c-4.577-9.887-11.779-18.328-20.821-24.405c-29.952-18.261-58.88,3.499-88.149,15.36
			c-9.172,4.108-19.054,6.397-29.099,6.741c-39.509,0-77.397-46.336-117.248-22.101c-3.813,2.396-7.261,5.327-10.24,8.704
			c-4.209,4.741-7.767,10.021-10.581,15.701c-11.299,22.487-18.165,46.939-20.224,72.021c-0.683,5.547-1.28,11.008-1.707,16.555
			l-6.315-0.512H66.564c-1.034-0.013-2.066,0.102-3.072,0.341c-0.991,0.174-1.944,0.521-2.816,1.024h-0.085
			c-0.586-5.87-0.871-11.765-0.853-17.664c0.461-67.009,36.764-128.643,95.147-161.536c21.542-7.472,44.185-11.28,66.987-11.264
			C330.244,23.235,418.138,107.629,418.138,211.736z"/>
		<path style="fill:#B0D3F0;" d="M273.071,246.467h-34.133c-4.713,0-8.533-3.821-8.533-8.533c0-4.713,3.82-8.533,8.533-8.533h34.133
			c4.713,0,8.533,3.821,8.533,8.533C281.604,242.646,277.784,246.467,273.071,246.467z"/>
	</g>
	<g>
		<path d="M461.288,210.513c0.309-4.345,0.517-8.776,0.517-13.513c0-108.625-91.875-197-204.8-197s-204.8,88.375-204.8,197
			c0,4.736,0.207,9.168,0.517,13.513c-5.779,4.995-9.085,12.266-9.05,19.904v51.2c-0.441,13.652,10.234,25.094,23.883,25.6h20.319
			c3.522,36.941,12.587,73.142,26.889,107.383l0.35,0.808c26.001,59.525,80.308,96.541,141.717,96.6h0.158
			c61.383,0,115.733-36.908,141.842-96.367l0.75-1.708c0.101-0.234,0.19-0.473,0.267-0.717
			c14.006-33.823,22.871-69.552,26.303-105.999h20.306c13.65-0.506,24.324-11.948,23.883-25.6v-51.2
			C470.372,222.779,467.066,215.508,461.288,210.513z M257.004,17.067c103.517,0,187.733,80.717,187.733,179.933
			c0,2.699-0.061,5.287-0.169,7.817H424.66c-0.301-2.842-0.568-5.661-0.914-8.533c-2.182-26.063-9.333-51.467-21.067-74.842
			c-5.238-11.341-13.557-20.983-24.008-27.825c-27.908-17.008-54.933-4.242-78.767,7.025c-13.16,7.586-27.784,12.282-42.9,13.775
			c-15.116-1.493-29.74-6.189-42.9-13.775c-23.825-11.283-50.833-24.058-78.758-7.033c-10.455,6.845-18.776,16.489-24.017,27.833
			c-11.733,23.372-18.884,48.773-21.066,74.833c-0.35,2.905-0.496,5.667-0.799,8.542H69.44c-0.108-2.53-0.169-5.116-0.169-7.817
			C69.271,97.783,153.488,17.067,257.004,17.067z M67.554,290.15c-4.181-0.578-7.177-4.328-6.817-8.533v-51.2
			c-0.1-3.17,1.491-6.155,4.18-7.838l0.109-0.037c0.777-0.42,1.644-0.646,2.528-0.658h20.312c-0.656,8.758-1.019,17.248-1.218,25.6
			h-8.844c-4.713,0-8.533,3.82-8.533,8.533c0,4.713,3.821,8.533,8.533,8.533h8.533v17.067c0,0.542,0.022,3.599,0.259,8.533H67.554z
			 M383.913,407.067c-0.098,0.223-0.185,0.451-0.258,0.683l-0.45,1.025c-20.899,51.504-70.638,85.461-126.217,86.167h-0.133
			c-55.595-0.761-105.305-34.806-126.108-86.367l-7.817,3.417l7.167-4.925c-16.334-39.882-25.375-82.372-26.692-125.45V256.43
			c0.007-0.145,0.083-0.267,0.083-0.414c0-0.122-0.064-0.223-0.069-0.344c0.18-19.175,1.447-38.325,3.794-57.356
			c1.923-24.091,8.494-47.582,19.35-69.175c3.859-8.469,9.967-15.718,17.658-20.958c20.1-12.233,39.775-2.9,62.583,7.883
			c15.396,8.767,32.537,14.031,50.2,15.417c17.663-1.385,34.804-6.649,50.2-15.417c22.817-10.792,42.525-20.092,62.592-7.875
			c7.689,5.238,13.793,12.484,17.65,20.95c10.857,21.595,17.428,45.089,19.35,69.183c2.348,19.019,3.617,38.155,3.801,57.318
			c-0.006,0.131-0.076,0.241-0.076,0.374c0,0.146,0.076,0.268,0.083,0.413v25.187C409.288,324.694,400.247,367.185,383.913,407.067z
			 M453.271,281.617c0.36,4.205-2.636,7.956-6.817,8.533h-19.04c0.234-4.93,0.257-7.991,0.257-8.533V264.55h8.533
			c4.713,0,8.533-3.82,8.533-8.533c0-4.713-3.82-8.533-8.533-8.533h-8.713c-0.2-8.324-0.627-16.857-1.28-25.6h20.243
			c4.181,0.578,7.177,4.328,6.817,8.533L453.271,281.617z"/>
		<path d="M291.138,392.533h-68.267c-4.713,0-8.533,3.82-8.533,8.533s3.82,8.533,8.533,8.533h68.267
			c4.713,0,8.533-3.821,8.533-8.533S295.85,392.533,291.138,392.533z"/>
		<path d="M274.071,418.133h-34.133c-4.713,0-8.533,3.82-8.533,8.533s3.82,8.533,8.533,8.533h34.133c4.713,0,8.533-3.82,8.533-8.533
			S278.784,418.133,274.071,418.133z"/>
		<path d="M274.071,341.35c4.713,0,8.533-3.82,8.533-8.533s-3.82-8.533-8.533-8.533h-34.133c-4.713,0-8.533,3.82-8.533,8.533
			s3.82,8.533,8.533,8.533H274.071z"/>
		<path d="M385.004,213.35h-93.867c-10.813,0.033-20.435,6.868-24.028,17.067h-20.212c-3.592-10.199-13.214-17.033-24.028-17.067
			h-93.867c-2.264-0.001-4.435,0.897-6.035,2.498c-1.601,1.601-2.499,3.772-2.498,6.035v51.2
			c0.028,23.553,19.114,42.639,42.667,42.667h42.667c23.553-0.028,42.639-19.114,42.667-42.667v-25.6h17.067v25.6
			c0.028,23.553,19.114,42.639,42.667,42.667h42.667c23.553-0.028,42.639-19.114,42.667-42.667v-51.2
			c0.001-2.264-0.897-4.435-2.498-6.035C389.439,214.248,387.268,213.349,385.004,213.35z M231.404,273.084
			c-0.015,14.132-11.468,25.585-25.6,25.6h-42.667c-14.132-0.015-25.585-11.468-25.6-25.6v-42.667h85.333
			c4.712,0.003,8.53,3.822,8.533,8.533V273.084z M376.471,273.084c-0.015,14.132-11.468,25.585-25.6,25.6h-42.667
			c-14.132-0.015-25.585-11.468-25.6-25.6V238.95c0.003-4.712,3.822-8.53,8.533-8.533h85.333V273.084z"/>
		<path d="M205.804,247.484h-42.667c-4.713,0-8.533,3.82-8.533,8.533c0,4.713,3.82,8.533,8.533,8.533h17.067
			c0,4.713,3.821,8.533,8.533,8.533s8.533-3.82,8.533-8.533h8.533c4.713,0,8.533-3.82,8.533-8.533
			C214.338,251.304,210.517,247.484,205.804,247.484z"/>
		<path d="M308.204,264.55h8.533c0,4.713,3.821,8.533,8.533,8.533c4.713,0,8.533-3.82,8.533-8.533h17.067
			c4.713,0,8.533-3.82,8.533-8.533c0-4.713-3.821-8.533-8.533-8.533h-42.667c-4.713,0-8.533,3.82-8.533,8.533
			C299.671,260.73,303.491,264.55,308.204,264.55z"/>
	</g>
</g>
<g>
</g>
<g>
</g>
<g>
</g>
<g>
</g>
<g>
</g>
<g>
</g>
<g>
</g>
<g>
</g>
<g>
</g>
<g>
</g>
<g>
</g>
<g>
</g>
<g>
</g>
<g>
</g>
<g>
</g>
</svg>
