<?xml version="1.0" encoding="iso-8859-1"?>
<!-- Generator: Adobe Illustrator 19.0.0, SVG Export Plug-In . SVG Version: 6.00 Build 0)  -->
<svg version="1.1" id="Capa_1" xmlns="http://www.w3.org/2000/svg" xmlns:xlink="http://www.w3.org/1999/xlink" x="0px" y="0px"
	 viewBox="0 0 512 512" style="enable-background:new 0 0 512 512;" xml:space="preserve">
<g>
	<g transform="translate(1 1)">
		<g>
			<path style="fill:#BFB186;" d="M118.467,212.333v85.333H78.644c-10.18,0.692-19.038-6.9-19.911-17.067v-51.2
				c0.873-10.167,9.731-17.759,19.911-17.067H118.467z"/>
			<path style="fill:#BFB186;" d="M451.267,229.4v51.2c-1.1,10.345-10.254,17.921-20.622,17.067H389.4v-85.333h41.244
				C441.012,211.479,450.167,219.055,451.267,229.4z"/>
			<path style="fill:#BFB186;" d="M364.227,127c0.003,1.609,0.478,3.181,1.365,4.523l34.475,55.211v256
				c0.06,30.817-23.412,56.585-54.101,59.392c-1.867,0.241-3.749,0.355-5.632,0.341H169.667
				c-15.846,0.012-31.046-6.278-42.251-17.483s-17.494-26.405-17.483-42.251v-256l34.475-55.211
				c1.658-2.617,1.762-5.929,0.271-8.645s-4.341-4.406-7.439-4.411h-27.307v-8.533c-0.014-17.069,8.504-33.016,22.699-42.496
				c8.407-5.706,18.341-8.74,28.501-8.704h187.733c28.268,0.022,51.178,22.932,51.2,51.2v8.533H372.76
				C368.052,118.479,364.239,122.292,364.227,127z"/>
		</g>
		<path style="fill:#FFE0B2;" d="M339.992,140.056l34.475,55.211v256c0.069,20.776-10.745,40.072-28.501,50.859
			c-1.867,0.241-3.749,0.355-5.632,0.341H169.667c-15.846,0.012-31.046-6.278-42.251-17.483s-17.494-26.405-17.483-42.251v-256
			l34.475-55.211c1.658-2.617,1.762-5.929,0.271-8.645s-4.341-4.406-7.439-4.411h-27.307v-8.533
			c-0.014-17.069,8.504-33.016,22.699-42.496c0.96-0.144,1.931-0.201,2.901-0.171h187.733c28.268,0.022,51.178,22.932,51.2,51.2V127
			H347.16c-3.098,0.005-5.948,1.695-7.439,4.411S338.334,137.439,339.992,140.056z"/>
		<g>
			<path style="fill:#009688;" d="M212.333,43.117v15.616h-51.2c-28.268,0.022-51.178,22.932-51.2,51.2v8.533h27.307
				c3.098,0.005,5.948,1.695,7.439,4.411s1.387,6.028-0.271,8.645l-34.475,55.211v25.6H75.8V78.787
				c-0.807-38.521,29.747-70.412,68.267-71.253H178.2c9.128,0.054,17.843,3.811,24.149,10.411
				C208.781,24.745,212.355,33.757,212.333,43.117z"/>
			<path style="fill:#009688;" d="M434.2,78.787v133.547h-34.133v-25.6l-34.475-55.211c-1.658-2.617-1.762-5.929-0.271-8.645
				c1.491-2.716,4.341-4.406,7.439-4.411h27.307v-8.533c-0.022-28.268-22.932-51.178-51.2-51.2h-51.2V43.117
				c-0.021-9.361,3.553-18.372,9.984-25.173c6.306-6.599,15.021-10.356,24.149-10.411h34.133
				C404.453,8.375,435.008,40.266,434.2,78.787z"/>
		</g>
		<g>
			<path style="fill:#00BCD4;" d="M178.2,229.4h34.133v17.067c0,9.426-7.641,17.067-17.067,17.067
				c-9.426,0-17.067-7.641-17.067-17.067V229.4z"/>
			<path style="fill:#00BCD4;" d="M297.667,229.4H331.8v17.067c0,9.426-7.641,17.067-17.067,17.067
				c-9.426,0-17.067-7.641-17.067-17.067V229.4z"/>
		</g>
		<path style="fill:#009688;" d="M357.4,417.133c0,9.426-7.641,17.067-17.067,17.067s-17.067-7.641-17.067-17.067
			c0,9.426-7.641,17.067-17.067,17.067s-17.067-7.641-17.067-17.067c0,9.426-7.641,17.067-17.067,17.067S255,426.559,255,417.133
			c-0.002,9.311-7.464,16.903-16.773,17.066s-17.032-7.163-17.36-16.468c-0.328,9.305-8.051,16.631-17.36,16.468
			s-16.771-7.755-16.773-17.066c0,9.426-7.641,17.067-17.067,17.067s-17.067-7.641-17.067-17.067
			c-0.016-0.57,0.012-1.141,0.085-1.707C153.539,324.461,229.4,306.2,229.4,306.2l1.365-0.512
			c3.425,10.485,13.204,17.579,24.235,17.579c11.03,0,20.81-7.094,24.235-17.579l1.365,0.512c0,0,75.861,18.261,76.715,109.227
			C357.388,415.992,357.416,416.563,357.4,417.133z"/>
	</g>
	<g>
		<path d="M76.8,307.2h25.6v136.533c0.043,37.685,30.582,68.224,68.267,68.267h170.667c37.685-0.043,68.224-30.582,68.267-68.267
			V307.2h25.6c14.132-0.015,25.585-11.468,25.6-25.6v-51.2c-0.033-10.813-6.868-20.435-17.067-24.028V79.767
			C444.487,36.558,410.14,0.884,366.933,0H332.8c-23.959,0.443-43.042,20.19-42.667,44.15v7.05h-68.267v-7.05
			C222.242,20.19,203.159,0.443,179.2,0h-34.133c-43.206,0.884-77.554,36.558-76.8,79.767v126.606
			C58.068,209.965,51.233,219.587,51.2,230.4v51.2C51.215,295.732,62.668,307.185,76.8,307.2z M392.533,443.733
			c-0.031,28.264-22.936,51.169-51.2,51.2h-76.8v-17.067c0-4.713-3.821-8.533-8.533-8.533c-4.713,0-8.533,3.821-8.533,8.533v17.067
			h-76.8c-28.264-0.031-51.169-22.936-51.2-51.2V190.181l33.212-53.139c3.286-5.261,3.458-11.891,0.45-17.316
			c-3.008-5.425-8.722-8.791-14.925-8.792h-18.737c0.028-23.553,19.114-42.639,42.667-42.667h187.733
			c23.553,0.028,42.639,19.114,42.667,42.667h-18.737c-6.203,0.001-11.917,3.367-14.925,8.792
			c-3.008,5.425-2.835,12.055,0.45,17.316l33.212,53.139V443.733z M443.733,281.6c-0.006,4.71-3.823,8.527-8.533,8.533h-25.6v-25.6
			h17.067c4.713,0,8.533-3.821,8.533-8.533c0-4.713-3.82-8.533-8.533-8.533H409.6v-25.6h25.6c4.71,0.006,8.527,3.823,8.533,8.533
			V281.6z M307.2,44.15c-0.381-14.537,11.064-26.646,25.6-27.083h34.133c33.784,0.876,60.495,28.913,59.733,62.7V204.8H409.6
			v-17.067c0-0.227-0.112-0.418-0.129-0.64c-0.135-1.132-0.451-2.234-0.935-3.266c-0.104-0.2-0.11-0.421-0.231-0.615L373.796,128
			h27.271c4.713,0,8.533-3.821,8.533-8.533v-8.533c-0.037-32.974-26.759-59.696-59.733-59.733H307.2V44.15z M145.067,17.067H179.2
			c14.536,0.437,25.981,12.546,25.6,27.083v7.05h-42.667c-32.974,0.037-59.696,26.759-59.733,59.733v8.533
			c0,4.713,3.821,8.533,8.533,8.533h27.271l-34.508,55.212c-0.121,0.194-0.128,0.416-0.231,0.615
			c-0.484,1.032-0.8,2.134-0.935,3.266c-0.017,0.222-0.129,0.413-0.129,0.64V204.8H85.333V79.767
			C84.572,45.98,111.283,17.942,145.067,17.067z M68.267,230.4c0.006-4.71,3.823-8.527,8.533-8.533h25.6v25.6H85.333
			c-4.713,0-8.533,3.821-8.533,8.533c0,4.713,3.821,8.533,8.533,8.533H102.4v25.6H76.8c-4.71-0.006-8.527-3.823-8.533-8.533V230.4z"
			/>
		<path d="M289.901,300.966c0.053-0.774,0.232-1.512,0.232-2.299c0-4.713-3.821-8.533-8.533-8.533s-8.533,3.82-8.533,8.533
			c0,9.426-7.641,17.067-17.067,17.067c-9.426,0-17.067-7.641-17.067-17.067c0-4.713-3.821-8.533-8.533-8.533
			s-8.533,3.82-8.533,8.533c0,0.787,0.18,1.525,0.232,2.299c-19.273,7.057-77.032,35.03-77.032,117.168
			c-0.044,10.117,5.899,19.303,15.146,23.408c9.247,4.105,20.046,2.353,27.521-4.466c9.646,8.878,24.487,8.878,34.133,0
			c9.646,8.878,24.487,8.878,34.133,0c9.646,8.878,24.487,8.878,34.133,0c9.646,8.878,24.487,8.878,34.133,0
			c7.474,6.819,18.274,8.571,27.521,4.466c9.247-4.105,15.19-13.291,15.146-23.408C366.933,335.996,309.174,308.023,289.901,300.966
			z M341.333,426.667c-4.71-0.006-8.527-3.823-8.533-8.533c0-4.713-3.82-8.533-8.533-8.533s-8.533,3.82-8.533,8.533
			s-3.82,8.533-8.533,8.533s-8.533-3.82-8.533-8.533s-3.821-8.533-8.533-8.533c-4.713,0-8.533,3.82-8.533,8.533
			s-3.82,8.533-8.533,8.533s-8.533-3.82-8.533-8.533v-0.854c0-4.713-3.821-8.533-8.533-8.533c-4.713,0-8.533,3.821-8.533,8.533
			v0.854c0,4.713-3.821,8.533-8.533,8.533c-4.713,0-8.533-3.82-8.533-8.533s-3.821-8.533-8.533-8.533
			c-4.713,0-8.533,3.82-8.533,8.533s-3.821,8.533-8.533,8.533c-4.713,0-8.533-3.82-8.533-8.533v-0.854
			c0-4.713-3.821-8.533-8.533-8.533c-4.713,0-8.533,3.821-8.533,8.533v0.854c-0.006,4.71-3.823,8.527-8.533,8.533
			c-4.745-0.061-8.552-3.938-8.525-8.683c0.072-71.895,49.096-95.175,65.212-100.892c6.235,9.777,17.026,15.699,28.622,15.708
			s22.396-5.895,28.647-15.662c15.935,5.815,65.245,29.548,65.245,100.996C349.861,422.844,346.044,426.661,341.333,426.667z"/>
		<path d="M162.133,238.933h8.533v8.533c0,14.138,11.462,25.6,25.6,25.6s25.6-11.462,25.6-25.6v-8.533h8.533
			c4.713,0,8.533-3.821,8.533-8.533s-3.821-8.533-8.533-8.533h-68.267c-4.713,0-8.533,3.82-8.533,8.533
			S157.421,238.933,162.133,238.933z M204.8,238.933v8.533c0,4.713-3.821,8.533-8.533,8.533s-8.533-3.82-8.533-8.533v-8.533H204.8z"
			/>
		<path d="M273.067,230.4c0,4.713,3.82,8.533,8.533,8.533h8.533v8.533c0,14.138,11.461,25.6,25.6,25.6s25.6-11.462,25.6-25.6v-8.533
			h8.533c4.713,0,8.533-3.821,8.533-8.533s-3.821-8.533-8.533-8.533H281.6C276.887,221.867,273.067,225.687,273.067,230.4z
			 M324.267,238.933v8.533c0,4.713-3.821,8.533-8.533,8.533c-4.713,0-8.533-3.82-8.533-8.533v-8.533H324.267z"/>
		<path d="M230.4,204.8h8.533c6.319-0.02,12.404-2.394,17.067-6.658c4.663,4.265,10.748,6.639,17.067,6.658h8.533
			c4.713,0,8.533-3.821,8.533-8.533s-3.821-8.533-8.533-8.533h-8.533c-4.71-0.006-8.527-3.823-8.533-8.533v-25.6h8.533
			c4.713,0,8.533-3.821,8.533-8.533c0-4.713-3.82-8.533-8.533-8.533h-34.133c-4.713,0-8.533,3.821-8.533,8.533
			c0,4.713,3.821,8.533,8.533,8.533h8.533v25.6c-0.006,4.71-3.823,8.527-8.533,8.533H230.4c-4.713,0-8.533,3.821-8.533,8.533
			S225.687,204.8,230.4,204.8z"/>
		<path d="M162.133,204.8c4.713,0,8.533-3.821,8.533-8.533c0-1.046,0.387-25.6,34.133-25.6c4.713,0,8.533-3.821,8.533-8.533
			c0-4.713-3.821-8.533-8.533-8.533c-40.5,0-51.2,27.908-51.2,42.667C153.6,200.98,157.421,204.8,162.133,204.8z"/>
		<path d="M307.2,170.667c32.679,0,34.083,22.992,34.133,25.667c0.012,3.049,1.649,5.859,4.296,7.373
			c2.646,1.514,5.899,1.501,8.533-0.033c2.634-1.535,4.25-4.358,4.238-7.407c0-14.758-10.7-42.667-51.2-42.667
			c-4.713,0-8.533,3.821-8.533,8.533C298.667,166.846,302.487,170.667,307.2,170.667z"/>
		<path d="M230.4,119.467h51.2c4.713,0,8.533-3.821,8.533-8.533c0-4.713-3.821-8.533-8.533-8.533h-51.2
			c-4.713,0-8.533,3.821-8.533,8.533C221.867,115.646,225.687,119.467,230.4,119.467z"/>
	</g>
</g>
<g>
</g>
<g>
</g>
<g>
</g>
<g>
</g>
<g>
</g>
<g>
</g>
<g>
</g>
<g>
</g>
<g>
</g>
<g>
</g>
<g>
</g>
<g>
</g>
<g>
</g>
<g>
</g>
<g>
</g>
</svg>
