<?xml version="1.0" encoding="iso-8859-1"?>
<!-- Generator: Adobe Illustrator 19.0.0, SVG Export Plug-In . SVG Version: 6.00 Build 0)  -->
<svg version="1.1" id="Capa_1" xmlns="http://www.w3.org/2000/svg" xmlns:xlink="http://www.w3.org/1999/xlink" x="0px" y="0px"
	 viewBox="0 0 512 512" style="enable-background:new 0 0 512 512;" xml:space="preserve">
<g>
	<g transform="translate(1 1)">
		<g>
			<path style="fill:#4E342E;" d="M408.173,306.2H434.2c9.414-0.028,17.039-7.652,17.067-17.067v-51.2
				c-0.028-9.414-7.652-17.039-17.067-17.067H75.8c-9.414,0.028-17.039,7.652-17.067,17.067v51.2
				c0.028,9.414,7.652,17.039,17.067,17.067H408.173z"/>
			<path style="fill:#4E342E;" d="M146.2,265.667H127c-3.535,0-6.4-2.865-6.4-6.4c0-3.535,2.865-6.4,6.4-6.4h19.2
				c3.535,0,6.4,2.865,6.4,6.4C152.6,262.801,149.735,265.667,146.2,265.667z"/>
			<path style="fill:#4E342E;" d="M383,265.667h-19.2c-3.535,0-6.4-2.865-6.4-6.4c0-3.535,2.865-6.4,6.4-6.4H383
				c3.535,0,6.4,2.865,6.4,6.4C389.4,262.801,386.535,265.667,383,265.667z"/>
			<path style="fill:#4E342E;" d="M395.031,375.832c-10.137,14.538-21.53,28.158-34.048,40.704
				C332.995,448.621,303.64,502.467,255,502.467s-77.995-53.845-105.983-85.931c-12.518-12.546-23.911-26.166-34.048-40.704
				c-12.668-20.853-17.338-45.596-13.141-69.632c1.503-8.868,4.231-17.484,8.106-25.6v-59.733
				c-2.236-27.79-2.664-55.696-1.28-83.541C114.883,63.341,170.52,7.533,235.885,7.533h38.229
				c65.365,0,121.002,55.808,127.232,129.792c1.384,27.845,0.956,55.751-1.28,83.541V280.6c3.875,8.116,6.604,16.732,8.107,25.6
				C412.369,330.236,407.7,354.979,395.031,375.832z"/>
		</g>
		<path style="fill:#795548;" d="M370.874,371.665c-8.268,13.87-17.693,27.017-28.174,39.301
			c-23.16,30.979-47.451,82.968-87.7,82.968s-64.54-51.989-87.7-82.968c-10.481-12.284-19.906-25.431-28.174-39.301
			c-10.577-20.718-14.381-44.235-10.875-67.231c1.222-8.481,3.474-16.782,6.708-24.717v-57.674
			c-1.851-26.846-2.205-53.775-1.059-80.661c5.156-71.433,51.194-125.316,105.283-125.316h31.634
			c54.089,0,100.128,53.883,105.283,125.316c1.145,26.886,0.792,53.814-1.059,80.661v57.674c3.233,7.935,5.486,16.236,6.708,24.717
			C385.255,327.431,381.451,350.947,370.874,371.665z"/>
		<path style="fill:#607D8B;" d="M229.4,442.733h51.2l-10.965,23.485c-2.053,6.348-7.963,10.648-14.635,10.648
			s-12.582-4.301-14.635-10.648L229.4,442.733z"/>
		<g>
			<path style="fill:#37474F;" d="M169.667,246.467H203.8v17.067c0,9.426-7.641,17.067-17.067,17.067
				c-9.426,0-17.067-7.641-17.067-17.067V246.467z"/>
			<path style="fill:#37474F;" d="M306.2,246.467h34.133v17.067c0,9.426-7.641,17.067-17.067,17.067
				c-9.426,0-17.067-7.641-17.067-17.067V246.467z"/>
		</g>
		<g>
			<path style="fill:#2C3E50;" d="M220.867,255H152.6c-4.713,0-8.533-3.821-8.533-8.533c0-4.713,3.82-8.533,8.533-8.533h68.267
				c4.713,0,8.533,3.821,8.533,8.533C229.4,251.18,225.579,255,220.867,255z"/>
			<path style="fill:#2C3E50;" d="M357.4,255h-68.267c-4.713,0-8.533-3.821-8.533-8.533c0-4.713,3.821-8.533,8.533-8.533H357.4
				c4.713,0,8.533,3.821,8.533,8.533C365.933,251.18,362.113,255,357.4,255z"/>
		</g>
	</g>
	<g>
		<path d="M76.8,315.733h16.357c-1.819,22.913,3.609,45.819,15.518,65.479c7.316,11.271,15.769,21.762,25.225,31.308
			c3.275,3.533,6.542,7.058,9.683,10.654c5.5,6.304,11.083,13.513,17,21.146C185.158,476.046,213.025,512,256,512
			s70.842-35.954,95.417-67.679c5.917-7.633,11.5-14.842,17-21.146c3.142-3.596,6.409-7.121,9.683-10.654
			c9.455-9.546,17.908-20.036,25.225-31.304c11.909-19.662,17.337-42.569,15.518-65.484H435.2c14.132-0.015,25.585-11.468,25.6-25.6
			v-51.2c-0.015-14.132-11.468-25.585-25.6-25.6h-24.981c1.838-25.203,2.06-50.498,0.665-75.729C404.284,59.158,345.917,0,275.125,0
			h-38.25c-70.792,0-129.159,59.158-135.758,137.604c-1.395,25.231-1.173,50.526,0.665,75.729H76.8
			c-14.132,0.015-25.585,11.468-25.6,25.6v51.2C51.215,304.265,62.668,315.718,76.8,315.733z M443.733,238.933v51.2
			c-0.005,4.711-3.822,8.529-8.533,8.533h-19.25c-1.542-6.404-3.668-12.653-6.35-18.669v-6.931h17.067
			c4.713,0,8.533-3.82,8.533-8.533S431.38,256,426.667,256H409.6v-25.6h25.6C439.911,230.405,443.729,234.222,443.733,238.933z
			 M118.117,139.038c5.858-69.534,56.908-121.971,118.758-121.971h38.25c61.85,0,112.9,52.437,118.758,121.971
			c1.291,27.385,0.849,54.825-1.325,82.154c-0.009,0.12,0.046,0.226,0.042,0.345c-0.004,0.116-0.067,0.213-0.067,0.33V281.6
			c0,0.061,0.033,0.112,0.035,0.173c0.197,1.115,0.446,2.22,0.746,3.312c0.025,0.058,0.017,0.119,0.044,0.177
			c13.22,27.975,11.473,60.725-4.65,87.133c-6.721,10.269-14.47,19.828-23.125,28.529c-3.392,3.654-6.775,7.305-10.025,11.025
			c-5.825,6.683-11.558,14.083-17.633,21.917c-22.174,28.625-47.316,61.067-81.925,61.067s-59.75-32.442-81.925-61.067
			c-6.075-7.834-11.808-15.233-17.642-21.917c-3.242-3.721-6.625-7.371-10.017-11.025c-8.657-8.702-16.405-18.262-23.125-28.533
			c-16.123-26.407-17.87-59.156-4.65-87.129c0.027-0.057,0.019-0.119,0.044-0.176c0.299-1.092,0.548-2.198,0.746-3.313
			c0.002-0.061,0.036-0.112,0.036-0.173v-59.733c0-0.117-0.062-0.214-0.067-0.33c-0.004-0.119,0.051-0.225,0.042-0.345
			C117.268,193.862,116.825,166.423,118.117,139.038z M68.267,238.933c0.005-4.711,3.822-8.529,8.533-8.533h25.6V256H85.333
			c-4.713,0-8.533,3.821-8.533,8.533s3.821,8.533,8.533,8.533H102.4v6.931c-2.682,6.016-4.808,12.265-6.35,18.669H76.8
			c-4.711-0.005-8.529-3.822-8.533-8.533V238.933z"/>
		<path d="M136.617,195.058c-0.32,2.241,0.263,4.517,1.621,6.327c1.358,1.811,3.38,3.007,5.621,3.327l59.733,8.533
			c0.403,0.058,0.81,0.087,1.217,0.087c4.477-0.002,8.191-3.465,8.507-7.931s-2.874-8.416-7.307-9.048l-59.733-8.533
			C141.61,187.153,137.285,190.393,136.617,195.058z"/>
		<path d="M307.191,213.333c0.407,0,0.814-0.03,1.217-0.087l59.733-8.533c3.023-0.426,5.587-2.434,6.726-5.266
			c1.138-2.832,0.677-6.057-1.21-8.456s-4.912-3.608-7.933-3.169l-59.733,8.533c-4.432,0.632-7.622,4.582-7.307,9.048
			C299,209.869,302.714,213.331,307.191,213.333z"/>
		<path d="M226.55,331.846c1.189,0.61,2.506,0.927,3.842,0.925c3.206-0.001,6.144-1.79,7.617-4.637
			c3.563-6.867,10.306-11.514,17.992-12.4c7.687,0.879,14.432,5.527,17.992,12.396c2.121,4.209,7.252,5.902,11.46,3.781
			c4.209-2.121,5.902-7.252,3.781-11.46c-6.44-12.632-19.08-20.917-33.233-21.783c-14.153,0.866-26.793,9.151-33.233,21.783
			C220.673,324.642,222.365,329.738,226.55,331.846z"/>
		<path d="M256,281.6c2.263,0.001,4.434-0.898,6.035-2.499c1.6-1.6,2.499-3.771,2.499-6.035v-25.6c0-4.713-3.821-8.533-8.533-8.533
			c-4.713,0-8.533,3.821-8.533,8.533v25.6c-0.001,2.263,0.898,4.434,2.499,6.035C251.566,280.702,253.737,281.601,256,281.6z"/>
		<path d="M307.2,358.4H204.8c-4.713,0-8.533,3.82-8.533,8.533s3.821,8.533,8.533,8.533h102.4c4.713,0,8.533-3.82,8.533-8.533
			S311.913,358.4,307.2,358.4z"/>
		<path d="M264.533,409.6c4.713,0,8.533-3.821,8.533-8.533s-3.82-8.533-8.533-8.533h-17.067c-4.713,0-8.533,3.82-8.533,8.533
			s3.821,8.533,8.533,8.533H264.533z"/>
		<path d="M319.483,58.279c0.477,0.324,0.996,0.583,1.542,0.771c0.483,0.245,1,0.418,1.533,0.513
			c0.565,0.098,1.136,0.155,1.708,0.171c2.259-0.035,4.421-0.918,6.059-2.475c0.341-0.429,0.683-0.854,1.025-1.279
			c0.321-0.477,0.579-0.994,0.767-1.538c0.247-0.483,0.419-1.002,0.508-1.537c0.103-0.563,0.162-1.133,0.175-1.705
			c0-4.713-3.82-8.533-8.533-8.533s-8.533,3.821-8.533,8.533c0.014,2.263,0.9,4.433,2.475,6.059
			C318.633,57.6,319.058,57.941,319.483,58.279z"/>
		<path d="M343.808,82.859c1.636,1.558,3.8,2.441,6.059,2.475c0.573-0.016,1.144-0.073,1.708-0.171
			c0.533-0.096,1.05-0.269,1.533-0.513c0.543-0.188,1.059-0.447,1.533-0.771c0.449-0.313,0.878-0.654,1.284-1.021
			c0.753-0.83,1.359-1.783,1.792-2.817c0.437-1.026,0.669-2.127,0.683-3.242c-0.013-0.573-0.071-1.144-0.175-1.708
			c-0.089-0.536-0.261-1.054-0.508-1.537c-0.172-0.523-0.431-1.013-0.767-1.45c-0.342-0.513-0.683-0.938-1.025-1.363
			c-2.441-2.462-6.129-3.201-9.331-1.872c-3.202,1.329-5.281,4.464-5.261,7.931c-0.031,1.119,0.203,2.23,0.683,3.242
			C342.449,81.076,343.055,82.028,343.808,82.859z"/>
		<path d="M359.083,105.642c0.433,1.034,1.039,1.987,1.792,2.817c1.636,1.558,3.799,2.441,6.058,2.475
			c0.573-0.016,1.144-0.073,1.708-0.171c0.533-0.096,1.049-0.269,1.533-0.513c0.543-0.188,1.059-0.447,1.533-0.771
			c0.449-0.313,0.878-0.654,1.284-1.021c0.753-0.83,1.359-1.783,1.792-2.817c0.437-1.026,0.669-2.127,0.683-3.242
			c-0.013-0.573-0.071-1.144-0.175-1.708c-0.089-0.536-0.261-1.054-0.508-1.537c-0.172-0.523-0.431-1.013-0.767-1.45
			c-0.341-0.513-0.683-0.938-1.025-1.363c-0.425-0.341-0.858-0.683-1.283-1.025c-0.474-0.324-0.99-0.583-1.533-0.771
			c-0.483-0.244-1-0.416-1.533-0.508c-2.811-0.575-5.724,0.289-7.767,2.304c-1.561,1.634-2.445,3.799-2.475,6.059
			C358.369,103.519,358.603,104.63,359.083,105.642z"/>
		<path d="M369.408,130.475c-0.388,0.417-0.732,0.874-1.025,1.363c-0.338,0.435-0.598,0.926-0.767,1.45
			c-0.259,0.51-0.434,1.059-0.517,1.625c-0.097,0.535-0.152,1.077-0.166,1.621c0.018,0.571,0.074,1.14,0.167,1.704
			c0.096,0.535,0.27,1.053,0.517,1.537c0.167,0.525,0.427,1.016,0.767,1.45c0.294,0.489,0.637,0.948,1.025,1.367
			c1.627,1.572,3.796,2.459,6.059,2.475c0.573-0.016,1.144-0.073,1.708-0.171c0.533-0.096,1.05-0.269,1.533-0.512
			c0.543-0.188,1.059-0.447,1.533-0.771c0.425-0.337,0.858-0.679,1.283-1.021c3.3-3.365,3.3-8.752,0-12.117
			c-0.425-0.341-0.858-0.683-1.283-1.025c-0.475-0.324-0.99-0.583-1.533-0.771c-0.483-0.244-1-0.416-1.533-0.509
			C374.364,127.596,371.451,128.46,369.408,130.475z"/>
		<path d="M326.741,96.341c-1.574,1.625-2.461,3.796-2.475,6.059c0.014,1.115,0.246,2.216,0.683,3.242
			c0.433,1.034,1.039,1.987,1.792,2.817c0.425,0.341,0.85,0.683,1.275,1.021c0.477,0.324,0.996,0.583,1.542,0.771
			c0.507,0.257,1.053,0.431,1.617,0.513c0.536,0.098,1.08,0.155,1.625,0.171c0.573-0.016,1.144-0.073,1.708-0.171
			c0.533-0.096,1.049-0.269,1.533-0.513c0.543-0.188,1.059-0.447,1.533-0.771c0.425-0.337,0.858-0.679,1.283-1.021
			c0.753-0.83,1.359-1.783,1.792-2.817c0.437-1.026,0.669-2.127,0.683-3.242c-0.013-0.573-0.071-1.144-0.175-1.708
			c-0.089-0.536-0.261-1.054-0.508-1.537c-0.172-0.523-0.431-1.013-0.767-1.45c-0.341-0.513-0.683-0.938-1.025-1.363
			C335.437,93.183,330.163,93.183,326.741,96.341z"/>
		<path d="M309.675,82.859c0.403,0.367,0.829,0.708,1.275,1.021c0.477,0.324,0.996,0.583,1.542,0.771
			c0.483,0.245,1,0.418,1.534,0.512c0.565,0.098,1.136,0.155,1.708,0.171c1.119,0.029,2.229-0.205,3.242-0.683
			c1.033-0.435,1.985-1.041,2.817-1.791c0.753-0.83,1.359-1.783,1.792-2.817c0.437-1.026,0.669-2.127,0.683-3.242
			c-0.033-2.259-0.917-4.422-2.475-6.059c-0.831-0.754-1.783-1.361-2.817-1.796c-3.179-1.33-6.846-0.622-9.301,1.796
			c-1.561,1.634-2.445,3.799-2.475,6.059c0.014,1.115,0.246,2.216,0.683,3.242C308.316,81.076,308.922,82.028,309.675,82.859z"/>
		<path d="M290.133,59.733c2.27,0.022,4.453-0.87,6.058-2.475c1.605-1.605,2.497-3.788,2.475-6.058
			c-0.013-1.116-0.245-2.219-0.683-3.246c-0.432-1.033-1.038-1.984-1.791-2.813c-3.421-3.158-8.695-3.158-12.117,0
			c-0.753,0.829-1.359,1.78-1.792,2.813c-0.438,1.027-0.67,2.13-0.683,3.246c-0.022,2.27,0.87,4.453,2.475,6.058
			C285.68,58.863,287.863,59.755,290.133,59.733z"/>
		<path d="M187.733,59.733c2.27,0.022,4.453-0.87,6.058-2.475c1.605-1.605,2.497-3.788,2.475-6.058
			c0.02-3.467-2.059-6.601-5.261-7.931c-3.202-1.329-6.89-0.59-9.331,1.872c-1.574,1.625-2.461,3.796-2.475,6.059
			c-0.022,2.27,0.87,4.453,2.475,6.058S185.463,59.755,187.733,59.733z"/>
		<path d="M157.35,83.879c0.477,0.324,0.996,0.583,1.542,0.771c0.483,0.245,1,0.418,1.533,0.513
			c0.565,0.098,1.136,0.155,1.708,0.171c3.45-0.014,6.556-2.096,7.879-5.282c1.323-3.187,0.606-6.856-1.82-9.31
			c-2.072-1.966-4.958-2.822-7.767-2.304c-0.534,0.091-1.051,0.263-1.533,0.508c-0.546,0.187-1.064,0.447-1.542,0.771l-1.276,1.025
			c-0.753,0.829-1.359,1.78-1.792,2.813c-0.438,1.027-0.67,2.13-0.683,3.246c0.03,2.26,0.914,4.424,2.475,6.059
			C156.478,83.225,156.904,83.566,157.35,83.879z"/>
		<path d="M141.825,110.25c2.065,0.911,4.418,0.911,6.483,0c1.033-0.435,1.985-1.041,2.817-1.792c3.346-3.346,3.346-8.771,0-12.117
			c-3.346-3.346-8.771-3.346-12.117,0c-0.79,0.8-1.4,1.759-1.792,2.813c-0.438,1.027-0.67,2.13-0.683,3.246
			C136.452,105.875,138.574,109.022,141.825,110.25z"/>
		<path d="M130.475,142.592c0.425,0.341,0.85,0.683,1.275,1.021c0.477,0.324,0.996,0.583,1.542,0.771
			c1.026,0.437,2.127,0.669,3.242,0.683c1.119,0.029,2.229-0.205,3.242-0.683c1.033-0.435,1.985-1.041,2.817-1.792
			c3.3-3.365,3.3-8.752,0-12.117c-0.817-0.771-1.773-1.381-2.817-1.796c-2.078-0.85-4.406-0.85-6.483,0
			c-0.546,0.187-1.064,0.447-1.542,0.771l-1.275,1.025c-1.574,1.625-2.461,3.796-2.475,6.059c0.014,1.115,0.246,2.216,0.683,3.242
			C129.096,140.819,129.704,141.776,130.475,142.592z"/>
		<path d="M173.141,108.459c2.896,2.953,7.476,3.444,10.932,1.171c3.455-2.272,4.82-6.672,3.256-10.501
			c-1.564-3.829-5.618-6.015-9.677-5.219c-4.058,0.797-6.985,4.354-6.986,8.49C170.7,104.659,171.584,106.822,173.141,108.459z"/>
		<path d="M190.208,70.741c-2.462,2.441-3.201,6.129-1.872,9.331c1.329,3.202,4.464,5.281,7.931,5.261
			c3.463,0.01,6.587-2.08,7.899-5.285c1.312-3.205,0.551-6.885-1.924-9.307C198.852,67.583,193.597,67.583,190.208,70.741z"/>
		<path d="M218.625,59.05c1.025,0.437,2.127,0.67,3.242,0.683c2.27,0.022,4.453-0.87,6.058-2.475s2.497-3.788,2.475-6.058
			c-0.033-2.259-0.917-4.422-2.475-6.059c-2.456-2.416-6.121-3.124-9.3-1.796c-3.25,1.233-5.37,4.38-5.292,7.855
			c0.03,2.26,0.914,4.424,2.475,6.059C216.625,58.029,217.581,58.637,218.625,59.05z"/>
		<path d="M281.6,435.2h-51.2c-2.917-0.001-5.632,1.488-7.199,3.948c-1.567,2.46-1.769,5.55-0.534,8.193l10.967,23.487
			c3.464,9.358,12.388,15.571,22.367,15.571c9.979,0,18.903-6.212,22.367-15.571l10.967-23.487c1.234-2.643,1.033-5.733-0.534-8.193
			C287.232,436.688,284.517,435.199,281.6,435.2z M262.9,463.613c-0.798,3.16-3.64,5.375-6.9,5.375c-3.26,0-6.102-2.215-6.9-5.375
			l-5.3-11.346h24.4L262.9,463.613z"/>
		<path d="M213.333,264.533V256h8.533c4.713,0,8.533-3.82,8.533-8.533c0-4.713-3.821-8.533-8.533-8.533H153.6
			c-4.713,0-8.533,3.821-8.533,8.533c0,4.713,3.82,8.533,8.533,8.533h8.533v8.533c0,14.138,11.462,25.6,25.6,25.6
			C201.872,290.133,213.333,278.672,213.333,264.533z M196.267,264.533c0,4.713-3.821,8.533-8.533,8.533
			c-4.713,0-8.533-3.82-8.533-8.533V256h17.067V264.533z"/>
		<path d="M290.133,256h8.533v8.533c0,14.138,11.462,25.6,25.6,25.6c14.138,0,25.6-11.462,25.6-25.6V256h8.533
			c4.713,0,8.533-3.82,8.533-8.533c0-4.713-3.82-8.533-8.533-8.533h-68.267c-4.713,0-8.533,3.821-8.533,8.533
			C281.6,252.18,285.421,256,290.133,256z M332.8,256v8.533c0,4.713-3.82,8.533-8.533,8.533s-8.533-3.82-8.533-8.533V256H332.8z"/>
	</g>
</g>
<g>
</g>
<g>
</g>
<g>
</g>
<g>
</g>
<g>
</g>
<g>
</g>
<g>
</g>
<g>
</g>
<g>
</g>
<g>
</g>
<g>
</g>
<g>
</g>
<g>
</g>
<g>
</g>
<g>
</g>
</svg>
