<?xml version="1.0" encoding="iso-8859-1"?>
<!-- Generator: Adobe Illustrator 19.0.0, SVG Export Plug-In . SVG Version: 6.00 Build 0)  -->
<svg version="1.1" id="Capa_1" xmlns="http://www.w3.org/2000/svg" xmlns:xlink="http://www.w3.org/1999/xlink" x="0px" y="0px"
	 viewBox="0 0 512.004 512.004" style="enable-background:new 0 0 512.004 512.004;" xml:space="preserve">
<g>
	<g transform="translate(1 1)">
		<path style="fill:#BFB186;" d="M400.069,195.267h34.133c9.426,0,17.067,7.641,17.067,17.067v51.2
			c0,9.426-7.641,17.067-17.067,17.067h-358.4c-9.426,0-17.067-7.641-17.067-17.067v-51.2c0-9.426,7.641-17.067,17.067-17.067
			H400.069z"/>
		<g>
			<path style="fill:#CC4B4C;" d="M109.935,246.467h-25.6c-4.713,0-8.533-3.821-8.533-8.533c0-4.713,3.821-8.533,8.533-8.533h25.6
				c4.713,0,8.533,3.821,8.533,8.533C118.469,242.646,114.648,246.467,109.935,246.467z"/>
			<path style="fill:#CC4B4C;" d="M425.669,246.467h-25.6c-4.713,0-8.533-3.821-8.533-8.533c0-4.713,3.82-8.533,8.533-8.533h25.6
				c4.713,0,8.533,3.821,8.533,8.533C434.202,242.646,430.382,246.467,425.669,246.467z"/>
		</g>
		<path style="fill:#BFB186;" d="M363.033,473.795c-30.618,15.294-63.803,24.783-97.877,27.989c-6.737,0.939-13.571,0.939-20.308,0
			C64.623,478.829,85.956,379.075,102.085,339.565c5.109-12.281,7.776-25.44,7.85-38.741V195.267
			c-2.568-19.207-2.997-38.64-1.28-57.941c2.738-37.866,19.904-73.236,47.957-98.816c21.713-19.729,49.938-30.758,79.275-30.976
			h38.229c65.365,0,121.002,55.808,127.232,129.792c1.717,19.302,1.288,38.734-1.28,57.941v105.557
			c0.075,13.301,2.741,26.46,7.85,38.741C420.207,369.603,435.397,434.371,363.033,473.795z"/>
		<path style="fill:#FFE0B2;" d="M363.033,473.795c-30.618,15.294-63.803,24.783-97.877,27.989c-6.737,0.939-13.571,0.939-20.308,0
			C64.623,478.829,85.956,379.075,102.085,339.565c5.109-12.281,7.776-25.44,7.85-38.741V195.267
			c-2.568-19.207-2.997-38.64-1.28-57.941c2.738-37.866,19.904-73.236,47.957-98.816c16.825-9.11,35.652-13.89,54.784-13.909h38.229
			c65.365,0,121.003,55.808,127.232,129.792c1.718,19.302,1.288,38.734-1.28,57.941v105.557c0.074,13.301,2.741,26.461,7.851,38.741
			C394.01,382.659,406.896,434.797,363.033,473.795z"/>
		<path style="fill:#4E342E;" d="M265.156,501.784c-6.737,0.939-13.571,0.939-20.308,0
			C91.077,482.243,84.079,406.723,95.343,360.472c27.819-55.979,115.115-48.128,131.412-46.08
			c7.016,8.332,17.353,13.142,28.246,13.142s21.23-4.809,28.246-13.142c16.298-2.048,103.595-9.899,131.413,46.08
			c0,0.023,0.008,0.045,0.024,0.061c0.016,0.016,0.038,0.025,0.061,0.024C425.925,406.808,418.756,482.243,265.156,501.784z"/>
		<path style="fill:#795548;" d="M262.952,501.784c-5.267,0.939-10.658,0.939-15.924,0
			c-120.577-19.541-126.064-95.061-117.231-141.312c21.814-55.979,90.266-48.128,103.045-46.08
			c4.424,8.102,12.918,13.142,22.149,13.142c9.231,0,17.725-5.04,22.149-13.142c12.78-2.048,81.231-9.899,103.045,46.08
			c0,0,0,0.085,0.067,0.085C389.016,406.808,383.395,482.243,262.952,501.784z"/>
		<g>
			<path style="fill:#00BCD4;" d="M178.202,220.867h34.133v17.067c0,9.426-7.641,17.067-17.067,17.067
				c-9.426,0-17.067-7.641-17.067-17.067V220.867z"/>
			<path style="fill:#00BCD4;" d="M297.669,220.867h34.133v17.067c0,9.426-7.641,17.067-17.067,17.067s-17.067-7.641-17.067-17.067
				V220.867z"/>
		</g>
		<g>
			<path style="fill:#FDD834;" d="M323.269,58.733c-0.573-0.016-1.144-0.073-1.708-0.171c-0.533-0.095-1.05-0.268-1.533-0.513
				c-0.546-0.187-1.064-0.447-1.542-0.771c-0.425-0.338-0.85-0.679-1.275-1.021c-0.366-0.407-0.708-0.834-1.025-1.279
				c-0.325-0.475-0.582-0.992-0.767-1.538c-0.246-0.485-0.42-1.003-0.517-1.537c-0.093-0.564-0.148-1.133-0.166-1.705
				c-0.032-1.121,0.203-2.233,0.683-3.246c0.432-1.033,1.038-1.984,1.791-2.813c3.421-3.158,8.695-3.158,12.117,0
				c0.753,0.829,1.359,1.78,1.792,2.813c0.438,1.027,0.67,2.13,0.683,3.246c-0.017,0.572-0.076,1.141-0.175,1.704
				c-0.089,0.536-0.261,1.054-0.508,1.537c-0.188,0.544-0.445,1.061-0.767,1.538c-0.341,0.425-0.683,0.85-1.025,1.279
				c-0.425,0.341-0.858,0.683-1.283,1.021c-0.475,0.324-0.99,0.583-1.533,0.771c-0.51,0.258-1.059,0.431-1.625,0.513
				C324.352,58.661,323.811,58.718,323.269,58.733z"/>
			<path style="fill:#FDD834;" d="M348.869,84.333c-0.573-0.02-1.143-0.077-1.708-0.171c-0.533-0.095-1.05-0.268-1.533-0.513
				c-0.546-0.187-1.064-0.447-1.542-0.771c-0.425-0.338-0.85-0.679-1.275-1.021c-0.753-0.83-1.359-1.783-1.792-2.817
				c-0.911-2.067-0.911-4.421,0-6.487c0.433-1.033,1.039-1.984,1.792-2.813l1.275-1.025c0.477-0.324,0.996-0.583,1.542-0.771
				c0.483-0.245,1-0.417,1.534-0.508c1.663-0.349,3.393-0.171,4.95,0.508c1.034,0.435,1.986,1.042,2.817,1.796
				c0.772,0.814,1.38,1.769,1.792,2.813c0.911,2.067,0.911,4.421,0,6.487c-0.413,1.044-1.021,2-1.792,2.817
				c-0.832,0.751-1.784,1.357-2.817,1.792C351.099,84.128,349.988,84.363,348.869,84.333z"/>
			<path style="fill:#FDD834;" d="M365.935,109.933c-1.115-0.014-2.216-0.246-3.242-0.683c-1.054-0.393-2.014-1.004-2.817-1.792
				c-1.56-1.634-2.444-3.799-2.475-6.058c0.018-0.572,0.074-1.143,0.167-1.708c0.096-0.535,0.27-1.053,0.517-1.537
				c0.185-0.543,0.443-1.059,0.767-1.533c0.315-0.447,0.657-0.875,1.025-1.279c2.054-1.932,4.897-2.786,7.675-2.304
				c0.566,0.079,1.115,0.25,1.625,0.508c0.543,0.188,1.059,0.447,1.533,0.771c0.425,0.341,0.858,0.683,1.283,1.025
				c0.341,0.425,0.683,0.85,1.025,1.279c0.32,0.476,0.578,0.991,0.767,1.533c0.247,0.483,0.419,1.002,0.508,1.537
				c0.1,0.565,0.158,1.136,0.175,1.709c-0.014,1.115-0.246,2.216-0.683,3.242c-0.413,1.044-1.021,2-1.792,2.817
				c-0.406,0.367-0.835,0.708-1.283,1.021c-0.475,0.324-0.99,0.583-1.533,0.771c-0.51,0.258-1.059,0.431-1.625,0.513
				C367.018,109.861,366.478,109.918,365.935,109.933z"/>
			<path style="fill:#FDD834;" d="M374.469,144.067c-1.119,0.029-2.229-0.205-3.242-0.683c-1.044-0.413-2-1.021-2.817-1.792
				c-0.366-0.407-0.708-0.834-1.025-1.279c-0.325-0.475-0.582-0.992-0.767-1.538c-0.246-0.485-0.42-1.003-0.517-1.537
				c-0.093-0.564-0.148-1.133-0.167-1.704c0.013-1.116,0.245-2.219,0.683-3.246c0.412-1.044,1.02-1.998,1.792-2.813
				c2.451-2.425,6.122-3.134,9.3-1.796c1.034,0.435,1.986,1.042,2.817,1.795c1.558,1.636,2.441,3.8,2.475,6.059
				c-0.017,0.572-0.076,1.141-0.175,1.704c-0.089,0.536-0.261,1.054-0.508,1.537c-0.188,0.544-0.445,1.061-0.767,1.538
				c-0.341,0.425-0.683,0.85-1.025,1.279c-0.832,0.751-1.784,1.357-2.817,1.792C376.698,143.862,375.588,144.096,374.469,144.067z"
				/>
			<path style="fill:#FDD834;" d="M331.802,109.933c-0.573-0.016-1.144-0.073-1.708-0.171c-0.533-0.095-1.05-0.268-1.533-0.513
				c-0.546-0.187-1.064-0.447-1.542-0.771c-0.425-0.338-0.85-0.679-1.275-1.021c-1.56-1.635-2.444-3.799-2.475-6.059
				c-0.032-1.121,0.203-2.233,0.683-3.246c0.412-1.044,1.02-1.998,1.792-2.813c0.403-0.368,0.829-0.71,1.275-1.025
				c0.477-0.324,0.996-0.583,1.542-0.771c0.483-0.246,0.999-0.417,1.533-0.508c1.093-0.258,2.232-0.258,3.325,0
				c0.566,0.079,1.115,0.25,1.625,0.508c0.543,0.188,1.059,0.447,1.533,0.771c0.449,0.315,0.878,0.657,1.284,1.025
				c0.772,0.814,1.38,1.769,1.792,2.813c0.438,1.027,0.67,2.13,0.683,3.246c-0.034,2.259-0.918,4.422-2.475,6.059
				c-0.425,0.341-0.858,0.683-1.283,1.021c-0.475,0.324-0.99,0.583-1.533,0.771c-0.51,0.258-1.059,0.431-1.625,0.513
				C332.885,109.861,332.345,109.918,331.802,109.933z"/>
			<path style="fill:#FDD834;" d="M314.735,84.333c-0.573-0.02-1.143-0.077-1.708-0.171c-0.533-0.095-1.05-0.268-1.533-0.513
				c-0.546-0.187-1.064-0.447-1.542-0.771c-0.425-0.338-0.85-0.679-1.275-1.021c-0.753-0.83-1.359-1.783-1.792-2.817
				c-0.48-1.012-0.714-2.123-0.683-3.242c0.014-0.544,0.07-1.086,0.167-1.621c0.083-0.566,0.257-1.115,0.517-1.625
				c0.169-0.524,0.428-1.015,0.767-1.45c0.293-0.489,0.636-0.946,1.025-1.363l1.275-1.025c0.477-0.324,0.996-0.583,1.542-0.771
				c0.483-0.245,1-0.417,1.534-0.508c2.811-0.573,5.723,0.29,7.767,2.304c1.571,1.628,2.457,3.796,2.475,6.059
				c-0.014,1.115-0.246,2.216-0.683,3.242c-0.413,1.044-1.021,2-1.792,2.817C319.156,83.415,316.994,84.298,314.735,84.333z"/>
			<path style="fill:#FDD834;" d="M289.135,58.733c-1.115-0.014-2.216-0.246-3.242-0.683c-1.054-0.393-2.014-1.003-2.817-1.791
				c-0.366-0.407-0.708-0.834-1.025-1.279c-0.325-0.475-0.582-0.992-0.767-1.538c-0.246-0.485-0.42-1.003-0.517-1.537
				c-0.093-0.564-0.148-1.133-0.166-1.705c0.03-2.26,0.914-4.424,2.475-6.059c0.801-0.791,1.761-1.403,2.817-1.796
				c3.179-1.329,6.845-0.621,9.301,1.796c1.558,1.636,2.441,3.8,2.475,6.059c-0.017,0.572-0.076,1.141-0.175,1.704
				c-0.089,0.536-0.261,1.054-0.508,1.537c-0.188,0.544-0.445,1.061-0.767,1.538c-0.341,0.425-0.683,0.85-1.025,1.279
				C293.557,57.815,291.394,58.698,289.135,58.733z"/>
			<path style="fill:#FDD834;" d="M186.735,58.733c-0.573-0.02-1.143-0.077-1.708-0.171c-0.533-0.095-1.05-0.268-1.533-0.513
				c-0.546-0.187-1.064-0.447-1.542-0.771c-0.425-0.338-0.85-0.679-1.275-1.021c-3.3-3.365-3.3-8.752,0-12.117
				c2.02-1.989,4.893-2.852,7.675-2.304c0.566,0.079,1.115,0.25,1.625,0.508c0.524,0.171,1.015,0.432,1.45,0.771
				c2.635,1.725,4.095,4.77,3.791,7.905c-0.304,3.135-2.323,5.842-5.241,7.028c-0.51,0.258-1.059,0.431-1.625,0.513
				C187.818,58.661,187.278,58.718,186.735,58.733z"/>
			<path style="fill:#FDD834;" d="M161.135,84.333c-2.259-0.033-4.422-0.917-6.059-2.475c-0.366-0.407-0.708-0.834-1.025-1.279
				c-0.325-0.475-0.582-0.992-0.767-1.538c-0.246-0.485-0.42-1.003-0.517-1.537c-0.097-0.563-0.152-1.133-0.166-1.705
				c-0.032-1.121,0.203-2.233,0.683-3.246c0.432-1.033,1.038-1.984,1.791-2.813c3.421-3.158,8.695-3.158,12.117,0
				c0.753,0.829,1.359,1.78,1.792,2.813c0.438,1.027,0.67,2.13,0.683,3.246c-0.013,0.572-0.071,1.142-0.175,1.704
				c-0.089,0.536-0.261,1.054-0.508,1.537c-0.188,0.544-0.445,1.061-0.767,1.538c-0.341,0.425-0.683,0.85-1.025,1.279
				C165.557,83.415,163.394,84.298,161.135,84.333z"/>
			<path style="fill:#FDD834;" d="M144.069,109.933c-2.262-0.016-4.432-0.902-6.059-2.475c-0.753-0.83-1.359-1.783-1.792-2.817
				c-0.437-1.026-0.669-2.127-0.683-3.242c0.014-0.573,0.07-1.144,0.167-1.708c0.096-0.535,0.27-1.053,0.517-1.537
				c0.185-0.543,0.443-1.059,0.767-1.533c0.341-0.429,0.683-0.854,1.025-1.279c3.421-3.158,8.695-3.158,12.117,0
				c0.341,0.425,0.683,0.85,1.025,1.279c0.32,0.476,0.578,0.991,0.767,1.533c0.247,0.483,0.419,1.002,0.508,1.537
				c0.104,0.564,0.162,1.135,0.175,1.708c-0.014,1.115-0.246,2.216-0.683,3.242c-0.433,1.034-1.039,1.987-1.792,2.817
				C148.498,109.028,146.33,109.914,144.069,109.933z"/>
			<path style="fill:#FDD834;" d="M135.535,144.067c-2.262-0.016-4.432-0.902-6.059-2.475c-1.56-1.635-2.444-3.799-2.475-6.059
				c0.013-1.116,0.245-2.219,0.683-3.246c0.412-1.044,1.02-1.998,1.792-2.813c3.421-3.158,8.695-3.158,12.117,0
				c0.772,0.814,1.38,1.769,1.792,2.813c0.438,1.027,0.67,2.13,0.683,3.246c-0.034,2.259-0.918,4.422-2.475,6.059
				C139.966,143.162,137.797,144.047,135.535,144.067z"/>
			<path style="fill:#FDD834;" d="M178.202,109.933c-2.259-0.033-4.422-0.917-6.059-2.475c-0.753-0.83-1.359-1.783-1.792-2.817
				c-0.48-1.012-0.714-2.123-0.683-3.242c0.014-0.573,0.07-1.144,0.167-1.708c0.096-0.535,0.27-1.053,0.517-1.537
				c0.185-0.543,0.443-1.059,0.767-1.533c0.315-0.447,0.657-0.875,1.025-1.279c2.014-2.001,4.892-2.865,7.675-2.304
				c0.566,0.079,1.115,0.25,1.625,0.508c0.524,0.171,1.015,0.432,1.45,0.771c0.508,0.341,0.942,0.683,1.367,1.025
				c0.341,0.425,0.683,0.85,1.025,1.279c0.32,0.476,0.578,0.991,0.767,1.533c0.247,0.483,0.419,1.002,0.508,1.537
				c0.104,0.564,0.163,1.135,0.175,1.709c-0.014,1.115-0.246,2.216-0.683,3.242c-0.433,1.034-1.039,1.987-1.792,2.817
				c-0.425,0.341-0.858,0.683-1.367,1.021c-0.435,0.339-0.926,0.6-1.45,0.771c-0.51,0.258-1.059,0.431-1.625,0.513
				C179.285,109.861,178.744,109.918,178.202,109.933z"/>
			<path style="fill:#FDD834;" d="M195.269,84.333c-0.573-0.016-1.144-0.073-1.708-0.171c-0.533-0.095-1.05-0.268-1.533-0.513
				c-0.546-0.187-1.064-0.447-1.542-0.771c-0.446-0.313-0.872-0.654-1.275-1.021c-3.3-3.365-3.3-8.752,0-12.117l1.275-1.025
				c0.477-0.324,0.996-0.583,1.542-0.771c0.483-0.246,1-0.417,1.534-0.509c2.811-0.561,5.717,0.301,7.767,2.304
				c2.461,2.441,3.201,6.129,1.872,9.331S198.736,84.353,195.269,84.333z"/>
			<path style="fill:#FDD834;" d="M220.869,58.733c-0.573-0.02-1.143-0.077-1.708-0.171c-0.533-0.095-1.05-0.268-1.533-0.513
				c-0.546-0.187-1.064-0.447-1.542-0.771c-0.425-0.338-0.85-0.679-1.275-1.021c-0.771-0.816-1.379-1.772-1.792-2.817
				c-0.437-1.026-0.669-2.127-0.683-3.242c0.014-0.573,0.07-1.144,0.167-1.708c0.096-0.535,0.27-1.053,0.517-1.537
				c0.185-0.543,0.443-1.059,0.767-1.533c0.341-0.429,0.683-0.854,1.025-1.279l1.275-1.025c0.477-0.324,0.996-0.583,1.542-0.771
				c0.483-0.246,1-0.417,1.533-0.509c2.809-0.53,5.701,0.328,7.767,2.304c0.341,0.425,0.683,0.85,1.025,1.279
				c0.32,0.476,0.578,0.991,0.767,1.533c0.247,0.483,0.419,1.002,0.508,1.537c0.104,0.564,0.162,1.135,0.175,1.709
				c-0.014,1.115-0.246,2.216-0.683,3.242c-0.433,1.034-1.039,1.987-1.792,2.817C225.29,57.815,223.127,58.698,220.869,58.733z"/>
		</g>
		<g>
			<path style="fill:#2C3E50;" d="M229.402,229.4h-68.267c-4.713,0-8.533-3.821-8.533-8.533c0-4.713,3.821-8.533,8.533-8.533h68.267
				c4.713,0,8.533,3.821,8.533,8.533C237.935,225.579,234.115,229.4,229.402,229.4z"/>
			<path style="fill:#2C3E50;" d="M348.869,229.4h-68.267c-4.713,0-8.533-3.821-8.533-8.533c0-4.713,3.82-8.533,8.533-8.533h68.267
				c4.713,0,8.533,3.821,8.533,8.533C357.402,225.579,353.582,229.4,348.869,229.4z"/>
		</g>
	</g>
	<g>
		<path d="M76.802,290.133h25.6v11.662c-0.073,12.216-2.524,24.3-7.217,35.579c-8.825,21.663-20.3,63.713,2.017,101.929
			c22.242,38.092,71.875,62.308,147.541,71.979c7.475,0.961,15.042,0.961,22.517,0c75.667-9.671,125.3-33.888,147.541-71.979
			c13.285-24.252,16.601-52.726,9.243-79.382c-0.063-0.371-0.15-0.737-0.261-1.097c-1.805-7.309-4.132-14.479-6.965-21.455
			c-4.693-11.277-7.144-23.361-7.216-35.575v-11.662h25.6c14.132-0.015,25.585-11.468,25.6-25.6v-51.2
			c-0.015-14.132-11.468-25.585-25.6-25.6h-24.533c1.533-16.671,1.605-33.445,0.217-50.129C404.286,59.158,345.919,0,275.127,0
			h-38.25c-70.792,0-129.159,59.158-135.758,137.604c-1.389,16.684-1.316,33.458,0.217,50.129H76.802
			c-14.132,0.015-25.585,11.468-25.6,25.6v51.2C51.218,278.665,62.67,290.118,76.802,290.133z M400.06,430.7
			c-19.425,33.275-64.833,54.692-134.967,63.659c-6.036,0.775-12.147,0.775-18.183,0c-70.133-8.967-115.541-30.383-134.967-63.659
			c-10.92-20.228-13.633-43.883-7.577-66.057c24.51-47.841,101.373-42.976,119.39-41.115c8.495,8.66,20.115,13.539,32.246,13.539
			c12.13,0,23.751-4.879,32.246-13.538c18.026-1.858,94.885-6.734,119.39,41.115C413.694,386.818,410.98,410.473,400.06,430.7z
			 M443.735,213.333v51.2c-0.005,4.711-3.822,8.529-8.533,8.533h-25.6v-25.6h17.067c4.713,0,8.533-3.821,8.533-8.533
			c0-4.713-3.82-8.533-8.533-8.533h-17.067v-25.6h25.6C439.913,204.805,443.731,208.622,443.735,213.333z M118.119,139.038
			c5.858-69.534,56.908-121.971,118.758-121.971h38.25c61.85,0,112.9,52.437,118.758,121.971c1.587,18.621,1.17,37.359-1.242,55.892
			c-0.037,0.228,0.046,0.438,0.027,0.665c-0.019,0.234-0.135,0.434-0.135,0.673v105.529c0.052,8.377,1.085,16.72,3.078,24.857
			c-31.159-21.004-73.916-22.32-97.73-20.999c0.499-2.296,0.762-4.637,0.785-6.987c0-4.713-3.821-8.533-8.533-8.533
			s-8.533,3.82-8.533,8.533c-1.295,12.899-12.679,22.386-25.6,21.333c-12.921,1.052-24.305-8.435-25.6-21.333
			c0-4.713-3.821-8.533-8.533-8.533s-8.533,3.82-8.533,8.533c0.023,2.35,0.286,4.691,0.785,6.987
			c-23.818-1.322-66.573-0.005-97.729,20.999c1.993-8.138,3.025-16.48,3.077-24.857V196.267c0-0.239-0.117-0.44-0.135-0.673
			c-0.019-0.227,0.064-0.436,0.027-0.664C116.948,176.397,116.532,157.659,118.119,139.038z M68.269,213.333
			c0.005-4.711,3.822-8.529,8.533-8.533h25.6v25.6H85.335c-4.713,0-8.533,3.821-8.533,8.533c0,4.713,3.821,8.533,8.533,8.533h17.067
			v25.6h-25.6c-4.711-0.005-8.529-3.822-8.533-8.533V213.333z"/>
		<path d="M213.335,213.333h-51.2c-4.713,0-8.533,3.821-8.533,8.533c0,4.713,3.821,8.533,8.533,8.533h8.533v8.533
			c0,14.138,11.462,25.6,25.6,25.6c14.139,0,25.6-11.462,25.6-25.6V230.4h8.533c4.713,0,8.533-3.821,8.533-8.533
			c0-4.713-3.821-8.533-8.533-8.533H213.335z M204.802,238.933c0,4.713-3.821,8.533-8.533,8.533c-4.713,0-8.533-3.821-8.533-8.533
			V230.4h17.067V238.933z"/>
		<path d="M281.602,230.4h8.533v8.533c0,14.138,11.462,25.6,25.6,25.6s25.6-11.462,25.6-25.6V230.4h8.533
			c4.713,0,8.533-3.821,8.533-8.533c0-4.713-3.82-8.533-8.533-8.533h-68.267c-4.713,0-8.533,3.821-8.533,8.533
			C273.069,226.579,276.889,230.4,281.602,230.4z M324.269,230.4v8.533c0,4.713-3.82,8.533-8.533,8.533s-8.533-3.821-8.533-8.533
			V230.4H324.269z"/>
		<path d="M256.002,290.133c2.263,0.001,4.434-0.898,6.035-2.499c1.6-1.6,2.499-3.771,2.499-6.035v-17.067
			c0-4.713-3.82-8.533-8.533-8.533s-8.533,3.821-8.533,8.533V281.6c-0.001,2.263,0.898,4.434,2.499,6.035
			C251.568,289.235,253.739,290.134,256.002,290.133z"/>
		<path d="M220.66,196.179c0.403,0.058,0.81,0.087,1.217,0.087c4.477-0.002,8.191-3.465,8.507-7.931
			c0.316-4.466-2.874-8.416-7.307-9.048l-59.733-8.533c-3.021-0.439-6.046,0.77-7.933,3.169c-1.887,2.399-2.348,5.624-1.21,8.456
			s3.703,4.84,6.726,5.266L220.66,196.179z"/>
		<path d="M348.66,170.754l-59.733,8.533c-4.432,0.632-7.622,4.582-7.307,9.048s4.029,7.929,8.507,7.931
			c0.407,0,0.814-0.03,1.217-0.087l59.733-8.533c3.023-0.426,5.587-2.434,6.726-5.266c1.138-2.832,0.677-6.057-1.21-8.456
			S351.681,170.316,348.66,170.754L348.66,170.754z"/>
		<path d="M316.419,54.442c0.184,0.545,0.442,1.062,0.767,1.538c0.317,0.446,0.659,0.873,1.025,1.279
			c0.425,0.341,0.85,0.683,1.275,1.021c0.477,0.324,0.996,0.583,1.542,0.771c0.483,0.245,1,0.418,1.534,0.512
			c0.565,0.098,1.136,0.155,1.708,0.171c0.542-0.016,1.083-0.073,1.617-0.171c0.566-0.082,1.115-0.255,1.625-0.513
			c0.543-0.188,1.059-0.447,1.533-0.771c0.425-0.338,0.858-0.679,1.284-1.021c0.341-0.429,0.683-0.854,1.025-1.279
			c0.321-0.477,0.579-0.994,0.767-1.538c0.247-0.483,0.419-1.002,0.508-1.537c0.099-0.563,0.158-1.133,0.175-1.705
			c-0.013-1.116-0.245-2.219-0.683-3.246c-0.432-1.033-1.038-1.984-1.791-2.813c-3.421-3.158-8.695-3.158-12.117,0
			c-0.753,0.829-1.359,1.78-1.792,2.813c-0.481,1.013-0.715,2.125-0.683,3.246c0.018,0.571,0.074,1.14,0.167,1.704
			C315.998,53.439,316.173,53.957,316.419,54.442z"/>
		<path d="M343.81,82.859c0.425,0.341,0.85,0.683,1.275,1.021c0.477,0.324,0.996,0.583,1.542,0.771c0.483,0.245,1,0.418,1.534,0.512
			c0.565,0.094,1.136,0.151,1.708,0.171c1.119,0.029,2.229-0.205,3.242-0.683c1.033-0.435,1.985-1.041,2.817-1.791
			c0.771-0.816,1.379-1.772,1.792-2.817c0.911-2.067,0.911-4.421,0-6.487c-0.412-1.044-1.02-1.999-1.792-2.813
			c-0.831-0.754-1.783-1.361-2.817-1.796c-1.557-0.679-3.288-0.857-4.95-0.508c-0.534,0.091-1.051,0.263-1.533,0.508
			c-0.546,0.187-1.064,0.447-1.542,0.771l-1.275,1.025c-0.753,0.829-1.359,1.78-1.792,2.813c-0.911,2.067-0.911,4.421,0,6.487
			C342.451,81.076,343.057,82.028,343.81,82.859z"/>
		<path d="M360.877,108.459c0.803,0.788,1.762,1.399,2.817,1.792c1.026,0.437,2.127,0.669,3.242,0.683
			c0.542-0.016,1.083-0.073,1.617-0.171c0.566-0.082,1.115-0.255,1.625-0.513c0.543-0.188,1.059-0.447,1.533-0.771
			c0.449-0.313,0.878-0.654,1.284-1.021c0.771-0.816,1.379-1.772,1.792-2.817c0.437-1.026,0.669-2.127,0.683-3.242
			c-0.017-0.573-0.076-1.144-0.175-1.708c-0.089-0.536-0.261-1.054-0.508-1.537c-0.189-0.542-0.446-1.057-0.767-1.533
			c-0.341-0.429-0.683-0.854-1.025-1.279c-0.425-0.341-0.858-0.683-1.283-1.025c-0.475-0.324-0.99-0.583-1.533-0.771
			c-0.51-0.258-1.059-0.43-1.625-0.508c-2.778-0.482-5.621,0.372-7.675,2.304c-0.368,0.405-0.71,0.832-1.025,1.279
			c-0.324,0.474-0.582,0.99-0.767,1.533c-0.246,0.485-0.42,1.003-0.517,1.537c-0.093,0.565-0.148,1.136-0.167,1.709
			C358.432,104.66,359.317,106.824,360.877,108.459z"/>
		<path d="M367.619,133.288c-0.438,1.027-0.67,2.13-0.683,3.246c0.018,0.571,0.074,1.14,0.167,1.704
			c0.096,0.535,0.27,1.053,0.517,1.537c0.184,0.545,0.442,1.062,0.767,1.538c0.317,0.446,0.659,0.873,1.025,1.279
			c0.817,0.771,1.773,1.379,2.817,1.792c2.065,0.911,4.418,0.911,6.483,0c1.033-0.435,1.985-1.041,2.817-1.792
			c0.341-0.429,0.683-0.854,1.025-1.279c0.321-0.477,0.579-0.994,0.767-1.538c0.247-0.483,0.419-1.002,0.508-1.537
			c0.1-0.563,0.158-1.133,0.175-1.705c-0.033-2.259-0.917-4.422-2.475-6.059c-0.831-0.754-1.783-1.361-2.817-1.796
			c-3.178-1.339-6.849-0.63-9.301,1.796C368.638,131.289,368.03,132.244,367.619,133.288z"/>
		<path d="M329.56,94.546c-0.546,0.187-1.064,0.447-1.542,0.771c-0.446,0.315-0.872,0.657-1.275,1.025
			c-0.772,0.814-1.38,1.769-1.792,2.813c-0.481,1.013-0.715,2.125-0.683,3.246c0.03,2.26,0.914,4.424,2.475,6.059
			c0.425,0.341,0.85,0.683,1.275,1.021c0.477,0.324,0.996,0.583,1.542,0.771c0.483,0.245,1,0.418,1.533,0.513
			c0.565,0.098,1.136,0.155,1.709,0.171c0.542-0.016,1.083-0.073,1.617-0.171c0.566-0.082,1.115-0.255,1.625-0.513
			c0.543-0.188,1.059-0.447,1.533-0.771c0.425-0.337,0.858-0.679,1.283-1.021c1.557-1.637,2.441-3.8,2.475-6.058
			c-0.013-1.116-0.245-2.219-0.683-3.246c-0.412-1.044-1.02-1.998-1.792-2.813c-0.406-0.368-0.835-0.71-1.283-1.025
			c-0.475-0.324-0.99-0.583-1.533-0.771c-0.51-0.258-1.059-0.43-1.625-0.508c-1.093-0.258-2.232-0.258-3.325,0
			C330.56,94.129,330.043,94.3,329.56,94.546z"/>
		<path d="M309.677,82.859c0.425,0.341,0.85,0.683,1.275,1.021c0.477,0.324,0.996,0.583,1.542,0.771
			c0.483,0.245,1,0.418,1.534,0.512c0.565,0.094,1.136,0.151,1.708,0.171c2.259-0.035,4.421-0.918,6.059-2.475
			c0.771-0.816,1.379-1.772,1.792-2.817c0.437-1.026,0.669-2.127,0.683-3.242c-0.018-2.262-0.904-4.431-2.475-6.059
			c-2.044-2.014-4.956-2.877-7.767-2.304c-0.534,0.091-1.051,0.263-1.533,0.508c-0.546,0.187-1.064,0.447-1.542,0.771l-1.276,1.025
			c-0.388,0.417-0.732,0.874-1.025,1.363c-0.338,0.435-0.598,0.926-0.767,1.45c-0.259,0.51-0.434,1.059-0.517,1.625
			c-0.097,0.535-0.152,1.077-0.166,1.621c-0.031,1.119,0.203,2.23,0.683,3.242C308.318,81.076,308.924,82.028,309.677,82.859z"/>
		<path d="M282.285,54.442c0.184,0.545,0.442,1.062,0.767,1.538c0.317,0.446,0.659,0.873,1.025,1.279
			c0.803,0.788,1.762,1.399,2.817,1.792c1.026,0.437,2.127,0.669,3.242,0.683c2.259-0.035,4.421-0.918,6.059-2.475
			c0.341-0.429,0.683-0.854,1.025-1.279c0.321-0.477,0.579-0.994,0.767-1.538c0.247-0.483,0.419-1.002,0.508-1.537
			c0.099-0.563,0.158-1.133,0.175-1.705c-0.033-2.259-0.917-4.422-2.475-6.059c-2.456-2.416-6.121-3.124-9.3-1.796
			c-1.055,0.393-2.016,1.005-2.817,1.796c-1.561,1.634-2.445,3.799-2.475,6.059c0.018,0.571,0.074,1.14,0.167,1.704
			C281.865,53.439,282.039,53.957,282.285,54.442z"/>
		<path d="M182.952,58.279c0.477,0.324,0.996,0.583,1.542,0.771c0.483,0.245,1,0.418,1.533,0.513
			c0.565,0.094,1.136,0.151,1.708,0.171c0.542-0.016,1.083-0.073,1.617-0.171c0.566-0.082,1.115-0.255,1.625-0.513
			c1.018-0.416,1.946-1.025,2.733-1.792c1.842-1.791,2.769-4.322,2.519-6.879c-0.25-2.557-1.649-4.861-3.803-6.262
			c-0.435-0.339-0.926-0.6-1.45-0.771c-0.51-0.258-1.059-0.43-1.625-0.509c-2.782-0.548-5.655,0.315-7.675,2.304
			c-3.3,3.365-3.3,8.752,0,12.117C182.102,57.6,182.527,57.941,182.952,58.279z"/>
		<path d="M154.285,80.042c0.184,0.545,0.442,1.062,0.767,1.538c0.317,0.446,0.659,0.873,1.025,1.279c3.365,3.3,8.752,3.3,12.117,0
			c0.341-0.429,0.683-0.854,1.025-1.279c0.321-0.477,0.579-0.994,0.767-1.538c0.247-0.483,0.419-1.002,0.508-1.537
			c0.104-0.563,0.162-1.133,0.175-1.705c-0.013-1.116-0.245-2.219-0.683-3.246c-0.432-1.033-1.038-1.984-1.791-2.813
			c-3.421-3.158-8.695-3.158-12.117,0c-0.753,0.829-1.359,1.78-1.792,2.813c-0.481,1.013-0.715,2.125-0.683,3.246
			c0.014,0.571,0.07,1.141,0.167,1.704C153.865,79.039,154.039,79.557,154.285,80.042z"/>
		<path d="M139.01,108.459c3.365,3.3,8.752,3.3,12.117,0c0.753-0.83,1.359-1.783,1.792-2.817c0.438-1.026,0.67-2.127,0.683-3.242
			c-0.013-0.573-0.071-1.144-0.175-1.708c-0.089-0.536-0.261-1.054-0.508-1.537c-0.189-0.542-0.446-1.057-0.767-1.533
			c-0.341-0.429-0.683-0.854-1.025-1.279c-3.421-3.158-8.695-3.158-12.117,0c-0.341,0.425-0.683,0.85-1.025,1.279
			c-0.324,0.474-0.582,0.99-0.767,1.533c-0.246,0.485-0.42,1.003-0.517,1.537c-0.097,0.565-0.153,1.136-0.167,1.708
			c0.014,1.115,0.246,2.216,0.683,3.242C137.651,106.676,138.257,107.628,139.01,108.459z"/>
		<path d="M136.535,145.067c2.262-0.019,4.43-0.905,6.059-2.475c1.557-1.637,2.441-3.8,2.475-6.059
			c-0.013-1.116-0.245-2.219-0.683-3.246c-0.412-1.044-1.02-1.998-1.792-2.813c-3.421-3.158-8.695-3.158-12.117,0
			c-0.772,0.814-1.38,1.769-1.792,2.813c-0.438,1.027-0.67,2.13-0.683,3.246c0.03,2.26,0.914,4.424,2.475,6.059
			C132.104,144.164,134.273,145.051,136.535,145.067z"/>
		<path d="M171.352,105.642c0.433,1.034,1.039,1.987,1.792,2.817c1.636,1.558,3.799,2.441,6.058,2.475
			c0.542-0.016,1.083-0.073,1.617-0.171c0.566-0.082,1.115-0.255,1.625-0.513c0.524-0.171,1.015-0.432,1.45-0.771
			c0.508-0.337,0.942-0.679,1.367-1.021c0.753-0.83,1.359-1.783,1.792-2.817c0.437-1.026,0.669-2.127,0.683-3.242
			c-0.013-0.573-0.071-1.144-0.175-1.708c-0.089-0.536-0.261-1.054-0.508-1.537c-0.189-0.542-0.446-1.057-0.767-1.533
			c-0.341-0.429-0.683-0.854-1.025-1.279c-0.425-0.341-0.858-0.683-1.367-1.025c-0.435-0.339-0.926-0.6-1.45-0.771
			c-0.51-0.258-1.059-0.43-1.625-0.508c-2.783-0.561-5.661,0.303-7.675,2.304c-0.368,0.405-0.71,0.832-1.025,1.279
			c-0.324,0.474-0.582,0.99-0.767,1.533c-0.246,0.485-0.42,1.003-0.517,1.537c-0.097,0.565-0.153,1.136-0.167,1.709
			C170.638,103.519,170.872,104.63,171.352,105.642z"/>
		<path d="M193.027,68.946c-0.546,0.187-1.064,0.447-1.542,0.771l-1.275,1.025c-3.3,3.365-3.3,8.752,0,12.117
			c0.403,0.367,0.829,0.708,1.275,1.021c0.477,0.324,0.996,0.583,1.542,0.771c0.483,0.245,1,0.418,1.534,0.513
			c0.565,0.098,1.136,0.155,1.708,0.171c3.45-0.014,6.556-2.096,7.879-5.282c1.323-3.187,0.606-6.856-1.82-9.31
			c-2.05-2.003-4.956-2.865-7.767-2.304C194.027,68.529,193.51,68.7,193.027,68.946z"/>
		<path d="M215.81,57.259c0.425,0.341,0.85,0.683,1.275,1.021c0.477,0.324,0.996,0.583,1.542,0.771c0.483,0.245,1,0.418,1.534,0.512
			c0.565,0.094,1.136,0.151,1.708,0.171c2.259-0.035,4.421-0.918,6.059-2.475c0.753-0.83,1.359-1.783,1.792-2.817
			c0.437-1.026,0.669-2.127,0.683-3.242c-0.013-0.573-0.071-1.144-0.175-1.708c-0.089-0.536-0.261-1.054-0.508-1.537
			c-0.189-0.542-0.446-1.057-0.767-1.533c-0.341-0.429-0.683-0.854-1.025-1.279c-2.065-1.976-4.958-2.834-7.767-2.304
			c-0.534,0.091-1.051,0.263-1.533,0.508c-0.546,0.187-1.064,0.447-1.542,0.771l-1.275,1.025c-0.341,0.425-0.683,0.85-1.025,1.279
			c-0.324,0.474-0.582,0.99-0.767,1.533c-0.246,0.485-0.42,1.003-0.517,1.537c-0.097,0.565-0.152,1.136-0.166,1.709
			c0.014,1.115,0.246,2.216,0.683,3.242C214.431,55.486,215.039,56.442,215.81,57.259z"/>
		<path d="M324.269,358.4H187.735c-4.713,0-8.533,3.82-8.533,8.533s3.821,8.533,8.533,8.533h136.533c4.713,0,8.533-3.82,8.533-8.533
			S328.982,358.4,324.269,358.4z"/>
		<path d="M298.669,384c-2.263-0.001-4.434,0.898-6.035,2.499c-1.6,1.6-2.499,3.771-2.499,6.035h-76.8
			c-4.713,0-8.533,3.82-8.533,8.533s3.821,8.533,8.533,8.533h85.333c2.263,0.001,4.434-0.898,6.035-2.499
			c1.6-1.6,2.499-3.771,2.499-6.035v-8.533c0.001-2.263-0.898-4.434-2.499-6.035C303.103,384.898,300.932,383.999,298.669,384z"/>
	</g>
</g>
<g>
</g>
<g>
</g>
<g>
</g>
<g>
</g>
<g>
</g>
<g>
</g>
<g>
</g>
<g>
</g>
<g>
</g>
<g>
</g>
<g>
</g>
<g>
</g>
<g>
</g>
<g>
</g>
<g>
</g>
</svg>
