<?xml version="1.0" encoding="iso-8859-1"?>
<!-- Generator: Adobe Illustrator 19.0.0, SVG Export Plug-In . SVG Version: 6.00 Build 0)  -->
<svg version="1.1" id="Capa_1" xmlns="http://www.w3.org/2000/svg" xmlns:xlink="http://www.w3.org/1999/xlink" x="0px" y="0px"
	 viewBox="0 0 511.475 511.475" style="enable-background:new 0 0 511.475 511.475;" xml:space="preserve">
<g>
	<g transform="translate(2 1)">
		<path style="fill:#D84315;" d="M383.964,393.312c7.424,7.765,30.549,33.877,23.381,48.043c-8.533,16.811-51.2,33.536-25.6,58.709
			c0,0-41.045,13.483-55.808-31.915H181.553c-14.763,45.397-55.808,31.915-55.808,31.915c25.6-25.173-17.067-41.899-25.6-58.709
			c-7.168-14.165,15.957-40.277,23.381-48.043H383.964z"/>
		<g>
			<path style="fill:#BFB186;" d="M104.753,305.334c-5.955,8.196-11.453,16.713-16.469,25.515
				c-11.264-6.4-19.029-25.429-22.528-34.901c-6.315-16.811-13.568-37.632-7.168-55.467c1.661-6.191,7.33-10.451,13.739-10.325
				c10.836,2.004,20.656,7.667,27.819,16.043C99.863,266.009,101.405,285.805,104.753,305.334z"/>
			<path style="fill:#BFB186;" d="M450.524,295.947c-4.693,12.544-16.725,42.069-34.731,36.352
				c-3.136-1.124-5.949-2.999-8.192-5.461l-0.257-0.085c3.444-15.213,5.895-30.634,7.339-46.165
				c0.933,5.211,1.418,10.493,1.451,15.787c1.397-20.249,5.149-40.267,11.179-59.648c4.842-3.669,10.597-5.941,16.64-6.571
				c6.409-0.126,12.077,4.134,13.739,10.325C464.092,258.315,456.839,279.136,450.524,295.947z"/>
			<path style="fill:#BFB186;" d="M414.428,280.416v0.171c-1.444,15.531-3.895,30.952-7.339,46.165
				c-13.227,58.283-45.909,132.949-126.123,169.301c-8.549,3.885-17.831,5.893-27.221,5.888c-2.048,0-4.011-0.085-6.059-0.256
				c-7.319-0.685-14.472-2.588-21.163-5.632c-16.146-7.295-31.265-16.676-44.971-27.904c-24.543-20.44-44.344-45.977-58.027-74.837
				c-7.312-14.884-13.28-30.391-17.835-46.336c3.607-2.745,7.464-5.145,11.52-7.168c27.989-13.995,67.413-45.141,66.645-88.747
				c-0.293-10.591-2.641-21.024-6.912-30.72c-2.986-7.002-4.996-14.381-5.973-21.931c-5.205-40.704,21.333-80.64,58.965-97.536
				c3.793-1.716,7.699-3.17,11.691-4.352c28.501-8.619,56.32-4.693,78.08,16.555c5.323,4.542,8.278,11.268,8.021,18.261
				c-1.024,9.643-10.24,14.933-13.397,23.552c-3.45,9.526-3.206,19.999,0.683,29.355c2.417,5.607,5.994,10.638,10.496,14.763
				c3.836,3.606,8.287,6.496,13.141,8.533c12.373,5.035,26.112,4.011,38.229,11.008l2.048,1.28
				C398.129,232.032,410.502,257.035,414.428,280.416z"/>
		</g>
		<path style="fill:#FFE0B2;" d="M374.748,289.035v0.171c-1.444,15.531-3.895,30.952-7.339,46.165
			c-12.885,56.747-44.203,128.939-119.723,166.315c-7.319-0.685-14.472-2.588-21.163-5.632
			c-16.146-7.295-31.265-16.676-44.971-27.904c-24.543-20.44-44.344-45.977-58.027-74.837c-7.312-14.884-13.28-30.391-17.835-46.336
			c3.607-2.745,7.464-5.145,11.52-7.168c27.989-13.995,67.413-45.141,66.645-88.747c-0.293-10.591-2.641-21.024-6.912-30.72
			c-2.986-7.002-4.996-14.381-5.973-21.931c-5.205-40.704,21.333-80.64,58.965-97.536c18.799,0.014,36.821,7.505,50.091,20.821
			c5.323,4.542,8.277,11.269,8.021,18.261c-1.024,9.643-10.24,14.933-13.397,23.552c-3.45,9.526-3.206,19.999,0.683,29.355
			c2.416,5.607,5.994,10.639,10.496,14.763c3.836,3.606,8.287,6.496,13.141,8.533c12.373,5.035,26.112,4.011,38.229,11.008
			l2.048,1.28C358.449,240.651,370.822,265.654,374.748,289.035z"/>
		<path style="fill:#2FA8CC;" d="M347.612,248.075v40.533c0,9.426-7.641,17.067-17.067,17.067s-17.067-7.641-17.067-17.067v-36.267"
			/>
		<path style="fill:#FFFFFF;" d="M304.945,399.542c-3.121,9.691-5.573,19.584-7.339,29.611
			c-1.865,13.326-11.447,24.281-24.405,27.904c-12.802,2.958-26.11,2.958-38.913,0c-12.959-3.623-22.54-14.578-24.405-27.904
			c-1.765-10.027-4.217-19.92-7.338-29.611H304.945z"/>
		<path style="fill:#D84315;" d="M429.02,229.131c-0.683,2.475-1.365,5.035-1.963,7.595c-6.03,19.381-9.781,39.399-11.179,59.648
			c-0.033-5.294-0.518-10.575-1.451-15.787v-0.171c-2.649-16.161-9.05-31.475-18.688-44.715
			c-4.577-6.282-10.276-11.663-16.811-15.872l-2.048-1.28c-12.117-6.997-25.856-5.973-38.229-11.008
			c-4.855-2.037-9.305-4.927-13.141-8.533c-4.502-4.124-8.079-9.156-10.496-14.763c-3.889-9.356-4.132-19.828-0.683-29.355
			c3.157-8.619,12.373-13.909,13.397-23.552c0.256-6.993-2.698-13.719-8.021-18.261c-21.76-21.248-49.579-25.173-78.08-16.555
			c-16.938,5.214-32.229,14.742-44.373,27.648c-19.457,19.549-29.105,46.803-26.283,74.24c0.978,7.549,2.988,14.928,5.973,21.931
			c4.271,9.696,6.619,20.129,6.912,30.72c0.768,43.605-38.656,74.752-66.645,88.747c-1.451,0.768-2.901,1.536-4.267,2.389
			c-2.532,1.413-4.956,3.01-7.253,4.779c-3.584,2.627-6.952,5.538-10.069,8.704c-12.53,12.637-22.574,27.516-29.611,43.861
			c-1.657-8.226-2.06-16.656-1.195-25.003c1.861-15.449,6.948-30.335,14.933-43.691c5.016-8.801,10.515-17.319,16.469-25.515
			c-3.348-19.529-4.89-39.324-4.608-59.136h0.171c-2.042-13.15-2.757-26.472-2.133-39.765c-12.459-25.6-26.539-52.736-27.819-80.896
			c-1.109-25.259,15.957-47.019,32.683-64.341c3.925-4.011,8.021-7.936,12.288-11.605c15.235-13.284,32.602-23.9,51.371-31.403
			c24.594-8.654,50.716-12.111,76.715-10.155c21.248,0.853,49.408,4.437,61.525,24.576c0-0.171,27.989-7.253,30.72-7.851
			c24.235-4.779,53.675-5.376,75.008,8.875c20.386,14.617,35.025,35.896,41.387,60.16
			C456.838,140.726,440.625,183.99,429.02,229.131z"/>
		<path style="fill:#FF5722;" d="M395.74,235.702c-4.577-6.282-10.276-11.663-16.811-15.872l-2.048-1.28
			c-12.117-6.997-25.856-5.973-38.229-11.008c-4.855-2.037-9.305-4.927-13.141-8.533c-4.502-4.124-8.079-9.156-10.496-14.763
			c-3.889-9.356-4.132-19.828-0.683-29.355c3.157-8.619,12.373-13.909,13.397-23.552c0.256-6.993-2.698-13.719-8.021-18.261
			c-21.76-21.248-49.579-25.173-78.08-16.555c-16.938,5.214-32.229,14.742-44.373,27.648c-40.704,15.275-70.144,57.088-64.683,99.84
			c0.978,7.549,2.988,14.928,5.973,21.931c4.271,9.696,6.619,20.129,6.912,30.72c-0.726,25.55-12.607,49.5-32.512,65.536
			c-5.466,4.876-11.254,9.381-17.323,13.483c-5.403,3.577-11.017,6.825-16.811,9.728c-4.056,2.023-7.913,4.423-11.52,7.168
			c-0.853,0.597-1.621,1.28-2.475,1.963c1.861-15.449,6.948-30.335,14.933-43.691c5.016-8.801,10.515-17.319,16.469-25.515
			c-3.348-19.529-4.89-39.324-4.608-59.136h0.171c-2.042-13.15-2.757-26.472-2.133-39.765c-12.459-25.6-26.539-52.736-27.819-80.896
			c-1.109-25.259,15.957-47.019,32.683-64.341c3.925-4.011,8.021-7.936,12.288-11.605c4.267-2.133,8.533-4.096,12.971-5.803
			c24.594-8.654,50.716-12.111,76.715-10.155c21.248,0.853,49.408,4.437,61.525,24.576c0-0.171,27.989-7.253,30.72-7.851
			c24.235-4.779,53.675-5.376,75.008,8.875c20.386,14.617,35.025,35.896,41.387,60.16
			C416.561,159.67,406.236,197.302,395.74,235.702z"/>
	</g>
	<g>
		<path d="M70.91,334.204c-11.581,20.656-15.566,44.713-11.265,68c0.734,3.703,3.816,6.481,7.575,6.829
			c0.267,0.025,0.533,0.038,0.8,0.037c3.481-0.005,6.611-2.124,7.908-5.354c6.631-15.149,15.941-28.977,27.482-40.819
			c3.422,10.163,7.418,20.123,11.967,29.834c-12.944,14.415-29.13,37.108-20.841,53.485c4.335,6.991,9.896,13.143,16.417,18.158
			c7.575,6.708,16.167,14.312,16.333,20.646c-0.434,3.925-2.424,7.513-5.525,9.958c-2.121,2.087-3.002,5.129-2.325,8.027
			c0.677,2.898,2.815,5.234,5.641,6.165c5.29,1.55,10.779,2.319,16.292,2.283c19.638,0.395,37.637-10.902,45.821-28.758
			c11.809,8.647,24.474,16.061,37.795,22.124c19.543,8.871,41.964,8.872,61.508,0.004c13.328-6.061,25.992-13.489,37.787-22.165
			c8.175,17.875,26.185,29.189,45.837,28.794c5.513,0.034,11.001-0.736,16.292-2.283c2.827-0.931,4.964-3.267,5.641-6.165
			c0.677-2.898-0.204-5.939-2.325-8.027c-3.101-2.446-5.091-6.033-5.525-9.958c0.167-6.333,8.758-13.938,16.333-20.646
			c6.523-5.019,12.087-11.173,16.425-18.167c8.277-16.363-7.892-39.044-20.833-53.459c7.642-16.595,13.81-33.829,18.435-51.504
			c0.134,0.046,0.255,0.144,0.39,0.188c2.409,0.784,4.925,1.191,7.458,1.208c14.525-0.004,27.233-14.317,37.85-42.696
			c7.558-20.142,14.342-41.471,7.167-61.471c-2.969-9.705-12.091-16.203-22.233-15.837c-1.163,0.101-2.319,0.265-3.465,0.492
			c0.903-3.359,1.783-6.732,2.698-10.075c10.5-38.4,21.358-78.104,9.308-120.592c-6.9-26.222-22.773-49.196-44.858-64.925
			c-25.042-16.721-58.091-14.754-81.575-10.117c-11.958,2.617-20.092,4.504-25.633,6.088C286.028,4.717,257.828,1.333,237.195,0.504
			c-27.173-1.937-54.455,1.72-80.158,10.746c-25.151,10.132-47.871,25.474-66.667,45.017
			c-16.992,17.604-36.342,41.546-35.067,70.658c1.283,28.208,14.042,54.304,26.375,79.546l1.394,2.856
			c-0.211,6.999-0.091,13.344,0.199,18.837c-5.169-3.16-11.011-5.055-17.051-5.53c-10.178-0.376-19.316,6.195-22.2,15.963
			c-7.133,19.879-0.35,41.208,7.192,61.308C55.185,312.643,61.91,324.353,70.91,334.204z M142.528,494.529
			c1.282-3.158,1.901-6.547,1.817-9.954c-0.358-13.746-11.9-23.967-22.083-32.979c-4.795-3.719-9.008-8.133-12.5-13.096
			c-2.057-4.056,2.781-15.427,13.939-29.167c12.744,23.541,29.566,44.632,49.683,62.292
			C168.906,484.965,156.593,494.104,142.528,494.529z M401.737,438.492c-3.495,4.965-7.711,9.382-12.508,13.104
			c-10.183,9.012-21.725,19.233-22.083,32.979c-0.084,3.406,0.535,6.793,1.817,9.95c-14.05-0.421-26.354-9.543-30.84-22.864
			c20.094-17.698,36.9-38.811,49.64-62.363C398.94,423.054,403.788,434.44,401.737,438.492L401.737,438.492z M279.437,489.287
			c-15.057,6.828-32.327,6.828-47.383,0c-15.469-7-29.959-15.99-43.1-26.742c-23.602-19.669-42.635-44.245-55.775-72.017
			c-6.137-12.636-11.272-25.735-15.359-39.174c1.687-1.047,3.423-2.018,5.209-2.913c32.407-16.204,66.565-47.027,70.857-86.773
			l18.134,2.273c0.354,0.045,0.71,0.067,1.066,0.067c4.503-0.008,8.225-3.513,8.502-8.007c0.277-4.494-2.985-8.431-7.453-8.993
			l-20.27-2.541c-1.05-9.116-3.43-18.029-7.063-26.455c-1.264-3.002-2.333-6.083-3.202-9.222
			c15.512,3.413,29.843,10.873,41.535,21.623c3.597,3.047,8.982,2.601,12.029-0.996s2.601-8.982-0.996-12.029
			c-15.292-14.216-34.591-23.378-55.273-26.24c0.695-39.682,27.109-74.304,65.198-85.456c24.098-8.819,51.113-3.19,69.683,14.521
			c3.384,2.756,5.384,6.862,5.467,11.225c-0.881,3.531-2.724,6.749-5.325,9.296c-3.182,3.606-5.744,7.715-7.583,12.158
			c-5.296,13.957-3.717,29.592,4.262,42.208c-13.66,5.116-26.281,12.661-37.254,22.271c-2.333,1.962-3.441,5.019-2.909,8.02
			s2.626,5.49,5.492,6.529c2.865,1.039,6.068,0.471,8.4-1.491c11.144-10.096,24.535-17.39,39.062-21.276
			c3.679,2.947,7.729,5.399,12.046,7.293c5.879,2.202,11.97,3.792,18.175,4.746c6.52,0.815,12.859,2.709,18.758,5.604l1.983,1.233
			c17.145,13.107,28.442,32.437,31.446,53.808c-1.402,14.812-3.753,29.519-7.038,44.03C388.253,381,357.053,454.108,279.437,489.287
			L279.437,489.287z M446.12,239.675c0.85-0.042,3.442-0.204,5.283,4.687c5.183,14.438-0.675,32.413-7.125,49.596
			c-8.142,21.762-17.15,33.421-24.108,31.225c-0.609-0.232-1.19-0.532-1.732-0.893c1.351-6.407,2.636-12.835,3.646-19.367
			c2.105-1.332,3.558-3.483,4.008-5.933c0.152-0.477,0.259-0.968,0.32-1.465c1.252-18.452,4.618-36.7,10.033-54.384
			C439.358,241.252,442.67,240.066,446.12,239.675L446.12,239.675z M72.353,126.162c-0.992-22.604,15.667-42.892,30.292-58.033
			c17.091-17.795,37.759-31.767,60.641-40.996c23.517-8.129,48.442-11.387,73.259-9.575c18.583,0.75,44.467,3.679,54.558,20.45
			c1.971,3.29,5.899,4.854,9.591,3.821c0.217-0.058,0.433-0.129,0.642-0.204c3.233-0.937,27.183-7,29.442-7.496
			c16.517-3.254,47.358-6.592,68.642,7.612c18.712,13.468,32.121,33.06,37.9,55.379c10.75,37.912,0.983,73.625-9.35,111.429
			c-1.766,6.458-3.541,12.937-5.175,19.308c-0.717,2.579-1.425,5.25-1.983,7.671l-0.242,0.892
			c-1.36,5.105-2.763,10.398-4.104,15.787c-6.326-15.642-17.118-29.076-31.03-38.625l-2.292-1.425
			c-7.619-3.978-15.873-6.598-24.392-7.742c-5.023-0.754-9.961-1.999-14.742-3.717c-3.962-1.659-7.592-4.019-10.717-6.967
			c-3.605-3.293-6.474-7.312-8.417-11.792c-3.053-7.368-3.243-15.611-0.533-23.112c1.254-2.713,2.908-5.221,4.908-7.442
			c4.722-5.01,7.842-11.315,8.958-18.108c0.649-9.621-3.254-18.989-10.542-25.304c-22.958-22.143-56.483-29.356-86.517-18.616
			c-49.033,14.842-82.708,63.659-76.65,111.142c1.085,8.323,3.302,16.458,6.592,24.179c3.829,8.691,5.943,18.04,6.225,27.533
			c0.65,36.542-31.558,65.783-61.925,80.962c-4.488,2.243-8.758,4.896-12.758,7.925c-0.092,0.068-0.171,0.146-0.262,0.214
			l-0.084,0.068c-9.92,7.576-18.612,16.635-25.771,26.859c2.532-11.337,6.811-22.211,12.684-32.233
			c4.852-8.52,10.175-16.763,15.944-24.691l0.002-0.002l0.013-0.019c0.077-0.107,0.083-0.235,0.154-0.344
			c0.555-0.82,0.963-1.73,1.205-2.69c0.141-0.781,0.171-1.577,0.089-2.366c0.03-0.312,0.042-0.625,0.035-0.937
			c-3.103-18.469-4.623-37.169-4.544-55.897c0.042-0.434,0.051-0.87,0.029-1.306l0.007-0.21l-0.003-0.015
			c0.083-0.618,0.095-1.243,0.036-1.864c-1.903-12.534-2.573-25.223-2-37.888c0.005-0.133-0.06-0.246-0.06-0.378
			c-0.125-1.126-0.356-2.237-0.691-3.319c-0.054-0.124-0.039-0.258-0.099-0.381l-2.308-4.725
			C85.445,175.3,73.478,150.817,72.353,126.162z M60.045,244.483c1.867-4.992,4.408-4.883,5.267-4.808
			c7.63,1.352,14.573,5.257,19.692,11.075c0.051,17.912,1.479,35.793,4.272,53.486c-3.595,5.118-6.742,9.844-9.525,14.306
			c-5.406-7.513-9.634-15.808-12.539-24.596C60.762,276.775,54.903,258.8,60.045,244.483z"/>
		<path d="M255.745,366.408c14.153-0.866,26.793-9.151,33.233-21.783c2.078-4.202,0.377-9.294-3.809-11.404
			c-4.186-2.11-9.291-0.449-11.433,3.721c-3.563,6.867-10.306,11.514-17.992,12.4c-7.667-0.881-14.398-5.507-17.967-12.35
			c-1.359-2.735-4.076-4.535-7.124-4.72c-3.048-0.185-5.963,1.272-7.644,3.822c-1.681,2.55-1.871,5.803-0.498,8.532
			C228.952,357.257,241.592,365.542,255.745,366.408z"/>
		<path d="M365.62,238.475l-68.267,8.533c-4.468,0.562-7.73,4.498-7.453,8.993c0.277,4.494,3.999,8,8.502,8.007
			c0.357,0,0.713-0.022,1.067-0.067l7.475-0.934v26.601c0,14.138,11.462,25.6,25.6,25.6c14.138,0,25.6-11.462,25.6-25.6v-33.001
			l9.591-1.199c3.029-0.373,5.628-2.336,6.816-5.147c1.188-2.811,0.784-6.043-1.059-8.475
			C371.65,239.354,368.648,238.091,365.62,238.475z M341.078,289.608c0,4.713-3.82,8.533-8.533,8.533s-8.533-3.82-8.533-8.533
			v-28.734l17.067-2.133V289.608z"/>
		<path d="M327.828,367.308c-2.024-1.012-4.368-1.179-6.516-0.463c-2.147,0.716-3.922,2.255-4.934,4.28
			c-1.898,3.862-0.588,8.533,3.041,10.845l-15.058,10.039h-97.233l-15.058-10.039c3.629-2.312,4.939-6.983,3.041-10.845
			c-2.109-4.214-7.234-5.922-11.45-3.817c-12.802,6.249-21.16,19.001-21.783,33.233c0,4.713,3.821,8.533,8.533,8.533
			c4.713,0,8.533-3.821,8.533-8.533c0.14-2.032,0.584-4.032,1.317-5.933l17.047,11.365c2.596,8.372,4.649,16.902,6.144,25.539
			c2.391,16.673,14.447,30.339,30.692,34.792c14.206,3.339,28.994,3.339,43.2,0c16.245-4.452,28.3-18.118,30.692-34.792
			c1.495-8.637,3.548-17.167,6.144-25.539l17.005-11.337c0.741,1.92,1.199,3.937,1.36,5.989c0.023,4.713,3.862,8.515,8.575,8.492
			c4.713-0.023,8.515-3.862,8.492-8.575C348.989,386.309,340.631,373.558,327.828,367.308z M273.112,449.77
			c-11.429,2.628-23.305,2.628-34.733,0c-9.655-2.772-16.751-11-18.075-20.958c-1.112-6.649-2.563-13.237-4.347-19.738h79.578
			c-1.785,6.501-3.236,13.089-4.347,19.738C289.863,438.77,282.767,446.998,273.112,449.77z"/>
		<path d="M255.745,323.742c2.263,0.001,4.434-0.898,6.035-2.499c1.6-1.6,2.499-3.771,2.499-6.035v-34.133
			c0-4.713-3.82-8.533-8.533-8.533c-4.713,0-8.533,3.821-8.533,8.533v34.133c-0.001,2.263,0.898,4.434,2.499,6.035
			C251.311,322.843,253.482,323.742,255.745,323.742z"/>
	</g>
</g>
<g>
</g>
<g>
</g>
<g>
</g>
<g>
</g>
<g>
</g>
<g>
</g>
<g>
</g>
<g>
</g>
<g>
</g>
<g>
</g>
<g>
</g>
<g>
</g>
<g>
</g>
<g>
</g>
<g>
</g>
</svg>
