<?xml version="1.0" encoding="iso-8859-1"?>
<!-- Generator: Adobe Illustrator 19.0.0, SVG Export Plug-In . SVG Version: 6.00 Build 0)  -->
<svg version="1.1" id="Capa_1" xmlns="http://www.w3.org/2000/svg" xmlns:xlink="http://www.w3.org/1999/xlink" x="0px" y="0px"
	 viewBox="0 0 511.972 511.972" style="enable-background:new 0 0 511.972 511.972;" xml:space="preserve">
<g>
	<g transform="translate(1)">
		<path style="fill:#E91E63;" d="M458.678,242.006c-1.661-6.191-7.33-10.451-13.739-10.325
			c-10.836,2.004-20.656,7.667-27.819,16.043c0,0,24.149-133.12-85.163-165.12c-0.256-23.808-14.421-41.216-33.707-53.163
			c-22.46-12.895-47.756-20.047-73.643-20.821c-16.256-0.5-32.517,0.845-48.469,4.011c-23.155,4.459-44.729,14.936-62.549,30.379
			C95.903,59.025,83.196,79.79,76.982,102.827c-6.352,26.241-6.963,53.544-1.792,80.043c3.696,22.156,9.614,43.883,17.664,64.853
			c-7.162-8.375-16.982-14.038-27.819-16.043c-6.409-0.126-12.077,4.134-13.739,10.325c-6.4,17.835,0.853,38.656,7.168,55.467
			c4.693,12.544,16.725,42.069,34.731,36.352c3.136-1.124,5.949-2.999,8.192-5.461h0.277
			c13.239,58.27,45.926,132.882,126.102,169.216c17.299,7.851,37.144,7.851,54.443,0c80.175-36.334,112.863-110.946,126.102-169.216
			h0.277c2.243,2.463,5.056,4.338,8.192,5.461c18.005,5.717,30.037-23.808,34.731-36.352
			C457.824,280.662,465.078,259.841,458.678,242.006z"/>
		<g>
			<path style="fill:#BFB186;" d="M417.12,247.723c7.162-8.376,16.982-14.039,27.819-16.043c6.409-0.126,12.078,4.134,13.739,10.325
				c6.4,17.835-0.853,38.656-7.168,55.467c-4.693,12.544-16.725,42.069-34.731,36.352c-3.136-1.124-5.949-2.999-8.192-5.461h-307.2
				c-2.243,2.463-5.056,4.338-8.192,5.461c-18.005,5.717-30.037-23.808-34.731-36.352c-6.315-16.811-13.568-37.632-7.168-55.467
				c1.661-6.191,7.33-10.452,13.739-10.325c10.836,2.004,20.657,7.667,27.819,16.043H417.12z"/>
			<path style="fill:#BFB186;" d="M417.12,247.723c0.283,27.105-2.668,54.148-8.789,80.555
				c-13.227,58.283-45.909,132.949-126.123,169.301c-7.994,3.642-16.647,5.616-25.429,5.803c-0.595,0.071-1.193,0.1-1.792,0.085
				c-9.39,0.005-18.673-2.003-27.221-5.888c-80.213-36.352-112.896-111.019-126.123-169.301
				c-6.121-26.407-9.072-53.449-8.789-80.555c0,0,0.512-3.072,1.877-8.277c4.779-17.92,19.797-60.501,58.709-81.408
				c15.508-8.17,32.821-12.307,50.347-12.032c12.337,0.061,24.653-1.054,36.779-3.328c29.448-4.929,56.672-18.78,77.995-39.68
				c5.01-4.885,9.448-10.324,13.227-16.213c0.13-0.904,0.187-1.817,0.171-2.731v-1.451
				C441.27,114.603,417.12,247.723,417.12,247.723z"/>
		</g>
		<path style="fill:#FFE0B2;" d="M380.683,258.987c0.283,27.105-2.668,54.148-8.789,80.555
			c-12.629,55.552-42.837,125.952-115.115,163.84c-0.595,0.071-1.193,0.1-1.792,0.085c-9.39,0.005-18.673-2.003-27.221-5.888
			c-80.213-36.352-112.896-111.019-126.123-169.301c-6.121-26.407-9.072-53.449-8.789-80.555c0,0,0.512-3.072,1.877-8.277
			c4.779-17.92,19.797-60.501,58.709-81.408c4.618-0.523,9.262-0.779,13.909-0.768c25.167,0.416,50.131-4.559,73.216-14.592
			c22.227-9.209,41.271-24.724,54.784-44.629c0.13-0.904,0.187-1.817,0.171-2.731v-1.451c7.957,2.293,15.673,5.351,23.04,9.131
			C401.248,145.665,380.683,258.987,380.683,258.987z"/>
		<g>
			<path style="fill:#CC4B4C;" d="M254.987,366.934c-4.713,0-8.533-3.82-8.533-8.533s3.821-8.533,8.533-8.533
				c7.685-0.886,14.428-5.533,17.992-12.4c2.142-4.17,7.247-5.831,11.433-3.721c4.186,2.11,5.887,7.202,3.809,11.404
				C281.78,357.783,269.14,366.068,254.987,366.934z"/>
			<path style="fill:#CC4B4C;" d="M254.987,366.934c-14.153-0.866-26.793-9.151-33.233-21.783c-1.372-2.728-1.182-5.982,0.498-8.531
				c1.681-2.55,4.596-4.007,7.644-3.822c3.048,0.185,5.765,1.985,7.124,4.72c3.569,6.843,10.3,11.469,17.967,12.35
				c4.713,0,8.533,3.82,8.533,8.533S259.7,366.934,254.987,366.934z"/>
		</g>
		<g>
			<path style="fill:#02A9F4;" d="M203.787,260.865v25.003c0,11.782-9.551,21.333-21.333,21.333s-21.333-9.551-21.333-21.333V260.95
				"/>
			<path style="fill:#02A9F4;" d="M348.854,260.95v24.917c0,11.782-9.551,21.333-21.333,21.333s-21.333-9.551-21.333-21.333v-25.003
				"/>
		</g>
		<path style="fill:#9D27B0;" d="M331.958,82.603v1.451c0.017,0.913-0.04,1.827-0.171,2.731c0,0-34.133,59.221-128,59.221
			c-77.483,0-102.656,69.291-109.056,93.44l-1.877-0.512c0,0-25.6-119.467,85.333-128s119.467-68.267,119.467-76.8l0.597-4.693
			C317.536,41.387,331.702,58.795,331.958,82.603z"/>
		<g>
			<path style="fill:#F18D46;" d="M365.92,153.601c-2.27,0.022-4.453-0.87-6.058-2.475c-1.605-1.605-2.497-3.788-2.475-6.058
				c0.013-1.116,0.245-2.219,0.683-3.246c0.433-1.033,1.039-1.984,1.792-2.813c2.02-1.989,4.893-2.852,7.675-2.304
				c0.566,0.079,1.115,0.25,1.625,0.508c0.524,0.171,1.015,0.432,1.45,0.771c0.508,0.341,0.942,0.683,1.367,1.025
				c0.753,0.829,1.359,1.78,1.792,2.813c0.438,1.027,0.67,2.13,0.683,3.246c-0.013,0.572-0.071,1.142-0.175,1.704
				c-0.089,0.536-0.261,1.054-0.508,1.537c-0.188,0.544-0.445,1.061-0.767,1.538c-0.341,0.425-0.683,0.85-1.025,1.279
				c-0.425,0.341-0.858,0.683-1.367,1.021c-0.435,0.339-0.926,0.6-1.45,0.771c-0.51,0.258-1.059,0.431-1.625,0.513
				C367.003,153.528,366.463,153.585,365.92,153.601z"/>
			<path style="fill:#F18D46;" d="M348.854,128.001c-2.259-0.033-4.422-0.917-6.059-2.475c-0.753-0.83-1.359-1.783-1.792-2.817
				c-0.437-1.026-0.669-2.127-0.683-3.242c0.03-2.26,0.914-4.424,2.475-6.059c2.472-2.386,6.118-3.09,9.3-1.796
				c1.034,0.435,1.987,1.042,2.817,1.796c0.341,0.425,0.683,0.85,1.025,1.279c0.32,0.476,0.578,0.991,0.767,1.533
				c0.247,0.483,0.419,1.002,0.508,1.537c0.104,0.564,0.162,1.135,0.175,1.709c-0.014,1.115-0.246,2.216-0.683,3.242
				c-0.433,1.034-1.039,1.987-1.792,2.817c-0.832,0.751-1.784,1.357-2.817,1.792C351.07,127.755,349.968,127.987,348.854,128.001z"
				/>
			<path style="fill:#F18D46;" d="M331.787,153.601c-2.27,0.022-4.453-0.87-6.058-2.475c-1.605-1.605-2.497-3.788-2.475-6.058
				c-0.032-1.121,0.203-2.233,0.683-3.246c0.433-1.033,1.039-1.984,1.792-2.813c3.421-3.158,8.695-3.158,12.117,0
				c0.753,0.829,1.359,1.78,1.792,2.813c0.438,1.027,0.67,2.13,0.683,3.246c0.022,2.27-0.87,4.453-2.475,6.058
				C336.24,152.731,334.057,153.623,331.787,153.601z"/>
			<path style="fill:#F18D46;" d="M382.987,179.201c-0.573-0.02-1.143-0.077-1.708-0.171c-0.533-0.095-1.05-0.268-1.533-0.512
				c-0.546-0.187-1.064-0.447-1.542-0.771c-0.425-0.338-0.85-0.679-1.275-1.021c-0.753-0.83-1.359-1.783-1.792-2.817
				c-0.437-1.026-0.669-2.127-0.683-3.242c-0.02-3.467,2.059-6.601,5.261-7.931s6.89-0.59,9.331,1.872
				c0.341,0.425,0.683,0.85,1.025,1.279c0.32,0.476,0.578,0.991,0.767,1.533c0.247,0.483,0.419,1.002,0.508,1.537
				c0.104,0.564,0.162,1.135,0.175,1.709c-0.014,1.115-0.246,2.216-0.683,3.242c-0.433,1.034-1.039,1.987-1.792,2.817
				c-0.425,0.341-0.858,0.683-1.283,1.021c-0.474,0.324-0.99,0.583-1.533,0.771c-0.484,0.244-1,0.416-1.533,0.513
				C384.131,179.127,383.56,179.184,382.987,179.201z"/>
			<path style="fill:#F18D46;" d="M348.854,179.201c-2.259-0.033-4.422-0.917-6.059-2.475c-1.574-1.625-2.461-3.796-2.475-6.059
				c0.03-2.26,0.914-4.424,2.475-6.059c2.472-2.386,6.118-3.09,9.3-1.796c1.034,0.435,1.987,1.042,2.817,1.796
				c0.341,0.425,0.683,0.85,1.025,1.279c0.32,0.476,0.578,0.991,0.767,1.533c0.247,0.483,0.419,1.002,0.508,1.537
				c0.104,0.564,0.162,1.135,0.175,1.709c-0.017,0.572-0.076,1.141-0.175,1.704c-0.089,0.536-0.261,1.054-0.508,1.537
				c-0.188,0.544-0.445,1.061-0.767,1.538c-0.341,0.425-0.683,0.85-1.025,1.279c-0.832,0.751-1.784,1.357-2.817,1.792
				C351.07,178.955,349.969,179.187,348.854,179.201z"/>
		</g>
		<path style="fill:#E91E63;" d="M323.168,418.134c-22.255,5.818-45.179,8.687-68.181,8.533
			c-23.031,0.153-45.982-2.716-68.267-8.533c0,0,30.379-25.6,45.483-25.6c8.433-0.336,16.646,2.74,22.784,8.533
			c6.138-5.794,14.351-8.87,22.784-8.533C292.363,392.534,321.376,416.598,323.168,418.134z"/>
		<path style="fill:#AD1457;" d="M323.254,418.134c0,0-22.784,51.2-68.267,51.2s-68.267-51.2-68.267-51.2
			c22.285,5.817,45.236,8.686,68.267,8.533c23.003,0.153,45.926-2.716,68.181-8.533H323.254z"/>
	</g>
	<g>
		<path d="M96.804,341.93c0.242-0.075,0.475-0.15,0.708-0.233c15.408,58.275,50.042,128.438,127.692,163.658
			c9.656,4.387,20.144,6.643,30.75,6.617h0.067c10.606,0.027,21.094-2.23,30.75-6.617c77.65-35.221,112.283-105.383,127.692-163.658
			c0.233,0.083,0.475,0.162,0.708,0.233c17.658,5.592,32.925-8.358,45.358-41.471c7.558-20.146,14.333-41.479,7.125-61.338
			c-2.942-9.704-12.023-16.232-22.158-15.929c-6.028,0.456-11.86,2.344-17.011,5.507c1.818-39.472-4.527-124.464-87.5-152.41
			c-5.439-52.799-72.067-74.825-115.072-76.18c-16.907-0.526-33.819,0.855-50.417,4.117c-24.647,4.73-47.602,15.9-66.533,32.375
			c-18.921,17.094-32.514,39.28-39.15,63.9c-6.845,27.409-7.536,55.993-2.025,83.7c2.314,14.059,5.565,27.947,9.73,41.572
			c-3.508-1.464-7.235-2.337-11.029-2.581c-10.141-0.305-19.229,6.225-22.175,15.933c-7.2,19.854-0.425,41.188,7.133,61.338
			C63.879,333.576,79.179,347.521,96.804,341.93z M446.387,240.234c0.825-0.033,3.45-0.167,5.225,4.717
			c5.225,14.387-0.625,32.35-7.067,49.512c-8.283,22.083-17.158,33.446-24.225,31.2c-0.644-0.217-1.257-0.515-1.825-0.887
			c5.213-24.148,7.96-48.763,8.2-73.467C431.855,245.543,438.78,241.649,446.387,240.234z M409.72,246.205
			c-0.014,0.331-0.006,0.662,0.021,0.992c-0.064,0.289-0.113,0.581-0.146,0.874c0.075,1.796,5.792,180.2-129.875,241.742
			c-7.443,3.377-15.526,5.114-23.7,5.092h-0.067c-8.174,0.022-16.257-1.714-23.7-5.092
			c-131.901-59.836-130.135-230.588-129.89-241.177c1.381-7.182,19.885-94.131,102.423-94.131
			c88.132,0,126.128-49.436,133.828-61.026C429.965,126.873,410.62,241.218,409.72,246.205z M324.42,83.938v0.1
			c-6.067,9.142-39.575,53.4-119.633,53.4c-58.481,0-89.279,36.898-104.845,67.74c-0.013-19.83,5.941-39.205,17.086-55.606
			c13.3-17.808,34.433-27.946,62.817-30.129c97.262-7.482,120.229-53.854,125.653-74.913
			C317.503,54.078,324.475,68.598,324.42,83.938z M86.229,105.167c5.741-21.464,17.545-40.82,34-55.75
			c16.664-14.483,36.865-24.296,58.55-28.442c13.226-2.595,26.672-3.904,40.15-3.908c2.15,0,4.3,0.033,6.45,0.1
			c22.566,0.749,44.687,6.479,64.78,16.779c-0.002,0.066-0.038,0.121-0.038,0.188c0,0.596-1.275,59.808-111.592,68.292
			c-33.5,2.579-58.792,15.004-75.175,36.933c-9.468,13.165-15.729,28.359-18.286,44.372c-0.122-0.729-0.315-1.484-0.431-2.21
			C79.554,156.262,80.097,130.193,86.229,105.167z M60.354,244.955c1.583-4.346,3.8-4.733,4.883-4.733
			c0.142,0,0.258,0.009,0.358,0.012c7.604,1.417,14.525,5.311,19.683,11.075c0.24,24.703,2.987,49.318,8.2,73.467
			c-0.568,0.373-1.181,0.671-1.825,0.887c-7.067,2.233-15.942-9.117-24.225-31.196C60.987,277.3,55.137,259.338,60.354,244.955z"/>
		<path d="M226.57,333.701c-2.025,1.012-3.564,2.787-4.28,4.934s-0.549,4.491,0.463,6.516c6.44,12.632,19.08,20.917,33.233,21.783
			c14.153-0.866,26.793-9.151,33.233-21.783c2.078-4.202,0.377-9.294-3.809-11.404c-4.186-2.11-9.291-0.449-11.433,3.721
			c-3.563,6.867-10.306,11.514-17.992,12.4c-7.667-0.881-14.398-5.507-17.967-12.35C235.908,333.307,230.787,331.6,226.57,333.701z"
			/>
		<path d="M137.512,226.288c8.172-9.673,19.667-15.938,32.225-17.562c17.167-1.892,35.942,5.579,55.7,22.242
			c2.331,1.965,5.534,2.537,8.401,1.501c2.867-1.036,4.964-3.524,5.5-6.525s-0.57-6.061-2.901-8.026
			c-23.608-19.904-46.808-28.679-68.925-26.113c-17.135,2.181-32.774,10.872-43.675,24.271c-2.786,3.777-1.999,9.095,1.762,11.903
			C129.359,230.787,134.681,230.032,137.512,226.288L137.512,226.288z"/>
		<path d="M344.462,191.804c-22.142-2.575-45.317,6.217-68.925,26.113c-2.331,1.965-3.437,5.024-2.901,8.026
			c0.536,3.001,2.633,5.489,5.5,6.525c2.867,1.036,6.07,0.464,8.401-1.501c19.758-16.663,38.508-24.138,55.7-22.242
			c12.557,1.626,24.051,7.889,32.225,17.558c2.824,3.76,8.158,4.526,11.926,1.713s4.55-8.145,1.749-11.921
			C377.236,202.676,361.597,193.985,344.462,191.804z"/>
		<path d="M213.32,285.867v-12.54c4.279,1.926,8.39,4.204,12.292,6.811c2.526,1.716,5.776,1.95,8.523,0.616
			c2.746-1.335,4.57-4.035,4.782-7.082c0.212-3.046-1.22-5.973-3.755-7.676c-8.191-5.582-17.187-9.88-26.677-12.744
			c-0.477-0.204-0.971-0.363-1.478-0.475c-15.285-4.306-31.463-4.301-46.746,0.014c-0.612,0.105-1.211,0.277-1.786,0.513
			c-9.741,2.813-18.946,7.226-27.239,13.058c-3.703,2.918-4.339,8.285-1.421,11.987c2.918,3.703,8.285,4.339,11.987,1.421
			c3.685-2.626,7.634-4.861,11.784-6.666v12.763c0,16.495,13.372,29.867,29.867,29.867S213.32,302.362,213.32,285.867z
			 M170.654,285.867v-18.083c8.461-1.584,17.142-1.577,25.6,0.021v18.063c0,7.069-5.731,12.8-12.8,12.8
			C176.384,298.667,170.654,292.936,170.654,285.867z"/>
		<path d="M353.511,253.313c-0.595-0.247-1.216-0.425-1.851-0.531c-15.271-4.305-31.435-4.305-46.707-0.001
			c-0.499,0.111-0.987,0.268-1.458,0.469c-9.492,2.863-18.491,7.162-26.683,12.747c-2.535,1.702-3.967,4.63-3.755,7.676
			c0.212,3.046,2.036,5.747,4.782,7.082c2.746,1.335,5.997,1.1,8.523-0.616c3.903-2.612,8.014-4.899,12.292-6.839v12.568
			c0,16.495,13.372,29.867,29.867,29.867c16.495,0,29.867-13.372,29.867-29.867v-12.873c4.164,1.836,8.119,4.111,11.8,6.786
			c3.706,2.894,9.054,2.245,11.96-1.451c2.906-3.696,2.276-9.046-1.41-11.965C372.445,260.539,363.245,256.129,353.511,253.313z
			 M341.32,285.867c0,7.069-5.731,12.8-12.8,12.8s-12.8-5.731-12.8-12.8v-18.156c8.454-1.628,17.138-1.65,25.6-0.064V285.867z"/>
		<path d="M360.862,151.126c1.636,1.558,3.8,2.441,6.059,2.475c0.542-0.016,1.083-0.073,1.617-0.171
			c0.566-0.082,1.115-0.255,1.625-0.512c0.524-0.171,1.015-0.432,1.45-0.771c0.508-0.337,0.942-0.679,1.367-1.021
			c0.341-0.429,0.683-0.854,1.025-1.279c0.321-0.477,0.579-0.994,0.767-1.538c0.247-0.483,0.419-1.002,0.508-1.537
			c0.104-0.563,0.162-1.132,0.175-1.704c-0.013-1.116-0.245-2.219-0.683-3.246c-0.433-1.033-1.039-1.984-1.792-2.813
			c-0.425-0.341-0.858-0.683-1.367-1.025c-0.435-0.339-0.926-0.6-1.45-0.771c-0.51-0.258-1.059-0.43-1.625-0.508
			c-2.782-0.548-5.655,0.315-7.675,2.304c-0.753,0.829-1.359,1.78-1.792,2.813c-0.438,1.027-0.67,2.13-0.683,3.246
			C358.417,147.327,359.301,149.491,360.862,151.126z"/>
		<path d="M343.795,125.526c1.636,1.558,3.8,2.441,6.059,2.475c1.115-0.014,2.216-0.246,3.242-0.683
			c1.033-0.435,1.985-1.041,2.817-1.792c0.753-0.83,1.359-1.783,1.792-2.817c0.437-1.025,0.669-2.127,0.683-3.241
			c-0.013-0.573-0.071-1.144-0.175-1.708c-0.089-0.536-0.261-1.054-0.508-1.537c-0.189-0.542-0.446-1.057-0.767-1.533
			c-0.341-0.429-0.683-0.854-1.025-1.279c-0.831-0.754-1.783-1.361-2.817-1.796c-3.182-1.294-6.828-0.59-9.3,1.796
			c-1.561,1.634-2.445,3.799-2.475,6.059c0.014,1.115,0.246,2.216,0.683,3.242C342.436,123.743,343.042,124.696,343.795,125.526z"/>
		<path d="M326.728,139.009c-0.753,0.829-1.359,1.78-1.792,2.813c-0.481,1.013-0.715,2.125-0.683,3.246
			c0,4.713,3.82,8.533,8.533,8.533s8.533-3.821,8.533-8.533c-0.013-1.116-0.245-2.219-0.683-3.246
			c-0.433-1.033-1.039-1.984-1.792-2.813C335.424,135.85,330.15,135.85,326.728,139.009z"/>
		<path d="M376.137,173.909c0.433,1.034,1.039,1.987,1.792,2.817c0.425,0.341,0.85,0.683,1.275,1.021
			c0.477,0.324,0.996,0.583,1.542,0.771c0.483,0.245,1,0.418,1.533,0.513c0.565,0.094,1.136,0.151,1.708,0.171
			c0.573-0.016,1.144-0.073,1.708-0.171c0.533-0.096,1.049-0.269,1.533-0.512c0.543-0.188,1.059-0.447,1.533-0.771
			c0.425-0.337,0.858-0.679,1.283-1.021c0.753-0.83,1.359-1.783,1.792-2.817c0.437-1.026,0.669-2.127,0.683-3.242
			c-0.013-0.573-0.071-1.145-0.175-1.708c-0.089-0.536-0.261-1.054-0.508-1.537c-0.189-0.542-0.446-1.057-0.767-1.533
			c-0.341-0.429-0.683-0.854-1.025-1.279c-2.441-2.461-6.129-3.201-9.331-1.872c-3.202,1.329-5.281,4.463-5.261,7.93
			C375.467,171.782,375.7,172.883,376.137,173.909z"/>
		<path d="M353.095,178.517c1.033-0.435,1.985-1.041,2.817-1.792c0.341-0.429,0.683-0.854,1.025-1.279
			c0.321-0.477,0.579-0.994,0.767-1.538c0.247-0.483,0.419-1.002,0.508-1.537c0.099-0.563,0.158-1.132,0.175-1.704
			c-0.013-0.573-0.071-1.145-0.175-1.708c-0.089-0.536-0.261-1.054-0.508-1.537c-0.189-0.542-0.446-1.057-0.767-1.533
			c-0.341-0.429-0.683-0.854-1.025-1.279c-0.831-0.754-1.783-1.361-2.817-1.796c-3.182-1.294-6.828-0.59-9.3,1.796
			c-1.561,1.634-2.445,3.799-2.475,6.059c0.014,2.263,0.9,4.433,2.475,6.059c1.636,1.558,3.8,2.441,6.059,2.475
			C350.969,179.187,352.07,178.955,353.095,178.517z"/>
		<path d="M332.497,416.036c-0.012-0.05,0.004-0.098-0.01-0.148c-0.052-0.19-0.191-0.323-0.255-0.506
			c-0.255-0.759-0.617-1.477-1.076-2.132c-0.468-0.545-0.935-1.091-1.402-1.636c-5.458-4.613-33.608-27.612-51.008-27.612
			c-8.023-0.116-15.915,2.047-22.758,6.238c-6.843-4.19-14.735-6.354-22.758-6.238c-17.4,0-45.55,23-51.008,27.612
			c-0.468,0.547-0.937,1.094-1.406,1.64c-0.457,0.654-0.817,1.37-1.071,2.126c-0.064,0.184-0.204,0.318-0.256,0.509
			c-0.014,0.05,0.003,0.098-0.01,0.148c-0.256,1.003-0.327,2.045-0.207,3.074c0.057,0.278,0.129,0.553,0.215,0.823
			c0.087,0.569,0.233,1.128,0.435,1.667c1.025,2.296,25.592,56.267,76.067,56.267s75.042-53.971,76.067-56.267
			c0.202-0.539,0.348-1.098,0.435-1.667c0.086-0.27,0.158-0.545,0.215-0.823C332.823,418.082,332.753,417.04,332.497,416.036z
			 M249.612,406.734c1.66,1.748,3.965,2.738,6.375,2.738c2.41,0,4.715-0.99,6.375-2.738c4.539-3.908,10.4-5.935,16.383-5.667
			c9.384,2.298,18.145,6.638,25.659,12.71c-32.045,5.527-64.8,5.527-96.845-0.002c7.516-6.076,16.281-10.416,25.67-12.709
			C239.213,400.792,245.076,402.82,249.612,406.734z M255.987,460.801c-23.815,0-40.865-16.755-50.677-30.077
			c33.543,5.973,67.878,5.969,101.42-0.01C296.962,444.034,279.939,460.801,255.987,460.801z"/>
	</g>
</g>
<g>
</g>
<g>
</g>
<g>
</g>
<g>
</g>
<g>
</g>
<g>
</g>
<g>
</g>
<g>
</g>
<g>
</g>
<g>
</g>
<g>
</g>
<g>
</g>
<g>
</g>
<g>
</g>
<g>
</g>
</svg>
