<?xml version="1.0" encoding="iso-8859-1"?>
<!-- Generator: Adobe Illustrator 19.0.0, SVG Export Plug-In . SVG Version: 6.00 Build 0)  -->
<svg version="1.1" id="Capa_1" xmlns="http://www.w3.org/2000/svg" xmlns:xlink="http://www.w3.org/1999/xlink" x="0px" y="0px"
	 viewBox="0 0 511.319 511.319" style="enable-background:new 0 0 511.319 511.319;" xml:space="preserve">
<g>
	<g transform="translate(2 1)">
		<path style="fill:#FFB301;" d="M434.068,95.846c-10.03-17.393-22.47-33.28-36.949-47.189
			c-23.188-23.475-53.991-37.908-86.869-40.704c-12.877-1.063-25.842-0.055-38.4,2.987c-10.076,2.38-18.901,8.436-24.747,16.981
			h-0.085l-0.939-0.597c-1.877-8.875-15.275-14.848-24.235-17.067c-11.661-2.463-23.612-3.268-35.499-2.389
			c-29.53,1.92-57.644,13.357-80.128,32.597c-3.629,2.948-7.104,6.081-10.411,9.387c-8.938,8.531-16.895,18.033-23.723,28.331
			c-22.269,33.097-33.143,72.551-30.976,112.384c0.751,13.846,3.748,27.478,8.875,40.363c1.766-0.795,3.699-1.146,5.632-1.024
			c10.836,2.004,20.656,7.667,27.819,16.043c0,0,0-53.077,30.208-89.429c19.712-23.808,52.309-40.448,106.325-30.293l1.877-0.427
			h0.085c3.403,17.098,12.16,32.669,25.003,44.459c17.152,15.275,41.472,21.419,63.829,25.856
			c18.855,2.851,37.398,7.479,55.381,13.824c7.362,2.896,14.329,6.709,20.736,11.349c13.039,9.811,20.742,25.154,20.821,41.472
			c0,0,0.085,1.536,0.085,4.437c-0.116,12.793-1.085,25.565-2.901,38.229h36.949c0.57-0.016,1.141,0.012,1.707,0.085l6.827-0.085
			c1.28-2.56,2.389-5.12,3.499-7.68c8.17-19.479,12.822-40.252,13.739-61.355C470.103,187.298,458.464,138.52,434.068,95.846z"/>
		<path style="fill:#FFEB3A;" d="M433.471,261.905c-0.688,14.749-3.152,29.361-7.339,43.52h-21.248
			c1.816-12.664,2.786-25.436,2.901-38.229c0-2.901-0.085-4.437-0.085-4.437c-0.079-16.318-7.782-31.661-20.821-41.472
			c-6.407-4.641-13.374-8.454-20.736-11.349c-17.983-6.345-36.526-10.973-55.381-13.824c-22.357-4.437-46.677-10.581-63.829-25.856
			c-12.843-11.789-21.6-27.36-25.003-44.459h-0.085l-1.877,0.427c-54.016-10.155-86.613,6.485-106.325,30.293
			c-30.208,36.352-30.208,89.429-30.208,89.429c-7.162-8.375-16.982-14.038-27.819-16.043c-1.933-0.122-3.866,0.229-5.632,1.024
			c-5.127-12.884-8.124-26.516-8.875-40.363c-2.167-39.833,8.707-79.287,30.976-112.384c6.828-10.298,14.785-19.8,23.723-28.331
			c17.279-9.768,36.585-15.405,56.405-16.469c11.886-0.878,23.837-0.074,35.499,2.389c8.96,2.219,22.358,8.192,24.235,17.067
			l0.939,0.597h0.085c5.846-8.545,14.671-14.6,24.747-16.981c12.558-3.041,25.523-4.05,38.4-2.987
			c32.878,2.796,63.681,17.229,86.869,40.704c14.479,13.909,26.919,29.796,36.949,47.189
			C424.331,164.035,435.97,212.813,433.471,261.905z"/>
		<path style="fill:#FFB301;" d="M458.729,407.057c-9.557,33.792-57.344,50.603-9.557,92.757c0,0-101.291,22.357-81.579-87.296
			c14.534-23.915,25.191-49.979,31.573-77.227v12.8h40.448C439.615,348.091,468.201,373.35,458.729,407.057z"/>
		<path style="fill:#E91E63;" d="M464.873,317.371v10.24c-0.033,11.297-9.183,20.447-20.48,20.48h-51.2v-15.36
			c2.888-11.824,5.178-23.786,6.861-35.84h44.339c0.684-0.02,1.369,0.015,2.048,0.102
			C456.894,298.07,464.847,306.864,464.873,317.371z"/>
		<path style="fill:#BFB186;" d="M407.785,267.195c-0.116,12.793-1.085,25.565-2.901,38.229c-1.402,10.045-3.31,20.014-5.717,29.867
			c-6.383,27.247-17.039,53.312-31.573,77.227c-22.374,36.659-55.342,65.67-94.549,83.2c-9.06,4.08-18.907,6.12-28.843,5.973
			c-8.927-0.206-17.72-2.208-25.856-5.888c-80.213-36.352-112.896-111.019-126.123-169.301c-6.121-26.407-9.072-53.449-8.789-80.555
			c0,0,0-85.675,61.781-113.835c23.686-9.742,49.833-11.801,74.752-5.888l1.877-0.427h0.085
			c3.403,17.098,12.16,32.669,25.003,44.459c17.152,15.275,41.472,21.419,63.829,25.856c18.855,2.851,37.398,7.479,55.381,13.824
			c7.362,2.896,14.329,6.709,20.736,11.349c13.039,9.811,20.742,25.154,20.821,41.472
			C407.7,262.758,407.785,264.294,407.785,267.195z"/>
		<path style="fill:#FFE0B2;" d="M373.567,275.729c-0.116,12.793-1.085,25.565-2.901,38.229
			c-1.402,10.045-3.311,20.014-5.717,29.867c-6.383,27.247-17.039,53.312-31.573,77.227c-21.288,34.948-52.267,62.963-89.173,80.64
			c-8.927-0.206-17.72-2.208-25.856-5.888c-80.213-36.352-112.896-111.019-126.123-169.301c-6.121-26.407-9.072-53.449-8.789-80.555
			c0,0,0-85.675,61.781-113.835c13.569-0.896,27.196-0.007,40.533,2.645l1.877-0.341h0.085
			c3.424,17.066,12.179,32.604,25.003,44.373c17.152,15.36,41.472,21.419,63.829,25.941c18.853,2.822,37.396,7.422,55.381,13.739
			c7.381,2.892,14.352,6.736,20.736,11.435c13.051,9.764,20.76,25.088,20.821,41.387
			C373.481,271.291,373.567,272.827,373.567,275.729z"/>
		<g>
			<path style="fill:#1566C0;" d="M219.967,254.225c0,28.245-28.672,68.267-64,68.267c-4.378-0.016-8.737-0.589-12.971-1.707
				c-30.891-7.936-59.563-41.813-59.563-66.56s28.672-45.483,59.563-50.176c4.29-0.683,8.627-1.026,12.971-1.024
				C191.295,203.025,219.967,225.979,219.967,254.225z"/>
			<path style="fill:#1566C0;" d="M407.7,254.225c0,28.245-37.205,68.267-72.533,68.267c-4.267-0.005-8.514-0.579-12.629-1.707
				c-28.852-9.974-49.033-36.122-51.371-66.56c0-24.747,22.101-45.483,51.371-50.176c4.174-0.69,8.398-1.033,12.629-1.024
				C370.495,203.025,407.7,225.979,407.7,254.225z"/>
		</g>
		<g>
			<path style="fill:#2296F3;" d="M194.367,254.225c-2.338,30.438-22.518,56.586-51.371,66.56
				c-30.891-7.936-59.563-41.813-59.563-66.56s28.672-45.483,59.563-50.176C172.265,208.742,194.367,229.478,194.367,254.225z"/>
			<path style="fill:#2296F3;" d="M382.1,254.225c0,24.747-28.672,58.624-59.563,66.56c-28.852-9.974-49.033-36.122-51.371-66.56
				c0-24.747,22.101-45.483,51.371-50.176C353.428,208.742,382.1,229.478,382.1,254.225z"/>
		</g>
		<path style="fill:#BFB186;" d="M93.786,324.938l-0.256,0.085c-2.243,2.463-5.056,4.338-8.192,5.461
			c-18.005,5.717-30.037-23.808-34.731-36.352c-6.315-16.811-13.568-37.632-7.168-55.467c1.274-4.103,4.216-7.479,8.107-9.301
			c1.766-0.795,3.699-1.146,5.632-1.024c10.836,2.004,20.656,7.667,27.819,16.043C84.714,271.489,87.665,298.532,93.786,324.938z"/>
		<g>
			<path style="fill:#2C3E50;" d="M185.833,262.758h-51.2c-4.713,0-8.533-3.821-8.533-8.533c0-4.713,3.821-8.533,8.533-8.533h51.2
				c4.713,0,8.533,3.821,8.533,8.533C194.367,258.938,190.546,262.758,185.833,262.758z"/>
			<path style="fill:#2C3E50;" d="M160.233,279.825c-2.263,0.001-4.434-0.898-6.035-2.499c-1.6-1.6-2.499-3.771-2.499-6.035v-17.067
				c0-4.713,3.82-8.533,8.533-8.533s8.533,3.821,8.533,8.533v17.067c0.001,2.263-0.898,4.434-2.499,6.035
				C164.667,278.926,162.497,279.825,160.233,279.825z"/>
			<path style="fill:#2C3E50;" d="M356.5,262.758h-51.2c-4.713,0-8.533-3.821-8.533-8.533c0-4.713,3.821-8.533,8.533-8.533h51.2
				c4.713,0,8.533,3.821,8.533,8.533C365.033,258.938,361.213,262.758,356.5,262.758z"/>
			<path style="fill:#2C3E50;" d="M330.9,279.825c-2.263,0.001-4.434-0.898-6.035-2.499c-1.6-1.6-2.499-3.771-2.499-6.035v-17.067
				c0-4.713,3.82-8.533,8.533-8.533s8.533,3.821,8.533,8.533v17.067c0.001,2.263-0.898,4.434-2.499,6.035
				C335.334,278.926,333.163,279.825,330.9,279.825z"/>
		</g>
	</g>
	<g>
		<path d="M43.025,299.687c12.433,33.112,27.742,47.058,45.358,41.467c0.242-0.075,0.475-0.15,0.708-0.233
			c15.408,58.275,50.042,128.438,127.692,163.658c19.644,8.885,42.168,8.848,61.783-0.1c31.025-13.882,58.45-34.7,80.162-60.851
			c-0.433,18.296,6.449,36.009,19.121,49.213c14.749,12.713,33.807,19.296,53.258,18.396c7.354,0.036,14.694-0.664,21.908-2.092
			c3.135-0.695,5.615-3.092,6.417-6.202s-0.209-6.407-2.617-8.532c-27.183-23.975-19.317-34.513-5.033-53.642
			c7.548-8.99,13.368-19.298,17.167-30.404c5.073-19.668,0.676-40.576-11.889-56.534c7.656-4.603,12.348-12.874,12.372-21.807
			v-8.533c-0.003-6.683-2.629-13.097-7.315-17.862c0.54-1.185,1.112-2.35,1.632-3.551c8.557-20.383,13.433-42.123,14.4-64.208
			c2.571-50.764-9.484-101.199-34.733-145.313c-10.397-18.123-23.343-34.658-38.442-49.1c-24.673-24.859-57.397-40.111-92.3-43.021
			c-13.827-1.135-27.746-0.022-41.217,3.296c-7.979,2.267-15.4,6.164-21.796,11.445c-6.842-5.884-14.979-10.064-23.746-12.199
			c-12.467-2.652-25.244-3.54-37.958-2.637c-31.371,2.012-61.247,14.127-85.158,34.533C88.984,46.236,76.916,59.57,66.983,74.446
			c-23.29,34.657-34.661,75.956-32.392,117.65c0.742,12.512,3.173,24.866,7.229,36.726c-2.642,2.71-4.665,5.961-5.929,9.528
			C28.692,258.204,35.467,279.537,43.025,299.687z M83.233,324.887c-7.092,2.233-15.942-9.117-24.225-31.196
			c-6.442-17.167-12.292-35.129-7.075-49.512c1.583-4.346,3.808-4.733,4.883-4.733c0.142,0,0.258,0.009,0.358,0.012
			c7.604,1.417,14.525,5.311,19.683,11.075c-0.001,1.268,0.01,2.829,0.045,4.652l-0.003,0.04l0.007,0.092
			c0.579,23.098,3.308,46.092,8.152,68.683C84.49,324.372,83.877,324.671,83.233,324.887z M243.267,177.646
			c16.837,13.328,36.77,22.183,57.947,25.74c-5.211,2.461-10.107,5.541-14.582,9.172h-78c-14.465-11.268-32.33-17.286-50.665-17.067
			c-21.794,0.165-42.921,7.536-60.087,20.964c4.4-24.831,16.822-47.533,35.362-64.627c20.656-17.104,48.968-22.632,84.037-16.68
			C221.757,151.483,230.767,166.217,243.267,177.646z M452.367,323.491v8.533c-0.005,4.711-3.822,8.529-8.533,8.533H409.7v-2.075
			c1.986-8.275,3.538-16.168,4.721-23.525h29.412C448.544,314.963,452.362,318.781,452.367,323.491z M247.567,246.691
			c-5.929-0.003-11.816,1.002-17.409,2.971c-0.838-7.076-3.139-13.9-6.756-20.038h48.266c-3.605,6.139-5.893,12.96-6.719,20.031
			C259.364,247.692,253.487,246.689,247.567,246.691z M157.967,212.558c15.032-0.271,29.673,4.798,41.321,14.304
			c0.262,0.254,0.541,0.489,0.834,0.706c8.199,6.883,13.047,16.955,13.311,27.656c0,23.587-24.85,59.733-55.467,59.733
			c-30.292,0-64-35.604-64-59.733C93.967,233.691,125.667,212.558,157.967,212.558z M281.7,255.225
			c0.273-10.807,5.253-20.955,13.633-27.783c11.677-9.872,26.545-15.161,41.833-14.883c3.772-0.001,7.539,0.296,11.265,0.888
			c5.616,1.45,11.138,3.24,16.535,5.362c6.706,2.659,13.058,6.138,18.908,10.358c9.61,7.281,15.756,18.233,16.964,30.229
			c-3.644,23.979-35.367,55.563-63.673,55.563C306.55,314.958,281.7,278.812,281.7,255.225z M271.5,488.946
			c-15.131,6.908-32.509,6.942-47.667,0.092C135.57,448.997,107.178,359.287,98.114,301.121
			c15.594,17.436,37.797,30.904,59.853,30.904c35.845,0,63.182-33.28,70.516-62.261c11.463-8.008,26.706-8.008,38.169,0
			c7.333,28.981,34.671,62.261,70.516,62.261c22.974,0,46.249-14.674,61.947-33.203C392.819,350.172,367.985,445.066,271.5,488.946z
			 M452.525,405.737c-3.294,9.065-8.176,17.471-14.417,24.825c-12.208,16.346-27.008,36.163-5.192,63.6
			c-15.629,1.209-31.12-3.671-43.233-13.621c-12.965-12.457-16.946-33.82-12.003-63.388c11.349-18.657,20.333-38.654,26.746-59.529
			h33.68C443.884,363.759,459.023,382.583,452.525,405.737L452.525,405.737z M81.175,83.925
			c9.004-13.486,19.944-25.573,32.467-35.875c21.066-18.044,47.4-28.798,75.075-30.658c11.071-0.821,22.203-0.097,33.075,2.15
			c9.701,2.401,17.173,7.427,17.903,10.479c-0.151,0.569-0.411,1.094-0.52,1.679c-0.856,4.635,2.207,9.086,6.842,9.942
			c4.635,0.856,9.086-2.207,9.942-6.842c1.084-5.862,11.125-12.058,20.2-14.658c11.672-2.776,23.712-3.675,35.667-2.662
			c30.82,2.739,59.667,16.331,81.4,38.354c13.91,13.321,25.839,28.566,35.425,45.271c23.6,41.247,34.863,88.402,32.45,135.863
			c-0.854,20.068-5.264,39.824-13.025,58.35c-0.419,0.966-0.882,1.911-1.315,2.871c-0.969-0.156-1.946-0.255-2.927-0.296h-27.135
			c1.297-11.373,1.81-22.823,1.535-34.267c-0.019-1.25-0.177-2.475-0.269-3.711l0.01-0.168v-0.171c0-0.095-0.051-0.173-0.054-0.267
			c-1.295-17.403-10.027-33.404-23.963-43.908c-6.989-5.056-14.577-9.226-22.592-12.417c-6.164-2.424-12.473-4.464-18.889-6.108
			c-0.145-0.032-0.255-0.13-0.403-0.155l-0.304-0.038c-9.465-2.488-19.026-4.408-28.413-6.208l-8.892-1.729
			c-20.608-4.096-43.917-9.654-59.85-23.842c-20.8-20.375-29.231-50.254-22.15-78.496c0.661-2.977-0.317-6.081-2.565-8.142
			c-2.248-2.061-5.425-2.766-8.333-1.85c-2.909,0.916-5.108,3.315-5.769,6.292c-2.471,11.402-3.072,23.131-1.778,34.726
			c-37.467-5.148-68.351,1.896-91.747,21.316c-31.661,26.28-41.202,67.836-44.094,91.079c-5.911-4.244-12.863-6.806-20.114-7.412
			c-0.143-0.007-0.28,0.019-0.423,0.015c-3.37-10.155-5.393-20.708-6.019-31.39C49.581,153.074,59.953,115.474,81.175,83.925z"/>
		<path d="M218.117,356.671c1.189,0.61,2.506,0.927,3.842,0.925c3.206-0.001,6.144-1.79,7.617-4.637
			c3.563-6.867,10.306-11.514,17.992-12.4c7.687,0.879,14.432,5.526,17.992,12.396c2.121,4.209,7.252,5.902,11.46,3.781
			c4.209-2.121,5.902-7.252,3.781-11.46c-5.218-9.847-14.084-17.259-24.7-20.651v-26.732c0-4.713-3.821-8.533-8.533-8.533
			s-8.533,3.821-8.533,8.533v26.696c-10.627,3.391-19.497,10.82-24.7,20.687C212.24,349.467,213.931,354.563,218.117,356.671z"/>
		<path d="M298.767,408.825h-102.4c-4.713,0-8.533,3.821-8.533,8.533c0,4.713,3.821,8.533,8.533,8.533h102.4
			c4.713,0,8.533-3.821,8.533-8.533C307.3,412.645,303.479,408.825,298.767,408.825z"/>
		<path d="M256.1,442.958h-17.067c-4.713,0-8.533,3.821-8.533,8.533s3.821,8.533,8.533,8.533H256.1c4.713,0,8.533-3.82,8.533-8.533
			S260.813,442.958,256.1,442.958z"/>
		<path d="M136.633,263.758H153.7v8.533c0,4.713,3.821,8.533,8.533,8.533c4.713,0,8.533-3.82,8.533-8.533v-8.533h17.067
			c4.713,0,8.533-3.821,8.533-8.533c0-4.713-3.821-8.533-8.533-8.533h-51.2c-4.713,0-8.533,3.821-8.533,8.533
			C128.1,259.938,131.92,263.758,136.633,263.758z"/>
		<path d="M324.367,263.758v8.533c0,4.713,3.82,8.533,8.533,8.533s8.533-3.82,8.533-8.533v-8.533H358.5
			c4.713,0,8.533-3.821,8.533-8.533c0-4.713-3.82-8.533-8.533-8.533h-51.2c-4.713,0-8.533,3.821-8.533,8.533
			c0,4.713,3.821,8.533,8.533,8.533H324.367z"/>
	</g>
</g>
<g>
</g>
<g>
</g>
<g>
</g>
<g>
</g>
<g>
</g>
<g>
</g>
<g>
</g>
<g>
</g>
<g>
</g>
<g>
</g>
<g>
</g>
<g>
</g>
<g>
</g>
<g>
</g>
<g>
</g>
</svg>
