<?xml version="1.0" encoding="iso-8859-1"?>
<!-- Generator: Adobe Illustrator 19.0.0, SVG Export Plug-In . SVG Version: 6.00 Build 0)  -->
<svg version="1.1" id="Capa_1" xmlns="http://www.w3.org/2000/svg" xmlns:xlink="http://www.w3.org/1999/xlink" x="0px" y="0px"
	 viewBox="0 0 511.323 511.323" style="enable-background:new 0 0 511.323 511.323;" xml:space="preserve">
<g>
	<g transform="translate(2 1)">
		<path style="fill:#FFB301;" d="M434.07,95.85c-10.03-17.393-22.47-33.28-36.949-47.189
			c-23.188-23.475-53.991-37.908-86.869-40.704c-12.877-1.063-25.842-0.055-38.4,2.987c-10.076,2.38-18.901,8.436-24.747,16.981
			h-0.085l-0.939-0.597c-1.877-8.875-15.275-14.848-24.235-17.067c-11.661-2.463-23.612-3.268-35.499-2.389
			c-29.53,1.92-57.644,13.357-80.128,32.597c-3.629,2.948-7.104,6.081-10.411,9.387c-8.938,8.531-16.895,18.033-23.723,28.331
			C49.818,111.284,38.943,150.737,41.11,190.57c0.751,13.846,3.748,27.478,8.875,40.363c1.766-0.795,3.699-1.146,5.632-1.024
			c10.836,2.004,20.656,7.667,27.819,16.043c0,0,0-53.077,30.208-89.429c19.712-23.808,52.309-40.448,106.325-30.293l1.877-0.427
			h0.085c3.403,17.098,12.16,32.669,25.003,44.459c17.152,15.275,41.472,21.419,63.829,25.856
			c18.855,2.851,37.398,7.479,55.381,13.824c7.362,2.896,14.329,6.709,20.736,11.349c13.039,9.811,20.742,25.154,20.821,41.472
			c0,0,0.085,1.536,0.085,4.437c-0.116,12.793-1.085,25.565-2.901,38.229h36.949c0.57-0.016,1.141,0.012,1.707,0.085l6.827-0.085
			c1.28-2.56,2.389-5.12,3.499-7.68c8.17-19.479,12.822-40.252,13.739-61.355C470.106,187.302,458.467,138.524,434.07,95.85z"/>
		<path style="fill:#FFEB3A;" d="M433.473,261.909c-0.688,14.749-3.152,29.361-7.339,43.52h-21.248
			c1.816-12.664,2.786-25.436,2.901-38.229c0-2.901-0.085-4.437-0.085-4.437c-0.079-16.318-7.782-31.661-20.821-41.472
			c-6.407-4.641-13.374-8.454-20.736-11.349c-17.983-6.345-36.526-10.973-55.381-13.824c-22.357-4.437-46.677-10.581-63.829-25.856
			c-12.843-11.789-21.6-27.36-25.003-44.459h-0.085l-1.877,0.427c-54.016-10.155-86.613,6.485-106.325,30.293
			c-30.208,36.352-30.208,89.429-30.208,89.429c-7.162-8.375-16.982-14.038-27.819-16.043c-1.933-0.122-3.866,0.229-5.632,1.024
			c-5.127-12.884-8.124-26.516-8.875-40.363c-2.167-39.833,8.707-79.287,30.976-112.384c6.828-10.298,14.785-19.8,23.723-28.331
			c17.279-9.768,36.585-15.405,56.405-16.469c11.886-0.878,23.837-0.074,35.499,2.389c8.96,2.219,22.358,8.192,24.235,17.067
			l0.939,0.597h0.085c5.846-8.545,14.671-14.6,24.747-16.981c12.558-3.041,25.523-4.05,38.4-2.987
			c32.878,2.796,63.681,17.229,86.869,40.704c14.479,13.909,26.919,29.796,36.949,47.189
			C424.333,164.039,435.973,212.817,433.473,261.909z"/>
		<path style="fill:#BFB186;" d="M93.789,324.942l-0.256,0.085c-2.243,2.463-5.056,4.338-8.192,5.461
			c-18.005,5.717-30.037-23.808-34.731-36.352c-6.315-16.811-13.568-37.632-7.168-55.467c1.274-4.103,4.216-7.479,8.107-9.301
			c1.766-0.795,3.699-1.146,5.632-1.024c10.836,2.004,20.656,7.667,27.819,16.043C84.717,271.493,87.668,298.536,93.789,324.942z"/>
		<path style="fill:#FFB301;" d="M458.732,407.061c-9.557,33.792-57.344,50.603-9.557,92.757c0,0-101.291,22.357-81.579-87.296
			c14.534-23.915,25.191-49.979,31.573-77.227v12.8h40.448C439.617,348.095,468.204,373.354,458.732,407.061z"/>
		<path style="fill:#E91E63;" d="M464.876,317.375v10.24c-0.033,11.297-9.183,20.447-20.48,20.48h-51.2v-15.36
			c2.888-11.824,5.178-23.786,6.861-35.84h44.339c0.684-0.02,1.369,0.015,2.048,0.102
			C456.896,298.074,464.85,306.868,464.876,317.375z"/>
		<path style="fill:#BFB186;" d="M407.788,267.199c-0.116,12.793-1.085,25.565-2.901,38.229c-1.402,10.045-3.31,20.014-5.717,29.867
			c-6.383,27.247-17.039,53.312-31.573,77.227c-22.374,36.659-55.342,65.67-94.549,83.2c-14.007,6.339-29.775,7.636-44.629,3.669
			c0,0.085,0,0.085-0.085,0c-3.414-0.939-6.752-2.137-9.984-3.584c-80.213-36.352-112.896-111.019-126.123-169.301
			c-6.121-26.407-9.072-53.449-8.789-80.555c0,0,0-109.568,89.344-121.6c15.727-1.945,31.666-1.311,47.189,1.877l1.877-0.427h0.085
			c3.403,17.098,12.16,32.669,25.003,44.459c17.152,15.275,41.472,21.419,63.829,25.856c18.855,2.851,37.398,7.479,55.381,13.824
			c7.362,2.896,14.329,6.709,20.736,11.349c13.039,9.811,20.742,25.154,20.821,41.472
			C407.702,262.762,407.788,264.298,407.788,267.199z"/>
		<path style="fill:#FFE0B2;" d="M373.569,267.199c-0.116,12.793-1.085,25.565-2.901,38.229
			c-1.402,10.045-3.311,20.014-5.717,29.867c-6.383,27.247-17.039,53.312-31.573,77.227c-22.374,36.659-55.342,65.67-94.549,83.2
			c-3.361,1.513-6.844,2.741-10.411,3.669c0,0.085,0,0.085-0.085,0c-3.414-0.939-6.752-2.137-9.984-3.584
			c-80.213-36.352-112.896-111.019-126.123-169.301c-6.121-26.407-9.072-53.449-8.789-80.555c0,0,0-109.568,89.344-121.6
			c4.182,0.427,8.533,1.024,12.971,1.877l1.877-0.427h0.085c3.403,17.098,12.16,32.67,25.003,44.459
			c17.152,15.275,41.472,21.419,63.829,25.856c18.855,2.851,37.398,7.479,55.381,13.824c7.362,2.896,14.329,6.709,20.736,11.349
			c13.04,9.811,20.743,25.154,20.821,41.472C373.484,262.762,373.569,264.298,373.569,267.199z"/>
		<g>
			<path style="fill:#02A9F4;" d="M194.369,259.093v25.003c0,11.782-9.551,21.333-21.333,21.333
				c-11.782,0-21.333-9.551-21.333-21.333v-24.917"/>
			<path style="fill:#02A9F4;" d="M339.436,259.178v24.917c0,11.782-9.551,21.333-21.333,21.333s-21.333-9.551-21.333-21.333
				v-25.003"/>
		</g>
	</g>
	<g>
		<path d="M43.027,299.687c12.417,33.117,27.658,47.063,45.367,41.471c0.233-0.075,0.467-0.154,0.7-0.233
			c15.408,58.275,50.05,128.438,127.696,163.658c19.641,8.885,42.163,8.848,61.775-0.1c31.026-13.881,58.452-34.7,80.165-60.851
			c-0.435,18.297,6.448,36.011,19.122,49.214c14.749,12.713,33.807,19.296,53.258,18.396c7.354,0.036,14.694-0.664,21.908-2.092
			c3.135-0.695,5.615-3.092,6.417-6.202c0.802-3.11-0.209-6.407-2.617-8.532c-27.183-23.975-19.317-34.513-5.033-53.642
			c7.548-8.99,13.368-19.298,17.167-30.404c5.073-19.668,0.676-40.576-11.889-56.534c7.656-4.603,12.349-12.874,12.373-21.808
			v-8.533c-0.003-6.683-2.629-13.097-7.315-17.862c0.54-1.185,1.112-2.35,1.632-3.551c8.557-20.383,13.433-42.123,14.4-64.208
			c2.571-50.764-9.484-101.199-34.733-145.313c-10.397-18.123-23.343-34.658-38.442-49.1c-24.673-24.858-57.397-40.11-92.3-43.021
			c-13.825-1.135-27.743-0.021-41.212,3.296c-7.98,2.264-15.403,6.16-21.8,11.441c-6.842-5.883-14.979-10.062-23.746-12.195
			c-12.465-2.659-25.242-3.547-37.954-2.637c-31.373,2.009-61.251,14.125-85.163,34.533C88.988,46.24,76.921,59.573,66.99,74.45
			c-23.292,34.658-34.664,75.958-32.396,117.654c0.743,12.497,3.169,24.837,7.215,36.685c-2.633,2.727-4.649,5.989-5.91,9.565
			C28.69,258.204,35.469,279.537,43.027,299.687z M83.236,324.892c-7.113,2.263-15.946-9.117-24.229-31.196
			c-6.437-17.167-12.292-35.133-7.067-49.512c1.579-4.346,3.8-4.733,4.879-4.733c0.138,0,0.258,0.009,0.354,0.012
			c7.605,1.415,14.526,5.31,19.683,11.075c0.242,24.703,2.99,49.318,8.2,73.467C84.49,324.375,83.878,324.674,83.236,324.892
			L83.236,324.892z M271.498,488.95c-15.128,6.908-32.504,6.942-47.659,0.092C88.378,427.591,93.89,249.091,93.961,247.295
			c0.002-0.056-0.028-0.107-0.027-0.162c0.001-0.062,0.036-0.114,0.036-0.175c0-0.625,0.588-63.087,39.275-95.125
			c20.656-17.104,48.949-22.632,84.041-16.68c4.477,16.334,13.486,31.067,25.984,42.497c13.356,10.99,29.061,18.759,45.901,22.707
			c-8.848,4.652-17.149,10.28-24.747,16.777c-2.35,1.96-3.471,5.029-2.937,8.043c0.534,3.014,2.642,5.51,5.523,6.543
			c2.881,1.033,6.095,0.444,8.422-1.544c13.013-12.346,29.639-20.198,47.441-22.404c8.805,1.694,17.32,3.463,25.56,5.679
			c5.704,3.026,10.771,7.123,14.923,12.067c2.808,3.762,8.127,4.549,11.904,1.762c0.817-0.624,1.512-1.393,2.053-2.268
			c2.261,1.337,4.531,2.67,6.564,4.159c10.908,8.319,17.307,21.253,17.301,34.971C401.244,265.766,406.694,427.466,271.498,488.95
			L271.498,488.95z M452.369,323.495v8.533c-0.005,4.711-3.822,8.529-8.533,8.533h-34.133v-2.077
			c1.986-8.273,3.538-16.167,4.721-23.523h29.413C448.547,314.967,452.364,318.785,452.369,323.495z M452.527,405.741
			c-3.294,9.065-8.176,17.471-14.417,24.825c-12.208,16.346-27.008,36.163-5.192,63.6c-15.631,1.216-31.126-3.665-43.237-13.621
			c-12.957-12.457-16.946-33.822-11.999-63.391c11.348-18.656,20.332-38.652,26.745-59.526h33.681
			C443.887,363.763,459.025,382.587,452.527,405.741z M81.178,83.929c9.007-13.485,19.947-25.573,32.471-35.875
			c21.064-18.047,47.399-28.801,75.075-30.658c11.071-0.811,22.202-0.088,33.075,2.15c9.689,2.398,17.156,7.419,17.9,10.476
			c-0.152,0.57-0.413,1.096-0.521,1.682c-0.856,4.635,2.207,9.086,6.842,9.942c4.635,0.856,9.086-2.207,9.942-6.842
			c1.084-5.862,11.125-12.058,20.204-14.658c11.669-2.765,23.703-3.664,35.654-2.662c30.823,2.736,59.673,16.329,81.408,38.354
			c13.91,13.321,25.839,28.566,35.425,45.271c23.6,41.247,34.863,88.402,32.45,135.863c-0.854,20.068-5.264,39.824-13.025,58.35
			c-0.419,0.966-0.882,1.911-1.315,2.871c-0.969-0.156-1.946-0.255-2.927-0.296H416.7c1.297-11.373,1.81-22.823,1.535-34.267
			c-0.144-18.977-9.118-36.805-24.275-48.225c-6.99-5.057-14.58-9.228-22.596-12.417c-15.559-5.719-31.638-9.909-48.009-12.513
			l-8.892-1.725c-20.6-4.096-43.917-9.654-59.846-23.842c-20.797-20.376-29.228-50.254-22.15-78.496
			c1.022-4.6-1.879-9.157-6.479-10.179c-4.6-1.022-9.157,1.879-10.179,6.479c-2.473,11.403-3.075,23.132-1.781,34.729
			c-37.456-5.143-68.346,1.893-91.752,21.313c-31.661,26.279-41.202,67.834-44.093,91.077c-5.912-4.243-12.863-6.804-20.114-7.41
			c-0.144-0.008-0.279,0.017-0.422,0.012c-3.368-10.155-5.391-20.706-6.019-31.386C49.585,153.078,59.958,115.478,81.178,83.929z"/>
		<path d="M214.336,353.812c-2.091,4.191-0.402,9.284,3.779,11.396c1.189,0.609,2.506,0.926,3.842,0.925
			c3.207-0.001,6.146-1.789,7.621-4.637c3.561-6.869,10.305-11.517,17.992-12.4c7.686,0.881,14.431,5.528,17.992,12.396
			c2.121,4.209,7.252,5.902,11.46,3.781c4.209-2.121,5.902-7.252,3.781-11.46c-5.219-9.846-14.085-17.259-24.7-20.651v-26.732
			c0-4.713-3.82-8.533-8.533-8.533s-8.533,3.82-8.533,8.533v26.696C228.41,336.517,219.54,343.946,214.336,353.812z"/>
		<path d="M131.79,225.516c8.172-9.673,19.667-15.938,32.225-17.562c17.2-1.883,35.933,5.575,55.7,22.242
			c3.604,3.038,8.987,2.579,12.025-1.025c3.038-3.604,2.579-8.987-1.025-12.025c-23.608-19.904-46.779-28.679-68.921-26.112
			c-17.136,2.182-32.776,10.872-43.679,24.271c-2.786,3.777-1.999,9.095,1.762,11.903
			C123.637,230.015,128.959,229.26,131.79,225.516L131.79,225.516z"/>
		<path d="M204.902,285.095v-12.543c4.279,1.927,8.39,4.206,12.292,6.814c2.526,1.716,5.776,1.95,8.523,0.616
			c2.746-1.335,4.57-4.035,4.782-7.082c0.212-3.046-1.22-5.973-3.755-7.676c-8.191-5.582-17.187-9.879-26.677-12.742
			c-0.481-0.206-0.979-0.366-1.49-0.479c-15.273-4.299-31.437-4.295-46.708,0.011c-0.623,0.105-1.231,0.28-1.815,0.521
			c-9.739,2.809-18.942,7.221-27.232,13.055c-2.418,1.879-3.644,4.909-3.213,7.94c0.431,3.031,2.453,5.599,5.299,6.729
			c2.846,1.13,6.079,0.649,8.472-1.261c3.688-2.625,7.638-4.86,11.788-6.67v12.766c0,16.495,13.372,29.867,29.867,29.867
			S204.902,301.59,204.902,285.095z M175.036,297.895c-7.066-0.008-12.792-5.734-12.8-12.8v-18.091
			c8.46-1.585,17.142-1.577,25.6,0.021v18.069C187.828,292.161,182.102,297.888,175.036,297.895z"/>
		<path d="M345.088,252.539c-0.591-0.245-1.208-0.422-1.84-0.528c-15.279-4.309-31.452-4.308-46.731,0.001
			c-0.49,0.11-0.97,0.264-1.432,0.461c-9.495,2.863-18.497,7.164-26.691,12.751c-2.535,1.702-3.967,4.63-3.755,7.676
			c0.212,3.046,2.036,5.747,4.782,7.082c2.746,1.335,5.997,1.1,8.523-0.616c3.904-2.611,8.015-4.899,12.292-6.839v12.568
			c0,16.495,13.372,29.867,29.867,29.867c16.495,0,29.867-13.372,29.867-29.867v-12.878c4.164,1.837,8.119,4.113,11.8,6.79
			c3.705,2.912,9.069,2.27,11.981-1.435c2.912-3.705,2.27-9.069-1.435-11.981C364.024,259.764,354.823,255.353,345.088,252.539z
			 M332.902,285.095c0,7.069-5.731,12.8-12.8,12.8c-7.069,0-12.8-5.731-12.8-12.8v-18.159c8.453-1.63,17.138-1.653,25.6-0.067
			V285.095z"/>
		<path d="M298.769,408.829h-102.4c-4.713,0-8.533,3.821-8.533,8.533c0,4.713,3.821,8.533,8.533,8.533h102.4
			c4.713,0,8.533-3.821,8.533-8.533C307.302,412.649,303.482,408.829,298.769,408.829z"/>
		<path d="M256.102,442.962h-17.067c-4.713,0-8.533,3.821-8.533,8.533s3.821,8.533,8.533,8.533h17.067
			c4.713,0,8.533-3.82,8.533-8.533S260.815,442.962,256.102,442.962z"/>
	</g>
</g>
<g>
</g>
<g>
</g>
<g>
</g>
<g>
</g>
<g>
</g>
<g>
</g>
<g>
</g>
<g>
</g>
<g>
</g>
<g>
</g>
<g>
</g>
<g>
</g>
<g>
</g>
<g>
</g>
<g>
</g>
</svg>
