<?xml version="1.0" encoding="iso-8859-1"?>
<!-- Generator: Adobe Illustrator 19.0.0, SVG Export Plug-In . SVG Version: 6.00 Build 0)  -->
<svg version="1.1" id="Capa_1" xmlns="http://www.w3.org/2000/svg" xmlns:xlink="http://www.w3.org/1999/xlink" x="0px" y="0px"
	 viewBox="0 0 511.854 511.854" style="enable-background:new 0 0 511.854 511.854;" xml:space="preserve">
<g>
	<g transform="translate(1 1)">
		<path style="fill:#AD1457;" d="M441.752,426.459c-29.44,28.416-59.819,47.445-39.339,75.861
			c-28.127-2.387-53.589-17.589-69.035-41.216l-0.171-0.171c40.448-36.693,61.952-87.723,73.216-135.765l2.133,0.512
			c2.271,2.41,5.077,4.252,8.192,5.376c1.732,0.567,3.562,0.771,5.376,0.597C422.125,331.654,471.277,398.043,441.752,426.459z"/>
		<g>
			<path style="fill:#BFB186;" d="M101.327,326.363l-4.181,1.024c-1.886,1.612-4.056,2.856-6.4,3.669
				c-18.005,5.632-30.037-23.467-34.731-35.755c-6.315-16.555-13.568-37.035-7.168-54.613c1.709-6.135,7.372-10.321,13.739-10.155
				c10.596,1.899,20.245,7.31,27.392,15.36v0.085c1.397,26.668,5.109,53.164,11.093,79.189
				C101.156,325.595,101.242,325.936,101.327,326.363z"/>
			<path style="fill:#BFB186;" d="M408.527,326.363l4.181,1.024c1.886,1.612,4.056,2.856,6.4,3.669
				c18.005,5.632,30.037-23.467,34.731-35.755c6.315-16.555,13.568-37.035,7.168-54.613c-1.709-6.135-7.372-10.321-13.739-10.155
				c-10.596,1.899-20.245,7.31-27.392,15.36v0.085c-1.397,26.668-5.109,53.164-11.093,79.189
				C408.698,325.595,408.612,325.936,408.527,326.363z"/>
			<path style="fill:#BFB186;" d="M417.402,247.003c-1.401,26.324-5.085,52.478-11.008,78.165
				c-11.264,48.043-32.768,99.072-73.216,135.765c-19.812,17.896-43.155,31.442-68.523,39.765c-6.31,2.133-13.146,2.133-19.456,0
				c-2.56-0.853-5.12-1.792-7.595-2.731c-81.237-30.635-117.845-103.851-133.888-171.605c-0.085-0.427-0.171-0.768-0.256-1.195
				c-5.984-26.025-9.696-52.521-11.093-79.189c0.162,0.087,0.306,0.202,0.427,0.341c0-102.4,76.8-102.4,119.467-110.933
				c3.634-0.713,7.161-1.889,10.496-3.499c22.443-10.667,29.184-38.059,31.232-53.504v-0.085h0.512
				c-2.219,14.507-9.557,85.333,51.627,108.288c68.267,25.6,85.333,0,110.933,59.733
				C417.157,246.556,417.271,246.784,417.402,247.003z"/>
		</g>
		<path style="fill:#FFE0B2;" d="M382.927,247.003c-1.402,26.324-5.085,52.478-11.008,78.165
			c-11.264,48.043-32.768,99.072-73.216,135.765c-17.815,16.133-38.555,28.704-61.099,37.035
			c-81.237-30.635-117.845-103.851-133.888-171.605c-0.085-0.427-0.171-0.768-0.256-1.195c-5.984-26.025-9.696-52.521-11.093-79.189
			c0.162,0.087,0.306,0.202,0.427,0.341c0-102.4,76.8-102.4,119.467-110.933c3.634-0.713,7.161-1.889,10.496-3.499
			c6.055,25.299,24.431,45.856,48.896,54.699c68.267,25.6,85.333,0,110.933,59.733C382.682,246.556,382.796,246.785,382.927,247.003
			z"/>
		<path style="fill:#C52828;" d="M323.194,408.454c0,0-22.784,51.2-68.267,51.2s-68.267-51.2-68.267-51.2
			c22.285,5.817,45.236,8.686,68.267,8.533c23.003,0.153,45.926-2.716,68.181-8.533H323.194z"/>
		<path style="fill:#F44335;" d="M323.108,408.454c-22.255,5.818-45.179,8.687-68.181,8.533
			c-23.031,0.153-45.982-2.716-68.267-8.533c0,0,30.379-25.6,45.483-25.6c8.433-0.336,16.646,2.74,22.784,8.533
			c6.138-5.794,14.351-8.87,22.784-8.533C292.303,382.854,321.316,406.918,323.108,408.454z"/>
		<path style="fill:#AD1457;" d="M424.228,84.87C390.863,24.624,313.892-8.485,250.746,14.982
			c-12.294,4.612-23.962,10.747-34.731,18.261c-3.676,3.593-7.643,6.876-11.861,9.813c-0.192,0.065-0.395,0.094-0.597,0.085
			c-20.444-2.455-41.177,0.335-60.245,8.107c-12.604,5.355-23.792,13.563-32.683,23.979
			c-26.709,30.379-35.925,78.165-30.805,121.685c1.787,16.628,6.014,32.902,12.544,48.299v0.085
			c0.171,0.341,0.256,0.683,0.427,1.024c0-33.621,8.277-56.149,20.907-71.595c24.32-29.952,64.939-33.28,93.525-38.4
			c1.707-0.341,3.413-0.597,5.035-0.939c1.444-0.279,2.869-0.65,4.267-1.109c27.477-8.107,35.243-39.083,37.461-55.893v-0.085h0.512
			c-2.219,14.507-9.557,85.333,51.627,108.288c54.187,20.309,76.117,8.363,95.659,32.512c6.316,8.33,11.456,17.49,15.275,27.221
			c0.159-0.276,0.302-0.56,0.427-0.853v-0.085c7.969-14.675,14.595-30.041,19.797-45.909
			C447.832,161.014,443.156,119.97,424.228,84.87z"/>
		<path style="fill:#E91E63;" d="M401.786,219.099c-19.541-24.149-41.472-12.203-95.659-32.512
			c-61.184-22.955-53.845-93.781-51.627-108.288h-0.512v0.085c-2.219,16.811-9.984,47.787-37.461,55.893
			c-1.397,0.46-2.822,0.83-4.267,1.109c-1.621,0.341-3.328,0.597-5.035,0.939c-28.587,5.12-69.205,8.448-93.525,38.4
			c-12.629,15.445-20.907,37.973-20.907,71.595c-0.171-0.341-0.256-0.683-0.427-1.024v-0.085
			c-6.53-15.396-10.757-31.67-12.544-48.299c-5.12-43.52,4.096-91.307,30.805-121.685c8.891-10.415,20.079-18.624,32.683-23.979
			c19.068-7.772,39.801-10.562,60.245-8.107c0.203,0.008,0.405-0.021,0.597-0.085l0.597,1.195c2.987-1.28,6.059-2.56,9.131-3.669
			c12.64-4.649,25.96-7.186,39.424-7.509c55.423-0.449,106.735,29.176,134.059,77.397
			C405.365,143.675,410.499,182.348,401.786,219.099z"/>
		<g>
			<path style="fill:#2FA8CC;" d="M195.194,251.184v25.003c0,11.782-9.551,21.333-21.333,21.333
				c-11.782,0-21.333-9.551-21.333-21.333V251.27"/>
			<path style="fill:#2FA8CC;" d="M357.327,251.27v24.917c0,11.782-9.551,21.333-21.333,21.333s-21.333-9.551-21.333-21.333v-25.003
				"/>
		</g>
	</g>
	<g>
		<path d="M332.432,411.239c0.084-0.265,0.154-0.534,0.21-0.806c0.12-1.029,0.05-2.071-0.206-3.074
			c-0.013-0.051,0.004-0.101-0.01-0.151c-0.054-0.197-0.197-0.335-0.264-0.526c-0.251-0.746-0.606-1.452-1.054-2.098
			c-0.47-0.55-0.941-1.101-1.411-1.651c-5.467-4.613-33.608-27.612-51.017-27.612c-8.022-0.116-15.913,2.047-22.754,6.238
			c-6.842-4.191-14.732-6.354-22.754-6.238c-17.408,0-45.55,23-51.017,27.612c-0.47,0.55-0.94,1.1-1.41,1.649
			c-0.449,0.647-0.804,1.355-1.055,2.101c-0.067,0.19-0.21,0.328-0.264,0.525c-0.014,0.051,0.003,0.101-0.01,0.151
			c-0.256,1.004-0.325,2.046-0.205,3.075c0.056,0.27,0.125,0.537,0.208,0.799c0.087,0.576,0.235,1.141,0.44,1.686
			c1.025,2.296,25.587,56.267,76.066,56.267s75.042-53.971,76.067-56.267C332.198,412.377,332.345,411.813,332.432,411.239z
			 M249.552,398.058c1.613,1.766,3.888,2.781,6.279,2.804c2.418,0.076,4.747-0.911,6.375-2.7c4.535-3.989,10.442-6.06,16.475-5.775
			c9.385,2.297,18.147,6.637,25.662,12.71c-32.04,5.527-64.791,5.527-96.831,0c7.514-6.073,16.277-10.413,25.662-12.71
			C239.157,392.109,245.02,394.139,249.552,398.058z M255.927,452.12c-23.821,0-40.867-16.756-50.676-30.078
			c33.52,5.97,67.832,5.97,101.352,0C296.794,435.365,279.748,452.12,255.927,452.12z"/>
		<path d="M89.294,341.358c2.518-0.014,5.019-0.412,7.417-1.179c0.751-0.234,1.465-0.722,2.205-1.04
			c18.295,68.985,58.35,141.91,144.554,170.644c8.073,2.712,16.811,2.717,24.887,0.013c23.54-7.787,45.416-19.905,64.503-35.73
			c17.093,22.034,42.741,35.771,70.555,37.789c3.204,0,6.137-1.794,7.596-4.646c1.459-2.852,1.198-6.281-0.676-8.879
			c-11.746-16.292-2.588-27.183,24.579-51.938c4.479-4.083,9.133-8.325,13.754-12.783c27.569-26.538,0.614-76.373-12.492-96.906
			c11.531-9.857,19.963-22.842,24.275-37.386c7.575-19.879,14.367-40.925,7.129-60.542c-2.987-9.638-12.058-16.082-22.142-15.729
			c-2.52,0.179-4.977,0.876-7.215,2.047c3.371-7.271,6.156-14.799,8.328-22.514c11.157-40.575,6.19-83.892-13.862-120.888
			C396.66,16.775,314.156-16.305,248.798,7.962c-12.998,4.847-25.322,11.336-36.675,19.308c-0.704,0.492-2.233,1.829-4.046,3.496
			c-1.183,1.092-3.592,3.308-5.204,4.604c-21.068-2.114-42.332,0.99-61.917,9.037c-27.226,12.409-48.202,35.4-58.071,63.646
			c-13.663,37.736-15.539,78.732-5.379,117.558c-3.53-1.459-7.276-2.326-11.088-2.567c-10.104-0.417-19.211,6.052-22.146,15.729
			c-7.238,19.617-0.446,40.662,7.129,60.537C62.056,327.266,74.773,341.358,89.294,341.358z M262.927,493.616
			c-4.553,1.525-9.479,1.521-14.029-0.012c-117.315-39.105-142.458-169.298-146.845-244.89l0.001-0.006
			c0.023-0.138,0.059-0.271,0.075-0.409c0.086-0.322,0.152-0.649,0.198-0.979c0-83.95,53.912-92.779,97.229-99.871
			c5.442-0.892,10.621-1.742,15.367-2.692c13.234-2.674,24.946-10.306,32.736-21.333c3.805,32.738,25.608,60.595,56.472,72.154
			c3.667,1.375,7.138,2.564,10.52,3.672c-11.966,6.366-22.55,15.045-31.136,25.532c-1.955,2.339-2.513,5.542-1.465,8.404
			c1.048,2.862,3.543,4.947,6.546,5.471c3.003,0.523,6.056-0.595,8.011-2.933c11.915-15.656,29.587-25.908,49.092-28.48
			c5.041,0.963,9.729,1.744,14.045,2.446c25.455,4.145,35.167,5.779,49.981,39.883c-1.448,25.139-5.007,50.112-10.64,74.654
			C378.244,413.458,332.444,470.441,262.927,493.616z M436.827,421.316c-4.513,4.354-9.046,8.483-13.408,12.459
			c-19.475,17.746-39.492,35.983-34.546,58.425c-17.116-5.261-32.224-15.608-43.317-29.664
			c33.152-34.325,56.41-76.973,67.311-123.431c0.74,0.396,1.5,0.754,2.277,1.074c1.132,0.349,2.286,0.621,3.455,0.816
			C431.802,360.012,455.469,403.373,436.827,421.316z M446.319,240.087c0.867-0.046,3.492-0.183,5.254,4.596
			c5.192,14.075-0.646,31.704-7.071,48.554c-8.271,21.721-17.142,32.896-24.275,30.65c-1.184-0.46-2.275-1.132-3.219-1.982
			c4.646-21.569,7.756-43.439,9.307-65.448c3.835-2.27,7.313-5.095,10.32-8.383C439.436,244.933,442.702,242.239,446.319,240.087z
			 M98.769,114.295c8.369-23.886,25.98-43.409,48.879-54.188c17.735-7.177,36.996-9.76,55.996-7.508
			c5.096,0.479,8.962-2.8,15.996-9.275c1.033-0.954,1.9-1.775,2.271-2.071c10.161-7.141,21.194-12.952,32.83-17.291
			c57.775-21.442,130.917,8.166,163.025,66.012c17.92,33.215,22.305,72.072,12.237,108.446c-3.113,10.155-7.083,20.028-11.868,29.51
			c-15.008-27.124-29.915-30.897-55.648-35.081c-17.88-2.524-35.435-6.967-52.363-13.254
			c-60.558-22.708-46.454-98.083-45.825-101.279c0.922-4.622-2.078-9.116-6.7-10.038s-9.116,2.078-10.038,6.7l-0.062,0.335
			c-0.523,0.956-0.858,2.003-0.988,3.085c-2.158,16.429-9.571,44.588-34.925,49.621c-4.575,0.912-9.554,1.729-14.787,2.583
			c-36.989,6.059-89.689,14.746-106.292,74.322C85.35,174.511,88.197,143.277,98.769,114.295z M60.281,244.683
			c1.766-4.779,4.396-4.638,5.258-4.596c7.526,1.427,14.389,5.249,19.565,10.896c1.411,23.875,4.641,47.607,9.661,70.991
			c-0.923,0.82-1.986,1.468-3.139,1.913c-7.146,2.208-16-8.942-24.275-30.654C60.927,276.387,55.09,258.758,60.281,244.683z"/>
		<path d="M297.806,68.083c3.55,0.333,86.979,9.058,94.696,86.221c0.304,3.034,2.203,5.675,4.982,6.929
			c2.779,1.254,6.016,0.93,8.492-0.85c2.476-1.78,3.813-4.745,3.51-7.779C400.356,61.316,300.377,51.179,299.364,51.087
			c-4.693-0.43-8.847,3.025-9.277,7.719S293.113,67.653,297.806,68.083z"/>
		<path d="M308.531,93.837c-4.641-0.767-9.027,2.367-9.806,7.006c-0.779,4.639,2.344,9.033,6.982,9.823
			c0.454,0.079,45.533,8.2,52.787,44.463c0.798,3.984,4.294,6.854,8.358,6.858c0.565,0,1.129-0.056,1.683-0.167
			c4.621-0.925,7.617-5.421,6.692-10.042C365.648,103.887,310.856,94.225,308.531,93.837z"/>
		<path d="M115.002,135.17c4.041,2.425,9.283,1.116,11.708-2.925c12.568-22.27,35.478-36.742,60.987-38.525
			c4.713-0.01,8.525-3.839,8.515-8.552c-0.01-4.713-3.839-8.525-8.552-8.515c-31.494,1.802-59.937,19.417-75.583,46.808
			c-1.165,1.94-1.511,4.264-0.962,6.46C111.663,132.118,113.061,134.006,115.002,135.17z"/>
		<path d="M204.727,277.187v-12.542c4.279,1.927,8.39,4.206,12.292,6.813c2.526,1.716,5.776,1.95,8.523,0.616
			c2.746-1.335,4.57-4.035,4.782-7.082c0.212-3.046-1.22-5.974-3.755-7.676c-8.191-5.582-17.187-9.879-26.677-12.742
			c-0.481-0.206-0.979-0.366-1.49-0.479c-15.267-4.297-31.424-4.294-46.69,0.007c-0.631,0.105-1.247,0.282-1.837,0.527
			c-9.737,2.81-18.939,7.222-27.228,13.053c-2.418,1.879-3.644,4.909-3.213,7.94c0.431,3.031,2.453,5.599,5.299,6.729
			c2.846,1.13,6.079,0.649,8.472-1.261c3.687-2.626,7.638-4.862,11.788-6.671v12.767c0,16.495,13.372,29.867,29.867,29.867
			S204.727,293.682,204.727,277.187z M174.86,289.987c-7.066-0.008-12.792-5.734-12.8-12.8v-18.091
			c8.461-1.584,17.142-1.576,25.6,0.022v18.068C187.653,284.253,181.926,289.979,174.86,289.987z"/>
		<path d="M290.069,272.92c1.7,0.002,3.361-0.508,4.767-1.463c3.904-2.611,8.015-4.898,12.292-6.838v12.567
			c0,16.495,13.372,29.867,29.867,29.867s29.867-13.372,29.867-29.867v-12.879c4.164,1.837,8.12,4.114,11.8,6.792
			c3.705,2.912,9.069,2.27,11.981-1.435c2.912-3.705,2.27-9.069-1.435-11.981c-8.292-5.83-17.495-10.242-27.233-13.056
			c-0.581-0.24-1.187-0.414-1.807-0.519c-15.29-4.316-31.475-4.317-46.766-0.003c-0.487,0.11-0.963,0.263-1.422,0.457
			c-9.496,2.864-18.498,7.165-26.693,12.753c-3.109,2.1-4.481,5.985-3.382,9.572C283.003,270.475,286.317,272.923,290.069,272.92z
			 M349.794,258.96v18.227c0,7.069-5.731,12.8-12.8,12.8s-12.8-5.731-12.8-12.8v-18.158
			C332.647,257.398,341.332,257.375,349.794,258.96z"/>
		<path d="M255.927,358.254c9.563-0.014,18.544-4.597,24.166-12.333c2.566-3.862,1.546-9.07-2.287-11.68
			c-3.859-2.631-9.113-1.701-11.833,2.096c-2.432,3.062-6.128,4.848-10.039,4.85c-3.91,0.002-7.609-1.779-10.045-4.837
			c-2.663-3.848-7.928-4.834-11.803-2.209c-3.874,2.625-4.912,7.88-2.326,11.78C237.383,353.657,246.364,358.24,255.927,358.254z"/>
		<path d="M131.744,212.287c0.45-0.229,45.596-22.046,83.496,23.429c3.021,3.603,8.388,4.082,12,1.072
			c3.612-3.01,4.108-8.376,1.108-11.997c-46.45-55.754-103.663-28.054-104.238-27.771c-2.735,1.359-4.535,4.076-4.72,7.124
			c-0.185,3.048,1.272,5.963,3.822,7.644C125.762,213.469,129.015,213.659,131.744,212.287z"/>
		<path d="M326.668,369.262c-3.3,3.365-3.3,8.752,0,12.117c0.801,0.788,1.759,1.399,2.813,1.792c1.027,0.438,2.13,0.67,3.246,0.683
			c3.873,0,7.262-2.603,8.263-6.345c1-3.742-0.639-7.688-3.995-9.621C333.639,365.955,329.402,366.519,326.668,369.262z"/>
	</g>
</g>
<g>
</g>
<g>
</g>
<g>
</g>
<g>
</g>
<g>
</g>
<g>
</g>
<g>
</g>
<g>
</g>
<g>
</g>
<g>
</g>
<g>
</g>
<g>
</g>
<g>
</g>
<g>
</g>
<g>
</g>
</svg>
