<?xml version="1.0" encoding="iso-8859-1"?>
<!-- Generator: Adobe Illustrator 19.0.0, SVG Export Plug-In . SVG Version: 6.00 Build 0)  -->
<svg version="1.1" id="Capa_1" xmlns="http://www.w3.org/2000/svg" xmlns:xlink="http://www.w3.org/1999/xlink" x="0px" y="0px"
	 viewBox="0 0 511.854 511.854" style="enable-background:new 0 0 511.854 511.854;" xml:space="preserve">
<g>
	<g transform="translate(1 1)">
		<path style="fill:#BFB186;" d="M417.06,246.32c7.204-8.271,17.019-13.83,27.817-15.756c6.366-0.184,12.029,4.019,13.697,10.165
			c6.472,17.537-0.798,38.02-7.098,54.547c-4.705,12.342-16.754,41.381-34.792,35.756c-3.108-1.092-5.907-2.918-8.158-5.324h-307.2
			c-2.251,2.405-5.05,4.231-8.158,5.324c-18.038,5.625-30.088-23.414-34.792-35.756c-6.3-16.526-13.57-37.01-7.098-54.547
			c1.668-6.146,7.331-10.349,13.697-10.165c10.798,1.926,20.613,7.485,27.818,15.756H417.06z"/>
		<g>
			<path style="fill:#6A1B9A;" d="M422.125,331.654c0,0,49.152,66.389,19.627,94.805c-29.44,28.416-59.819,47.445-39.339,75.861
				c-28.127-2.387-53.589-17.588-69.035-41.216H176.847c-15.445,23.628-40.908,38.829-69.035,41.216
				c20.48-28.416-9.899-47.445-39.339-75.861C38.948,398.043,88.1,331.654,88.1,331.654l21.76-25.6l290.133,8.533L422.125,331.654z"
				/>
			<path style="fill:#6A1B9A;" d="M424.228,84.87C395.13,32.39,333.007,0.475,275.748,8.667c-8.534,1.216-16.915,3.333-25.003,6.315
				c-12.294,4.612-23.962,10.747-34.731,18.261c-1.792,1.28-10.411,10.069-12.459,9.899c-12.165-1.377-24.464-1.004-36.523,1.109
				c-8.146,1.431-16.104,3.779-23.723,6.997c-44.544,18.944-64.597,70.656-64.939,121.771c-0.269,24.354,4.315,48.518,13.483,71.083
				l1.024-0.427c1.024-76.971,46.336-94.635,86.443-102.485c7.339-1.451,14.421-2.56,20.992-3.669
				c4.182-0.683,8.192-1.365,11.947-2.133c7.026-1.325,13.602-4.407,19.115-8.96c15.701-12.629,20.907-34.731,22.613-48.043
				c1.746,27.776,13.618,53.947,33.365,73.557c1.963,2.048,4.011,4.096,6.229,6.059c2.048,1.877,4.181,3.755,6.4,5.547
				c17.896,14.245,38.06,25.38,59.648,32.939c0.065,0.009,0.125,0.039,0.171,0.085c7.509,2.731,15.531,5.376,24.149,7.851
				c4.336,2.07,8.477,4.527,12.373,7.339c12.048,7.534,19.758,20.384,20.736,34.56c8.116-14.986,14.884-30.663,20.224-46.848
				C447.832,161.014,443.156,119.97,424.228,84.87z"/>
		</g>
		<path style="fill:#9D27B0;" d="M400.506,199.472c-1.152,4.174-2.548,8.277-4.181,12.288c-3.896-2.812-8.037-5.268-12.373-7.339
			c-8.619-2.475-16.64-5.12-24.149-7.851c-0.046-0.047-0.106-0.077-0.171-0.085c-21.588-7.559-41.752-18.694-59.648-32.939
			c-2.219-1.792-4.352-3.669-6.4-5.547c-2.219-1.963-4.267-4.011-6.229-6.059c-19.748-19.61-31.619-45.782-33.365-73.557
			c-1.707,13.312-6.912,35.413-22.613,48.043c-5.513,4.553-12.089,7.635-19.115,8.96c-3.755,0.768-7.765,1.451-11.947,2.133
			c-6.571,1.109-13.653,2.219-20.992,3.669c-40.107,7.851-85.419,25.515-86.443,102.485l-1.024,0.427
			c-9.168-22.564-13.751-46.728-13.483-71.083c0.341-51.115,20.395-102.827,64.939-121.771c7.619-3.219,15.577-5.566,23.723-6.997
			c12.059-2.113,24.358-2.487,36.523-1.109c2.048,0.171,10.667-8.619,12.459-9.899c10.768-7.514,22.436-13.649,34.731-18.261
			c8.088-2.982,16.469-5.099,25.003-6.315c46.973,6.867,88.171,34.972,111.701,76.203
			C406.378,119.97,411.053,161.014,400.506,199.472z"/>
		<path style="fill:#B0D3F0;" d="M92.794,246.32c-0.341-0.683-0.597-1.451-0.939-2.219"/>
		<g>
			<path style="fill:#00838F;" d="M229.327,246.32c0,28.245-28.672,68.267-64,68.267c-6.08-0.045-12.109-1.112-17.835-3.157
				c-29.013-9.984-54.699-41.643-54.699-65.109h-0.341l-0.597-2.219l1.024-0.427c1.792-22.272,26.624-40.789,54.443-46.677
				c5.926-1.215,11.956-1.844,18.005-1.877C200.655,195.12,229.327,218.075,229.327,246.32z"/>
			<path style="fill:#00838F;" d="M417.999,244.102l-0.597,2.219h-0.341c0,28.245-37.205,68.267-72.533,68.267
				c-5.889-0.008-11.728-1.077-17.237-3.157c-26.469-11.335-44.476-36.406-46.763-65.109c0-23.552,19.883-43.349,46.933-49.323
				c5.605-1.237,11.327-1.867,17.067-1.877c34.219,0,70.229,21.504,72.448,48.555L417.999,244.102z"/>
		</g>
		<g>
			<path style="fill:#00BCD4;" d="M194.255,246.32c-2.286,28.703-20.293,53.775-46.763,65.109
				c-29.013-9.984-54.699-41.643-54.699-65.109h-0.341l-0.597-2.219l1.024-0.427c1.792-22.272,26.624-40.789,54.443-46.677
				C174.372,202.971,194.255,222.768,194.255,246.32z"/>
			<path style="fill:#00BCD4;" d="M382.927,244.102l-0.597,2.219h-0.341c0,23.467-25.685,55.125-54.699,65.109
				c-26.469-11.335-44.476-36.406-46.763-65.109c0-23.552,19.883-43.349,46.933-49.323c27.819,5.888,52.651,24.405,54.443,46.677
				L382.927,244.102z"/>
		</g>
		<path style="fill:#BFB186;" d="M416.975,249.051c-1.536,19.2-18.859,42.837-40.704,55.808c-9.521,6.024-20.483,9.383-31.744,9.728
			c-5.769-0.021-11.489-1.061-16.896-3.072c-26.647-11.227-44.813-36.371-47.104-65.195c0.255-13.234,6.269-25.698,16.469-34.133
			c8.177-7.169,17.996-12.21,28.587-14.677c6.182-1.628,12.552-2.432,18.944-2.389c5.066-0.011,10.122,0.446,15.104,1.365
			c-24.314-8.401-46.751-21.475-66.048-38.485c-23.301-20.186-37.558-48.855-39.595-79.616
			c-1.497,17.449-8.868,33.874-20.907,46.592c-5.851,5.319-13.056,8.921-20.821,10.411c-35.157,6.997-93.355,8.277-112.725,65.536
			c-4.489,13.803-6.736,28.237-6.656,42.752c1.877-22.443,26.88-41.045,54.869-46.763c5.784-1.191,11.674-1.791,17.579-1.792
			c35.328,0,64,22.955,64,51.2s-28.672,68.267-64,68.267c-5.959-0.065-11.868-1.103-17.493-3.072
			c-29.099-9.813-55.04-41.643-55.04-65.195h-0.341c1.055,19.636,3.335,39.187,6.827,58.539
			c13.227,73.216,48.555,159.403,138.667,193.195c2.389,0.939,4.779,1.792,7.253,2.645c6.31,2.133,13.146,2.133,19.456,0
			c87.04-29.013,125.355-105.387,141.739-175.531c5.765-25.019,9.39-50.483,10.837-76.117H416.975z"/>
		<path style="fill:#FFE0B2;" d="M376.271,304.859c-1.195,6.656-2.56,13.483-4.181,20.309
			c-15.872,68.096-52.48,141.995-134.144,172.885c-90.112-33.792-125.44-119.979-138.667-193.195
			c-3.492-19.352-5.772-38.903-6.827-58.539h0.341c0,23.552,25.941,55.381,55.04,65.195c5.625,1.969,11.534,3.007,17.493,3.072
			c35.328,0,64-40.021,64-68.267s-28.672-51.2-64-51.2c-5.905,0.001-11.795,0.601-17.579,1.792
			c-27.989,5.717-52.992,24.32-54.869,46.763c-0.08-14.515,2.167-28.949,6.656-42.752c19.371-57.259,77.568-58.539,112.725-65.536
			c7.766-1.489,14.97-5.092,20.821-10.411c12.039-12.718,19.409-29.143,20.907-46.592c2.037,30.761,16.294,59.43,39.595,79.616
			c19.297,17.011,41.734,30.084,66.048,38.485c-4.982-0.92-10.038-1.377-15.104-1.365c-6.392-0.042-12.762,0.761-18.944,2.389
			c-10.591,2.467-20.41,7.508-28.587,14.677c-10.2,8.435-16.214,20.9-16.469,34.133c2.291,28.824,20.457,53.968,47.104,65.195
			c5.407,2.011,11.127,3.051,16.896,3.072C355.788,314.242,366.75,310.883,376.271,304.859z"/>
		<path style="fill:#FF5364;" d="M323.108,408.454c-22.255,5.818-45.179,8.687-68.181,8.533
			c-23.031,0.153-45.982-2.716-68.267-8.533c0,0,30.379-25.6,45.483-25.6c8.433-0.336,16.646,2.74,22.784,8.533
			c6.138-5.794,14.351-8.87,22.784-8.533C292.303,382.854,321.316,406.918,323.108,408.454z"/>
		<path style="fill:#DF4D60;" d="M323.194,408.454c0,0-22.784,51.2-68.267,51.2s-68.267-51.2-68.267-51.2
			c22.285,5.817,45.236,8.686,68.267,8.533c23.003,0.153,45.926-2.716,68.181-8.533H323.194z"/>
	</g>
	<g>
		<path d="M75.941,336.876c-13.15,20.639-39.881,70.267-12.393,96.723c4.629,4.467,9.283,8.708,13.762,12.791
			c27.167,24.754,36.325,35.646,24.579,51.938c-1.874,2.598-2.135,6.027-0.676,8.879c1.459,2.852,4.393,4.646,7.596,4.646
			c27.674-1.992,53.212-15.6,70.3-37.459c19.078,15.677,40.901,27.676,64.358,35.388c8.073,2.712,16.811,2.717,24.887,0.013
			c23.54-7.787,45.416-19.905,64.503-35.73c17.094,22.034,42.741,35.77,70.555,37.788c3.203,0,6.137-1.794,7.596-4.646
			c1.459-2.852,1.198-6.281-0.676-8.879c-11.746-16.292-2.588-27.183,24.579-51.938c4.479-4.083,9.133-8.325,13.754-12.783
			c27.569-26.538,0.614-76.373-12.492-96.906c11.531-9.857,19.963-22.842,24.275-37.386c7.575-19.879,14.367-40.925,7.129-60.542
			c-2.973-9.648-12.053-16.099-22.142-15.729c-2.31,0.142-4.598,0.528-6.828,1.15c3.209-6.986,5.864-14.214,7.94-21.617
			c11.157-40.575,6.19-83.892-13.862-120.888C396.66,16.775,314.16-16.305,248.798,7.962c-12.998,4.847-25.322,11.336-36.675,19.308
			c-0.704,0.492-2.233,1.829-4.046,3.496c-1.183,1.092-3.592,3.308-5.204,4.604c-21.068-2.114-42.332,0.99-61.917,9.037
			c-27.226,12.409-48.202,35.4-58.071,63.646c-13.663,37.736-15.539,78.732-5.379,117.558c-3.53-1.459-7.276-2.326-11.088-2.567
			c-10.108-0.431-19.223,6.043-22.146,15.729c-7.238,19.617-0.446,40.662,7.129,60.537C58.647,318.322,66.869,330.76,75.941,336.876
			z M187.086,149.584l30.053,19.557c3.951,2.555,9.224,1.432,11.79-2.512c2.566-3.944,1.456-9.22-2.481-11.796l-14.612-9.506
			c1.023-0.19,2.1-0.371,3.087-0.569c16.999-3.651,31.292-15.083,38.588-30.864c6.289,16.873,16.091,32.218,28.756,45.018
			c-1.071,2.546-0.819,5.455,0.672,7.78c2.31,3.629,7.017,4.882,10.826,2.882c9.441,7.887,19.64,14.821,30.447,20.698
			c-10.661,2.637-20.628,7.542-29.221,14.382h-77.998c-14.465-11.268-32.331-17.286-50.666-17.067
			c-21.211,0.185-41.802,7.178-58.739,19.949C120.484,165.613,154.945,155.38,187.086,149.584z M381.605,213.297
			c17.222,8.378,27.922,21.382,27.922,34.023c0,24.129-33.712,59.733-64,59.733c-30.617,0-55.467-36.146-55.467-59.733
			c0.271-10.808,5.253-20.958,13.637-27.783c11.676-9.871,26.542-15.161,41.829-14.883c4.297-0.009,8.587,0.357,12.821,1.092
			l0.04,0.006C365.997,208.509,373.8,211.035,381.605,213.297z M255.927,238.787c-5.929-0.003-11.816,1.002-17.409,2.971
			c-0.838-7.076-3.139-13.899-6.756-20.038h48.264c-3.604,6.139-5.892,12.96-6.717,20.031
			C267.724,239.787,261.847,238.785,255.927,238.787z M207.642,218.953c0.267,0.259,0.551,0.499,0.85,0.72
			c8.193,6.882,13.037,16.951,13.302,27.648c0,23.588-24.85,59.733-55.467,59.733c-30.288,0-64-35.604-64-59.733
			c0-21.533,31.7-42.667,64-42.667C181.356,204.384,195.995,209.45,207.642,218.953z M123.344,492.25
			c4.979-22.463-15.05-40.717-34.537-58.475c-4.362-3.975-8.896-8.104-13.417-12.467c-18.628-17.928,5.148-61.447,18.324-80.421
			c1.012-0.178,2.013-0.414,2.997-0.708c0.751-0.234,1.465-0.722,2.205-1.04c11.616,43.799,32.012,89.162,67.423,123.821
			C155.299,476.847,140.308,487.059,123.344,492.25L123.344,492.25z M262.927,493.616c-4.553,1.525-9.479,1.521-14.029-0.012
			c-96.377-32.126-130.557-125.752-142.12-200.061c15.579,17.274,37.633,30.578,59.549,30.578c35.846,0,63.186-33.283,70.517-62.265
			c11.464-8.002,26.703-8.002,38.167,0c7.331,28.982,34.67,62.265,70.517,62.265c23.112-1.626,44.562-12.608,59.392-30.41
			c-1.635,10.44-3.521,20.678-5.834,30.518C378.244,413.458,332.444,470.441,262.927,493.616L262.927,493.616z M436.827,421.316
			c-4.513,4.354-9.046,8.483-13.408,12.459c-19.475,17.745-39.492,35.983-34.546,58.425c-17.116-5.261-32.224-15.608-43.317-29.664
			c33.152-34.325,56.41-76.973,67.311-123.431c0.74,0.396,1.5,0.754,2.277,1.074c1.132,0.349,2.286,0.621,3.455,0.816
			C431.802,360.012,455.469,403.373,436.827,421.316L436.827,421.316z M446.319,240.087c0.875-0.046,3.488-0.183,5.254,4.596
			c5.192,14.075-0.646,31.704-7.071,48.554c-8.275,21.721-17.117,32.896-24.275,30.65c-1.184-0.46-2.275-1.132-3.219-1.982
			c5.036-23.353,8.287-47.056,9.722-70.903C431.911,245.345,438.782,241.516,446.319,240.087L446.319,240.087z M98.769,114.295
			c8.369-23.886,25.98-43.409,48.879-54.188c17.736-7.177,36.996-9.759,55.996-7.508c5.083,0.479,8.962-2.8,15.996-9.275
			c1.033-0.954,1.9-1.775,2.271-2.071c10.161-7.141,21.194-12.952,32.83-17.291c57.783-21.442,130.917,8.166,163.025,66.012
			c17.92,33.215,22.305,72.072,12.238,108.446c-2.677,8.926-6.092,17.614-10.208,25.974c-7.587-11.713-18.407-20.976-31.151-26.666
			c-0.227-0.109-0.471-0.092-0.703-0.179c-0.228-0.087-0.396-0.26-0.635-0.329c-7.829-2.25-15.667-4.792-23.296-7.563
			c-0.138-0.058-0.279-0.113-0.421-0.167l0.004-0.009c-23.264-8.065-44.747-20.557-63.263-36.787
			c-21.561-18.547-34.813-44.942-36.808-73.313v-0.171c-0.003-2.255-0.906-4.414-2.508-6.001c-1.602-1.586-3.771-2.468-6.025-2.449
			c-4.35,0.037-7.989,3.314-8.479,7.637c-2.158,16.429-9.571,44.588-34.925,49.621c-4.575,0.912-9.554,1.729-14.788,2.583
			c-36.989,6.059-89.689,14.746-106.292,74.322C85.35,174.511,88.197,143.277,98.769,114.295z M60.281,244.683
			c1.766-4.779,4.404-4.638,5.258-4.596c7.526,1.427,14.389,5.249,19.565,10.896c1.411,23.875,4.641,47.607,9.661,70.991
			c-0.923,0.82-1.986,1.468-3.139,1.913c-7.121,2.208-16-8.942-24.275-30.654C60.927,276.387,55.09,258.758,60.281,244.683z"/>
		<path d="M238.86,349.72c4.713,0,8.533-3.82,8.533-8.533s3.821-8.533,8.533-8.533s8.533,3.821,8.533,8.533s3.821,8.533,8.533,8.533
			c4.713,0,8.533-3.82,8.533-8.533c0-14.138-11.462-25.6-25.6-25.6s-25.6,11.462-25.6,25.6
			C230.327,345.9,234.148,349.72,238.86,349.72z"/>
		<path d="M332.432,411.239c0.084-0.265,0.154-0.534,0.21-0.806c0.12-1.029,0.05-2.071-0.206-3.074
			c-0.013-0.051,0.004-0.101-0.01-0.151c-0.054-0.197-0.197-0.335-0.264-0.526c-0.251-0.746-0.606-1.452-1.054-2.098
			c-0.228-0.308-0.477-0.6-0.746-0.873c-0.205-0.273-0.427-0.533-0.665-0.778c-5.467-4.613-33.609-27.613-51.017-27.613
			c-8.022-0.116-15.913,2.047-22.754,6.238c-6.842-4.191-14.732-6.354-22.754-6.238c-17.408,0-45.55,23-51.017,27.612
			c-0.468,0.547-0.936,1.095-1.404,1.642c-0.453,0.651-0.811,1.363-1.065,2.114c-0.066,0.188-0.207,0.324-0.261,0.519
			c-0.014,0.051,0.003,0.101-0.01,0.151c-0.256,1.004-0.325,2.046-0.205,3.075c0.056,0.27,0.125,0.537,0.208,0.799
			c0.087,0.576,0.235,1.141,0.44,1.686c1.025,2.296,25.587,56.267,76.066,56.267s75.042-53.971,76.067-56.267
			C332.198,412.377,332.345,411.813,332.432,411.239z M249.552,398.058c1.613,1.766,3.888,2.781,6.279,2.804
			c2.421,0.095,4.758-0.895,6.375-2.7c4.535-3.989,10.442-6.06,16.475-5.775c9.385,2.297,18.147,6.637,25.661,12.71
			c-32.04,5.527-64.791,5.527-96.831,0c7.514-6.073,16.277-10.413,25.662-12.71C239.158,392.109,245.02,394.139,249.552,398.058z
			 M255.927,452.12c-23.821,0-40.867-16.756-50.676-30.078c33.52,5.97,67.832,5.97,101.352,0
			C296.794,435.365,279.748,452.12,255.927,452.12z"/>
		<path d="M136.46,247.32c0,4.713,3.821,8.533,8.533,8.533h17.067v8.533c0,4.713,3.821,8.533,8.533,8.533
			c4.713,0,8.533-3.82,8.533-8.533v-8.533h17.067c4.713,0,8.533-3.821,8.533-8.533s-3.821-8.533-8.533-8.533h-51.2
			C140.281,238.787,136.46,242.608,136.46,247.32z"/>
		<path d="M315.66,238.787c-4.713,0-8.533,3.82-8.533,8.533s3.82,8.533,8.533,8.533h17.067v8.533c0,4.713,3.82,8.533,8.533,8.533
			s8.533-3.82,8.533-8.533v-8.533h17.067c4.713,0,8.533-3.821,8.533-8.533s-3.82-8.533-8.533-8.533H315.66z"/>
		<path d="M297.806,68.083c3.55,0.333,86.979,9.058,94.696,86.221c0.304,3.034,2.203,5.675,4.982,6.929
			c2.779,1.254,6.016,0.93,8.492-0.85c2.476-1.78,3.813-4.745,3.51-7.779C400.356,61.316,300.377,51.179,299.365,51.087
			c-4.693-0.43-8.847,3.025-9.277,7.719C289.657,63.499,293.113,67.653,297.806,68.083z"/>
		<path d="M308.531,93.837c-4.641-0.767-9.027,2.367-9.806,7.006s2.344,9.033,6.982,9.823c0.454,0.079,45.533,8.2,52.787,44.463
			c0.798,3.984,4.294,6.854,8.358,6.858c0.565,0,1.129-0.056,1.683-0.167c4.621-0.925,7.617-5.421,6.692-10.042
			C365.648,103.887,310.856,94.225,308.531,93.837z"/>
		<path d="M115.002,135.17c4.041,2.425,9.283,1.116,11.708-2.925c12.568-22.27,35.478-36.742,60.987-38.525
			c4.713-0.01,8.525-3.839,8.515-8.552c-0.01-4.713-3.839-8.525-8.552-8.515c-31.494,1.802-59.937,19.417-75.583,46.808
			c-1.165,1.94-1.511,4.264-0.962,6.46C111.663,132.118,113.062,134.006,115.002,135.17z"/>
		<path d="M255.927,298.52c4.713,0,8.533-3.82,8.533-8.533v-8.533c0-4.713-3.82-8.533-8.533-8.533s-8.533,3.821-8.533,8.533v8.533
			C247.394,294.7,251.214,298.52,255.927,298.52z"/>
	</g>
</g>
<g>
</g>
<g>
</g>
<g>
</g>
<g>
</g>
<g>
</g>
<g>
</g>
<g>
</g>
<g>
</g>
<g>
</g>
<g>
</g>
<g>
</g>
<g>
</g>
<g>
</g>
<g>
</g>
<g>
</g>
</svg>
