<?xml version="1.0" encoding="iso-8859-1"?>
<!-- Generator: Adobe Illustrator 19.0.0, SVG Export Plug-In . SVG Version: 6.00 Build 0)  -->
<svg version="1.1" id="Capa_1" xmlns="http://www.w3.org/2000/svg" xmlns:xlink="http://www.w3.org/1999/xlink" x="0px" y="0px"
	 viewBox="0 0 511.858 511.858" style="enable-background:new 0 0 511.858 511.858;" xml:space="preserve">
<g>
	<g transform="translate(1 1)">
		<g>
			<path style="fill:#BFB186;" d="M91.923,220.725h51.2v85.333h-51.2c-9.426,0-17.067-7.641-17.067-17.067v-51.2
				C74.856,228.366,82.497,220.725,91.923,220.725z"/>
			<path style="fill:#BFB186;" d="M416.189,306.058h-42.667v-85.333h42.667c9.426,0,17.067,7.641,17.067,17.067v51.2
				C433.256,298.417,425.615,306.058,416.189,306.058z"/>
		</g>
		<g>
			<path style="fill:#AD1457;" d="M416.189,306.058c0,0,34.133,93.867-34.133,76.8h-256c-68.267,17.067-34.133-76.8-34.133-76.8
				H416.189z"/>
			<path style="fill:#AD1457;" d="M416.957,79.071C384.531,23.348,309.949-7.286,248.68,14.388
				c-8.77,3.09-17.227,7.005-25.259,11.691c-2.901,1.621-5.717,3.413-8.533,5.291c-1.707,1.195-10.069,9.301-12.032,9.131
				c-6.66-0.699-13.361-0.927-20.053-0.683c-13.164,0.599-26.138,3.367-38.4,8.192c-6.339,2.574-12.377,5.837-18.005,9.728
				c-49.664,33.963-59.136,110.08-34.475,162.987h324.267c5.815-11.249,10.31-23.132,13.397-35.413
				C439.842,149.641,435.29,111.343,416.957,79.071z"/>
		</g>
		<path style="fill:#E91E63;" d="M382.995,202.378c-1.621,6.144-3.584,12.288-5.803,18.347H91.923
			C67.261,167.818,76.733,91.701,126.397,57.738c5.628-3.891,11.666-7.154,18.005-9.728c12.262-4.825,25.236-7.593,38.4-8.192
			c6.692-0.245,13.393-0.016,20.053,0.683c1.963,0.171,10.325-7.936,12.032-9.131c2.816-1.877,5.632-3.669,8.533-5.291
			c58.516-7.844,116.135,19.644,146.859,70.059C388.638,128.399,393.222,166.696,382.995,202.378z"/>
		<path style="fill:#BFB186;" d="M382.056,195.125v204.459c0.003,16.706-6.131,32.832-17.237,45.312l-25.6,28.757
			c-16.152,18.258-39.367,28.7-63.744,28.672h-37.291c-22.632,0.004-44.336-8.991-60.331-25.003l-31.829-31.829
			c-12.79-12.784-19.974-30.129-19.968-48.213V195.125c-0.042-14.603,2.47-29.1,7.424-42.837h0.171
			c19.797,0.853,72.448-0.171,86.272-34.645c7.055-18.771,21.441-33.865,39.851-41.813c3.17-1.174,6.421-2.115,9.728-2.816
			C330.515,60.213,382.056,142.474,382.056,195.125z"/>
		<path style="fill:#FFE0B2;" d="M356.456,195.125v204.459c0.003,16.706-6.131,32.832-17.237,45.312l-25.6,28.757
			c-16.152,18.258-39.367,28.7-63.744,28.672h-11.691c-22.632,0.004-44.336-8.991-60.331-25.003l-31.829-31.829
			c-12.79-12.784-19.974-30.129-19.968-48.213V195.125c-0.042-14.603,2.47-29.1,7.424-42.837h0.171
			c19.797,0.853,72.448-0.171,86.272-34.645c7.055-18.771,21.441-33.865,39.851-41.813c3.17-1.174,6.421-2.115,9.728-2.816
			C318.653,83.253,356.456,150.068,356.456,195.125z"/>
		<path style="fill:#CC4B4C;" d="M262.589,485.258v17.067h-17.067v-17.067c0-4.713,3.82-8.533,8.533-8.533
			S262.589,480.545,262.589,485.258z"/>
		<g>
			<path style="fill:#00BCD4;" d="M177.256,246.325h34.133v17.067c0,9.426-7.641,17.067-17.067,17.067s-17.067-7.641-17.067-17.067
				V246.325z"/>
			<path style="fill:#00BCD4;" d="M296.723,246.325h34.133v17.067c0,9.426-7.641,17.067-17.067,17.067s-17.067-7.641-17.067-17.067
				V246.325z"/>
		</g>
	</g>
	<g>
		<path d="M229.456,324.125c-4.713,0-8.533,3.82-8.533,8.533c0,14.354,14.992,25.6,34.133,25.6s34.133-11.246,34.133-25.6
			c0-4.713-3.82-8.533-8.533-8.533s-8.533,3.82-8.533,8.533c0,3.479-6.65,8.533-17.067,8.533s-17.067-5.054-17.067-8.533
			C237.989,327.945,234.169,324.125,229.456,324.125z"/>
		<path d="M161.185,221.729c0.795-0.001,1.586-0.113,2.35-0.333l59.733-17.067c4.49-1.328,7.072-6.027,5.784-10.529
			s-5.962-7.126-10.476-5.88l-59.733,17.067c-4.09,1.171-6.694,5.175-6.104,9.388C153.328,218.589,156.931,221.725,161.185,221.729z
			"/>
		<path d="M286.844,204.329l59.733,17.067c4.514,1.246,9.189-1.377,10.476-5.88c1.287-4.502-1.294-9.201-5.784-10.529
			l-59.733-17.067c-2.941-0.87-6.123-0.094-8.334,2.031c-2.211,2.126-3.111,5.274-2.358,8.247
			C281.596,201.172,283.887,203.512,286.844,204.329z"/>
		<path d="M82.033,313.068c-4.955,16.985-12.628,52.686,3.769,70.877c6.748,7.189,16.32,11.039,26.167,10.525
			c2.192-0.037,4.379-0.193,6.554-0.466v4.284c-0.055,20.354,8.035,39.885,22.467,54.238l31.829,31.829
			c17.57,17.668,41.479,27.572,66.396,27.503h37.258c26.811,0.02,52.343-11.46,70.121-31.529l25.6-28.758
			c12.501-14.031,19.405-32.17,19.396-50.962v-6.604c2.175,0.274,4.363,0.429,6.554,0.467c9.846,0.514,19.419-3.336,26.167-10.525
			c16.397-18.191,8.724-53.892,3.769-70.877c8.954-4.2,14.683-13.187,14.71-23.077v-51.2c-0.033-9.405-5.237-18.029-13.542-22.443
			c3.937-9.031,7.149-18.362,9.605-27.903c10.888-37.832,6.003-78.46-13.542-112.633C390.302,15.6,310.244-15.109,246.802,7.362
			c-12.568,4.467-24.531,10.479-35.617,17.896c-0.688,0.458-2.175,1.7-3.942,3.25c-1.142,1.008-3.462,3.046-5.017,4.242
			c-20.397-1.975-40.972,0.888-60.054,8.358c-28.274,11.795-50.302,34.914-60.717,63.725
			c-13.449,35.845-13.449,75.349,0.001,111.194c-8.634,4.309-14.102,13.115-14.134,22.765v51.2
			C67.35,299.881,73.079,308.869,82.033,313.068z M92.923,230.258h25.6v25.6h-17.067c-4.713,0-8.533,3.82-8.533,8.533
			s3.821,8.533,8.533,8.533h17.067v25.6h-25.6c-4.71-0.006-8.527-3.823-8.533-8.533v-51.2
			C84.395,234.081,88.212,230.264,92.923,230.258z M98.485,372.525c-9.492-10.513-5.146-38.368,0.595-56.933h19.443v61.161
			C111.556,378.769,104.043,377.184,98.485,372.525z M374.523,400.608c0.007,14.608-5.36,28.707-15.079,39.613l-25.621,28.783
			c-14.539,16.416-35.421,25.806-57.35,25.788h-12.883v-8.533c0-4.713-3.82-8.533-8.533-8.533s-8.533,3.821-8.533,8.533v8.533
			h-7.308c-20.388,0.055-39.952-8.048-54.329-22.504l-31.829-31.829c-11.219-11.161-17.509-26.345-17.467-42.171V196.125
			c-0.029-11.564,1.652-23.069,4.987-34.142c25.571,0.296,73.921-4.304,88.271-40.171c6.163-16.545,18.773-29.882,34.946-36.962
			c18.945-6.9,40.11-3.527,55.971,8.92c32.158,24.626,52.118,61.936,54.758,102.354V400.608z M417.189,230.258
			c4.71,0.006,8.527,3.823,8.533,8.533v51.2c-0.006,4.71-3.823,8.527-8.533,8.533h-25.6v-25.6h17.067
			c4.713,0,8.533-3.82,8.533-8.533s-3.82-8.533-8.533-8.533h-17.067v-25.6H417.189z M411.627,372.525
			c-5.557,4.661-13.071,6.247-20.037,4.229v-61.163h19.443C416.772,334.156,421.119,362.012,411.627,372.525z M97.344,111.07
			c8.826-24.384,27.393-44.001,51.254-54.154c17.305-6.644,35.955-9.029,54.375-6.954c4.921,0.521,8.683-2.617,15.538-8.633
			c0.992-0.871,1.825-1.621,2.162-1.883c9.906-6.631,20.598-12.006,31.829-16c56.049-19.854,126.967,7.471,158.058,60.946
			c17.233,30.282,21.483,66.248,11.783,99.713c-2.551,10.009-6.059,19.75-10.474,29.087h-20.28v-17.067
			c-2.63-46.021-25.332-88.567-62.096-116.375c-20.466-15.628-47.492-19.731-71.675-10.883
			c-20.724,8.694-36.941,25.557-44.821,46.604c-11.917,29.808-62.842,29.975-78.146,29.292c-3.708-0.112-7.079,2.142-8.392,5.612
			c-5.297,14.669-7.983,30.153-7.938,45.75v17.067H98.681C85.43,180.526,84.953,144.071,97.344,111.07z"/>
		<path d="M220.923,264.391v-8.533h8.533c4.713,0,8.533-3.821,8.533-8.533s-3.821-8.533-8.533-8.533h-68.267
			c-4.713,0-8.533,3.821-8.533,8.533s3.821,8.533,8.533,8.533h8.533v8.533c0,14.138,11.462,25.6,25.6,25.6
			S220.923,278.53,220.923,264.391z M186.789,264.391v-8.533h17.067v8.533c0,4.713-3.821,8.533-8.533,8.533
			S186.789,269.104,186.789,264.391z"/>
		<path d="M348.923,238.791h-68.267c-4.713,0-8.533,3.821-8.533,8.533s3.82,8.533,8.533,8.533h8.533v8.533
			c0,14.138,11.462,25.6,25.6,25.6s25.6-11.462,25.6-25.6v-8.533h8.533c4.713,0,8.533-3.821,8.533-8.533
			S353.636,238.791,348.923,238.791z M323.323,264.391c0,4.713-3.82,8.533-8.533,8.533s-8.533-3.82-8.533-8.533v-8.533h17.067
			V264.391z"/>
		<path d="M323.323,392.391H186.789c-4.713,0-8.533,3.821-8.533,8.533c0,4.713,3.821,8.533,8.533,8.533h136.533
			c4.713,0,8.533-3.821,8.533-8.533C331.856,396.212,328.036,392.391,323.323,392.391z"/>
		<path d="M297.723,417.991c-4.713,0-8.533,3.821-8.533,8.533h-76.8c-4.713,0-8.533,3.821-8.533,8.533s3.821,8.533,8.533,8.533
			h85.333c4.713,0,8.533-3.82,8.533-8.533v-8.533C306.256,421.812,302.436,417.991,297.723,417.991z"/>
		<path d="M255.056,315.591c4.713,0,8.533-3.821,8.533-8.533v-17.067c0-4.713-3.82-8.533-8.533-8.533s-8.533,3.82-8.533,8.533
			v17.067C246.523,311.771,250.343,315.591,255.056,315.591z"/>
		<path d="M133.518,119.07c4.572,1.141,9.204-1.637,10.35-6.208c6.771-27.083,41.288-27.658,42.933-27.671
			c4.713-0.003,8.531-3.827,8.527-8.54c-0.003-4.713-3.827-8.531-8.54-8.527c-17.062,0-51.45,8.483-59.479,40.596
			C126.167,113.293,128.946,117.926,133.518,119.07z"/>
	</g>
</g>
<g>
</g>
<g>
</g>
<g>
</g>
<g>
</g>
<g>
</g>
<g>
</g>
<g>
</g>
<g>
</g>
<g>
</g>
<g>
</g>
<g>
</g>
<g>
</g>
<g>
</g>
<g>
</g>
<g>
</g>
</svg>
