<?xml version="1.0" encoding="iso-8859-1"?>
<!-- Generator: Adobe Illustrator 19.0.0, SVG Export Plug-In . SVG Version: 6.00 Build 0)  -->
<svg version="1.1" id="Capa_1" xmlns="http://www.w3.org/2000/svg" xmlns:xlink="http://www.w3.org/1999/xlink" x="0px" y="0px"
	 viewBox="0 0 503.408 503.408" style="enable-background:new 0 0 503.408 503.408;" xml:space="preserve">
<g>
	<g transform="translate(2 9)">
		<g>
			<path style="fill:#4E342E;" d="M98.847,313.051l-1.365,0.341c-2.248,2.438-5.061,4.284-8.192,5.376
				c-3.728,1.212-7.788,0.874-11.264-0.939c-11.861-5.803-19.797-25.6-23.467-35.328c-6.315-16.811-13.568-37.632-7.168-55.467
				c1.661-6.191,7.33-10.452,13.739-10.325c10.836,2.004,20.656,7.667,27.819,16.043C88.686,259.838,92.014,286.839,98.847,313.051z
				"/>
			<path style="fill:#4E342E;" d="M447.594,282.488c-4.693,12.544-16.725,41.984-34.731,36.267
				c-3.131-1.092-5.944-2.938-8.192-5.376l-1.365-0.341c6.833-26.211,10.161-53.213,9.899-80.299
				c7.162-8.375,16.982-14.038,27.819-16.043c6.409-0.126,12.078,4.134,13.739,10.325
				C461.162,244.856,453.908,265.677,447.594,282.488z"/>
			<path style="fill:#4E342E;" d="M411.839,230.139c0,0,7.595,185.259-134.912,249.856c-14.256,6.471-30.35,7.651-45.397,3.328
				c-3.103-0.855-6.129-1.968-9.045-3.328C79.978,415.398,87.572,230.139,87.572,230.139c-2.567-16.86-2.997-33.976-1.28-50.944
				c6.754-65.107,61.776-114.483,127.232-114.176h72.363c65.456-0.307,120.478,49.069,127.232,114.176
				C414.836,196.163,414.406,213.279,411.839,230.139z"/>
		</g>
		<path style="fill:#795548;" d="M375.402,230.139c0,0,7.595,185.259-134.827,249.856c-2.917,1.36-5.942,2.474-9.045,3.328
			c-3.103-0.855-6.129-1.968-9.045-3.328C79.978,415.398,87.572,230.139,87.572,230.139c-2.567-16.86-2.997-33.976-1.28-50.944
			c6.754-65.107,61.776-114.483,127.232-114.176h36.011c65.445-0.279,120.451,49.083,127.232,114.176
			C378.433,196.167,377.974,213.281,375.402,230.139z"/>
		<path style="fill:#00BCD4;" d="M343.572,243.389v24.917c0,11.782-9.551,21.333-21.333,21.333s-21.333-9.551-21.333-21.333v-25.003
			"/>
		<g>
			<path style="fill:#802D40;" d="M360.639,136.017c-1.109,0.015-2.211-0.189-3.242-0.6c-1.038-0.462-1.99-1.096-2.817-1.875
				c-1.606-1.605-2.498-3.789-2.475-6.059c-0.031-1.119,0.203-2.23,0.683-3.242c0.413-1.02,1.022-1.948,1.792-2.733
				c0.79-0.824,1.751-1.464,2.817-1.875c3.195-1.303,6.86-0.564,9.3,1.875c0.77,0.785,1.379,1.714,1.792,2.733
				c1.124,2.624,0.847,5.638-0.737,8.013C366.169,134.63,363.493,136.045,360.639,136.017z"/>
			<path style="fill:#802D40;" d="M343.572,110.417c-1.109,0.015-2.211-0.189-3.242-0.6c-1.038-0.462-1.99-1.096-2.817-1.875
				c-0.77-0.785-1.379-1.714-1.792-2.733c-0.438-1.055-0.669-2.184-0.683-3.325c0.014-1.115,0.246-2.216,0.683-3.242
				c0.413-1.02,1.022-1.948,1.792-2.733c0.404-0.393,0.83-0.763,1.275-1.108c0.495-0.292,1.01-0.548,1.542-0.767
				c0.498-0.209,1.01-0.382,1.533-0.517c2.825-0.527,5.728,0.367,7.767,2.392c0.77,0.785,1.379,1.714,1.792,2.733
				c0.437,1.026,0.669,2.127,0.683,3.242c-0.014,1.142-0.245,2.27-0.683,3.325C350.138,108.403,347.016,110.475,343.572,110.417z"/>
			<path style="fill:#802D40;" d="M326.506,136.017c-1.109,0.015-2.211-0.189-3.242-0.6c-1.038-0.462-1.99-1.096-2.817-1.875
				c-0.77-0.785-1.379-1.714-1.792-2.733c-0.438-1.055-0.669-2.184-0.683-3.325c0.014-1.115,0.246-2.216,0.683-3.242
				c0.413-1.02,1.022-1.948,1.792-2.733c0.404-0.393,0.83-0.763,1.275-1.108c0.495-0.292,1.01-0.548,1.542-0.767
				c0.498-0.209,1.01-0.382,1.533-0.517c2.827-0.568,5.749,0.332,7.767,2.392c0.77,0.785,1.379,1.714,1.792,2.733
				c0.437,1.026,0.669,2.127,0.683,3.242c-0.022,1.141-0.254,2.268-0.683,3.325c-0.435,1.008-1.041,1.932-1.792,2.733
				c-0.828,0.777-1.78,1.411-2.817,1.875C328.716,135.827,327.615,136.031,326.506,136.017z"/>
			<path style="fill:#802D40;" d="M377.706,161.617c-2.27,0.022-4.453-0.87-6.058-2.475c-1.605-1.605-2.497-3.788-2.475-6.058
				c-0.031-1.119,0.203-2.23,0.683-3.242c0.413-1.02,1.022-1.948,1.792-2.733c0.79-0.824,1.751-1.464,2.817-1.875
				c3.194-1.312,6.864-0.573,9.3,1.875c0.77,0.785,1.379,1.714,1.792,2.733c1.362,3.175,0.652,6.859-1.792,9.3
				c-0.828,0.777-1.78,1.411-2.817,1.875C379.917,161.428,378.815,161.632,377.706,161.617z"/>
			<path style="fill:#802D40;" d="M343.572,161.617c-1.109,0.015-2.211-0.189-3.242-0.6c-1.038-0.462-1.99-1.096-2.817-1.875
				c-0.77-0.785-1.379-1.714-1.792-2.733c-0.438-1.055-0.669-2.184-0.683-3.325c0.014-1.115,0.246-2.216,0.683-3.242
				c0.413-1.02,1.022-1.948,1.792-2.733c0.404-0.393,0.83-0.763,1.275-1.108c0.495-0.292,1.01-0.548,1.542-0.767
				c0.498-0.209,1.01-0.382,1.533-0.517c2.825-0.527,5.728,0.367,7.767,2.392c0.77,0.785,1.379,1.714,1.792,2.733
				c0.437,1.026,0.669,2.127,0.683,3.242c-0.014,1.142-0.245,2.27-0.683,3.325C350.138,159.603,347.016,161.675,343.572,161.617z"/>
		</g>
		<path style="fill:#E91E63;" d="M317.972,400.55c0,0-22.784,51.2-68.267,51.2s-68.267-51.2-68.267-51.2
			c22.285,5.817,45.236,8.686,68.267,8.533c23.003,0.153,45.926-2.716,68.181-8.533H317.972z"/>
		<path style="fill:#9D27B0;" d="M317.887,400.55c-22.255,5.818-45.179,8.687-68.181,8.533c-23.031,0.153-45.982-2.716-68.267-8.533
			c0,0,30.379-25.6,45.483-25.6c8.433-0.336,16.646,2.74,22.784,8.533c6.138-5.794,14.351-8.87,22.784-8.533
			C287.082,374.95,316.095,399.014,317.887,400.55z"/>
	</g>
	<g>
		<path d="M441.214,214.625c-6.028,0.456-11.86,2.345-17.011,5.509c1.859-40.364-4.714-128.402-93.13-154.284
			c-4.524-1.325-9.266,1.268-10.592,5.792c-1.325,4.524,1.268,9.266,5.792,10.592c100.567,29.433,80.092,150.283,79.167,155.408
			c-0.013,0.33-0.006,0.661,0.021,0.99c-0.064,0.287-0.113,0.576-0.146,0.868c0.067,1.8,5.583,180.3-129.875,241.75
			c-7.434,3.379-15.509,5.116-23.675,5.092h-0.117c-8.166,0.024-16.241-1.712-23.675-5.092C92.514,419.8,98.031,241.3,98.097,239.5
			c0.096-2.388-0.814-4.706-2.508-6.391c-8.475-10.058-20.361-16.638-33.383-18.483c-10.135-0.275-19.207,6.247-22.175,15.942
			c-7.2,19.85-0.425,41.183,7.133,61.333c12.433,33.117,27.767,47.075,45.35,41.475l0.717-0.242
			c15.408,58.274,50.042,128.441,127.692,163.666c9.65,4.379,20.128,6.633,30.725,6.608h0.117
			c10.597,0.025,21.075-2.228,30.725-6.608c77.65-35.225,112.283-105.392,127.692-163.667c0.233,0.083,0.467,0.158,0.708,0.233
			c17.667,5.575,32.925-8.35,45.358-41.467c7.558-20.15,14.333-41.483,7.125-61.342C460.409,220.869,451.342,214.35,441.214,214.625
			z M87.372,317.1c-7.092,2.208-15.942-9.125-24.225-31.2c-6.442-17.158-12.292-35.125-7.075-49.508
			c1.583-4.35,3.808-4.733,4.883-4.733c0.142,0,0.258,0.009,0.358,0.017c7.604,1.411,14.526,5.303,19.683,11.067
			c0.24,24.706,2.987,49.324,8.2,73.475C88.629,316.588,88.016,316.885,87.372,317.1z M440.264,285.9
			c-8.275,22.075-17.1,33.517-24.233,31.192c-0.642-0.21-1.252-0.504-1.817-0.875c5.213-24.151,7.96-48.769,8.2-73.475
			c5.159-5.766,12.084-9.658,19.692-11.067c0.833-0.075,3.458-0.175,5.225,4.708C452.556,250.775,446.706,268.741,440.264,285.9
			L440.264,285.9z"/>
		<path d="M251.706,358.375c14.153-0.864,26.794-9.15,33.233-21.783c2.08-4.202,0.38-9.296-3.807-11.406
			c-4.187-2.111-9.293-0.448-11.434,3.723c-3.563,6.867-10.306,11.514-17.992,12.4c-7.667-0.881-14.398-5.507-17.967-12.35
			c-2.114-4.204-7.232-5.903-11.441-3.798c-4.209,2.104-5.92,7.218-3.826,11.432C224.912,349.225,237.552,357.511,251.706,358.375z"
			/>
		<path d="M270.231,221.383c3.038,3.603,8.421,4.062,12.025,1.025c19.775-16.667,38.475-24.142,55.708-22.242
			c12.556,1.621,24.049,7.885,32.217,17.558c2.824,3.767,8.166,4.536,11.938,1.718c3.772-2.818,4.549-8.158,1.737-11.935
			c-10.902-13.397-26.541-22.086-43.675-24.267c-22.067-2.575-45.308,6.208-68.925,26.117
			C267.656,212.398,267.197,217.778,270.231,221.383z"/>
		<path d="M354.106,277.308v-12.873c4.165,1.834,8.121,4.11,11.8,6.79c3.706,2.902,9.061,2.256,11.97-1.444
			c2.909-3.7,2.274-9.057-1.42-11.973c-8.289-5.824-17.486-10.234-27.218-13.049c-0.608-0.255-1.244-0.437-1.894-0.544
			c-15.252-4.293-31.393-4.294-46.646-0.003c-0.512,0.113-1.012,0.274-1.493,0.48c-9.489,2.862-18.484,7.159-26.673,12.741
			c-3.907,2.637-4.937,7.943-2.3,11.85c2.637,3.907,7.943,4.937,11.85,2.3c3.904-2.61,8.015-4.896,12.291-6.835v12.56
			c0,16.495,13.372,29.867,29.867,29.867C340.734,307.175,354.106,293.803,354.106,277.308z M324.239,290.108
			c-7.066-0.008-12.792-5.734-12.8-12.8v-18.147c8.453-1.629,17.138-1.652,25.6-0.068v18.215
			C337.031,284.374,331.305,290.1,324.239,290.108z"/>
		<path d="M368.698,130.508c-2.44-2.439-6.105-3.178-9.3-1.875c-1.065,0.411-2.027,1.051-2.817,1.875
			c-0.77,0.785-1.379,1.714-1.792,2.733c-0.48,1.012-0.715,2.122-0.683,3.242c-0.023,2.27,0.869,4.454,2.475,6.059
			c0.827,0.779,1.779,1.413,2.817,1.875c3.751,1.501,8.04,0.172,10.286-3.186C371.928,137.873,371.518,133.401,368.698,130.508z"/>
		<path d="M351.631,104.908c-2.039-2.025-4.942-2.919-7.767-2.392c-0.523,0.135-1.035,0.307-1.533,0.517
			c-0.532,0.218-1.047,0.475-1.542,0.767c-0.445,0.345-0.871,0.715-1.275,1.108c-0.77,0.785-1.379,1.714-1.792,2.733
			c-0.437,1.025-0.67,2.127-0.683,3.242c0.014,1.142,0.246,2.27,0.683,3.325c0.413,1.02,1.022,1.948,1.792,2.733
			c0.827,0.779,1.779,1.413,2.817,1.875c2.081,0.874,4.424,0.879,6.509,0.013s3.735-2.53,4.583-4.621
			c0.438-1.055,0.67-2.183,0.683-3.325c-0.014-1.115-0.246-2.216-0.683-3.242C353.01,106.622,352.401,105.693,351.631,104.908z"/>
		<path d="M334.564,130.508c-2.017-2.06-4.94-2.96-7.767-2.392c-0.523,0.135-1.035,0.307-1.533,0.517
			c-0.531,0.218-1.047,0.475-1.542,0.767c-0.445,0.345-0.871,0.715-1.275,1.108c-0.77,0.785-1.379,1.714-1.792,2.733
			c-0.437,1.025-0.67,2.127-0.683,3.242c0.014,1.142,0.246,2.27,0.683,3.325c0.413,1.02,1.022,1.948,1.792,2.733
			c0.827,0.779,1.779,1.413,2.817,1.875c2.087,0.8,4.396,0.8,6.483,0c1.037-0.464,1.989-1.097,2.817-1.875
			c0.751-0.801,1.357-1.726,1.792-2.733c0.43-1.057,0.661-2.184,0.683-3.325c-0.014-1.115-0.246-2.216-0.683-3.242
			C335.943,132.222,335.334,131.293,334.564,130.508z"/>
		<path d="M379.706,170.617c1.109,0.015,2.211-0.189,3.242-0.6c1.037-0.464,1.989-1.097,2.817-1.875
			c2.865-2.881,3.301-7.383,1.042-10.76c-2.258-3.378-6.585-4.694-10.342-3.148c-1.065,0.411-2.027,1.051-2.817,1.875
			c-0.77,0.785-1.379,1.714-1.792,2.733c-0.48,1.011-0.714,2.122-0.683,3.241c-0.022,2.27,0.87,4.453,2.475,6.058
			C375.253,169.747,377.436,170.639,379.706,170.617z"/>
		<path d="M337.722,165.408c0.413,1.02,1.022,1.948,1.792,2.733c0.827,0.779,1.779,1.413,2.817,1.875
			c2.081,0.874,4.424,0.879,6.509,0.013c2.084-0.866,3.735-2.53,4.583-4.621c0.438-1.055,0.67-2.183,0.683-3.325
			c-0.014-1.115-0.246-2.216-0.683-3.242c-0.413-1.02-1.022-1.948-1.792-2.733c-2.039-2.025-4.942-2.919-7.767-2.392
			c-0.523,0.135-1.035,0.307-1.533,0.517c-0.532,0.218-1.047,0.475-1.542,0.767c-0.445,0.345-0.871,0.715-1.275,1.108
			c-0.77,0.785-1.379,1.714-1.792,2.733c-0.437,1.026-0.669,2.127-0.683,3.242C337.053,163.225,337.285,164.354,337.722,165.408z"/>
		<path d="M328.216,407.478c-0.012-0.048,0.003-0.096-0.01-0.144c-0.051-0.186-0.188-0.317-0.25-0.496
			c-0.255-0.764-0.62-1.488-1.081-2.148c-0.467-0.546-0.935-1.092-1.402-1.638c-5.458-4.608-33.608-27.608-51.008-27.608
			c-8.023-0.115-15.914,2.046-22.758,6.233c-6.845-4.187-14.736-6.348-22.758-6.233c-17.4,0-45.55,23-51.008,27.608
			c-0.469,0.548-0.938,1.095-1.406,1.643c-0.459,0.658-0.822,1.379-1.076,2.141c-0.063,0.181-0.2,0.312-0.251,0.499
			c-0.013,0.048,0.003,0.096-0.01,0.144c-0.256,1.004-0.326,2.046-0.207,3.075c0.057,0.278,0.129,0.553,0.215,0.824
			c0.087,0.568,0.233,1.126,0.435,1.665c1.025,2.3,25.591,56.267,76.067,56.267s75.042-53.967,76.067-56.267
			c0.202-0.538,0.348-1.096,0.435-1.665c0.086-0.271,0.158-0.546,0.215-0.824C328.542,409.524,328.472,408.481,328.216,407.478z
			 M245.331,398.175c1.66,1.748,3.965,2.738,6.375,2.738s4.715-0.99,6.375-2.738c4.538-3.91,10.399-5.937,16.383-5.667
			c9.383,2.297,18.144,6.636,25.658,12.708c-32.044,5.522-64.797,5.522-96.841-0.001c7.514-6.075,16.279-10.414,25.666-12.707
			C234.932,392.233,240.795,394.261,245.331,398.175z M251.706,452.242c-23.816,0-40.866-16.756-50.678-30.079
			c33.543,5.975,67.879,5.971,101.421-0.01C292.681,435.472,275.657,452.242,251.706,452.242z"/>
		<path d="M275.456,63.2c-12.882-5.129-27.471-3.527-38.933,4.275c-11.843,7.978-18.946,21.321-18.95,35.6v11.075l-12.35,6.175
			c-4.204,2.114-5.903,7.232-3.799,11.441c2.104,4.209,7.218,5.92,11.432,3.826l4.717-2.359v15.05l-12.35,6.175
			c-4.204,2.114-5.903,7.232-3.799,11.441c2.104,4.209,7.218,5.92,11.432,3.826l4.717-2.358v15.05l-12.35,6.175
			c-4.204,2.114-5.903,7.232-3.799,11.441c2.104,4.209,7.218,5.92,11.432,3.826l4.717-2.358v15.05l-12.35,6.175
			c-4.204,2.114-5.903,7.232-3.799,11.441c2.104,4.209,7.218,5.92,11.432,3.826l4.717-2.358v15.05l-12.35,6.175
			c-4.204,2.114-5.903,7.232-3.799,11.441c2.104,4.209,7.218,5.92,11.432,3.826l4.717-2.358v3.259c0,4.713,3.821,8.533,8.533,8.533
			c4.713,0,8.533-3.82,8.533-8.533v-11.792l12.35-6.175c4.204-2.114,5.903-7.232,3.799-11.441c-2.104-4.209-7.218-5.92-11.432-3.826
			l-4.717,2.358V227.1l12.35-6.175c4.204-2.114,5.903-7.232,3.799-11.441c-2.104-4.209-7.218-5.92-11.432-3.826l-4.717,2.358v-15.05
			l12.35-6.175c4.204-2.114,5.903-7.232,3.799-11.441c-2.104-4.209-7.218-5.92-11.432-3.826l-4.717,2.358v-15.05l12.35-6.175
			c4.204-2.114,5.903-7.232,3.799-11.441c-2.104-4.209-7.218-5.92-11.432-3.826l-4.717,2.358V124.7l12.35-6.175
			c4.204-2.114,5.903-7.232,3.799-11.441c-2.104-4.209-7.218-5.92-11.432-3.826l-4.717,2.358v-2.541
			c0.008-8.613,4.296-16.658,11.442-21.467c6.749-4.687,15.407-5.655,23.025-2.575c7.093,2.933,13.611,7.1,19.25,12.308
			c3.341,3.3,8.721,3.279,12.037-0.046s3.322-8.705,0.013-12.037C293.144,72.421,284.687,66.978,275.456,63.2z"/>
		<path d="M121.939,196.617c-4.216,2.108-5.925,7.234-3.817,11.45c2.108,4.216,7.234,5.925,11.45,3.817l4.717-2.358v3.258
			c0,4.713,3.82,8.533,8.533,8.533s8.533-3.82,8.533-8.533v-11.792l12.35-6.175c4.216-2.108,5.925-7.234,3.817-11.45
			c-2.108-4.216-7.234-5.925-11.45-3.817l-4.717,2.358v-15.05l12.35-6.175c4.216-2.108,5.925-7.234,3.817-11.45
			c-2.108-4.216-7.234-5.925-11.45-3.817l-4.717,2.358v-15.05l12.35-6.175c4.216-2.108,5.925-7.234,3.817-11.45
			c-2.108-4.216-7.234-5.925-11.45-3.817l-4.717,2.358v-15.05l12.35-6.175c2.727-1.364,4.52-4.078,4.702-7.122
			c0.183-3.044-1.272-5.953-3.817-7.633c-2.544-1.68-5.792-1.875-8.519-0.511l-4.717,2.358v-15.05l12.35-6.175
			c2.727-1.364,4.52-4.078,4.702-7.122c0.183-3.044-1.272-5.953-3.817-7.633c-2.544-1.68-5.792-1.875-8.519-0.511l-4.717,2.358V42.8
			c0.015-8.595,4.3-16.621,11.433-21.417c6.738-4.698,15.396-5.67,23.008-2.583c12.694,7.486,24.274,16.718,34.4,27.425
			c3.404,3.247,8.793,3.128,12.049-0.267c3.257-3.394,3.152-8.784-0.233-12.05c-11.538-12.385-24.993-22.832-39.85-30.942
			c-12.882-5.139-27.477-3.533-38.933,4.284c-11.831,7.964-18.93,21.288-18.942,35.55v11.108l-12.35,6.175
			c-4.216,2.108-5.925,7.234-3.817,11.45c2.108,4.216,7.234,5.925,11.45,3.817l4.717-2.358v15.05l-12.35,6.175
			c-4.216,2.108-5.925,7.234-3.817,11.45c2.108,4.216,7.234,5.925,11.45,3.817l4.717-2.358v15.05l-12.35,6.175
			c-4.216,2.108-5.925,7.234-3.817,11.45c2.108,4.216,7.234,5.925,11.45,3.817l4.717-2.358v15.05l-12.35,6.175
			c-4.216,2.108-5.925,7.234-3.817,11.45c2.108,4.216,7.234,5.925,11.45,3.817l4.717-2.358v15.05L121.939,196.617z"/>
	</g>
</g>
<g>
</g>
<g>
</g>
<g>
</g>
<g>
</g>
<g>
</g>
<g>
</g>
<g>
</g>
<g>
</g>
<g>
</g>
<g>
</g>
<g>
</g>
<g>
</g>
<g>
</g>
<g>
</g>
<g>
</g>
</svg>
