<?xml version="1.0" encoding="iso-8859-1"?>
<!-- Generator: Adobe Illustrator 19.0.0, SVG Export Plug-In . SVG Version: 6.00 Build 0)  -->
<svg version="1.1" id="Capa_1" xmlns="http://www.w3.org/2000/svg" xmlns:xlink="http://www.w3.org/1999/xlink" x="0px" y="0px"
	 viewBox="0 0 511.858 511.858" style="enable-background:new 0 0 511.858 511.858;" xml:space="preserve">
<g>
	<g transform="translate(1)">
		<g>
			<g>
				<path style="fill:#BFB186;" d="M91.923,221.725h42.667v85.333H91.923c-9.426,0-17.067-7.641-17.067-17.067v-51.2
					C74.856,229.366,82.497,221.725,91.923,221.725z"/>
				<path style="fill:#BFB186;" d="M416.189,307.058h-42.667v-85.333h42.667c9.426,0,17.067,7.641,17.067,17.067v51.2
					C433.256,299.417,425.615,307.058,416.189,307.058z"/>
			</g>
			<path style="fill:#F57C00;" d="M429.587,186.311c-3.087,12.281-7.583,24.164-13.397,35.413H91.923
				C64.531,162.93,79.293,75.463,144.403,49.01c18.589-7.201,38.648-9.778,58.453-7.509c1.963,0.171,10.325-7.936,12.032-9.131
				c10.518-7.037,21.869-12.741,33.792-16.981c3.772-1.356,7.618-2.496,11.52-3.413c58.795-14.421,126.293,15.787,156.757,68.096
				C435.29,112.343,439.842,150.641,429.587,186.311z"/>
			<path style="fill:#FF9801;" d="M368.317,186.311c-3.125,12.269-7.619,24.148-13.397,35.413H91.923
				C64.531,162.93,79.293,75.463,144.403,49.01c18.589-7.201,38.648-9.778,58.453-7.509c1.963,0.171,10.325-7.936,12.032-9.131
				c10.518-7.037,21.869-12.741,33.792-16.981c3.772-1.356,7.618-2.496,11.52-3.413c39.776,8.696,74.253,33.305,95.403,68.096
				C374.002,112.318,378.588,150.633,368.317,186.311z"/>
			<path style="fill:#BFB186;" d="M382.056,196.125v204.459c0.003,16.706-6.131,32.832-17.237,45.312l-25.6,28.757
				c-16.152,18.258-39.367,28.7-63.744,28.672h-37.291c-22.632,0.004-44.336-8.991-60.331-25.003l-31.829-31.829
				c-12.79-12.784-19.974-30.129-19.968-48.213V196.125c-0.042-14.603,2.47-29.1,7.424-42.837h0.171
				c19.797,0.853,72.448-0.171,86.272-34.645c7.055-18.771,21.441-33.865,39.851-41.813c3.17-1.174,6.421-2.115,9.728-2.816
				C330.515,61.213,382.056,143.474,382.056,196.125z"/>
			<path style="fill:#FFECB3;" d="M356.456,196.125v204.459c0.003,16.706-6.131,32.832-17.237,45.312l-25.6,28.757
				c-16.152,18.258-39.367,28.7-63.744,28.672h-11.691c-22.632,0.004-44.336-8.991-60.331-25.003l-31.829-31.829
				c-12.79-12.784-19.974-30.129-19.968-48.213V196.125c-0.042-14.603,2.47-29.1,7.424-42.837h0.171
				c19.797,0.853,72.448-0.171,86.272-34.645c7.055-18.771,21.441-33.865,39.851-41.813c3.17-1.174,6.421-2.115,9.728-2.816
				C318.653,84.253,356.456,151.068,356.456,196.125z"/>
			<path style="fill:#4E342E;" d="M366.013,444.445c-0.351,0.521-0.751,1.007-1.195,1.451l-25.6,28.757
				c-16.152,18.258-39.367,28.7-63.744,28.672h-37.291c-22.632,0.004-44.336-8.991-60.331-25.003l-31.829-31.829
				c-1.035-1.018-2.004-2.101-2.901-3.243c0.256-85.077,85.333-102.059,85.333-102.059l1.365-0.512
				c3.425,10.485,13.204,17.579,24.235,17.579c11.03,0,20.81-7.093,24.235-17.579l1.365,0.512c0,0,85.333,17.067,85.333,102.4
				L366.013,444.445z"/>
			<path style="fill:#795548;" d="M340.413,433.556c-0.266,0.46-0.574,0.895-0.92,1.298l-19.719,25.74
				c-11.412,15.81-29.606,25.319-49.101,25.663h-28.725c-18.025-0.277-35.017-8.46-46.473-22.379l-24.518-28.49
				c-0.804-0.92-1.55-1.89-2.235-2.902c0.197-76.15,65.732-91.349,65.732-91.349l1.052-0.458c1.562,9.09,9.444,15.734,18.668,15.734
				s17.106-6.644,18.668-15.734l1.051,0.458c0,0,65.732,15.276,65.732,91.655L340.413,433.556z"/>
			<g>
				<path style="fill:#00838F;" d="M236.989,238.791v34.133c0.002,9.053-3.593,17.737-9.995,24.139
					c-6.402,6.402-15.085,9.997-24.139,9.995h-42.667c-9.053,0.003-17.737-3.593-24.139-9.995
					c-6.402-6.402-9.997-15.085-9.995-24.139v-51.2h93.867C229.337,221.752,236.962,229.377,236.989,238.791z"/>
				<path style="fill:#00838F;" d="M382.056,221.725v51.2c0.002,9.053-3.593,17.737-9.995,24.139
					c-6.402,6.402-15.085,9.997-24.139,9.995h-42.667c-9.053,0.003-17.737-3.593-24.139-9.995
					c-6.402-6.402-9.997-15.085-9.995-24.139v-34.133c0.027-9.414,7.652-17.039,17.067-17.067H382.056z"/>
			</g>
			<g>
				<path style="fill:#00BCD4;" d="M211.389,238.791v34.133c0.002,9.053-3.593,17.737-9.995,24.139
					c-6.402,6.402-15.085,9.997-24.139,9.995h-17.067c-9.053,0.003-17.737-3.593-24.139-9.995
					c-6.402-6.402-9.997-15.085-9.995-24.139v-51.2h68.267C203.737,221.752,211.362,229.377,211.389,238.791z"/>
				<path style="fill:#00BCD4;" d="M356.456,221.725v51.2c0.002,9.053-3.593,17.737-9.995,24.139
					c-6.402,6.402-15.085,9.997-24.139,9.995h-17.067c-9.053,0.003-17.737-3.593-24.139-9.995
					c-6.402-6.402-9.997-15.085-9.995-24.139v-34.133c0.027-9.414,7.652-17.039,17.067-17.067H356.456z"/>
			</g>
		</g>
		<path style="fill:none;stroke:#000000;stroke-width:2;stroke-linecap:round;stroke-linejoin:round;" d="M236.989,238.791h34.133"
			/>
		<path style="fill:#2C3E50;" d="M382.056,213.191h-93.867c-10.813,0.033-20.435,6.868-24.028,17.067H243.95
			c-3.592-10.199-13.214-17.033-24.028-17.067h-93.867c-4.713,0-8.533,3.821-8.533,8.533v51.2
			c0.028,23.553,19.114,42.639,42.667,42.667h42.667c23.553-0.028,42.639-19.114,42.667-42.667v-25.6h17.067v25.6
			c0.028,23.553,19.114,42.639,42.667,42.667h42.667c23.553-0.028,42.639-19.114,42.667-42.667v-51.2
			C390.589,217.012,386.769,213.191,382.056,213.191z M228.456,272.924c-0.015,14.132-11.468,25.585-25.6,25.6h-42.667
			c-14.132-0.015-25.585-11.468-25.6-25.6v-42.667h85.333c4.71,0.006,8.527,3.823,8.533,8.533V272.924z M373.523,272.924
			c-0.015,14.132-11.468,25.585-25.6,25.6h-42.667c-14.132-0.015-25.585-11.468-25.6-25.6v-34.133
			c0.006-4.71,3.823-8.527,8.533-8.533h85.333V272.924z"/>
	</g>
	<g>
		<path d="M310.056,402.358c-16.625,9.991-35.606,15.386-55,15.633c-19.394-0.298-38.368-5.694-55.017-15.646
			c-3.925-2.61-9.222-1.543-11.831,2.381c-2.61,3.925-1.543,9.222,2.381,11.831c19.425,11.873,41.702,18.265,64.467,18.5
			c22.765-0.235,45.042-6.628,64.467-18.5c2.57-1.677,4.041-4.605,3.853-7.668s-2.005-5.789-4.76-7.14
			S312.592,400.631,310.056,402.358z"/>
		<path d="M218.577,162.32l-59.733,17.067c-2.956,0.816-5.247,3.157-6.001,6.13c-0.753,2.973,0.147,6.122,2.358,8.247
			c2.211,2.126,5.393,2.901,8.334,2.031l59.733-17.067c4.49-1.328,7.072-6.027,5.784-10.529
			C227.765,163.698,223.091,161.074,218.577,162.32z"/>
		<path d="M280.985,168.179c-1.295,4.531,1.327,9.254,5.858,10.55l59.733,17.067c4.514,1.246,9.189-1.377,10.476-5.88
			c1.287-4.502-1.294-9.201-5.784-10.529l-59.733-17.067C287.005,161.032,282.286,163.652,280.985,168.179z"/>
		<path d="M161.189,264.391h17.067c0,4.713,3.821,8.533,8.533,8.533c4.713,0,8.533-3.82,8.533-8.533h8.533
			c4.713,0,8.533-3.82,8.533-8.533s-3.821-8.533-8.533-8.533h-42.667c-4.713,0-8.533,3.821-8.533,8.533
			S156.477,264.391,161.189,264.391z"/>
		<path d="M306.256,264.391h8.533c0,4.713,3.82,8.533,8.533,8.533s8.533-3.82,8.533-8.533h17.067c4.713,0,8.533-3.82,8.533-8.533
			s-3.82-8.533-8.533-8.533h-42.667c-4.713,0-8.533,3.821-8.533,8.533S301.543,264.391,306.256,264.391z"/>
		<path d="M92.923,315.591h25.6v82.696c-0.03,18.45,6.646,36.283,18.784,50.178c0.418,0.606,0.915,1.154,1.478,1.629
			c0.741,0.806,1.425,1.652,2.205,2.431l31.829,31.829c17.57,17.668,41.479,27.572,66.396,27.504h37.258
			c26.811,0.02,52.343-11.46,70.121-31.529l25.6-28.758c12.501-14.031,19.405-32.17,19.396-50.962v-85.017h25.6
			c14.132-0.015,25.585-11.468,25.6-25.6v-51.2c-0.033-9.405-5.237-18.029-13.542-22.443c3.937-9.031,7.149-18.362,9.605-27.903
			c10.888-37.832,6.003-78.46-13.542-112.633C390.302,15.6,310.244-15.109,246.802,7.362c-12.568,4.467-24.531,10.479-35.617,17.896
			c-0.688,0.458-2.175,1.7-3.942,3.25c-1.142,1.008-3.462,3.046-5.017,4.242c-20.397-1.975-40.972,0.888-60.054,8.358
			c-28.274,11.795-50.302,34.914-60.717,63.725c-13.449,35.845-13.449,75.349,0.001,111.194
			c-8.634,4.309-14.102,13.115-14.134,22.765v51.2C67.338,304.123,78.791,315.576,92.923,315.591z M92.923,298.525
			c-4.71-0.006-8.527-3.823-8.533-8.533v-51.2c0.006-4.71,3.823-8.527,8.533-8.533h25.6v25.6h-17.067
			c-4.713,0-8.533,3.82-8.533,8.533s3.821,8.533,8.533,8.533h17.067v25.6H92.923z M280.656,238.791
			c0.006-4.71,3.823-8.527,8.533-8.533h85.333v42.667c-0.015,14.132-11.468,25.585-25.6,25.6h-42.667
			c-14.132-0.015-25.585-11.468-25.6-25.6V238.791z M374.523,213.191h-85.333c-10.813,0.033-20.435,6.868-24.028,17.067H244.95
			c-3.592-10.199-13.214-17.033-24.028-17.067h-85.333v-17.067c-0.029-11.564,1.652-23.069,4.987-34.142
			c25.625,0.296,73.921-4.304,88.271-40.171c6.163-16.545,18.773-29.882,34.946-36.962c18.945-6.901,40.11-3.528,55.971,8.92
			c32.158,24.626,52.118,61.936,54.758,102.354V213.191z M135.589,230.258h85.333c4.71,0.006,8.527,3.823,8.533,8.533v34.133
			c-0.015,14.132-11.468,25.585-25.6,25.6h-42.667c-14.132-0.015-25.585-11.468-25.6-25.6V230.258z M333.823,469.003
			c-14.539,16.416-35.421,25.806-57.35,25.788h-37.258c-20.388,0.055-39.952-8.048-54.329-22.504l-31.829-31.829l-0.194-0.214
			c1.919-64.055,56.477-84.64,73.393-89.445c6.196,9.949,17.089,15.996,28.81,15.993c11.721-0.003,22.61-6.056,28.801-16.008
			c17.11,4.797,72.904,25.555,73.525,91.744L333.823,469.003z M374.523,400.608c-0.014,5.916-0.91,11.797-2.658,17.449
			c-12.279-57.055-64.265-77.79-82.873-83.449c0.038-0.658,0.197-1.282,0.197-1.95c0-4.713-3.82-8.533-8.533-8.533
			s-8.533,3.82-8.533,8.533c0,9.426-7.641,17.067-17.067,17.067c-9.426,0-17.067-7.641-17.067-17.067
			c0-4.713-3.821-8.533-8.533-8.533c-4.713,0-8.533,3.82-8.533,8.533c0,0.668,0.159,1.292,0.197,1.95
			c-18.468,5.616-69.795,26.092-82.574,82.169c-1.952-5.969-2.949-12.209-2.956-18.49V306.84c7.343,5.644,16.338,8.719,25.6,8.752
			h42.667c23.553-0.028,42.639-19.114,42.667-42.667v-25.6h17.067v25.6c0.028,23.553,19.114,42.639,42.667,42.667h42.667
			c9.262-0.032,18.257-3.107,25.6-8.752V400.608z M425.723,289.991c-0.006,4.71-3.823,8.527-8.533,8.533h-25.6v-25.6h17.067
			c4.713,0,8.533-3.82,8.533-8.533s-3.82-8.533-8.533-8.533h-17.067v-25.6h25.6c4.71,0.006,8.527,3.823,8.533,8.533V289.991z
			 M97.344,111.07c8.826-24.384,27.393-44.001,51.254-54.154c17.305-6.644,35.955-9.029,54.375-6.954
			c4.879,0.521,8.688-2.617,15.538-8.633c0.992-0.871,1.825-1.621,2.162-1.883c9.906-6.631,20.598-12.006,31.829-16
			c56.054-19.854,126.967,7.471,158.058,60.946c17.233,30.282,21.483,66.248,11.783,99.713c-2.551,10.009-6.059,19.75-10.474,29.087
			h-20.28v-17.067c-2.63-46.021-25.332-88.567-62.096-116.375c-20.466-15.628-47.492-19.731-71.675-10.883
			c-20.724,8.694-36.941,25.557-44.821,46.604c-11.917,29.808-62.829,29.975-78.146,29.292c-3.717-0.144-7.105,2.122-8.392,5.612
			c-5.297,14.669-7.983,30.153-7.938,45.75v17.067H98.681C85.43,180.526,84.953,144.071,97.344,111.07z"/>
		<path d="M133.518,119.07c4.572,1.141,9.204-1.637,10.35-6.208c6.771-27.083,41.288-27.658,42.933-27.671
			c4.713-0.003,8.531-3.827,8.527-8.54c-0.003-4.713-3.827-8.531-8.54-8.527c-17.062,0-51.45,8.483-59.479,40.596
			C126.167,113.293,128.946,117.926,133.518,119.07z"/>
	</g>
</g>
<g>
</g>
<g>
</g>
<g>
</g>
<g>
</g>
<g>
</g>
<g>
</g>
<g>
</g>
<g>
</g>
<g>
</g>
<g>
</g>
<g>
</g>
<g>
</g>
<g>
</g>
<g>
</g>
<g>
</g>
</svg>
