<?xml version="1.0" encoding="iso-8859-1"?>
<!-- Generator: Adobe Illustrator 19.0.0, SVG Export Plug-In . SVG Version: 6.00 Build 0)  -->
<svg version="1.1" id="Capa_1" xmlns="http://www.w3.org/2000/svg" xmlns:xlink="http://www.w3.org/1999/xlink" x="0px" y="0px"
	 viewBox="0 0 511.845 511.845" style="enable-background:new 0 0 511.845 511.845;" xml:space="preserve">
<g>
	<g transform="translate(1 1)">
		<g>
			<path style="fill:#FFE0B2;" d="M126.442,220.712v85.333H92.309c-9.414-0.028-17.039-7.652-17.067-17.067v-51.2
				c0.029-9.118,7.191-16.618,16.299-17.067H126.442z"/>
			<path style="fill:#FFE0B2;" d="M433.642,237.778v51.2c-0.028,9.414-7.652,17.039-17.067,17.067h-34.133v-85.333h34.133
				C425.99,220.739,433.615,228.364,433.642,237.778z"/>
		</g>
		<path style="fill:#FF9801;" d="M416.575,79.058C384.149,23.336,309.567-7.299,248.213,14.376
			c-1.877,0.683-3.669,1.365-5.461,2.133c-9.921,3.922-19.39,8.9-28.245,14.848c-1.707,1.195-10.069,9.301-12.032,9.131
			c-7.655-0.783-15.362-0.926-23.04-0.427c-12.155,0.722-24.113,3.402-35.413,7.936c-0.564,0.204-1.106,0.461-1.621,0.768
			c-63.744,27.221-78.08,113.664-50.859,171.947h34.901v-25.6c-0.011-12.13,1.714-24.198,5.12-35.84
			c0.683-2.389,1.451-4.693,2.304-6.997c8.454,0.366,16.922,0.138,25.344-0.683c23.125-2.133,51.541-9.984,61.099-33.963
			c5.988-15.371,16.719-28.433,30.635-37.291c2.913-1.812,6-3.327,9.216-4.523c65.195-24.32,122.283,63.915,122.283,119.296v25.6
			h33.365c5.778-11.265,10.272-23.144,13.397-35.413C439.46,149.628,434.908,111.33,416.575,79.058z"/>
		<g>
			<path style="fill:#FFEB3A;" d="M394.303,193.832c-2.407,9.185-5.517,18.172-9.301,26.88h-2.56v-25.6
				c0-55.381-57.088-143.616-122.283-119.296c-3.216,1.195-6.303,2.711-9.216,4.523c-13.916,8.858-24.647,21.92-30.635,37.291
				c-9.557,23.979-37.973,31.829-61.099,33.963c-8.422,0.821-16.89,1.049-25.344,0.683c-0.853,2.304-1.621,4.608-2.304,6.997
				c-3.406,11.642-5.131,23.71-5.12,35.84v25.6H91.541C64.319,162.429,78.655,75.986,142.399,48.765
				c0.515-0.307,1.058-0.564,1.621-0.768c11.3-4.534,23.259-7.214,35.413-7.936c7.678-0.5,15.385-0.357,23.04,0.427
				c1.963,0.171,10.325-7.936,12.032-9.131c8.855-5.948,18.325-10.926,28.245-14.848c55.983-4.28,109.642,23.176,138.923,71.083
				C400.007,119.863,404.559,158.161,394.303,193.832z"/>
			<path style="fill:#FFEB3A;" d="M159.21,151.592c-8.422,0.821-16.89,1.049-25.344,0.683c-0.853,2.304-1.621,4.608-2.304,6.997
				L159.21,151.592z"/>
		</g>
		<path style="fill:#B19046;" d="M134.2,118.312c-2.627-0.002-5.107-1.212-6.725-3.282c-1.618-2.07-2.194-4.769-1.562-7.318
			c8.029-32.117,42.417-40.6,59.479-40.6c4.713-0.003,8.536,3.814,8.54,8.527s-3.814,8.536-8.527,8.54
			c-1.646,0.009-36.162,0.583-42.933,27.667C141.523,115.642,138.114,118.308,134.2,118.312z"/>
		<path style="fill:#00838F;" d="M237.375,237.778v34.133c0.002,9.053-3.593,17.737-9.995,24.139
			c-6.402,6.402-15.085,9.997-24.139,9.995h-42.667c-9.053,0.002-17.737-3.593-24.139-9.995c-6.402-6.402-9.997-15.085-9.995-24.139
			v-51.2h93.867C229.723,220.739,237.348,228.364,237.375,237.778z"/>
		<path style="fill:#BFB186;" d="M288.575,220.712h93.867v-25.6c0-52.651-51.541-134.912-112.555-122.112
			c-3.307,0.701-6.558,1.642-9.728,2.816c-18.41,7.949-32.796,23.043-39.851,41.813c-13.824,34.475-66.475,35.499-86.272,34.645
			h-0.171c-4.954,13.737-7.466,28.235-7.424,42.837v25.6h93.867c9.414,0.027,17.039,7.652,17.067,17.067v34.133
			c0.002,9.053-3.593,17.737-9.995,24.139c-6.402,6.402-15.085,9.997-24.139,9.995h-42.667c-9.053,0.002-17.737-3.593-24.139-9.995
			s-9.997-15.085-9.995-24.139v125.355c-0.006,18.084,7.178,35.429,19.968,48.213l31.829,31.829
			c15.995,16.012,37.699,25.006,60.331,25.003h37.291c24.377,0.028,47.592-10.414,63.744-28.672l25.6-28.757
			c11.106-12.48,17.24-28.606,17.237-45.312V271.912c0.014,15.564-10.524,29.158-25.6,33.024c-2.78,0.762-5.651,1.135-8.533,1.109
			h-42.667c-9.053,0.002-17.737-3.593-24.139-9.995c-6.402-6.402-9.997-15.085-9.995-24.139v-34.133
			C271.536,228.364,279.161,220.739,288.575,220.712z"/>
		<g>
			<path style="fill:#FFECB3;" d="M356.842,304.936v94.635c0.003,16.706-6.131,32.832-17.237,45.312l-25.6,28.757
				c-16.152,18.258-39.367,28.7-63.744,28.672H238.57c-22.632,0.004-44.336-8.991-60.331-25.003L146.41,445.48
				c-12.79-12.784-19.974-30.129-19.968-48.213v-92.331c2.78,0.762,5.651,1.135,8.533,1.109h68.267
				c9.053,0.002,17.737-3.593,24.139-9.995c6.402-6.402,9.997-15.085,9.995-24.139v-34.133h8.533v34.133
				c-0.002,9.053,3.593,17.737,9.995,24.139c6.402,6.402,15.085,9.997,24.139,9.995h68.267
				C351.191,306.071,354.062,305.698,356.842,304.936z"/>
			<path style="fill:#FFECB3;" d="M356.842,195.112v25.6h-93.867c-9.414,0.027-17.039,7.652-17.067,17.067h-8.533
				c-0.028-9.414-7.652-17.039-17.067-17.067h-93.867v-25.6c-0.042-14.603,2.47-29.1,7.424-42.837h0.171
				c19.797,0.853,72.448-0.171,86.272-34.645c7.055-18.771,21.441-33.865,39.851-41.813c3.17-1.174,6.421-2.115,9.728-2.816
				C319.039,83.24,356.842,150.056,356.842,195.112z"/>
		</g>
		<path style="fill:#00838F;" d="M382.442,220.712v51.2c0.002,9.053-3.593,17.737-9.995,24.139
			c-6.402,6.402-15.085,9.997-24.139,9.995h-42.667c-9.053,0.002-17.737-3.593-24.139-9.995c-6.402-6.402-9.997-15.085-9.995-24.139
			v-34.133c0.027-9.414,7.652-17.039,17.067-17.067H382.442z"/>
		<g>
			<path style="fill:#00BCD4;" d="M211.775,237.778v34.133c0.002,9.053-3.593,17.737-9.995,24.139
				c-6.402,6.402-15.085,9.997-24.139,9.995h-17.067c-9.053,0.002-17.737-3.593-24.139-9.995
				c-6.402-6.402-9.997-15.085-9.995-24.139v-51.2h68.267C204.123,220.739,211.748,228.364,211.775,237.778z"/>
			<path style="fill:#00BCD4;" d="M356.842,220.712v51.2c0.002,9.053-3.593,17.737-9.995,24.139
				c-6.402,6.402-15.085,9.997-24.139,9.995h-17.067c-9.053,0.002-17.737-3.593-24.139-9.995
				c-6.402-6.402-9.997-15.085-9.995-24.139v-34.133c0.027-9.414,7.652-17.039,17.067-17.067H356.842z"/>
		</g>
	</g>
	<g>
		<path d="M254.659,358.245c19.142,0,34.133-11.242,34.133-25.6c0-4.713-3.82-8.533-8.533-8.533s-8.533,3.82-8.533,8.533
			c0,3.483-6.65,8.533-17.067,8.533c-10.417,0-17.067-5.05-17.067-8.533c0-4.713-3.82-8.533-8.533-8.533
			c-4.713,0-8.533,3.82-8.533,8.533C220.525,347.003,235.517,358.245,254.659,358.245z"/>
		<path d="M424.917,75.795C389.9,15.595,309.825-15.097,246.409,7.353c-12.568,4.454-24.53,10.462-35.608,17.883
			c-1.377,1.024-2.701,2.117-3.967,3.275c-1.142,1-3.454,3.025-5.004,4.225c-20.397-1.985-40.975,0.879-60.054,8.358
			C113.501,52.89,91.474,76.009,81.059,104.82c-13.494,35.966-13.443,75.612,0.141,111.543
			c-8.276,4.423-13.458,13.031-13.491,22.415v51.2c0.015,14.132,11.468,25.585,25.6,25.6h25.6v82.692
			c-0.057,20.356,8.033,39.888,22.467,54.242l31.829,31.833c17.572,17.665,41.48,27.567,66.396,27.5h37.258
			c26.812,0.023,52.346-11.459,70.121-31.533l25.596-28.758c12.505-14.027,19.411-32.166,19.4-50.958v-85.017h25.6
			c14.132-0.015,25.585-11.468,25.6-25.6v-51.2c-0.032-9.669-5.522-18.491-14.182-22.791c3.871-8.921,7.033-18.133,9.458-27.55
			C449.34,150.603,444.459,109.973,424.917,75.795z M96.946,111.053c8.828-24.381,27.396-43.994,51.258-54.142
			c17.302-6.652,35.951-9.039,54.371-6.958c4.896,0.45,8.683-2.608,15.521-8.625c0.996-0.875,1.833-1.625,2.179-1.9
			c9.905-6.631,20.597-12.003,31.829-15.991c56.054-19.833,126.967,7.483,158.063,60.942c17.231,30.284,21.481,66.25,11.783,99.717
			c-2.553,10.007-6.061,19.747-10.476,29.083h-19.499v-17.067c-2.63-46.02-25.33-88.566-62.092-116.375
			c-20.471-15.619-47.494-19.722-71.679-10.883c-20.727,8.691-36.944,25.557-44.817,46.608
			c-11.921,29.783-62.8,29.958-78.154,29.292c-3.717-0.151-7.107,2.116-8.388,5.608c-5.296,14.67-7.983,30.154-7.937,45.75v17.067
			H98.284C85.033,180.512,84.556,144.056,96.946,111.053z M245.336,230.245c-3.592-10.199-13.214-17.033-24.028-17.067h-85.333
			v-17.067c-0.03-11.561,1.651-23.064,4.987-34.133c25.829-0.042,73.929-4.325,88.271-40.183
			c6.165-16.542,18.775-29.877,34.946-36.958c18.946-6.912,40.118-3.536,55.975,8.925c32.156,24.625,52.115,61.934,54.754,102.35
			v17.067h-85.333c-10.813,0.033-20.435,6.868-24.028,17.067H245.336z M135.975,230.245h85.333c4.711,0.005,8.529,3.822,8.533,8.533
			v34.133c-0.015,14.132-11.468,25.585-25.6,25.6h-42.667c-14.132-0.015-25.585-11.468-25.6-25.6V230.245z M281.042,238.778
			c0.005-4.711,3.822-8.529,8.533-8.533h85.333v42.667c-0.015,14.132-11.468,25.585-25.6,25.6h-42.667
			c-14.132-0.015-25.585-11.468-25.6-25.6V238.778z M93.309,298.512c-4.711-0.005-8.529-3.822-8.533-8.533v-51.2
			c0.005-4.711,3.822-8.529,8.533-8.533h25.6v25.6h-17.067c-4.713,0-8.533,3.821-8.533,8.533s3.821,8.533,8.533,8.533h17.067v25.6
			H93.309z M374.909,400.595c0.008,14.606-5.36,28.705-15.079,39.608l-25.621,28.783c-14.536,16.421-35.42,25.813-57.35,25.792
			h-13.667v-8.533c0-4.713-3.82-8.533-8.533-8.533c-4.713,0-8.533,3.82-8.533,8.533v8.533H239.6
			c-20.388,0.055-39.95-8.047-54.329-22.5l-31.829-31.833c-11.22-11.162-17.51-26.348-17.467-42.175v-91.443
			c7.343,5.644,16.338,8.719,25.6,8.752h42.667c23.553-0.028,42.639-19.114,42.667-42.667v-25.6h17.067v25.6
			c0.028,23.553,19.114,42.639,42.667,42.667h42.667c9.262-0.032,18.257-3.107,25.6-8.752V400.595z M426.109,289.978
			c-0.003,4.712-3.822,8.53-8.533,8.533h-25.6v-25.6h17.067c4.713,0,8.533-3.82,8.533-8.533s-3.821-8.533-8.533-8.533h-17.067v-25.6
			h25.6c4.712,0.003,8.53,3.822,8.533,8.533V289.978z"/>
		<path d="M133.121,119.053c2.196,0.553,4.522,0.21,6.464-0.955c1.942-1.165,3.34-3.055,3.886-5.253
			c6.771-27.083,41.288-27.658,42.933-27.667c4.713-0.003,8.531-3.827,8.527-8.54s-3.827-8.531-8.54-8.527
			c-17.062,0-51.45,8.483-59.479,40.6C125.772,113.282,128.551,117.911,133.121,119.053z"/>
		<path d="M161.575,264.378h17.067c0,4.713,3.821,8.533,8.533,8.533c4.713,0,8.533-3.82,8.533-8.533h8.533
			c4.713,0,8.533-3.821,8.533-8.533c0-4.713-3.821-8.533-8.533-8.533h-42.667c-4.713,0-8.533,3.821-8.533,8.533
			C153.042,260.558,156.863,264.378,161.575,264.378z"/>
		<path d="M306.642,264.378h8.533c0,4.713,3.821,8.533,8.533,8.533s8.533-3.82,8.533-8.533h17.067c4.713,0,8.533-3.821,8.533-8.533
			c0-4.713-3.821-8.533-8.533-8.533h-42.667c-4.713,0-8.533,3.821-8.533,8.533C298.109,260.558,301.929,264.378,306.642,264.378z"/>
		<path d="M289.575,392.378h-68.267c-4.713,0-8.533,3.82-8.533,8.533s3.821,8.533,8.533,8.533h68.267
			c4.713,0,8.533-3.82,8.533-8.533S294.288,392.378,289.575,392.378z"/>
		<path d="M272.509,417.978h-34.133c-4.713,0-8.533,3.82-8.533,8.533s3.821,8.533,8.533,8.533h34.133
			c4.713,0,8.533-3.82,8.533-8.533S277.222,417.978,272.509,417.978z"/>
		<path d="M221.309,179.045h-59.733c-4.713,0-8.533,3.821-8.533,8.533c0,4.713,3.821,8.533,8.533,8.533h59.733
			c4.713,0,8.533-3.821,8.533-8.533C229.842,182.865,226.022,179.045,221.309,179.045z"/>
		<path d="M289.575,196.112h59.733c4.713,0,8.533-3.821,8.533-8.533c0-4.713-3.821-8.533-8.533-8.533h-59.733
			c-4.713,0-8.533,3.821-8.533,8.533C281.042,192.291,284.863,196.112,289.575,196.112z"/>
	</g>
</g>
<g>
</g>
<g>
</g>
<g>
</g>
<g>
</g>
<g>
</g>
<g>
</g>
<g>
</g>
<g>
</g>
<g>
</g>
<g>
</g>
<g>
</g>
<g>
</g>
<g>
</g>
<g>
</g>
<g>
</g>
</svg>
