<?xml version="1.0" encoding="iso-8859-1"?>
<!-- Generator: Adobe Illustrator 19.0.0, SVG Export Plug-In . SVG Version: 6.00 Build 0)  -->
<svg version="1.1" id="Capa_1" xmlns="http://www.w3.org/2000/svg" xmlns:xlink="http://www.w3.org/1999/xlink" x="0px" y="0px"
	 viewBox="0 0 511.785 511.785" style="enable-background:new 0 0 511.785 511.785;" xml:space="preserve">
<g>
	<g transform="translate(1 1)">
		<g>
			<path style="fill:#BFB186;" d="M417.026,257.781v-20.053c-0.027-86.259-67.547-157.415-153.685-161.963
				c-0.171,0.512-0.768,2.304-1.621,5.035c-8.704,26.539-45.653,148.48-15.36,216.661c0,0-22.955-11.435-45.568-52.736
				c-13.983-26.453-24.153-54.751-30.208-84.053l-1.024,0.256c-1.899,29.898-1.757,59.892,0.427,89.771
				c2.219,26.027,6.997,51.029,16.64,63.829c-17.904-10.017-34-22.968-47.616-38.315c-18.798-20.35-33.437-44.178-43.093-70.144
				c-2.135,10.417-3.193,21.025-3.157,31.659v20.053c0,0-0.085,1.451-0.085,4.096c0.255,25.71,3.607,51.295,9.984,76.203
				c13.824,54.443,46.848,122.88,125.013,158.293c3.26,1.522,6.661,2.722,10.155,3.584c5.56,1.53,11.3,2.305,17.067,2.304
				c9.39,0.005,18.673-2.003,27.221-5.888c78.165-35.413,111.189-103.851,125.013-158.293
				C413.96,311.868,417.289,284.867,417.026,257.781z"/>
			<path style="fill:#FFECB3;" d="M382.807,257.781v-20.053c-0.023-73.744-49.76-138.203-121.088-156.928
				c-10.669-2.767-21.59-4.454-32.597-5.035c-1.536,4.523-32.512,94.464-28.331,168.96c0.632,18.112,4.474,35.967,11.349,52.736
				c0,0-20.736-10.325-42.155-46.763c-15.877-28.052-27.224-58.435-33.621-90.027l-1.024,0.256
				c-2.613,38.455-1.384,77.074,3.669,115.285c1.588,13.603,6.163,26.686,13.397,38.315c-23.342-13.224-43.683-31.153-59.733-52.651
				c0.255,25.71,3.607,51.295,9.984,76.203c13.824,54.443,46.848,122.88,125.013,158.293c3.26,1.522,6.661,2.722,10.155,3.584
				c3.454-0.9,6.823-2.1,10.069-3.584c78.165-35.413,111.189-103.851,125.013-158.293
				C379.742,311.868,383.07,284.867,382.807,257.781z"/>
			<g>
				<path style="fill:#BFB186;" d="M102.658,338.079l-1.365,0.341c-2.248,2.438-5.061,4.284-8.192,5.376
					c-18.005,5.717-30.037-23.723-34.731-36.267c-6.315-16.811-13.568-37.632-7.168-55.467c1.661-6.191,7.33-10.452,13.739-10.325
					c0.231-0.014,0.462,0.015,0.683,0.085c10.557,2.182,20.097,7.792,27.136,15.957C92.497,284.867,95.825,311.868,102.658,338.079z
					"/>
				<path style="fill:#BFB186;" d="M451.415,307.53c-4.693,12.544-16.725,41.984-34.731,36.267
					c-3.131-1.092-5.944-2.938-8.192-5.376l-1.365-0.341c6.833-26.211,10.161-53.213,9.899-80.299
					c6.822-7.776,15.835-13.309,25.856-15.872c0.65-0.099,1.305-0.156,1.963-0.171c6.409-0.126,12.078,4.134,13.739,10.325
					C464.983,269.898,457.73,290.719,451.415,307.53z"/>
			</g>
		</g>
		<g>
			<path style="fill:none;stroke:#000000;stroke-width:2;stroke-linecap:round;stroke-linejoin:round;" d="M263.426,75.594
				c-0.006,0.066-0.037,0.126-0.085,0.171"/>
			<path style="fill:none;stroke:#000000;stroke-width:2;stroke-linecap:round;stroke-linejoin:round;" d="M170.583,160.671
				c-4.03-18.284-7.078-36.771-9.131-55.381"/>
		</g>
		<g>
			<path style="fill:#6A1B9A;" d="M442.626,237.557l0.256,4.352c-10.022,2.563-19.034,8.096-25.856,15.872v-20.053
				c0.091-86.306-67.493-157.531-153.685-161.963c-0.427,1.28-3.328,9.643-7.083,22.613
				c-12.715,43.861-35.755,140.971-9.899,199.083c0,0-27.989-13.995-52.565-66.645c-10.288-22.459-18.072-45.982-23.211-70.144
				l-1.024,0.256c0,0-5.547,77.312,5.632,125.269c1.921,10.061,5.775,19.653,11.349,28.245
				c-22.609-12.813-42.402-30.052-58.197-50.688c-13.763-17.412-24.705-36.877-32.427-57.685
				c-2.135,10.417-3.193,21.025-3.157,31.659v20.053c-7.039-8.165-16.579-13.775-27.136-15.957
				c-7.975-22.848-13.357-46.52-16.043-70.571c-4.049-42.148,9.334-84.116,37.035-116.139c8.892-10.289,19.31-19.153,30.891-26.283
				c17.85-11.097,37.979-18.011,58.88-20.224c26.193-2.063,52.537-1.089,78.507,2.901C254.893,11.509,493.826,2.549,442.626,237.557
				z"/>
			<path style="fill:#9D27B0;" d="M408.407,185.418C386.975,122.677,329.549,79.27,263.341,75.765
				c-0.427,1.28-3.328,9.643-7.083,22.613c-11.166-3.11-22.642-4.97-34.219-5.547c-15.061,44.656-24.548,91.002-28.245,137.984
				c-10.288-22.459-18.072-45.982-23.211-70.144l-1.024,0.256c0,0-5.547,77.312,5.632,125.269
				c-15.616-20.48-33.877-54.272-45.909-108.459l-1.025,0.256c-1.822,28.559-1.794,57.205,0.085,85.76
				c-13.763-17.412-24.705-36.877-32.427-57.685c-2.135,10.417-3.193,21.025-3.157,31.659v20.053
				c-7.039-8.165-16.579-13.775-27.136-15.957c-7.975-22.848-13.357-46.52-16.043-70.571c-4.049-42.148,9.334-84.116,37.035-116.139
				c8.892-10.289,19.31-19.153,30.891-26.283c5.782-1.445,11.655-2.5,17.579-3.157c26.193-2.063,52.537-1.089,78.507,2.901
				C213.591,28.575,402.775,21.493,408.407,185.418z"/>
		</g>
		<path style="fill:none;stroke:#000000;stroke-width:2;stroke-linecap:round;stroke-linejoin:round;" d="M357.293,263.327h-17.067"
			/>
		<path style="fill:#2FA8CC;" d="M340.226,263.327v21.333c0,11.782-9.551,21.333-21.333,21.333s-21.333-9.551-21.333-21.333v-21.333
			H340.226z"/>
	</g>
	<g>
		<path d="M452.985,235.237c14.183-69.827,4.462-125.545-29.063-165.601C367.943,2.752,266.459,3.728,256.264,3.961
			c-26.406-4.045-53.194-4.996-79.821-2.833c-36.865,3.849-70.909,21.503-95.296,49.416c-29.132,33.884-43.229,78.16-39.05,122.65
			c2.434,21.509,6.98,42.726,13.573,63.344c-5.413,2.912-9.508,7.782-11.448,13.614c-7.208,19.85-0.429,41.183,7.129,61.342
			c12.421,33.1,27.675,47.058,45.375,41.467c0.675-0.217,1.346-0.467,2.012-0.75c16.029,54.391,50.871,118.708,126.379,152.967
			c9.657,4.348,20.126,6.6,30.717,6.608h0.117c10.592-0.009,21.062-2.261,30.721-6.608
			c75.504-34.258,110.346-98.575,126.375-152.966c0.671,0.283,1.35,0.533,2.029,0.75c17.658,5.583,32.937-8.35,45.354-41.467
			c7.563-20.158,14.342-41.492,7.133-61.342C465.296,243.179,459.905,237.663,452.985,235.237z M94.063,61.694
			c21.584-24.656,51.697-40.235,84.292-43.608c25.539-1.999,51.223-1.026,76.538,2.9c0.435,0.058,0.874,0.075,1.313,0.05
			c1.029,0.009,102.396-2.95,154.687,59.625c30.694,36.718,38.913,89.131,24.457,155.774c-3.074,1.166-6.019,2.644-8.791,4.412
			v-2.12c0.048-90.482-70.557-165.261-160.893-170.403c-1.415-0.228-2.866-0.09-4.213,0.4l-0.029,0.007
			c-0.859,0.341-1.656,0.821-2.359,1.42c-0.177,0.141-0.373,0.243-0.538,0.398c-0.431,0.456-0.809,0.958-1.126,1.499
			c-0.331,0.443-0.615,0.918-0.85,1.419c-0.043,0.106-0.132,0.176-0.171,0.285c-1.892,5.367-41.171,118.267-25.725,198.883
			c-15.85-18.175-37.258-52.35-50.742-112.825c-3.961-17.986-6.96-36.17-8.983-54.475c-0.325-3.044-2.256-5.68-5.059-6.909
			c-2.804-1.229-6.051-0.862-8.509,0.962c-2.459,1.824-3.752,4.824-3.39,7.864c2.048,18.216,4.969,35.757,8.535,52.401
			c-0.212,0.538-0.366,1.096-0.461,1.666c-0.721,10.108-5.458,84.108,6.675,131.167c-28.833-23.191-50.877-53.731-63.808-88.4
			c-0.146-0.268-0.308-0.528-0.484-0.778c-0.481-1.011-1.176-1.905-2.036-2.621c-0.837-0.739-1.825-1.288-2.895-1.609
			c-0.273-0.136-0.553-0.255-0.839-0.359c-0.236-0.051-0.458,0.022-0.693-0.009c-0.527-0.058-1.058-0.065-1.586-0.021
			c-0.641,0.025-1.276,0.126-1.893,0.301c-0.184,0.055-0.37,0.02-0.553,0.088c-0.251,0.093-0.417,0.292-0.654,0.406
			c-1.549,0.745-2.836,1.943-3.691,3.435c-0.273,0.494-0.494,1.014-0.661,1.553c-0.138,0.278-0.26,0.564-0.365,0.856
			c-2.249,10.99-3.368,22.182-3.337,33.4v2.12c-3.715-2.406-7.766-4.248-12.022-5.466c-6.943-20.795-11.683-42.261-14.141-64.046
			C55.36,131.553,67.995,91.974,94.063,61.694L94.063,61.694z M91.559,336.694c-7.05,2.2-15.946-9.108-24.229-31.2
			c-6.437-17.167-12.292-35.134-7.067-49.509c1.579-4.35,3.8-4.733,4.879-4.733c0.138,0,0.258,0.009,0.354,0.017
			c7.605,1.408,14.528,5.301,19.683,11.066c0.296,24.552,3.33,48.995,9.046,72.875C93.426,335.85,92.524,336.351,91.559,336.694
			L91.559,336.694z M279.626,489.627c-7.443,3.352-15.512,5.087-23.675,5.092h-0.117c-8.162-0.004-16.229-1.74-23.671-5.092
			c-135.421-61.425-129.95-228.825-129.879-230.508c0.003-0.057-0.029-0.108-0.028-0.165c0.002-0.063,0.036-0.114,0.036-0.177
			v-19.524c18.701,35.108,46.964,64.2,81.517,83.907c3.539,1.769,7.83,0.873,10.365-2.165c2.535-3.038,2.65-7.419,0.276-10.585
			c-12.525-16.703-16.231-59.893-16.679-97.158c26.958,72.602,63.914,91.917,65.774,92.842c3.221,1.609,7.106,1.022,9.709-1.467
			c2.602-2.489,3.363-6.343,1.9-9.633c-28.374-63.846,5.956-180.413,15.163-209.061c78.883,7.359,139.192,73.569,139.175,152.795
			v20.05c0,0.063,0.034,0.115,0.036,0.177c0.001,0.057-0.03,0.108-0.028,0.165C409.572,260.802,415.043,428.203,279.626,489.627z
			 M444.451,305.494c-8.279,22.083-17.092,33.525-24.208,31.2c-0.972-0.34-1.879-0.841-2.683-1.483
			c5.716-23.88,8.75-48.322,9.046-72.875c5.156-5.767,12.081-9.659,19.688-11.067c0.829-0.075,3.45-0.192,5.229,4.717
			C456.747,270.361,450.893,288.327,444.451,305.494z"/>
		<path d="M255.893,375.252c11.567,0.5,22.886-3.448,31.633-11.034c3.278-3.289,3.298-8.603,0.046-11.917
			c-3.27-3.341-8.611-3.452-12.017-0.25c-5.606,4.338-12.584,6.515-19.662,6.134c-7.031,0.371-13.966-1.767-19.567-6.033
			c-3.339-3.293-8.709-3.275-12.025,0.041c-3.316,3.316-3.334,8.687-0.041,12.025C233.007,371.804,244.326,375.752,255.893,375.252z
			"/>
		<path d="M307.093,409.386h-102.4c-4.713,0-8.533,3.82-8.533,8.533s3.821,8.533,8.533,8.533h102.4c4.713,0,8.533-3.82,8.533-8.533
			S311.806,409.386,307.093,409.386z"/>
		<path d="M264.426,443.519h-17.067c-4.713,0-8.533,3.82-8.533,8.533s3.821,8.533,8.533,8.533h17.067
			c4.713,0,8.533-3.82,8.533-8.533S269.139,443.519,264.426,443.519z"/>
		<path d="M358.293,255.794h-59.733c-2.263-0.001-4.434,0.898-6.035,2.499c-1.6,1.6-2.499,3.771-2.499,6.035v21.333
			c0,16.495,13.372,29.867,29.867,29.867s29.867-13.372,29.867-29.867v-12.8h8.533c4.713,0,8.533-3.821,8.533-8.533
			S363.005,255.794,358.293,255.794z M332.693,285.661c0,7.069-5.731,12.8-12.8,12.8s-12.8-5.731-12.8-12.8v-12.8h25.6V285.661z"/>
		<path d="M298.555,230.194c0.794-0.002,1.585-0.111,2.35-0.325l59.733-17.067c4.533-1.296,7.158-6.021,5.862-10.554
			c-1.296-4.533-6.021-7.158-10.554-5.862l-59.733,17.067c-4.09,1.171-6.693,5.175-6.104,9.388S294.301,230.19,298.555,230.194z"/>
		<path d="M255.893,341.128c2.263,0.001,4.434-0.898,6.035-2.499s2.499-3.771,2.499-6.035v-8.533c0-4.713-3.82-8.533-8.533-8.533
			c-4.713,0-8.533,3.82-8.533,8.533v8.533c-0.001,2.263,0.898,4.434,2.499,6.035C251.458,340.229,253.629,341.128,255.893,341.128z"
			/>
	</g>
</g>
<g>
</g>
<g>
</g>
<g>
</g>
<g>
</g>
<g>
</g>
<g>
</g>
<g>
</g>
<g>
</g>
<g>
</g>
<g>
</g>
<g>
</g>
<g>
</g>
<g>
</g>
<g>
</g>
<g>
</g>
</svg>
