<?xml version="1.0" encoding="iso-8859-1"?>
<!-- Generator: Adobe Illustrator 19.0.0, SVG Export Plug-In . SVG Version: 6.00 Build 0)  -->
<svg version="1.1" id="Capa_1" xmlns="http://www.w3.org/2000/svg" xmlns:xlink="http://www.w3.org/1999/xlink" x="0px" y="0px"
	 viewBox="0 0 511.984 511.984" style="enable-background:new 0 0 511.984 511.984;" xml:space="preserve">
<g>
	<g transform="translate(1)">
		<g>
			<path style="fill:#4E342E;" d="M92.858,221.867V307.2H58.725c-9.414-0.028-17.039-7.652-17.067-17.067v-51.2
				c0.028-9.414,7.652-17.039,17.067-17.067H92.858z"/>
			<path style="fill:#4E342E;" d="M468.325,238.933v51.2c-0.028,9.414-7.652,17.039-17.067,17.067h-34.133v-85.333h34.133
				C460.673,221.894,468.298,229.519,468.325,238.933z"/>
			<path style="fill:#4E342E;" d="M254.992,8.533c-27.42-0.664-54.669,4.483-79.957,15.104
				C75.365,68.267,92.858,196.267,92.858,196.267V307.2c1.333,36.489,10.685,72.237,27.392,104.704
				c21.983,43.273,61.267,75.209,108.117,87.893c16.928,4.72,34.809,4.838,51.797,0.341c0.492-0.073,0.977-0.188,1.451-0.341
				c46.827-12.678,86.104-44.577,108.117-87.808v-0.085c16.707-32.467,26.059-68.215,27.392-104.704V196.267
				C417.125,196.267,442.725,8.533,254.992,8.533z"/>
		</g>
		<path style="fill:#795548;" d="M230.586,17.067c-18.721-0.183-37.39,2.025-55.552,6.571
			C75.365,68.267,92.858,196.267,92.858,196.267V307.2c1.333,36.489,10.685,72.237,27.392,104.704
			c21.983,43.273,61.267,75.209,108.117,87.893c16.928,4.72,34.809,4.838,51.797,0.341c36.818-15.773,66.95-43.942,85.163-79.616
			v-0.085c16.707-32.467,26.059-68.215,27.392-104.704V204.8C392.72,204.8,418.32,17.067,230.586,17.067z"/>
		<g>
			<path style="fill:#95A5A5;" d="M272.058,247.467h-34.133c-4.713,0-8.533-3.821-8.533-8.533c0-4.713,3.821-8.533,8.533-8.533
				h34.133c4.713,0,8.533,3.821,8.533,8.533C280.592,243.646,276.771,247.467,272.058,247.467z"/>
			<path style="fill:#95A5A5;" d="M272.058,290.133c-4.001,0.001-7.465-2.778-8.333-6.683c-5.561-2.467-11.906-2.467-17.467,0
				c-0.944,4.249-4.935,7.107-9.262,6.632c-4.327-0.475-7.604-4.13-7.604-8.483c0-9.892,10.767-17.067,25.6-17.067
				c14.833,0,25.6,7.175,25.6,17.067c0.001,2.263-0.898,4.434-2.499,6.035C276.493,289.235,274.322,290.134,272.058,290.133z"/>
		</g>
		<g>
			<path style="fill:#00838F;" d="M237.925,277.333c0,25.941-24.832,46.933-55.467,46.933c-4.299,0.014-8.589-0.415-12.8-1.28
				c-24.491-4.864-42.667-23.467-42.667-45.653c0-43.008,0-46.592,42.667-46.848c3.925-0.085,8.192-0.085,12.8-0.085
				C237.925,230.4,237.925,230.4,237.925,277.333z"/>
			<path style="fill:#00838F;" d="M382.992,277.333c0,25.941-24.832,46.933-55.467,46.933c-4.299,0.014-8.589-0.415-12.8-1.28
				c-24.491-4.864-42.667-23.467-42.667-45.653c0-43.008,0-46.592,42.667-46.848c3.925-0.085,8.192-0.085,12.8-0.085
				C382.992,230.4,382.992,230.4,382.992,277.333z"/>
		</g>
		<g>
			<path style="fill:#00BCD4;" d="M212.325,277.333c0,22.187-18.176,40.789-42.667,45.653
				c-24.491-4.864-42.667-23.467-42.667-45.653c0-43.008,0-46.592,42.667-46.848C212.325,230.741,212.325,234.325,212.325,277.333z"
				/>
			<path style="fill:#00BCD4;" d="M357.392,277.333c0,22.187-18.176,40.789-42.667,45.653
				c-24.491-4.864-42.667-23.467-42.667-45.653c0-43.008,0-46.592,42.667-46.848C357.392,230.741,357.392,234.325,357.392,277.333z"
				/>
		</g>
		<path style="fill:#2C2F38;" d="M323.258,281.6c-2.263,0.001-4.434-0.898-6.035-2.499c-1.6-1.6-2.499-3.771-2.499-6.035v-8.533
			c0-4.713,3.82-8.533,8.533-8.533s8.533,3.821,8.533,8.533v8.533c0.001,2.263-0.898,4.434-2.499,6.035
			C327.693,280.702,325.522,281.601,323.258,281.6z"/>
	</g>
	<g>
		<path d="M324.258,401.067H187.725c-4.713,0-8.533,3.821-8.533,8.533c0,4.713,3.821,8.533,8.533,8.533h136.533
			c4.713,0,8.533-3.821,8.533-8.533C332.792,404.887,328.971,401.067,324.258,401.067z"/>
		<path d="M298.658,426.667c-2.263-0.001-4.434,0.898-6.035,2.499c-1.6,1.6-2.499,3.771-2.499,6.035h-76.8
			c-4.713,0-8.533,3.821-8.533,8.533c0,4.713,3.821,8.533,8.533,8.533h85.333c2.263,0.001,4.434-0.898,6.035-2.499
			c1.6-1.6,2.499-3.771,2.499-6.035V435.2c0.001-2.263-0.898-4.434-2.499-6.035C303.093,427.565,300.922,426.666,298.658,426.667z"
			/>
		<path d="M452.258,213.333h-25.6v-16.517c1.054-8.475,9.671-89.742-39.208-145.733C357.863,17.183,313.633,0,255.992,0
			S154.121,17.183,124.534,51.083c-48.879,55.992-40.263,137.258-39.208,145.733v16.517h-25.6
			c-14.132,0.015-25.585,11.468-25.6,25.6v51.2c0.015,14.132,11.468,25.585,25.6,25.6h25.958
			c2.431,34.955,11.965,69.047,28.02,100.192c22.986,45.405,64.198,78.892,113.346,92.1c18.936,5.278,38.955,5.278,57.892,0
			c49.104-13.236,90.291-46.677,113.33-92.017c0.114-0.211,0.217-0.428,0.308-0.65c15.87-30.997,25.3-64.886,27.72-99.625h25.959
			c14.132-0.015,25.585-11.468,25.6-25.6v-51.2C477.843,224.801,466.391,213.349,452.258,213.333z M51.192,290.133v-51.2
			c0.005-4.711,3.822-8.529,8.533-8.533h25.6V256H68.258c-4.713,0-8.533,3.821-8.533,8.533s3.821,8.533,8.533,8.533h17.067v25.6
			h-25.6C55.014,298.662,51.197,294.844,51.192,290.133z M383.196,407.942c-0.108,0.2-0.208,0.417-0.3,0.625
			c-20.962,40.907-58.219,71.064-102.596,83.042c-15.902,4.417-32.707,4.417-48.608,0c-44.625-12.013-82.038-42.432-102.904-83.667
			c-15.991-31.276-24.997-65.652-26.395-100.75V196.267c0.001-0.385-0.026-0.769-0.079-1.15
			c-0.108-0.8-10.396-80.708,35.079-132.808c26.204-30.025,66.104-45.242,118.6-45.242c52.446,0,92.325,15.192,118.525,45.158
			c45.433,51.95,35.258,132.092,35.154,132.9c-0.054,0.378-0.08,0.76-0.079,1.142V307.2
			C408.227,342.301,399.219,376.681,383.196,407.942z M460.792,290.133c-0.005,4.711-3.822,8.529-8.533,8.533h-25.6v-25.6h17.067
			c4.713,0,8.533-3.82,8.533-8.533s-3.82-8.533-8.533-8.533h-17.067v-25.6h25.6c4.711,0.005,8.529,3.822,8.533,8.533V290.133z"/>
		<path d="M298.658,349.867c0-4.713-3.82-8.533-8.533-8.533s-8.533,3.821-8.533,8.533c0,9.25-11.725,17.067-25.6,17.067
			c-13.875,0-25.6-7.817-25.6-17.067c0-4.713-3.821-8.533-8.533-8.533c-4.713,0-8.533,3.821-8.533,8.533
			c0,18.825,19.142,34.133,42.667,34.133S298.658,368.692,298.658,349.867z"/>
		<path d="M204.792,256h-42.667c-4.713,0-8.533,3.821-8.533,8.533s3.821,8.533,8.533,8.533h17.067c0,4.713,3.821,8.533,8.533,8.533
			c4.713,0,8.533-3.82,8.533-8.533h8.533c4.713,0,8.533-3.82,8.533-8.533S209.505,256,204.792,256z"/>
		<path d="M349.858,256h-42.667c-4.713,0-8.533,3.821-8.533,8.533s3.821,8.533,8.533,8.533h8.533c0,4.713,3.82,8.533,8.533,8.533
			s8.533-3.82,8.533-8.533h17.067c4.713,0,8.533-3.82,8.533-8.533S354.571,256,349.858,256z"/>
		<path d="M127.992,204.8c2.263,0.001,4.434-0.898,6.035-2.499c1.6-1.6,2.499-3.771,2.499-6.035v-8.533
			c0.005-4.711,3.822-8.529,8.533-8.533h51.2c4.713,0,8.533-3.821,8.533-8.533c0-4.713-3.82-8.533-8.533-8.533h-51.2
			c-14.132,0.015-25.585,11.468-25.6,25.6v8.533c-0.001,2.263,0.898,4.434,2.499,6.035
			C123.558,203.902,125.728,204.801,127.992,204.8z"/>
		<path d="M366.925,162.133h-51.2c-4.713,0-8.533,3.821-8.533,8.533c0,4.713,3.82,8.533,8.533,8.533h51.2
			c4.711,0.005,8.529,3.822,8.533,8.533v8.533c0,4.713,3.82,8.533,8.533,8.533s8.533-3.821,8.533-8.533v-8.533
			C392.51,173.601,381.057,162.149,366.925,162.133z"/>
		<path d="M328.525,221.867c-30.128,0-46.17,0.568-54.692,8.69c-0.268-0.026-0.5-0.156-0.775-0.156h-34.133
			c-0.275,0-0.507,0.131-0.775,0.156c-8.522-8.122-24.564-8.69-54.692-8.69c-57.667,0-64,1.8-64,55.467
			c0,30.583,28.708,55.467,64,55.467c32.539,0,59.422-21.168,63.428-48.438c0.142-0.296,0.267-0.601,0.372-0.912
			c5.561-2.467,11.906-2.467,17.467,0c0.106,0.311,0.23,0.616,0.372,0.912c4.006,27.27,30.889,48.438,63.428,48.438
			c35.292,0,64-24.883,64-55.467C392.525,223.667,386.192,221.867,328.525,221.867z M183.458,315.733
			c-25.879,0-46.933-17.225-46.933-38.4c0-18.817,0-31.242,3.913-34.55c4.546-3.85,19.854-3.85,43.021-3.85s38.475,0,43.021,3.85
			c3.913,3.308,3.913,15.733,3.913,34.55C230.392,298.508,209.338,315.733,183.458,315.733z M247.288,265.508
			c-0.088-6.041-0.592-12.069-1.507-18.042h20.422c-0.915,5.972-1.419,12-1.507,18.042
			C258.966,264.208,253.018,264.208,247.288,265.508L247.288,265.508z M328.525,315.733c-25.879,0-46.933-17.225-46.933-38.4
			c0-18.817,0-31.242,3.913-34.55c4.546-3.85,19.854-3.85,43.021-3.85c23.167,0,38.475,0,43.021,3.85
			c3.913,3.308,3.913,15.733,3.913,34.55C375.458,298.508,354.404,315.733,328.525,315.733z"/>
		<path d="M204.792,93.867h42.667c4.713,0,8.533-3.821,8.533-8.533s-3.821-8.533-8.533-8.533h-42.667
			c-4.713,0-8.533,3.821-8.533,8.533S200.079,93.867,204.792,93.867z"/>
		<path d="M230.392,119.467c-0.001,2.263,0.898,4.434,2.499,6.035c1.6,1.6,3.771,2.499,6.035,2.499h59.733
			c4.713,0,8.533-3.821,8.533-8.533c0-4.713-3.821-8.533-8.533-8.533h-59.733c-2.263-0.001-4.434,0.898-6.035,2.499
			S230.391,117.203,230.392,119.467z"/>
	</g>
</g>
<g>
</g>
<g>
</g>
<g>
</g>
<g>
</g>
<g>
</g>
<g>
</g>
<g>
</g>
<g>
</g>
<g>
</g>
<g>
</g>
<g>
</g>
<g>
</g>
<g>
</g>
<g>
</g>
<g>
</g>
</svg>
