<?xml version="1.0" encoding="iso-8859-1"?>
<!-- Generator: Adobe Illustrator 19.0.0, SVG Export Plug-In . SVG Version: 6.00 Build 0)  -->
<svg version="1.1" id="Capa_1" xmlns="http://www.w3.org/2000/svg" xmlns:xlink="http://www.w3.org/1999/xlink" x="0px" y="0px"
	 viewBox="0 0 512.016 512.016" style="enable-background:new 0 0 512.016 512.016;" xml:space="preserve">
<g transform="translate(-1)">
	<g transform="translate(1 1)">
		<g>
			<path style="fill:#FFE0B2;" d="M96.008,212.845C94.728,226.84,93.96,240.92,93.875,255v42.667H66.568
				c-8.931-0.521-15.779-8.131-15.36-17.067v-51.2c-0.116-6.147,3.034-11.894,8.277-15.104c2.132-1.302,4.585-1.982,7.083-1.963
				h23.125L96.008,212.845z"/>
			<path style="fill:#FFE0B2;" d="M460.808,229.4v51.2c0.419,8.936-6.43,16.546-15.36,17.067h-27.307V255
				c-0.085-14.08-0.853-28.16-2.133-42.155l6.315-0.512h23.125c2.498-0.019,4.951,0.661,7.083,1.963
				C457.774,217.505,460.924,223.253,460.808,229.4z"/>
		</g>
		<path style="fill:#BFB186;" d="M416.008,212.845c-0.427-5.547-1.024-11.008-1.707-16.555
			c-2.043-27.982-8.884-55.404-20.224-81.067l-0.256-0.512c-4.551-9.689-11.662-17.951-20.565-23.893
			c-11.34-6.956-25.045-8.931-37.888-5.461c-26.453,6.144-52.565,27.477-79.36,27.477c-4.312-0.005-8.609-0.521-12.8-1.536
			c-30.891-6.827-61.013-34.56-92.16-25.941c-4.316,1.278-8.447,3.114-12.288,5.461c-9.061,6.056-16.268,14.504-20.821,24.405
			c-11.34,25.663-18.181,53.085-20.224,81.067c-0.683,5.547-1.28,11.008-1.707,16.555C94.728,226.84,93.96,240.92,93.875,255v55.808
			c-0.064,15.764,1.682,31.483,5.205,46.848c6.741,29.184,17.237,58.88,32.853,71.595c38.229,30.891,17.237,68.693,84.139,72.875
			h0.171c8.984,0.439,17.984,0.411,26.965-0.085c4.011-0.171,8.277-0.427,12.8-0.768c5.035,0.427,9.728,0.683,14.165,0.853h0.171
			c97.877,4.267,67.328-38.571,109.739-72.875c15.616-12.715,26.112-42.411,32.853-71.595c3.523-15.365,5.27-31.084,5.205-46.848
			V255C418.056,240.92,417.288,226.84,416.008,212.845z"/>
		<path style="fill:#FFE0B2;" d="M390.408,212.845c-0.427-5.547-1.024-11.008-1.707-16.555
			c-2.043-27.982-8.884-55.404-20.224-81.067l-0.256-0.512c-4.551-9.689-11.662-17.951-20.565-23.893
			c-3.841-2.348-7.972-4.184-12.288-5.461c-31.147-8.619-61.269,19.115-92.16,25.941c-4.191,1.015-8.488,1.531-12.8,1.536
			c-26.795,0-52.907-21.333-79.36-27.477c-4.316,1.278-8.447,3.114-12.288,5.461c-9.061,6.056-16.268,14.504-20.821,24.405
			c-11.34,25.663-18.181,53.085-20.224,81.067c-0.683,5.547-1.28,11.008-1.707,16.555C94.728,226.84,93.96,240.92,93.875,255v55.808
			c-0.064,15.764,1.682,31.483,5.205,46.848c6.741,29.184,17.237,58.88,32.853,71.595c38.229,30.891,17.237,68.693,84.139,72.875
			h0.171c4.437-0.171,9.13-0.427,14.165-0.853c4.523,0.341,8.789,0.597,12.8,0.768c8.981,0.496,17.981,0.525,26.965,0.085h0.171
			c66.901-4.181,45.909-41.984,84.139-72.875c15.616-12.715,26.112-42.411,32.853-71.595c3.523-15.365,5.27-31.084,5.205-46.848V255
			C392.456,240.92,391.688,226.84,390.408,212.845z"/>
		<g>
			<path style="fill:#D84315;" d="M59.912,212.333l3.84,0.341c-1.511,0.27-2.958,0.82-4.267,1.621
				c-0.085-0.597-0.171-1.28-0.256-1.963H59.912z"/>
			<path style="fill:#D84315;" d="M81.16,64.877c-3.84,2.219-7.083,4.181-9.643,5.888c1.621-4.096,3.413-8.107,5.291-12.032
				C76.808,58.733,78.429,61.293,81.16,64.877z"/>
			<path style="fill:#D84315;" d="M435.208,58.733c-5.764,8.639-12.619,16.498-20.395,23.381c-4.1,3.865-9.224,6.471-14.763,7.509
				c1.27-8.015,1.5-16.161,0.683-24.235v-0.085c-3.399-27.91-23.604-50.861-50.859-57.771c0,0,0,4.011-10.752,8.192
				c-11.349,4.352-34.816,8.875-83.115,8.875C198.11,25.383,141.723,43.19,93.875,75.8l-2.133,1.28
				c-3.77-3.85-7.304-7.925-10.581-12.203c-3.84,2.219-7.083,4.181-9.643,5.888c-20.139,50.261-17.835,104.96-12.288,141.568h0.683
				l3.84,0.341c0.832-0.239,1.695-0.354,2.56-0.341h23.381l6.315,0.512c0.427-5.547,1.024-11.008,1.707-16.555
				c2.043-27.982,8.884-55.404,20.224-81.067c4.554-9.902,11.76-18.349,20.821-24.405c3.29-2.037,6.815-3.67,10.496-4.864
				c31.061-10.069,61.099,17.152,91.904,24.832c4.843,1.308,9.832,1.996,14.848,2.048c26.027,0,51.285-20.053,76.971-26.88
				c12.395-3.848,25.802-2.715,37.376,3.157c0.167,0.162,0.373,0.28,0.597,0.341h0.085c0.768,0.427,1.451,0.853,2.219,1.365
				c8.904,5.942,16.015,14.204,20.565,23.893l0.256,0.512c11.34,25.663,18.181,53.085,20.224,81.067
				c0.683,5.376,1.28,10.667,1.621,16.043c0.07,0.161,0.099,0.337,0.085,0.512l2.475-0.171c1.511,0.27,2.958,0.82,4.267,1.621
				c0.085-0.597,0.171-1.28,0.256-1.963h22.443c2.498-0.019,4.951,0.661,7.083,1.963
				C458.675,174.786,461.405,113.005,435.208,58.733z"/>
		</g>
		<g>
			<path style="fill:#FF5722;" d="M423.005,212.333c-0.085,0.683-0.171,1.365-0.256,1.963c-1.309-0.802-2.756-1.352-4.267-1.621
				c-0.832-0.239-1.695-0.354-2.56-0.341c-0.341-5.376-0.939-10.667-1.621-16.043c-2.043-27.982-8.884-55.404-20.224-81.067
				l-0.256-0.512c2.869-8.146,4.955-16.546,6.229-25.088c5.538-1.038,10.662-3.644,14.763-7.509
				C427.534,124.311,430.337,168.875,423.005,212.333z"/>
			<path style="fill:#FF5722;" d="M370.355,89.112c-11.574-5.873-24.981-7.005-37.376-3.157
				c-25.685,6.827-50.944,26.88-76.971,26.88c-5.016-0.052-10.005-0.74-14.848-2.048c-30.805-7.68-60.843-34.901-91.904-24.832
				c-13.501-4.243-28.175-2.471-40.277,4.864c-9.061,6.056-16.268,14.504-20.821,24.405c-11.34,25.662-18.182,53.085-20.224,81.067
				c-0.683,5.376-1.28,10.667-1.621,16.043c-0.865-0.012-1.728,0.103-2.56,0.341l-3.84-0.341h-0.683
				c-5.547-36.608-7.851-91.307,12.288-141.568c2.56-1.707,5.803-3.669,9.643-5.888c3.278,4.277,6.811,8.352,10.581,12.203
				l2.133-1.28c47.848-32.61,104.235-50.416,162.133-51.2c48.299,0,71.765-4.523,83.115-8.875
				C355.848,25.709,376.499,46.957,370.355,89.112z"/>
			<path style="fill:#FF5722;" d="M63.752,212.674c0.832-0.239,1.695-0.354,2.56-0.341c-0.07,0.161-0.099,0.337-0.085,0.512
				L63.752,212.674z"/>
		</g>
		<g>
			<path style="fill:#00BCD4;" d="M204.808,255v21.333c0,11.782-9.551,21.333-21.333,21.333s-21.333-9.551-21.333-21.333V255
				H204.808z"/>
			<path style="fill:#00BCD4;" d="M349.875,255v21.333c0,11.782-9.551,21.333-21.333,21.333c-11.782,0-21.333-9.551-21.333-21.333
				V255H349.875z"/>
		</g>
		<g>
			<path style="fill:#FFE0B2;" d="M93.958,263.55h-17.15c-4.713,0-8.533-3.821-8.533-8.533c0-4.713,3.821-8.533,8.533-8.533h17.15
				c4.713,0,8.533,3.82,8.533,8.533C102.491,259.729,98.671,263.55,93.958,263.55z"/>
			<path style="fill:#FFE0B2;" d="M435.208,263.55h-17.15c-4.713,0-8.533-3.821-8.533-8.533c0-4.713,3.82-8.533,8.533-8.533h17.15
				c4.713,0,8.533,3.82,8.533,8.533C443.741,259.729,439.921,263.55,435.208,263.55z"/>
		</g>
		<g>
			<path d="M204.808,263.533c-4.713,0-8.533-3.82-8.533-8.533s3.821-8.533,8.533-8.533c14.132-0.015,25.585-11.468,25.6-25.6
				c0-4.713,3.82-8.533,8.533-8.533s8.533,3.821,8.533,8.533C247.447,244.419,228.361,263.505,204.808,263.533z"/>
			<path d="M162.141,263.533h-34.133c-4.713,0-8.533-3.82-8.533-8.533s3.82-8.533,8.533-8.533h34.133
				c4.713,0,8.533,3.821,8.533,8.533S166.854,263.533,162.141,263.533z"/>
			<path d="M307.208,263.533c-23.553-0.028-42.639-19.114-42.667-42.667c0-4.713,3.821-8.533,8.533-8.533s8.533,3.821,8.533,8.533
				c0.015,14.132,11.468,25.585,25.6,25.6c4.713,0,8.533,3.821,8.533,8.533S311.921,263.533,307.208,263.533z"/>
			<path d="M384.008,263.533h-34.133c-4.713,0-8.533-3.82-8.533-8.533s3.82-8.533,8.533-8.533h34.133
				c4.713,0,8.533,3.821,8.533,8.533S388.721,263.533,384.008,263.533z"/>
		</g>
	</g>
	<g>
		<path d="M325.275,392.533H188.741c-4.713,0-8.533,3.821-8.533,8.533s3.821,8.533,8.533,8.533h136.533
			c4.713,0,8.533-3.82,8.533-8.533S329.988,392.533,325.275,392.533z"/>
		<path d="M299.675,418.133c-2.263-0.001-4.434,0.898-6.035,2.499s-2.499,3.771-2.499,6.035h-76.8c-4.713,0-8.533,3.821-8.533,8.533
			s3.821,8.533,8.533,8.533h85.333c2.263,0.001,4.434-0.898,6.035-2.499c1.6-1.6,2.499-3.771,2.499-6.035v-8.533
			c0.001-2.263-0.898-4.434-2.499-6.035C304.109,419.031,301.938,418.132,299.675,418.133z"/>
		<path d="M462.667,211.727c6.015-42.291,7.131-102.036-18.775-155.703c-1.339-2.774-4.068-4.611-7.142-4.808
			c-3.065-0.162-5.989,1.304-7.692,3.858c-5.167,7.852-11.352,14.985-18.393,21.212c0.548-62.155-57.303-75.94-57.932-76.079
			c-4.23-0.949-8.498,1.429-9.917,5.525c-2.175,1.917-16.388,11.333-85.808,11.333C199.039,17.761,142.486,35.07,94.059,66.94
			c-3.264-3.777-6.304-7.742-9.105-11.874c-1.707-2.55-4.631-4.013-7.696-3.85c-3.071,0.198-5.797,2.036-7.133,4.808
			c-25.906,53.666-24.79,113.411-18.775,155.703c-4.943,4.96-7.705,11.686-7.675,18.689v51.2
			c-0.443,13.651,10.23,25.093,23.879,25.6h18.787v4.567c-0.057,16.431,1.761,32.815,5.421,48.833
			c8.988,38.625,21.046,64.275,35.829,76.233c10.33,8.816,18.36,20.013,23.396,32.625c14.171,29.725,28.396,47.375,106.021,41.375
			c10.158,0.783,19.229,1.167,27.358,1.167c53.979,0,66.346-16.708,78.663-42.542c5.034-12.608,13.059-23.802,23.383-32.617
			c14.796-11.967,26.854-37.617,35.842-76.242c3.659-16.018,5.478-32.402,5.421-48.833v-4.566h18.788
			c13.649-0.507,24.322-11.949,23.879-25.6v-51.2C470.372,223.414,467.609,216.688,462.667,211.727z M434.266,76.633
			c14.517,41.082,18.68,85.109,12.119,128.184h-21.723c-0.3-2.842-0.567-5.661-0.912-8.533
			c-2.217-27.971-8.913-55.404-19.831-81.252c1.862-5.769,3.359-11.649,4.482-17.605C418.566,92.672,427.438,85.539,434.266,76.633z
			 M79.792,76.533c2.083,2.475,4.442,5.108,6.992,7.658l1.912-1.702c2.909,3.23,7.795,3.725,11.292,1.143
			c46.431-31.38,100.987-48.578,157.021-49.5c52.962,0,85.575-5.233,97.383-15.583c13.271,4.933,45.546,22.117,38.212,70.858
			c-0.287,1.986-0.785,4.005-1.183,6.004c-3.672-4.259-7.97-7.936-12.746-10.904c-27.93-17.017-54.946-4.25-78.771,7.025
			c-13.158,7.586-27.781,12.282-42.896,13.775c-15.115-1.493-29.738-6.189-42.896-13.775C190.287,80.266,163.266,67.5,135.346,84.5
			c-10.452,6.848-18.772,16.492-24.017,27.833c-11.764,26.575-18.888,54.969-21.062,83.95c-0.349,2.903-0.495,5.661-0.798,8.533
			H67.631C61.062,161.706,65.239,117.641,79.792,76.533L79.792,76.533z M67.554,290.15c-4.18-0.578-7.174-4.329-6.813-8.533v-51.2
			c-0.101-3.166,1.487-6.148,4.17-7.833l0.074-0.032c0.788-0.43,1.67-0.66,2.569-0.669h20.319c-0.657,8.761-1.021,17.251-1.22,25.6
			h-8.845c-4.713,0-8.533,3.82-8.533,8.533s3.821,8.533,8.533,8.533h8.533v25.6H67.554z M410.608,311.783
			c0.058,15.13-1.612,30.216-4.979,44.967c-10.096,43.383-21.858,60.292-29.962,66.85c-12.34,10.372-21.966,23.595-28.046,38.525
			c-10.712,22.467-17.779,37.308-89.946,31.659c-0.221-0.017-0.446-0.025-0.667-0.025s-0.446,0.009-0.667,0.025
			c-72.171,5.642-79.238-9.183-89.946-31.659c-6.082-14.934-15.713-28.16-28.058-38.533c-8.092-6.55-19.854-23.458-29.95-66.842
			c-3.367-14.75-5.037-29.837-4.979-44.967v-55.354c0.007-0.145,0.083-0.267,0.083-0.413c0-0.131-0.069-0.24-0.074-0.37
			c0.187-19.166,1.453-38.306,3.791-57.33c1.923-27.01,8.47-53.489,19.354-78.283c3.862-8.469,9.971-15.717,17.662-20.958
			c20.067-12.233,39.771-2.908,62.588,7.883c15.395,8.767,32.534,14.031,50.196,15.417c17.662-1.386,34.801-6.65,50.196-15.417
			c22.813-10.792,42.513-20.108,62.592-7.875c7.691,5.237,13.799,12.483,17.658,20.95c10.885,24.794,17.431,51.273,19.354,78.283
			c2.338,19.023,3.604,38.162,3.792,57.327c-0.006,0.131-0.076,0.241-0.076,0.373c0,0.146,0.076,0.268,0.083,0.413L410.608,311.783z
			 M453.275,281.617c0.362,4.204-2.633,7.955-6.813,8.533h-18.788v-25.6h8.533c4.713,0,8.533-3.821,8.533-8.533
			s-3.82-8.533-8.533-8.533h-8.713c-0.201-8.321-0.628-16.854-1.282-25.6h20.25c0.898,0.009,1.781,0.239,2.569,0.669l0.073,0.031
			c2.683,1.684,4.27,4.666,4.17,7.833V281.617z"/>
		<path d="M231.408,341.333c-0.001,2.263,0.898,4.434,2.499,6.035c1.6,1.6,3.771,2.499,6.035,2.499h34.133
			c4.713,0,8.533-3.82,8.533-8.533s-3.82-8.533-8.533-8.533h-34.133c-2.263-0.001-4.434,0.898-6.035,2.499
			C232.306,336.899,231.408,339.07,231.408,341.333z"/>
		<path d="M214.341,277.333V263.67c19.85-4.08,34.105-21.539,34.133-41.804c0-4.713-3.821-8.533-8.533-8.533
			s-8.533,3.821-8.533,8.533c-0.015,14.132-11.468,25.585-25.6,25.6h-76.8c-4.713,0-8.533,3.821-8.533,8.533
			s3.821,8.533,8.533,8.533h25.6v12.8c0,16.495,13.372,29.867,29.867,29.867S214.341,293.828,214.341,277.333z M171.675,277.333
			v-12.8h25.6v12.8c0,7.069-5.731,12.8-12.8,12.8C177.406,290.133,171.675,284.402,171.675,277.333z"/>
		<path d="M385.008,247.466h-76.8c-14.132-0.015-25.585-11.468-25.6-25.6c0-4.713-3.82-8.533-8.533-8.533s-8.533,3.821-8.533,8.533
			c0.028,20.265,14.283,37.724,34.133,41.804v13.662c0,16.495,13.372,29.867,29.867,29.867c16.495,0,29.867-13.372,29.867-29.867
			v-12.8h25.6c4.713,0,8.533-3.82,8.533-8.533S389.721,247.466,385.008,247.466z M342.341,277.333c0,7.069-5.731,12.8-12.8,12.8
			c-7.069,0-12.8-5.731-12.8-12.8v-12.8h25.6V277.333z"/>
		<path d="M137.541,221.866h68.267c4.713,0,8.533-3.82,8.533-8.533s-3.821-8.533-8.533-8.533h-68.267
			c-4.713,0-8.533,3.821-8.533,8.533S132.829,221.866,137.541,221.866z"/>
		<path d="M308.208,221.866h68.267c4.713,0,8.533-3.82,8.533-8.533s-3.82-8.533-8.533-8.533h-68.267
			c-4.713,0-8.533,3.821-8.533,8.533S303.495,221.866,308.208,221.866z"/>
		<path d="M257.008,187.733c2.263,0.001,4.434-0.898,6.035-2.499c1.6-1.6,2.499-3.771,2.499-6.035v-25.6
			c0-4.713-3.82-8.533-8.533-8.533c-4.713,0-8.533,3.821-8.533,8.533v25.6c-0.001,2.263,0.898,4.434,2.499,6.035
			C252.574,186.835,254.745,187.734,257.008,187.733z"/>
	</g>
</g>
<g>
</g>
<g>
</g>
<g>
</g>
<g>
</g>
<g>
</g>
<g>
</g>
<g>
</g>
<g>
</g>
<g>
</g>
<g>
</g>
<g>
</g>
<g>
</g>
<g>
</g>
<g>
</g>
<g>
</g>
</svg>
