<svg width="12" height="12" viewBox="0 0 12 12" fill="none" xmlns="http://www.w3.org/2000/svg">
<path d="M11.3219 0.0128843C11.074 -0.0392896 10.8262 0.0911452 10.7349 0.325928C10.5914 0.652015 9.20881 2.0868 8.02185 2.13897C7.34359 2.16506 6.71751 1.69549 6.05229 1.19984C5.19142 0.573754 4.23925 -0.130594 3.01316 0.104189C1.20012 0.443319 0.352291 2.07375 0.31316 2.15201C0.260986 2.25636 0.247943 2.3868 0.27403 2.50419L0.795769 4.83897L2.32186 11.6085C2.37403 11.8564 2.59577 12.0129 2.83055 12.0129C2.86968 12.0129 2.90881 12.0129 2.94794 11.9998C3.2349 11.9346 3.40446 11.6607 3.33925 11.3738L2.45229 7.42158C2.68707 7.05636 3.35229 6.15636 4.39577 5.92158C5.02186 5.7781 5.51751 5.94767 6.09142 6.13028C6.73055 6.33897 7.46099 6.5868 8.40012 6.3781C10.3697 5.92158 11.7001 3.57375 11.7392 0.52158C11.7392 0.273754 11.5697 0.0650582 11.3219 0.0128843ZM8.16533 5.36071C7.51316 5.50419 7.00446 5.33462 6.41751 5.13897C5.77838 4.93028 5.06099 4.68245 4.16099 4.89115C3.27403 5.0868 2.60881 5.60854 2.15229 6.10419L2.10012 5.86941L1.33055 2.4781C1.55229 2.13897 2.16533 1.33028 3.19577 1.13462C3.97838 0.991145 4.64359 1.47375 5.41316 2.04767C6.15664 2.59549 7.01751 3.22158 8.04794 3.18245C8.92185 3.14332 9.82185 2.63462 10.5262 2.06071C10.2262 3.62593 9.45664 5.06071 8.16533 5.36071Z" fill="white"/>
</svg>
